<?xml version="1.0" encoding="UTF-8" standalone="no"?>
<!-- Generator: Adobe Illustrator 19.1.0, SVG Export Plug-In . SVG Version: 6.00 Build 0)  -->

<svg
   xmlns:dc="http://purl.org/dc/elements/1.1/"
   xmlns:cc="http://creativecommons.org/ns#"
   xmlns:rdf="http://www.w3.org/1999/02/22-rdf-syntax-ns#"
   xmlns:svg="http://www.w3.org/2000/svg"
   xmlns="http://www.w3.org/2000/svg"
   xmlns:sodipodi="http://sodipodi.sourceforge.net/DTD/sodipodi-0.dtd"
   xmlns:inkscape="http://www.inkscape.org/namespaces/inkscape"
   version="1.1"
   id="Layer_1"
   x="0px"
   y="0px"
   viewBox="0 0 100 100"
   style="enable-background:new 0 0 100 100;"
   xml:space="preserve"
   inkscape:version="0.91 r13725"
   sodipodi:docname="SecurityIdentity_WebAppFirewall.svg"><metadata
     id="metadata41"><rdf:RDF><cc:Work
         rdf:about=""><dc:format>image/svg+xml</dc:format><dc:type
           rdf:resource="http://purl.org/dc/dcmitype/StillImage" /></cc:Work></rdf:RDF></metadata><defs
     id="defs39" /><sodipodi:namedview
     pagecolor="#ffffff"
     bordercolor="#666666"
     borderopacity="1"
     objecttolerance="10"
     gridtolerance="10"
     guidetolerance="10"
     inkscape:pageopacity="0"
     inkscape:pageshadow="2"
     inkscape:window-width="1280"
     inkscape:window-height="985"
     id="namedview37"
     showgrid="false"
     inkscape:zoom="7.4579687"
     inkscape:cx="50.26817"
     inkscape:cy="50"
     inkscape:window-x="0"
     inkscape:window-y="0"
     inkscape:window-maximized="1"
     inkscape:current-layer="Layer_1" /><style
     type="text/css"
     id="style3">
	.st0{fill:#4C612C;}
	.st1{fill:#769B3F;}
	.st2{fill:#B6C99C;}
</style><g
     id="g5"
     transform="matrix(1.2135922,0,0,1.2135922,-10.67961,-10.67961)"><polygon
       class="st0"
       points="35.6,16 35.6,70.4 50,74.7 50,8.8 "
       id="polygon7"
       style="fill:#4c612c" /><polygon
       class="st1"
       points="64.4,16 64.4,70.4 50,74.7 50,8.8 "
       id="polygon9"
       style="fill:#769b3f" /><polygon
       class="st0"
       points="74.3,55 74.3,64.6 79.7,65.3 79.7,55.3 "
       id="polygon11"
       style="fill:#4c612c" /><polygon
       class="st1"
       points="25.7,55 25.7,64.6 20.3,65.3 20.3,55.3 "
       id="polygon13"
       style="fill:#769b3f" /><polygon
       class="st2"
       points="43.5,65.2 49.4,64.2 25.5,60 20.3,60.5 "
       id="polygon15"
       style="fill:#b6c99c" /><polygon
       class="st1"
       points="84.1,74.1 84.1,59.6 50,66.5 50,91.2 "
       id="polygon17"
       style="fill:#769b3f" /><polygon
       class="st1"
       points="79.7,76.3 79.7,55.3 84.1,54.8 84.1,74.1 "
       id="polygon19"
       style="fill:#769b3f" /><polygon
       class="st2"
       points="79.7,55.3 84.1,54.8 78.9,54.6 74.3,55 "
       id="polygon21"
       style="fill:#b6c99c" /><polygon
       class="st0"
       points="15.9,74.1 15.9,59.6 50,66.5 50,91.2 "
       id="polygon23"
       style="fill:#4c612c" /><polygon
       class="st0"
       points="39.8,57.2 39.8,86.1 50,91.2 50,58.2 "
       id="polygon25"
       style="fill:#4c612c" /><polygon
       class="st0"
       points="20.3,76.3 20.3,55.3 15.9,54.8 15.9,74.1 "
       id="polygon27"
       style="fill:#4c612c" /><polygon
       class="st2"
       points="20.3,55.3 15.9,54.8 21.1,54.6 25.7,55 "
       id="polygon29"
       style="fill:#b6c99c" /><polygon
       class="st2"
       points="74.6,60 50,64.3 55.8,65.3 79.7,60.5 "
       id="polygon31"
       style="fill:#b6c99c" /><polygon
       class="st1"
       points="60.2,56.4 60.2,85.3 50,90.4 50,57.4 "
       id="polygon33"
       style="fill:#769b3f" /><polygon
       class="st2"
       points="50,58.2 60.2,57.2 50,56.4 39.8,57.2 "
       id="polygon35"
       style="fill:#b6c99c" /></g></svg>