<?xml version="1.0" encoding="UTF-8" standalone="no"?>
<!-- Generator: Adobe Illustrator 19.0.0, SVG Export Plug-In . SVG Version: 6.00 Build 0)  -->

<svg
   xmlns:dc="http://purl.org/dc/elements/1.1/"
   xmlns:cc="http://creativecommons.org/ns#"
   xmlns:rdf="http://www.w3.org/1999/02/22-rdf-syntax-ns#"
   xmlns:svg="http://www.w3.org/2000/svg"
   xmlns="http://www.w3.org/2000/svg"
   xmlns:sodipodi="http://sodipodi.sourceforge.net/DTD/sodipodi-0.dtd"
   xmlns:inkscape="http://www.inkscape.org/namespaces/inkscape"
   version="1.1"
   id="Layer_1"
   x="0px"
   y="0px"
   viewBox="0 0 100 100"
   style="enable-background:new 0 0 100 100;"
   xml:space="preserve"
   inkscape:version="0.91 r13725"
   sodipodi:docname="StorageContentDelivery_AmazonGlacier_Vault.svg"><metadata
     id="metadata43"><rdf:RDF><cc:Work
         rdf:about=""><dc:format>image/svg+xml</dc:format><dc:type
           rdf:resource="http://purl.org/dc/dcmitype/StillImage" /></cc:Work></rdf:RDF></metadata><defs
     id="defs41" /><sodipodi:namedview
     pagecolor="#ffffff"
     bordercolor="#666666"
     borderopacity="1"
     objecttolerance="10"
     gridtolerance="10"
     guidetolerance="10"
     inkscape:pageopacity="0"
     inkscape:pageshadow="2"
     inkscape:window-width="1280"
     inkscape:window-height="985"
     id="namedview39"
     showgrid="false"
     inkscape:zoom="7.4579687"
     inkscape:cx="50.26817"
     inkscape:cy="50"
     inkscape:window-x="0"
     inkscape:window-y="0"
     inkscape:window-maximized="1"
     inkscape:current-layer="Layer_1" /><style
     type="text/css"
     id="style3">
	.st0{fill:#E05243;}
	.st1{fill:#8C3123;}
	.st2{fill:#FFFFFF;}
	.st3{display:none;}
</style><g
     id="Layer_1_1_"
     transform="matrix(1.5151515,0,0,1.5151515,-25.757575,-25.757575)"><g
       id="g6"><rect
         x="26.6"
         y="29.1"
         class="st0"
         width="46.799999"
         height="51.400002"
         id="rect8"
         style="fill:#e05243" /><polygon
         class="st0"
         points="27.7,23.4 72.3,23.4 66,17 34.1,17 27.2,23.4 "
         id="polygon10"
         style="fill:#e05243" /><g
         id="g12"><rect
           x="26.6"
           y="80.5"
           class="st1"
           width="46.799999"
           height="2.5"
           id="rect14"
           style="fill:#8c3123" /></g><g
         id="g16"><rect
           x="27.200001"
           y="23.4"
           class="st1"
           width="45.099998"
           height="2.5"
           id="rect18"
           style="fill:#8c3123" /></g></g><g
       id="g20"><path
         class="st1"
         d="m 46.2,50.7 c 1.1,-0.8 2.4,-1.3 3.8,-1.3 1.8,0 3.4,0.7 4.6,2 l 3.5,-1.7 0,-2 c 0,0 -5.3,-2.1 -8.1,-2.1 -2.3,0 -7,0.8 -7,0.8 l 0,2 3.2,2.3 z"
         id="path22"
         inkscape:connector-curvature="0"
         style="fill:#8c3123" /><path
         class="st1"
         d="m 56.4,55 c 0,0.3 0.1,0.6 0.1,0.9 0,3.1 -2.6,7.5 -5.5,8.1 l 0,2 c 5.2,-0.4 9.5,-5.1 9.5,-10.4 0,-0.9 -0.3,-3.4 -0.5,-4.2 L 56.4,55 Z"
         id="path24"
         inkscape:connector-curvature="0"
         style="fill:#8c3123" /><path
         class="st1"
         d="m 47.2,61.7 0,-2 c 0,0 -0.8,0.3 -1.3,0 -1.1,-0.7 -2.3,-2.6 -2.3,-3.8 0,-0.6 0.1,-1.3 0.3,-1.9 l 0,-2 -3.2,-2.3 c -1,2.9 -1,4.4 -1,5.9 0,4.5 3.1,8.6 7.2,9.9 l 0.3,-3.8 z"
         id="path26"
         inkscape:connector-curvature="0"
         style="fill:#8c3123" /></g><path
       class="st2"
       d="m 66.1,47.2 -0.9,-1.8 -11,5.3 c -1,-1.3 -2.6,-2.2 -4.3,-2.2 -1.5,0 -2.8,0.6 -3.8,1.5 l -9.4,-6.8 -1.2,1.6 9.4,6.8 c -0.3,0.7 -0.5,1.5 -0.5,2.3 0,2.4 1.6,4.4 3.7,5.1 l -1,11.2 2,0.2 1,-11.1 c 2.9,-0.2 5.1,-2.5 5.1,-5.4 0,-0.5 -0.1,-1 -0.2,-1.4 l 11.1,-5.3 z"
       id="path28"
       inkscape:connector-curvature="0"
       style="fill:#ffffff" /><g
       id="g30"><path
         class="st2"
         d="m 46.2,48.7 c 1.1,-0.8 2.4,-1.3 3.8,-1.3 1.8,0 3.4,0.7 4.6,2 l 3.5,-1.7 c -1.9,-2.5 -4.8,-4.1 -8.1,-4.1 -2.7,0 -5.2,1.1 -7,2.8 l 3.2,2.3 z"
         id="path32"
         inkscape:connector-curvature="0"
         style="fill:#ffffff" /><path
         class="st2"
         d="m 56.4,53 c 0,0.3 0.1,0.6 0.1,0.9 0,3.1 -2.2,5.7 -5.2,6.3 L 50.9,64 c 5.2,-0.4 9.3,-4.8 9.3,-10.1 0,-0.9 -0.1,-1.7 -0.3,-2.5 L 56.4,53 Z"
         id="path34"
         inkscape:connector-curvature="0"
         style="fill:#ffffff" /><path
         class="st2"
         d="m 47.2,59.7 c -2.2,-1.1 -3.7,-3.3 -3.7,-5.8 0,-0.6 0.1,-1.3 0.3,-1.9 l -3.2,-2.3 c -0.6,1.3 -0.9,2.6 -0.9,4.1 0,4.5 3,8.4 7.1,9.7 l 0.4,-3.8 z"
         id="path36"
         inkscape:connector-curvature="0"
         style="fill:#ffffff" /></g></g><g
     id="nyt_x5F_exporter_x5F_info"
     class="st3" /></svg>