<?xml version="1.0" encoding="UTF-8" standalone="no"?>
<!-- Generator: Adobe Illustrator 19.1.0, SVG Export Plug-In . SVG Version: 6.00 Build 0)  -->

<svg
   xmlns:dc="http://purl.org/dc/elements/1.1/"
   xmlns:cc="http://creativecommons.org/ns#"
   xmlns:rdf="http://www.w3.org/1999/02/22-rdf-syntax-ns#"
   xmlns:svg="http://www.w3.org/2000/svg"
   xmlns="http://www.w3.org/2000/svg"
   xmlns:sodipodi="http://sodipodi.sourceforge.net/DTD/sodipodi-0.dtd"
   xmlns:inkscape="http://www.inkscape.org/namespaces/inkscape"
   version="1.1"
   id="Layer_1"
   x="0px"
   y="0px"
   viewBox="0 0 100 100"
   style="enable-background:new 0 0 100 100;"
   xml:space="preserve"
   inkscape:version="0.91 r13725"
   sodipodi:docname="SecurityIdentity_KeyManagementService.svg"><metadata
     id="metadata23"><rdf:RDF><cc:Work
         rdf:about=""><dc:format>image/svg+xml</dc:format><dc:type
           rdf:resource="http://purl.org/dc/dcmitype/StillImage" /></cc:Work></rdf:RDF></metadata><defs
     id="defs21" /><sodipodi:namedview
     pagecolor="#ffffff"
     bordercolor="#666666"
     borderopacity="1"
     objecttolerance="10"
     gridtolerance="10"
     guidetolerance="10"
     inkscape:pageopacity="0"
     inkscape:pageshadow="2"
     inkscape:window-width="1280"
     inkscape:window-height="985"
     id="namedview19"
     showgrid="false"
     inkscape:zoom="7.4579687"
     inkscape:cx="50.26817"
     inkscape:cy="50"
     inkscape:window-x="0"
     inkscape:window-y="0"
     inkscape:window-maximized="1"
     inkscape:current-layer="Layer_1" /><style
     type="text/css"
     id="style3">
	.st0{fill:#769B3F;}
	.st1{fill:#4C612C;}
</style><g
     id="g5"
     transform="matrix(1.2135922,0,0,1.2135922,-10.67961,-10.67961)"><polygon
       class="st0"
       points="32.9,25.3 30.3,34.6 22.7,33.4 22.7,22.5 "
       id="polygon7"
       style="fill:#769b3f" /><polygon
       class="st1"
       points="22.7,22.5 30.8,36 15.9,37.3 15.9,25.9 "
       id="polygon9"
       style="fill:#4c612c" /><polygon
       class="st1"
       points="67.1,25.3 69.7,34.6 77.3,33.4 77.3,22.5 "
       id="polygon11"
       style="fill:#4c612c" /><polygon
       class="st0"
       points="77.3,22.5 69.2,36 84.1,37.3 84.1,25.9 "
       id="polygon13"
       style="fill:#769b3f" /><polygon
       class="st1"
       points="15.9,35.5 15.9,45.7 29.7,75.2 50,91.2 50,74.7 50,25.3 50,8.8 35.6,16 27.8,32 27.8,32 "
       id="polygon15"
       style="fill:#4c612c" /><polygon
       class="st0"
       points="72.2,32 64.4,16 50,8.8 50,25.3 50,74.7 50,91.2 70.3,75.2 84.1,45.7 84.1,35.5 72.2,32 "
       id="polygon17"
       style="fill:#769b3f" /></g></svg>