<?xml version="1.0" encoding="UTF-8" standalone="no"?>
<!-- Generator: Adobe Illustrator 19.1.0, SVG Export Plug-In . SVG Version: 6.00 Build 0)  -->

<svg
   xmlns:dc="http://purl.org/dc/elements/1.1/"
   xmlns:cc="http://creativecommons.org/ns#"
   xmlns:rdf="http://www.w3.org/1999/02/22-rdf-syntax-ns#"
   xmlns:svg="http://www.w3.org/2000/svg"
   xmlns="http://www.w3.org/2000/svg"
   xmlns:sodipodi="http://sodipodi.sourceforge.net/DTD/sodipodi-0.dtd"
   xmlns:inkscape="http://www.inkscape.org/namespaces/inkscape"
   version="1.1"
   id="Layer_1"
   x="0px"
   y="0px"
   viewBox="0 0 100 100"
   xml:space="preserve"
   inkscape:version="0.91 r13725"
   sodipodi:docname="ApplicationServices_APIGateway.svg"
   width="100"
   height="100"><metadata
     id="metadata55"><rdf:RDF><cc:Work
         rdf:about=""><dc:format>image/svg+xml</dc:format><dc:type
           rdf:resource="http://purl.org/dc/dcmitype/StillImage" /><dc:title></dc:title></cc:Work></rdf:RDF></metadata><defs
     id="defs53" /><sodipodi:namedview
     pagecolor="#ffffff"
     bordercolor="#666666"
     borderopacity="1"
     objecttolerance="10"
     gridtolerance="10"
     guidetolerance="10"
     inkscape:pageopacity="0"
     inkscape:pageshadow="2"
     inkscape:window-width="1280"
     inkscape:window-height="985"
     id="namedview51"
     showgrid="false"
     inkscape:zoom="5.179145"
     inkscape:cx="38.63987"
     inkscape:cy="36.040409"
     inkscape:window-x="0"
     inkscape:window-y="0"
     inkscape:window-maximized="1"
     inkscape:current-layer="Layer_1" /><style
     type="text/css"
     id="style3">
	.st0{fill:#D9A740;}
	.st1{fill:#886A2A;}
	.st2{fill:#634B1E;}
	.st3{fill:#FAD791;}
</style><g
     id="g5"
     transform="scale(1.3888889,1.3888889)"><polygon
       class="st0"
       points="65.8,31.8 65.8,14.9 57.4,10.7 57.4,30.9 "
       id="polygon7"
       style="fill:#d9a740" /><polygon
       class="st1"
       points="57.4,10.7 57.4,30.9 42,31.8 42,14.9 "
       id="polygon9"
       style="fill:#886a2a" /><polygon
       class="st2"
       points="51.3,32.4 42,31.8 57.4,30.9 65.8,31.8 "
       id="polygon11"
       style="fill:#634b1e" /><polygon
       class="st0"
       points="52.8,17.9 52.8,26.3 36,23.3 36,12.5 "
       id="polygon13"
       style="fill:#d9a740" /><polygon
       class="st2"
       points="36.1,23.3 52.8,26.3 45.3,27.1 28.4,24.7 "
       id="polygon15"
       style="fill:#634b1e" /><polygon
       class="st1"
       points="6.2,31.8 6.2,14.8 14.6,10.7 14.6,31 "
       id="polygon17"
       style="fill:#886a2a" /><polygon
       class="st0"
       points="14.6,10.7 14.6,30.9 30,31.8 30,14.9 "
       id="polygon19"
       style="fill:#d9a740" /><polygon
       class="st2"
       points="20.7,32.4 30,31.8 14.6,30.9 6.2,31.8 "
       id="polygon21"
       style="fill:#634b1e" /><polygon
       class="st1"
       points="19.2,17.9 19.2,26.3 36,23.3 36,12.5 "
       id="polygon23"
       style="fill:#886a2a" /><polygon
       class="st2"
       points="35.9,23.3 19.2,26.3 26.7,27.1 43.6,24.7 "
       id="polygon25"
       style="fill:#634b1e" /><polygon
       class="st0"
       points="65.8,40.5 65.8,57.4 57.4,61.6 57.4,41.3 "
       id="polygon27"
       style="fill:#d9a740" /><polygon
       class="st1"
       points="57.4,61.6 57.4,41.3 42,40.5 42,57.4 "
       id="polygon29"
       style="fill:#886a2a" /><polygon
       class="st3"
       points="51.3,39.9 42,40.5 57.4,41.3 65.8,40.5 "
       id="polygon31"
       style="fill:#fad791" /><polygon
       class="st0"
       points="52.8,54.3 52.8,46 36,49 36,59.8 "
       id="polygon33"
       style="fill:#d9a740" /><polygon
       class="st3"
       points="36.1,48.9 52.8,46 45.3,45.2 28.4,47.6 "
       id="polygon35"
       style="fill:#fad791" /><polygon
       class="st1"
       points="6.2,40.5 6.2,57.4 14.6,61.6 14.6,41.3 "
       id="polygon37"
       style="fill:#886a2a" /><polygon
       class="st0"
       points="14.6,61.6 14.6,41.3 30,40.5 30,57.4 "
       id="polygon39"
       style="fill:#d9a740" /><polygon
       class="st3"
       points="20.7,39.9 30,40.5 14.6,41.3 6.2,40.5 "
       id="polygon41"
       style="fill:#fad791" /><polygon
       class="st1"
       points="19.2,54.3 19.2,46 36,49 36,59.8 "
       id="polygon43"
       style="fill:#886a2a" /><polygon
       class="st3"
       points="35.9,48.9 19.2,46 26.7,45.2 43.6,47.6 "
       id="polygon45"
       style="fill:#fad791" /><polygon
       class="st0"
       points="36,72 36,0 44.9,4.5 44.9,67.5 "
       id="polygon47"
       style="fill:#d9a740" /><polygon
       class="st1"
       points="36,72 36,0 27.1,4.5 27.1,67.5 "
       id="polygon49"
       style="fill:#886a2a" /></g></svg>