<?xml version="1.0" encoding="UTF-8" standalone="no"?>
<!-- Generator: Adobe Illustrator 19.0.0, SVG Export Plug-In . SVG Version: 6.00 Build 0)  -->

<svg
   xmlns:dc="http://purl.org/dc/elements/1.1/"
   xmlns:cc="http://creativecommons.org/ns#"
   xmlns:rdf="http://www.w3.org/1999/02/22-rdf-syntax-ns#"
   xmlns:svg="http://www.w3.org/2000/svg"
   xmlns="http://www.w3.org/2000/svg"
   xmlns:sodipodi="http://sodipodi.sourceforge.net/DTD/sodipodi-0.dtd"
   xmlns:inkscape="http://www.inkscape.org/namespaces/inkscape"
   version="1.1"
   id="Layer_1"
   x="0px"
   y="0px"
   viewBox="0 0 100 100"
   style="enable-background:new 0 0 100 100;"
   xml:space="preserve"
   inkscape:version="0.91 r13725"
   sodipodi:docname="SecurityIdentity_DirectoryService.svg"><metadata
     id="metadata41"><rdf:RDF><cc:Work
         rdf:about=""><dc:format>image/svg+xml</dc:format><dc:type
           rdf:resource="http://purl.org/dc/dcmitype/StillImage" /></cc:Work></rdf:RDF></metadata><defs
     id="defs39" /><sodipodi:namedview
     pagecolor="#ffffff"
     bordercolor="#666666"
     borderopacity="1"
     objecttolerance="10"
     gridtolerance="10"
     guidetolerance="10"
     inkscape:pageopacity="0"
     inkscape:pageshadow="2"
     inkscape:window-width="1280"
     inkscape:window-height="985"
     id="namedview37"
     showgrid="false"
     inkscape:zoom="7.4579687"
     inkscape:cx="50.26817"
     inkscape:cy="50"
     inkscape:window-x="0"
     inkscape:window-y="0"
     inkscape:window-maximized="1"
     inkscape:current-layer="Layer_1" /><style
     type="text/css"
     id="style3">
	.st0{fill:#4B612C;}
	.st1{fill:#759C3E;}
	.st2{fill:#B7CA9D;}
	.st3{display:none;}
</style><g
     id="Amazon_CloudSearch"
     transform="matrix(1.3888889,0,0,1.3888889,-19.444445,-19.444445)"><g
       id="g6"><polygon
         class="st0"
         points="57.3,55.1 57.3,50 65.9,50 65.9,55.6 "
         id="polygon8"
         style="fill:#4b612c" /><polygon
         class="st0"
         points="70.1,54.3 70.1,50 76,50 76,54.6 "
         id="polygon10"
         style="fill:#4b612c" /><polygon
         class="st1"
         points="44.8,54.9 44.8,25.4 34.1,22 34.1,55.6 "
         id="polygon12"
         style="fill:#759c3e" /><polygon
         class="st1"
         points="31.3,54.3 31.3,28.7 24,27 24,54.6 "
         id="polygon14"
         style="fill:#759c3e" /><polygon
         class="st1"
         points="79.8,71.1 79.8,62.7 50,71.6 50,86 "
         id="polygon16"
         style="fill:#759c3e" /><polygon
         class="st0"
         points="41.1,56.3 41.1,18.5 50,14 50,57.2 "
         id="polygon18"
         style="fill:#4b612c" /><polygon
         class="st0"
         points="20.2,71.1 20.2,62.7 50,71.6 50,86 "
         id="polygon20"
         style="fill:#4b612c" /><polygon
         class="st0"
         points="28.6,55.1 28.6,24.7 34.1,21.9 34.1,55.6 "
         id="polygon22"
         style="fill:#4b612c" /><polygon
         class="st0"
         points="20.2,54.2 20.2,28.9 24,27 24,54.6 "
         id="polygon24"
         style="fill:#4b612c" /><polygon
         class="st2"
         points="50,71.6 79.8,62.7 50,58.9 20.2,62.7 "
         id="polygon26"
         style="fill:#b7ca9d" /><polygon
         class="st1"
         points="58.9,56.3 58.9,18.5 50,14 50,57.2 "
         id="polygon28"
         style="fill:#759c3e" /><polygon
         class="st1"
         points="76,54.6 76,33.8 79.8,35.1 79.8,54.2 "
         id="polygon30"
         style="fill:#759c3e" /><polygon
         class="st1"
         points="71.4,55.1 71.4,44.9 65.9,44.4 65.9,55.6 "
         id="polygon32"
         style="fill:#759c3e" /><polygon
         class="st1"
         points="50,50 50,14 79.8,28.9 79.8,50 "
         id="polygon34"
         style="fill:#759c3e" /></g></g><g
     id="nyt_x5F_exporter_x5F_info"
     class="st3" /></svg>