<?xml version="1.0" encoding="UTF-8" standalone="no"?>
<!-- Generator: Adobe Illustrator 16.0.4, SVG Export Plug-In . SVG Version: 6.00 Build 0)  -->

<svg
   xmlns:dc="http://purl.org/dc/elements/1.1/"
   xmlns:cc="http://creativecommons.org/ns#"
   xmlns:rdf="http://www.w3.org/1999/02/22-rdf-syntax-ns#"
   xmlns:svg="http://www.w3.org/2000/svg"
   xmlns="http://www.w3.org/2000/svg"
   xmlns:sodipodi="http://sodipodi.sourceforge.net/DTD/sodipodi-0.dtd"
   xmlns:inkscape="http://www.inkscape.org/namespaces/inkscape"
   version="1.1"
   x="0px"
   y="0px"
   width="100px"
   height="100px"
   viewBox="0 0 100 100"
   enable-background="new 0 0 100 100"
   xml:space="preserve"
   id="svg2"
   inkscape:version="0.91 r13725"
   sodipodi:docname="ApplicationServices_AmazonCloudSearch.svg"><metadata
     id="metadata60"><rdf:RDF><cc:Work
         rdf:about=""><dc:format>image/svg+xml</dc:format><dc:type
           rdf:resource="http://purl.org/dc/dcmitype/StillImage" /></cc:Work></rdf:RDF></metadata><defs
     id="defs58" /><sodipodi:namedview
     pagecolor="#ffffff"
     bordercolor="#666666"
     borderopacity="1"
     objecttolerance="10"
     gridtolerance="10"
     guidetolerance="10"
     inkscape:pageopacity="0"
     inkscape:pageshadow="2"
     inkscape:window-width="1280"
     inkscape:window-height="985"
     id="namedview56"
     showgrid="false"
     inkscape:zoom="7.4579687"
     inkscape:cx="50.26817"
     inkscape:cy="50"
     inkscape:window-x="0"
     inkscape:window-y="0"
     inkscape:window-maximized="1"
     inkscape:current-layer="svg2" /><g
     id="Amazon_CloudSearch"
     transform="matrix(1.3888889,0,0,1.3888889,-19.444445,-19.444445)"><g
       id="g5"><polygon
         points="69.321,36.173 45.164,29.851 50.061,28.384 73.781,35.5 "
         id="polygon7"
         style="fill:#876929" /><polygon
         points="30.679,36.173 54.836,29.851 49.939,28.384 26.219,35.5 "
         id="polygon9"
         style="fill:#876929" /><polygon
         points="73.782,57.405 50,61.112 45.104,60.35 69.321,57.056 "
         id="polygon11"
         style="fill:#fad791" /><polygon
         points="26.218,57.405 50,61.112 54.896,60.35 30.679,57.056 "
         id="polygon13"
         style="fill:#fad791" /><polygon
         points="79.752,28.876 79.752,37.292 50,28.366 50,14 "
         id="polygon15"
         style="fill:#d9a741" /><polygon
         points="79.752,56.474 79.752,64.89 50,75.479 50,61.112 "
         id="polygon17"
         style="fill:#d9a741" /><polygon
         points="73.781,67.014 73.781,26.023 79.752,28.992 79.752,64.89 "
         id="polygon19"
         style="fill:#d9a741" /><polygon
         points="58.899,81.521 58.899,62.5 49.98,64.283 49.98,86 "
         id="polygon21"
         style="fill:#d9a741" /><polygon
         points="69.321,57.056 69.321,36.173 73.781,35.5 73.781,57.405 "
         id="polygon23"
         style="fill:#876929" /><polygon
         points="20.248,28.876 20.248,37.292 50,28.366 50,14 "
         id="polygon25"
         style="fill:#876929" /><polygon
         points="20.248,56.474 20.248,64.89 50,75.479 50,61.112 "
         id="polygon27"
         style="fill:#876929" /><polygon
         points="26.219,67.014 26.219,26.023 20.248,28.992 20.248,64.89 "
         id="polygon29"
         style="fill:#876929" /><polygon
         points="41.101,81.521 41.101,62.5 50.02,64.283 50.02,86 "
         id="polygon31"
         style="fill:#876929" /><polygon
         points="30.679,57.056 30.679,36.173 26.219,35.5 26.219,57.405 "
         id="polygon33"
         style="fill:#876929" /></g></g><g
     id="nyt_x5F_exporter_x5F_info"
     display="none"><text
       display="inline"
       id="text36"><tspan
         x="0"
         y="0"
         font-family="'MyriadPro-Regular'"
         font-size="12"
         id="tspan38">&lt;nyt_prefs&gt;</tspan><tspan
         x="0"
         y="14.4"
         font-family="'MyriadPro-Regular'"
         font-size="12"
         id="tspan40">  &lt;nyt_prefix&gt;&lt;/nyt_prefix&gt;</tspan><tspan
         x="0"
         y="28.8"
         font-family="'MyriadPro-Regular'"
         font-size="12"
         id="tspan42">  &lt;nyt_suffix&gt;&lt;/nyt_suffix&gt;</tspan><tspan
         x="0"
         y="43.2"
         font-family="'MyriadPro-Regular'"
         font-size="12"
         id="tspan44">  &lt;nyt_base_path&gt;~/Desktop/wip/Architecture%20Icons%20-%20Update%20all%20customer-facing%20files%20/AWS-Simple-Icons%202/App%20Services/EPS&lt;/nyt_base_path&gt;</tspan><tspan
         x="0"
         y="57.6"
         font-family="'MyriadPro-Regular'"
         font-size="12"
         id="tspan46">  &lt;nyt_scaling&gt;100&lt;/nyt_scaling&gt;</tspan><tspan
         x="0"
         y="72"
         font-family="'MyriadPro-Regular'"
         font-size="12"
         id="tspan48">  &lt;nyt_transparency&gt;true&lt;/nyt_transparency&gt;</tspan><tspan
         x="0"
         y="86.4"
         font-family="'MyriadPro-Regular'"
         font-size="12"
         id="tspan50">  &lt;nyt_format&gt;EPS&lt;/nyt_format&gt;</tspan><tspan
         x="0"
         y="100.8"
         font-family="'MyriadPro-Regular'"
         font-size="12"
         id="tspan52">  &lt;nyt_export_code&gt;artboards&lt;/nyt_export_code&gt;</tspan><tspan
         x="0"
         y="115.2"
         font-family="'MyriadPro-Regular'"
         font-size="12"
         id="tspan54">&lt;/nyt_prefs&gt;</tspan></text>
</g></svg>