<?xml version="1.0" encoding="UTF-8" standalone="no"?>
<!-- Generator: Adobe Illustrator 19.1.0, SVG Export Plug-In . SVG Version: 6.00 Build 0)  -->

<svg
   xmlns:dc="http://purl.org/dc/elements/1.1/"
   xmlns:cc="http://creativecommons.org/ns#"
   xmlns:rdf="http://www.w3.org/1999/02/22-rdf-syntax-ns#"
   xmlns:svg="http://www.w3.org/2000/svg"
   xmlns="http://www.w3.org/2000/svg"
   xmlns:sodipodi="http://sodipodi.sourceforge.net/DTD/sodipodi-0.dtd"
   xmlns:inkscape="http://www.inkscape.org/namespaces/inkscape"
   version="1.1"
   id="Layer_1"
   x="0px"
   y="0px"
   viewBox="0 0 100 100"
   style="enable-background:new 0 0 100 100;"
   xml:space="preserve"
   inkscape:version="0.91 r13725"
   sodipodi:docname="Analytics_AmazonElasticsearch.svg"><metadata
     id="metadata29"><rdf:RDF><cc:Work
         rdf:about=""><dc:format>image/svg+xml</dc:format><dc:type
           rdf:resource="http://purl.org/dc/dcmitype/StillImage" /></cc:Work></rdf:RDF></metadata><defs
     id="defs27" /><sodipodi:namedview
     pagecolor="#ffffff"
     bordercolor="#666666"
     borderopacity="1"
     objecttolerance="10"
     gridtolerance="10"
     guidetolerance="10"
     inkscape:pageopacity="0"
     inkscape:pageshadow="2"
     inkscape:window-width="1280"
     inkscape:window-height="985"
     id="namedview25"
     showgrid="false"
     inkscape:zoom="7.4579687"
     inkscape:cx="50.26817"
     inkscape:cy="50"
     inkscape:window-x="0"
     inkscape:window-y="0"
     inkscape:window-maximized="1"
     inkscape:current-layer="Layer_1" /><style
     type="text/css"
     id="style3">
	.st0{fill:#F58435;}
	.st1{fill:#9D5025;}
	.st2{fill:#6B3B19;}
	.st3{fill:#FBBF92;}
</style><g
     id="g5"
     transform="matrix(1.3888889,0,0,1.3888889,-19.444445,-19.444445)"><polygon
       class="st0"
       points="30.9,45.7 30.9,71.4 24,73.1 24,45.4 "
       id="polygon7"
       style="fill:#f58435" /><polygon
       class="st0"
       points="45.4,35.3 45.4,74.5 34.1,78.1 34.1,33.2 "
       id="polygon9"
       style="fill:#f58435" /><polygon
       class="st1"
       points="76,36.3 70.1,34.5 70.1,65.6 76,63.8 "
       id="polygon11"
       style="fill:#9d5025" /><polygon
       class="st2"
       points="70.2,37.1 52.7,32.7 59.1,31.2 76,36.3 "
       id="polygon13"
       style="fill:#6b3b19" /><polygon
       class="st3"
       points="70.2,63 50.7,67.9 57.2,69.5 76,63.8 "
       id="polygon15"
       style="fill:#fbbf92" /><path
       class="st0"
       d="M 50,14 50,86 79.8,71 79.8,28.9 50,14 Z m 26,49.8 -17.1,5.1 0,-37.7 17.1,5.1 0,27.5 z"
       id="path17"
       inkscape:connector-curvature="0"
       style="fill:#f58435" /><polygon
       class="st1"
       points="39.4,19.3 39.4,80.7 50,86 50,14 "
       id="polygon19"
       style="fill:#9d5025" /><polygon
       class="st1"
       points="27.6,35.1 27.6,74.8 34.1,78.1 34.1,33.2 "
       id="polygon21"
       style="fill:#9d5025" /><polygon
       class="st1"
       points="20.2,45.8 20.2,71.1 24,73 24,45.4 "
       id="polygon23"
       style="fill:#9d5025" /></g></svg>