<?xml version="1.0" encoding="UTF-8" standalone="no"?>
<!-- Generator: Adobe Illustrator 19.1.0, SVG Export Plug-In . SVG Version: 6.00 Build 0)  -->

<svg
   xmlns:dc="http://purl.org/dc/elements/1.1/"
   xmlns:cc="http://creativecommons.org/ns#"
   xmlns:rdf="http://www.w3.org/1999/02/22-rdf-syntax-ns#"
   xmlns:svg="http://www.w3.org/2000/svg"
   xmlns="http://www.w3.org/2000/svg"
   xmlns:sodipodi="http://sodipodi.sourceforge.net/DTD/sodipodi-0.dtd"
   xmlns:inkscape="http://www.inkscape.org/namespaces/inkscape"
   version="1.1"
   id="Layer_1"
   x="0px"
   y="0px"
   viewBox="0 0 100 100"
   style="enable-background:new 0 0 100 100;"
   xml:space="preserve"
   inkscape:version="0.91 r13725"
   sodipodi:docname="MobileServices_AWSMobileHub.svg"><metadata
     id="metadata60"><rdf:RDF><cc:Work
         rdf:about=""><dc:format>image/svg+xml</dc:format><dc:type
           rdf:resource="http://purl.org/dc/dcmitype/StillImage" /></cc:Work></rdf:RDF></metadata><defs
     id="defs58" /><sodipodi:namedview
     pagecolor="#ffffff"
     bordercolor="#666666"
     borderopacity="1"
     objecttolerance="10"
     gridtolerance="10"
     guidetolerance="10"
     inkscape:pageopacity="0"
     inkscape:pageshadow="2"
     inkscape:window-width="1280"
     inkscape:window-height="985"
     id="namedview56"
     showgrid="false"
     inkscape:zoom="7.4579687"
     inkscape:cx="50.26817"
     inkscape:cy="50"
     inkscape:window-x="0"
     inkscape:window-y="0"
     inkscape:window-maximized="1"
     inkscape:current-layer="Layer_1" /><style
     type="text/css"
     id="style3">
	.st0{fill:#AD688A;}
	.st1{fill:#F58435;}
	.st2{fill:#DF5343;}
	.st3{fill:url(#SVGID_1_);}
	.st4{fill:#FFFFFF;}
	.st5{fill:#6A3056;}
</style><g
     id="g5"
     transform="matrix(1.3888889,0,0,1.3888889,-19.444445,-19.444445)"><rect
       x="58.099998"
       y="24.1"
       transform="matrix(0.8679,0.4967,-0.4967,0.8679,21.4628,-30.5233)"
       class="st0"
       width="20"
       height="2"
       id="rect7"
       style="fill:#ad688a" /><rect
       x="76"
       y="35"
       class="st0"
       width="2"
       height="17"
       id="rect9"
       style="fill:#ad688a" /><rect
       x="31.200001"
       y="15.1"
       transform="matrix(0.4967,0.8679,-0.8679,0.4967,38.0056,-15.3503)"
       class="st1"
       width="2"
       height="20"
       id="rect11"
       style="fill:#f58435" /><rect
       x="20"
       y="35"
       class="st1"
       width="3"
       height="17"
       id="rect13"
       style="fill:#f58435" /><polygon
       class="st0"
       points="83,58.1 78,60.9 73,58.2 73,52.7 78,50 83,52.7 "
       id="polygon15"
       style="fill:#ad688a" /><polygon
       class="st0"
       points="83,34.1 78,36.9 73,34.2 73,28.7 78,26 83,28.8 "
       id="polygon17"
       style="fill:#ad688a" /><polygon
       class="st0"
       points="61,22.1 56.5,24.9 52,22.2 52,16.7 56.5,14 61,16.8 "
       id="polygon19"
       style="fill:#ad688a" /><polygon
       class="st1"
       points="37,22.1 42,24.9 47,22.2 47,16.7 42,14 37,16.8 "
       id="polygon21"
       style="fill:#f58435" /><polygon
       class="st1"
       points="17,58.1 22,60.9 27,58.2 27,52.7 22,50 17,52.7 "
       id="polygon23"
       style="fill:#f58435" /><polygon
       class="st1"
       points="17,34.1 22,36.9 27,34.2 27,28.7 22,26 17,28.8 "
       id="polygon25"
       style="fill:#f58435" /><rect
       x="29.5"
       y="74.099998"
       transform="matrix(0.8609,0.5088,-0.5088,0.8609,43.6844,-9.6347)"
       class="st2"
       width="20"
       height="2"
       id="rect27"
       style="fill:#df5343" /><rect
       x="59.299999"
       y="66.099998"
       transform="matrix(0.4876,0.8731,-0.8731,0.4876,95.7118,-14.652)"
       class="st2"
       width="2"
       height="16.200001"
       id="rect29"
       style="fill:#df5343" /><polygon
       class="st2"
       points="34,71.5 34.1,65.9 29.4,63.2 24.6,65.9 24.6,71.4 29.3,74.1 "
       id="polygon31"
       style="fill:#df5343" /><polygon
       class="st2"
       points="75.4,71.5 75.5,66 70.8,63.2 66,65.9 66,71.4 70.7,74.1 "
       id="polygon33"
       style="fill:#df5343" /><polygon
       class="st2"
       points="54.6,83.3 54.6,77.8 49.9,75.1 45.2,77.8 45.2,83.3 49.9,86 "
       id="polygon35"
       style="fill:#df5343" /><linearGradient
       id="SVGID_1_"
       gradientUnits="userSpaceOnUse"
       x1="31.1789"
       y1="51.990799"
       x2="66.879303"
       y2="44.325401"><stop
         offset="0"
         style="stop-color:#F7962F;stop-opacity:0.96"
         id="stop38" /><stop
         offset="0.3563"
         style="stop-color:#D64626;stop-opacity:0.96"
         id="stop40" /><stop
         offset="0.4519"
         style="stop-color:#D04730;stop-opacity:0.9659"
         id="stop42" /><stop
         offset="0.6116"
         style="stop-color:#BF4949;stop-opacity:0.9759"
         id="stop44" /><stop
         offset="0.8144"
         style="stop-color:#A44C73;stop-opacity:0.9885"
         id="stop46" /><stop
         offset="1"
         style="stop-color:#87509F"
         id="stop48" /></linearGradient><polygon
       class="st3"
       points="67.4,58.6 67.7,37.8 50,27.4 32.1,37.5 32.1,58.3 49.9,68.5 "
       id="polygon50"
       style="fill:url(#SVGID_1_)" /><path
       class="st4"
       d="M 49.8,61.9 37.7,54.9 37.8,40.8 50,33.9 62,41 61.8,55.1 49.8,61.9 Z M 38.9,54.2 49.8,60.5 60.5,54.4 60.7,41.7 49.9,35.4 39,41.5 38.9,54.2 Z"
       id="path52"
       inkscape:connector-curvature="0"
       style="fill:#ffffff" /><path
       class="st5"
       d="M 49.9,47.2"
       id="path54"
       inkscape:connector-curvature="0"
       style="fill:#6a3056" /></g></svg>