<?xml version="1.0" encoding="UTF-8" standalone="no"?>
<!-- Generator: Adobe Illustrator 19.1.0, SVG Export Plug-In . SVG Version: 6.00 Build 0)  -->

<svg
   xmlns:dc="http://purl.org/dc/elements/1.1/"
   xmlns:cc="http://creativecommons.org/ns#"
   xmlns:rdf="http://www.w3.org/1999/02/22-rdf-syntax-ns#"
   xmlns:svg="http://www.w3.org/2000/svg"
   xmlns="http://www.w3.org/2000/svg"
   xmlns:sodipodi="http://sodipodi.sourceforge.net/DTD/sodipodi-0.dtd"
   xmlns:inkscape="http://www.inkscape.org/namespaces/inkscape"
   version="1.1"
   id="Layer_1"
   x="0px"
   y="0px"
   viewBox="499 737 100 100"
   style="enable-background:new 499 737 100 100;"
   xml:space="preserve"
   inkscape:version="0.91 r13725"
   sodipodi:docname="InternetOfThings_IOTReportedState.svg"><metadata
     id="metadata29"><rdf:RDF><cc:Work
         rdf:about=""><dc:format>image/svg+xml</dc:format><dc:type
           rdf:resource="http://purl.org/dc/dcmitype/StillImage" /></cc:Work></rdf:RDF></metadata><defs
     id="defs27" /><sodipodi:namedview
     pagecolor="#ffffff"
     bordercolor="#666666"
     borderopacity="1"
     objecttolerance="10"
     gridtolerance="10"
     guidetolerance="10"
     inkscape:pageopacity="0"
     inkscape:pageshadow="2"
     inkscape:window-width="1280"
     inkscape:window-height="985"
     id="namedview25"
     showgrid="false"
     inkscape:zoom="7.4579687"
     inkscape:cx="50.26817"
     inkscape:cy="50"
     inkscape:window-x="0"
     inkscape:window-y="0"
     inkscape:window-maximized="1"
     inkscape:current-layer="Layer_1" /><style
     type="text/css"
     id="style3">
	.st0{fill:#19486F;}
	.st1{fill:#1F5B98;}
	.st2{fill:#99BBE1;}
	.st3{fill:#5193CE;}
	.st4{fill:#17476F;}
	.st5{fill:#FFFFFF;}
	.st6{fill:none;stroke:#5193CE;stroke-width:3;stroke-linecap:round;stroke-linejoin:round;stroke-miterlimit:10;}
	.st7{fill:none;stroke:#FFFFFF;stroke-width:3;stroke-linecap:round;stroke-linejoin:round;stroke-miterlimit:10;}
	.st8{fill:none;stroke:#FFFFFF;stroke-width:3;stroke-miterlimit:10;}
	.st9{fill:#5193CE;stroke:#FFFFFF;stroke-width:3;stroke-miterlimit:10;}
	.st10{fill:none;stroke:#FFFFFF;stroke-width:3;stroke-linecap:round;stroke-miterlimit:10;}
	.st11{fill:#5193CE;stroke:#FFFFFF;stroke-width:3;stroke-linecap:round;stroke-linejoin:round;stroke-miterlimit:10;}
	.st12{fill:#FFFFFF;stroke:#5193CE;stroke-width:2;stroke-miterlimit:10;}
	.st13{fill:none;stroke:#5193CE;stroke-linecap:round;stroke-linejoin:round;stroke-miterlimit:10;}
	.st14{fill:none;stroke:#5193CE;stroke-width:3;stroke-linecap:round;stroke-miterlimit:10;}
	.st15{fill:none;stroke:#5193CE;stroke-linecap:round;stroke-miterlimit:10;}
	.st16{fill:none;stroke:#5193CE;stroke-width:3;stroke-miterlimit:10;}
	.st17{fill:none;}
	.st18{fill:none;stroke:#5193CE;stroke-width:4;stroke-linecap:round;stroke-linejoin:round;stroke-miterlimit:10;}
</style><g
     id="g5"
     transform="matrix(1.7605634,0,0,1.7605634,-417.63733,-598.5634)"><g
       id="g7"><path
         class="st4"
         d="m 575.6,807.7 -53.1,0 0,3 c 0,2.6 2.1,4.7 4.8,4.7 l 43.6,0 c 0.3,0 0.6,0 0.9,-0.1 0.1,0 0.1,0 0.2,0 0.2,-0.1 0.5,-0.1 0.7,-0.2 0,0 0.1,0 0.1,0 0.3,-0.1 0.5,-0.2 0.7,-0.4 0.1,0 0.1,-0.1 0.2,-0.1 0.2,-0.1 0.4,-0.3 0.5,-0.4 0,0 0.1,-0.1 0.1,-0.1 0.2,-0.2 0.4,-0.4 0.5,-0.6 0,-0.1 0.1,-0.1 0.1,-0.2 0.1,-0.1 0.1,-0.2 0.2,-0.3 0,-0.1 0.1,-0.1 0.1,-0.2 0.1,-0.1 0.1,-0.3 0.2,-0.4 0,-0.1 0.1,-0.1 0.1,-0.2 0,-0.1 0,-0.2 0.1,-0.3 0,-0.1 0.1,-0.2 0.1,-0.3 0,-0.1 0,-0.1 0,-0.2 l 0,0 c 0,-0.2 0,-0.4 0,-0.7 l 0,-3 z"
         id="path9"
         inkscape:connector-curvature="0"
         style="fill:#17476f" /><path
         class="st3"
         d="m 570.8,758.6 c 2.6,0 4.8,2.1 4.8,4.7 l 0,44.3 c 0,2.6 -2.1,4.7 -4.8,4.7 l -43.6,0 c -2.6,0 -4.8,-2.1 -4.8,-4.7 l 0,-44.3 c 0,-2.6 2.1,-4.7 4.8,-4.7 l 43.6,0 z"
         id="path11"
         inkscape:connector-curvature="0"
         style="fill:#5193ce" /></g><rect
       x="529"
       y="785.5"
       class="st5"
       width="12.5"
       height="20"
       id="rect13"
       style="fill:#ffffff" /><rect
       x="542.70001"
       y="765.5"
       class="st5"
       width="12.5"
       height="40"
       id="rect15"
       style="fill:#ffffff" /><rect
       x="556.5"
       y="775.5"
       class="st5"
       width="12.5"
       height="30"
       id="rect17"
       style="fill:#ffffff" /><path
       class="st3"
       d="m 535.2,803.3 0,0 c -2.5,0 -4.5,-2 -4.5,-4.5 l 0,0 c 0,-2.5 2,-4.5 4.5,-4.5 l 0,0 c 2.5,0 4.5,2 4.5,4.5 l 0,0 c 0,2.5 -2,4.5 -4.5,4.5 z"
       id="path19"
       inkscape:connector-curvature="0"
       style="fill:#5193ce" /><rect
       x="558.20001"
       y="794.29999"
       class="st3"
       width="9"
       height="9"
       id="rect21"
       style="fill:#5193ce" /><polygon
       class="st3"
       points="553.5,803.3 544.5,803.3 549,794.3 "
       id="polygon23"
       style="fill:#5193ce" /></g></svg>