<?xml version="1.0" encoding="UTF-8" standalone="no"?>
<!-- Generator: Adobe Illustrator 19.1.0, SVG Export Plug-In . SVG Version: 6.00 Build 0)  -->

<svg
   xmlns:dc="http://purl.org/dc/elements/1.1/"
   xmlns:cc="http://creativecommons.org/ns#"
   xmlns:rdf="http://www.w3.org/1999/02/22-rdf-syntax-ns#"
   xmlns:svg="http://www.w3.org/2000/svg"
   xmlns="http://www.w3.org/2000/svg"
   xmlns:sodipodi="http://sodipodi.sourceforge.net/DTD/sodipodi-0.dtd"
   xmlns:inkscape="http://www.inkscape.org/namespaces/inkscape"
   version="1.1"
   id="Layer_1"
   x="0px"
   y="0px"
   viewBox="250 2033 100 100"
   style="enable-background:new 250 2033 100 100;"
   xml:space="preserve"
   inkscape:version="0.91 r13725"
   sodipodi:docname="InternetOfThings_IOTThingCoffeePot.svg"><metadata
     id="metadata71"><rdf:RDF><cc:Work
         rdf:about=""><dc:format>image/svg+xml</dc:format><dc:type
           rdf:resource="http://purl.org/dc/dcmitype/StillImage" /></cc:Work></rdf:RDF></metadata><defs
     id="defs69" /><sodipodi:namedview
     pagecolor="#ffffff"
     bordercolor="#666666"
     borderopacity="1"
     objecttolerance="10"
     gridtolerance="10"
     guidetolerance="10"
     inkscape:pageopacity="0"
     inkscape:pageshadow="2"
     inkscape:window-width="1280"
     inkscape:window-height="985"
     id="namedview67"
     showgrid="false"
     inkscape:zoom="7.4579687"
     inkscape:cx="50.26817"
     inkscape:cy="50"
     inkscape:window-x="0"
     inkscape:window-y="0"
     inkscape:window-maximized="1"
     inkscape:current-layer="Layer_1" /><style
     type="text/css"
     id="style3">
	.st0{fill:#19486F;}
	.st1{fill:#1F5B98;}
	.st2{fill:#99BBE1;}
	.st3{fill:#5193CE;}
	.st4{fill:#17476F;}
	.st5{fill:#FFFFFF;}
	.st6{fill:none;stroke:#5193CE;stroke-width:3;stroke-linecap:round;stroke-linejoin:round;stroke-miterlimit:10;}
	.st7{fill:none;stroke:#FFFFFF;stroke-width:3;stroke-linecap:round;stroke-linejoin:round;stroke-miterlimit:10;}
	.st8{fill:none;stroke:#FFFFFF;stroke-width:3;stroke-miterlimit:10;}
	.st9{fill:#5193CE;stroke:#FFFFFF;stroke-width:3;stroke-miterlimit:10;}
	.st10{fill:none;stroke:#FFFFFF;stroke-width:3;stroke-linecap:round;stroke-miterlimit:10;}
	.st11{fill:#5193CE;stroke:#FFFFFF;stroke-width:3;stroke-linecap:round;stroke-linejoin:round;stroke-miterlimit:10;}
	.st12{fill:#FFFFFF;stroke:#5193CE;stroke-width:2;stroke-miterlimit:10;}
	.st13{fill:none;stroke:#5193CE;stroke-linecap:round;stroke-linejoin:round;stroke-miterlimit:10;}
	.st14{fill:none;stroke:#5193CE;stroke-width:3;stroke-linecap:round;stroke-miterlimit:10;}
	.st15{fill:none;stroke:#5193CE;stroke-linecap:round;stroke-miterlimit:10;}
	.st16{fill:none;stroke:#5193CE;stroke-width:3;stroke-miterlimit:10;}
	.st17{fill:none;}
	.st18{fill:none;stroke:#5193CE;stroke-width:4;stroke-linecap:round;stroke-linejoin:round;stroke-miterlimit:10;}
</style><g
     id="g3399"
     transform="matrix(1.4044968,0,0,1.4044968,-121.34904,-842.56678)"><path
       id="path5"
       d="m 273.4,2105.2 53.1,0 0,3 c 0,2.6 -2.1,4.7 -4.8,4.7 l -43.6,0 c -0.3,0 -0.6,0 -0.9,-0.1 -0.1,0 -0.1,0 -0.2,0 -0.2,-0.1 -0.5,-0.1 -0.7,-0.2 0,0 -0.1,0 -0.1,0 -0.3,-0.1 -0.5,-0.2 -0.7,-0.4 -0.1,0 -0.1,-0.1 -0.2,-0.1 -0.2,-0.1 -0.4,-0.3 -0.5,-0.4 0,0 -0.1,-0.1 -0.1,-0.1 -0.2,-0.2 -0.4,-0.4 -0.5,-0.6 0,-0.1 -0.1,-0.1 -0.1,-0.2 -0.1,-0.1 -0.1,-0.2 -0.2,-0.3 0,-0.1 -0.1,-0.1 -0.1,-0.2 -0.1,-0.1 -0.1,-0.3 -0.2,-0.4 0,-0.1 -0.1,-0.1 -0.1,-0.2 0,-0.1 0,-0.2 -0.1,-0.3 0,-0.1 -0.1,-0.2 -0.1,-0.3 0,-0.1 0,-0.1 0,-0.2 l 0,0 c 0,-0.2 0,-0.4 0,-0.7 l 0,-3 z"
       class="st4"
       inkscape:connector-curvature="0"
       style="fill:#17476f" /><path
       id="path7"
       d="m 278.2,2056.1 c -2.6,0 -4.8,2.1 -4.8,4.7 l 0,44.3 c 0,2.6 2.1,4.7 4.8,4.7 l 43.6,0 c 2.6,0 4.8,-2.1 4.8,-4.7 l 0,-44.3 c 0,-2.6 -2.1,-4.7 -4.8,-4.7 l -43.6,0 z"
       class="st3"
       inkscape:connector-curvature="0"
       style="fill:#5193ce" /><path
       id="path9"
       d="m 305.9,2071 3,21.2 c 1,6.7 0.1,12.9 -8.8,12.9 l -6.5,0 c -8.4,0 -9.7,-6.2 -8.8,-12.9 l 3,-21.2 18.1,0 z"
       class="st5"
       inkscape:connector-curvature="0"
       style="fill:#ffffff" /><path
       id="path11"
       d="m 287.9,2069 c 0.6,-4.2 4,-7.2 7.9,-7.2 l 2.2,0 c 3.9,0 7.3,3 7.9,7.2 l -18,0 z"
       class="st5"
       inkscape:connector-curvature="0"
       style="fill:#ffffff" /><polygon
       id="polygon13"
       points="282,2070.9 291.9,2088.5 285.3,2091.7 277.7,2073 "
       class="st5"
       style="fill:#ffffff" /><path
       id="path15"
       d="m 305.8,2076.4 3,0 c 3.1,0 5.7,2.5 5.7,5.7 l 0,4.4 c 0,3.1 -2.5,5.7 -5.7,5.7 l -1.6,0"
       class="st8"
       inkscape:connector-curvature="0"
       style="fill:none;stroke:#ffffff;stroke-width:3;stroke-miterlimit:10" /><line
       id="line17"
       y2="2101"
       x2="314.5"
       y1="2101"
       x1="300.5"
       class="st8"
       style="fill:none;stroke:#ffffff;stroke-width:3;stroke-miterlimit:10" /><path
       id="path19"
       d="m 320,2105.2 -2.3,0 c -2.3,0 -4.2,-1.9 -4.2,-4.2 l 0,-0.1 c 0,-2.3 1.9,-4.2 4.2,-4.2 l 2.3,0 0,8.5 z"
       class="st5"
       inkscape:connector-curvature="0"
       style="fill:#ffffff" /><g
       id="g21"><line
         id="line23"
         y2="2098.8999"
         x2="322.70001"
         y1="2098.8999"
         x1="317.20001"
         class="st7"
         style="fill:none;stroke:#ffffff;stroke-width:3;stroke-linecap:round;stroke-linejoin:round;stroke-miterlimit:10" /><line
         id="line25"
         y2="2103.1001"
         x2="322.70001"
         y1="2103.1001"
         x1="317.20001"
         class="st7"
         style="fill:none;stroke:#ffffff;stroke-width:3;stroke-linecap:round;stroke-linejoin:round;stroke-miterlimit:10" /></g><rect
       id="rect27"
       height="8.6999998"
       width="4"
       class="st3"
       y="2047.4"
       x="310"
       style="fill:#5193ce" /><rect
       id="rect29"
       height="8.6999998"
       width="4"
       class="st3"
       y="2047.4"
       x="286"
       style="fill:#5193ce" /><rect
       id="rect31"
       height="8.6999998"
       width="4"
       class="st3"
       y="2047.4"
       x="304"
       style="fill:#5193ce" /><rect
       id="rect33"
       height="8.6999998"
       width="4"
       class="st3"
       y="2047.4"
       x="292"
       style="fill:#5193ce" /><rect
       id="rect35"
       height="8.6999998"
       width="4"
       class="st3"
       y="2047.4"
       x="298"
       style="fill:#5193ce" /><rect
       id="rect37"
       height="4"
       width="9"
       class="st3"
       y="2093"
       x="264.39999"
       style="fill:#5193ce" /><rect
       id="rect39"
       height="4"
       width="9"
       class="st3"
       y="2075"
       x="264.39999"
       style="fill:#5193ce" /><rect
       id="rect41"
       height="4"
       width="9"
       class="st3"
       y="2087"
       x="264.39999"
       style="fill:#5193ce" /><rect
       id="rect43"
       height="4"
       width="9"
       class="st3"
       y="2081"
       x="264.39999"
       style="fill:#5193ce" /><rect
       id="rect45"
       height="4"
       width="9"
       class="st3"
       y="2069"
       x="264.39999"
       style="fill:#5193ce" /><rect
       id="rect47"
       height="8.6999998"
       width="4"
       class="st3"
       y="2109.8999"
       x="286"
       style="fill:#5193ce" /><rect
       id="rect49"
       height="8.6999998"
       width="4"
       class="st3"
       y="2109.8999"
       x="310"
       style="fill:#5193ce" /><rect
       id="rect51"
       height="8.6999998"
       width="4"
       class="st3"
       y="2109.8999"
       x="292"
       style="fill:#5193ce" /><rect
       id="rect53"
       height="8.6999998"
       width="4"
       class="st3"
       y="2109.8999"
       x="304"
       style="fill:#5193ce" /><rect
       id="rect55"
       height="8.6999998"
       width="4"
       class="st3"
       y="2109.8999"
       x="298"
       style="fill:#5193ce" /><rect
       id="rect57"
       height="4"
       width="9"
       class="st3"
       y="2087"
       x="326.60001"
       style="fill:#5193ce" /><rect
       id="rect59"
       height="4"
       width="9"
       class="st3"
       y="2069"
       x="326.60001"
       style="fill:#5193ce" /><rect
       id="rect61"
       height="4"
       width="9"
       class="st3"
       y="2081"
       x="326.60001"
       style="fill:#5193ce" /><rect
       id="rect63"
       height="4"
       width="9"
       class="st3"
       y="2075"
       x="326.60001"
       style="fill:#5193ce" /><rect
       id="rect65"
       height="4"
       width="9"
       class="st3"
       y="2093"
       x="326.60001"
       style="fill:#5193ce" /></g></svg>