<?xml version="1.0" encoding="UTF-8" standalone="no"?>
<!-- Generator: Adobe Illustrator 19.1.0, SVG Export Plug-In . SVG Version: 6.00 Build 0)  -->

<svg
   xmlns:dc="http://purl.org/dc/elements/1.1/"
   xmlns:cc="http://creativecommons.org/ns#"
   xmlns:rdf="http://www.w3.org/1999/02/22-rdf-syntax-ns#"
   xmlns:svg="http://www.w3.org/2000/svg"
   xmlns="http://www.w3.org/2000/svg"
   xmlns:sodipodi="http://sodipodi.sourceforge.net/DTD/sodipodi-0.dtd"
   xmlns:inkscape="http://www.inkscape.org/namespaces/inkscape"
   version="1.1"
   id="Layer_1"
   x="0px"
   y="0px"
   viewBox="250 593.5 100 100"
   style="enable-background:new 250 593.5 100 100;"
   xml:space="preserve"
   inkscape:version="0.91 r13725"
   sodipodi:docname="InternetOfThings_IOTThingFactory.svg"><metadata
     id="metadata67"><rdf:RDF><cc:Work
         rdf:about=""><dc:format>image/svg+xml</dc:format><dc:type
           rdf:resource="http://purl.org/dc/dcmitype/StillImage" /></cc:Work></rdf:RDF></metadata><defs
     id="defs65" /><sodipodi:namedview
     pagecolor="#ffffff"
     bordercolor="#666666"
     borderopacity="1"
     objecttolerance="10"
     gridtolerance="10"
     guidetolerance="10"
     inkscape:pageopacity="0"
     inkscape:pageshadow="2"
     inkscape:window-width="1280"
     inkscape:window-height="985"
     id="namedview63"
     showgrid="false"
     inkscape:zoom="7.4579687"
     inkscape:cx="50.26817"
     inkscape:cy="50"
     inkscape:window-x="0"
     inkscape:window-y="0"
     inkscape:window-maximized="1"
     inkscape:current-layer="Layer_1" /><style
     type="text/css"
     id="style3">
	.st0{fill:#19486F;}
	.st1{fill:#1F5B98;}
	.st2{fill:#99BBE1;}
	.st3{fill:#5193CE;}
	.st4{fill:#17476F;}
	.st5{fill:#FFFFFF;}
	.st6{fill:none;stroke:#5193CE;stroke-width:3;stroke-linecap:round;stroke-linejoin:round;stroke-miterlimit:10;}
	.st7{fill:none;stroke:#FFFFFF;stroke-width:3;stroke-linecap:round;stroke-linejoin:round;stroke-miterlimit:10;}
	.st8{fill:none;stroke:#FFFFFF;stroke-width:3;stroke-miterlimit:10;}
	.st9{fill:#5193CE;stroke:#FFFFFF;stroke-width:3;stroke-miterlimit:10;}
	.st10{fill:none;stroke:#FFFFFF;stroke-width:3;stroke-linecap:round;stroke-miterlimit:10;}
	.st11{fill:#5193CE;stroke:#FFFFFF;stroke-width:3;stroke-linecap:round;stroke-linejoin:round;stroke-miterlimit:10;}
	.st12{fill:#FFFFFF;stroke:#5193CE;stroke-width:2;stroke-miterlimit:10;}
	.st13{fill:none;stroke:#5193CE;stroke-linecap:round;stroke-linejoin:round;stroke-miterlimit:10;}
	.st14{fill:none;stroke:#5193CE;stroke-width:3;stroke-linecap:round;stroke-miterlimit:10;}
	.st15{fill:none;stroke:#5193CE;stroke-linecap:round;stroke-miterlimit:10;}
	.st16{fill:none;stroke:#5193CE;stroke-width:3;stroke-miterlimit:10;}
	.st17{fill:none;}
	.st18{fill:none;stroke:#5193CE;stroke-width:4;stroke-linecap:round;stroke-linejoin:round;stroke-miterlimit:10;}
</style><g
     id="g3395"
     transform="matrix(1.4025238,0,0,1.4025238,-120.75714,-258.95395)"><path
       id="path5"
       d="m 326.6,665.6 -53.1,0 0,3 c 0,2.6 2.1,4.7 4.8,4.7 l 43.6,0 c 0.3,0 0.6,0 0.9,-0.1 0.1,0 0.1,0 0.2,0 0.2,-0.1 0.5,-0.1 0.7,-0.2 0,0 0.1,0 0.1,0 0.3,-0.1 0.5,-0.2 0.7,-0.4 0.1,0 0.1,-0.1 0.2,-0.1 0.2,-0.1 0.4,-0.3 0.5,-0.4 0,0 0.1,-0.1 0.1,-0.1 0.2,-0.2 0.4,-0.4 0.5,-0.6 0,-0.1 0.1,-0.1 0.1,-0.2 0.1,-0.1 0.1,-0.2 0.2,-0.3 0,-0.1 0.1,-0.1 0.1,-0.2 0.1,-0.1 0.1,-0.3 0.2,-0.4 0,-0.1 0.1,-0.1 0.1,-0.2 0,-0.1 0,-0.2 0.1,-0.3 0,-0.1 0.1,-0.2 0.1,-0.3 0,-0.1 0,-0.1 0,-0.2 l 0,0 c 0,-0.2 0,-0.4 0,-0.7 l 0,-3 z"
       class="st4"
       inkscape:connector-curvature="0"
       style="fill:#17476f" /><path
       id="path7"
       d="m 321.8,616.6 c 2.6,0 4.8,2.1 4.8,4.7 l 0,44.3 c 0,2.6 -2.1,4.7 -4.8,4.7 l -43.6,0 c -2.6,0 -4.8,-2.1 -4.8,-4.7 l 0,-44.3 c 0,-2.6 2.1,-4.7 4.8,-4.7 l 43.6,0 z"
       class="st3"
       inkscape:connector-curvature="0"
       style="fill:#5193ce" /><path
       id="path9"
       d="m 313.2,637.4 -0.3,-16.1 c 0,-0.3 -0.2,-0.5 -0.5,-0.5 l -3.8,0 c -0.3,0 -0.5,0.2 -0.5,0.5 l -0.2,14 -24.3,-9.6 c -0.7,-0.3 -1.4,0.2 -1.4,0.9 l 0,38 c 0,0.6 0.4,1 1,1 l 33.7,0 c 0.6,0 1,-0.4 1,-1 l 0,-24.7 c 0,-0.4 -0.3,-0.8 -0.6,-0.9 l -4.1,-1.6 z"
       class="st5"
       inkscape:connector-curvature="0"
       style="fill:#ffffff" /><path
       id="path11"
       d="m 301.9,652 -3.7,0 c -0.3,0 -0.5,0.2 -0.5,0.5 l 0,11.2 c 0,0.3 0.2,0.5 0.5,0.5 l 3.7,0 c 0.3,0 0.5,-0.2 0.5,-0.5 l 0,-11.2 c 0,-0.3 -0.2,-0.5 -0.5,-0.5 z"
       class="st3"
       inkscape:connector-curvature="0"
       style="fill:#5193ce" /><path
       id="path13"
       d="m 292.4,652 -3.8,0 c -0.3,0 -0.5,0.2 -0.5,0.5 l 0,4.5 c 0,0.3 0.2,0.5 0.5,0.5 l 3.8,0 c 0.3,0 0.5,-0.2 0.5,-0.5 l 0,-4.5 c 0,-0.3 -0.2,-0.5 -0.5,-0.5 z"
       class="st3"
       inkscape:connector-curvature="0"
       style="fill:#5193ce" /><path
       id="path15"
       d="m 311.6,652 -3.8,0 c -0.3,0 -0.5,0.2 -0.5,0.5 l 0,4.5 c 0,0.3 0.2,0.5 0.5,0.5 l 3.8,0 c 0.3,0 0.5,-0.2 0.5,-0.5 l 0,-4.5 c 0,-0.3 -0.3,-0.5 -0.5,-0.5 z"
       class="st3"
       inkscape:connector-curvature="0"
       style="fill:#5193ce" /><path
       id="path17"
       d="m 292.4,642.5 -3.8,0 c -0.3,0 -0.5,0.2 -0.5,0.5 l 0,4.5 c 0,0.3 0.2,0.5 0.5,0.5 l 3.8,0 c 0.3,0 0.5,-0.2 0.5,-0.5 l 0,-4.5 c 0,-0.2 -0.2,-0.5 -0.5,-0.5 z"
       class="st3"
       inkscape:connector-curvature="0"
       style="fill:#5193ce" /><path
       id="path19"
       d="m 301.9,642.5 -3.8,0 c -0.3,0 -0.5,0.2 -0.5,0.5 l 0,4.5 c 0,0.3 0.2,0.5 0.5,0.5 l 3.8,0 c 0.3,0 0.5,-0.2 0.5,-0.5 l 0,-4.5 c 0,-0.2 -0.2,-0.5 -0.5,-0.5 z"
       class="st3"
       inkscape:connector-curvature="0"
       style="fill:#5193ce" /><path
       id="path21"
       d="m 311.6,642.5 -3.8,0 c -0.3,0 -0.5,0.2 -0.5,0.5 l 0,4.5 c 0,0.3 0.2,0.5 0.5,0.5 l 3.8,0 c 0.3,0 0.5,-0.2 0.5,-0.5 l 0,-4.5 c 0,-0.2 -0.3,-0.5 -0.5,-0.5 z"
       class="st3"
       inkscape:connector-curvature="0"
       style="fill:#5193ce" /><rect
       id="rect23"
       height="8.6999998"
       width="4"
       class="st3"
       y="607.79999"
       x="310"
       style="fill:#5193ce" /><rect
       id="rect25"
       height="8.6999998"
       width="4"
       class="st3"
       y="607.79999"
       x="286"
       style="fill:#5193ce" /><rect
       id="rect27"
       height="8.6999998"
       width="4"
       class="st3"
       y="607.79999"
       x="304"
       style="fill:#5193ce" /><rect
       id="rect29"
       height="8.6999998"
       width="4"
       class="st3"
       y="607.79999"
       x="292"
       style="fill:#5193ce" /><rect
       id="rect31"
       height="8.6999998"
       width="4"
       class="st3"
       y="607.79999"
       x="298"
       style="fill:#5193ce" /><rect
       id="rect33"
       height="4"
       width="9"
       class="st3"
       y="653.5"
       x="264.39999"
       style="fill:#5193ce" /><rect
       id="rect35"
       height="4"
       width="9"
       class="st3"
       y="635.5"
       x="264.39999"
       style="fill:#5193ce" /><rect
       id="rect37"
       height="4"
       width="9"
       class="st3"
       y="647.5"
       x="264.39999"
       style="fill:#5193ce" /><rect
       id="rect39"
       height="4"
       width="9"
       class="st3"
       y="641.5"
       x="264.39999"
       style="fill:#5193ce" /><rect
       id="rect41"
       height="4"
       width="9"
       class="st3"
       y="629.5"
       x="264.39999"
       style="fill:#5193ce" /><rect
       id="rect43"
       height="8.6999998"
       width="4"
       class="st3"
       y="670.40002"
       x="286"
       style="fill:#5193ce" /><rect
       id="rect45"
       height="8.6999998"
       width="4"
       class="st3"
       y="670.40002"
       x="310"
       style="fill:#5193ce" /><rect
       id="rect47"
       height="8.6999998"
       width="4"
       class="st3"
       y="670.40002"
       x="292"
       style="fill:#5193ce" /><rect
       id="rect49"
       height="8.6999998"
       width="4"
       class="st3"
       y="670.40002"
       x="304"
       style="fill:#5193ce" /><rect
       id="rect51"
       height="8.6999998"
       width="4"
       class="st3"
       y="670.40002"
       x="298"
       style="fill:#5193ce" /><rect
       id="rect53"
       height="4"
       width="9"
       class="st3"
       y="647.5"
       x="326.60001"
       style="fill:#5193ce" /><rect
       id="rect55"
       height="4"
       width="9"
       class="st3"
       y="629.5"
       x="326.60001"
       style="fill:#5193ce" /><rect
       id="rect57"
       height="4"
       width="9"
       class="st3"
       y="641.5"
       x="326.60001"
       style="fill:#5193ce" /><rect
       id="rect59"
       height="4"
       width="9"
       class="st3"
       y="635.5"
       x="326.60001"
       style="fill:#5193ce" /><rect
       id="rect61"
       height="4"
       width="9"
       class="st3"
       y="653.5"
       x="326.60001"
       style="fill:#5193ce" /></g></svg>