<?xml version="1.0" encoding="UTF-8" standalone="no"?>
<!-- Generator: Adobe Illustrator 19.1.0, SVG Export Plug-In . SVG Version: 6.00 Build 0)  -->

<svg
   xmlns:dc="http://purl.org/dc/elements/1.1/"
   xmlns:cc="http://creativecommons.org/ns#"
   xmlns:rdf="http://www.w3.org/1999/02/22-rdf-syntax-ns#"
   xmlns:svg="http://www.w3.org/2000/svg"
   xmlns="http://www.w3.org/2000/svg"
   xmlns:sodipodi="http://sodipodi.sourceforge.net/DTD/sodipodi-0.dtd"
   xmlns:inkscape="http://www.inkscape.org/namespaces/inkscape"
   version="1.1"
   id="Layer_1"
   x="0px"
   y="0px"
   viewBox="499 448 100 100"
   style="enable-background:new 499 448 100 100;"
   xml:space="preserve"
   inkscape:version="0.91 r13725"
   sodipodi:docname="InternetOfThings_IOTServo.svg"><metadata
     id="metadata23"><rdf:RDF><cc:Work
         rdf:about=""><dc:format>image/svg+xml</dc:format><dc:type
           rdf:resource="http://purl.org/dc/dcmitype/StillImage" /></cc:Work></rdf:RDF></metadata><defs
     id="defs21" /><sodipodi:namedview
     pagecolor="#ffffff"
     bordercolor="#666666"
     borderopacity="1"
     objecttolerance="10"
     gridtolerance="10"
     guidetolerance="10"
     inkscape:pageopacity="0"
     inkscape:pageshadow="2"
     inkscape:window-width="1280"
     inkscape:window-height="985"
     id="namedview19"
     showgrid="false"
     inkscape:zoom="7.4579687"
     inkscape:cx="50.26817"
     inkscape:cy="50"
     inkscape:window-x="0"
     inkscape:window-y="0"
     inkscape:window-maximized="1"
     inkscape:current-layer="Layer_1" /><style
     type="text/css"
     id="style3">
	.st0{fill:#19486F;}
	.st1{fill:#1F5B98;}
	.st2{fill:#99BBE1;}
	.st3{fill:#5193CE;}
	.st4{fill:#17476F;}
	.st5{fill:#FFFFFF;}
	.st6{fill:none;stroke:#5193CE;stroke-width:3;stroke-linecap:round;stroke-linejoin:round;stroke-miterlimit:10;}
	.st7{fill:none;stroke:#FFFFFF;stroke-width:3;stroke-linecap:round;stroke-linejoin:round;stroke-miterlimit:10;}
	.st8{fill:none;stroke:#FFFFFF;stroke-width:3;stroke-miterlimit:10;}
	.st9{fill:#5193CE;stroke:#FFFFFF;stroke-width:3;stroke-miterlimit:10;}
	.st10{fill:none;stroke:#FFFFFF;stroke-width:3;stroke-linecap:round;stroke-miterlimit:10;}
	.st11{fill:#5193CE;stroke:#FFFFFF;stroke-width:3;stroke-linecap:round;stroke-linejoin:round;stroke-miterlimit:10;}
	.st12{fill:#FFFFFF;stroke:#5193CE;stroke-width:2;stroke-miterlimit:10;}
	.st13{fill:none;stroke:#5193CE;stroke-linecap:round;stroke-linejoin:round;stroke-miterlimit:10;}
	.st14{fill:none;stroke:#5193CE;stroke-width:3;stroke-linecap:round;stroke-miterlimit:10;}
	.st15{fill:none;stroke:#5193CE;stroke-linecap:round;stroke-miterlimit:10;}
	.st16{fill:none;stroke:#5193CE;stroke-width:3;stroke-miterlimit:10;}
	.st17{fill:none;}
	.st18{fill:none;stroke:#5193CE;stroke-width:4;stroke-linecap:round;stroke-linejoin:round;stroke-miterlimit:10;}
</style><g
     id="g3351"
     transform="matrix(1.3333333,0,0,1.3333333,-182.99998,-165.99998)"><rect
       id="rect5"
       height="22.200001"
       width="75"
       class="st4"
       y="502.29999"
       x="511.5"
       style="fill:#17476f" /><rect
       id="rect7"
       height="49.900002"
       width="75"
       class="st3"
       y="471.5"
       x="511.5"
       style="fill:#5193ce" /><path
       id="path9"
       d="m 531.8,501 0,0 c -2.7,0 -4.8,-2.2 -4.8,-4.8 l 0,0 c 0,-2.7 2.2,-4.8 4.8,-4.8 l 0,0 c 2.7,0 4.8,2.2 4.8,4.8 l 0,0 c 0.1,2.6 -2.1,4.8 -4.8,4.8 z"
       class="st5"
       inkscape:connector-curvature="0"
       style="fill:#ffffff" /><polygon
       id="polygon11"
       points="555.2,501 542.7,501 548.9,491.3 "
       class="st5"
       style="fill:#ffffff" /><rect
       id="rect13"
       height="9.6999998"
       width="9.6999998"
       class="st5"
       y="491.29999"
       x="561.20001"
       style="fill:#ffffff" /><path
       id="path15"
       d="m 549.8,471.5 0.2,1.6 c 0,0.3 0.3,0.4 0.5,0.4 l 1.8,-0.2 c 0.4,1.1 0.9,2.2 1.6,3.1 l -1.2,1.3 c -0.2,0.2 -0.2,0.5 0,0.7 l 2.3,2 c 0.2,0.2 0.5,0.2 0.7,0 l 1.2,-1.3 c 1,0.6 2.1,1 3.2,1.3 l -0.1,1.8 c 0,0.3 0.2,0.5 0.5,0.5 l 3,0.1 c 0.3,0 0.5,-0.2 0.5,-0.5 l 0.1,-1.8 c 0.6,-0.1 1.1,-0.2 1.7,-0.4 0.6,-0.2 1.1,-0.4 1.6,-0.7 l 1.1,1.4 c 0.2,0.2 0.5,0.2 0.7,0.1 l 2.4,-1.9 c 0.2,-0.2 0.2,-0.5 0.1,-0.7 l -1.1,-1.4 c 0.8,-0.9 1.4,-1.9 1.8,-2.9 l 1.7,0.4 c 0.3,0.1 0.5,-0.1 0.6,-0.4 l 0.5,-2.5 -25.4,0 z"
       class="st5"
       inkscape:connector-curvature="0"
       style="fill:#ffffff" /><path
       id="path17"
       d="m 545.6,519.7 1.6,-0.8 c 0.2,-0.1 0.3,-0.4 0.2,-0.6 l -1.4,-2.7 c -0.1,-0.2 -0.4,-0.3 -0.6,-0.2 l -1.6,0.9 c -0.7,-0.9 -1.6,-1.7 -2.5,-2.3 l 0.7,-1.7 c 0.1,-0.2 0,-0.5 -0.3,-0.6 l -2.8,-1.1 c -0.2,-0.1 -0.5,0 -0.6,0.3 l -0.7,1.7 c -1.1,-0.2 -2.3,-0.3 -3.4,-0.1 l -0.6,-1.8 c -0.1,-0.2 -0.3,-0.4 -0.6,-0.3 l -2.9,0.9 c -0.2,0.1 -0.4,0.3 -0.3,0.6 l 0.6,1.8 c -1,0.6 -1.9,1.3 -2.7,2.1 l -1.6,-1 c -0.2,-0.1 -0.5,-0.1 -0.7,0.1 l -1.6,2.6 c -0.1,0.2 -0.1,0.5 0.1,0.7 l 1.5,1 c -0.3,0.8 -0.5,1.6 -0.6,2.4 l 21.2,0 c -0.1,-0.8 -0.3,-1.3 -0.4,-1.9 z"
       class="st5"
       inkscape:connector-curvature="0"
       style="fill:#ffffff" /></g></svg>