<?xml version="1.0" encoding="UTF-8" standalone="no"?>
<!-- Generator: Adobe Illustrator 19.1.0, SVG Export Plug-In . SVG Version: 6.00 Build 0)  -->

<svg
   xmlns:dc="http://purl.org/dc/elements/1.1/"
   xmlns:cc="http://creativecommons.org/ns#"
   xmlns:rdf="http://www.w3.org/1999/02/22-rdf-syntax-ns#"
   xmlns:svg="http://www.w3.org/2000/svg"
   xmlns="http://www.w3.org/2000/svg"
   xmlns:sodipodi="http://sodipodi.sourceforge.net/DTD/sodipodi-0.dtd"
   xmlns:inkscape="http://www.inkscape.org/namespaces/inkscape"
   version="1.1"
   id="Layer_1"
   x="0px"
   y="0px"
   viewBox="0 0 100 100"
   style="enable-background:new 0 0 100 100;"
   xml:space="preserve"
   inkscape:version="0.91 r13725"
   sodipodi:docname="InternetOfThings_AWS-IOT.svg"><metadata
     id="metadata59"><rdf:RDF><cc:Work
         rdf:about=""><dc:format>image/svg+xml</dc:format><dc:type
           rdf:resource="http://purl.org/dc/dcmitype/StillImage" /><dc:title></dc:title></cc:Work></rdf:RDF></metadata><defs
     id="defs57" /><sodipodi:namedview
     pagecolor="#ffffff"
     bordercolor="#666666"
     borderopacity="1"
     objecttolerance="10"
     gridtolerance="10"
     guidetolerance="10"
     inkscape:pageopacity="0"
     inkscape:pageshadow="2"
     inkscape:window-width="1280"
     inkscape:window-height="985"
     id="namedview55"
     showgrid="false"
     inkscape:zoom="7.4579687"
     inkscape:cx="50.26817"
     inkscape:cy="50"
     inkscape:window-x="0"
     inkscape:window-y="0"
     inkscape:window-maximized="1"
     inkscape:current-layer="Layer_1" /><style
     type="text/css"
     id="style3">
	.st0{fill:#19486F;}
	.st1{fill:#1F5B98;}
	.st2{fill:#99BBE1;}
	.st3{fill:#5193CE;}
</style><g
     id="g5"
     transform="matrix(1.3888889,0,0,1.3888889,-19.444445,-19.444445)"><polygon
       class="st0"
       points="72,38.3 67.9,37.3 76,36.2 79.8,37.3 "
       id="polygon7"
       style="fill:#19486f" /><polygon
       class="st1"
       points="54.5,42.8 54.5,65.2 76,69.5 76,40.8 "
       id="polygon9"
       style="fill:#1f5b98" /><polygon
       class="st2"
       points="56.3,53.7 50,55.1 50,57.1 76,54.6 "
       id="polygon11"
       style="fill:#99bbe1" /><polygon
       class="st1"
       points="55,28.4 55,50 62.6,50 62.6,26.2 "
       id="polygon13"
       style="fill:#1f5b98" /><polygon
       class="st1"
       points="67.9,28.9 67.9,37.3 76,36.2 76,27 "
       id="polygon15"
       style="fill:#1f5b98" /><polygon
       class="st3"
       points="79.8,71.1 79.8,54.2 50,57.2 50,86 "
       id="polygon17"
       style="fill:#5193ce" /><polygon
       class="st3"
       points="50,35.6 50,86 58.9,81.5 58.9,37.4 "
       id="polygon19"
       style="fill:#5193ce" /><polygon
       class="st3"
       points="76,40.8 76,73 79.8,71.1 79.8,41.6 "
       id="polygon21"
       style="fill:#5193ce" /><polygon
       class="st3"
       points="79.8,37.3 79.8,28.9 76,27 76,36.2 "
       id="polygon23"
       style="fill:#5193ce" /><polygon
       class="st3"
       points="50,28.4 50,14 58.9,18.5 58.9,31.1 "
       id="polygon25"
       style="fill:#5193ce" /><polygon
       class="st3"
       points="73.8,50 73.8,30.7 62.6,26.2 62.6,50 "
       id="polygon27"
       style="fill:#5193ce" /><polygon
       class="st0"
       points="28,38.3 32.1,37.3 24,36.2 20.2,37.3 "
       id="polygon29"
       style="fill:#19486f" /><polygon
       class="st3"
       points="45.5,42.8 45.5,65.2 24,69.5 24,40.8 "
       id="polygon31"
       style="fill:#5193ce" /><polygon
       class="st2"
       points="43.7,53.7 50,55.1 50,57.1 24,54.6 "
       id="polygon33"
       style="fill:#99bbe1" /><polygon
       class="st3"
       points="45,28.4 45,50 37.4,50 37.4,26.2 "
       id="polygon35"
       style="fill:#5193ce" /><polygon
       class="st3"
       points="32.1,28.9 32.1,37.3 24,36.2 24,27 "
       id="polygon37"
       style="fill:#5193ce" /><polygon
       class="st1"
       points="20.2,71.1 20.2,54.2 50,57.2 50,86 "
       id="polygon39"
       style="fill:#1f5b98" /><polygon
       class="st1"
       points="50,35.6 50,86 41.1,81.5 41.1,37.4 "
       id="polygon41"
       style="fill:#1f5b98" /><polygon
       class="st1"
       points="24,40.8 24,73 20.2,71.1 20.2,41.6 "
       id="polygon43"
       style="fill:#1f5b98" /><polygon
       class="st1"
       points="20.2,37.3 20.2,28.9 24,27 24,36.2 "
       id="polygon45"
       style="fill:#1f5b98" /><polygon
       class="st1"
       points="50,28.4 50,14 41.1,18.5 41.1,31.1 "
       id="polygon47"
       style="fill:#1f5b98" /><polygon
       class="st1"
       points="26.2,50 26.2,30.7 37.4,26.2 37.4,50 "
       id="polygon49"
       style="fill:#1f5b98" /><polygon
       class="st0"
       points="50,28.4 58.9,31.1 50,33.2 41.1,31.1 "
       id="polygon51"
       style="fill:#19486f" /></g><text
     transform="matrix(1 0 0 1 17.2489 -18.4662)"
     style="fill:#221F1F; font-family:'HelveticaNeueLTStd-MdCn'; font-size:16.0076px;"
     id="text53">Icebreaker</text>
</svg>