<?xml version="1.0" encoding="UTF-8" standalone="no"?>
<!-- Generator: Adobe Illustrator 19.1.0, SVG Export Plug-In . SVG Version: 6.00 Build 0)  -->

<svg
   xmlns:dc="http://purl.org/dc/elements/1.1/"
   xmlns:cc="http://creativecommons.org/ns#"
   xmlns:rdf="http://www.w3.org/1999/02/22-rdf-syntax-ns#"
   xmlns:svg="http://www.w3.org/2000/svg"
   xmlns="http://www.w3.org/2000/svg"
   xmlns:sodipodi="http://sodipodi.sourceforge.net/DTD/sodipodi-0.dtd"
   xmlns:inkscape="http://www.inkscape.org/namespaces/inkscape"
   version="1.1"
   id="Layer_1"
   x="0px"
   y="0px"
   viewBox="499 174.4 100 100"
   style="enable-background:new 499 174.4 100 100;"
   xml:space="preserve"
   inkscape:version="0.91 r13725"
   sodipodi:docname="InternetOfThings_IOTSimulator.svg"><metadata
     id="metadata47"><rdf:RDF><cc:Work
         rdf:about=""><dc:format>image/svg+xml</dc:format><dc:type
           rdf:resource="http://purl.org/dc/dcmitype/StillImage" /></cc:Work></rdf:RDF></metadata><defs
     id="defs45" /><sodipodi:namedview
     pagecolor="#ffffff"
     bordercolor="#666666"
     borderopacity="1"
     objecttolerance="10"
     gridtolerance="10"
     guidetolerance="10"
     inkscape:pageopacity="0"
     inkscape:pageshadow="2"
     inkscape:window-width="1280"
     inkscape:window-height="985"
     id="namedview43"
     showgrid="false"
     inkscape:zoom="7.4579687"
     inkscape:cx="50.26817"
     inkscape:cy="50"
     inkscape:window-x="0"
     inkscape:window-y="0"
     inkscape:window-maximized="1"
     inkscape:current-layer="Layer_1" /><style
     type="text/css"
     id="style3">
	.st0{fill:#19486F;}
	.st1{fill:#1F5B98;}
	.st2{fill:#99BBE1;}
	.st3{fill:#5193CE;}
	.st4{fill:#17476F;}
	.st5{fill:#FFFFFF;}
	.st6{fill:none;stroke:#5193CE;stroke-width:3;stroke-linecap:round;stroke-linejoin:round;stroke-miterlimit:10;}
	.st7{fill:none;stroke:#FFFFFF;stroke-width:3;stroke-linecap:round;stroke-linejoin:round;stroke-miterlimit:10;}
	.st8{fill:none;stroke:#FFFFFF;stroke-width:3;stroke-miterlimit:10;}
	.st9{fill:#5193CE;stroke:#FFFFFF;stroke-width:3;stroke-miterlimit:10;}
	.st10{fill:none;stroke:#FFFFFF;stroke-width:3;stroke-linecap:round;stroke-miterlimit:10;}
	.st11{fill:#5193CE;stroke:#FFFFFF;stroke-width:3;stroke-linecap:round;stroke-linejoin:round;stroke-miterlimit:10;}
	.st12{fill:#FFFFFF;stroke:#5193CE;stroke-width:2;stroke-miterlimit:10;}
	.st13{fill:none;stroke:#5193CE;stroke-linecap:round;stroke-linejoin:round;stroke-miterlimit:10;}
	.st14{fill:none;stroke:#5193CE;stroke-width:3;stroke-linecap:round;stroke-miterlimit:10;}
	.st15{fill:none;stroke:#5193CE;stroke-linecap:round;stroke-miterlimit:10;}
	.st16{fill:none;stroke:#5193CE;stroke-width:3;stroke-miterlimit:10;}
	.st17{fill:none;}
	.st18{fill:none;stroke:#5193CE;stroke-width:4;stroke-linecap:round;stroke-linejoin:round;stroke-miterlimit:10;}
</style><g
     id="g3375"
     transform="matrix(1.4306152,0,0,1.4306152,-236.55081,-96.701588)"><path
       id="path5"
       d="m 571.6,209.8 c -0.8,0 -1.5,0.1 -2.3,0.2 0,-0.3 0.1,-0.6 0.1,-1 0,-4 -3.3,-7.3 -7.3,-7.3 -2.7,0 -5,1.4 -6.3,3.6 -1.3,-7.3 -7.6,-12.8 -15.2,-12.8 -8.5,0 -15.5,6.9 -15.5,15.5 0,0.9 0.1,1.8 0.3,2.7 -5.4,0.3 -9.7,4.8 -9.7,10.3 0,5.7 4.6,10.4 10.4,10.4 5.1,0 39.6,0 45.6,0 6,0 10.8,-4.8 10.8,-10.8 -0.1,-6 -5,-10.8 -10.9,-10.8 z"
       class="st4"
       inkscape:connector-curvature="0"
       style="fill:#17476f" /><path
       id="path7"
       d="m 571.6,206.8 c -0.8,0 -1.5,0.1 -2.3,0.2 0,-0.3 0.1,-0.6 0.1,-1 0,-4 -3.3,-7.3 -7.3,-7.3 -2.7,0 -5,1.4 -6.3,3.6 -1.3,-7.3 -7.6,-12.8 -15.2,-12.8 -8.5,0 -15.5,6.9 -15.5,15.5 0,0.9 0.1,1.8 0.3,2.7 -5.4,0.3 -9.7,4.8 -9.7,10.3 0,5.7 4.6,10.4 10.4,10.4 5.1,0 39.6,0 45.6,0 6,0 10.8,-4.8 10.8,-10.8 -0.1,-6 -5,-10.8 -10.9,-10.8 z"
       class="st3"
       inkscape:connector-curvature="0"
       style="fill:#5193ce" /><path
       id="path9"
       d="m 549.2,216.5 -2.9,0 c -0.2,0 -0.4,0.2 -0.4,0.4 l 0,6.9 c 0,0.2 0.2,0.4 0.4,0.4 l 2.9,0 c 0.2,0 0.4,-0.2 0.4,-0.4 l 0,-6.9 c 0,-0.2 -0.2,-0.4 -0.4,-0.4 z"
       class="st3"
       inkscape:connector-curvature="0"
       style="fill:#5193ce" /><path
       id="path11"
       d="m 543.2,216.5 -2.3,0 c -0.2,0 -0.4,0.2 -0.4,0.4 l 0,2.7 c 0,0.2 0.2,0.4 0.4,0.4 l 2.3,0 c 0.2,0 0.4,-0.2 0.4,-0.4 l 0,-2.7 c 0,-0.2 -0.2,-0.4 -0.4,-0.4 z"
       class="st3"
       inkscape:connector-curvature="0"
       style="fill:#5193ce" /><path
       id="path13"
       d="m 554.6,216.5 -2.3,0 c -0.2,0 -0.4,0.2 -0.4,0.4 l 0,2.7 c 0,0.2 0.2,0.4 0.4,0.4 l 2.3,0 c 0.2,0 0.4,-0.2 0.4,-0.4 l 0,-2.7 c 0,-0.2 -0.2,-0.4 -0.4,-0.4 z"
       class="st3"
       inkscape:connector-curvature="0"
       style="fill:#5193ce" /><path
       id="path15"
       d="m 557.3,225.9 -16.6,0 c -1.3,0 -2.3,-1 -2.3,-2.3 l 0,-16.6 c 0,-1.3 1,-2.3 2.3,-2.3 l 16.6,0 c 1.3,0 2.3,1 2.3,2.3 l 0,16.6 c 0,1.2 -1,2.3 -2.3,2.3 z"
       class="st5"
       inkscape:connector-curvature="0"
       style="fill:#ffffff" /><line
       id="line17"
       y2="210.3"
       x2="562.5"
       y1="210.3"
       x1="543.79999"
       class="st6"
       style="fill:none;stroke:#5193ce;stroke-width:3;stroke-linecap:round;stroke-linejoin:round;stroke-miterlimit:10" /><line
       id="line19"
       y2="220.2"
       x2="554.20001"
       y1="220.2"
       x1="535.5"
       class="st6"
       style="fill:none;stroke:#5193ce;stroke-width:3;stroke-linecap:round;stroke-linejoin:round;stroke-miterlimit:10" /><circle
       id="circle21"
       r="3.5999999"
       cy="210.3"
       cx="543.79999"
       class="st3"
       style="fill:#5193ce" /><circle
       id="circle23"
       r="3.5999999"
       cy="220.2"
       cx="554.20001"
       class="st3"
       style="fill:#5193ce" /><path
       id="path25"
       d="m 549.2,248.1 -2.9,0 c -0.2,0 -0.4,0.2 -0.4,0.4 l 0,6.9 c 0,0.2 0.2,0.4 0.4,0.4 l 2.9,0 c 0.2,0 0.4,-0.2 0.4,-0.4 l 0,-6.9 c 0,-0.3 -0.2,-0.4 -0.4,-0.4 z"
       class="st3"
       inkscape:connector-curvature="0"
       style="fill:#5193ce" /><path
       id="path27"
       d="m 543.2,248.1 -2.3,0 c -0.2,0 -0.4,0.2 -0.4,0.4 l 0,2.7 c 0,0.2 0.2,0.4 0.4,0.4 l 2.3,0 c 0.2,0 0.4,-0.2 0.4,-0.4 l 0,-2.7 c 0,-0.3 -0.2,-0.4 -0.4,-0.4 z"
       class="st3"
       inkscape:connector-curvature="0"
       style="fill:#5193ce" /><path
       id="path29"
       d="m 554.6,248.1 -2.3,0 c -0.2,0 -0.4,0.2 -0.4,0.4 l 0,2.7 c 0,0.2 0.2,0.4 0.4,0.4 l 2.3,0 c 0.2,0 0.4,-0.2 0.4,-0.4 l 0,-2.7 c 0,-0.3 -0.2,-0.4 -0.4,-0.4 z"
       class="st3"
       inkscape:connector-curvature="0"
       style="fill:#5193ce" /><path
       id="path31"
       d="m 557.3,259.4 -16.6,0 c -1.3,0 -2.3,-1 -2.3,-2.3 l 0,-16.6 c 0,-1.3 1,-2.3 2.3,-2.3 l 16.6,0 c 1.3,0 2.3,1 2.3,2.3 l 0,16.6 c 0,1.3 -1,2.3 -2.3,2.3 z"
       class="st4"
       inkscape:connector-curvature="0"
       style="fill:#17476f" /><path
       id="path33"
       d="m 557.3,257.4 -16.6,0 c -1.3,0 -2.3,-1 -2.3,-2.3 l 0,-16.6 c 0,-1.3 1,-2.3 2.3,-2.3 l 16.6,0 c 1.3,0 2.3,1 2.3,2.3 l 0,16.6 c 0,1.3 -1,2.3 -2.3,2.3 z"
       class="st3"
       inkscape:connector-curvature="0"
       style="fill:#5193ce" /><line
       id="line35"
       y2="241.8"
       x2="562.5"
       y1="241.8"
       x1="543.79999"
       class="st7"
       style="fill:none;stroke:#ffffff;stroke-width:3;stroke-linecap:round;stroke-linejoin:round;stroke-miterlimit:10" /><line
       id="line37"
       y2="251.8"
       x2="554.20001"
       y1="251.8"
       x1="535.5"
       class="st7"
       style="fill:none;stroke:#ffffff;stroke-width:3;stroke-linecap:round;stroke-linejoin:round;stroke-miterlimit:10" /><circle
       id="circle39"
       r="3.5999999"
       cy="241.8"
       cx="543.79999"
       class="st5"
       style="fill:#ffffff" /><circle
       id="circle41"
       r="3.5999999"
       cy="251.8"
       cx="554.20001"
       class="st5"
       style="fill:#ffffff" /></g></svg>