<?xml version="1.0" encoding="UTF-8" standalone="no"?>
<!-- Generator: Adobe Illustrator 19.1.0, SVG Export Plug-In . SVG Version: 6.00 Build 0)  -->

<svg
   xmlns:dc="http://purl.org/dc/elements/1.1/"
   xmlns:cc="http://creativecommons.org/ns#"
   xmlns:rdf="http://www.w3.org/1999/02/22-rdf-syntax-ns#"
   xmlns:svg="http://www.w3.org/2000/svg"
   xmlns="http://www.w3.org/2000/svg"
   xmlns:sodipodi="http://sodipodi.sourceforge.net/DTD/sodipodi-0.dtd"
   xmlns:inkscape="http://www.inkscape.org/namespaces/inkscape"
   version="1.1"
   id="Layer_1"
   x="0px"
   y="0px"
   viewBox="499 306.5 100 100"
   style="enable-background:new 499 306.5 100 100;"
   xml:space="preserve"
   inkscape:version="0.91 r13725"
   sodipodi:docname="InternetOfThings_IOTSensor.svg"><metadata
     id="metadata29"><rdf:RDF><cc:Work
         rdf:about=""><dc:format>image/svg+xml</dc:format><dc:type
           rdf:resource="http://purl.org/dc/dcmitype/StillImage" /></cc:Work></rdf:RDF></metadata><defs
     id="defs27" /><sodipodi:namedview
     pagecolor="#ffffff"
     bordercolor="#666666"
     borderopacity="1"
     objecttolerance="10"
     gridtolerance="10"
     guidetolerance="10"
     inkscape:pageopacity="0"
     inkscape:pageshadow="2"
     inkscape:window-width="1280"
     inkscape:window-height="985"
     id="namedview25"
     showgrid="false"
     inkscape:zoom="7.4579687"
     inkscape:cx="50.26817"
     inkscape:cy="50"
     inkscape:window-x="0"
     inkscape:window-y="0"
     inkscape:window-maximized="1"
     inkscape:current-layer="Layer_1" /><style
     type="text/css"
     id="style3">
	.st0{fill:#19486F;}
	.st1{fill:#1F5B98;}
	.st2{fill:#99BBE1;}
	.st3{fill:#5193CE;}
	.st4{fill:#17476F;}
	.st5{fill:#FFFFFF;}
	.st6{fill:none;stroke:#5193CE;stroke-width:3;stroke-linecap:round;stroke-linejoin:round;stroke-miterlimit:10;}
	.st7{fill:none;stroke:#FFFFFF;stroke-width:3;stroke-linecap:round;stroke-linejoin:round;stroke-miterlimit:10;}
	.st8{fill:none;stroke:#FFFFFF;stroke-width:3;stroke-miterlimit:10;}
	.st9{fill:#5193CE;stroke:#FFFFFF;stroke-width:3;stroke-miterlimit:10;}
	.st10{fill:none;stroke:#FFFFFF;stroke-width:3;stroke-linecap:round;stroke-miterlimit:10;}
	.st11{fill:#5193CE;stroke:#FFFFFF;stroke-width:3;stroke-linecap:round;stroke-linejoin:round;stroke-miterlimit:10;}
	.st12{fill:#FFFFFF;stroke:#5193CE;stroke-width:2;stroke-miterlimit:10;}
	.st13{fill:none;stroke:#5193CE;stroke-linecap:round;stroke-linejoin:round;stroke-miterlimit:10;}
	.st14{fill:none;stroke:#5193CE;stroke-width:3;stroke-linecap:round;stroke-miterlimit:10;}
	.st15{fill:none;stroke:#5193CE;stroke-linecap:round;stroke-miterlimit:10;}
	.st16{fill:none;stroke:#5193CE;stroke-width:3;stroke-miterlimit:10;}
	.st17{fill:none;}
	.st18{fill:none;stroke:#5193CE;stroke-width:4;stroke-linecap:round;stroke-linejoin:round;stroke-miterlimit:10;}
</style><g
     id="g3357"
     transform="matrix(1.2515643,0,0,1.2515643,-138.23396,-89.620103)"><path
       id="path5"
       d="m 559.8,330.2 -3.3,2.3 -1.7,-3.7 c -2.5,-5.6 -8.2,-9.3 -14.4,-9.3 -4.2,0 -8.2,1.6 -11.1,4.6 -3,3 -4.6,7 -4.6,11.2 l 0.1,2.9 -2.5,0.7 c -4,1.2 -7.3,6.3 -7.3,9.8 l 0,1.3 c 0,4.2 5.1,9.2 11.8,9.2 l 44.6,0 c 6.6,0 11.8,-4.9 11.8,-9.2 l 0,-1.3 c 0,-4.3 -4.8,-9.9 -10.3,-10.4 l -3,-0.2 -0.1,-3 c -0.1,-3.4 -2.9,-6.1 -6.3,-6.1 -1.4,0.1 -2.7,0.4 -3.7,1.2 z"
       class="st4"
       inkscape:connector-curvature="0"
       style="fill:#17476f" /><path
       id="path7"
       d="m 559.8,327.2 -3.3,2.3 -1.7,-3.7 c -2.5,-5.6 -8.2,-9.3 -14.4,-9.3 -4.2,0 -8.2,1.6 -11.1,4.6 -3,3 -4.6,7 -4.6,11.2 l 0.1,2.9 -2.5,0.7 c -4,1.2 -7.3,6.3 -7.3,9.8 l 0,1.3 c 0,4.2 5.1,9.2 11.8,9.2 l 44.6,0 c 6.6,0 11.8,-4.9 11.8,-9.2 l 0,-1.3 c 0,-4.3 -4.8,-9.9 -10.3,-10.4 l -3,-0.2 -0.1,-3 c -0.1,-3.4 -2.9,-6.1 -6.3,-6.1 -1.4,0.1 -2.7,0.5 -3.7,1.2 z"
       class="st3"
       inkscape:connector-curvature="0"
       style="fill:#5193ce" /><rect
       id="rect9"
       height="22.200001"
       width="58"
       class="st4"
       y="374.20001"
       x="519.09998"
       style="fill:#17476f" /><rect
       id="rect11"
       height="22.200001"
       width="58"
       class="st3"
       y="371.20001"
       x="519.09998"
       style="fill:#5193ce" /><line
       id="line13"
       y2="356.29999"
       x2="548.09998"
       y1="382.29999"
       x1="548.09998"
       class="st16"
       style="fill:none;stroke:#5193ce;stroke-width:3;stroke-miterlimit:10" /><line
       id="line15"
       y2="356.29999"
       x2="548.09998"
       y1="346.20001"
       x1="548.09998"
       class="st8"
       style="fill:none;stroke:#ffffff;stroke-width:3;stroke-miterlimit:10" /><polygon
       id="polygon17"
       points="548.1,340.5 543.6,347.1 552.6,347.1 "
       class="st5"
       style="fill:#ffffff" /><path
       id="path19"
       d="m 530.9,386.8 0,0 c -2.7,0 -4.8,-2.2 -4.8,-4.8 l 0,0 c 0,-2.7 2.2,-4.8 4.8,-4.8 l 0,0 c 2.7,0 4.8,2.2 4.8,4.8 l 0,0 c 0,2.7 -2.1,4.8 -4.8,4.8 z"
       class="st5"
       inkscape:connector-curvature="0"
       style="fill:#ffffff" /><polygon
       id="polygon21"
       points="554.2,386.8 541.7,386.8 548,377.2 "
       class="st5"
       style="fill:#ffffff" /><rect
       id="rect23"
       height="9.6999998"
       width="9.6999998"
       class="st5"
       y="377.20001"
       x="560.20001"
       style="fill:#ffffff" /></g></svg>