<?xml version="1.0" encoding="UTF-8" standalone="no"?>
<!-- Generator: Adobe Illustrator 19.1.0, SVG Export Plug-In . SVG Version: 6.00 Build 0)  -->

<svg
   xmlns:dc="http://purl.org/dc/elements/1.1/"
   xmlns:cc="http://creativecommons.org/ns#"
   xmlns:rdf="http://www.w3.org/1999/02/22-rdf-syntax-ns#"
   xmlns:svg="http://www.w3.org/2000/svg"
   xmlns="http://www.w3.org/2000/svg"
   xmlns:sodipodi="http://sodipodi.sourceforge.net/DTD/sodipodi-0.dtd"
   xmlns:inkscape="http://www.inkscape.org/namespaces/inkscape"
   version="1.1"
   id="Layer_1"
   x="0px"
   y="0px"
   viewBox="250 2469 100 100"
   style="enable-background:new 250 2469 100 100;"
   xml:space="preserve"
   inkscape:version="0.91 r13725"
   sodipodi:docname="InternetOfThings_IOTThingMedicalEmergency.svg"><metadata
     id="metadata59"><rdf:RDF><cc:Work
         rdf:about=""><dc:format>image/svg+xml</dc:format><dc:type
           rdf:resource="http://purl.org/dc/dcmitype/StillImage" /></cc:Work></rdf:RDF></metadata><defs
     id="defs57" /><sodipodi:namedview
     pagecolor="#ffffff"
     bordercolor="#666666"
     borderopacity="1"
     objecttolerance="10"
     gridtolerance="10"
     guidetolerance="10"
     inkscape:pageopacity="0"
     inkscape:pageshadow="2"
     inkscape:window-width="1280"
     inkscape:window-height="985"
     id="namedview55"
     showgrid="false"
     inkscape:zoom="7.4579687"
     inkscape:cx="50.26817"
     inkscape:cy="50"
     inkscape:window-x="0"
     inkscape:window-y="0"
     inkscape:window-maximized="1"
     inkscape:current-layer="Layer_1" /><style
     type="text/css"
     id="style3">
	.st0{fill:#19486F;}
	.st1{fill:#1F5B98;}
	.st2{fill:#99BBE1;}
	.st3{fill:#5193CE;}
	.st4{fill:#17476F;}
	.st5{fill:#FFFFFF;}
	.st6{fill:none;stroke:#5193CE;stroke-width:3;stroke-linecap:round;stroke-linejoin:round;stroke-miterlimit:10;}
	.st7{fill:none;stroke:#FFFFFF;stroke-width:3;stroke-linecap:round;stroke-linejoin:round;stroke-miterlimit:10;}
	.st8{fill:none;stroke:#FFFFFF;stroke-width:3;stroke-miterlimit:10;}
	.st9{fill:#5193CE;stroke:#FFFFFF;stroke-width:3;stroke-miterlimit:10;}
	.st10{fill:none;stroke:#FFFFFF;stroke-width:3;stroke-linecap:round;stroke-miterlimit:10;}
	.st11{fill:#5193CE;stroke:#FFFFFF;stroke-width:3;stroke-linecap:round;stroke-linejoin:round;stroke-miterlimit:10;}
	.st12{fill:#FFFFFF;stroke:#5193CE;stroke-width:2;stroke-miterlimit:10;}
	.st13{fill:none;stroke:#5193CE;stroke-linecap:round;stroke-linejoin:round;stroke-miterlimit:10;}
	.st14{fill:none;stroke:#5193CE;stroke-width:3;stroke-linecap:round;stroke-miterlimit:10;}
	.st15{fill:none;stroke:#5193CE;stroke-linecap:round;stroke-miterlimit:10;}
	.st16{fill:none;stroke:#5193CE;stroke-width:3;stroke-miterlimit:10;}
	.st17{fill:none;}
	.st18{fill:none;stroke:#5193CE;stroke-width:4;stroke-linecap:round;stroke-linejoin:round;stroke-miterlimit:10;}
</style><g
     id="g3387"
     transform="translate(-14.399998,14.400093)"><path
       style="fill:#17476f"
       inkscape:connector-curvature="0"
       id="path5"
       d="m 277.04045,2535.7798 74.57865,0 0,4.2135 c 0,3.6517 -2.94943,6.6011 -6.74157,6.6011 l -61.23595,0 c -0.42135,0 -0.8427,0 -1.26405,-0.1404 -0.14045,0 -0.14045,0 -0.2809,0 -0.2809,-0.1405 -0.70225,-0.1405 -0.98314,-0.2809 0,0 -0.14045,0 -0.14045,0 -0.42135,-0.1405 -0.70225,-0.2809 -0.98315,-0.5618 -0.14045,0 -0.14045,-0.1405 -0.2809,-0.1405 -0.2809,-0.1404 -0.5618,-0.4213 -0.70225,-0.5618 0,0 -0.14045,-0.1404 -0.14045,-0.1404 -0.28089,-0.2809 -0.56179,-0.5618 -0.70224,-0.8427 0,-0.1405 -0.14045,-0.1405 -0.14045,-0.2809 -0.14045,-0.1405 -0.14045,-0.2809 -0.2809,-0.4214 0,-0.1404 -0.14045,-0.1404 -0.14045,-0.2809 -0.14045,-0.1404 -0.14045,-0.4213 -0.2809,-0.5618 0,-0.1404 -0.14045,-0.1404 -0.14045,-0.2809 0,-0.1404 0,-0.2809 -0.14045,-0.4213 0,-0.1405 -0.14045,-0.2809 -0.14045,-0.4214 0,-0.1404 0,-0.1404 0,-0.2809 l 0,0 c 0,-0.2809 0,-0.5618 0,-0.9831 l 0,-4.2135 z"
       class="st4" /><path
       style="fill:#5193ce"
       inkscape:connector-curvature="0"
       id="path7"
       d="m 283.78202,2466.8191 c -3.65168,0 -6.74157,2.9495 -6.74157,6.6012 l 0,62.2191 c 0,3.6517 2.94944,6.6011 6.74157,6.6011 l 61.23596,0 c 3.65169,0 6.74157,-2.9494 6.74157,-6.6011 l 0,-62.2191 c 0,-3.6517 -2.94943,-6.6012 -6.74157,-6.6012 l -61.23596,0 z"
       class="st3" /><g
       transform="matrix(1.4044944,0,0,1.4044944,-106.94831,-1033.3213)"
       id="g9"><path
         style="fill:#ffffff"
         inkscape:connector-curvature="0"
         id="path11"
         d="m 312.3,2536.2 -24.5,0 c -2.7,0 -5,-2.2 -5,-5 l 0,-24.5 c 0,-2.7 2.2,-5 5,-5 l 24.5,0 c 2.7,0 5,2.2 5,5 l 0,24.5 c -0.1,2.8 -2.3,5 -5,5 z m -24.6,-31.4 c -1.1,0 -2,0.9 -2,2 l 0,24.5 c 0,1.1 0.9,2 2,2 l 24.5,0 c 1.1,0 2,-0.9 2,-2 l 0,-24.5 c 0,-1.1 -0.9,-2 -2,-2 l -24.5,0 z"
         class="st5" /></g><polygon
       style="fill:#ffffff"
       transform="matrix(1.4044944,0,0,1.4044944,-106.94831,-1033.3213)"
       id="polygon13"
       points="296.5,2509.8 296.5,2515.5 290.8,2515.5 290.8,2522.5 296.5,2522.5 296.5,2528.2 303.5,2528.2 303.5,2522.5 309.2,2522.5 309.2,2515.5 303.5,2515.5 303.5,2509.8 "
       class="st5" /><rect
       style="fill:#5193ce"
       id="rect15"
       height="12.219101"
       width="5.6179776"
       class="st3"
       y="2454.5999"
       x="328.44495" /><rect
       style="fill:#5193ce"
       id="rect17"
       height="12.219101"
       width="5.6179776"
       class="st3"
       y="2454.5999"
       x="294.73709" /><rect
       style="fill:#5193ce"
       id="rect19"
       height="12.219101"
       width="5.6179776"
       class="st3"
       y="2454.5999"
       x="320.01797" /><rect
       style="fill:#5193ce"
       id="rect21"
       height="12.219101"
       width="5.6179776"
       class="st3"
       y="2454.5999"
       x="303.16406" /><rect
       style="fill:#5193ce"
       id="rect23"
       height="12.219101"
       width="5.6179776"
       class="st3"
       y="2454.5999"
       x="311.591" /><rect
       style="fill:#5193ce"
       id="rect25"
       height="5.6179776"
       width="12.64045"
       class="st3"
       y="2518.645"
       x="264.39999" /><rect
       style="fill:#5193ce"
       id="rect27"
       height="5.6179776"
       width="12.64045"
       class="st3"
       y="2493.364"
       x="264.39999" /><rect
       style="fill:#5193ce"
       id="rect29"
       height="5.6179776"
       width="12.64045"
       class="st3"
       y="2510.218"
       x="264.39999" /><rect
       style="fill:#5193ce"
       id="rect31"
       height="5.6179776"
       width="12.64045"
       class="st3"
       y="2501.791"
       x="264.39999" /><rect
       style="fill:#5193ce"
       id="rect33"
       height="5.6179776"
       width="12.64045"
       class="st3"
       y="2484.937"
       x="264.39999" /><rect
       style="fill:#5193ce"
       id="rect35"
       height="12.219101"
       width="5.6179776"
       class="st3"
       y="2542.3809"
       x="294.73709" /><rect
       style="fill:#5193ce"
       id="rect37"
       height="12.219101"
       width="5.6179776"
       class="st3"
       y="2542.3809"
       x="328.44495" /><rect
       style="fill:#5193ce"
       id="rect39"
       height="12.219101"
       width="5.6179776"
       class="st3"
       y="2542.3809"
       x="303.16406" /><rect
       style="fill:#5193ce"
       id="rect41"
       height="12.219101"
       width="5.6179776"
       class="st3"
       y="2542.3809"
       x="320.01797" /><rect
       style="fill:#5193ce"
       id="rect43"
       height="12.219101"
       width="5.6179776"
       class="st3"
       y="2542.3809"
       x="311.591" /><rect
       style="fill:#5193ce"
       id="rect45"
       height="5.6179776"
       width="12.64045"
       class="st3"
       y="2510.218"
       x="351.75955" /><rect
       style="fill:#5193ce"
       id="rect47"
       height="5.6179776"
       width="12.64045"
       class="st3"
       y="2484.937"
       x="351.75955" /><rect
       style="fill:#5193ce"
       id="rect49"
       height="5.6179776"
       width="12.64045"
       class="st3"
       y="2501.791"
       x="351.75955" /><rect
       style="fill:#5193ce"
       id="rect51"
       height="5.6179776"
       width="12.64045"
       class="st3"
       y="2493.364"
       x="351.75955" /><rect
       style="fill:#5193ce"
       id="rect53"
       height="5.6179776"
       width="12.64045"
       class="st3"
       y="2518.645"
       x="351.75955" /></g></svg>