<?xml version="1.0" encoding="UTF-8" standalone="no"?>
<!-- Generator: Adobe Illustrator 19.1.0, SVG Export Plug-In . SVG Version: 6.00 Build 0)  -->

<svg
   xmlns:dc="http://purl.org/dc/elements/1.1/"
   xmlns:cc="http://creativecommons.org/ns#"
   xmlns:rdf="http://www.w3.org/1999/02/22-rdf-syntax-ns#"
   xmlns:svg="http://www.w3.org/2000/svg"
   xmlns="http://www.w3.org/2000/svg"
   xmlns:sodipodi="http://sodipodi.sourceforge.net/DTD/sodipodi-0.dtd"
   xmlns:inkscape="http://www.inkscape.org/namespaces/inkscape"
   version="1.1"
   id="Layer_1"
   x="0px"
   y="0px"
   viewBox="250 306.5 100 100"
   style="enable-background:new 250 306.5 100 100;"
   xml:space="preserve"
   inkscape:version="0.91 r13725"
   sodipodi:docname="InternetOfThings_IOTThingLightbulb.svg"><metadata
     id="metadata67"><rdf:RDF><cc:Work
         rdf:about=""><dc:format>image/svg+xml</dc:format><dc:type
           rdf:resource="http://purl.org/dc/dcmitype/StillImage" /></cc:Work></rdf:RDF></metadata><defs
     id="defs65" /><sodipodi:namedview
     pagecolor="#ffffff"
     bordercolor="#666666"
     borderopacity="1"
     objecttolerance="10"
     gridtolerance="10"
     guidetolerance="10"
     inkscape:pageopacity="0"
     inkscape:pageshadow="2"
     inkscape:window-width="1280"
     inkscape:window-height="985"
     id="namedview63"
     showgrid="false"
     inkscape:zoom="7.4579687"
     inkscape:cx="50.26817"
     inkscape:cy="50"
     inkscape:window-x="0"
     inkscape:window-y="0"
     inkscape:window-maximized="1"
     inkscape:current-layer="Layer_1" /><style
     type="text/css"
     id="style3">
	.st0{fill:#19486F;}
	.st1{fill:#1F5B98;}
	.st2{fill:#99BBE1;}
	.st3{fill:#5193CE;}
	.st4{fill:#17476F;}
	.st5{fill:#FFFFFF;}
	.st6{fill:none;stroke:#5193CE;stroke-width:3;stroke-linecap:round;stroke-linejoin:round;stroke-miterlimit:10;}
	.st7{fill:none;stroke:#FFFFFF;stroke-width:3;stroke-linecap:round;stroke-linejoin:round;stroke-miterlimit:10;}
	.st8{fill:none;stroke:#FFFFFF;stroke-width:3;stroke-miterlimit:10;}
	.st9{fill:#5193CE;stroke:#FFFFFF;stroke-width:3;stroke-miterlimit:10;}
	.st10{fill:none;stroke:#FFFFFF;stroke-width:3;stroke-linecap:round;stroke-miterlimit:10;}
	.st11{fill:#5193CE;stroke:#FFFFFF;stroke-width:3;stroke-linecap:round;stroke-linejoin:round;stroke-miterlimit:10;}
	.st12{fill:#FFFFFF;stroke:#5193CE;stroke-width:2;stroke-miterlimit:10;}
	.st13{fill:none;stroke:#5193CE;stroke-linecap:round;stroke-linejoin:round;stroke-miterlimit:10;}
	.st14{fill:none;stroke:#5193CE;stroke-width:3;stroke-linecap:round;stroke-miterlimit:10;}
	.st15{fill:none;stroke:#5193CE;stroke-linecap:round;stroke-miterlimit:10;}
	.st16{fill:none;stroke:#5193CE;stroke-width:3;stroke-miterlimit:10;}
	.st17{fill:none;}
	.st18{fill:none;stroke:#5193CE;stroke-width:4;stroke-linecap:round;stroke-linejoin:round;stroke-miterlimit:10;}
</style><g
     id="g3395"
     transform="matrix(1.4025244,0,0,1.4025244,-120.75732,-143.42981)"><path
       id="path5"
       d="m 273.4,378.6 53.1,0 0,3 c 0,2.6 -2.1,4.7 -4.8,4.7 l -43.6,0 c -0.3,0 -0.6,0 -0.9,-0.1 -0.1,0 -0.1,0 -0.2,0 -0.2,-0.1 -0.5,-0.1 -0.7,-0.2 0,0 -0.1,0 -0.1,0 -0.3,-0.1 -0.5,-0.2 -0.7,-0.4 -0.1,0 -0.1,-0.1 -0.2,-0.1 -0.2,-0.1 -0.4,-0.3 -0.5,-0.4 0,0 -0.1,-0.1 -0.1,-0.1 -0.2,-0.2 -0.4,-0.4 -0.5,-0.6 0,-0.1 -0.1,-0.1 -0.1,-0.2 -0.1,-0.1 -0.1,-0.2 -0.2,-0.3 0,-0.1 -0.1,-0.1 -0.1,-0.2 -0.1,-0.1 -0.1,-0.3 -0.2,-0.4 0,-0.1 -0.1,-0.1 -0.1,-0.2 0,-0.1 0,-0.2 -0.1,-0.3 0,-0.1 -0.1,-0.2 -0.1,-0.3 0,-0.1 0,-0.1 0,-0.2 l 0,0 c 0,-0.2 0,-0.4 0,-0.7 l 0,-3 z"
       class="st4"
       inkscape:connector-curvature="0"
       style="fill:#17476f" /><path
       id="path7"
       d="m 278.2,329.6 c -2.6,0 -4.8,2.1 -4.8,4.7 l 0,44.3 c 0,2.6 2.1,4.7 4.8,4.7 l 43.6,0 c 2.6,0 4.8,-2.1 4.8,-4.7 l 0,-44.3 c 0,-2.6 -2.1,-4.7 -4.8,-4.7 l -43.6,0 z"
       class="st3"
       inkscape:connector-curvature="0"
       style="fill:#5193ce" /><path
       id="path9"
       d="m 301,377.1 -2,0 c -1.8,0 -3.3,-1.5 -3.3,-3.3 l 0,-5.3 8.7,0 0,5.3 c -0.1,1.8 -1.6,3.3 -3.4,3.3 z"
       class="st5"
       inkscape:connector-curvature="0"
       style="fill:#ffffff" /><line
       id="line11"
       y2="366.60001"
       x2="304.29999"
       y1="366.60001"
       x1="295.70001"
       class="st7"
       style="fill:none;stroke:#ffffff;stroke-width:3;stroke-linecap:round;stroke-linejoin:round;stroke-miterlimit:10" /><line
       id="line13"
       y2="358.39999"
       x2="294.89999"
       y1="350.10001"
       x1="308.89999"
       class="st7"
       style="fill:none;stroke:#ffffff;stroke-width:3;stroke-linecap:round;stroke-linejoin:round;stroke-miterlimit:10" /><line
       id="line15"
       y2="348.29999"
       x2="291.10001"
       y1="340"
       x1="305.10001"
       class="st7"
       style="fill:none;stroke:#ffffff;stroke-width:3;stroke-linecap:round;stroke-linejoin:round;stroke-miterlimit:10" /><line
       id="line17"
       y2="354.5"
       x2="291.10001"
       y1="343.89999"
       x1="308.89999"
       class="st7"
       style="fill:none;stroke:#ffffff;stroke-width:3;stroke-linecap:round;stroke-linejoin:round;stroke-miterlimit:10" /><polyline
       id="polyline19"
       points="308.9,356.3 300,361.6 300,366.6 "
       class="st7"
       style="fill:none;stroke:#ffffff;stroke-width:3;stroke-linecap:round;stroke-linejoin:round;stroke-miterlimit:10" /><line
       id="line21"
       y2="342.10001"
       x2="291.10001"
       y1="337.70001"
       x1="298.5"
       class="st7"
       style="fill:none;stroke:#ffffff;stroke-width:3;stroke-linecap:round;stroke-linejoin:round;stroke-miterlimit:10" /><rect
       id="rect23"
       height="8.6999998"
       width="4"
       class="st3"
       y="320.79999"
       x="310"
       style="fill:#5193ce" /><rect
       id="rect25"
       height="8.6999998"
       width="4"
       class="st3"
       y="320.79999"
       x="286"
       style="fill:#5193ce" /><rect
       id="rect27"
       height="8.6999998"
       width="4"
       class="st3"
       y="320.79999"
       x="304"
       style="fill:#5193ce" /><rect
       id="rect29"
       height="8.6999998"
       width="4"
       class="st3"
       y="320.79999"
       x="292"
       style="fill:#5193ce" /><rect
       id="rect31"
       height="8.6999998"
       width="4"
       class="st3"
       y="320.79999"
       x="298"
       style="fill:#5193ce" /><rect
       id="rect33"
       height="4"
       width="9"
       class="st3"
       y="366.5"
       x="264.39999"
       style="fill:#5193ce" /><rect
       id="rect35"
       height="4"
       width="9"
       class="st3"
       y="348.5"
       x="264.39999"
       style="fill:#5193ce" /><rect
       id="rect37"
       height="4"
       width="9"
       class="st3"
       y="360.5"
       x="264.39999"
       style="fill:#5193ce" /><rect
       id="rect39"
       height="4"
       width="9"
       class="st3"
       y="354.5"
       x="264.39999"
       style="fill:#5193ce" /><rect
       id="rect41"
       height="4"
       width="9"
       class="st3"
       y="342.5"
       x="264.39999"
       style="fill:#5193ce" /><rect
       id="rect43"
       height="8.6999998"
       width="4"
       class="st3"
       y="383.39999"
       x="286"
       style="fill:#5193ce" /><rect
       id="rect45"
       height="8.6999998"
       width="4"
       class="st3"
       y="383.39999"
       x="310"
       style="fill:#5193ce" /><rect
       id="rect47"
       height="8.6999998"
       width="4"
       class="st3"
       y="383.39999"
       x="292"
       style="fill:#5193ce" /><rect
       id="rect49"
       height="8.6999998"
       width="4"
       class="st3"
       y="383.39999"
       x="304"
       style="fill:#5193ce" /><rect
       id="rect51"
       height="8.6999998"
       width="4"
       class="st3"
       y="383.39999"
       x="298"
       style="fill:#5193ce" /><rect
       id="rect53"
       height="4"
       width="9"
       class="st3"
       y="360.5"
       x="326.60001"
       style="fill:#5193ce" /><rect
       id="rect55"
       height="4"
       width="9"
       class="st3"
       y="342.5"
       x="326.60001"
       style="fill:#5193ce" /><rect
       id="rect57"
       height="4"
       width="9"
       class="st3"
       y="354.5"
       x="326.60001"
       style="fill:#5193ce" /><rect
       id="rect59"
       height="4"
       width="9"
       class="st3"
       y="348.5"
       x="326.60001"
       style="fill:#5193ce" /><rect
       id="rect61"
       height="4"
       width="9"
       class="st3"
       y="366.5"
       x="326.60001"
       style="fill:#5193ce" /></g></svg>