<?xml version="1.0" encoding="UTF-8" standalone="no"?>
<!-- Generator: Adobe Illustrator 19.1.0, SVG Export Plug-In . SVG Version: 6.00 Build 0)  -->

<svg
   xmlns:dc="http://purl.org/dc/elements/1.1/"
   xmlns:cc="http://creativecommons.org/ns#"
   xmlns:rdf="http://www.w3.org/1999/02/22-rdf-syntax-ns#"
   xmlns:svg="http://www.w3.org/2000/svg"
   xmlns="http://www.w3.org/2000/svg"
   xmlns:sodipodi="http://sodipodi.sourceforge.net/DTD/sodipodi-0.dtd"
   xmlns:inkscape="http://www.inkscape.org/namespaces/inkscape"
   version="1.1"
   id="Layer_1"
   x="0px"
   y="0px"
   viewBox="499 1033 100 100"
   style="enable-background:new 499 1033 100 100;"
   xml:space="preserve"
   inkscape:version="0.91 r13725"
   sodipodi:docname="InternetOfThings_IOTShadow.svg"><metadata
     id="metadata31"><rdf:RDF><cc:Work
         rdf:about=""><dc:format>image/svg+xml</dc:format><dc:type
           rdf:resource="http://purl.org/dc/dcmitype/StillImage" /></cc:Work></rdf:RDF></metadata><defs
     id="defs29" /><sodipodi:namedview
     pagecolor="#ffffff"
     bordercolor="#666666"
     borderopacity="1"
     objecttolerance="10"
     gridtolerance="10"
     guidetolerance="10"
     inkscape:pageopacity="0"
     inkscape:pageshadow="2"
     inkscape:window-width="1280"
     inkscape:window-height="985"
     id="namedview27"
     showgrid="false"
     inkscape:zoom="7.4579687"
     inkscape:cx="50.26817"
     inkscape:cy="50"
     inkscape:window-x="0"
     inkscape:window-y="0"
     inkscape:window-maximized="1"
     inkscape:current-layer="Layer_1" /><style
     type="text/css"
     id="style3">
	.st0{fill:#19486F;}
	.st1{fill:#1F5B98;}
	.st2{fill:#99BBE1;}
	.st3{fill:#5193CE;}
	.st4{fill:#17476F;}
	.st5{fill:#FFFFFF;}
	.st6{fill:none;stroke:#5193CE;stroke-width:3;stroke-linecap:round;stroke-linejoin:round;stroke-miterlimit:10;}
	.st7{fill:none;stroke:#FFFFFF;stroke-width:3;stroke-linecap:round;stroke-linejoin:round;stroke-miterlimit:10;}
	.st8{fill:none;stroke:#FFFFFF;stroke-width:3;stroke-miterlimit:10;}
	.st9{fill:#5193CE;stroke:#FFFFFF;stroke-width:3;stroke-miterlimit:10;}
	.st10{fill:none;stroke:#FFFFFF;stroke-width:3;stroke-linecap:round;stroke-miterlimit:10;}
	.st11{fill:#5193CE;stroke:#FFFFFF;stroke-width:3;stroke-linecap:round;stroke-linejoin:round;stroke-miterlimit:10;}
	.st12{fill:#FFFFFF;stroke:#5193CE;stroke-width:2;stroke-miterlimit:10;}
	.st13{fill:none;stroke:#5193CE;stroke-linecap:round;stroke-linejoin:round;stroke-miterlimit:10;}
	.st14{fill:none;stroke:#5193CE;stroke-width:3;stroke-linecap:round;stroke-miterlimit:10;}
	.st15{fill:none;stroke:#5193CE;stroke-linecap:round;stroke-miterlimit:10;}
	.st16{fill:none;stroke:#5193CE;stroke-width:3;stroke-miterlimit:10;}
	.st17{fill:none;}
	.st18{fill:none;stroke:#5193CE;stroke-width:4;stroke-linecap:round;stroke-linejoin:round;stroke-miterlimit:10;}
</style><g
     id="g3359"
     transform="matrix(1.2515652,0,0,1.2515652,-138.23445,-272.3825)"><path
       id="path5"
       d="m 560.9,1057.9 -3.7,2.5 -1.8,-4.1 c -2.8,-6.2 -9.1,-10.3 -15.9,-10.3 -4.7,0 -9.1,1.8 -12.3,5.1 -3.3,3.3 -5.1,7.7 -5.1,12.4 l 0.1,3.2 -2.7,0.8 c -4.5,1.3 -8.1,7 -8.1,10.9 l 0,1.4 c 0,4.7 5.7,10.2 13,10.2 l 49.4,0 c 7.3,0 13,-5.5 13,-10.2 l 0,-1.4 c 0,-4.7 -5.3,-11 -11.4,-11.5 l -3.3,-0.3 -0.1,-3.3 c -0.1,-3.8 -3.2,-6.7 -7,-6.7 -1.5,0.1 -2.9,0.5 -4.1,1.3 z"
       class="st4"
       inkscape:connector-curvature="0"
       style="fill:#17476f" /><path
       id="path7"
       d="m 560.9,1054.9 -3.7,2.5 -1.8,-4.1 c -2.8,-6.2 -9.1,-10.3 -15.9,-10.3 -4.7,0 -9.1,1.8 -12.3,5.1 -3.3,3.3 -5.1,7.7 -5.1,12.4 l 0.1,3.2 -2.7,0.8 c -4.5,1.3 -8.1,7 -8.1,10.9 l 0,1.4 c 0,4.7 5.7,10.2 13,10.2 l 49.4,0 c 7.3,0 13,-5.5 13,-10.2 l 0,-1.4 c 0,-4.7 -5.3,-11 -11.4,-11.5 l -3.3,-0.3 -0.1,-3.3 c -0.1,-3.8 -3.2,-6.7 -7,-6.7 -1.5,0.1 -2.9,0.5 -4.1,1.3 z"
       class="st3"
       inkscape:connector-curvature="0"
       style="fill:#5193ce" /><rect
       id="rect9"
       height="22.200001"
       width="58"
       class="st4"
       y="1100.7"
       x="519.09998"
       style="fill:#17476f" /><rect
       id="rect11"
       height="22.200001"
       width="58"
       class="st3"
       y="1097.7"
       x="519.09998"
       style="fill:#5193ce" /><path
       id="path13"
       d="m 530.9,1113.4 0,0 c -2.7,0 -4.8,-2.2 -4.8,-4.8 l 0,0 c 0,-2.7 2.2,-4.8 4.8,-4.8 l 0,0 c 2.7,0 4.8,2.2 4.8,4.8 l 0,0 c 0,2.6 -2.1,4.8 -4.8,4.8 z"
       class="st5"
       inkscape:connector-curvature="0"
       style="fill:#ffffff" /><polygon
       id="polygon15"
       points="554.2,1113.4 541.7,1113.4 548,1103.7 "
       class="st5"
       style="fill:#ffffff" /><rect
       id="rect17"
       height="9.6999998"
       width="9.6999998"
       class="st5"
       y="1103.7"
       x="560.20001"
       style="fill:#ffffff" /><rect
       id="rect19"
       height="15.8"
       width="50"
       class="st5"
       y="1066.4"
       x="522.90002"
       style="fill:#ffffff" /><path
       id="path21"
       d="m 530.9,1079.1 0,0 c -2.7,0 -4.8,-2.2 -4.8,-4.8 l 0,0 c 0,-2.7 2.2,-4.8 4.8,-4.8 l 0,0 c 2.7,0 4.8,2.2 4.8,4.8 l 0,0 c 0,2.6 -2.1,4.8 -4.8,4.8 z"
       class="st3"
       inkscape:connector-curvature="0"
       style="fill:#5193ce" /><polygon
       id="polygon23"
       points="554.2,1079.1 541.7,1079.1 548,1069.4 "
       class="st3"
       style="fill:#5193ce" /><rect
       id="rect25"
       height="9.6999998"
       width="9.6999998"
       class="st3"
       y="1069.4"
       x="560.20001"
       style="fill:#5193ce" /></g></svg>