<?xml version="1.0" encoding="UTF-8" standalone="no"?>
<!-- Generator: Adobe Illustrator 19.1.0, SVG Export Plug-In . SVG Version: 6.00 Build 0)  -->

<svg
   xmlns:dc="http://purl.org/dc/elements/1.1/"
   xmlns:cc="http://creativecommons.org/ns#"
   xmlns:rdf="http://www.w3.org/1999/02/22-rdf-syntax-ns#"
   xmlns:svg="http://www.w3.org/2000/svg"
   xmlns="http://www.w3.org/2000/svg"
   xmlns:sodipodi="http://sodipodi.sourceforge.net/DTD/sodipodi-0.dtd"
   xmlns:inkscape="http://www.inkscape.org/namespaces/inkscape"
   version="1.1"
   id="Layer_1"
   x="0px"
   y="0px"
   viewBox="499 1751 100 100"
   style="enable-background:new 499 1751 100 100;"
   xml:space="preserve"
   inkscape:version="0.91 r13725"
   sodipodi:docname="InternetOfThings_IOTPolicy.svg"><metadata
     id="metadata31"><rdf:RDF><cc:Work
         rdf:about=""><dc:format>image/svg+xml</dc:format><dc:type
           rdf:resource="http://purl.org/dc/dcmitype/StillImage" /></cc:Work></rdf:RDF></metadata><defs
     id="defs29" /><sodipodi:namedview
     pagecolor="#ffffff"
     bordercolor="#666666"
     borderopacity="1"
     objecttolerance="10"
     gridtolerance="10"
     guidetolerance="10"
     inkscape:pageopacity="0"
     inkscape:pageshadow="2"
     inkscape:window-width="1280"
     inkscape:window-height="985"
     id="namedview27"
     showgrid="false"
     inkscape:zoom="7.4579687"
     inkscape:cx="50.26817"
     inkscape:cy="50"
     inkscape:window-x="0"
     inkscape:window-y="0"
     inkscape:window-maximized="1"
     inkscape:current-layer="Layer_1" /><style
     type="text/css"
     id="style3">
	.st0{fill:#19486F;}
	.st1{fill:#1F5B98;}
	.st2{fill:#99BBE1;}
	.st3{fill:#5193CE;}
	.st4{fill:#17476F;}
	.st5{fill:#FFFFFF;}
	.st6{fill:none;stroke:#5193CE;stroke-width:3;stroke-linecap:round;stroke-linejoin:round;stroke-miterlimit:10;}
	.st7{fill:none;stroke:#FFFFFF;stroke-width:3;stroke-linecap:round;stroke-linejoin:round;stroke-miterlimit:10;}
	.st8{fill:none;stroke:#FFFFFF;stroke-width:3;stroke-miterlimit:10;}
	.st9{fill:#5193CE;stroke:#FFFFFF;stroke-width:3;stroke-miterlimit:10;}
	.st10{fill:none;stroke:#FFFFFF;stroke-width:3;stroke-linecap:round;stroke-miterlimit:10;}
	.st11{fill:#5193CE;stroke:#FFFFFF;stroke-width:3;stroke-linecap:round;stroke-linejoin:round;stroke-miterlimit:10;}
	.st12{fill:#FFFFFF;stroke:#5193CE;stroke-width:2;stroke-miterlimit:10;}
	.st13{fill:none;stroke:#5193CE;stroke-linecap:round;stroke-linejoin:round;stroke-miterlimit:10;}
	.st14{fill:none;stroke:#5193CE;stroke-width:3;stroke-linecap:round;stroke-miterlimit:10;}
	.st15{fill:none;stroke:#5193CE;stroke-linecap:round;stroke-miterlimit:10;}
	.st16{fill:none;stroke:#5193CE;stroke-width:3;stroke-miterlimit:10;}
	.st17{fill:none;}
	.st18{fill:#2D73B8;}
	.st19{font-family:'HelveticaNeueLTStd-Md';}
	.st20{font-size:14px;}
	.st21{fill:none;stroke:#5193CE;stroke-width:4;stroke-linecap:round;stroke-linejoin:round;stroke-miterlimit:10;}
</style><g
     id="g3359"
     transform="matrix(1.2594458,0,0,1.2594458,-142.43574,-467.26189)"><path
       id="path5"
       d="m 559.3,1764.3 -27.4,0 c -4,0 -7.2,2.4 -7.2,5.7 l 0,3 0,36 0,3 c 0,3.3 3.2,6.3 7.2,6.3 l 0,0 15.6,0 0,-3 -0.1,0 c 0.5,-7.3 6.5,-13.2 14,-13.2 1.9,0 3.7,0.4 5.3,1 l 0,-30.2 0,-3 c 0,-3.3 -3.4,-5.6 -7.4,-5.6 z"
       class="st4"
       inkscape:connector-curvature="0"
       style="fill:#17476f" /><path
       id="path7"
       d="m 559.3,1761.3 -27.4,0 c -4,0 -7.2,2.4 -7.2,5.7 l 0,3 0,39 c 0,3.3 3.2,6.3 7.2,6.3 l 15.7,0 c -0.1,-0.7 -0.2,-1.4 -0.2,-2.1 0,-7.8 6.3,-14 14,-14 1.9,0 3.7,0.4 5.3,1 l 0,-30.2 0,-3 c 0,-3.4 -3.4,-5.7 -7.4,-5.7 z"
       class="st3"
       inkscape:connector-curvature="0"
       style="fill:#5193ce" /><polygon
       id="polygon9"
       points="528.2,1801.5 534.1,1807.3 543.9,1797.5 541.6,1795.2 534.1,1801.4 531.3,1798.4 528.2,1801.5 "
       class="st5"
       style="fill:#ffffff" /><text
       id="text11"
       class="st18 st19 st20"
       transform="matrix(1.6452,0,0,1,528.0848,1792.6077)"
       style="font-size:14px;font-family:HelveticaNeueLTStd-Md;fill:#2d73b8">X</text>
<text
       id="text13"
       class="st18 st19 st20"
       transform="matrix(1.6452,0,0,1,528.0848,1778.1077)"
       style="font-size:14px;font-family:HelveticaNeueLTStd-Md;fill:#2d73b8">X</text>
<path
       id="path15"
       d="m 555,1812.7 c 0,0 0,0 0,0 -0.7,0 -1.2,0.6 -1.2,1.2 0,0.7 0.6,1.2 1.2,1.2 0,0 0,0 0,0 0.7,0 1.2,-0.6 1.2,-1.2 0,-0.7 -0.5,-1.2 -1.2,-1.2 z"
       class="st17"
       inkscape:connector-curvature="0"
       style="fill:none" /><path
       id="path17"
       d="m 561.4,1829.8 c -3.8,0 -7.1,-1.7 -9.3,-4.5 l 0,15.4 9.3,-6.4 9.3,6.4 0,-15.4 c -2.2,2.8 -5.5,4.5 -9.3,4.5 z"
       class="st4"
       inkscape:connector-curvature="0"
       style="fill:#17476f" /><path
       id="path19"
       d="m 561.4,1803.6 c -6.6,0 -11.9,5.3 -11.9,11.9 0,2.8 1,5.4 2.6,7.4 2.2,2.7 5.5,4.5 9.3,4.5 3.8,0 7.1,-1.7 9.3,-4.5 1.6,-2 2.6,-4.6 2.6,-7.4 0,-6.6 -5.3,-11.9 -11.9,-11.9 z"
       class="st4"
       inkscape:connector-curvature="0"
       style="fill:#17476f" /><path
       id="path21"
       d="m 561.4,1827.5 c -3.8,0 -7.1,-1.7 -9.3,-4.5 l 0,15.4 9.3,-6.4 9.3,6.4 0,-15.4 c -2.2,2.8 -5.5,4.5 -9.3,4.5 z"
       class="st3"
       inkscape:connector-curvature="0"
       style="fill:#5193ce" /><path
       id="path23"
       d="m 561.4,1801.3 c -6.6,0 -11.9,5.3 -11.9,11.9 0,2.8 1,5.4 2.6,7.4 2.2,2.7 5.5,4.5 9.3,4.5 3.8,0 7.1,-1.7 9.3,-4.5 1.6,-2 2.6,-4.6 2.6,-7.4 0,-6.6 -5.3,-11.9 -11.9,-11.9 z"
       class="st3"
       inkscape:connector-curvature="0"
       style="fill:#5193ce" /><path
       id="path25"
       d="m 568.7,1812.2 -1.5,0.9 -0.6,-0.1 -0.6,-0.7 -1.7,0.2 -0.7,-1.2 -2,0 -0.5,0 c 0,0 -0.4,-0.7 -1,-1.1 -0.8,-0.6 -1.7,-0.9 -2.7,-0.9 -1,0 -1.9,0.3 -2.7,1 -1.8,1.5 -2.1,4.2 -0.6,6 0.1,0.1 0.2,0.3 0.3,0.4 0.8,0.8 1.9,1.2 3,1.2 1,0 1.9,-0.3 2.7,-1 0.2,-0.2 0.4,-0.4 0.6,-0.6 0.2,-0.2 0.3,-0.4 0.4,-0.7 0.1,-0.3 0.2,-0.5 0.2,-0.5 l 8,0 0.8,-1.4 -1.4,-1.5 z m -13.1,2.4 c 0,0 0,0 0,0 -0.6,0 -1.1,-0.5 -1.1,-1.1 0,-0.6 0.5,-1.1 1.1,-1.1 0,0 0,0 0,0 0.6,0 1.1,0.5 1.1,1.1 0,0.6 -0.5,1.1 -1.1,1.1 z"
       class="st5"
       inkscape:connector-curvature="0"
       style="fill:#ffffff" /></g></svg>