<?xml version="1.0" encoding="UTF-8" standalone="no"?>
<!-- Generator: Adobe Illustrator 19.1.0, SVG Export Plug-In . SVG Version: 6.00 Build 0)  -->

<svg
   xmlns:dc="http://purl.org/dc/elements/1.1/"
   xmlns:cc="http://creativecommons.org/ns#"
   xmlns:rdf="http://www.w3.org/1999/02/22-rdf-syntax-ns#"
   xmlns:svg="http://www.w3.org/2000/svg"
   xmlns="http://www.w3.org/2000/svg"
   xmlns:sodipodi="http://sodipodi.sourceforge.net/DTD/sodipodi-0.dtd"
   xmlns:inkscape="http://www.inkscape.org/namespaces/inkscape"
   version="1.1"
   id="Layer_1"
   x="0px"
   y="0px"
   viewBox="250 1467 100 100"
   style="enable-background:new 250 1467 100 100;"
   xml:space="preserve"
   inkscape:version="0.91 r13725"
   sodipodi:docname="InternetOfThings_IOTThingPoliceEmergency.svg"><metadata
     id="metadata55"><rdf:RDF><cc:Work
         rdf:about=""><dc:format>image/svg+xml</dc:format><dc:type
           rdf:resource="http://purl.org/dc/dcmitype/StillImage" /></cc:Work></rdf:RDF></metadata><defs
     id="defs53" /><sodipodi:namedview
     pagecolor="#ffffff"
     bordercolor="#666666"
     borderopacity="1"
     objecttolerance="10"
     gridtolerance="10"
     guidetolerance="10"
     inkscape:pageopacity="0"
     inkscape:pageshadow="2"
     inkscape:window-width="1280"
     inkscape:window-height="985"
     id="namedview51"
     showgrid="false"
     inkscape:zoom="7.4579687"
     inkscape:cx="50.26817"
     inkscape:cy="50"
     inkscape:window-x="0"
     inkscape:window-y="0"
     inkscape:window-maximized="1"
     inkscape:current-layer="Layer_1" /><style
     type="text/css"
     id="style3">
	.st0{fill:#19486F;}
	.st1{fill:#1F5B98;}
	.st2{fill:#99BBE1;}
	.st3{fill:#5193CE;}
	.st4{fill:#17476F;}
	.st5{fill:#FFFFFF;}
	.st6{fill:none;stroke:#5193CE;stroke-width:3;stroke-linecap:round;stroke-linejoin:round;stroke-miterlimit:10;}
	.st7{fill:none;stroke:#FFFFFF;stroke-width:3;stroke-linecap:round;stroke-linejoin:round;stroke-miterlimit:10;}
	.st8{fill:none;stroke:#FFFFFF;stroke-width:3;stroke-miterlimit:10;}
	.st9{fill:#5193CE;stroke:#FFFFFF;stroke-width:3;stroke-miterlimit:10;}
	.st10{fill:none;stroke:#FFFFFF;stroke-width:3;stroke-linecap:round;stroke-miterlimit:10;}
	.st11{fill:#5193CE;stroke:#FFFFFF;stroke-width:3;stroke-linecap:round;stroke-linejoin:round;stroke-miterlimit:10;}
	.st12{fill:#FFFFFF;stroke:#5193CE;stroke-width:2;stroke-miterlimit:10;}
	.st13{fill:none;stroke:#5193CE;stroke-linecap:round;stroke-linejoin:round;stroke-miterlimit:10;}
	.st14{fill:none;stroke:#5193CE;stroke-width:3;stroke-linecap:round;stroke-miterlimit:10;}
	.st15{fill:none;stroke:#5193CE;stroke-linecap:round;stroke-miterlimit:10;}
	.st16{fill:none;stroke:#5193CE;stroke-width:3;stroke-miterlimit:10;}
	.st17{fill:none;}
	.st18{fill:none;stroke:#5193CE;stroke-width:4;stroke-linecap:round;stroke-linejoin:round;stroke-miterlimit:10;}
</style><g
     id="g3383"
     transform="matrix(1.4044944,0,0,1.4044944,-121.34832,-613.61804)"><path
       id="path5"
       d="m 273.4,1539.2 53.1,0 0,3 c 0,2.6 -2.1,4.7 -4.8,4.7 l -43.6,0 c -0.3,0 -0.6,0 -0.9,-0.1 -0.1,0 -0.1,0 -0.2,0 -0.2,-0.1 -0.5,-0.1 -0.7,-0.2 0,0 -0.1,0 -0.1,0 -0.3,-0.1 -0.5,-0.2 -0.7,-0.4 -0.1,0 -0.1,-0.1 -0.2,-0.1 -0.2,-0.1 -0.4,-0.3 -0.5,-0.4 0,0 -0.1,-0.1 -0.1,-0.1 -0.2,-0.2 -0.4,-0.4 -0.5,-0.6 0,-0.1 -0.1,-0.1 -0.1,-0.2 -0.1,-0.1 -0.1,-0.2 -0.2,-0.3 0,-0.1 -0.1,-0.1 -0.1,-0.2 -0.1,-0.1 -0.1,-0.3 -0.2,-0.4 0,-0.1 -0.1,-0.1 -0.1,-0.2 0,-0.1 0,-0.2 -0.1,-0.3 0,-0.1 -0.1,-0.2 -0.1,-0.3 0,-0.1 0,-0.1 0,-0.2 l 0,0 c 0,-0.2 0,-0.4 0,-0.7 l 0,-3 z"
       class="st4"
       inkscape:connector-curvature="0"
       style="fill:#17476f" /><path
       id="path7"
       d="m 278.2,1490.1 c -2.6,0 -4.8,2.1 -4.8,4.7 l 0,44.3 c 0,2.6 2.1,4.7 4.8,4.7 l 43.6,0 c 2.6,0 4.8,-2.1 4.8,-4.7 l 0,-44.3 c 0,-2.6 -2.1,-4.7 -4.8,-4.7 l -43.6,0 z"
       class="st3"
       inkscape:connector-curvature="0"
       style="fill:#5193ce" /><path
       id="path9"
       d="m 314.6,1521.4 c 0,-0.3 0,-0.5 -0.1,-0.8 0,-0.2 -0.1,-0.3 -0.1,-0.5 0,-0.2 -0.1,-0.5 -0.1,-0.7 0,-0.2 -0.1,-0.3 -0.1,-0.5 -0.1,-0.2 -0.1,-0.5 -0.2,-0.7 0,-0.2 -0.1,-0.4 -0.2,-0.5 -0.1,-0.2 -0.1,-0.5 -0.2,-0.7 -0.1,-0.2 -0.1,-0.4 -0.2,-0.5 -0.1,-0.2 -0.2,-0.5 -0.2,-0.7 -0.1,-0.2 -0.1,-0.4 -0.2,-0.5 -0.1,-0.2 -0.2,-0.4 -0.3,-0.7 -0.1,-0.2 -0.2,-0.4 -0.3,-0.6 -0.1,-0.2 -0.2,-0.4 -0.3,-0.6 -0.7,-1.3 -0.7,-2.9 0,-4.2 l 2.5,-4.9 -1.4,-1.4 0,0 c -1.3,0.8 -2.6,1.2 -4,1.4 -4,0.4 -8.2,-1.3 -9.3,-2.9 l 0,0 0,0 c -1.1,1.6 -5.3,3.3 -9.3,2.9 -1.3,-0.2 -2.7,-0.6 -4,-1.4 l 0,0 -1.4,1.4 2.5,4.9 c 0.7,1.3 0.6,2.9 0,4.2 -0.1,0.2 -0.2,0.4 -0.3,0.6 -0.1,0.2 -0.2,0.4 -0.3,0.6 -0.1,0.2 -0.2,0.4 -0.3,0.7 -0.1,0.2 -0.2,0.4 -0.2,0.5 -0.1,0.2 -0.2,0.5 -0.2,0.7 -0.1,0.2 -0.1,0.4 -0.2,0.5 -0.1,0.2 -0.1,0.5 -0.2,0.7 -0.1,0.2 -0.1,0.4 -0.2,0.5 -0.1,0.2 -0.1,0.5 -0.2,0.7 0,0.2 -0.1,0.3 -0.1,0.5 0,0.2 -0.1,0.5 -0.1,0.7 0,0.2 -0.1,0.3 -0.1,0.5 0,0.3 -0.1,0.5 -0.1,0.8 0,0.1 0,0.3 0,0.4 0,0.4 0,0.8 0,1.2 0,7.1 5,9.5 11.6,10.1 1,0.1 3,1.3 3,2.2 0,-1 2.1,-2.2 3,-2.2 6.6,-0.5 11.6,-3 11.6,-10.1 0,-0.4 0,-0.8 0,-1.2 0.2,-0.1 0.2,-0.3 0.2,-0.4 z"
       class="st5"
       inkscape:connector-curvature="0"
       style="fill:#ffffff" /><rect
       id="rect11"
       height="8.6999998"
       width="4"
       class="st3"
       y="1481.4"
       x="310"
       style="fill:#5193ce" /><rect
       id="rect13"
       height="8.6999998"
       width="4"
       class="st3"
       y="1481.4"
       x="286"
       style="fill:#5193ce" /><rect
       id="rect15"
       height="8.6999998"
       width="4"
       class="st3"
       y="1481.4"
       x="304"
       style="fill:#5193ce" /><rect
       id="rect17"
       height="8.6999998"
       width="4"
       class="st3"
       y="1481.4"
       x="292"
       style="fill:#5193ce" /><rect
       id="rect19"
       height="8.6999998"
       width="4"
       class="st3"
       y="1481.4"
       x="298"
       style="fill:#5193ce" /><rect
       id="rect21"
       height="4"
       width="9"
       class="st3"
       y="1527"
       x="264.39999"
       style="fill:#5193ce" /><rect
       id="rect23"
       height="4"
       width="9"
       class="st3"
       y="1509"
       x="264.39999"
       style="fill:#5193ce" /><rect
       id="rect25"
       height="4"
       width="9"
       class="st3"
       y="1521"
       x="264.39999"
       style="fill:#5193ce" /><rect
       id="rect27"
       height="4"
       width="9"
       class="st3"
       y="1515"
       x="264.39999"
       style="fill:#5193ce" /><rect
       id="rect29"
       height="4"
       width="9"
       class="st3"
       y="1503"
       x="264.39999"
       style="fill:#5193ce" /><rect
       id="rect31"
       height="8.6999998"
       width="4"
       class="st3"
       y="1543.9"
       x="286"
       style="fill:#5193ce" /><rect
       id="rect33"
       height="8.6999998"
       width="4"
       class="st3"
       y="1543.9"
       x="310"
       style="fill:#5193ce" /><rect
       id="rect35"
       height="8.6999998"
       width="4"
       class="st3"
       y="1543.9"
       x="292"
       style="fill:#5193ce" /><rect
       id="rect37"
       height="8.6999998"
       width="4"
       class="st3"
       y="1543.9"
       x="304"
       style="fill:#5193ce" /><rect
       id="rect39"
       height="8.6999998"
       width="4"
       class="st3"
       y="1543.9"
       x="298"
       style="fill:#5193ce" /><rect
       id="rect41"
       height="4"
       width="9"
       class="st3"
       y="1521"
       x="326.60001"
       style="fill:#5193ce" /><rect
       id="rect43"
       height="4"
       width="9"
       class="st3"
       y="1503"
       x="326.60001"
       style="fill:#5193ce" /><rect
       id="rect45"
       height="4"
       width="9"
       class="st3"
       y="1515"
       x="326.60001"
       style="fill:#5193ce" /><rect
       id="rect47"
       height="4"
       width="9"
       class="st3"
       y="1509"
       x="326.60001"
       style="fill:#5193ce" /><rect
       id="rect49"
       height="4"
       width="9"
       class="st3"
       y="1527"
       x="326.60001"
       style="fill:#5193ce" /></g></svg>