<?xml version="1.0" encoding="UTF-8" standalone="no"?>
<!-- Generator: Adobe Illustrator 19.1.0, SVG Export Plug-In . SVG Version: 6.00 Build 0)  -->

<svg
   xmlns:dc="http://purl.org/dc/elements/1.1/"
   xmlns:cc="http://creativecommons.org/ns#"
   xmlns:rdf="http://www.w3.org/1999/02/22-rdf-syntax-ns#"
   xmlns:svg="http://www.w3.org/2000/svg"
   xmlns="http://www.w3.org/2000/svg"
   xmlns:sodipodi="http://sodipodi.sourceforge.net/DTD/sodipodi-0.dtd"
   xmlns:inkscape="http://www.inkscape.org/namespaces/inkscape"
   version="1.1"
   id="Layer_1"
   x="0px"
   y="0px"
   viewBox="499 1323 100 100"
   style="enable-background:new 499 1323 100 100;"
   xml:space="preserve"
   inkscape:version="0.91 r13725"
   sodipodi:docname="InternetOfThings_IOTTopic.svg"><metadata
     id="metadata23"><rdf:RDF><cc:Work
         rdf:about=""><dc:format>image/svg+xml</dc:format><dc:type
           rdf:resource="http://purl.org/dc/dcmitype/StillImage" /></cc:Work></rdf:RDF></metadata><defs
     id="defs21" /><sodipodi:namedview
     pagecolor="#ffffff"
     bordercolor="#666666"
     borderopacity="1"
     objecttolerance="10"
     gridtolerance="10"
     guidetolerance="10"
     inkscape:pageopacity="0"
     inkscape:pageshadow="2"
     inkscape:window-width="1280"
     inkscape:window-height="985"
     id="namedview19"
     showgrid="false"
     inkscape:zoom="7.4579687"
     inkscape:cx="50.26817"
     inkscape:cy="50"
     inkscape:window-x="0"
     inkscape:window-y="0"
     inkscape:window-maximized="1"
     inkscape:current-layer="Layer_1" /><style
     type="text/css"
     id="style3">
	.st0{fill:#19486F;}
	.st1{fill:#1F5B98;}
	.st2{fill:#99BBE1;}
	.st3{fill:#5193CE;}
	.st4{fill:#17476F;}
	.st5{fill:#FFFFFF;}
	.st6{fill:none;stroke:#5193CE;stroke-width:3;stroke-linecap:round;stroke-linejoin:round;stroke-miterlimit:10;}
	.st7{fill:none;stroke:#FFFFFF;stroke-width:3;stroke-linecap:round;stroke-linejoin:round;stroke-miterlimit:10;}
	.st8{fill:none;stroke:#FFFFFF;stroke-width:3;stroke-miterlimit:10;}
	.st9{fill:#5193CE;stroke:#FFFFFF;stroke-width:3;stroke-miterlimit:10;}
	.st10{fill:none;stroke:#FFFFFF;stroke-width:3;stroke-linecap:round;stroke-miterlimit:10;}
	.st11{fill:#5193CE;stroke:#FFFFFF;stroke-width:3;stroke-linecap:round;stroke-linejoin:round;stroke-miterlimit:10;}
	.st12{fill:#FFFFFF;stroke:#5193CE;stroke-width:2;stroke-miterlimit:10;}
	.st13{fill:none;stroke:#5193CE;stroke-linecap:round;stroke-linejoin:round;stroke-miterlimit:10;}
	.st14{fill:none;stroke:#5193CE;stroke-width:3;stroke-linecap:round;stroke-miterlimit:10;}
	.st15{fill:none;stroke:#5193CE;stroke-linecap:round;stroke-miterlimit:10;}
	.st16{fill:none;stroke:#5193CE;stroke-width:3;stroke-miterlimit:10;}
	.st17{fill:none;}
	.st18{fill:none;stroke:#5193CE;stroke-width:4;stroke-linecap:round;stroke-linejoin:round;stroke-miterlimit:10;}
</style><g
     id="g3351"
     transform="matrix(1.7064846,0,0,1.7064846,-387.83871,-970.00336)"><path
       id="path5"
       d="m 570.3,1351.8 c -1.3,1.2 -4.6,2.7 -9.8,3.6 -3.2,0.6 -7,0.9 -11.5,0.9 -11.9,0 -19.3,-2.6 -21.3,-4.5 l -0.7,0 0,1.8 c 0,1.9 7.8,5.5 22,5.5 4.5,0 8.4,-0.4 11.5,-0.9 6.8,-1.2 10.4,-3.3 10.4,-4.6 l 0,-1.8 -0.6,0 z"
       class="st4"
       inkscape:connector-curvature="0"
       style="fill:#17476f" /><path
       id="path7"
       d="m 570.9,1394.2 c 0,0.1 0,0.1 -0.1,0.2 0,0.1 -0.1,0.2 -0.1,0.3 -1.2,2 -7.4,4.8 -20.5,4.8 -8,0 -14.7,-1.5 -18.6,-2.8 l 0.1,0.3 c -2.6,-1 -4.4,-2 -4.7,-2.8 l 0,2.8 c 0.2,0.9 2.3,2 5.2,3 3.9,1.3 10,2.3 18,2.3 13.1,0 19.3,-2.9 20.5,-4.8 0.1,-0.1 0.1,-0.2 0.1,-0.3 0,-0.1 0,-0.1 0.1,-0.2 0,-0.1 0,-0.1 0,-0.2 l 0,-2.8 c 0.1,0.1 0.1,0.2 0,0.2 z"
       class="st4"
       inkscape:connector-curvature="0"
       style="fill:#17476f" /><path
       id="path9"
       d="m 560.2,1360.8 c -0.6,0.1 -1.2,0.2 -1.8,0.3 -0.3,0 -0.6,0.1 -0.9,0.1 -0.6,0.1 -1.1,0.1 -1.7,0.2 -0.4,0 -0.7,0.1 -1.1,0.1 -0.7,0.1 -1.5,0.1 -2.2,0.1 l -0.4,0 c -0.9,0 -1.8,0.1 -2.7,0.1 -0.2,0 -0.4,0 -0.6,0 -8.7,0 -17.5,-1.5 -21.8,-4.4 l 0,37.8 c 0.2,0.9 2.3,2 5.2,3 3.9,1.3 10,2.3 18,2.3 14.6,0 20.7,-3.6 20.7,-5.5 l 0,-38 c -2.2,1.7 -5.9,3.1 -10.7,3.9 z"
       class="st3"
       inkscape:connector-curvature="0"
       style="fill:#5193ce" /><path
       id="path11"
       d="m 527,1351.8 c 0,1.2 3.2,3.1 9.3,4.4 l 0,-8.7 c -6.1,1.1 -9.3,3.1 -9.3,4.3 z"
       class="st4"
       inkscape:connector-curvature="0"
       style="fill:#17476f" /><path
       id="path13"
       d="m 570.9,1351.8 c 0,-1.2 -3.2,-3.1 -9.2,-4.3 l 0,8.7 c 6,-1.3 9.2,-3.2 9.2,-4.4 z"
       class="st4"
       inkscape:connector-curvature="0"
       style="fill:#17476f" /><polygon
       id="polygon15"
       points="557.5,1346.7 561.8,1343.7 536.3,1343.7 540.6,1346.7 549,1352.8 "
       class="st3"
       style="fill:#5193ce" /><path
       id="path17"
       d="m 560.2,1347.1 -11.1,8 -11.2,-8 -1.6,-1.1 0,1.4 0,8.7 c 3.4,0.7 7.6,1.2 12.7,1.2 4.5,0 8.4,-0.4 11.5,-0.9 0.4,-0.1 0.9,-0.2 1.3,-0.2 l 0,-8.7 0,-1.5 -1.6,1.1 z"
       class="st3"
       inkscape:connector-curvature="0"
       style="fill:#5193ce" /></g></svg>