<?xml version="1.0" encoding="UTF-8" standalone="no"?>
<!-- Generator: Adobe Illustrator 19.1.0, SVG Export Plug-In . SVG Version: 6.00 Build 0)  -->

<svg
   xmlns:dc="http://purl.org/dc/elements/1.1/"
   xmlns:cc="http://creativecommons.org/ns#"
   xmlns:rdf="http://www.w3.org/1999/02/22-rdf-syntax-ns#"
   xmlns:svg="http://www.w3.org/2000/svg"
   xmlns="http://www.w3.org/2000/svg"
   xmlns:sodipodi="http://sodipodi.sourceforge.net/DTD/sodipodi-0.dtd"
   xmlns:inkscape="http://www.inkscape.org/namespaces/inkscape"
   version="1.1"
   id="Layer_1"
   x="0px"
   y="0px"
   viewBox="250 2323 100 100"
   style="enable-background:new 250 2323 100 100;"
   xml:space="preserve"
   inkscape:version="0.91 r13725"
   sodipodi:docname="InternetOfThings_IOTThingThermostat.svg"><metadata
     id="metadata81"><rdf:RDF><cc:Work
         rdf:about=""><dc:format>image/svg+xml</dc:format><dc:type
           rdf:resource="http://purl.org/dc/dcmitype/StillImage" /></cc:Work></rdf:RDF></metadata><defs
     id="defs79" /><sodipodi:namedview
     pagecolor="#ffffff"
     bordercolor="#666666"
     borderopacity="1"
     objecttolerance="10"
     gridtolerance="10"
     guidetolerance="10"
     inkscape:pageopacity="0"
     inkscape:pageshadow="2"
     inkscape:window-width="1280"
     inkscape:window-height="985"
     id="namedview77"
     showgrid="false"
     inkscape:zoom="7.4579687"
     inkscape:cx="50.26817"
     inkscape:cy="50"
     inkscape:window-x="0"
     inkscape:window-y="0"
     inkscape:window-maximized="1"
     inkscape:current-layer="Layer_1" /><style
     type="text/css"
     id="style3">
	.st0{fill:#19486F;}
	.st1{fill:#1F5B98;}
	.st2{fill:#99BBE1;}
	.st3{fill:#5193CE;}
	.st4{fill:#17476F;}
	.st5{fill:#FFFFFF;}
	.st6{fill:none;stroke:#5193CE;stroke-width:3;stroke-linecap:round;stroke-linejoin:round;stroke-miterlimit:10;}
	.st7{fill:none;stroke:#FFFFFF;stroke-width:3;stroke-linecap:round;stroke-linejoin:round;stroke-miterlimit:10;}
	.st8{fill:none;stroke:#FFFFFF;stroke-width:3;stroke-miterlimit:10;}
	.st9{fill:#5193CE;stroke:#FFFFFF;stroke-width:3;stroke-miterlimit:10;}
	.st10{fill:none;stroke:#FFFFFF;stroke-width:3;stroke-linecap:round;stroke-miterlimit:10;}
	.st11{fill:#5193CE;stroke:#FFFFFF;stroke-width:3;stroke-linecap:round;stroke-linejoin:round;stroke-miterlimit:10;}
	.st12{fill:#FFFFFF;stroke:#5193CE;stroke-width:2;stroke-miterlimit:10;}
	.st13{fill:none;stroke:#5193CE;stroke-linecap:round;stroke-linejoin:round;stroke-miterlimit:10;}
	.st14{fill:none;stroke:#5193CE;stroke-width:3;stroke-linecap:round;stroke-miterlimit:10;}
	.st15{fill:none;stroke:#5193CE;stroke-linecap:round;stroke-miterlimit:10;}
	.st16{fill:none;stroke:#5193CE;stroke-width:3;stroke-miterlimit:10;}
	.st17{fill:none;}
	.st18{fill:none;stroke:#5193CE;stroke-width:4;stroke-linecap:round;stroke-linejoin:round;stroke-miterlimit:10;}
</style><g
     id="g3409"
     transform="matrix(1.4044944,0,0,1.4044944,-121.34832,-959.86507)"><path
       id="path5"
       d="m 273.4,2395.2 53.1,0 0,3 c 0,2.6 -2.1,4.7 -4.8,4.7 l -43.6,0 c -0.3,0 -0.6,0 -0.9,-0.1 -0.1,0 -0.1,0 -0.2,0 -0.2,-0.1 -0.5,-0.1 -0.7,-0.2 0,0 -0.1,0 -0.1,0 -0.3,-0.1 -0.5,-0.2 -0.7,-0.4 -0.1,0 -0.1,-0.1 -0.2,-0.1 -0.2,-0.1 -0.4,-0.3 -0.5,-0.4 0,0 -0.1,-0.1 -0.1,-0.1 -0.2,-0.2 -0.4,-0.4 -0.5,-0.6 0,-0.1 -0.1,-0.1 -0.1,-0.2 -0.1,-0.1 -0.1,-0.2 -0.2,-0.3 0,-0.1 -0.1,-0.1 -0.1,-0.2 -0.1,-0.1 -0.1,-0.3 -0.2,-0.4 0,-0.1 -0.1,-0.1 -0.1,-0.2 0,-0.1 0,-0.2 -0.1,-0.3 0,-0.1 -0.1,-0.2 -0.1,-0.3 0,-0.1 0,-0.1 0,-0.2 l 0,0 c 0,-0.2 0,-0.4 0,-0.7 l 0,-3 z"
       class="st4"
       inkscape:connector-curvature="0"
       style="fill:#17476f" /><path
       id="path7"
       d="m 278.2,2346.1 c -2.6,0 -4.8,2.1 -4.8,4.7 l 0,44.3 c 0,2.6 2.1,4.7 4.8,4.7 l 43.6,0 c 2.6,0 4.8,-2.1 4.8,-4.7 l 0,-44.3 c 0,-2.6 -2.1,-4.7 -4.8,-4.7 l -43.6,0 z"
       class="st3"
       inkscape:connector-curvature="0"
       style="fill:#5193ce" /><circle
       id="circle9"
       r="21.6"
       cy="2373.3"
       cx="300"
       class="st5"
       style="fill:#ffffff" /><line
       id="line11"
       y2="2358.2"
       x2="295.89999"
       y1="2356.8"
       x1="295.60001"
       class="st6"
       style="fill:none;stroke:#5193ce;stroke-width:3;stroke-linecap:round;stroke-linejoin:round;stroke-miterlimit:10" /><line
       id="line13"
       y2="2358.2"
       x2="304.10001"
       y1="2356.8"
       x1="304.39999"
       class="st6"
       style="fill:none;stroke:#5193ce;stroke-width:3;stroke-linecap:round;stroke-linejoin:round;stroke-miterlimit:10" /><line
       id="line15"
       y2="2362.2"
       x2="311.10001"
       y1="2361.2"
       x1="312.10001"
       class="st6"
       style="fill:none;stroke:#5193ce;stroke-width:3;stroke-linecap:round;stroke-linejoin:round;stroke-miterlimit:10" /><line
       id="line17"
       y2="2362.2"
       x2="288.89999"
       y1="2361.2"
       x1="287.89999"
       class="st6"
       style="fill:none;stroke:#5193ce;stroke-width:3;stroke-linecap:round;stroke-linejoin:round;stroke-miterlimit:10" /><circle
       id="circle19"
       r="4.6999998"
       cy="2386.2"
       cx="300"
       class="st3"
       style="fill:#5193ce" /><line
       id="line21"
       y2="2386.2"
       x2="300"
       y1="2364.2"
       x1="300"
       class="st14"
       style="fill:none;stroke:#5193ce;stroke-width:3;stroke-linecap:round;stroke-miterlimit:10" /><line
       id="line23"
       y2="2364.7"
       x2="297.29999"
       y1="2364.7"
       x1="295.60001"
       class="st15"
       style="fill:none;stroke:#5193ce;stroke-linecap:round;stroke-miterlimit:10" /><line
       id="line25"
       y2="2367.3999"
       x2="297.29999"
       y1="2367.3999"
       x1="294.10001"
       class="st15"
       style="fill:none;stroke:#5193ce;stroke-linecap:round;stroke-miterlimit:10" /><line
       id="line27"
       y2="2370.1001"
       x2="297.29999"
       y1="2370.1001"
       x1="295.60001"
       class="st15"
       style="fill:none;stroke:#5193ce;stroke-linecap:round;stroke-miterlimit:10" /><line
       id="line29"
       y2="2372.8"
       x2="297.29999"
       y1="2372.8"
       x1="294.10001"
       class="st15"
       style="fill:none;stroke:#5193ce;stroke-linecap:round;stroke-miterlimit:10" /><line
       id="line31"
       y2="2375.3999"
       x2="297.29999"
       y1="2375.3999"
       x1="295.60001"
       class="st15"
       style="fill:none;stroke:#5193ce;stroke-linecap:round;stroke-miterlimit:10" /><line
       id="line33"
       y2="2378.1001"
       x2="297.29999"
       y1="2378.1001"
       x1="294.10001"
       class="st15"
       style="fill:none;stroke:#5193ce;stroke-linecap:round;stroke-miterlimit:10" /><line
       id="line35"
       y2="2380.8"
       x2="297.29999"
       y1="2380.8"
       x1="295.60001"
       class="st15"
       style="fill:none;stroke:#5193ce;stroke-linecap:round;stroke-miterlimit:10" /><rect
       id="rect37"
       height="8.6999998"
       width="4"
       class="st3"
       y="2337.3999"
       x="310"
       style="fill:#5193ce" /><rect
       id="rect39"
       height="8.6999998"
       width="4"
       class="st3"
       y="2337.3999"
       x="286"
       style="fill:#5193ce" /><rect
       id="rect41"
       height="8.6999998"
       width="4"
       class="st3"
       y="2337.3999"
       x="304"
       style="fill:#5193ce" /><rect
       id="rect43"
       height="8.6999998"
       width="4"
       class="st3"
       y="2337.3999"
       x="292"
       style="fill:#5193ce" /><rect
       id="rect45"
       height="8.6999998"
       width="4"
       class="st3"
       y="2337.3999"
       x="298"
       style="fill:#5193ce" /><rect
       id="rect47"
       height="4"
       width="9"
       class="st3"
       y="2383"
       x="264.39999"
       style="fill:#5193ce" /><rect
       id="rect49"
       height="4"
       width="9"
       class="st3"
       y="2365"
       x="264.39999"
       style="fill:#5193ce" /><rect
       id="rect51"
       height="4"
       width="9"
       class="st3"
       y="2377"
       x="264.39999"
       style="fill:#5193ce" /><rect
       id="rect53"
       height="4"
       width="9"
       class="st3"
       y="2371"
       x="264.39999"
       style="fill:#5193ce" /><rect
       id="rect55"
       height="4"
       width="9"
       class="st3"
       y="2359"
       x="264.39999"
       style="fill:#5193ce" /><rect
       id="rect57"
       height="8.6999998"
       width="4"
       class="st3"
       y="2399.8999"
       x="286"
       style="fill:#5193ce" /><rect
       id="rect59"
       height="8.6999998"
       width="4"
       class="st3"
       y="2399.8999"
       x="310"
       style="fill:#5193ce" /><rect
       id="rect61"
       height="8.6999998"
       width="4"
       class="st3"
       y="2399.8999"
       x="292"
       style="fill:#5193ce" /><rect
       id="rect63"
       height="8.6999998"
       width="4"
       class="st3"
       y="2399.8999"
       x="304"
       style="fill:#5193ce" /><rect
       id="rect65"
       height="8.6999998"
       width="4"
       class="st3"
       y="2399.8999"
       x="298"
       style="fill:#5193ce" /><rect
       id="rect67"
       height="4"
       width="9"
       class="st3"
       y="2377"
       x="326.60001"
       style="fill:#5193ce" /><rect
       id="rect69"
       height="4"
       width="9"
       class="st3"
       y="2359"
       x="326.60001"
       style="fill:#5193ce" /><rect
       id="rect71"
       height="4"
       width="9"
       class="st3"
       y="2371"
       x="326.60001"
       style="fill:#5193ce" /><rect
       id="rect73"
       height="4"
       width="9"
       class="st3"
       y="2365"
       x="326.60001"
       style="fill:#5193ce" /><rect
       id="rect75"
       height="4"
       width="9"
       class="st3"
       y="2383"
       x="326.60001"
       style="fill:#5193ce" /></g></svg>