<?xml version="1.0" encoding="UTF-8" standalone="no"?>
<!-- Generator: Adobe Illustrator 19.1.0, SVG Export Plug-In . SVG Version: 6.00 Build 0)  -->

<svg
   xmlns:dc="http://purl.org/dc/elements/1.1/"
   xmlns:cc="http://creativecommons.org/ns#"
   xmlns:rdf="http://www.w3.org/1999/02/22-rdf-syntax-ns#"
   xmlns:svg="http://www.w3.org/2000/svg"
   xmlns="http://www.w3.org/2000/svg"
   xmlns:sodipodi="http://sodipodi.sourceforge.net/DTD/sodipodi-0.dtd"
   xmlns:inkscape="http://www.inkscape.org/namespaces/inkscape"
   version="1.1"
   id="Layer_1"
   x="0px"
   y="0px"
   viewBox="250 174.4 100 100"
   style="enable-background:new 250 174.4 100 100;"
   xml:space="preserve"
   inkscape:version="0.91 r13725"
   sodipodi:docname="InternetOfThings_GenericIOTThing.svg"><metadata
     id="metadata63"><rdf:RDF><cc:Work
         rdf:about=""><dc:format>image/svg+xml</dc:format><dc:type
           rdf:resource="http://purl.org/dc/dcmitype/StillImage" /></cc:Work></rdf:RDF></metadata><defs
     id="defs61" /><sodipodi:namedview
     pagecolor="#ffffff"
     bordercolor="#666666"
     borderopacity="1"
     objecttolerance="10"
     gridtolerance="10"
     guidetolerance="10"
     inkscape:pageopacity="0"
     inkscape:pageshadow="2"
     inkscape:window-width="1280"
     inkscape:window-height="985"
     id="namedview59"
     showgrid="false"
     inkscape:zoom="7.4579687"
     inkscape:cx="50.26817"
     inkscape:cy="50"
     inkscape:window-x="0"
     inkscape:window-y="0"
     inkscape:window-maximized="1"
     inkscape:current-layer="Layer_1" /><style
     type="text/css"
     id="style3">
	.st0{fill:#19486F;}
	.st1{fill:#1F5B98;}
	.st2{fill:#99BBE1;}
	.st3{fill:#5193CE;}
	.st4{fill:#17476F;}
	.st5{fill:#FFFFFF;}
	.st6{fill:none;stroke:#5193CE;stroke-width:3;stroke-linecap:round;stroke-linejoin:round;stroke-miterlimit:10;}
	.st7{fill:none;stroke:#FFFFFF;stroke-width:3;stroke-linecap:round;stroke-linejoin:round;stroke-miterlimit:10;}
	.st8{fill:none;stroke:#FFFFFF;stroke-width:3;stroke-miterlimit:10;}
	.st9{fill:#5193CE;stroke:#FFFFFF;stroke-width:3;stroke-miterlimit:10;}
	.st10{fill:none;stroke:#FFFFFF;stroke-width:3;stroke-linecap:round;stroke-miterlimit:10;}
	.st11{fill:#5193CE;stroke:#FFFFFF;stroke-width:3;stroke-linecap:round;stroke-linejoin:round;stroke-miterlimit:10;}
	.st12{fill:#FFFFFF;stroke:#5193CE;stroke-width:2;stroke-miterlimit:10;}
	.st13{fill:none;stroke:#5193CE;stroke-linecap:round;stroke-linejoin:round;stroke-miterlimit:10;}
	.st14{fill:none;stroke:#5193CE;stroke-width:3;stroke-linecap:round;stroke-miterlimit:10;}
	.st15{fill:none;stroke:#5193CE;stroke-linecap:round;stroke-miterlimit:10;}
	.st16{fill:none;stroke:#5193CE;stroke-width:3;stroke-miterlimit:10;}
	.st17{fill:none;}
	.st18{fill:none;stroke:#5193CE;stroke-width:4;stroke-linecap:round;stroke-linejoin:round;stroke-miterlimit:10;}
</style><g
     id="g3391"
     transform="translate(-14.329885,14.300003)"><path
       style="fill:#17476f"
       inkscape:connector-curvature="0"
       id="path5"
       d="m 277.02273,241.16592 74.47406,0 0,4.20757 c 0,3.64657 -2.9453,6.59187 -6.73212,6.59187 l -61.15008,0 c -0.42076,0 -0.84151,0 -1.26227,-0.14025 -0.14025,0 -0.14025,0 -0.28051,0 -0.2805,-0.14026 -0.70126,-0.14026 -0.98176,-0.28051 0,0 -0.14026,0 -0.14026,0 -0.42075,-0.14025 -0.70126,-0.2805 -0.98176,-0.56101 -0.14026,0 -0.14026,-0.14025 -0.28051,-0.14025 -0.2805,-0.14025 -0.56101,-0.42076 -0.70126,-0.56101 0,0 -0.14025,-0.14025 -0.14025,-0.14025 -0.28051,-0.28051 -0.56101,-0.56101 -0.70127,-0.84152 0,-0.14025 -0.14025,-0.14025 -0.14025,-0.2805 -0.14025,-0.14026 -0.14025,-0.28051 -0.2805,-0.42076 0,-0.14025 -0.14026,-0.14025 -0.14026,-0.28051 -0.14025,-0.14025 -0.14025,-0.42075 -0.2805,-0.56101 0,-0.14025 -0.14025,-0.14025 -0.14025,-0.2805 0,-0.14025 0,-0.2805 -0.14025,-0.42076 0,-0.14025 -0.14026,-0.2805 -0.14026,-0.42075 0,-0.14026 0,-0.14026 0,-0.28051 l 0,0 c 0,-0.2805 0,-0.56101 0,-0.98177 l 0,-4.20757 z"
       class="st4" /><path
       style="fill:#5193ce"
       inkscape:connector-curvature="0"
       id="path7"
       d="m 283.75484,172.44221 c -3.64656,0 -6.73211,2.9453 -6.73211,6.59186 l 0,62.13185 c 0,3.64656 2.9453,6.59186 6.73211,6.59186 l 61.15008,0 c 3.64657,0 6.73212,-2.9453 6.73212,-6.59186 l 0,-62.13185 c 0,-3.64656 -2.9453,-6.59186 -6.73212,-6.59186 l -61.15008,0 z"
       class="st3" /><rect
       style="fill:#5193ce"
       id="rect9"
       height="12.201965"
       width="5.6100988"
       class="st3"
       y="160.09999"
       x="328.35513" /><rect
       style="fill:#5193ce"
       id="rect11"
       height="12.201965"
       width="5.6100988"
       class="st3"
       y="160.09999"
       x="294.69455" /><rect
       style="fill:#5193ce"
       id="rect13"
       height="12.201965"
       width="5.6100988"
       class="st3"
       y="160.09999"
       x="319.93997" /><rect
       style="fill:#5193ce"
       id="rect15"
       height="12.201965"
       width="5.6100988"
       class="st3"
       y="160.09999"
       x="303.10968" /><rect
       style="fill:#5193ce"
       id="rect17"
       height="12.201965"
       width="5.6100988"
       class="st3"
       y="160.09999"
       x="311.52484" /><rect
       style="fill:#5193ce"
       id="rect19"
       height="5.6100988"
       width="12.622723"
       class="st3"
       y="224.05511"
       x="264.39999" /><rect
       style="fill:#5193ce"
       id="rect21"
       height="5.6100988"
       width="12.622723"
       class="st3"
       y="198.80966"
       x="264.39999" /><rect
       style="fill:#5193ce"
       id="rect23"
       height="5.6100988"
       width="12.622723"
       class="st3"
       y="215.63995"
       x="264.39999" /><rect
       style="fill:#5193ce"
       id="rect25"
       height="5.6100988"
       width="12.622723"
       class="st3"
       y="207.22481"
       x="264.39999" /><rect
       style="fill:#5193ce"
       id="rect27"
       height="5.6100988"
       width="12.622723"
       class="st3"
       y="190.39452"
       x="264.39999" /><rect
       style="fill:#5193ce"
       id="rect29"
       height="12.201965"
       width="5.6100988"
       class="st3"
       y="247.89803"
       x="294.69455" /><rect
       style="fill:#5193ce"
       id="rect31"
       height="12.201965"
       width="5.6100988"
       class="st3"
       y="247.89803"
       x="328.35513" /><rect
       style="fill:#5193ce"
       id="rect33"
       height="12.201965"
       width="5.6100988"
       class="st3"
       y="247.89803"
       x="303.10968" /><rect
       style="fill:#5193ce"
       id="rect35"
       height="12.201965"
       width="5.6100988"
       class="st3"
       y="247.89803"
       x="319.93997" /><rect
       style="fill:#5193ce"
       id="rect37"
       height="12.201965"
       width="5.6100988"
       class="st3"
       y="247.89803"
       x="311.52484" /><rect
       style="fill:#5193ce"
       id="rect39"
       height="5.6100988"
       width="12.622723"
       class="st3"
       y="215.63995"
       x="351.63705" /><rect
       style="fill:#5193ce"
       id="rect41"
       height="5.6100988"
       width="12.622723"
       class="st3"
       y="190.39452"
       x="351.63705" /><rect
       style="fill:#5193ce"
       id="rect43"
       height="5.6100988"
       width="12.622723"
       class="st3"
       y="207.22481"
       x="351.63705" /><rect
       style="fill:#5193ce"
       id="rect45"
       height="5.6100988"
       width="12.622723"
       class="st3"
       y="198.80966"
       x="351.63705" /><rect
       style="fill:#5193ce"
       id="rect47"
       height="5.6100988"
       width="12.622723"
       class="st3"
       y="224.05511"
       x="351.63705" /><path
       style="fill:#ffffff"
       inkscape:connector-curvature="0"
       id="path49"
       d="m 327.51362,226.57966 -26.22722,0 c -1.82328,0 -3.2258,-1.40252 -3.2258,-3.22581 l 0,-26.22721 c 0,-1.82328 1.40252,-3.2258 3.2258,-3.2258 l 26.22722,0 c 1.82328,0 3.2258,1.40252 3.2258,3.2258 l 0,26.22721 c 0,1.68303 -1.40252,3.22581 -3.2258,3.22581 z"
       class="st5" /><line
       style="fill:none;stroke:#5193ce;stroke-width:4.20757437;stroke-linecap:round;stroke-linejoin:round;stroke-miterlimit:10"
       id="line51"
       y2="202.45624"
       x2="335.08722"
       y1="202.45624"
       x1="306.33548"
       class="st6" /><line
       style="fill:none;stroke:#5193ce;stroke-width:4.20757437;stroke-linecap:round;stroke-linejoin:round;stroke-miterlimit:10"
       id="line53"
       y2="217.74374"
       x2="322.32428"
       y1="217.74374"
       x1="293.57254"
       class="st6" /><circle
       style="fill:#5193ce"
       id="circle55"
       r="5.6100988"
       cy="202.45624"
       cx="306.33548"
       class="st3" /><circle
       style="fill:#5193ce"
       id="circle57"
       r="5.6100988"
       cy="217.74374"
       cx="322.32428"
       class="st3" /></g></svg>