<?xml version="1.0" encoding="UTF-8" standalone="no"?>
<!-- Generator: Adobe Illustrator 19.1.0, SVG Export Plug-In . SVG Version: 6.00 Build 0)  -->

<svg
   xmlns:dc="http://purl.org/dc/elements/1.1/"
   xmlns:cc="http://creativecommons.org/ns#"
   xmlns:rdf="http://www.w3.org/1999/02/22-rdf-syntax-ns#"
   xmlns:svg="http://www.w3.org/2000/svg"
   xmlns="http://www.w3.org/2000/svg"
   xmlns:sodipodi="http://sodipodi.sourceforge.net/DTD/sodipodi-0.dtd"
   xmlns:inkscape="http://www.inkscape.org/namespaces/inkscape"
   version="1.1"
   id="Layer_1"
   x="0px"
   y="0px"
   viewBox="499 1179 100 100"
   style="enable-background:new 499 1179 100 100;"
   xml:space="preserve"
   inkscape:version="0.91 r13725"
   sodipodi:docname="InternetOfThings_IOTCertificate.svg"><metadata
     id="metadata23"><rdf:RDF><cc:Work
         rdf:about=""><dc:format>image/svg+xml</dc:format><dc:type
           rdf:resource="http://purl.org/dc/dcmitype/StillImage" /></cc:Work></rdf:RDF></metadata><defs
     id="defs21" /><sodipodi:namedview
     pagecolor="#ffffff"
     bordercolor="#666666"
     borderopacity="1"
     objecttolerance="10"
     gridtolerance="10"
     guidetolerance="10"
     inkscape:pageopacity="0"
     inkscape:pageshadow="2"
     inkscape:window-width="1280"
     inkscape:window-height="985"
     id="namedview19"
     showgrid="false"
     inkscape:zoom="7.4579687"
     inkscape:cx="50.26817"
     inkscape:cy="50"
     inkscape:window-x="0"
     inkscape:window-y="0"
     inkscape:window-maximized="1"
     inkscape:current-layer="Layer_1" /><style
     type="text/css"
     id="style3">
	.st0{fill:#19486F;}
	.st1{fill:#1F5B98;}
	.st2{fill:#99BBE1;}
	.st3{fill:#5193CE;}
	.st4{fill:#17476F;}
	.st5{fill:#FFFFFF;}
	.st6{fill:none;stroke:#5193CE;stroke-width:3;stroke-linecap:round;stroke-linejoin:round;stroke-miterlimit:10;}
	.st7{fill:none;stroke:#FFFFFF;stroke-width:3;stroke-linecap:round;stroke-linejoin:round;stroke-miterlimit:10;}
	.st8{fill:none;stroke:#FFFFFF;stroke-width:3;stroke-miterlimit:10;}
	.st9{fill:#5193CE;stroke:#FFFFFF;stroke-width:3;stroke-miterlimit:10;}
	.st10{fill:none;stroke:#FFFFFF;stroke-width:3;stroke-linecap:round;stroke-miterlimit:10;}
	.st11{fill:#5193CE;stroke:#FFFFFF;stroke-width:3;stroke-linecap:round;stroke-linejoin:round;stroke-miterlimit:10;}
	.st12{fill:#FFFFFF;stroke:#5193CE;stroke-width:2;stroke-miterlimit:10;}
	.st13{fill:none;stroke:#5193CE;stroke-linecap:round;stroke-linejoin:round;stroke-miterlimit:10;}
	.st14{fill:none;stroke:#5193CE;stroke-width:3;stroke-linecap:round;stroke-miterlimit:10;}
	.st15{fill:none;stroke:#5193CE;stroke-linecap:round;stroke-miterlimit:10;}
	.st16{fill:none;stroke:#5193CE;stroke-width:3;stroke-miterlimit:10;}
	.st17{fill:none;}
	.st18{fill:none;stroke:#5193CE;stroke-width:4;stroke-linecap:round;stroke-linejoin:round;stroke-miterlimit:10;}
</style><g
     id="g3351"
     transform="matrix(1.2953368,0,0,1.2953368,-162.1399,-362.96893)"><path
       id="path5"
       d="m 536.1,1217.7 c 0,0 0,0 0,0 -1.4,0 -2.5,1.1 -2.5,2.5 0,1.3 1.1,2.4 2.5,2.4 0,0 0,0 0,0 1.4,0 2.5,-1.1 2.5,-2.5 0,-1.3 -1.1,-2.4 -2.5,-2.4 z"
       class="st17"
       inkscape:connector-curvature="0"
       style="fill:none" /><polygon
       id="polygon7"
       points="549,1249.1 543.8,1254.2 540.5,1247.7 534,1251 532.8,1243.8 530.3,1244.2 530.3,1267.6 549,1254.8 567.7,1267.6 567.7,1244.2 565.2,1243.8 564,1251 557.5,1247.7 554.2,1254.2 "
       class="st4"
       style="fill:#17476f" /><polygon
       id="polygon9"
       points="567.7,1264.6 567.7,1233.5 530.3,1233.5 530.3,1264.6 549,1251.8 "
       class="st3"
       style="fill:#5193ce" /><polygon
       id="polygon11"
       points="571.7,1214.2 574.5,1208.6 574.5,1205.6 568.3,1207.6 569.2,1201.4 569.2,1198.4 563,1202.3 562,1196.1 556.4,1198.9 553.5,1193.4 549,1197.8 544.5,1193.4 541.6,1198.9 536,1196.1 535,1202.3 528.8,1198.4 528.8,1201.4 529.7,1207.6 523.5,1205.6 523.5,1208.6 526.3,1214.2 520.8,1214.1 520.8,1217.1 525.2,1221.6 520.8,1223.1 520.8,1226.1 526.3,1228.9 523.5,1231.6 523.5,1234.6 529.7,1235.6 528.8,1238.8 528.8,1241.8 530.3,1241.6 535,1240.9 536,1247.1 541.6,1244.2 544.5,1249.8 549,1245.4 553.5,1249.8 556.4,1244.2 562,1247.1 563,1240.9 567.7,1241.6 569.2,1241.8 569.2,1238.8 568.3,1235.6 574.5,1234.6 574.5,1231.6 571.7,1228.9 577.2,1226.1 577.2,1223.1 572.8,1221.6 577.2,1217.1 577.2,1214.1 "
       class="st4"
       style="fill:#17476f" /><polygon
       id="polygon13"
       points="574.5,1205.6 568.3,1204.6 569.2,1198.4 563,1199.3 562,1193.1 556.4,1195.9 553.5,1190.4 549,1194.8 544.5,1190.4 541.6,1195.9 536,1193.1 535,1199.3 528.8,1198.4 529.7,1204.6 523.5,1205.6 526.3,1211.2 520.8,1214.1 525.2,1218.6 520.8,1223.1 526.3,1225.9 523.5,1231.6 529.7,1232.6 528.8,1238.8 530.3,1238.6 535,1237.9 536,1244.1 541.6,1241.2 544.5,1246.8 549,1242.4 553.5,1246.8 556.4,1241.2 562,1244.1 563,1237.9 567.7,1238.6 569.2,1238.8 568.3,1232.6 574.5,1231.6 571.7,1225.9 577.2,1223.1 572.8,1218.6 577.2,1214.1 571.7,1211.2 "
       class="st3"
       style="fill:#5193ce" /><circle
       id="circle15"
       r="21.799999"
       cy="1218.6"
       cx="549"
       class="st9"
       style="fill:#5193ce;stroke:#ffffff;stroke-width:3;stroke-miterlimit:10" /><path
       id="path17"
       d="m 563.8,1216.8 -3.1,1.8 -1.2,-0.3 -1.3,-1.3 -3.4,0.3 -1.4,-2.4 -4,0.1 -0.9,0 c 0,-0.1 -0.8,-1.3 -2,-2.2 -1.6,-1.3 -3.5,-1.9 -5.5,-1.9 -1.9,0 -3.9,0.6 -5.5,2 -3.7,3 -4.3,8.5 -1.2,12.2 0.2,0.3 0.4,0.5 0.7,0.7 1.7,1.6 3.9,2.4 6.1,2.4 1.9,0 3.9,-0.6 5.5,-2 0.5,-0.4 0.8,-0.8 1.2,-1.2 0.4,-0.4 0.7,-0.9 0.9,-1.3 0.3,-0.5 0.5,-0.9 0.5,-1 l 16.2,0 1.6,-2.9 -3.2,-3 z m -26.6,4.8 c 0,0 0,0 0,0 -1.3,0 -2.3,-1 -2.3,-2.2 0,-1.3 1,-2.3 2.2,-2.3 0,0 0,0 0,0 1.3,0 2.3,1 2.3,2.2 0.1,1.2 -0.9,2.3 -2.2,2.3 z"
       class="st5"
       inkscape:connector-curvature="0"
       style="fill:#ffffff" /></g></svg>