<?xml version="1.0" encoding="UTF-8" standalone="no"?>
<!-- Generator: Adobe Illustrator 19.1.0, SVG Export Plug-In . SVG Version: 6.00 Build 0)  -->

<svg
   xmlns:dc="http://purl.org/dc/elements/1.1/"
   xmlns:cc="http://creativecommons.org/ns#"
   xmlns:rdf="http://www.w3.org/1999/02/22-rdf-syntax-ns#"
   xmlns:svg="http://www.w3.org/2000/svg"
   xmlns="http://www.w3.org/2000/svg"
   xmlns:sodipodi="http://sodipodi.sourceforge.net/DTD/sodipodi-0.dtd"
   xmlns:inkscape="http://www.inkscape.org/namespaces/inkscape"
   version="1.1"
   id="Layer_1"
   x="0px"
   y="0px"
   viewBox="250 2179 100 100"
   style="enable-background:new 250 2179 100 100;"
   xml:space="preserve"
   inkscape:version="0.91 r13725"
   sodipodi:docname="InternetOfThings_IOTThingTravel.svg"><metadata
     id="metadata75"><rdf:RDF><cc:Work
         rdf:about=""><dc:format>image/svg+xml</dc:format><dc:type
           rdf:resource="http://purl.org/dc/dcmitype/StillImage" /></cc:Work></rdf:RDF></metadata><defs
     id="defs73" /><sodipodi:namedview
     pagecolor="#ffffff"
     bordercolor="#666666"
     borderopacity="1"
     objecttolerance="10"
     gridtolerance="10"
     guidetolerance="10"
     inkscape:pageopacity="0"
     inkscape:pageshadow="2"
     inkscape:window-width="1280"
     inkscape:window-height="985"
     id="namedview71"
     showgrid="false"
     inkscape:zoom="7.4579687"
     inkscape:cx="50.26817"
     inkscape:cy="50"
     inkscape:window-x="0"
     inkscape:window-y="0"
     inkscape:window-maximized="1"
     inkscape:current-layer="Layer_1" /><style
     type="text/css"
     id="style3">
	.st0{fill:#19486F;}
	.st1{fill:#1F5B98;}
	.st2{fill:#99BBE1;}
	.st3{fill:#5193CE;}
	.st4{fill:#17476F;}
	.st5{fill:#FFFFFF;}
	.st6{fill:none;stroke:#5193CE;stroke-width:3;stroke-linecap:round;stroke-linejoin:round;stroke-miterlimit:10;}
	.st7{fill:none;stroke:#FFFFFF;stroke-width:3;stroke-linecap:round;stroke-linejoin:round;stroke-miterlimit:10;}
	.st8{fill:none;stroke:#FFFFFF;stroke-width:3;stroke-miterlimit:10;}
	.st9{fill:#5193CE;stroke:#FFFFFF;stroke-width:3;stroke-miterlimit:10;}
	.st10{fill:none;stroke:#FFFFFF;stroke-width:3;stroke-linecap:round;stroke-miterlimit:10;}
	.st11{fill:#5193CE;stroke:#FFFFFF;stroke-width:3;stroke-linecap:round;stroke-linejoin:round;stroke-miterlimit:10;}
	.st12{fill:#FFFFFF;stroke:#5193CE;stroke-width:2;stroke-miterlimit:10;}
	.st13{fill:none;stroke:#5193CE;stroke-linecap:round;stroke-linejoin:round;stroke-miterlimit:10;}
	.st14{fill:none;stroke:#5193CE;stroke-width:3;stroke-linecap:round;stroke-miterlimit:10;}
	.st15{fill:none;stroke:#5193CE;stroke-linecap:round;stroke-miterlimit:10;}
	.st16{fill:none;stroke:#5193CE;stroke-width:3;stroke-miterlimit:10;}
	.st17{fill:none;}
	.st18{fill:none;stroke:#5193CE;stroke-width:4;stroke-linecap:round;stroke-linejoin:round;stroke-miterlimit:10;}
</style><g
     id="g3403"
     transform="matrix(1.4044944,0,0,1.4044944,-121.34832,-901.61788)"><path
       id="path5"
       d="m 273.4,2251.2 53.1,0 0,3 c 0,2.6 -2.1,4.7 -4.8,4.7 l -43.6,0 c -0.3,0 -0.6,0 -0.9,-0.1 -0.1,0 -0.1,0 -0.2,0 -0.2,-0.1 -0.5,-0.1 -0.7,-0.2 0,0 -0.1,0 -0.1,0 -0.3,-0.1 -0.5,-0.2 -0.7,-0.4 -0.1,0 -0.1,-0.1 -0.2,-0.1 -0.2,-0.1 -0.4,-0.3 -0.5,-0.4 0,0 -0.1,-0.1 -0.1,-0.1 -0.2,-0.2 -0.4,-0.4 -0.5,-0.6 0,-0.1 -0.1,-0.1 -0.1,-0.2 -0.1,-0.1 -0.1,-0.2 -0.2,-0.3 0,-0.1 -0.1,-0.1 -0.1,-0.2 -0.1,-0.1 -0.1,-0.3 -0.2,-0.4 0,-0.1 -0.1,-0.1 -0.1,-0.2 0,-0.1 0,-0.2 -0.1,-0.3 0,-0.1 -0.1,-0.2 -0.1,-0.3 0,-0.1 0,-0.1 0,-0.2 l 0,0 c 0,-0.2 0,-0.4 0,-0.7 l 0,-3 z"
       class="st4"
       inkscape:connector-curvature="0"
       style="fill:#17476f" /><path
       id="path7"
       d="m 278.2,2202.1 c -2.6,0 -4.8,2.1 -4.8,4.7 l 0,44.3 c 0,2.6 2.1,4.7 4.8,4.7 l 43.6,0 c 2.6,0 4.8,-2.1 4.8,-4.7 l 0,-44.3 c 0,-2.6 -2.1,-4.7 -4.8,-4.7 l -43.6,0 z"
       class="st3"
       inkscape:connector-curvature="0"
       style="fill:#5193ce" /><path
       id="path9"
       d="m 290.4,2239.5 0,0 c -2.3,-2.3 10.2,-14.9 11.5,-16.1 l 10.9,-10.9 c 3.4,-3.4 7.2,-5.1 8.5,-3.8 l 0,0 c 1.3,1.3 -0.5,5.1 -3.8,8.5 l -10.9,10.9 c -1.3,1.1 -13.8,13.7 -16.2,11.4 z"
       class="st5"
       inkscape:connector-curvature="0"
       style="fill:#ffffff" /><g
       id="g11"><polygon
         id="polygon13"
         points="293.1,2236.8 288.3,2241.6 277.3,2238.7 280.7,2235.3 "
         class="st5"
         style="fill:#ffffff" /><polygon
         id="polygon15"
         points="293.1,2236.8 288.3,2241.6 291.2,2252.6 294.6,2249.2 "
         class="st5"
         style="fill:#ffffff" /></g><g
       id="g17"><polygon
         id="polygon19"
         points="310.4,2219.5 302,2227.9 279.5,2216.8 281.7,2214.6 "
         class="st5"
         style="fill:#ffffff" /><polygon
         id="polygon21"
         points="310.4,2219.5 302,2227.9 313.1,2250.4 315.3,2248.2 "
         class="st5"
         style="fill:#ffffff" /></g><rect
       id="rect23"
       height="5.4000001"
       width="2.2"
       class="st5"
       transform="matrix(0.7071,0.7071,-0.7071,0.7071,1650.2352,445.1261)"
       y="2211.8999"
       x="286.70001"
       style="fill:#ffffff" /><rect
       id="rect25"
       height="5.4000001"
       width="2.2"
       class="st5"
       transform="matrix(0.7071,0.7071,-0.7071,0.7071,1653.9507,438.9354)"
       y="2213.2"
       x="296"
       style="fill:#ffffff" /><rect
       id="rect27"
       height="5.4000001"
       width="2.2"
       class="st5"
       transform="matrix(-0.7071,-0.7071,0.7071,-0.7071,-1047.0999,4050.4824)"
       y="2239.3999"
       x="314.20001"
       style="fill:#ffffff" /><rect
       id="rect29"
       height="5.4000001"
       width="2.2"
       class="st5"
       transform="matrix(-0.7071,-0.7071,0.7071,-0.7071,-1042.8745,4033.5713)"
       y="2230.1001"
       x="312.79999"
       style="fill:#ffffff" /><rect
       id="rect31"
       height="8.6999998"
       width="4"
       class="st3"
       y="2193.3999"
       x="310"
       style="fill:#5193ce" /><rect
       id="rect33"
       height="8.6999998"
       width="4"
       class="st3"
       y="2193.3999"
       x="286"
       style="fill:#5193ce" /><rect
       id="rect35"
       height="8.6999998"
       width="4"
       class="st3"
       y="2193.3999"
       x="304"
       style="fill:#5193ce" /><rect
       id="rect37"
       height="8.6999998"
       width="4"
       class="st3"
       y="2193.3999"
       x="292"
       style="fill:#5193ce" /><rect
       id="rect39"
       height="8.6999998"
       width="4"
       class="st3"
       y="2193.3999"
       x="298"
       style="fill:#5193ce" /><rect
       id="rect41"
       height="4"
       width="9"
       class="st3"
       y="2239"
       x="264.39999"
       style="fill:#5193ce" /><rect
       id="rect43"
       height="4"
       width="9"
       class="st3"
       y="2221"
       x="264.39999"
       style="fill:#5193ce" /><rect
       id="rect45"
       height="4"
       width="9"
       class="st3"
       y="2233"
       x="264.39999"
       style="fill:#5193ce" /><rect
       id="rect47"
       height="4"
       width="9"
       class="st3"
       y="2227"
       x="264.39999"
       style="fill:#5193ce" /><rect
       id="rect49"
       height="4"
       width="9"
       class="st3"
       y="2215"
       x="264.39999"
       style="fill:#5193ce" /><rect
       id="rect51"
       height="8.6999998"
       width="4"
       class="st3"
       y="2255.8999"
       x="286"
       style="fill:#5193ce" /><rect
       id="rect53"
       height="8.6999998"
       width="4"
       class="st3"
       y="2255.8999"
       x="310"
       style="fill:#5193ce" /><rect
       id="rect55"
       height="8.6999998"
       width="4"
       class="st3"
       y="2255.8999"
       x="292"
       style="fill:#5193ce" /><rect
       id="rect57"
       height="8.6999998"
       width="4"
       class="st3"
       y="2255.8999"
       x="304"
       style="fill:#5193ce" /><rect
       id="rect59"
       height="8.6999998"
       width="4"
       class="st3"
       y="2255.8999"
       x="298"
       style="fill:#5193ce" /><rect
       id="rect61"
       height="4"
       width="9"
       class="st3"
       y="2233"
       x="326.60001"
       style="fill:#5193ce" /><rect
       id="rect63"
       height="4"
       width="9"
       class="st3"
       y="2215"
       x="326.60001"
       style="fill:#5193ce" /><rect
       id="rect65"
       height="4"
       width="9"
       class="st3"
       y="2227"
       x="326.60001"
       style="fill:#5193ce" /><rect
       id="rect67"
       height="4"
       width="9"
       class="st3"
       y="2221"
       x="326.60001"
       style="fill:#5193ce" /><rect
       id="rect69"
       height="4"
       width="9"
       class="st3"
       y="2239"
       x="326.60001"
       style="fill:#5193ce" /></g></svg>