<?xml version="1.0" encoding="UTF-8" standalone="no"?>
<!-- Generator: Adobe Illustrator 18.1.1, SVG Export Plug-In . SVG Version: 6.00 Build 0)  -->

<svg
   xmlns:dc="http://purl.org/dc/elements/1.1/"
   xmlns:cc="http://creativecommons.org/ns#"
   xmlns:rdf="http://www.w3.org/1999/02/22-rdf-syntax-ns#"
   xmlns:svg="http://www.w3.org/2000/svg"
   xmlns="http://www.w3.org/2000/svg"
   xmlns:sodipodi="http://sodipodi.sourceforge.net/DTD/sodipodi-0.dtd"
   xmlns:inkscape="http://www.inkscape.org/namespaces/inkscape"
   version="1.2"
   id="Layer_1"
   x="0px"
   y="0px"
   viewBox="0 0 100 100"
   xml:space="preserve"
   inkscape:version="0.91 r13725"
   sodipodi:docname="Analytics_AmazonMachineLearning.svg"><metadata
     id="metadata57"><rdf:RDF><cc:Work
         rdf:about=""><dc:format>image/svg+xml</dc:format><dc:type
           rdf:resource="http://purl.org/dc/dcmitype/StillImage" /></cc:Work></rdf:RDF></metadata><defs
     id="defs55" /><sodipodi:namedview
     pagecolor="#ffffff"
     bordercolor="#666666"
     borderopacity="1"
     objecttolerance="10"
     gridtolerance="10"
     guidetolerance="10"
     inkscape:pageopacity="0"
     inkscape:pageshadow="2"
     inkscape:window-width="1280"
     inkscape:window-height="985"
     id="namedview53"
     showgrid="false"
     inkscape:zoom="7.4579687"
     inkscape:cx="50.26817"
     inkscape:cy="50"
     inkscape:window-x="0"
     inkscape:window-y="0"
     inkscape:window-maximized="1"
     inkscape:current-layer="Layer_1" /><g
     id="g3"
     transform="matrix(1.3888889,0,0,1.3888889,-18.402778,-20.158334)"><polygon
       points="61.867,46.479 61.867,58.516 69.2,59.213 69.2,46.133 "
       id="polygon5"
       style="fill:#9d5025" /><polygon
       points="49.25,31.219 79.113,40.036 49.25,43.091 19.387,40.036 "
       id="polygon7"
       style="fill:#6b3a19" /><polygon
       points="64.181,71.593 64.181,61.051 74.218,62.271 74.218,74.03 "
       id="polygon9"
       style="fill:#9d5025" /><polygon
       points="53.431,75.517 53.431,62.923 64.181,64.679 64.181,79.048 "
       id="polygon11"
       style="fill:#9d5025" /><polygon
       points="79.113,29.445 79.113,40.036 49.25,32.593 49.25,14.514 "
       id="polygon13"
       style="fill:#f58536" /><polygon
       points="60.113,81.082 60.113,65.72 49.25,68.426 49.25,86.514 "
       id="polygon15"
       style="fill:#f58536" /><polygon
       points="74.218,74.03 74.218,62.212 79.113,60.992 79.113,71.582 "
       id="polygon17"
       style="fill:#f58536" /><polygon
       points="71.228,75.525 71.228,62.957 64.181,64.713 64.181,79.048 "
       id="polygon19"
       style="fill:#f58536" /><polygon
       points="69.73,60.023 64.181,61.051 74.057,62.252 79.113,60.992 "
       id="polygon21"
       style="fill:#fbbf93" /><polygon
       points="60.797,61.572 53.431,62.923 64.265,64.692 71.228,62.957 "
       id="polygon23"
       style="fill:#fbbf93" /><polygon
       points="34.318,71.593 34.318,61.051 24.282,62.271 24.282,74.03 "
       id="polygon25"
       style="fill:#f58536" /><polygon
       points="45.068,75.517 45.068,62.923 34.318,64.679 34.318,79.048 "
       id="polygon27"
       style="fill:#f58536" /><polygon
       points="19.387,29.445 19.387,40.036 49.25,32.593 49.25,14.514 "
       id="polygon29"
       style="fill:#9d5025" /><polygon
       points="38.387,81.082 38.387,65.72 49.25,68.426 49.25,86.514 "
       id="polygon31"
       style="fill:#9d5025" /><polygon
       points="24.282,74.03 24.282,62.212 19.387,60.992 19.387,71.582 "
       id="polygon33"
       style="fill:#9d5025" /><polygon
       points="27.272,75.525 27.272,62.957 34.318,64.713 34.318,79.048 "
       id="polygon35"
       style="fill:#9d5025" /><polygon
       points="28.769,60.023 34.318,61.051 24.442,62.252 19.387,60.992 "
       id="polygon37"
       style="fill:#fbbf93" /><polygon
       points="37.703,61.572 45.068,62.923 34.234,64.692 27.272,62.957 "
       id="polygon39"
       style="fill:#fbbf93" /><polygon
       points="49.25,68.426 60.113,65.72 49.25,63.722 38.387,65.72 "
       id="polygon41"
       style="fill:#fbbf93" /><polygon
       points="64.181,60.066 64.181,45.731 49.25,44.495 49.25,62.574 "
       id="polygon43"
       style="fill:#f58536" /><polygon
       points="79.113,57.558 79.113,46.957 69.2,46.133 69.2,59.223 "
       id="polygon45"
       style="fill:#f58536" /><polygon
       points="36.633,46.479 36.633,58.516 29.3,59.213 29.3,46.133 "
       id="polygon47"
       style="fill:#f58536" /><polygon
       points="34.318,60.066 34.318,45.731 49.25,44.495 49.25,62.574 "
       id="polygon49"
       style="fill:#9d5025" /><polygon
       points="19.387,57.558 19.387,46.957 29.3,46.133 29.3,59.223 "
       id="polygon51"
       style="fill:#9d5025" /></g></svg>