<?xml version="1.0" encoding="UTF-8" standalone="no"?>
<!-- Generator: Adobe Illustrator 16.0.0, SVG Export Plug-In . SVG Version: 6.00 Build 0)  -->

<svg
   xmlns:dc="http://purl.org/dc/elements/1.1/"
   xmlns:cc="http://creativecommons.org/ns#"
   xmlns:rdf="http://www.w3.org/1999/02/22-rdf-syntax-ns#"
   xmlns:svg="http://www.w3.org/2000/svg"
   xmlns="http://www.w3.org/2000/svg"
   xmlns:sodipodi="http://sodipodi.sourceforge.net/DTD/sodipodi-0.dtd"
   xmlns:inkscape="http://www.inkscape.org/namespaces/inkscape"
   version="1.2"
   x="0px"
   y="0px"
   width="100px"
   height="100px"
   viewBox="0 0 100 100"
   xml:space="preserve"
   id="svg2"
   inkscape:version="0.91 r13725"
   sodipodi:docname="AmazonWorkSpaces.svg"><metadata
     id="metadata30"><rdf:RDF><cc:Work
         rdf:about=""><dc:format>image/svg+xml</dc:format><dc:type
           rdf:resource="http://purl.org/dc/dcmitype/StillImage" /></cc:Work></rdf:RDF></metadata><defs
     id="defs28" /><sodipodi:namedview
     pagecolor="#ffffff"
     bordercolor="#666666"
     borderopacity="1"
     objecttolerance="10"
     gridtolerance="10"
     guidetolerance="10"
     inkscape:pageopacity="0"
     inkscape:pageshadow="2"
     inkscape:window-width="1280"
     inkscape:window-height="985"
     id="namedview26"
     showgrid="false"
     inkscape:zoom="7.4579687"
     inkscape:cx="50.26817"
     inkscape:cy="50"
     inkscape:window-x="0"
     inkscape:window-y="0"
     inkscape:window-maximized="1"
     inkscape:current-layer="svg2" /><g
     id="Raw_Elements"
     transform="matrix(1.1767752,0,0,1.1767752,-2.6800883,-16.400316)" /><g
     id="Artifacts"
     display="none" /><g
     id="Logos"
     transform="matrix(1.1767752,0,0,1.1767752,-11.381771,-9.1753177)"><g
       id="g7"><g
         id="g9"><linearGradient
           id="SVGID_1_"
           gradientUnits="userSpaceOnUse"
           x1="52.161098"
           y1="8.2402"
           x2="52.161098"
           y2="92.656197"><stop
             offset="0"
             style="stop-color:#F58534"
             id="stop12" /><stop
             offset="1"
             style="stop-color:#D16928"
             id="stop14" /></linearGradient><polygon
           points="89.161,71.531 52.161,92.775 15.161,71.531 15.161,29.042 52.161,7.797 89.161,29.042 "
           id="polygon16"
           style="fill:url(#SVGID_1_)" /><g
           id="g18"><path
             d="m 47.465,40.534 -0.037,0 -19,0 -0.035,0 c -1.062,0 -1.926,0.864 -1.926,1.925 l 0,0.036 0,26.278 0,0.032 c 0,1.063 0.864,1.928 1.926,1.928 l 0.035,0 19,0 0.037,0 c 1.061,0 1.924,-0.864 1.924,-1.928 l 0,-0.032 0,-26.278 0,-0.036 c 0,-1.061 -0.864,-1.925 -1.924,-1.925 z m -9.536,29.315 c -0.903,0 -1.635,-0.731 -1.635,-1.635 0,-0.902 0.731,-1.634 1.635,-1.634 0.902,0 1.634,0.731 1.634,1.634 0,0.903 -0.731,1.635 -1.634,1.635 z m 7.539,-4.155 -15.078,0 0,-21.237 15.078,0 0,21.237 z"
             id="path20"
             inkscape:connector-curvature="0"
             style="fill:#ffffff" /><g
             id="g22"><path
               d="m 77.144,58.314 0,-27.632 -37.538,0 0,9.853 3.922,0 0,-5.931 29.692,0 0,19.789 -23.831,0 0,3.922 6.254,0 0,3.014 c -2.375,0.099 -4.516,0.326 -6.254,0.644 l 0,4.024 6.318,0 2.881,0 2.605,0 10.577,0 0,-1.98 c 0,-1.326 -4.613,-2.432 -10.752,-2.688 l 0,-3.014 16.126,0 z"
               id="path24"
               inkscape:connector-curvature="0"
               style="fill:#ffffff" /></g></g></g></g></g></svg>