<?xml version="1.0" encoding="UTF-8" standalone="no"?>
<!-- Generator: Adobe Illustrator 19.1.0, SVG Export Plug-In . SVG Version: 6.00 Build 0)  -->

<svg
   xmlns:dc="http://purl.org/dc/elements/1.1/"
   xmlns:cc="http://creativecommons.org/ns#"
   xmlns:rdf="http://www.w3.org/1999/02/22-rdf-syntax-ns#"
   xmlns:svg="http://www.w3.org/2000/svg"
   xmlns="http://www.w3.org/2000/svg"
   xmlns:sodipodi="http://sodipodi.sourceforge.net/DTD/sodipodi-0.dtd"
   xmlns:inkscape="http://www.inkscape.org/namespaces/inkscape"
   version="1.1"
   id="Layer_1"
   x="0px"
   y="0px"
   viewBox="0 0 100 100"
   style="enable-background:new 0 0 100 100;"
   xml:space="preserve"
   inkscape:version="0.91 r13725"
   sodipodi:docname="StorageContentDelivery_Snowball.svg"><metadata
     id="metadata51"><rdf:RDF><cc:Work
         rdf:about=""><dc:format>image/svg+xml</dc:format><dc:type
           rdf:resource="http://purl.org/dc/dcmitype/StillImage" /></cc:Work></rdf:RDF></metadata><defs
     id="defs49" /><sodipodi:namedview
     pagecolor="#ffffff"
     bordercolor="#666666"
     borderopacity="1"
     objecttolerance="10"
     gridtolerance="10"
     guidetolerance="10"
     inkscape:pageopacity="0"
     inkscape:pageshadow="2"
     inkscape:window-width="1280"
     inkscape:window-height="985"
     id="namedview47"
     showgrid="false"
     inkscape:zoom="7.4579687"
     inkscape:cx="50.26817"
     inkscape:cy="50"
     inkscape:window-x="0"
     inkscape:window-y="0"
     inkscape:window-maximized="1"
     inkscape:current-layer="Layer_1" /><style
     type="text/css"
     id="style3">
	.st0{fill:#DF5343;}
	.st1{fill:#8B3223;}
	.st2{fill:#5E1F19;}
	.st3{fill:#F1AFA8;}
</style><g
     id="g5"
     transform="matrix(1.2135922,0,0,1.2135922,-10.67961,-10.67961)"><polygon
       class="st0"
       points="84.1,25.9 84.1,35.5 50,25.3 50,8.8 "
       id="polygon7"
       style="fill:#df5343" /><polygon
       class="st0"
       points="74.5,21.1 74.5,44.2 84.1,45.2 84.1,25.9 "
       id="polygon9"
       style="fill:#df5343" /><polygon
       class="st1"
       points="50,45.5 50,36.6 74.5,32.6 74.5,44.2 "
       id="polygon11"
       style="fill:#8b3223" /><polygon
       class="st2"
       points="60.9,46.1 50,45.5 74.5,44.2 84.1,45.2 "
       id="polygon13"
       style="fill:#5e1f19" /><polygon
       class="st0"
       points="84.1,74.1 84.1,64.5 50,74.7 50,91.2 "
       id="polygon15"
       style="fill:#df5343" /><polygon
       class="st0"
       points="74.5,78.9 74.5,55.8 84.1,54.8 84.1,74.1 "
       id="polygon17"
       style="fill:#df5343" /><polygon
       class="st1"
       points="50,54.5 50,63.4 74.5,67.4 74.5,55.8 "
       id="polygon19"
       style="fill:#8b3223" /><polygon
       class="st3"
       points="60.9,53.9 50,54.5 74.5,55.8 84.1,54.8 "
       id="polygon21"
       style="fill:#f1afa8" /><polygon
       class="st1"
       points="15.9,25.9 15.9,35.5 50,25.3 50,8.8 "
       id="polygon23"
       style="fill:#8b3223" /><polygon
       class="st1"
       points="25.5,21.1 25.5,44.2 15.9,45.2 15.9,25.9 "
       id="polygon25"
       style="fill:#8b3223" /><polygon
       class="st0"
       points="50,45.5 50,36.6 25.5,32.6 25.5,44.2 "
       id="polygon27"
       style="fill:#df5343" /><polygon
       class="st2"
       points="39.1,46.1 50,45.5 25.5,44.2 15.9,45.2 "
       id="polygon29"
       style="fill:#5e1f19" /><polygon
       class="st1"
       points="15.9,74.1 15.9,64.5 50,74.7 50,91.2 "
       id="polygon31"
       style="fill:#8b3223" /><polygon
       class="st1"
       points="25.5,78.9 25.5,55.8 15.9,54.8 15.9,74.1 "
       id="polygon33"
       style="fill:#8b3223" /><polygon
       class="st0"
       points="50,54.5 50,63.4 25.5,67.4 25.5,55.8 "
       id="polygon35"
       style="fill:#df5343" /><polygon
       class="st3"
       points="39.1,53.9 50,54.5 25.5,55.8 15.9,54.8 "
       id="polygon37"
       style="fill:#f1afa8" /><polygon
       class="st0"
       points="64.4,60.2 64.4,39.9 50,37.7 50,62.4 "
       id="polygon39"
       style="fill:#df5343" /><polygon
       class="st1"
       points="35.6,60.2 35.6,39.9 50,37.7 50,62.4 "
       id="polygon41"
       style="fill:#8b3223" /><polygon
       class="st2"
       points="50,25.2 74.5,32.6 50,36.6 25.5,32.6 "
       id="polygon43"
       style="fill:#5e1f19" /><polygon
       class="st3"
       points="50,74.8 74.5,67.4 50,63.4 25.5,67.4 "
       id="polygon45"
       style="fill:#f1afa8" /></g></svg>