<?xml version="1.0" encoding="UTF-8" standalone="no"?>
<!-- Generator: Adobe Illustrator 19.0.0, SVG Export Plug-In . SVG Version: 6.00 Build 0)  -->

<svg
   xmlns:dc="http://purl.org/dc/elements/1.1/"
   xmlns:cc="http://creativecommons.org/ns#"
   xmlns:rdf="http://www.w3.org/1999/02/22-rdf-syntax-ns#"
   xmlns:svg="http://www.w3.org/2000/svg"
   xmlns="http://www.w3.org/2000/svg"
   xmlns:sodipodi="http://sodipodi.sourceforge.net/DTD/sodipodi-0.dtd"
   xmlns:inkscape="http://www.inkscape.org/namespaces/inkscape"
   version="1.1"
   id="Layer_1"
   x="0px"
   y="0px"
   viewBox="0 0 100 100"
   style="enable-background:new 0 0 100 100;"
   xml:space="preserve"
   inkscape:version="0.91 r13725"
   sodipodi:docname="SecurityIdentity_TrustedAdvisor.svg"><metadata
     id="metadata31"><rdf:RDF><cc:Work
         rdf:about=""><dc:format>image/svg+xml</dc:format><dc:type
           rdf:resource="http://purl.org/dc/dcmitype/StillImage" /></cc:Work></rdf:RDF></metadata><defs
     id="defs29" /><sodipodi:namedview
     pagecolor="#ffffff"
     bordercolor="#666666"
     borderopacity="1"
     objecttolerance="10"
     gridtolerance="10"
     guidetolerance="10"
     inkscape:pageopacity="0"
     inkscape:pageshadow="2"
     inkscape:window-width="1280"
     inkscape:window-height="985"
     id="namedview27"
     showgrid="false"
     inkscape:zoom="7.4579687"
     inkscape:cx="50.26817"
     inkscape:cy="50"
     inkscape:window-x="0"
     inkscape:window-y="0"
     inkscape:window-maximized="1"
     inkscape:current-layer="Layer_1" /><style
     type="text/css"
     id="style3">
	.st0{fill:#4B612C;}
	.st1{fill:#759C3E;}
	.st2{fill:#3C4929;}
	.st3{display:none;}
</style><g
     id="Amazon_CloudSearch"
     transform="matrix(1.3888889,0,0,1.3888889,-19.444445,-19.444445)"><g
       id="g6"><polygon
         class="st0"
         points="65.8,45.5 65.8,58.7 73.8,59.5 73.8,45.1 "
         id="polygon8"
         style="fill:#4b612c" /><polygon
         class="st1"
         points="62.6,20.3 62.6,38.1 50,35.5 50,14 "
         id="polygon10"
         style="fill:#759c3e" /><polygon
         class="st1"
         points="79.8,58.3 79.8,45.8 73.8,45.1 73.8,59.5 "
         id="polygon12"
         style="fill:#759c3e" /><polygon
         class="st1"
         points="68.9,44.6 68.9,76.6 50,86 50,42.7 "
         id="polygon14"
         style="fill:#759c3e" /><polygon
         class="st1"
         points="34.2,45.5 34.2,58.7 26.2,59.5 26.2,45.1 "
         id="polygon16"
         style="fill:#759c3e" /><polygon
         class="st0"
         points="37.4,20.3 37.4,38.1 50,35.5 50,14 "
         id="polygon18"
         style="fill:#4b612c" /><polygon
         class="st0"
         points="20.2,58.3 20.2,45.8 26.2,45.1 26.2,59.5 "
         id="polygon20"
         style="fill:#4b612c" /><polygon
         class="st0"
         points="31.1,44.6 31.1,76.6 50,86 50,42.7 "
         id="polygon22"
         style="fill:#4b612c" /><polygon
         class="st2"
         points="50,35.5 62.6,38.1 50,39.8 37.4,38.1 "
         id="polygon24"
         style="fill:#3c4929" /></g></g><g
     id="nyt_x5F_exporter_x5F_info"
     class="st3" /></svg>