<?xml version="1.0" encoding="UTF-8" standalone="no"?>
<!-- Generator: Adobe Illustrator 17.1.0, SVG Export Plug-In . SVG Version: 6.00 Build 0)  -->

<svg
   xmlns:dc="http://purl.org/dc/elements/1.1/"
   xmlns:cc="http://creativecommons.org/ns#"
   xmlns:rdf="http://www.w3.org/1999/02/22-rdf-syntax-ns#"
   xmlns:svg="http://www.w3.org/2000/svg"
   xmlns="http://www.w3.org/2000/svg"
   xmlns:sodipodi="http://sodipodi.sourceforge.net/DTD/sodipodi-0.dtd"
   xmlns:inkscape="http://www.inkscape.org/namespaces/inkscape"
   version="1.1"
   id="Layer_1"
   x="0px"
   y="0px"
   viewBox="0 0 100 100"
   enable-background="new 0 0 150 150"
   xml:space="preserve"
   inkscape:version="0.91 r13725"
   sodipodi:docname="AmazonWorkDocs.svg"
   width="100"
   height="100"><metadata
     id="metadata32"><rdf:RDF><cc:Work
         rdf:about=""><dc:format>image/svg+xml</dc:format><dc:type
           rdf:resource="http://purl.org/dc/dcmitype/StillImage" /><dc:title></dc:title></cc:Work></rdf:RDF></metadata><defs
     id="defs30" /><sodipodi:namedview
     pagecolor="#ffffff"
     bordercolor="#666666"
     borderopacity="1"
     objecttolerance="10"
     gridtolerance="10"
     guidetolerance="10"
     inkscape:pageopacity="0"
     inkscape:pageshadow="2"
     inkscape:window-width="1280"
     inkscape:window-height="985"
     id="namedview28"
     showgrid="false"
     inkscape:zoom="4.9719792"
     inkscape:cx="75.402254"
     inkscape:cy="75"
     inkscape:window-x="0"
     inkscape:window-y="0"
     inkscape:window-maximized="1"
     inkscape:current-layer="Layer_1" /><g
     id="g3"
     transform="matrix(0.69627853,0,0,0.69627853,-2.3922825,-3.3723308)"><linearGradient
       id="SVGID_1_"
       gradientUnits="userSpaceOnUse"
       x1="288.08511"
       y1="298.24445"
       x2="288.08511"
       y2="-253.41264"
       gradientTransform="matrix(0.2586207,0,0,-0.2586207,0.7413793,82.724136)"><stop
         offset="0"
         style="stop-color:#F58434"
         id="stop6" /><stop
         offset="1"
         style="stop-color:#D26B28"
         id="stop8" /></linearGradient><polygon
       points="138.21831,112.55889 75.246147,148.46405 12.274001,112.55889 12.274001,40.749641 75.246147,4.8433652 138.21831,40.749641 "
       id="polygon10"
       style="fill:url(#SVGID_1_)" /><g
       id="g12"><g
         id="g14"><rect
           x="55.394466"
           y="70.002968"
           width="25.668343"
           height="6.6286473"
           id="rect16"
           style="fill:#ffffff" /><rect
           x="55.394466"
           y="83.260262"
           width="25.668343"
           height="6.6286473"
           id="rect18"
           style="fill:#ffffff" /><rect
           x="55.394466"
           y="96.517555"
           width="25.668343"
           height="6.6286473"
           id="rect20"
           style="fill:#ffffff" /></g><g
         id="g22"><polygon
           points="94.313461,54.11631 62.02972,54.11631 62.02972,60.744961 87.684807,60.744961 87.684807,99.146927 94.313461,99.146927 "
           id="polygon24"
           style="fill:#ffffff" /><path
           d="m 107.57076,40.859016 -52.170766,0 0,13.257294 -13.257298,0 0,64.91655 52.170765,0 0,-13.25729 13.257299,0 0,-64.916554 z m -19.885953,71.545204 -38.91346,0 0,-51.659255 38.91346,0 0,51.659255 z m 13.257303,-13.257293 -6.628649,0 0,-45.030609 -32.28482,0 0,-6.628651 38.913469,0 0,51.65926 z"
           id="path26"
           inkscape:connector-curvature="0"
           style="fill:#ffffff" /></g></g></g></svg>