<?xml version="1.0" encoding="UTF-8" standalone="no"?>
<!-- Generator: Adobe Illustrator 19.1.0, SVG Export Plug-In . SVG Version: 6.00 Build 0)  -->

<svg
   xmlns:dc="http://purl.org/dc/elements/1.1/"
   xmlns:cc="http://creativecommons.org/ns#"
   xmlns:rdf="http://www.w3.org/1999/02/22-rdf-syntax-ns#"
   xmlns:svg="http://www.w3.org/2000/svg"
   xmlns="http://www.w3.org/2000/svg"
   xmlns:xlink="http://www.w3.org/1999/xlink"
   xmlns:sodipodi="http://sodipodi.sourceforge.net/DTD/sodipodi-0.dtd"
   xmlns:inkscape="http://www.inkscape.org/namespaces/inkscape"
   version="1.1"
   id="Layer_1"
   x="0px"
   y="0px"
   viewBox="0 0 100 100"
   style="enable-background:new 0 0 100 100;"
   xml:space="preserve"
   inkscape:version="0.91 r13725"
   sodipodi:docname="StorageContentDelivery_AWSIMportExport.svg"><metadata
     id="metadata129"><rdf:RDF><cc:Work
         rdf:about=""><dc:format>image/svg+xml</dc:format><dc:type
           rdf:resource="http://purl.org/dc/dcmitype/StillImage" /></cc:Work></rdf:RDF></metadata><defs
     id="defs127" /><sodipodi:namedview
     pagecolor="#ffffff"
     bordercolor="#666666"
     borderopacity="1"
     objecttolerance="10"
     gridtolerance="10"
     guidetolerance="10"
     inkscape:pageopacity="0"
     inkscape:pageshadow="2"
     inkscape:window-width="1280"
     inkscape:window-height="985"
     id="namedview125"
     showgrid="false"
     inkscape:zoom="7.4579687"
     inkscape:cx="50.26817"
     inkscape:cy="50"
     inkscape:window-x="0"
     inkscape:window-y="0"
     inkscape:window-maximized="1"
     inkscape:current-layer="Layer_1" /><style
     type="text/css"
     id="style3">
	.st0{enable-background:new    ;}
	.st1{clip-path:url(#SVGID_2_);enable-background:new    ;}
	.st2{fill:#8C3123;}
	.st3{fill:#E05243;}
	.st4{clip-path:url(#SVGID_4_);enable-background:new    ;}
</style><g
     id="g5"
     transform="matrix(1.7271157,0,0,1.7271157,-36.269429,-36.355785)"><g
       class="st0"
       id="g7"
       style="enable-background:new"><g
         class="st0"
         id="g9"
         style="enable-background:new"><defs
           id="defs11"><path
             id="SVGID_1_"
             class="st0"
             d="m 77,27.4 0,2.6 c 0,3.2 -12.5,5.8 -28,5.8 -15.4,0 -28,-2.6 -28,-5.8 l 0,-2.6 c 0,3.2 12.5,5.8 28,5.8 15.5,-0.1 28,-2.6 28,-5.8 z"
             inkscape:connector-curvature="0"
             style="enable-background:new" /></defs><use
           xlink:href="#SVGID_1_"
           style="overflow:visible;fill:#8c3123"
           id="use14"
           x="0"
           y="0"
           width="100%"
           height="100%" /><clipPath
           id="SVGID_2_"><use
             xlink:href="#SVGID_1_"
             style="overflow:visible"
             id="use17"
             x="0"
             y="0"
             width="100%"
             height="100%" /></clipPath><g
           class="st1"
           id="g19"
           clip-path="url(#SVGID_2_)"
           style="enable-background:new"><path
             class="st2"
             d="m 77,27.4 0,2.6 c 0,0.1 0,0.1 0,0.2 l 0,-2.6 c 0,-0.1 0,-0.2 0,-0.2"
             id="path21"
             inkscape:connector-curvature="0"
             style="fill:#8c3123" /><path
             class="st2"
             d="m 77,27.6 0,2.6 c 0,0.1 0,0.2 -0.1,0.2 l 0,-2.6 C 77,27.7 77,27.7 77,27.6"
             id="path23"
             inkscape:connector-curvature="0"
             style="fill:#8c3123" /><path
             class="st2"
             d="m 76.9,27.8 0,2.6 c 0,0.1 -0.1,0.2 -0.2,0.4 l 0,-2.6 c 0.1,-0.1 0.2,-0.3 0.2,-0.4"
             id="path25"
             inkscape:connector-curvature="0"
             style="fill:#8c3123" /><path
             class="st2"
             d="m 76.7,28.2 0,2.6 c -1.9,2.8 -13.6,5 -27.7,5 -15.4,0 -28,-2.6 -28,-5.8 l 0,-2.6 c 0,3.2 12.5,5.8 28,5.8 14.2,-0.1 25.8,-2.2 27.7,-5"
             id="path27"
             inkscape:connector-curvature="0"
             style="fill:#8c3123" /></g></g><g
         id="g29"><path
           class="st3"
           d="m 49.1,21.6 c 15.4,0 28,2.6 28,5.8 0,3.2 -12.5,5.8 -28,5.8 -15.4,0 -28,-2.6 -28,-5.8 0,-3.3 12.5,-5.8 28,-5.8 z"
           id="path31"
           inkscape:connector-curvature="0"
           style="fill:#e05243" /></g><g
         id="g33"><polygon
           class="st2"
           points="44.4,45.2 59.7,45.3 59.7,47.9 44.6,47.9 "
           id="polygon35"
           style="fill:#8c3123" /></g><g
         id="g37"><polygon
           class="st2"
           points="33.9,37.9 45.5,45.3 44.6,47.9 34.4,41 "
           id="polygon39"
           style="fill:#8c3123" /></g><g
         id="g41"><polygon
           class="st2"
           points="21.3,31.8 25.6,45.5 25,48.3 21.3,34.4 "
           id="polygon43"
           style="fill:#8c3123" /></g><g
         id="g45"><rect
           x="25"
           y="45.700001"
           class="st2"
           width="9.3999996"
           height="2.5999999"
           id="rect47"
           style="fill:#8c3123" /></g><g
         id="g49"><polygon
           class="st2"
           points="72.5,46.5 76.9,31.8 76.9,34.4 72.9,49.5 "
           id="polygon51"
           style="fill:#8c3123" /></g><g
         id="g53"><path
           class="st3"
           d="m 76.9,31.8 -4,15.1 -13.2,-8.9 0,7.4 -15.1,0 -10.3,-6.9 0,7.4 -9.3,0 L 21.3,32 c 1.5,2.9 13.4,5.2 27.8,5.2 14.4,-0.2 26.2,-2.5 27.8,-5.4 z"
           id="path55"
           inkscape:connector-curvature="0"
           style="fill:#e05243" /></g><g
         id="g57"><polygon
           class="st2"
           points="59.7,38 72.9,46.9 72.9,49.5 59.7,40.6 "
           id="polygon59"
           style="fill:#8c3123" /></g><g
         id="g61"><polygon
           class="st2"
           points="50.7,50.1 58.1,55.6 58.1,58.2 50.7,52.7 "
           id="polygon63"
           style="fill:#8c3123" /></g><g
         id="g65"><polygon
           class="st2"
           points="51.4,60.1 63.8,60.1 63.8,62.8 51.4,62.7 "
           id="polygon67"
           style="fill:#8c3123" /></g><g
         id="g69"><polygon
           class="st2"
           points="44.9,60.3 51.4,55.7 51.4,58.3 44.9,62.9 "
           id="polygon71"
           style="fill:#8c3123" /></g><g
         id="g73"><rect
           x="23.700001"
           y="60.599998"
           class="st2"
           width="13.1"
           height="2.5999999"
           id="rect75"
           style="fill:#8c3123" /></g><g
         id="g77"><polygon
           class="st2"
           points="63.8,65.3 78.9,55.2 78.9,57.8 63.8,67.9 "
           id="polygon79"
           style="fill:#8c3123" /></g><g
         id="g81"><polygon
           class="st3"
           points="63.8,60.1 51.4,60.1 58.1,55.6 50.7,50.1 63.8,50.2 63.8,45 78.9,55.2 63.8,65.3 "
           id="polygon83"
           style="fill:#e05243" /></g><g
         id="g85"><polygon
           class="st3"
           points="45,60.2 36.8,65.7 36.8,60.6 23.7,60.6 23.7,50.6 36.8,50.6 36.8,45.5 43.3,49.9 51.4,55.7 "
           id="polygon87"
           style="fill:#e05243" /></g><g
         id="g89"><polygon
           class="st2"
           points="36.8,65.7 45,60.2 45,62.8 36.8,68.3 "
           id="polygon91"
           style="fill:#8c3123" /></g><g
         id="g93"><polygon
           class="st2"
           points="67.5,72.1 68.6,67.9 68.6,70.5 67.6,74.4 "
           id="polygon95"
           style="fill:#8c3123" /></g><g
         id="g97"><polygon
           class="st2"
           points="28.7,65.4 31,72.2 30.4,74.6 28.7,68 "
           id="polygon99"
           style="fill:#8c3123" /></g><g
         class="st0"
         id="g101"
         style="enable-background:new"><defs
           id="defs103"><path
             id="SVGID_3_"
             class="st0"
             d="m 67.6,71.7 0,2.6 c 0,2.1 -8.3,4.1 -18.6,4.1 -10.3,0 -18.6,-1.7 -18.6,-3.9 l 0,-2.5 c 0,2.1 8.3,3.9 18.6,3.9 10.4,-0.1 18.6,-2 18.6,-4.2 z"
             inkscape:connector-curvature="0"
             style="enable-background:new" /></defs><use
           xlink:href="#SVGID_3_"
           style="overflow:visible;fill:#8c3123"
           id="use106"
           x="0"
           y="0"
           width="100%"
           height="100%" /><clipPath
           id="SVGID_4_"><use
             xlink:href="#SVGID_3_"
             style="overflow:visible"
             id="use109"
             x="0"
             y="0"
             width="100%"
             height="100%" /></clipPath><g
           class="st4"
           id="g111"
           clip-path="url(#SVGID_4_)"
           style="enable-background:new"><path
             class="st2"
             d="m 67.6,71.7 0,2.6 c 0,0 0,0.1 0,0.1 l 0,-2.6 c 0,0 0,0 0,-0.1"
             id="path113"
             inkscape:connector-curvature="0"
             style="fill:#8c3123" /><path
             class="st2"
             d="m 67.6,71.9 0,2.6 c 0,0 0,0.1 0,0.1 l 0,-2.6 c 0,-0.1 0,-0.1 0,-0.1"
             id="path115"
             inkscape:connector-curvature="0"
             style="fill:#8c3123" /><path
             class="st2"
             d="m 67.6,72 0,2.6 c 0,0.1 -0.1,0.1 -0.1,0.2 l 0,-2.6 c 0,-0.1 0.1,-0.1 0.1,-0.2"
             id="path117"
             inkscape:connector-curvature="0"
             style="fill:#8c3123" /><path
             class="st2"
             d="m 67.5,72.2 0,2.6 c -1.4,2 -8.8,3.6 -18.4,3.6 -10.3,0 -18.6,-1.7 -18.6,-3.9 l -0.1,-3.6 c 0,2.1 8.5,4.9 18.8,4.9 9.5,0 16.9,-1.6 18.3,-3.6"
             id="path119"
             inkscape:connector-curvature="0"
             style="fill:#8c3123" /></g></g><g
         id="g121"><path
           class="st3"
           d="m 62.6,64.5 0,7.3 6,-3.9 -0.9,3.8 c 0,2.1 -8.3,4.1 -18.6,4.1 -10.3,0 -18.6,-1.7 -18.6,-3.9 l -1.7,-6.6 5.7,0 0,7.3 11.4,-7.6 16.7,-0.5 z"
           id="path123"
           inkscape:connector-curvature="0"
           style="fill:#e05243" /></g></g></g></svg>