<?xml version="1.0" encoding="UTF-8" standalone="no"?>
<!-- Generator: Adobe Illustrator 19.1.0, SVG Export Plug-In . SVG Version: 6.00 Build 0)  -->

<svg
   xmlns:dc="http://purl.org/dc/elements/1.1/"
   xmlns:cc="http://creativecommons.org/ns#"
   xmlns:rdf="http://www.w3.org/1999/02/22-rdf-syntax-ns#"
   xmlns:svg="http://www.w3.org/2000/svg"
   xmlns="http://www.w3.org/2000/svg"
   xmlns:xlink="http://www.w3.org/1999/xlink"
   xmlns:sodipodi="http://sodipodi.sourceforge.net/DTD/sodipodi-0.dtd"
   xmlns:inkscape="http://www.inkscape.org/namespaces/inkscape"
   version="1.1"
   id="Layer_1"
   x="0px"
   y="0px"
   viewBox="0 0 100 100"
   style="enable-background:new 0 0 100 100;"
   xml:space="preserve"
   inkscape:version="0.91 r13725"
   sodipodi:docname="StorageContentDelivery_Snapshot.svg"><metadata
     id="metadata109"><rdf:RDF><cc:Work
         rdf:about=""><dc:format>image/svg+xml</dc:format><dc:type
           rdf:resource="http://purl.org/dc/dcmitype/StillImage" /></cc:Work></rdf:RDF></metadata><defs
     id="defs107" /><sodipodi:namedview
     pagecolor="#ffffff"
     bordercolor="#666666"
     borderopacity="1"
     objecttolerance="10"
     gridtolerance="10"
     guidetolerance="10"
     inkscape:pageopacity="0"
     inkscape:pageshadow="2"
     inkscape:window-width="1280"
     inkscape:window-height="985"
     id="namedview105"
     showgrid="false"
     inkscape:zoom="7.4579687"
     inkscape:cx="50.26817"
     inkscape:cy="50"
     inkscape:window-x="0"
     inkscape:window-y="0"
     inkscape:window-maximized="1"
     inkscape:current-layer="Layer_1" /><style
     type="text/css"
     id="style3">
	.st0{fill:none;}
	.st1{fill-rule:evenodd;clip-rule:evenodd;fill:#E05243;}
	.st2{fill:#E05243;}
	.st3{fill:#8C3123;}
	.st4{clip-path:url(#SVGID_2_);enable-background:new    ;}
	.st5{clip-path:url(#SVGID_4_);enable-background:new    ;}
</style><g
     id="g5"
     transform="matrix(1.5384615,0,0,1.5384615,-26.999998,-26.923075)"><path
       class="st0"
       d="M 56.6,44.3 C 60.6,44 64.3,43.6 67.4,42.9 64,43.6 60.2,44 56.6,44.3 Z"
       id="path7"
       inkscape:connector-curvature="0"
       style="fill:none" /><path
       class="st0"
       d="m 67.9,39.9 c -3,0.7 -6.7,1.2 -10.9,1.5 4.6,-0.4 8.2,-0.9 10.9,-1.5 z"
       id="path9"
       inkscape:connector-curvature="0"
       style="fill:none" /><path
       class="st0"
       d="m 49.9,41.6 c -6.5,0 -12.5,-0.6 -17.1,-1.5 4.3,0.9 10.1,1.5 17.1,1.5 z"
       id="path11"
       inkscape:connector-curvature="0"
       style="fill:none" /><path
       class="st0"
       d="m 50,44.5 c -15.5,-0.2 -25.3,-3 -26.5,-6 l 0,0.1 c 1.4,3.3 12.8,5.9 26.5,5.9 z"
       id="path13"
       inkscape:connector-curvature="0"
       style="fill:none" /><g
       id="g15"><g
         id="g17"><g
           id="g19"><polygon
             class="st1"
             points="36,24.1 35.5,24.1 35.5,28.9 64.5,28.9 64.5,24.1 64,24.1 64,24.3 36,24.3 "
             id="polygon21"
             style="clip-rule:evenodd;fill:#e05243;fill-rule:evenodd" /></g></g></g><polygon
       class="st2"
       points="64,20.5 61,17.5 39,17.5 36,20.5 "
       id="polygon23"
       style="fill:#e05243" /><rect
       x="36"
       y="20.5"
       class="st3"
       width="28"
       height="1.9"
       id="rect25"
       style="fill:#8c3123" /><rect
       x="63.799999"
       y="24.1"
       class="st3"
       width="0.69999999"
       height="4.8000002"
       id="rect27"
       style="fill:#8c3123" /><rect
       x="35.5"
       y="24.1"
       class="st3"
       width="0.69999999"
       height="4.8000002"
       id="rect29"
       style="fill:#8c3123" /><g
       id="g31"><g
         id="g33"><path
           class="st3"
           d="m 23.7,41.4 c -0.1,-0.2 -0.2,-0.5 -0.2,-0.7 l 0.2,0.7 z"
           id="path35"
           inkscape:connector-curvature="0"
           style="fill:#8c3123" /></g><g
         id="g37"><path
           class="st3"
           d="m 76.4,41.4 0.2,-0.7 c -0.1,0.2 -0.1,0.4 -0.2,0.7 z"
           id="path39"
           inkscape:connector-curvature="0"
           style="fill:#8c3123" /></g><g
         id="g41"><polygon
           class="st3"
           points="76.4,39.1 76.5,38.4 76.5,40.7 76.4,41.4 "
           id="polygon43"
           style="fill:#8c3123" /></g><g
         id="g45"><polygon
           class="st3"
           points="23.5,38.4 23.7,39.1 23.7,41.4 23.5,40.7 "
           id="polygon47"
           style="fill:#8c3123" /></g><g
         id="g49"><defs
           id="defs51"><path
             id="SVGID_1_"
             d="m 76.5,34.1 0,2.3 c 0,3.4 -11.9,6.2 -26.5,6.2 -14.6,0 -26.5,-2.8 -26.5,-6.2 l 0,-2.3 c 0,3.5 11.9,6.2 26.5,6.2 14.7,0 26.5,-2.7 26.5,-6.2 z"
             inkscape:connector-curvature="0" /></defs><use
           xlink:href="#SVGID_1_"
           style="overflow:visible;fill:#8c3123"
           id="use54"
           x="0"
           y="0"
           width="100%"
           height="100%" /><clipPath
           id="SVGID_2_"><use
             xlink:href="#SVGID_1_"
             style="overflow:visible"
             id="use57"
             x="0"
             y="0"
             width="100%"
             height="100%" /></clipPath><g
           class="st4"
           id="g59"
           clip-path="url(#SVGID_2_)"
           style="enable-background:new"><path
             class="st3"
             d="m 76.5,34.1 0,2.3 c 0,0.1 0,0.2 0,0.2 l 0,-2.3 c 0,0 0,-0.1 0,-0.2"
             id="path61"
             inkscape:connector-curvature="0"
             style="fill:#8c3123" /><path
             class="st3"
             d="m 76.5,34.3 0,2.3 c 0,0.1 0,0.2 -0.1,0.3 l 0,-2.3 c 0.1,-0.1 0.1,-0.2 0.1,-0.3"
             id="path63"
             inkscape:connector-curvature="0"
             style="fill:#8c3123" /><path
             class="st3"
             d="m 76.4,34.6 0,2.3 c 0,0.1 -0.1,0.3 -0.2,0.4 l 0,-2.3 c 0.1,-0.1 0.2,-0.2 0.2,-0.4"
             id="path65"
             inkscape:connector-curvature="0"
             style="fill:#8c3123" /><path
             class="st3"
             d="m 76.2,35 0,2.3 c -1.9,3 -12.9,5.3 -26.2,5.3 -14.6,0 -26.5,-2.8 -26.5,-6.2 l 0,-2.3 c 0,3.5 11.9,6.2 26.5,6.2 13.3,0 24.4,-2.3 26.2,-5.3"
             id="path67"
             inkscape:connector-curvature="0"
             style="fill:#8c3123" /></g></g><g
         id="g69"><path
           class="st2"
           d="m 50,27.9 c 14.6,0 26.5,2.8 26.5,6.2 0,3.5 -11.9,6.2 -26.5,6.2 -14.6,0 -26.5,-2.8 -26.5,-6.2 0,-3.4 11.9,-6.2 26.5,-6.2 z"
           id="path71"
           inkscape:connector-curvature="0"
           style="fill:#e05243" /></g><g
         id="g73"><polygon
           class="st3"
           points="67.7,76.1 76.4,39.1 76.4,41.4 67.7,78.4 "
           id="polygon75"
           style="fill:#8c3123" /></g><g
         id="g77"><polygon
           class="st3"
           points="23.7,39.1 32.4,76.1 32.4,78.4 23.7,41.4 "
           id="polygon79"
           style="fill:#8c3123" /></g><g
         id="g81"><defs
           id="defs83"><path
             id="SVGID_3_"
             d="m 67.7,76.1 0,2.2 c 0,2.3 -7.9,4.2 -17.7,4.2 -9.8,0 -17.7,-1.9 -17.7,-4.2 l 0,-2.2 c 0,2.3 7.9,4.1 17.7,4.1 9.8,0 17.7,-1.8 17.7,-4.1 z"
             inkscape:connector-curvature="0" /></defs><use
           xlink:href="#SVGID_3_"
           style="overflow:visible;fill:#8c3123"
           id="use86"
           x="0"
           y="0"
           width="100%"
           height="100%" /><clipPath
           id="SVGID_4_"><use
             xlink:href="#SVGID_3_"
             style="overflow:visible"
             id="use89"
             x="0"
             y="0"
             width="100%"
             height="100%" /></clipPath><g
           class="st5"
           id="g91"
           clip-path="url(#SVGID_4_)"
           style="enable-background:new"><path
             class="st3"
             d="m 67.7,76.1 0,2.2 c 0,0.1 0,0.1 0,0.2 l 0,-2.3 c 0,0 0,0 0,-0.1"
             id="path93"
             inkscape:connector-curvature="0"
             style="fill:#8c3123" /><path
             class="st3"
             d="m 67.7,76.3 0,2.3 c 0,0.1 0,0.1 0,0.2 l 0,-2.3 c 0,-0.1 0,-0.2 0,-0.2"
             id="path95"
             inkscape:connector-curvature="0"
             style="fill:#8c3123" /><path
             class="st3"
             d="m 67.6,76.5 0,2.3 c 0,0.1 -0.1,0.2 -0.1,0.3 l 0,-2.3 c 0.1,-0.2 0.1,-0.3 0.1,-0.3"
             id="path97"
             inkscape:connector-curvature="0"
             style="fill:#8c3123" /><path
             class="st3"
             d="m 67.5,76.7 0,2.3 c -1.3,2 -8.6,3.5 -17.5,3.5 -9.8,0 -17.7,-1.9 -17.7,-4.2 l 0,-2.2 c 0,2.3 7.9,4.1 17.7,4.1 8.9,0 16.3,-1.5 17.5,-3.5"
             id="path99"
             inkscape:connector-curvature="0"
             style="fill:#8c3123" /></g></g><g
         id="g101"><path
           class="st2"
           d="m 50,44.6 c 13.6,0 24.9,-2.4 26.3,-5.5 l -8.7,37 c 0,2.3 -7.9,4.1 -17.7,4.1 -9.8,0 -17.7,-1.8 -17.7,-4.1 l -8.7,-37 c 1.7,3.1 12.9,5.5 26.5,5.5 z"
           id="path103"
           inkscape:connector-curvature="0"
           style="fill:#e05243" /></g></g></g></svg>