<?xml version="1.0" encoding="UTF-8" standalone="no"?>
<!-- Generator: Adobe Illustrator 16.0.4, SVG Export Plug-In . SVG Version: 6.00 Build 0)  -->

<svg
   xmlns:dc="http://purl.org/dc/elements/1.1/"
   xmlns:cc="http://creativecommons.org/ns#"
   xmlns:rdf="http://www.w3.org/1999/02/22-rdf-syntax-ns#"
   xmlns:svg="http://www.w3.org/2000/svg"
   xmlns="http://www.w3.org/2000/svg"
   xmlns:sodipodi="http://sodipodi.sourceforge.net/DTD/sodipodi-0.dtd"
   xmlns:inkscape="http://www.inkscape.org/namespaces/inkscape"
   version="1.1"
   x="0px"
   y="0px"
   width="100px"
   height="100px"
   viewBox="0 0 100 100"
   enable-background="new 0 0 100 100"
   xml:space="preserve"
   id="svg2"
   inkscape:version="0.91 r13725"
   sodipodi:docname="ApplicationServices_AmazonSWF.svg"><metadata
     id="metadata30"><rdf:RDF><cc:Work
         rdf:about=""><dc:format>image/svg+xml</dc:format><dc:type
           rdf:resource="http://purl.org/dc/dcmitype/StillImage" /></cc:Work></rdf:RDF></metadata><defs
     id="defs28" /><sodipodi:namedview
     pagecolor="#ffffff"
     bordercolor="#666666"
     borderopacity="1"
     objecttolerance="10"
     gridtolerance="10"
     guidetolerance="10"
     inkscape:pageopacity="0"
     inkscape:pageshadow="2"
     inkscape:window-width="1280"
     inkscape:window-height="985"
     id="namedview26"
     showgrid="false"
     inkscape:zoom="7.4579687"
     inkscape:cx="50.26817"
     inkscape:cy="50"
     inkscape:window-x="0"
     inkscape:window-y="0"
     inkscape:window-maximized="1"
     inkscape:current-layer="svg2" /><g
     id="Amazon_CloudSearch"
     transform="matrix(1.3888889,0,0,1.3888889,-19.444445,-19.444445)"><g
       id="g5"><polygon
         points="45.765,34.104 45.765,65.797 76.015,72.85 76.015,27.008 "
         id="polygon7"
         style="fill:#876929" /><polygon
         points="71.448,24.725 71.448,75.277 65.874,78.062 65.874,21.938 "
         id="polygon9"
         style="fill:#d9a741" /><polygon
         points="79.823,28.912 79.823,71.088 76.015,72.994 76.015,27.008 "
         id="polygon11"
         style="fill:#d9a741" /><polygon
         points="65.874,21.938 45.765,28.359 45.765,71.697 65.874,78.137 "
         id="polygon13"
         style="fill:#876929" /><polygon
         points="32.212,62.639 23.987,63.797 49.886,71.566 58.921,68.863 "
         id="polygon15"
         style="fill:#fad791" /><polygon
         points="32.212,37.363 32.212,62.639 23.987,63.797 23.987,36.203 "
         id="polygon17"
         style="fill:#d9a741" /><polygon
         points="49.886,28.434 58.921,31.137 32.212,37.363 23.987,36.203 "
         id="polygon19"
         style="fill:#624a1e" /><polygon
         points="58.921,18.461 58.921,81.539 49.999,86 49.999,14 "
         id="polygon21"
         style="fill:#d9a741" /><path
         d="M 49.999,14 20.177,28.912 20.193,71.096 49.999,86 l 0,-72 z m -8.92,54.924 -17.092,-5.127 0,-27.594 17.092,-5.127 0,37.848 z"
         id="path23"
         inkscape:connector-curvature="0"
         style="fill:#876929" /></g></g><g
     id="nyt_x5F_exporter_x5F_info"
     display="none" /></svg>