<?xml version="1.0" encoding="UTF-8" standalone="no"?>
<!-- Generator: Adobe Illustrator 16.0.4, SVG Export Plug-In . SVG Version: 6.00 Build 0)  -->

<svg
   xmlns:dc="http://purl.org/dc/elements/1.1/"
   xmlns:cc="http://creativecommons.org/ns#"
   xmlns:rdf="http://www.w3.org/1999/02/22-rdf-syntax-ns#"
   xmlns:svg="http://www.w3.org/2000/svg"
   xmlns="http://www.w3.org/2000/svg"
   xmlns:sodipodi="http://sodipodi.sourceforge.net/DTD/sodipodi-0.dtd"
   xmlns:inkscape="http://www.inkscape.org/namespaces/inkscape"
   version="1.1"
   x="0px"
   y="0px"
   width="100px"
   height="100px"
   viewBox="0 0 100 100"
   enable-background="new 0 0 100 100"
   xml:space="preserve"
   id="svg2"
   inkscape:version="0.91 r13725"
   sodipodi:docname="ApplicationServices_AmazonSWF_Worker.svg"><metadata
     id="metadata24"><rdf:RDF><cc:Work
         rdf:about=""><dc:format>image/svg+xml</dc:format><dc:type
           rdf:resource="http://purl.org/dc/dcmitype/StillImage" /></cc:Work></rdf:RDF></metadata><defs
     id="defs22" /><sodipodi:namedview
     pagecolor="#ffffff"
     bordercolor="#666666"
     borderopacity="1"
     objecttolerance="10"
     gridtolerance="10"
     guidetolerance="10"
     inkscape:pageopacity="0"
     inkscape:pageshadow="2"
     inkscape:window-width="1280"
     inkscape:window-height="985"
     id="namedview20"
     showgrid="false"
     inkscape:zoom="7.4579687"
     inkscape:cx="50.26817"
     inkscape:cy="50"
     inkscape:window-x="0"
     inkscape:window-y="0"
     inkscape:window-maximized="1"
     inkscape:current-layer="svg2" /><g
     id="Amazon_CloudSearch"
     transform="matrix(1.7791061,0,0,1.7791061,-38.955305,-38.955306)"><g
       id="g5"><g
         id="g7"><rect
           x="23.121"
           y="21.896"
           width="53.757999"
           height="53.686001"
           id="rect9"
           style="fill:#d9a741" /></g><g
         id="g11"><rect
           x="23.121"
           y="75.581001"
           width="53.757999"
           height="2.523"
           id="rect13"
           style="fill:#876929" /></g><path
         d="m 73.07,53.663 0,-9.438 -3.604,0 C 68.962,42.34 67.9,39.766 66.392,37.539 l 2.533,-2.105 -5.506,-5.27 -2.641,2.619 c -2.248,-1.5 -4.463,-2.455 -7.689,-2.955 l 0,-4.1 -8.17,0 0,4.197 c -1.898,0.52 -4.535,1.504 -6.6,2.855 l -2.277,-2.41 -5.432,5.473 2.406,1.533 c -1.562,2.264 -2.635,4.963 -3.15,6.848 l -2.986,0 0,9.438 3.072,0 c 0.537,2.455 1.568,4.924 2.988,7.023 l -2.533,2.51 5.502,5.465 2.24,-2.523 c 2.107,1.408 4.871,2.424 6.77,2.959 l 0,3.254 8.17,0 0,-3.156 c 3.227,-0.512 5.566,-1.615 7.854,-3.174 l 2.703,2.629 5.529,-5.467 -2.689,-2.662 c 1.367,-2.061 2.371,-5.725 2.895,-6.855 l 3.738,-0.029 -0.049,0.027 z m -23.517,9.652 c -7.465,-0.057 -13.73,-6.232 -13.904,-13.596 -0.184,-7.834 6.668,-14.156 14.016,-14.17 7.891,-0.02 14.383,6.354 14.287,14.195 -0.097,7.564 -6.479,13.628 -14.399,13.571"
         id="path15"
         inkscape:connector-curvature="0"
         style="fill:#ffffff" /><path
         d="m 57.842,49.04 c 0,4.307 -3.514,7.795 -7.844,7.795 -4.33,0 -7.842,-3.488 -7.842,-7.795 0,-4.307 3.512,-7.793 7.842,-7.793 4.33,-0.002 7.844,3.486 7.844,7.793"
         id="path17"
         inkscape:connector-curvature="0"
         style="fill:#ffffff" /></g></g><g
     id="nyt_x5F_exporter_x5F_info"
     display="none" /></svg>