<?xml version="1.0" encoding="UTF-8" standalone="no"?>
<!-- Generator: Adobe Illustrator 16.0.4, SVG Export Plug-In . SVG Version: 6.00 Build 0)  -->

<svg
   xmlns:dc="http://purl.org/dc/elements/1.1/"
   xmlns:cc="http://creativecommons.org/ns#"
   xmlns:rdf="http://www.w3.org/1999/02/22-rdf-syntax-ns#"
   xmlns:svg="http://www.w3.org/2000/svg"
   xmlns="http://www.w3.org/2000/svg"
   xmlns:xlink="http://www.w3.org/1999/xlink"
   xmlns:sodipodi="http://sodipodi.sourceforge.net/DTD/sodipodi-0.dtd"
   xmlns:inkscape="http://www.inkscape.org/namespaces/inkscape"
   version="1.1"
   x="0px"
   y="0px"
   width="100px"
   height="100px"
   viewBox="0 0 100 100"
   enable-background="new 0 0 100 100"
   xml:space="preserve"
   id="svg2"
   inkscape:version="0.91 r13725"
   sodipodi:docname="ApplicationServices_AmazonSWF_Decider.svg"><metadata
     id="metadata58"><rdf:RDF><cc:Work
         rdf:about=""><dc:format>image/svg+xml</dc:format><dc:type
           rdf:resource="http://purl.org/dc/dcmitype/StillImage" /></cc:Work></rdf:RDF></metadata><defs
     id="defs56" /><sodipodi:namedview
     pagecolor="#ffffff"
     bordercolor="#666666"
     borderopacity="1"
     objecttolerance="10"
     gridtolerance="10"
     guidetolerance="10"
     inkscape:pageopacity="0"
     inkscape:pageshadow="2"
     inkscape:window-width="1280"
     inkscape:window-height="985"
     id="namedview54"
     showgrid="false"
     inkscape:zoom="7.4579687"
     inkscape:cx="50.26817"
     inkscape:cy="50"
     inkscape:window-x="0"
     inkscape:window-y="0"
     inkscape:window-maximized="1"
     inkscape:current-layer="svg2" /><g
     id="Amazon_CloudSearch"
     transform="matrix(1.7427068,0,0,1.7427068,-37.13534,-37.13534)"><g
       id="g5"><g
         id="g7"><path
           d="m 50.007,21.309 c 15.234,0 27.574,12.264 27.574,27.387 0,15.119 -12.34,27.381 -27.574,27.381 -15.244,0 -27.588,-12.262 -27.588,-27.381 0,-15.124 12.344,-27.387 27.588,-27.387 z"
           id="path9"
           inkscape:connector-curvature="0"
           style="fill:#d9a741" /></g><g
         id="g11"><defs
           id="defs13"><path
             id="SVGID_19_"
             d="m 77.581,48.695 0,2.611 c 0,15.123 -12.34,27.385 -27.574,27.385 -15.244,0 -27.588,-12.262 -27.588,-27.385 l 0,-2.611 c 0,15.119 12.344,27.381 27.588,27.381 15.234,0 27.574,-12.262 27.574,-27.381 z"
             inkscape:connector-curvature="0" /></defs><use
           xlink:href="#SVGID_19_"
           overflow="visible"
           id="use16"
           style="overflow:visible;fill:#876929"
           x="0"
           y="0"
           width="100%"
           height="100%" /><clipPath
           id="SVGID_2_"><use
             xlink:href="#SVGID_19_"
             overflow="visible"
             id="use19"
             style="overflow:visible"
             x="0"
             y="0"
             width="100%"
             height="100%" /></clipPath><g
           clip-path="url(#SVGID_2_)"
           enable-background="new    "
           id="g21"><path
             d="m 77.581,48.695 0,2.611 c 0,1.332 -0.094,2.639 -0.277,3.916 l 0,-2.613 c 0.183,-1.279 0.277,-2.588 0.277,-3.914"
             id="path23"
             inkscape:connector-curvature="0"
             style="fill:#876929" /><path
             d="m 77.304,52.609 0,2.613 c -0.219,1.516 -0.562,2.992 -1.021,4.416 l 0,-2.615 c 0.458,-1.423 0.802,-2.898 1.021,-4.414"
             id="path25"
             inkscape:connector-curvature="0"
             style="fill:#876929" /><path
             d="m 76.282,57.023 0,2.615 c -0.539,1.684 -1.238,3.293 -2.078,4.814 l 0,-2.612 c 0.84,-1.524 1.539,-3.133 2.078,-4.817"
             id="path27"
             inkscape:connector-curvature="0"
             style="fill:#876929" /><path
             d="m 74.204,61.84 0,2.613 C 69.52,72.939 60.442,78.691 50.007,78.691 34.763,78.691 22.419,66.429 22.419,51.306 l 0,-2.611 c 0,15.119 12.344,27.381 27.588,27.381 10.435,0 19.514,-5.754 24.197,-14.236"
             id="path29"
             inkscape:connector-curvature="0"
             style="fill:#876929" /></g></g><rect
         x="39.994999"
         y="31.868999"
         width="1.4859999"
         height="12.469"
         id="rect31"
         style="fill:#ffffff" /><rect
         x="39.994999"
         y="50.227001"
         width="1.4859999"
         height="12.469"
         id="rect33"
         style="fill:#ffffff" /><polygon
         points="40.515,48.193 40.515,46.715 60.788,46.715 60.788,63.734 59.3,63.734 59.3,48.193 "
         id="polygon35"
         style="fill:#ffffff" /><polygon
         points="32.058,47.201 40.583,54.129 49.497,47.588 40.583,41.047 "
         id="polygon37"
         style="fill:#d9a741" /><path
         d="m 40.562,55.064 -9.721,-7.896 9.748,-7.041 10.156,7.461 -10.183,7.476 z m -7.288,-7.828 7.332,5.959 7.637,-5.607 -7.662,-5.629 -7.307,5.277 z"
         id="path39"
         inkscape:connector-curvature="0"
         style="fill:#ffffff" /><rect
         x="54.247002"
         y="59.609001"
         width="12.061"
         height="7.1149998"
         id="rect41"
         style="fill:#d9a741" /><path
         d="m 67.05,67.461 -13.547,0 0,-8.59 13.547,0 0,8.59 z m -12.059,-7.115 0,5.641 10.57,0 0,-5.641"
         id="path43"
         inkscape:connector-curvature="0"
         style="fill:#ffffff" /><rect
         x="34.825001"
         y="28.992001"
         width="12.061"
         height="7.1170001"
         id="rect45"
         style="fill:#d9a741" /><path
         d="m 47.63,36.848 -13.549,0 0,-8.59 13.549,0 0,8.59 z m -12.063,-1.479 10.573,0 0,-5.635 -10.573,0 0,5.635 z"
         id="path47"
         inkscape:connector-curvature="0"
         style="fill:#ffffff" /><rect
         x="34.709999"
         y="59.609001"
         width="12.059"
         height="7.1149998"
         id="rect49"
         style="fill:#d9a741" /><path
         d="m 47.511,67.461 -13.547,0 0,-8.59 13.547,0 0,8.59 z m -12.059,-1.475 10.574,0 0,-5.641 -10.574,0 0,5.641 z"
         id="path51"
         inkscape:connector-curvature="0"
         style="fill:#ffffff" /></g></g><g
     id="nyt_x5F_exporter_x5F_info"
     display="none" /></svg>