<?xml version="1.0" encoding="UTF-8" standalone="no"?>
<!-- Generator: Adobe Illustrator 19.1.0, SVG Export Plug-In . SVG Version: 6.00 Build 0)  -->

<svg
   xmlns:dc="http://purl.org/dc/elements/1.1/"
   xmlns:cc="http://creativecommons.org/ns#"
   xmlns:rdf="http://www.w3.org/1999/02/22-rdf-syntax-ns#"
   xmlns:svg="http://www.w3.org/2000/svg"
   xmlns="http://www.w3.org/2000/svg"
   xmlns:sodipodi="http://sodipodi.sourceforge.net/DTD/sodipodi-0.dtd"
   xmlns:inkscape="http://www.inkscape.org/namespaces/inkscape"
   version="1.1"
   id="Layer_1"
   x="0px"
   y="0px"
   viewBox="-255 347 100 100"
   style="enable-background:new -255 347 100 100;"
   xml:space="preserve"
   inkscape:version="0.91 r13725"
   sodipodi:docname="Compute_ElasticBeanstalk_Application.svg"><metadata
     id="metadata48"><rdf:RDF><cc:Work
         rdf:about=""><dc:format>image/svg+xml</dc:format><dc:type
           rdf:resource="http://purl.org/dc/dcmitype/StillImage" /></cc:Work></rdf:RDF></metadata><defs
     id="defs46" /><sodipodi:namedview
     pagecolor="#ffffff"
     bordercolor="#666666"
     borderopacity="1"
     objecttolerance="10"
     gridtolerance="10"
     guidetolerance="10"
     inkscape:pageopacity="0"
     inkscape:pageshadow="2"
     inkscape:window-width="1280"
     inkscape:window-height="985"
     id="namedview44"
     showgrid="false"
     inkscape:zoom="7.4579687"
     inkscape:cx="50.26817"
     inkscape:cy="50"
     inkscape:window-x="0"
     inkscape:window-y="0"
     inkscape:window-maximized="1"
     inkscape:current-layer="Layer_1" /><style
     type="text/css"
     id="style3">
	.st0{fill:#6B3A19;}
	.st1{fill:#F58536;}
	.st2{display:none;}
</style><g
     id="Layer_1_1_"
     transform="matrix(1.7482519,0,0,1.7482519,153.39164,-297.056)"><g
       id="g6"><g
         id="g8"><g
           id="g10"><path
             class="st0"
             d="m -191.1,368.4 0,2.7 c -8.8,14.2 -25.4,20.2 -25.6,20.3 -0.1,0 -0.2,0.2 -0.3,0.4 l 0,-2.7 c 0.1,-0.2 0.2,-0.3 0.3,-0.4 0.2,0 16.8,-6.1 25.6,-20.3"
             id="path12"
             inkscape:connector-curvature="0"
             style="fill:#6b3a19" /><path
             class="st0"
             d="m -217,389.1 0,2.7 c -0.1,0.2 -0.2,0.4 -0.2,0.6 l 0,-2.7 c 0,-0.3 0.1,-0.5 0.2,-0.6"
             id="path14"
             inkscape:connector-curvature="0"
             style="fill:#6b3a19" /><path
             class="st0"
             d="m -217.3,389.6 0,2.7 c -0.1,0.3 -0.2,0.6 -0.2,0.9 l 0,-2.7 c 0.1,-0.3 0.1,-0.6 0.2,-0.9"
             id="path16"
             inkscape:connector-curvature="0"
             style="fill:#6b3a19" /><path
             class="st0"
             d="m -217.5,390.5 0,2.7 c 0,0.2 0,0.4 0,0.5 l 0,-2.7 c 0,-0.2 0,-0.3 0,-0.5"
             id="path18"
             inkscape:connector-curvature="0"
             style="fill:#6b3a19" /></g><path
           class="st0"
           d="m -217.5,393.7 0,-2.7 c 0,-0.8 0.4,-2.1 0.8,-2.3 0.2,-0.1 16.8,-6.1 25.6,-20.3 l 0,2.7 c -8.8,14.2 -25.4,20.2 -25.6,20.3 -0.4,0.1 -0.8,1.5 -0.8,2.3 z"
           id="path20"
           inkscape:connector-curvature="0"
           style="fill:#6b3a19" /><g
           id="g22"><path
             class="st0"
             d="m -189.7,371.6 0,2.7 c -0.1,1.5 -0.3,3.2 -0.6,4.9 l 0,-2.7 c 0.2,-1.7 0.4,-3.4 0.6,-4.9"
             id="path24"
             inkscape:connector-curvature="0"
             style="fill:#6b3a19" /><path
             class="st0"
             d="m -190.3,376.5 0,2.7 c -0.4,2.7 -1,5.5 -1.8,7.8 l 0,-2.7 c 0.8,-2.3 1.4,-5.1 1.8,-7.8"
             id="path26"
             inkscape:connector-curvature="0"
             style="fill:#6b3a19" /><path
             class="st0"
             d="m -192.1,384.3 0,2.7 c -0.4,1.2 -0.8,2.2 -1.3,3.1 l 0,-2.7 c 0.5,-0.9 0.9,-1.9 1.3,-3.1"
             id="path28"
             inkscape:connector-curvature="0"
             style="fill:#6b3a19" /><path
             class="st0"
             d="m -193.4,387.4 0,2.7 c -0.3,0.6 -0.7,1.1 -1.1,1.6 -2.7,2.6 -9.7,4.1 -17.3,4.7 l 0,-2.7 c 7.6,-0.6 14.6,-2 17.3,-4.7 0.4,-0.5 0.7,-1 1.1,-1.6"
             id="path30"
             inkscape:connector-curvature="0"
             style="fill:#6b3a19" /></g><path
           class="st0"
           d="m -189.7,371.6 0,2.7 c -0.6,6 -1.9,14.5 -4.8,17.4 -2.7,2.6 -9.7,4.1 -17.3,4.7 l 0,-2.7 c 7.6,-0.6 14.6,-2 17.3,-4.7 2.8,-2.9 4.2,-11.4 4.8,-17.4 z"
           id="path32"
           inkscape:connector-curvature="0"
           style="fill:#6b3a19" /><g
           id="g34"><path
             class="st1"
             d="m -215.7,392.5 c 0.7,-0.2 16.7,-5.8 26,-20.9 -0.6,6 -1.9,14.5 -4.8,17.3 -2.7,2.6 -9.7,4.1 -17.3,4.7 l 0,29.3 -8.5,0 0,-29.2 c 0.6,-6.7 1.1,-12.1 6.9,-17.3 4.1,-3.7 15.3,-7 22.3,-7.9 -8.8,14.2 -25.4,20.2 -25.6,20.3 -0.5,0.2 -1,2.1 -0.8,2.6 0.1,0.4 1,1.2 1.4,1.2 0.2,-0.1 0.3,-0.1 0.4,-0.1 z"
             id="path36"
             inkscape:connector-curvature="0"
             style="fill:#f58536" /></g><g
           id="g38"><rect
             x="-220.3"
             y="422.89999"
             class="st0"
             width="8.5"
             height="2.7"
             id="rect40"
             style="fill:#6b3a19" /></g></g></g></g><g
     id="nyt_x5F_exporter_x5F_info"
     class="st2" /><g
     id="CloudTrail"
     transform="matrix(1.7482519,0,0,1.7482519,164.8399,-318.45602)" /></svg>