<?xml version="1.0" encoding="UTF-8" standalone="no"?>
<!-- Generator: Adobe Illustrator 19.1.0, SVG Export Plug-In . SVG Version: 6.00 Build 0)  -->

<svg
   xmlns:dc="http://purl.org/dc/elements/1.1/"
   xmlns:cc="http://creativecommons.org/ns#"
   xmlns:rdf="http://www.w3.org/1999/02/22-rdf-syntax-ns#"
   xmlns:svg="http://www.w3.org/2000/svg"
   xmlns="http://www.w3.org/2000/svg"
   xmlns:sodipodi="http://sodipodi.sourceforge.net/DTD/sodipodi-0.dtd"
   xmlns:inkscape="http://www.inkscape.org/namespaces/inkscape"
   version="1.1"
   id="Layer_1"
   x="0px"
   y="0px"
   viewBox="-255 347 100 100"
   style="enable-background:new -255 347 100 100;"
   xml:space="preserve"
   inkscape:version="0.91 r13725"
   sodipodi:docname="Compute_ElasticBeanstalk_Deployment.svg"><metadata
     id="metadata63"><rdf:RDF><cc:Work
         rdf:about=""><dc:format>image/svg+xml</dc:format><dc:type
           rdf:resource="http://purl.org/dc/dcmitype/StillImage" /></cc:Work></rdf:RDF></metadata><defs
     id="defs61" /><sodipodi:namedview
     pagecolor="#ffffff"
     bordercolor="#666666"
     borderopacity="1"
     objecttolerance="10"
     gridtolerance="10"
     guidetolerance="10"
     inkscape:pageopacity="0"
     inkscape:pageshadow="2"
     inkscape:window-width="1280"
     inkscape:window-height="985"
     id="namedview59"
     showgrid="false"
     inkscape:zoom="7.4579687"
     inkscape:cx="50.26817"
     inkscape:cy="50"
     inkscape:window-x="0"
     inkscape:window-y="0"
     inkscape:window-maximized="1"
     inkscape:current-layer="Layer_1" /><style
     type="text/css"
     id="style3">
	.st0{fill:#6B3A19;}
	.st1{fill:#F58536;}
	.st2{fill:#FFFFFF;}
	.st3{display:none;}
</style><g
     id="g5"
     transform="matrix(1.5243901,0,0,1.5243901,107.57619,-208.18287)"><g
       id="g7"><path
         class="st0"
         d="m -181.8,372.2 0,2.7 c -8.8,14.2 -25.4,20.2 -25.6,20.3 -0.1,0 -0.2,0.2 -0.3,0.4 l 0,-2.7 c 0.1,-0.2 0.2,-0.3 0.3,-0.4 0.1,0 16.8,-6.1 25.6,-20.3"
         id="path9"
         inkscape:connector-curvature="0"
         style="fill:#6b3a19" /><path
         class="st0"
         d="m -207.8,392.9 0,2.7 c -0.1,0.2 -0.2,0.3 -0.2,0.6 l 0,-2.7 c 0.1,-0.3 0.1,-0.5 0.2,-0.6"
         id="path11"
         inkscape:connector-curvature="0"
         style="fill:#6b3a19" /><path
         class="st0"
         d="m -207.9,393.4 0,2.7 c -0.1,0.3 -0.2,0.6 -0.2,0.9 l 0,-2.7 c 0,-0.3 0.1,-0.6 0.2,-0.9"
         id="path13"
         inkscape:connector-curvature="0"
         style="fill:#6b3a19" /><path
         class="st0"
         d="m -208.1,394.3 0,2.7 c 0,0.2 0,0.4 0,0.5 l 0,-2.7 c -0.2,-0.2 -0.2,-0.3 0,-0.5"
         id="path15"
         inkscape:connector-curvature="0"
         style="fill:#6b3a19" /></g><path
       class="st0"
       d="m -208.3,397.5 0,-2.7 c 0,-0.8 0.4,-2.1 0.8,-2.3 0.2,-0.1 16.8,-6.1 25.6,-20.3 l 0,2.7 c -8.8,14.2 -25.4,20.2 -25.6,20.3 -0.4,0.1 -0.8,1.5 -0.8,2.3 z"
       id="path17"
       inkscape:connector-curvature="0"
       style="fill:#6b3a19" /><g
       id="g19"><path
         class="st0"
         d="m -180.4,375.4 0,2.6 c -0.1,1.5 -0.3,3.2 -0.6,4.9 l 0,-2.7 c 0.2,-1.6 0.5,-3.3 0.6,-4.8"
         id="path21"
         inkscape:connector-curvature="0"
         style="fill:#6b3a19" /><path
         class="st0"
         d="m -180.9,380.3 0,2.7 c -0.4,2.7 -1,5.5 -1.8,7.8 l 0,-2.7 c 0.8,-2.3 1.3,-5.1 1.8,-7.8"
         id="path23"
         inkscape:connector-curvature="0"
         style="fill:#6b3a19" /><path
         class="st0"
         d="m -182.8,388.1 0,2.7 c -0.4,1.2 -0.8,2.2 -1.3,3.1 l 0,-2.7 c 0.6,-0.9 1,-1.9 1.3,-3.1"
         id="path25"
         inkscape:connector-curvature="0"
         style="fill:#6b3a19" /><path
         class="st0"
         d="m -184,391.2 0,2.7 c -0.3,0.6 -0.7,1.1 -1.1,1.6 -2.7,2.6 -9.7,4.1 -17.3,4.7 l 0,-2.7 c 7.6,-0.6 14.6,-2 17.3,-4.7 0.3,-0.5 0.7,-1 1.1,-1.6"
         id="path27"
         inkscape:connector-curvature="0"
         style="fill:#6b3a19" /></g><path
       class="st0"
       d="m -180.4,375.4 0,2.6 c -0.6,6 -1.9,14.5 -4.8,17.4 -2.7,2.6 -9.7,4.1 -17.3,4.7 l 0,-2.7 c 7.6,-0.6 14.6,-2 17.3,-4.7 2.8,-2.9 4.3,-11.4 4.8,-17.3 z"
       id="path29"
       inkscape:connector-curvature="0"
       style="fill:#6b3a19" /><g
       id="g31"><rect
         x="-211.39999"
         y="427.10001"
         class="st0"
         width="9"
         height="2.7"
         id="rect33"
         style="fill:#6b3a19" /></g><g
       id="g35"><path
         class="st0"
         d="m -204.1,376.9 0,1.1 c 0,0.6 0,1.3 -0.1,1.9 l 0,-1.1 c -0.1,-0.6 0.1,-1.2 0.1,-1.9"
         id="path37"
         inkscape:connector-curvature="0"
         style="fill:#6b3a19" /><path
         class="st0"
         d="m -204.4,378.8 0,1.2 c -0.1,0.7 -0.3,1.4 -0.5,2.1 l 0,-1.1 c 0.3,-0.8 0.5,-1.5 0.5,-2.2"
         id="path39"
         inkscape:connector-curvature="0"
         style="fill:#6b3a19" /><path
         class="st0"
         d="m -204.9,380.9 0,1.1 c -0.3,0.8 -0.6,1.6 -1,2.3 l 0,-1.1 c 0.5,-0.7 0.8,-1.5 1,-2.3"
         id="path41"
         inkscape:connector-curvature="0"
         style="fill:#6b3a19" /><path
         class="st0"
         d="m -205.9,383.2 0,1.1 c -2.2,3.8 -6.3,6.4 -11.1,6.4 -7,0 -12.8,-5.7 -12.8,-12.7 l 0,-1.1 c 0,7 5.7,12.7 12.8,12.7 4.9,0 9,-2.6 11.1,-6.4"
         id="path43"
         inkscape:connector-curvature="0"
         style="fill:#6b3a19" /></g><path
       class="st0"
       d="m -204.1,376.9 0,1.1 c 0,7 -5.7,12.7 -12.8,12.7 -7.1,0 -12.8,-5.7 -12.8,-12.7 l 0,-1.1 c 0,7 5.7,12.7 12.8,12.7 7.1,0 12.8,-5.7 12.8,-12.7 z"
       id="path45"
       inkscape:connector-curvature="0"
       style="fill:#6b3a19" /><g
       id="g47"><path
         class="st1"
         d="m -216.9,389.6 c -7,0 -12.8,-5.7 -12.8,-12.7 0,-7 5.7,-12.7 12.8,-12.7 7.1,0 12.8,5.7 12.8,12.7 0,7 -5.8,12.7 -12.8,12.7 z"
         id="path49"
         inkscape:connector-curvature="0"
         style="fill:#f58536" /></g><g
       id="g51"><path
         class="st2"
         d="m -220.3,386.7 6.6,0 0,-12.6 4.7,0 -8,-7.9 -8,7.9 4.7,0 0,12.6 z m -2.5,-13.5 5.8,-5.7 5.8,5.7 -3.4,0 0,12.6 -4.8,0 0,-12.6 c 0,0 -3.4,0 -3.4,0 z"
         id="path53"
         inkscape:connector-curvature="0"
         style="fill:#ffffff" /></g><path
       class="st1"
       d="m -206.4,396.3 c -0.1,0.1 -0.2,0.1 -0.3,0.1 -0.4,0 -1.3,-0.8 -1.4,-1.2 -0.2,-0.5 0.3,-2.4 0.8,-2.6 0.2,-0.1 16.8,-6.1 25.6,-20.3 -6,0.8 -15.1,3.4 -20.2,6.4 0,0.3 0,0.6 0,0.9 0,5.4 -3.5,10.1 -8.3,11.9 -0.4,1.9 0.2,3.9 -0.8,6.1 l 0,29.4 9,0 0,-29.6 c 7,-0.6 14.4,-2 17,-4.7 2.9,-2.9 4.1,-11.4 4.7,-17.3 -9.2,15.1 -25.3,20.6 -26.1,20.9 z"
       id="path55"
       inkscape:connector-curvature="0"
       style="fill:#f58536" /></g><g
     id="nyt_x5F_exporter_x5F_info"
     class="st3" /><g
     id="CloudTrail"
     transform="matrix(1.5243901,0,0,1.5243901,120.50485,-225.38287)" /></svg>