<?xml version="1.0" encoding="UTF-8" standalone="no"?>
<!-- Generator: Adobe Illustrator 19.1.0, SVG Export Plug-In . SVG Version: 6.00 Build 0)  -->

<svg
   xmlns:dc="http://purl.org/dc/elements/1.1/"
   xmlns:cc="http://creativecommons.org/ns#"
   xmlns:rdf="http://www.w3.org/1999/02/22-rdf-syntax-ns#"
   xmlns:svg="http://www.w3.org/2000/svg"
   xmlns="http://www.w3.org/2000/svg"
   xmlns:sodipodi="http://sodipodi.sourceforge.net/DTD/sodipodi-0.dtd"
   xmlns:inkscape="http://www.inkscape.org/namespaces/inkscape"
   version="1.1"
   id="Layer_1"
   x="0px"
   y="0px"
   viewBox="0 0 100 100"
   style="enable-background:new 0 0 100 100;"
   xml:space="preserve"
   inkscape:version="0.91 r13725"
   sodipodi:docname="Compute_Elastic Beanstalk.svg"><metadata
     id="metadata29"><rdf:RDF><cc:Work
         rdf:about=""><dc:format>image/svg+xml</dc:format><dc:type
           rdf:resource="http://purl.org/dc/dcmitype/StillImage" /></cc:Work></rdf:RDF></metadata><defs
     id="defs27" /><sodipodi:namedview
     pagecolor="#ffffff"
     bordercolor="#666666"
     borderopacity="1"
     objecttolerance="10"
     gridtolerance="10"
     guidetolerance="10"
     inkscape:pageopacity="0"
     inkscape:pageshadow="2"
     inkscape:window-width="1280"
     inkscape:window-height="985"
     id="namedview25"
     showgrid="false"
     inkscape:zoom="7.4579687"
     inkscape:cx="50.26817"
     inkscape:cy="50"
     inkscape:window-x="0"
     inkscape:window-y="0"
     inkscape:window-maximized="1"
     inkscape:current-layer="Layer_1" /><style
     type="text/css"
     id="style3">
	.st0{fill:#F58435;}
	.st1{fill:#9D5025;}
	.st2{fill:#6B3B19;}
	.st3{fill:#FBBF92;}
</style><g
     id="g3357"
     transform="matrix(1.2135922,0,0,1.2135922,-10.67961,-10.67961)"><polygon
       id="polygon5"
       points="60.2,86.1 60.2,50 50,50 50,91.2 "
       class="st0"
       style="fill:#f58435" /><polygon
       id="polygon7"
       points="74.5,38.4 74.5,21.1 79.7,23.7 79.7,39.5 "
       class="st0"
       style="fill:#f58435" /><polygon
       id="polygon9"
       points="64.4,50 64.4,16 50,8.8 50,50 "
       class="st0"
       style="fill:#f58435" /><polygon
       id="polygon11"
       points="55.5,26.2 55.5,40.5 74.5,38.4 74.5,21.1 "
       class="st1"
       style="fill:#9d5025" /><polygon
       id="polygon13"
       points="74.3,38.4 79.7,39.5 61.5,41.2 55.5,40.5 "
       class="st2"
       style="fill:#6b3b19" /><polygon
       id="polygon15"
       points="39.8,13.9 39.8,50 50,50 50,8.8 "
       class="st1"
       style="fill:#9d5025" /><polygon
       id="polygon17"
       points="25.5,61.6 25.5,78.9 20.3,76.3 20.3,60.5 "
       class="st1"
       style="fill:#9d5025" /><polygon
       id="polygon19"
       points="35.6,50 35.6,84 50,91.2 50,50 "
       class="st1"
       style="fill:#9d5025" /><polygon
       id="polygon21"
       points="44.5,73.8 44.5,59.5 25.5,61.6 25.5,78.9 "
       class="st0"
       style="fill:#f58435" /><polygon
       id="polygon23"
       points="25.7,61.6 20.3,60.5 38.5,58.8 44.5,59.5 "
       class="st3"
       style="fill:#fbbf92" /></g></svg>