<?xml version="1.0" encoding="UTF-8" standalone="no"?>
<!-- Generator: Adobe Illustrator 19.1.0, SVG Export Plug-In . SVG Version: 6.00 Build 0)  -->

<svg
   xmlns:dc="http://purl.org/dc/elements/1.1/"
   xmlns:cc="http://creativecommons.org/ns#"
   xmlns:rdf="http://www.w3.org/1999/02/22-rdf-syntax-ns#"
   xmlns:svg="http://www.w3.org/2000/svg"
   xmlns="http://www.w3.org/2000/svg"
   xmlns:sodipodi="http://sodipodi.sourceforge.net/DTD/sodipodi-0.dtd"
   xmlns:inkscape="http://www.inkscape.org/namespaces/inkscape"
   version="1.1"
   id="Layer_1"
   x="0px"
   y="0px"
   viewBox="0 0 100 100"
   style="enable-background:new 0 0 100 100;"
   xml:space="preserve"
   inkscape:version="0.91 r13725"
   sodipodi:docname="ManagementTools_OpsWorks_Permissions.svg"><metadata
     id="metadata21"><rdf:RDF><cc:Work
         rdf:about=""><dc:format>image/svg+xml</dc:format><dc:type
           rdf:resource="http://purl.org/dc/dcmitype/StillImage" /></cc:Work></rdf:RDF></metadata><defs
     id="defs19" /><sodipodi:namedview
     pagecolor="#ffffff"
     bordercolor="#666666"
     borderopacity="1"
     objecttolerance="10"
     gridtolerance="10"
     guidetolerance="10"
     inkscape:pageopacity="0"
     inkscape:pageshadow="2"
     inkscape:window-width="1280"
     inkscape:window-height="985"
     id="namedview17"
     showgrid="false"
     inkscape:zoom="7.4579687"
     inkscape:cx="50.26817"
     inkscape:cy="50"
     inkscape:window-x="0"
     inkscape:window-y="0"
     inkscape:window-maximized="1"
     inkscape:current-layer="Layer_1" /><style
     type="text/css"
     id="style3">
	.st0{display:none;}
	.st1{fill:#4B612C;}
	.st2{fill:#759C3E;}
</style><g
     id="Layer_1_1_"
     transform="matrix(1.3869626,0,0,1.3869626,-8.8227462,-32.775728)" /><g
     id="nyt_x5F_exporter_x5F_info"
     class="st0" /><g
     id="CloudTrail"
     transform="matrix(1.3869626,0,0,1.3869626,-22.884885,-17.47573)"><g
       id="Permissions"><g
         id="g9"><path
           class="st1"
           d="m 73.9,46.4 0,-17 c 0,-7 -5.7,-12.8 -12.8,-12.8 l -17,0 c -7,0 -12.8,5.7 -12.8,12.8 l 0,17 -8.5,0 0,38.3 59.5,0 0,-38.3 -8.4,0 z m -8.5,0 -25.5,0 0,-13.6 c 0,-4.2 3.4,-7.7 7.7,-7.7 l 10.2,0 c 4.2,0 7.7,3.4 7.7,7.7 l -0.1,13.6 0,0 z"
           id="path11"
           inkscape:connector-curvature="0"
           style="fill:#4b612c" /></g><g
         id="g13"><path
           class="st2"
           d="m 73.9,42.4 0,-17 c 0,-7 -5.7,-12.8 -12.8,-12.8 l -17,0 c -7,0 -12.8,5.7 -12.8,12.8 l 0,17 -8.5,0 0,38.3 59.5,0 0,-38.3 -8.4,0 z m -8.5,0 -25.5,0 0,-13.6 c 0,-4.2 3.4,-7.7 7.7,-7.7 l 10.2,0 c 4.2,0 7.7,3.4 7.7,7.7 l -0.1,13.6 0,0 z"
           id="path15"
           inkscape:connector-curvature="0"
           style="fill:#759c3e" /></g></g></g></svg>