<?xml version="1.0" encoding="UTF-8" standalone="no"?>
<!-- Generator: Adobe Illustrator 19.1.0, SVG Export Plug-In . SVG Version: 6.00 Build 0)  -->

<svg
   xmlns:dc="http://purl.org/dc/elements/1.1/"
   xmlns:cc="http://creativecommons.org/ns#"
   xmlns:rdf="http://www.w3.org/1999/02/22-rdf-syntax-ns#"
   xmlns:svg="http://www.w3.org/2000/svg"
   xmlns="http://www.w3.org/2000/svg"
   xmlns:sodipodi="http://sodipodi.sourceforge.net/DTD/sodipodi-0.dtd"
   xmlns:inkscape="http://www.inkscape.org/namespaces/inkscape"
   version="1.1"
   id="Layer_1"
   x="0px"
   y="0px"
   viewBox="0 0 100 100"
   style="enable-background:new 0 0 100 100;"
   xml:space="preserve"
   inkscape:version="0.91 r13725"
   sodipodi:docname="ManagementTools_OpsWorks.svg"><metadata
     id="metadata832"><rdf:RDF><cc:Work
         rdf:about=""><dc:format>image/svg+xml</dc:format><dc:type
           rdf:resource="http://purl.org/dc/dcmitype/StillImage" /></cc:Work></rdf:RDF></metadata><defs
     id="defs830" /><sodipodi:namedview
     pagecolor="#ffffff"
     bordercolor="#666666"
     borderopacity="1"
     objecttolerance="10"
     gridtolerance="10"
     guidetolerance="10"
     inkscape:pageopacity="0"
     inkscape:pageshadow="2"
     inkscape:window-width="1280"
     inkscape:window-height="985"
     id="namedview828"
     showgrid="false"
     inkscape:zoom="7.4579687"
     inkscape:cx="50.26817"
     inkscape:cy="50"
     inkscape:window-x="0"
     inkscape:window-y="0"
     inkscape:window-maximized="1"
     inkscape:current-layer="Layer_1" /><style
     type="text/css"
     id="style3">
	.st0{fill:#4B612C;}
	.st1{fill:#759C3E;}
	.st2{display:none;}
	.st3{display:inline;}
	.st4{font-family:'MyriadPro-Regular';}
	.st5{font-size:12px;}
</style><g
     id="Layer_1_1_"
     transform="matrix(1.3888889,0,0,1.3888889,-19.444445,-19.444445)"><polygon
       class="st0"
       points="61.8,72.7 71.5,75.3 79.9,67.6 79.9,50 61.8,50 "
       id="polygon6"
       style="fill:#4b612c" /><polygon
       class="st0"
       points="50,30.5 50,64.7 71.4,69 71.4,24.7 "
       id="polygon8"
       style="fill:#4b612c" /><polygon
       class="st1"
       points="50,50 50,14 65.7,21.9 "
       id="polygon10"
       style="fill:#759c3e" /><polygon
       class="st1"
       points="79.9,50 79.9,71.1 71.5,75.3 "
       id="polygon12"
       style="fill:#759c3e" /><polygon
       class="st1"
       points="50,64.7 50,86 65.8,78.1 79.9,37.5 79.9,28.9 71.4,24.7 "
       id="polygon14"
       style="fill:#759c3e" /><polygon
       class="st1"
       points="38.2,72.7 28.5,75.3 20.1,67.6 20.1,50 38.2,50 "
       id="polygon16"
       style="fill:#759c3e" /><polygon
       class="st1"
       points="50,30.5 50,64.7 28.6,69 28.6,24.7 "
       id="polygon18"
       style="fill:#759c3e" /><polygon
       class="st0"
       points="50,50 50,14 34.3,21.9 "
       id="polygon20"
       style="fill:#4b612c" /><polygon
       class="st0"
       points="20.1,50 20.1,71.1 28.5,75.3 "
       id="polygon22"
       style="fill:#4b612c" /><polygon
       class="st0"
       points="50,64.7 50,86 34.2,78.1 20.1,37.5 20.1,28.9 28.6,24.7 "
       id="polygon24"
       style="fill:#4b612c" /></g><g
     id="nyt_x5F_exporter_x5F_info"
     class="st2"><text
       transform="matrix(1 0 0 1 -990 0)"
       class="st3 st4 st5"
       id="text27">&lt;</text>
<text
       transform="matrix(1 0 0 1 -982.8481 0)"
       class="st3 st4 st5"
       id="text29">n</text>
<text
       transform="matrix(1 0 0 1 -976.3442 0)"
       class="st3 st4 st5"
       id="text31">y</text>
<text
       transform="matrix(1 0 0 1 -970.6924 0)"
       class="st3 st4 st5"
       id="text33">t</text>
<text
       transform="matrix(1 0 0 1 -966.7202 0)"
       class="st3 st4 st5"
       id="text35">_</text>
<text
       transform="matrix(1 0 0 1 -960.7202 0)"
       class="st3 st4 st5"
       id="text37">p</text>
<text
       transform="matrix(1 0 0 1 -953.8926 0)"
       class="st3 st4 st5"
       id="text39">r</text>
<text
       transform="matrix(1 0 0 1 -950.0889 0)"
       class="st3 st4 st5"
       id="text41">e</text>
<text
       transform="matrix(1 0 0 1 -944.0771 0)"
       class="st3 st4 st5"
       id="text43">f</text>
<text
       transform="matrix(1 0 0 1 -940.6812 0)"
       class="st3 st4 st5"
       id="text45">s</text>
<text
       transform="matrix(1 0 0 1 -935.9287 0)"
       class="st3 st4 st5"
       id="text47">&gt;</text>
<text
       transform="matrix(1 0 0 1 -990 14.3999)"
       class="st3 st4 st5"
       id="text49" />
<text
       transform="matrix(1 0 0 1 -987.4561 14.3999)"
       class="st3 st4 st5"
       id="text51" />
<text
       transform="matrix(1 0 0 1 -984.9121 14.3999)"
       class="st3 st4 st5"
       id="text53">&lt;</text>
<text
       transform="matrix(1 0 0 1 -977.7603 14.3999)"
       class="st3 st4 st5"
       id="text55">n</text>
<text
       transform="matrix(1 0 0 1 -971.2563 14.3999)"
       class="st3 st4 st5"
       id="text57">y</text>
<text
       transform="matrix(1 0 0 1 -965.6045 14.3999)"
       class="st3 st4 st5"
       id="text59">t</text>
<text
       transform="matrix(1 0 0 1 -961.6323 14.3999)"
       class="st3 st4 st5"
       id="text61">_</text>
<text
       transform="matrix(1 0 0 1 -955.6323 14.3999)"
       class="st3 st4 st5"
       id="text63">p</text>
<text
       transform="matrix(1 0 0 1 -948.8047 14.3999)"
       class="st3 st4 st5"
       id="text65">r</text>
<text
       transform="matrix(1 0 0 1 -945.001 14.3999)"
       class="st3 st4 st5"
       id="text67">e</text>
<text
       transform="matrix(1 0 0 1 -938.9883 14.3999)"
       class="st3 st4 st5"
       id="text69">f</text>
<text
       transform="matrix(1 0 0 1 -932.7119 14.3999)"
       class="st3 st4 st5"
       id="text71">i</text>
<text
       transform="matrix(1 0 0 1 -927.1562 14.3999)"
       class="st3 st4 st5"
       id="text73">x</text>
<text
       transform="matrix(1 0 0 1 -920.0039 14.3999)"
       class="st3 st4 st5"
       id="text75">&gt;</text>
<text
       transform="matrix(1 0 0 1 -912.8516 14.3999)"
       class="st3 st4 st5"
       id="text77">&lt;</text>
<text
       transform="matrix(1 0 0 1 23428 -8141)"
       class="st3 st4 st5"
       id="text79">/</text>
<text
       transform="matrix(1 0 0 1 -908.7354 14.3999)"
       class="st3 st4 st5"
       id="text81">n</text>
<text
       transform="matrix(1 0 0 1 -902.2314 14.3999)"
       class="st3 st4 st5"
       id="text83">y</text>
<text
       transform="matrix(1 0 0 1 -896.5791 14.3999)"
       class="st3 st4 st5"
       id="text85">t</text>
<text
       transform="matrix(1 0 0 1 -892.6074 14.3999)"
       class="st3 st4 st5"
       id="text87">_</text>
<text
       transform="matrix(1 0 0 1 -886.6074 14.3999)"
       class="st3 st4 st5"
       id="text89">p</text>
<text
       transform="matrix(1 0 0 1 -879.7793 14.3999)"
       class="st3 st4 st5"
       id="text91">r</text>
<text
       transform="matrix(1 0 0 1 -875.9756 14.3999)"
       class="st3 st4 st5"
       id="text93">e</text>
<text
       transform="matrix(1 0 0 1 -869.9639 14.3999)"
       class="st3 st4 st5"
       id="text95">f</text>
<text
       transform="matrix(1 0 0 1 -863.6875 14.3999)"
       class="st3 st4 st5"
       id="text97">i</text>
<text
       transform="matrix(1 0 0 1 -858.1318 14.3999)"
       class="st3 st4 st5"
       id="text99">x</text>
<text
       transform="matrix(1 0 0 1 130133 -8141)"
       class="st3 st4 st5"
       id="text101">&gt;</text>
<text
       transform="matrix(1 0 0 1 -990 28.7998)"
       class="st3 st4 st5"
       id="text103" />
<text
       transform="matrix(1 0 0 1 -987.4561 28.7998)"
       class="st3 st4 st5"
       id="text105" />
<text
       transform="matrix(1 0 0 1 -984.9121 28.7998)"
       class="st3 st4 st5"
       id="text107">&lt;</text>
<text
       transform="matrix(1 0 0 1 -977.7603 28.7998)"
       class="st3 st4 st5"
       id="text109">n</text>
<text
       transform="matrix(1 0 0 1 -971.2563 28.7998)"
       class="st3 st4 st5"
       id="text111">y</text>
<text
       transform="matrix(1 0 0 1 -965.6045 28.7998)"
       class="st3 st4 st5"
       id="text113">t</text>
<text
       transform="matrix(1 0 0 1 -961.6323 28.7998)"
       class="st3 st4 st5"
       id="text115">_</text>
<text
       transform="matrix(1 0 0 1 -955.6323 28.7998)"
       class="st3 st4 st5"
       id="text117">s</text>
<text
       transform="matrix(1 0 0 1 -950.8804 28.7998)"
       class="st3 st4 st5"
       id="text119">u</text>
<text
       transform="matrix(1 0 0 1 -944.2686 28.7998)"
       class="st3 st4 st5"
       id="text121">f</text>
<text
       transform="matrix(1 0 0 1 -934.4893 28.7998)"
       class="st3 st4 st5"
       id="text123">f</text>
<text
       transform="matrix(1 0 0 1 -928.9336 28.7998)"
       class="st3 st4 st5"
       id="text125">i</text>
<text
       transform="matrix(1 0 0 1 -921.7812 28.7998)"
       class="st3 st4 st5"
       id="text127">x</text>
<text
       transform="matrix(1 0 0 1 -914.6289 28.7998)"
       class="st3 st4 st5"
       id="text129">&gt;</text>
<text
       transform="matrix(1 0 0 1 4911520768 -8141)"
       class="st3 st4 st5"
       id="text131">&lt;</text>
<text
       transform="matrix(1 0 0 1 4941872128 -8141)"
       class="st3 st4 st5"
       id="text133">/</text>
<text
       transform="matrix(1 0 0 1 -910.5127 28.7998)"
       class="st3 st4 st5"
       id="text135">n</text>
<text
       transform="matrix(1 0 0 1 -904.0078 28.7998)"
       class="st3 st4 st5"
       id="text137">y</text>
<text
       transform="matrix(1 0 0 1 -898.3555 28.7998)"
       class="st3 st4 st5"
       id="text139">t</text>
<text
       transform="matrix(1 0 0 1 -894.3838 28.7998)"
       class="st3 st4 st5"
       id="text141">_</text>
<text
       transform="matrix(1 0 0 1 -888.3838 28.7998)"
       class="st3 st4 st5"
       id="text143">s</text>
<text
       transform="matrix(1 0 0 1 -883.6318 28.7998)"
       class="st3 st4 st5"
       id="text145">u</text>
<text
       transform="matrix(1 0 0 1 -877.0195 28.7998)"
       class="st3 st4 st5"
       id="text147">f</text>
<text
       transform="matrix(1 0 0 1 -867.2393 28.7998)"
       class="st3 st4 st5"
       id="text149">f</text>
<text
       transform="matrix(1 0 0 1 -861.6836 28.7998)"
       class="st3 st4 st5"
       id="text151">i</text>
<text
       transform="matrix(1 0 0 1 -921.7812 28.7998)"
       class="st3 st4 st5"
       id="text153">x</text>
<text
       transform="matrix(1 0 0 1 -914.6289 28.7998)"
       class="st3 st4 st5"
       id="text155">&gt;</text>
<text
       transform="matrix(1 0 0 1 -990 43.2002)"
       class="st3 st4 st5"
       id="text157" />
<text
       transform="matrix(1 0 0 1 -987.4561 43.2002)"
       class="st3 st4 st5"
       id="text159" />
<text
       transform="matrix(1 0 0 1 -984.9121 43.2002)"
       class="st3 st4 st5"
       id="text161">&lt;</text>
<text
       transform="matrix(1 0 0 1 -977.7603 43.2002)"
       class="st3 st4 st5"
       id="text163">n</text>
<text
       transform="matrix(1 0 0 1 -971.2563 43.2002)"
       class="st3 st4 st5"
       id="text165">y</text>
<text
       transform="matrix(1 0 0 1 -965.6045 43.2002)"
       class="st3 st4 st5"
       id="text167">t</text>
<text
       transform="matrix(1 0 0 1 -961.6323 43.2002)"
       class="st3 st4 st5"
       id="text169">_</text>
<text
       transform="matrix(1 0 0 1 -955.6323 43.2002)"
       class="st3 st4 st5"
       id="text171">b</text>
<text
       transform="matrix(1 0 0 1 -948.8047 43.2002)"
       class="st3 st4 st5"
       id="text173">a</text>
<text
       transform="matrix(1 0 0 1 -943.021 43.2002)"
       class="st3 st4 st5"
       id="text175">s</text>
<text
       transform="matrix(1 0 0 1 -938.2695 43.2002)"
       class="st3 st4 st5"
       id="text177">e</text>
<text
       transform="matrix(1 0 0 1 -932.2578 43.2002)"
       class="st3 st4 st5"
       id="text179">_</text>
<text
       transform="matrix(1 0 0 1 -926.2578 43.2002)"
       class="st3 st4 st5"
       id="text181">p</text>
<text
       transform="matrix(1 0 0 1 -919.4297 43.2002)"
       class="st3 st4 st5"
       id="text183">a</text>
<text
       transform="matrix(1 0 0 1 -913.6934 43.2002)"
       class="st3 st4 st5"
       id="text185">t</text>
<text
       transform="matrix(1 0 0 1 -909.7217 43.2002)"
       class="st3 st4 st5"
       id="text187">h</text>
<text
       transform="matrix(1 0 0 1 -903.0615 43.2002)"
       class="st3 st4 st5"
       id="text189">&gt;</text>
<text
       transform="matrix(1 0 0 1 -895.9092 43.2002)"
       class="st3 st4 st5"
       id="text191">~</text>
<text
       transform="matrix(1 0 0 1 -888.7568 43.2002)"
       class="st3 st4 st5"
       id="text193">/</text>
<text
       transform="matrix(1 0 0 1 -884.6406 43.2002)"
       class="st3 st4 st5"
       id="text195">D</text>
<text
       transform="matrix(1 0 0 1 -876.6006 43.2002)"
       class="st3 st4 st5"
       id="text197">e</text>
<text
       transform="matrix(1 0 0 1 -870.5889 43.2002)"
       class="st3 st4 st5"
       id="text199">s</text>
<text
       transform="matrix(1 0 0 1 -865.8369 43.2002)"
       class="st3 st4 st5"
       id="text201">k</text>
<text
       transform="matrix(1 0 0 1 -860.209 43.2002)"
       class="st3 st4 st5"
       id="text203">t</text>
<text
       transform="matrix(1 0 0 1 -856.3086 43.2002)"
       class="st3 st4 st5"
       id="text205">o</text>
<text
       transform="matrix(1 0 0 1 -849.7207 43.2002)"
       class="st3 st4 st5"
       id="text207">p</text>
<text
       transform="matrix(1 0 0 1 -842.8926 43.2002)"
       class="st3 st4 st5"
       id="text209">/</text>
<text
       transform="matrix(1 0 0 1 -838.7764 43.2002)"
       class="st3 st4 st5"
       id="text211">w</text>
<text
       transform="matrix(1 0 0 1 -829.9443 43.2002)"
       class="st3 st4 st5"
       id="text213">i</text>
<text
       transform="matrix(1 0 0 1 -827.1367 43.2002)"
       class="st3 st4 st5"
       id="text215">p</text>
<text
       transform="matrix(1 0 0 1 -820.3086 43.2002)"
       class="st3 st4 st5"
       id="text217">/</text>
<text
       transform="matrix(1 0 0 1 -816.1924 43.2002)"
       class="st3 st4 st5"
       id="text219">A</text>
<text
       transform="matrix(1 0 0 1 -808.8848 43.2002)"
       class="st3 st4 st5"
       id="text221">r</text>
<text
       transform="matrix(1 0 0 1 -805.0811 43.2002)"
       class="st3 st4 st5"
       id="text223">c</text>
<text
       transform="matrix(1 0 0 1 -799.7051 43.2002)"
       class="st3 st4 st5"
       id="text225">h</text>
<text
       transform="matrix(1 0 0 1 -793.0449 43.2002)"
       class="st3 st4 st5"
       id="text227">i</text>
<text
       transform="matrix(1 0 0 1 -790.2373 43.2002)"
       class="st3 st4 st5"
       id="text229">t</text>
<text
       transform="matrix(1 0 0 1 -786.3379 43.2002)"
       class="st3 st4 st5"
       id="text231">e</text>
<text
       transform="matrix(1 0 0 1 -780.3262 43.2002)"
       class="st3 st4 st5"
       id="text233">c</text>
<text
       transform="matrix(1 0 0 1 -774.7939 43.2002)"
       class="st3 st4 st5"
       id="text235">t</text>
<text
       transform="matrix(1 0 0 1 -770.8223 43.2002)"
       class="st3 st4 st5"
       id="text237">u</text>
<text
       transform="matrix(1 0 0 1 -764.21 43.2002)"
       class="st3 st4 st5"
       id="text239">r</text>
<text
       transform="matrix(1 0 0 1 -760.4062 43.2002)"
       class="st3 st4 st5"
       id="text241">e</text>
<text
       transform="matrix(1 0 0 1 -754.3945 43.2002)"
       class="st3 st4 st5"
       id="text243">%</text>
<text
       transform="matrix(1 0 0 1 -744.8906 43.2002)"
       class="st3 st4 st5"
       id="text245">2</text>
<text
       transform="matrix(1 0 0 1 -738.7344 43.2002)"
       class="st3 st4 st5"
       id="text247">0</text>
<text
       transform="matrix(1 0 0 1 -732.5781 43.2002)"
       class="st3 st4 st5"
       id="text249">I</text>
<text
       transform="matrix(1 0 0 1 -729.71 43.2002)"
       class="st3 st4 st5"
       id="text251">c</text>
<text
       transform="matrix(1 0 0 1 -724.4053 43.2002)"
       class="st3 st4 st5"
       id="text253">o</text>
<text
       transform="matrix(1 0 0 1 -717.8174 43.2002)"
       class="st3 st4 st5"
       id="text255">n</text>
<text
       transform="matrix(1 0 0 1 -711.1572 43.2002)"
       class="st3 st4 st5"
       id="text257">s</text>
<text
       transform="matrix(1 0 0 1 -706.4053 43.2002)"
       class="st3 st4 st5"
       id="text259">%</text>
<text
       transform="matrix(1 0 0 1 -696.9014 43.2002)"
       class="st3 st4 st5"
       id="text261">2</text>
<text
       transform="matrix(1 0 0 1 -690.7451 43.2002)"
       class="st3 st4 st5"
       id="text263">0</text>
<text
       transform="matrix(1 0 0 1 -684.5889 43.2002)"
       class="st3 st4 st5"
       id="text265">-</text>
<text
       transform="matrix(1 0 0 1 -680.9053 43.2002)"
       class="st3 st4 st5"
       id="text267">%</text>
<text
       transform="matrix(1 0 0 1 -671.4014 43.2002)"
       class="st3 st4 st5"
       id="text269">2</text>
<text
       transform="matrix(1 0 0 1 -665.2451 43.2002)"
       class="st3 st4 st5"
       id="text271">0</text>
<text
       transform="matrix(1 0 0 1 -659.0889 43.2002)"
       class="st3 st4 st5"
       id="text273">U</text>
<text
       transform="matrix(1 0 0 1 -651.3252 43.2002)"
       class="st3 st4 st5"
       id="text275">p</text>
<text
       transform="matrix(1 0 0 1 -644.4971 43.2002)"
       class="st3 st4 st5"
       id="text277">d</text>
<text
       transform="matrix(1 0 0 1 -637.7295 43.2002)"
       class="st3 st4 st5"
       id="text279">a</text>
<text
       transform="matrix(1 0 0 1 -631.9932 43.2002)"
       class="st3 st4 st5"
       id="text281">t</text>
<text
       transform="matrix(1 0 0 1 -628.0938 43.2002)"
       class="st3 st4 st5"
       id="text283">e</text>
<text
       transform="matrix(1 0 0 1 -622.082 43.2002)"
       class="st3 st4 st5"
       id="text285">%</text>
<text
       transform="matrix(1 0 0 1 -612.5781 43.2002)"
       class="st3 st4 st5"
       id="text287">2</text>
<text
       transform="matrix(1 0 0 1 -606.4219 43.2002)"
       class="st3 st4 st5"
       id="text289">0</text>
<text
       transform="matrix(1 0 0 1 -600.2656 43.2002)"
       class="st3 st4 st5"
       id="text291">a</text>
<text
       transform="matrix(1 0 0 1 -594.4814 43.2002)"
       class="st3 st4 st5"
       id="text293">l</text>
<text
       transform="matrix(1 0 0 1 -591.6494 43.2002)"
       class="st3 st4 st5"
       id="text295">l</text>
<text
       transform="matrix(1 0 0 1 -588.8174 43.2002)"
       class="st3 st4 st5"
       id="text297">%</text>
<text
       transform="matrix(1 0 0 1 -579.3135 43.2002)"
       class="st3 st4 st5"
       id="text299">2</text>
<text
       transform="matrix(1 0 0 1 -573.1572 43.2002)"
       class="st3 st4 st5"
       id="text301">0</text>
<text
       transform="matrix(1 0 0 1 -567.001 43.2002)"
       class="st3 st4 st5"
       id="text303">c</text>
<text
       transform="matrix(1 0 0 1 -561.625 43.2002)"
       class="st3 st4 st5"
       id="text305">u</text>
<text
       transform="matrix(1 0 0 1 -555.0127 43.2002)"
       class="st3 st4 st5"
       id="text307">s</text>
<text
       transform="matrix(1 0 0 1 -550.2607 43.2002)"
       class="st3 st4 st5"
       id="text309">t</text>
<text
       transform="matrix(1 0 0 1 -546.3613 43.2002)"
       class="st3 st4 st5"
       id="text311">o</text>
<text
       transform="matrix(1 0 0 1 -539.7734 43.2002)"
       class="st3 st4 st5"
       id="text313">m</text>
<text
       transform="matrix(1 0 0 1 -529.7656 43.2002)"
       class="st3 st4 st5"
       id="text315">e</text>
<text
       transform="matrix(1 0 0 1 -523.7539 43.2002)"
       class="st3 st4 st5"
       id="text317">r</text>
<text
       transform="matrix(1 0 0 1 -519.8896 43.2002)"
       class="st3 st4 st5"
       id="text319">-</text>
<text
       transform="matrix(1 0 0 1 -516.2061 43.2002)"
       class="st3 st4 st5"
       id="text321">f</text>
<text
       transform="matrix(1 0 0 1 -512.7021 43.2002)"
       class="st3 st4 st5"
       id="text323">a</text>
<text
       transform="matrix(1 0 0 1 -506.918 43.2002)"
       class="st3 st4 st5"
       id="text325">c</text>
<text
       transform="matrix(1 0 0 1 -501.542 43.2002)"
       class="st3 st4 st5"
       id="text327">i</text>
<text
       transform="matrix(1 0 0 1 -498.7344 43.2002)"
       class="st3 st4 st5"
       id="text329">n</text>
<text
       transform="matrix(1 0 0 1 -492.0742 43.2002)"
       class="st3 st4 st5"
       id="text331">g</text>
<text
       transform="matrix(1 0 0 1 -485.3662 43.2002)"
       class="st3 st4 st5"
       id="text333">%</text>
<text
       transform="matrix(1 0 0 1 -475.8623 43.2002)"
       class="st3 st4 st5"
       id="text335">2</text>
<text
       transform="matrix(1 0 0 1 -469.7061 43.2002)"
       class="st3 st4 st5"
       id="text337">0</text>
<text
       transform="matrix(1 0 0 1 -463.5498 43.2002)"
       class="st3 st4 st5"
       id="text339">f</text>
<text
       transform="matrix(1 0 0 1 -457.2734 43.2002)"
       class="st3 st4 st5"
       id="text341">i</text>
<text
       transform="matrix(1 0 0 1 -454.4414 43.2002)"
       class="st3 st4 st5"
       id="text343">l</text>
<text
       transform="matrix(1 0 0 1 -448.4297 43.2002)"
       class="st3 st4 st5"
       id="text345">e</text>
<text
       transform="matrix(1 0 0 1 -443.6777 43.2002)"
       class="st3 st4 st5"
       id="text347">s</text>
<text
       transform="matrix(1 0 0 1 -434.1738 43.2002)"
       class="st3 st4 st5"
       id="text349">%</text>
<text
       transform="matrix(1 0 0 1 -428.0176 43.2002)"
       class="st3 st4 st5"
       id="text351">2</text>
<text
       transform="matrix(1 0 0 1 -421.8613 43.2002)"
       class="st3 st4 st5"
       id="text353">0</text>
<text
       transform="matrix(1 0 0 1 -9131 -8141)"
       class="st3 st4 st5"
       id="text355">/</text>
<text
       transform="matrix(1 0 0 1 -417.7451 43.2002)"
       class="st3 st4 st5"
       id="text357">A</text>
<text
       transform="matrix(1 0 0 1 -411.0371 43.2002)"
       class="st3 st4 st5"
       id="text359">W</text>
<text
       transform="matrix(1 0 0 1 -400.8848 43.2002)"
       class="st3 st4 st5"
       id="text361">S</text>
<text
       transform="matrix(1 0 0 1 -394.9092 43.2002)"
       class="st3 st4 st5"
       id="text363">-</text>
<text
       transform="matrix(1 0 0 1 -391.2256 43.2002)"
       class="st3 st4 st5"
       id="text365">S</text>
<text
       transform="matrix(1 0 0 1 -385.3096 43.2002)"
       class="st3 st4 st5"
       id="text367">i</text>
<text
       transform="matrix(1 0 0 1 -382.502 43.2002)"
       class="st3 st4 st5"
       id="text369">m</text>
<text
       transform="matrix(1 0 0 1 -372.4941 43.2002)"
       class="st3 st4 st5"
       id="text371">p</text>
<text
       transform="matrix(1 0 0 1 -365.666 43.2002)"
       class="st3 st4 st5"
       id="text373">l</text>
<text
       transform="matrix(1 0 0 1 -362.834 43.2002)"
       class="st3 st4 st5"
       id="text375">e</text>
<text
       transform="matrix(1 0 0 1 -356.4863 43.2002)"
       class="st3 st4 st5"
       id="text377">-</text>
<text
       transform="matrix(1 0 0 1 -352.8027 43.2002)"
       class="st3 st4 st5"
       id="text379">I</text>
<text
       transform="matrix(1 0 0 1 -349.9346 43.2002)"
       class="st3 st4 st5"
       id="text381">c</text>
<text
       transform="matrix(1 0 0 1 -344.6299 43.2002)"
       class="st3 st4 st5"
       id="text383">o</text>
<text
       transform="matrix(1 0 0 1 -338.042 43.2002)"
       class="st3 st4 st5"
       id="text385">n</text>
<text
       transform="matrix(1 0 0 1 -331.3818 43.2002)"
       class="st3 st4 st5"
       id="text387">s</text>
<text
       transform="matrix(1 0 0 1 -326.6299 43.2002)"
       class="st3 st4 st5"
       id="text389">%</text>
<text
       transform="matrix(1 0 0 1 -317.126 43.2002)"
       class="st3 st4 st5"
       id="text391">2</text>
<text
       transform="matrix(1 0 0 1 -310.9697 43.2002)"
       class="st3 st4 st5"
       id="text393">0</text>
<text
       transform="matrix(1 0 0 1 -304.8135 43.2002)"
       class="st3 st4 st5"
       id="text395">2</text>
<text
       transform="matrix(1 0 0 1 -298.6572 43.2002)"
       class="st3 st4 st5"
       id="text397">/</text>
<text
       transform="matrix(1 0 0 1 -294.541 43.2002)"
       class="st3 st4 st5"
       id="text399">D</text>
<text
       transform="matrix(1 0 0 1 -286.501 43.2002)"
       class="st3 st4 st5"
       id="text401">e</text>
<text
       transform="matrix(1 0 0 1 -280.4893 43.2002)"
       class="st3 st4 st5"
       id="text403">p</text>
<text
       transform="matrix(1 0 0 1 -273.6611 43.2002)"
       class="st3 st4 st5"
       id="text405">l</text>
<text
       transform="matrix(1 0 0 1 -270.8291 43.2002)"
       class="st3 st4 st5"
       id="text407">o</text>
<text
       transform="matrix(1 0 0 1 -264.3252 43.2002)"
       class="st3 st4 st5"
       id="text409">y</text>
<text
       transform="matrix(1 0 0 1 -258.6729 43.2002)"
       class="st3 st4 st5"
       id="text411">m</text>
<text
       transform="matrix(1 0 0 1 -248.665 43.2002)"
       class="st3 st4 st5"
       id="text413">e</text>
<text
       transform="matrix(1 0 0 1 -242.6533 43.2002)"
       class="st3 st4 st5"
       id="text415">n</text>
<text
       transform="matrix(1 0 0 1 -236.041 43.2002)"
       class="st3 st4 st5"
       id="text417">t</text>
<text
       transform="matrix(1 0 0 1 -232.0693 43.2002)"
       class="st3 st4 st5"
       id="text419">%</text>
<text
       transform="matrix(1 0 0 1 -222.5654 43.2002)"
       class="st3 st4 st5"
       id="text421">2</text>
<text
       transform="matrix(1 0 0 1 -216.4092 43.2002)"
       class="st3 st4 st5"
       id="text423">0</text>
<text
       transform="matrix(1 0 0 1 -210.2529 43.2002)"
       class="st3 st4 st5"
       id="text425">&amp;</text>
<text
       transform="matrix(1 0 0 1 -202.9932 43.2002)"
       class="st3 st4 st5"
       id="text427">a</text>
<text
       transform="matrix(1 0 0 1 -197.209 43.2002)"
       class="st3 st4 st5"
       id="text429">m</text>
<text
       transform="matrix(1 0 0 1 -187.2012 43.2002)"
       class="st3 st4 st5"
       id="text431">p</text>
<text
       transform="matrix(1 0 0 1 -180.373 43.2002)"
       class="st3 st4 st5"
       id="text433">;</text>
<text
       transform="matrix(1 0 0 1 -177.8896 43.2002)"
       class="st3 st4 st5"
       id="text435">%</text>
<text
       transform="matrix(1 0 0 1 -168.3857 43.2002)"
       class="st3 st4 st5"
       id="text437">2</text>
<text
       transform="matrix(1 0 0 1 -162.2295 43.2002)"
       class="st3 st4 st5"
       id="text439">0</text>
<text
       transform="matrix(1 0 0 1 -156.0732 43.2002)"
       class="st3 st4 st5"
       id="text441">M</text>
<text
       transform="matrix(1 0 0 1 -146.3535 43.2002)"
       class="st3 st4 st5"
       id="text443">a</text>
<text
       transform="matrix(1 0 0 1 -140.5703 43.2002)"
       class="st3 st4 st5"
       id="text445">n</text>
<text
       transform="matrix(1 0 0 1 -133.9102 43.2002)"
       class="st3 st4 st5"
       id="text447">a</text>
<text
       transform="matrix(1 0 0 1 -128.125 43.2002)"
       class="st3 st4 st5"
       id="text449">g</text>
<text
       transform="matrix(1 0 0 1 -121.418 43.2002)"
       class="st3 st4 st5"
       id="text451">e</text>
<text
       transform="matrix(1 0 0 1 -115.4062 43.2002)"
       class="st3 st4 st5"
       id="text453">m</text>
<text
       transform="matrix(1 0 0 1 -105.3984 43.2002)"
       class="st3 st4 st5"
       id="text455">e</text>
<text
       transform="matrix(1 0 0 1 -99.3867 43.2002)"
       class="st3 st4 st5"
       id="text457">n</text>
<text
       transform="matrix(1 0 0 1 -92.7744 43.2002)"
       class="st3 st4 st5"
       id="text459">t</text>
<text
       transform="matrix(1 0 0 1 -88.8027 43.2002)"
       class="st3 st4 st5"
       id="text461">/</text>
<text
       transform="matrix(1 0 0 1 -84.6865 43.2002)"
       class="st3 st4 st5"
       id="text463">E</text>
<text
       transform="matrix(1 0 0 1 -78.7822 43.2002)"
       class="st3 st4 st5"
       id="text465">P</text>
<text
       transform="matrix(1 0 0 1 -72.3984 43.2002)"
       class="st3 st4 st5"
       id="text467">S</text>
<text
       transform="matrix(1 0 0 1 -66.4824 43.2002)"
       class="st3 st4 st5"
       id="text469">&lt;</text>
<text
       transform="matrix(1 0 0 1 -59.3301 43.2002)"
       class="st3 st4 st5"
       id="text471">/</text>
<text
       transform="matrix(1 0 0 1 -55.2139 43.2002)"
       class="st3 st4 st5"
       id="text473">n</text>
<text
       transform="matrix(1 0 0 1 -48.709 43.2002)"
       class="st3 st4 st5"
       id="text475">y</text>
<text
       transform="matrix(1 0 0 1 -43.0566 43.2002)"
       class="st3 st4 st5"
       id="text477">t</text>
<text
       transform="matrix(1 0 0 1 -39.085 43.2002)"
       class="st3 st4 st5"
       id="text479">_</text>
<text
       transform="matrix(1 0 0 1 -33.085 43.2002)"
       class="st3 st4 st5"
       id="text481">b</text>
<text
       transform="matrix(1 0 0 1 -26.2568 43.2002)"
       class="st3 st4 st5"
       id="text483">a</text>
<text
       transform="matrix(1 0 0 1 -20.4727 43.2002)"
       class="st3 st4 st5"
       id="text485">s</text>
<text
       transform="matrix(1 0 0 1 -15.7207 43.2002)"
       class="st3 st4 st5"
       id="text487">e</text>
<text
       transform="matrix(1 0 0 1 -9.709 43.2002)"
       class="st3 st4 st5"
       id="text489">_</text>
<text
       transform="matrix(1 0 0 1 -3.709 43.2002)"
       class="st3 st4 st5"
       id="text491">p</text>
<text
       transform="matrix(1 0 0 1 3.1191 43.2002)"
       class="st3 st4 st5"
       id="text493">a</text>
<text
       transform="matrix(1 0 0 1 8.8555 43.2002)"
       class="st3 st4 st5"
       id="text495">t</text>
<text
       transform="matrix(1 0 0 1 12.8271 43.2002)"
       class="st3 st4 st5"
       id="text497">h</text>
<text
       transform="matrix(1 0 0 1 19.4873 43.2002)"
       class="st3 st4 st5"
       id="text499">&gt;</text>
<text
       transform="matrix(1 0 0 1 -990 57.5996)"
       class="st3 st4 st5"
       id="text501" />
<text
       transform="matrix(1 0 0 1 -987.4561 57.5996)"
       class="st3 st4 st5"
       id="text503" />
<text
       transform="matrix(1 0 0 1 -984.9121 57.5996)"
       class="st3 st4 st5"
       id="text505">&lt;</text>
<text
       transform="matrix(1 0 0 1 -977.7603 57.5996)"
       class="st3 st4 st5"
       id="text507">n</text>
<text
       transform="matrix(1 0 0 1 -971.2563 57.5996)"
       class="st3 st4 st5"
       id="text509">y</text>
<text
       transform="matrix(1 0 0 1 -965.6045 57.5996)"
       class="st3 st4 st5"
       id="text511">t</text>
<text
       transform="matrix(1 0 0 1 -961.6323 57.5996)"
       class="st3 st4 st5"
       id="text513">_</text>
<text
       transform="matrix(1 0 0 1 -955.6323 57.5996)"
       class="st3 st4 st5"
       id="text515">s</text>
<text
       transform="matrix(1 0 0 1 -950.8804 57.5996)"
       class="st3 st4 st5"
       id="text517">c</text>
<text
       transform="matrix(1 0 0 1 -945.5044 57.5996)"
       class="st3 st4 st5"
       id="text519">a</text>
<text
       transform="matrix(1 0 0 1 -939.7202 57.5996)"
       class="st3 st4 st5"
       id="text521">l</text>
<text
       transform="matrix(1 0 0 1 -936.8887 57.5996)"
       class="st3 st4 st5"
       id="text523">i</text>
<text
       transform="matrix(1 0 0 1 -934.0811 57.5996)"
       class="st3 st4 st5"
       id="text525">n</text>
<text
       transform="matrix(1 0 0 1 -927.4209 57.5996)"
       class="st3 st4 st5"
       id="text527">g</text>
<text
       transform="matrix(1 0 0 1 -920.7129 57.5996)"
       class="st3 st4 st5"
       id="text529">&gt;</text>
<text
       transform="matrix(1 0 0 1 -913.5605 57.5996)"
       class="st3 st4 st5"
       id="text531">1</text>
<text
       transform="matrix(1 0 0 1 -907.4043 57.5996)"
       class="st3 st4 st5"
       id="text533">0</text>
<text
       transform="matrix(1 0 0 1 -901.248 57.5996)"
       class="st3 st4 st5"
       id="text535">0</text>
<text
       transform="matrix(1 0 0 1 -895.0918 57.5996)"
       class="st3 st4 st5"
       id="text537">&lt;</text>
<text
       transform="matrix(1 0 0 1 -887.9395 57.5996)"
       class="st3 st4 st5"
       id="text539">/</text>
<text
       transform="matrix(1 0 0 1 -883.8232 57.5996)"
       class="st3 st4 st5"
       id="text541">n</text>
<text
       transform="matrix(1 0 0 1 -877.3184 57.5996)"
       class="st3 st4 st5"
       id="text543">y</text>
<text
       transform="matrix(1 0 0 1 -871.666 57.5996)"
       class="st3 st4 st5"
       id="text545">t</text>
<text
       transform="matrix(1 0 0 1 -867.6943 57.5996)"
       class="st3 st4 st5"
       id="text547">_</text>
<text
       transform="matrix(1 0 0 1 -861.6943 57.5996)"
       class="st3 st4 st5"
       id="text549">s</text>
<text
       transform="matrix(1 0 0 1 -856.9424 57.5996)"
       class="st3 st4 st5"
       id="text551">c</text>
<text
       transform="matrix(1 0 0 1 -851.5664 57.5996)"
       class="st3 st4 st5"
       id="text553">a</text>
<text
       transform="matrix(1 0 0 1 -845.7822 57.5996)"
       class="st3 st4 st5"
       id="text555">l</text>
<text
       transform="matrix(1 0 0 1 -842.9502 57.5996)"
       class="st3 st4 st5"
       id="text557">i</text>
<text
       transform="matrix(1 0 0 1 -840.1426 57.5996)"
       class="st3 st4 st5"
       id="text559">n</text>
<text
       transform="matrix(1 0 0 1 -833.4824 57.5996)"
       class="st3 st4 st5"
       id="text561">g</text>
<text
       transform="matrix(1 0 0 1 -826.7744 57.5996)"
       class="st3 st4 st5"
       id="text563">&gt;</text>
<text
       transform="matrix(1 0 0 1 -990 72)"
       class="st3 st4 st5"
       id="text565" />
<text
       transform="matrix(1 0 0 1 -987.4561 72)"
       class="st3 st4 st5"
       id="text567" />
<text
       transform="matrix(1 0 0 1 -984.9121 72)"
       class="st3 st4 st5"
       id="text569">&lt;</text>
<text
       transform="matrix(1 0 0 1 -977.7603 72)"
       class="st3 st4 st5"
       id="text571">n</text>
<text
       transform="matrix(1 0 0 1 -971.2563 72)"
       class="st3 st4 st5"
       id="text573">y</text>
<text
       transform="matrix(1 0 0 1 -965.6045 72)"
       class="st3 st4 st5"
       id="text575">t</text>
<text
       transform="matrix(1 0 0 1 -961.6323 72)"
       class="st3 st4 st5"
       id="text577">_</text>
<text
       transform="matrix(1 0 0 1 -955.6323 72)"
       class="st3 st4 st5"
       id="text579">t</text>
<text
       transform="matrix(1 0 0 1 -951.6606 72)"
       class="st3 st4 st5"
       id="text581">r</text>
<text
       transform="matrix(1 0 0 1 -947.7969 72)"
       class="st3 st4 st5"
       id="text583">a</text>
<text
       transform="matrix(1 0 0 1 -942.0127 72)"
       class="st3 st4 st5"
       id="text585">n</text>
<text
       transform="matrix(1 0 0 1 -935.3525 72)"
       class="st3 st4 st5"
       id="text587">s</text>
<text
       transform="matrix(1 0 0 1 -930.6006 72)"
       class="st3 st4 st5"
       id="text589">p</text>
<text
       transform="matrix(1 0 0 1 -923.7725 72)"
       class="st3 st4 st5"
       id="text591">a</text>
<text
       transform="matrix(1 0 0 1 -917.9883 72)"
       class="st3 st4 st5"
       id="text593">r</text>
<text
       transform="matrix(1 0 0 1 -914.1846 72)"
       class="st3 st4 st5"
       id="text595">e</text>
<text
       transform="matrix(1 0 0 1 -908.1729 72)"
       class="st3 st4 st5"
       id="text597">n</text>
<text
       transform="matrix(1 0 0 1 -901.5127 72)"
       class="st3 st4 st5"
       id="text599">c</text>
<text
       transform="matrix(1 0 0 1 -895.9209 72)"
       class="st3 st4 st5"
       id="text601">y</text>
<text
       transform="matrix(1 0 0 1 -890.2686 72)"
       class="st3 st4 st5"
       id="text603">&gt;</text>
<text
       transform="matrix(1 0 0 1 -883.1162 72)"
       class="st3 st4 st5"
       id="text605">t</text>
<text
       transform="matrix(1 0 0 1 -879.1445 72)"
       class="st3 st4 st5"
       id="text607">r</text>
<text
       transform="matrix(1 0 0 1 -875.2207 72)"
       class="st3 st4 st5"
       id="text609">u</text>
<text
       transform="matrix(1 0 0 1 -868.6084 72)"
       class="st3 st4 st5"
       id="text611">e</text>
<text
       transform="matrix(1 0 0 1 -862.5967 72)"
       class="st3 st4 st5"
       id="text613">&lt;</text>
<text
       transform="matrix(1 0 0 1 -855.4443 72)"
       class="st3 st4 st5"
       id="text615">/</text>
<text
       transform="matrix(1 0 0 1 -851.3281 72)"
       class="st3 st4 st5"
       id="text617">n</text>
<text
       transform="matrix(1 0 0 1 -844.8232 72)"
       class="st3 st4 st5"
       id="text619">y</text>
<text
       transform="matrix(1 0 0 1 -839.1709 72)"
       class="st3 st4 st5"
       id="text621">t</text>
<text
       transform="matrix(1 0 0 1 -835.1992 72)"
       class="st3 st4 st5"
       id="text623">_</text>
<text
       transform="matrix(1 0 0 1 -829.1992 72)"
       class="st3 st4 st5"
       id="text625">t</text>
<text
       transform="matrix(1 0 0 1 -825.2275 72)"
       class="st3 st4 st5"
       id="text627">r</text>
<text
       transform="matrix(1 0 0 1 -821.3633 72)"
       class="st3 st4 st5"
       id="text629">a</text>
<text
       transform="matrix(1 0 0 1 -815.5801 72)"
       class="st3 st4 st5"
       id="text631">n</text>
<text
       transform="matrix(1 0 0 1 -808.9199 72)"
       class="st3 st4 st5"
       id="text633">s</text>
<text
       transform="matrix(1 0 0 1 -804.168 72)"
       class="st3 st4 st5"
       id="text635">p</text>
<text
       transform="matrix(1 0 0 1 -797.3398 72)"
       class="st3 st4 st5"
       id="text637">a</text>
<text
       transform="matrix(1 0 0 1 -791.5547 72)"
       class="st3 st4 st5"
       id="text639">r</text>
<text
       transform="matrix(1 0 0 1 -787.751 72)"
       class="st3 st4 st5"
       id="text641">e</text>
<text
       transform="matrix(1 0 0 1 -781.7393 72)"
       class="st3 st4 st5"
       id="text643">n</text>
<text
       transform="matrix(1 0 0 1 -775.0791 72)"
       class="st3 st4 st5"
       id="text645">c</text>
<text
       transform="matrix(1 0 0 1 -769.4873 72)"
       class="st3 st4 st5"
       id="text647">y</text>
<text
       transform="matrix(1 0 0 1 -763.835 72)"
       class="st3 st4 st5"
       id="text649">&gt;</text>
<text
       transform="matrix(1 0 0 1 -990 86.4004)"
       class="st3 st4 st5"
       id="text651" />
<text
       transform="matrix(1 0 0 1 -987.4561 86.4004)"
       class="st3 st4 st5"
       id="text653" />
<text
       transform="matrix(1 0 0 1 -984.9121 86.4004)"
       class="st3 st4 st5"
       id="text655">&lt;</text>
<text
       transform="matrix(1 0 0 1 -977.7603 86.4004)"
       class="st3 st4 st5"
       id="text657">n</text>
<text
       transform="matrix(1 0 0 1 -971.2563 86.4004)"
       class="st3 st4 st5"
       id="text659">y</text>
<text
       transform="matrix(1 0 0 1 -965.6045 86.4004)"
       class="st3 st4 st5"
       id="text661">t</text>
<text
       transform="matrix(1 0 0 1 -961.6323 86.4004)"
       class="st3 st4 st5"
       id="text663">_</text>
<text
       transform="matrix(1 0 0 1 -955.6323 86.4004)"
       class="st3 st4 st5"
       id="text665">f</text>
<text
       transform="matrix(1 0 0 1 -952.2842 86.4004)"
       class="st3 st4 st5"
       id="text667">o</text>
<text
       transform="matrix(1 0 0 1 -945.6963 86.4004)"
       class="st3 st4 st5"
       id="text669">r</text>
<text
       transform="matrix(1 0 0 1 -941.7246 86.4004)"
       class="st3 st4 st5"
       id="text671">m</text>
<text
       transform="matrix(1 0 0 1 -931.7168 86.4004)"
       class="st3 st4 st5"
       id="text673">a</text>
<text
       transform="matrix(1 0 0 1 -925.9805 86.4004)"
       class="st3 st4 st5"
       id="text675">t</text>
<text
       transform="matrix(1 0 0 1 -922.0088 86.4004)"
       class="st3 st4 st5"
       id="text677">&gt;</text>
<text
       transform="matrix(1 0 0 1 -914.8564 86.4004)"
       class="st3 st4 st5"
       id="text679">E</text>
<text
       transform="matrix(1 0 0 1 -908.9521 86.4004)"
       class="st3 st4 st5"
       id="text681">P</text>
<text
       transform="matrix(1 0 0 1 -902.5684 86.4004)"
       class="st3 st4 st5"
       id="text683">S</text>
<text
       transform="matrix(1 0 0 1 -896.6523 86.4004)"
       class="st3 st4 st5"
       id="text685">&lt;</text>
<text
       transform="matrix(1 0 0 1 -889.5 86.4004)"
       class="st3 st4 st5"
       id="text687">/</text>
<text
       transform="matrix(1 0 0 1 -885.3838 86.4004)"
       class="st3 st4 st5"
       id="text689">n</text>
<text
       transform="matrix(1 0 0 1 -878.8799 86.4004)"
       class="st3 st4 st5"
       id="text691">y</text>
<text
       transform="matrix(1 0 0 1 -873.2275 86.4004)"
       class="st3 st4 st5"
       id="text693">t</text>
<text
       transform="matrix(1 0 0 1 -869.2559 86.4004)"
       class="st3 st4 st5"
       id="text695">_</text>
<text
       transform="matrix(1 0 0 1 -863.2559 86.4004)"
       class="st3 st4 st5"
       id="text697">f</text>
<text
       transform="matrix(1 0 0 1 -859.9072 86.4004)"
       class="st3 st4 st5"
       id="text699">o</text>
<text
       transform="matrix(1 0 0 1 -853.3193 86.4004)"
       class="st3 st4 st5"
       id="text701">r</text>
<text
       transform="matrix(1 0 0 1 -849.3477 86.4004)"
       class="st3 st4 st5"
       id="text703">m</text>
<text
       transform="matrix(1 0 0 1 -839.3398 86.4004)"
       class="st3 st4 st5"
       id="text705">a</text>
<text
       transform="matrix(1 0 0 1 -833.6035 86.4004)"
       class="st3 st4 st5"
       id="text707">t</text>
<text
       transform="matrix(1 0 0 1 -829.6318 86.4004)"
       class="st3 st4 st5"
       id="text709">&gt;</text>
<text
       transform="matrix(1 0 0 1 -990 100.7998)"
       class="st3 st4 st5"
       id="text711" />
<text
       transform="matrix(1 0 0 1 -987.4561 100.7998)"
       class="st3 st4 st5"
       id="text713" />
<text
       transform="matrix(1 0 0 1 -984.9121 100.7998)"
       class="st3 st4 st5"
       id="text715">&lt;</text>
<text
       transform="matrix(1 0 0 1 -977.7603 100.7998)"
       class="st3 st4 st5"
       id="text717">n</text>
<text
       transform="matrix(1 0 0 1 -971.2563 100.7998)"
       class="st3 st4 st5"
       id="text719">y</text>
<text
       transform="matrix(1 0 0 1 -965.6045 100.7998)"
       class="st3 st4 st5"
       id="text721">t</text>
<text
       transform="matrix(1 0 0 1 -961.6323 100.7998)"
       class="st3 st4 st5"
       id="text723">_</text>
<text
       transform="matrix(1 0 0 1 -955.6323 100.7998)"
       class="st3 st4 st5"
       id="text725">e</text>
<text
       transform="matrix(1 0 0 1 -949.6567 100.7998)"
       class="st3 st4 st5"
       id="text727">x</text>
<text
       transform="matrix(1 0 0 1 -944.1006 100.7998)"
       class="st3 st4 st5"
       id="text729">p</text>
<text
       transform="matrix(1 0 0 1 -937.2725 100.7998)"
       class="st3 st4 st5"
       id="text731">o</text>
<text
       transform="matrix(1 0 0 1 -930.6846 100.7998)"
       class="st3 st4 st5"
       id="text733">r</text>
<text
       transform="matrix(1 0 0 1 -926.4736 100.7998)"
       class="st3 st4 st5"
       id="text735">t</text>
<text
       transform="matrix(1 0 0 1 -922.502 100.7998)"
       class="st3 st4 st5"
       id="text737">_</text>
<text
       transform="matrix(1 0 0 1 -916.502 100.7998)"
       class="st3 st4 st5"
       id="text739">c</text>
<text
       transform="matrix(1 0 0 1 -911.1973 100.7998)"
       class="st3 st4 st5"
       id="text741">o</text>
<text
       transform="matrix(1 0 0 1 -904.6094 100.7998)"
       class="st3 st4 st5"
       id="text743">d</text>
<text
       transform="matrix(1 0 0 1 -897.8418 100.7998)"
       class="st3 st4 st5"
       id="text745">e</text>
<text
       transform="matrix(1 0 0 1 -891.8301 100.7998)"
       class="st3 st4 st5"
       id="text747">&gt;</text>
<text
       transform="matrix(1 0 0 1 -884.6777 100.7998)"
       class="st3 st4 st5"
       id="text749">a</text>
<text
       transform="matrix(1 0 0 1 -878.8936 100.7998)"
       class="st3 st4 st5"
       id="text751">r</text>
<text
       transform="matrix(1 0 0 1 -874.6816 100.7998)"
       class="st3 st4 st5"
       id="text753">t</text>
<text
       transform="matrix(1 0 0 1 -870.7109 100.7998)"
       class="st3 st4 st5"
       id="text755">b</text>
<text
       transform="matrix(1 0 0 1 -863.8828 100.7998)"
       class="st3 st4 st5"
       id="text757">o</text>
<text
       transform="matrix(1 0 0 1 -857.2949 100.7998)"
       class="st3 st4 st5"
       id="text759">a</text>
<text
       transform="matrix(1 0 0 1 -851.5098 100.7998)"
       class="st3 st4 st5"
       id="text761">r</text>
<text
       transform="matrix(1 0 0 1 -847.7061 100.7998)"
       class="st3 st4 st5"
       id="text763">d</text>
<text
       transform="matrix(1 0 0 1 -840.9385 100.7998)"
       class="st3 st4 st5"
       id="text765">s</text>
<text
       transform="matrix(1 0 0 1 -836.1865 100.7998)"
       class="st3 st4 st5"
       id="text767">&lt;</text>
<text
       transform="matrix(1 0 0 1 -829.0342 100.7998)"
       class="st3 st4 st5"
       id="text769">/</text>
<text
       transform="matrix(1 0 0 1 -824.918 100.7998)"
       class="st3 st4 st5"
       id="text771">n</text>
<text
       transform="matrix(1 0 0 1 -818.4141 100.7998)"
       class="st3 st4 st5"
       id="text773">y</text>
<text
       transform="matrix(1 0 0 1 -812.7617 100.7998)"
       class="st3 st4 st5"
       id="text775">t</text>
<text
       transform="matrix(1 0 0 1 -808.79 100.7998)"
       class="st3 st4 st5"
       id="text777">_</text>
<text
       transform="matrix(1 0 0 1 -802.79 100.7998)"
       class="st3 st4 st5"
       id="text779">e</text>
<text
       transform="matrix(1 0 0 1 -796.8145 100.7998)"
       class="st3 st4 st5"
       id="text781">x</text>
<text
       transform="matrix(1 0 0 1 -791.2588 100.7998)"
       class="st3 st4 st5"
       id="text783">p</text>
<text
       transform="matrix(1 0 0 1 -784.4307 100.7998)"
       class="st3 st4 st5"
       id="text785">o</text>
<text
       transform="matrix(1 0 0 1 -777.8428 100.7998)"
       class="st3 st4 st5"
       id="text787">r</text>
<text
       transform="matrix(1 0 0 1 -773.6309 100.7998)"
       class="st3 st4 st5"
       id="text789">t</text>
<text
       transform="matrix(1 0 0 1 -769.6592 100.7998)"
       class="st3 st4 st5"
       id="text791">_</text>
<text
       transform="matrix(1 0 0 1 -763.6592 100.7998)"
       class="st3 st4 st5"
       id="text793">c</text>
<text
       transform="matrix(1 0 0 1 -758.3555 100.7998)"
       class="st3 st4 st5"
       id="text795">o</text>
<text
       transform="matrix(1 0 0 1 -751.7676 100.7998)"
       class="st3 st4 st5"
       id="text797">d</text>
<text
       transform="matrix(1 0 0 1 -745 100.7998)"
       class="st3 st4 st5"
       id="text799">e</text>
<text
       transform="matrix(1 0 0 1 -738.9883 100.7998)"
       class="st3 st4 st5"
       id="text801">&gt;</text>
<text
       transform="matrix(1 0 0 1 -990 115.2002)"
       class="st3 st4 st5"
       id="text803">&lt;</text>
<text
       transform="matrix(1 0 0 1 -982.8481 115.2002)"
       class="st3 st4 st5"
       id="text805">/</text>
<text
       transform="matrix(1 0 0 1 -978.7324 115.2002)"
       class="st3 st4 st5"
       id="text807">n</text>
<text
       transform="matrix(1 0 0 1 -972.228 115.2002)"
       class="st3 st4 st5"
       id="text809">y</text>
<text
       transform="matrix(1 0 0 1 -966.5762 115.2002)"
       class="st3 st4 st5"
       id="text811">t</text>
<text
       transform="matrix(1 0 0 1 -962.604 115.2002)"
       class="st3 st4 st5"
       id="text813">_</text>
<text
       transform="matrix(1 0 0 1 -956.604 115.2002)"
       class="st3 st4 st5"
       id="text815">p</text>
<text
       transform="matrix(1 0 0 1 -949.7764 115.2002)"
       class="st3 st4 st5"
       id="text817">r</text>
<text
       transform="matrix(1 0 0 1 -945.9727 115.2002)"
       class="st3 st4 st5"
       id="text819">e</text>
<text
       transform="matrix(1 0 0 1 -939.9609 115.2002)"
       class="st3 st4 st5"
       id="text821">f</text>
<text
       transform="matrix(1 0 0 1 -936.5654 115.2002)"
       class="st3 st4 st5"
       id="text823">s</text>
<text
       transform="matrix(1 0 0 1 -931.8135 115.2002)"
       class="st3 st4 st5"
       id="text825">&gt;</text>
</g><g
     id="CloudTrail"
     transform="matrix(1.3888889,0,0,1.3888889,-7.8166667,-33.444444)" /></svg>