<?xml version="1.0" encoding="UTF-8" standalone="no"?>
<!-- Generator: Adobe Illustrator 19.1.0, SVG Export Plug-In . SVG Version: 6.00 Build 0)  -->

<svg
   xmlns:dc="http://purl.org/dc/elements/1.1/"
   xmlns:cc="http://creativecommons.org/ns#"
   xmlns:rdf="http://www.w3.org/1999/02/22-rdf-syntax-ns#"
   xmlns:svg="http://www.w3.org/2000/svg"
   xmlns="http://www.w3.org/2000/svg"
   xmlns:sodipodi="http://sodipodi.sourceforge.net/DTD/sodipodi-0.dtd"
   xmlns:inkscape="http://www.inkscape.org/namespaces/inkscape"
   version="1.1"
   id="Layer_1"
   x="0px"
   y="0px"
   viewBox="0 0 100 100"
   style="enable-background:new 0 0 100 100;"
   xml:space="preserve"
   inkscape:version="0.91 r13725"
   sodipodi:docname="ManagementTools_OpsWorks_Deployments.svg"><metadata
     id="metadata37"><rdf:RDF><cc:Work
         rdf:about=""><dc:format>image/svg+xml</dc:format><dc:type
           rdf:resource="http://purl.org/dc/dcmitype/StillImage" /></cc:Work></rdf:RDF></metadata><defs
     id="defs35" /><sodipodi:namedview
     pagecolor="#ffffff"
     bordercolor="#666666"
     borderopacity="1"
     objecttolerance="10"
     gridtolerance="10"
     guidetolerance="10"
     inkscape:pageopacity="0"
     inkscape:pageshadow="2"
     inkscape:window-width="1280"
     inkscape:window-height="985"
     id="namedview33"
     showgrid="false"
     inkscape:zoom="7.4579687"
     inkscape:cx="50.26817"
     inkscape:cy="50"
     inkscape:window-x="0"
     inkscape:window-y="0"
     inkscape:window-maximized="1"
     inkscape:current-layer="Layer_1" /><style
     type="text/css"
     id="style3">
	.st0{display:none;}
	.st1{fill:#4B612C;}
	.st2{fill:#759C3E;}
</style><g
     id="Layer_1_1_"
     transform="matrix(1.3888889,0,0,1.3888889,-6.4944442,-32.16111)" /><g
     id="nyt_x5F_exporter_x5F_info"
     class="st0" /><g
     id="CloudTrail"
     transform="matrix(1.3888889,0,0,1.3888889,-23.194446,-17.638889)"><g
       id="Deployments"><g
         id="g9"><polygon
           class="st1"
           points="16.7,62.7 32.7,82.7 48.7,62.7 "
           id="polygon11"
           style="fill:#4b612c" /><rect
           x="16.700001"
           y="58.700001"
           class="st1"
           width="32"
           height="4"
           id="rect13"
           style="fill:#4b612c" /><polygon
           class="st1"
           points="56.7,62.7 72.7,82.7 88.7,62.7 "
           id="polygon15"
           style="fill:#4b612c" /><g
           id="g17"><polygon
             class="st1"
             points="46.7,18.7 48.7,28.7 28.7,48.7 28.7,62.7 36.7,62.7 36.7,52.7 52.7,36.7 52.7,36.7 68.7,52.7 68.7,62.7 76.7,62.7 76.7,48.7 56.7,28.7 58.7,18.7 "
             id="polygon19"
             style="fill:#4b612c" /></g><rect
           x="56.700001"
           y="58.700001"
           class="st1"
           width="32"
           height="4"
           id="rect21"
           style="fill:#4b612c" /></g><g
         id="g23"><polygon
           class="st2"
           points="16.7,58.7 32.7,78.7 48.7,58.7 "
           id="polygon25"
           style="fill:#759c3e" /><polygon
           class="st2"
           points="56.7,58.7 72.7,78.7 88.7,58.7 "
           id="polygon27"
           style="fill:#759c3e" /><g
           id="g29"><polygon
             class="st2"
             points="46.7,14.7 46.7,25.7 27.7,44.7 27.7,58.7 37.7,58.7 37.7,48.7 52.7,32.7 52.7,32.7 67.7,48.7 67.7,58.7 77.7,58.7 77.7,44.7 58.7,25.7 58.7,14.7 "
             id="polygon31"
             style="fill:#759c3e" /></g></g></g></g></svg>