<?xml version="1.0" encoding="UTF-8" standalone="no"?>
<!-- Generator: Adobe Illustrator 19.1.0, SVG Export Plug-In . SVG Version: 6.00 Build 0)  -->

<svg
   xmlns:dc="http://purl.org/dc/elements/1.1/"
   xmlns:cc="http://creativecommons.org/ns#"
   xmlns:rdf="http://www.w3.org/1999/02/22-rdf-syntax-ns#"
   xmlns:svg="http://www.w3.org/2000/svg"
   xmlns="http://www.w3.org/2000/svg"
   xmlns:sodipodi="http://sodipodi.sourceforge.net/DTD/sodipodi-0.dtd"
   xmlns:inkscape="http://www.inkscape.org/namespaces/inkscape"
   version="1.1"
   id="Layer_1"
   x="0px"
   y="0px"
   viewBox="0 0 100 100"
   style="enable-background:new 0 0 100 100;"
   xml:space="preserve"
   inkscape:version="0.91 r13725"
   sodipodi:docname="ManagementTools_ServiceCatalog.svg"><metadata
     id="metadata53"><rdf:RDF><cc:Work
         rdf:about=""><dc:format>image/svg+xml</dc:format><dc:type
           rdf:resource="http://purl.org/dc/dcmitype/StillImage" /></cc:Work></rdf:RDF></metadata><defs
     id="defs51" /><sodipodi:namedview
     pagecolor="#ffffff"
     bordercolor="#666666"
     borderopacity="1"
     objecttolerance="10"
     gridtolerance="10"
     guidetolerance="10"
     inkscape:pageopacity="0"
     inkscape:pageshadow="2"
     inkscape:window-width="1280"
     inkscape:window-height="985"
     id="namedview49"
     showgrid="false"
     inkscape:zoom="7.4579687"
     inkscape:cx="50.26817"
     inkscape:cy="50"
     inkscape:window-x="0"
     inkscape:window-y="0"
     inkscape:window-maximized="1"
     inkscape:current-layer="Layer_1" /><style
     type="text/css"
     id="style3">
	.st0{fill:#3D4A2A;}
	.st1{fill:#B7CA9D;}
	.st2{fill:#4C622C;}
	.st3{fill:#769C3E;}
</style><g
     id="g3381"
     transform="translate(-11.588889,13.5)"><polygon
       style="fill:#3d4a2a"
       transform="matrix(1.3888889,0,0,1.3888889,-7.8555556,-33.638889)"
       id="polygon5"
       points="72.2,42.7 68.2,42.1 76.1,41.3 79.8,42.1 "
       class="st0" /><polygon
       style="fill:#b7ca9d"
       transform="matrix(1.3888889,0,0,1.3888889,-7.8555556,-33.638889)"
       id="polygon7"
       points="71.9,58.2 67.6,58.9 75.9,59.6 79.8,58.9 "
       class="st1" /><polygon
       style="fill:#b7ca9d"
       transform="matrix(1.3888889,0,0,1.3888889,-7.8555556,-33.638889)"
       id="polygon9"
       points="63.5,59.5 57.2,60.4 66.4,61.6 72.4,60.4 "
       class="st1" /><polygon
       style="fill:#4c622c"
       transform="matrix(1.3888889,0,0,1.3888889,-7.8555556,-33.638889)"
       id="polygon11"
       points="62.6,59.5 62.6,41.2 71.4,40.2 71.4,60.4 "
       class="st2" /><polygon
       style="fill:#3d4a2a"
       transform="matrix(1.3888889,0,0,1.3888889,-7.8555556,-33.638889)"
       id="polygon13"
       points="64.1,41.2 58,40.2 67,39.1 72.8,40.2 "
       class="st0" /><polygon
       style="fill:#769c3e"
       transform="matrix(1.3888889,0,0,1.3888889,-7.8555556,-33.638889)"
       id="polygon15"
       points="65.9,33.6 65.9,67.3 58.9,69.4 58.9,31.5 "
       class="st3" /><polygon
       style="fill:#769c3e"
       transform="matrix(1.3888889,0,0,1.3888889,-7.8555556,-33.638889)"
       id="polygon17"
       points="76,64.3 76,36.7 71.4,35.3 71.4,65.6 "
       class="st3" /><polygon
       style="fill:#4c622c"
       transform="matrix(1.3888889,0,0,1.3888889,-7.8555556,-33.638889)"
       id="polygon19"
       points="49.9,39.2 49.9,61.6 58.9,63 58.9,37.8 "
       class="st2" /><polygon
       style="fill:#769c3e"
       transform="matrix(1.3888889,0,0,1.3888889,-7.8555556,-33.638889)"
       id="polygon21"
       points="50,36.1 50,14.5 79.8,29.4 79.8,42.1 "
       class="st3" /><polygon
       style="fill:#769c3e"
       transform="matrix(1.3888889,0,0,1.3888889,-7.8555556,-33.638889)"
       id="polygon23"
       points="79.8,71.5 79.8,58.9 50,64.8 50,86.5 "
       class="st3" /><polygon
       style="fill:#3d4a2a"
       transform="matrix(1.3888889,0,0,1.3888889,-7.8555556,-33.638889)"
       id="polygon25"
       points="27.7,42.7 31.7,42.1 23.8,41.3 20.2,42.1 "
       class="st0" /><polygon
       style="fill:#b7ca9d"
       transform="matrix(1.3888889,0,0,1.3888889,-7.8555556,-33.638889)"
       id="polygon27"
       points="28.1,58.2 32.3,58.9 24.1,59.6 20.2,58.9 "
       class="st1" /><polygon
       style="fill:#b7ca9d"
       transform="matrix(1.3888889,0,0,1.3888889,-7.8555556,-33.638889)"
       id="polygon29"
       points="36.5,59.5 42.8,60.4 33.5,61.6 27.5,60.4 "
       class="st1" /><polygon
       style="fill:#769c3e"
       transform="matrix(1.3888889,0,0,1.3888889,-7.8555556,-33.638889)"
       id="polygon31"
       points="37.3,59.5 37.3,41.2 28.5,40.2 28.5,60.4 "
       class="st3" /><polygon
       style="fill:#3d4a2a"
       transform="matrix(1.3888889,0,0,1.3888889,-7.8555556,-33.638889)"
       id="polygon33"
       points="35.9,41.2 42,40.2 33,39.1 27.2,40.2 "
       class="st0" /><polygon
       style="fill:#4c622c"
       transform="matrix(1.3888889,0,0,1.3888889,-7.8555556,-33.638889)"
       id="polygon35"
       points="34.1,33.6 34.1,67.3 41.1,69.4 41.1,31.5 "
       class="st2" /><polygon
       style="fill:#4c622c"
       transform="matrix(1.3888889,0,0,1.3888889,-7.8555556,-33.638889)"
       id="polygon37"
       points="24,64.3 24,36.7 28.5,35.3 28.5,65.6 "
       class="st2" /><polygon
       style="fill:#769c3e"
       transform="matrix(1.3888889,0,0,1.3888889,-7.8555556,-33.638889)"
       id="polygon39"
       points="50,39.2 50,61.6 41.1,63 41.1,37.8 "
       class="st3" /><polygon
       style="fill:#4c622c"
       transform="matrix(1.3888889,0,0,1.3888889,-7.8555556,-33.638889)"
       id="polygon41"
       points="50,36.1 50,14.5 20.2,29.4 20.2,42.1 "
       class="st2" /><polygon
       style="fill:#4c622c"
       transform="matrix(1.3888889,0,0,1.3888889,-7.8555556,-33.638889)"
       id="polygon43"
       points="20.2,71.5 20.2,58.9 50,64.8 50,86.5 "
       class="st2" /><polygon
       style="fill:#3d4a2a"
       transform="matrix(1.3888889,0,0,1.3888889,-7.8555556,-33.638889)"
       id="polygon45"
       points="50,36 58.9,37.8 50,39.2 41.1,37.8 "
       class="st0" /><polygon
       style="fill:#b7ca9d"
       transform="matrix(1.3888889,0,0,1.3888889,-7.8555556,-33.638889)"
       id="polygon47"
       points="50.1,64.8 59.1,63 50.1,61.6 41.1,63 "
       class="st1" /></g></svg>