<?xml version="1.0" encoding="UTF-8" standalone="no"?>
<!-- Generator: Adobe Illustrator 19.0.0, SVG Export Plug-In . SVG Version: 6.00 Build 0)  -->

<svg
   xmlns:dc="http://purl.org/dc/elements/1.1/"
   xmlns:cc="http://creativecommons.org/ns#"
   xmlns:rdf="http://www.w3.org/1999/02/22-rdf-syntax-ns#"
   xmlns:svg="http://www.w3.org/2000/svg"
   xmlns="http://www.w3.org/2000/svg"
   xmlns:sodipodi="http://sodipodi.sourceforge.net/DTD/sodipodi-0.dtd"
   xmlns:inkscape="http://www.inkscape.org/namespaces/inkscape"
   version="1.1"
   id="Layer_1"
   x="0px"
   y="0px"
   viewBox="0 0 100 100"
   style="enable-background:new 0 0 100 100;"
   xml:space="preserve"
   inkscape:version="0.91 r13725"
   sodipodi:docname="DeploymentManagement_CodePipeline.svg"><metadata
     id="metadata37"><rdf:RDF><cc:Work
         rdf:about=""><dc:format>image/svg+xml</dc:format><dc:type
           rdf:resource="http://purl.org/dc/dcmitype/StillImage" /></cc:Work></rdf:RDF></metadata><defs
     id="defs35" /><sodipodi:namedview
     pagecolor="#ffffff"
     bordercolor="#666666"
     borderopacity="1"
     objecttolerance="10"
     gridtolerance="10"
     guidetolerance="10"
     inkscape:pageopacity="0"
     inkscape:pageshadow="2"
     inkscape:window-width="1280"
     inkscape:window-height="985"
     id="namedview33"
     showgrid="false"
     inkscape:zoom="7.4579687"
     inkscape:cx="50.26817"
     inkscape:cy="50"
     inkscape:window-x="0"
     inkscape:window-y="0"
     inkscape:window-maximized="1"
     inkscape:current-layer="Layer_1" /><style
     type="text/css"
     id="style3">
	.st0{fill:#4C622C;}
	.st1{fill:#769C3E;}
	.st2{fill:#3D4A2A;}
	.st3{fill:#B7CA9D;}
</style><g
     id="g3365"
     transform="matrix(1.3888889,0,0,1.3888889,-18.472223,-20.138889)"><polygon
       id="polygon5"
       points="39.8,33.6 39.8,40.3 70.8,35.3 70.8,25.2 "
       class="st0"
       style="fill:#4c622c" /><polygon
       id="polygon7"
       points="79.1,46.2 79.1,54.7 49.3,57.7 49.3,43.3 "
       class="st1"
       style="fill:#769c3e" /><polygon
       id="polygon9"
       points="19.5,37.8 19.5,29.4 49.3,14.5 49.3,28.9 "
       class="st0"
       style="fill:#4c622c" /><polygon
       id="polygon11"
       points="19.5,46.2 19.5,54.7 49.3,57.7 49.3,43.3 "
       class="st0"
       style="fill:#4c622c" /><polygon
       id="polygon13"
       points="65.2,22.4 65.2,33.6 49.3,28.9 49.3,14.5 "
       class="st1"
       style="fill:#769c3e" /><polygon
       id="polygon15"
       points="34,39.6 19.5,37.8 49.3,28.9 65.2,33.6 "
       class="st2"
       style="fill:#3d4a2a" /><polygon
       id="polygon17"
       points="70.8,35.3 70.8,25.2 79.1,29.4 79.1,37.8 "
       class="st1"
       style="fill:#769c3e" /><polygon
       id="polygon19"
       points="39.8,40.3 49.3,41.5 79.1,37.8 70.8,35.3 "
       class="st2"
       style="fill:#3d4a2a" /><polygon
       id="polygon21"
       points="58.9,67.3 58.9,60.6 27.9,65.6 27.9,75.7 "
       class="st1"
       style="fill:#769c3e" /><polygon
       id="polygon23"
       points="79.1,63.1 79.1,71.5 49.3,86.5 49.3,72.1 "
       class="st1"
       style="fill:#769c3e" /><polygon
       id="polygon25"
       points="33.5,78.5 33.5,67.3 49.3,72.1 49.3,86.5 "
       class="st0"
       style="fill:#4c622c" /><polygon
       id="polygon27"
       points="64.7,61.3 79.1,63.1 49.3,72.1 33.5,67.3 "
       class="st3"
       style="fill:#b7ca9d" /><polygon
       id="polygon29"
       points="27.9,65.6 27.9,75.7 19.5,71.5 19.5,63.1 "
       class="st0"
       style="fill:#4c622c" /><polygon
       id="polygon31"
       points="58.9,60.6 49.3,59.4 19.5,63.1 27.9,65.6 "
       class="st3"
       style="fill:#b7ca9d" /></g></svg>