<?xml version="1.0" encoding="UTF-8" standalone="no"?>
<!-- Generator: Adobe Illustrator 19.1.0, SVG Export Plug-In . SVG Version: 6.00 Build 0)  -->

<svg
   xmlns:dc="http://purl.org/dc/elements/1.1/"
   xmlns:cc="http://creativecommons.org/ns#"
   xmlns:rdf="http://www.w3.org/1999/02/22-rdf-syntax-ns#"
   xmlns:svg="http://www.w3.org/2000/svg"
   xmlns="http://www.w3.org/2000/svg"
   xmlns:sodipodi="http://sodipodi.sourceforge.net/DTD/sodipodi-0.dtd"
   xmlns:inkscape="http://www.inkscape.org/namespaces/inkscape"
   version="1.1"
   id="Layer_1"
   x="0px"
   y="0px"
   viewBox="0 0 100 100"
   style="enable-background:new 0 0 100 100;"
   xml:space="preserve"
   inkscape:version="0.91 r13725"
   sodipodi:docname="ManagementTools_CloudWatch.svg"><metadata
     id="metadata834"><rdf:RDF><cc:Work
         rdf:about=""><dc:format>image/svg+xml</dc:format><dc:type
           rdf:resource="http://purl.org/dc/dcmitype/StillImage" /></cc:Work></rdf:RDF></metadata><defs
     id="defs832" /><sodipodi:namedview
     pagecolor="#ffffff"
     bordercolor="#666666"
     borderopacity="1"
     objecttolerance="10"
     gridtolerance="10"
     guidetolerance="10"
     inkscape:pageopacity="0"
     inkscape:pageshadow="2"
     inkscape:window-width="1280"
     inkscape:window-height="985"
     id="namedview830"
     showgrid="false"
     inkscape:zoom="7.4579687"
     inkscape:cx="50.26817"
     inkscape:cy="50"
     inkscape:window-x="0"
     inkscape:window-y="0"
     inkscape:window-maximized="1"
     inkscape:current-layer="Layer_1" /><style
     type="text/css"
     id="style3">
	.st0{fill:#B7CA9D;}
	.st1{fill:#759C3E;}
	.st2{fill:#4B612C;}
	.st3{display:none;}
	.st4{display:inline;}
	.st5{font-family:'MyriadPro-Regular';}
	.st6{font-size:12px;}
</style><g
     id="Layer_1_1_"
     transform="matrix(1.3888889,0,0,1.3888889,-19.444445,-19.444445)"><g
       id="g6"><polygon
         class="st0"
         points="50,74.8 81.8,63.5 50,58.9 18.2,63.6 "
         id="polygon8"
         style="fill:#b7ca9d" /><polygon
         class="st1"
         points="65.9,23.9 65.9,62 40.5,67.9 40.5,14 "
         id="polygon10"
         style="fill:#759c3e" /><polygon
         class="st1"
         points="49,30.1 49,61.3 29.9,64.7 29.9,25.9 "
         id="polygon12"
         style="fill:#759c3e" /><polygon
         class="st2"
         points="43.2,54.2 43.2,68.7 50,70.7 50,54.9 "
         id="polygon14"
         style="fill:#4b612c" /><polygon
         class="st2"
         points="40.5,14 40.5,67.9 33.1,65.6 33.1,17.7 "
         id="polygon16"
         style="fill:#4b612c" /><polygon
         class="st2"
         points="50,86 50,74.8 18.2,63.6 18.2,70.1 "
         id="polygon18"
         style="fill:#4b612c" /><polygon
         class="st1"
         points="81.8,63.5 81.8,70.1 50,86 50,74.8 "
         id="polygon20"
         style="fill:#759c3e" /><polygon
         class="st2"
         points="24.5,27.9 24.5,63 29.9,64.6 29.9,25.9 "
         id="polygon22"
         style="fill:#4b612c" /><polygon
         class="st1"
         points="72.9,63.8 72.9,52.7 50,54.9 50,70.7 "
         id="polygon24"
         style="fill:#759c3e" /><polygon
         class="st0"
         points="50,54.9 72.9,52.7 65.2,52.7 43.2,54.2 "
         id="polygon26"
         style="fill:#b7ca9d" /></g></g><g
     id="nyt_x5F_exporter_x5F_info"
     class="st3"><text
       transform="matrix(1 0 0 1 -191 0)"
       class="st4 st5 st6"
       id="text29">&lt;</text>
<text
       transform="matrix(1 0 0 1 -183.8481 0)"
       class="st4 st5 st6"
       id="text31">n</text>
<text
       transform="matrix(1 0 0 1 -177.3442 0)"
       class="st4 st5 st6"
       id="text33">y</text>
<text
       transform="matrix(1 0 0 1 -171.6924 0)"
       class="st4 st5 st6"
       id="text35">t</text>
<text
       transform="matrix(1 0 0 1 -167.7202 0)"
       class="st4 st5 st6"
       id="text37">_</text>
<text
       transform="matrix(1 0 0 1 -161.7202 0)"
       class="st4 st5 st6"
       id="text39">p</text>
<text
       transform="matrix(1 0 0 1 -154.8926 0)"
       class="st4 st5 st6"
       id="text41">r</text>
<text
       transform="matrix(1 0 0 1 -151.0889 0)"
       class="st4 st5 st6"
       id="text43">e</text>
<text
       transform="matrix(1 0 0 1 -145.0771 0)"
       class="st4 st5 st6"
       id="text45">f</text>
<text
       transform="matrix(1 0 0 1 -141.6812 0)"
       class="st4 st5 st6"
       id="text47">s</text>
<text
       transform="matrix(1 0 0 1 -136.9287 0)"
       class="st4 st5 st6"
       id="text49">&gt;</text>
<text
       transform="matrix(1 0 0 1 -191 14.3999)"
       class="st4 st5 st6"
       id="text51" />
<text
       transform="matrix(1 0 0 1 -188.4561 14.3999)"
       class="st4 st5 st6"
       id="text53" />
<text
       transform="matrix(1 0 0 1 -185.9121 14.3999)"
       class="st4 st5 st6"
       id="text55">&lt;</text>
<text
       transform="matrix(1 0 0 1 -178.7603 14.3999)"
       class="st4 st5 st6"
       id="text57">n</text>
<text
       transform="matrix(1 0 0 1 -172.2563 14.3999)"
       class="st4 st5 st6"
       id="text59">y</text>
<text
       transform="matrix(1 0 0 1 -166.6045 14.3999)"
       class="st4 st5 st6"
       id="text61">t</text>
<text
       transform="matrix(1 0 0 1 -162.6323 14.3999)"
       class="st4 st5 st6"
       id="text63">_</text>
<text
       transform="matrix(1 0 0 1 -156.6323 14.3999)"
       class="st4 st5 st6"
       id="text65">p</text>
<text
       transform="matrix(1 0 0 1 -149.8047 14.3999)"
       class="st4 st5 st6"
       id="text67">r</text>
<text
       transform="matrix(1 0 0 1 -146.001 14.3999)"
       class="st4 st5 st6"
       id="text69">e</text>
<text
       transform="matrix(1 0 0 1 -139.9883 14.3999)"
       class="st4 st5 st6"
       id="text71">f</text>
<text
       transform="matrix(1 0 0 1 -133.7119 14.3999)"
       class="st4 st5 st6"
       id="text73">i</text>
<text
       transform="matrix(1 0 0 1 -128.1562 14.3999)"
       class="st4 st5 st6"
       id="text75">x</text>
<text
       transform="matrix(1 0 0 1 -121.0039 14.3999)"
       class="st4 st5 st6"
       id="text77">&gt;</text>
<text
       transform="matrix(1 0 0 1 -113.8516 14.3999)"
       class="st4 st5 st6"
       id="text79">&lt;</text>
<text
       transform="matrix(1 0 0 1 24227 -8141)"
       class="st4 st5 st6"
       id="text81">/</text>
<text
       transform="matrix(1 0 0 1 -109.7354 14.3999)"
       class="st4 st5 st6"
       id="text83">n</text>
<text
       transform="matrix(1 0 0 1 -103.2314 14.3999)"
       class="st4 st5 st6"
       id="text85">y</text>
<text
       transform="matrix(1 0 0 1 -97.5791 14.3999)"
       class="st4 st5 st6"
       id="text87">t</text>
<text
       transform="matrix(1 0 0 1 -93.6074 14.3999)"
       class="st4 st5 st6"
       id="text89">_</text>
<text
       transform="matrix(1 0 0 1 -87.6074 14.3999)"
       class="st4 st5 st6"
       id="text91">p</text>
<text
       transform="matrix(1 0 0 1 -80.7793 14.3999)"
       class="st4 st5 st6"
       id="text93">r</text>
<text
       transform="matrix(1 0 0 1 -76.9756 14.3999)"
       class="st4 st5 st6"
       id="text95">e</text>
<text
       transform="matrix(1 0 0 1 -70.9639 14.3999)"
       class="st4 st5 st6"
       id="text97">f</text>
<text
       transform="matrix(1 0 0 1 -64.6875 14.3999)"
       class="st4 st5 st6"
       id="text99">i</text>
<text
       transform="matrix(1 0 0 1 -59.1318 14.3999)"
       class="st4 st5 st6"
       id="text101">x</text>
<text
       transform="matrix(1 0 0 1 130932 -8141)"
       class="st4 st5 st6"
       id="text103">&gt;</text>
<text
       transform="matrix(1 0 0 1 -191 28.7998)"
       class="st4 st5 st6"
       id="text105" />
<text
       transform="matrix(1 0 0 1 -188.4561 28.7998)"
       class="st4 st5 st6"
       id="text107" />
<text
       transform="matrix(1 0 0 1 -185.9121 28.7998)"
       class="st4 st5 st6"
       id="text109">&lt;</text>
<text
       transform="matrix(1 0 0 1 -178.7603 28.7998)"
       class="st4 st5 st6"
       id="text111">n</text>
<text
       transform="matrix(1 0 0 1 -172.2563 28.7998)"
       class="st4 st5 st6"
       id="text113">y</text>
<text
       transform="matrix(1 0 0 1 -166.6045 28.7998)"
       class="st4 st5 st6"
       id="text115">t</text>
<text
       transform="matrix(1 0 0 1 -162.6323 28.7998)"
       class="st4 st5 st6"
       id="text117">_</text>
<text
       transform="matrix(1 0 0 1 -156.6323 28.7998)"
       class="st4 st5 st6"
       id="text119">s</text>
<text
       transform="matrix(1 0 0 1 -151.8804 28.7998)"
       class="st4 st5 st6"
       id="text121">u</text>
<text
       transform="matrix(1 0 0 1 -145.2686 28.7998)"
       class="st4 st5 st6"
       id="text123">f</text>
<text
       transform="matrix(1 0 0 1 -135.4893 28.7998)"
       class="st4 st5 st6"
       id="text125">f</text>
<text
       transform="matrix(1 0 0 1 -129.9336 28.7998)"
       class="st4 st5 st6"
       id="text127">i</text>
<text
       transform="matrix(1 0 0 1 -122.7812 28.7998)"
       class="st4 st5 st6"
       id="text129">x</text>
<text
       transform="matrix(1 0 0 1 -115.6289 28.7998)"
       class="st4 st5 st6"
       id="text131">&gt;</text>
<text
       transform="matrix(1 0 0 1 0 -8141)"
       class="st4 st5 st6"
       id="text133">&lt;</text>
<text
       transform="matrix(1 0 0 1 0 -8141)"
       class="st4 st5 st6"
       id="text135">/</text>
<text
       transform="matrix(1 0 0 1 -111.5127 28.7998)"
       class="st4 st5 st6"
       id="text137">n</text>
<text
       transform="matrix(1 0 0 1 -105.0078 28.7998)"
       class="st4 st5 st6"
       id="text139">y</text>
<text
       transform="matrix(1 0 0 1 -99.3555 28.7998)"
       class="st4 st5 st6"
       id="text141">t</text>
<text
       transform="matrix(1 0 0 1 -95.3838 28.7998)"
       class="st4 st5 st6"
       id="text143">_</text>
<text
       transform="matrix(1 0 0 1 -89.3838 28.7998)"
       class="st4 st5 st6"
       id="text145">s</text>
<text
       transform="matrix(1 0 0 1 -84.6318 28.7998)"
       class="st4 st5 st6"
       id="text147">u</text>
<text
       transform="matrix(1 0 0 1 -78.0195 28.7998)"
       class="st4 st5 st6"
       id="text149">f</text>
<text
       transform="matrix(1 0 0 1 -68.2393 28.7998)"
       class="st4 st5 st6"
       id="text151">f</text>
<text
       transform="matrix(1 0 0 1 -62.6836 28.7998)"
       class="st4 st5 st6"
       id="text153">i</text>
<text
       transform="matrix(1 0 0 1 -122.7812 28.7998)"
       class="st4 st5 st6"
       id="text155">x</text>
<text
       transform="matrix(1 0 0 1 -115.6289 28.7998)"
       class="st4 st5 st6"
       id="text157">&gt;</text>
<text
       transform="matrix(1 0 0 1 -191 43.2002)"
       class="st4 st5 st6"
       id="text159" />
<text
       transform="matrix(1 0 0 1 -188.4561 43.2002)"
       class="st4 st5 st6"
       id="text161" />
<text
       transform="matrix(1 0 0 1 -185.9121 43.2002)"
       class="st4 st5 st6"
       id="text163">&lt;</text>
<text
       transform="matrix(1 0 0 1 -178.7603 43.2002)"
       class="st4 st5 st6"
       id="text165">n</text>
<text
       transform="matrix(1 0 0 1 -172.2563 43.2002)"
       class="st4 st5 st6"
       id="text167">y</text>
<text
       transform="matrix(1 0 0 1 -166.6045 43.2002)"
       class="st4 st5 st6"
       id="text169">t</text>
<text
       transform="matrix(1 0 0 1 -162.6323 43.2002)"
       class="st4 st5 st6"
       id="text171">_</text>
<text
       transform="matrix(1 0 0 1 -156.6323 43.2002)"
       class="st4 st5 st6"
       id="text173">b</text>
<text
       transform="matrix(1 0 0 1 -149.8047 43.2002)"
       class="st4 st5 st6"
       id="text175">a</text>
<text
       transform="matrix(1 0 0 1 -144.021 43.2002)"
       class="st4 st5 st6"
       id="text177">s</text>
<text
       transform="matrix(1 0 0 1 -139.2695 43.2002)"
       class="st4 st5 st6"
       id="text179">e</text>
<text
       transform="matrix(1 0 0 1 -133.2578 43.2002)"
       class="st4 st5 st6"
       id="text181">_</text>
<text
       transform="matrix(1 0 0 1 -127.2578 43.2002)"
       class="st4 st5 st6"
       id="text183">p</text>
<text
       transform="matrix(1 0 0 1 -120.4297 43.2002)"
       class="st4 st5 st6"
       id="text185">a</text>
<text
       transform="matrix(1 0 0 1 -114.6934 43.2002)"
       class="st4 st5 st6"
       id="text187">t</text>
<text
       transform="matrix(1 0 0 1 -110.7217 43.2002)"
       class="st4 st5 st6"
       id="text189">h</text>
<text
       transform="matrix(1 0 0 1 -104.0615 43.2002)"
       class="st4 st5 st6"
       id="text191">&gt;</text>
<text
       transform="matrix(1 0 0 1 -96.9092 43.2002)"
       class="st4 st5 st6"
       id="text193">~</text>
<text
       transform="matrix(1 0 0 1 -89.7568 43.2002)"
       class="st4 st5 st6"
       id="text195">/</text>
<text
       transform="matrix(1 0 0 1 -85.6406 43.2002)"
       class="st4 st5 st6"
       id="text197">D</text>
<text
       transform="matrix(1 0 0 1 -77.6006 43.2002)"
       class="st4 st5 st6"
       id="text199">e</text>
<text
       transform="matrix(1 0 0 1 -71.5889 43.2002)"
       class="st4 st5 st6"
       id="text201">s</text>
<text
       transform="matrix(1 0 0 1 -66.8369 43.2002)"
       class="st4 st5 st6"
       id="text203">k</text>
<text
       transform="matrix(1 0 0 1 -61.209 43.2002)"
       class="st4 st5 st6"
       id="text205">t</text>
<text
       transform="matrix(1 0 0 1 -57.3086 43.2002)"
       class="st4 st5 st6"
       id="text207">o</text>
<text
       transform="matrix(1 0 0 1 -50.7207 43.2002)"
       class="st4 st5 st6"
       id="text209">p</text>
<text
       transform="matrix(1 0 0 1 -43.8926 43.2002)"
       class="st4 st5 st6"
       id="text211">/</text>
<text
       transform="matrix(1 0 0 1 -39.7764 43.2002)"
       class="st4 st5 st6"
       id="text213">w</text>
<text
       transform="matrix(1 0 0 1 -30.9443 43.2002)"
       class="st4 st5 st6"
       id="text215">i</text>
<text
       transform="matrix(1 0 0 1 -28.1367 43.2002)"
       class="st4 st5 st6"
       id="text217">p</text>
<text
       transform="matrix(1 0 0 1 -21.3086 43.2002)"
       class="st4 st5 st6"
       id="text219">/</text>
<text
       transform="matrix(1 0 0 1 -17.1924 43.2002)"
       class="st4 st5 st6"
       id="text221">A</text>
<text
       transform="matrix(1 0 0 1 -9.8848 43.2002)"
       class="st4 st5 st6"
       id="text223">r</text>
<text
       transform="matrix(1 0 0 1 -6.0811 43.2002)"
       class="st4 st5 st6"
       id="text225">c</text>
<text
       transform="matrix(1 0 0 1 -0.7051 43.2002)"
       class="st4 st5 st6"
       id="text227">h</text>
<text
       transform="matrix(1 0 0 1 5.9551 43.2002)"
       class="st4 st5 st6"
       id="text229">i</text>
<text
       transform="matrix(1 0 0 1 8.7627 43.2002)"
       class="st4 st5 st6"
       id="text231">t</text>
<text
       transform="matrix(1 0 0 1 12.6621 43.2002)"
       class="st4 st5 st6"
       id="text233">e</text>
<text
       transform="matrix(1 0 0 1 18.6738 43.2002)"
       class="st4 st5 st6"
       id="text235">c</text>
<text
       transform="matrix(1 0 0 1 24.2061 43.2002)"
       class="st4 st5 st6"
       id="text237">t</text>
<text
       transform="matrix(1 0 0 1 28.1777 43.2002)"
       class="st4 st5 st6"
       id="text239">u</text>
<text
       transform="matrix(1 0 0 1 34.79 43.2002)"
       class="st4 st5 st6"
       id="text241">r</text>
<text
       transform="matrix(1 0 0 1 38.5938 43.2002)"
       class="st4 st5 st6"
       id="text243">e</text>
<text
       transform="matrix(1 0 0 1 44.6055 43.2002)"
       class="st4 st5 st6"
       id="text245">%</text>
<text
       transform="matrix(1 0 0 1 54.1094 43.2002)"
       class="st4 st5 st6"
       id="text247">2</text>
<text
       transform="matrix(1 0 0 1 60.2656 43.2002)"
       class="st4 st5 st6"
       id="text249">0</text>
<text
       transform="matrix(1 0 0 1 66.4219 43.2002)"
       class="st4 st5 st6"
       id="text251">I</text>
<text
       transform="matrix(1 0 0 1 69.29 43.2002)"
       class="st4 st5 st6"
       id="text253">c</text>
<text
       transform="matrix(1 0 0 1 74.5947 43.2002)"
       class="st4 st5 st6"
       id="text255">o</text>
<text
       transform="matrix(1 0 0 1 81.1826 43.2002)"
       class="st4 st5 st6"
       id="text257">n</text>
<text
       transform="matrix(1 0 0 1 87.8428 43.2002)"
       class="st4 st5 st6"
       id="text259">s</text>
<text
       transform="matrix(1 0 0 1 92.5947 43.2002)"
       class="st4 st5 st6"
       id="text261">%</text>
<text
       transform="matrix(1 0 0 1 102.0986 43.2002)"
       class="st4 st5 st6"
       id="text263">2</text>
<text
       transform="matrix(1 0 0 1 108.2549 43.2002)"
       class="st4 st5 st6"
       id="text265">0</text>
<text
       transform="matrix(1 0 0 1 114.4111 43.2002)"
       class="st4 st5 st6"
       id="text267">-</text>
<text
       transform="matrix(1 0 0 1 118.0947 43.2002)"
       class="st4 st5 st6"
       id="text269">%</text>
<text
       transform="matrix(1 0 0 1 127.5986 43.2002)"
       class="st4 st5 st6"
       id="text271">2</text>
<text
       transform="matrix(1 0 0 1 133.7549 43.2002)"
       class="st4 st5 st6"
       id="text273">0</text>
<text
       transform="matrix(1 0 0 1 139.9111 43.2002)"
       class="st4 st5 st6"
       id="text275">U</text>
<text
       transform="matrix(1 0 0 1 147.6748 43.2002)"
       class="st4 st5 st6"
       id="text277">p</text>
<text
       transform="matrix(1 0 0 1 154.5029 43.2002)"
       class="st4 st5 st6"
       id="text279">d</text>
<text
       transform="matrix(1 0 0 1 161.2705 43.2002)"
       class="st4 st5 st6"
       id="text281">a</text>
<text
       transform="matrix(1 0 0 1 167.0068 43.2002)"
       class="st4 st5 st6"
       id="text283">t</text>
<text
       transform="matrix(1 0 0 1 170.9062 43.2002)"
       class="st4 st5 st6"
       id="text285">e</text>
<text
       transform="matrix(1 0 0 1 176.918 43.2002)"
       class="st4 st5 st6"
       id="text287">%</text>
<text
       transform="matrix(1 0 0 1 186.4219 43.2002)"
       class="st4 st5 st6"
       id="text289">2</text>
<text
       transform="matrix(1 0 0 1 192.5781 43.2002)"
       class="st4 st5 st6"
       id="text291">0</text>
<text
       transform="matrix(1 0 0 1 198.7344 43.2002)"
       class="st4 st5 st6"
       id="text293">a</text>
<text
       transform="matrix(1 0 0 1 204.5186 43.2002)"
       class="st4 st5 st6"
       id="text295">l</text>
<text
       transform="matrix(1 0 0 1 207.3506 43.2002)"
       class="st4 st5 st6"
       id="text297">l</text>
<text
       transform="matrix(1 0 0 1 210.1826 43.2002)"
       class="st4 st5 st6"
       id="text299">%</text>
<text
       transform="matrix(1 0 0 1 219.6865 43.2002)"
       class="st4 st5 st6"
       id="text301">2</text>
<text
       transform="matrix(1 0 0 1 225.8428 43.2002)"
       class="st4 st5 st6"
       id="text303">0</text>
<text
       transform="matrix(1 0 0 1 231.999 43.2002)"
       class="st4 st5 st6"
       id="text305">c</text>
<text
       transform="matrix(1 0 0 1 237.375 43.2002)"
       class="st4 st5 st6"
       id="text307">u</text>
<text
       transform="matrix(1 0 0 1 243.9873 43.2002)"
       class="st4 st5 st6"
       id="text309">s</text>
<text
       transform="matrix(1 0 0 1 248.7393 43.2002)"
       class="st4 st5 st6"
       id="text311">t</text>
<text
       transform="matrix(1 0 0 1 252.6387 43.2002)"
       class="st4 st5 st6"
       id="text313">o</text>
<text
       transform="matrix(1 0 0 1 259.2266 43.2002)"
       class="st4 st5 st6"
       id="text315">m</text>
<text
       transform="matrix(1 0 0 1 269.2344 43.2002)"
       class="st4 st5 st6"
       id="text317">e</text>
<text
       transform="matrix(1 0 0 1 275.2461 43.2002)"
       class="st4 st5 st6"
       id="text319">r</text>
<text
       transform="matrix(1 0 0 1 279.1104 43.2002)"
       class="st4 st5 st6"
       id="text321">-</text>
<text
       transform="matrix(1 0 0 1 282.7939 43.2002)"
       class="st4 st5 st6"
       id="text323">f</text>
<text
       transform="matrix(1 0 0 1 286.2979 43.2002)"
       class="st4 st5 st6"
       id="text325">a</text>
<text
       transform="matrix(1 0 0 1 292.082 43.2002)"
       class="st4 st5 st6"
       id="text327">c</text>
<text
       transform="matrix(1 0 0 1 297.458 43.2002)"
       class="st4 st5 st6"
       id="text329">i</text>
<text
       transform="matrix(1 0 0 1 300.2656 43.2002)"
       class="st4 st5 st6"
       id="text331">n</text>
<text
       transform="matrix(1 0 0 1 306.9258 43.2002)"
       class="st4 st5 st6"
       id="text333">g</text>
<text
       transform="matrix(1 0 0 1 313.6338 43.2002)"
       class="st4 st5 st6"
       id="text335">%</text>
<text
       transform="matrix(1 0 0 1 323.1377 43.2002)"
       class="st4 st5 st6"
       id="text337">2</text>
<text
       transform="matrix(1 0 0 1 329.2939 43.2002)"
       class="st4 st5 st6"
       id="text339">0</text>
<text
       transform="matrix(1 0 0 1 335.4502 43.2002)"
       class="st4 st5 st6"
       id="text341">f</text>
<text
       transform="matrix(1 0 0 1 341.7266 43.2002)"
       class="st4 st5 st6"
       id="text343">i</text>
<text
       transform="matrix(1 0 0 1 344.5586 43.2002)"
       class="st4 st5 st6"
       id="text345">l</text>
<text
       transform="matrix(1 0 0 1 350.5703 43.2002)"
       class="st4 st5 st6"
       id="text347">e</text>
<text
       transform="matrix(1 0 0 1 355.3223 43.2002)"
       class="st4 st5 st6"
       id="text349">s</text>
<text
       transform="matrix(1 0 0 1 364.8262 43.2002)"
       class="st4 st5 st6"
       id="text351">%</text>
<text
       transform="matrix(1 0 0 1 370.9824 43.2002)"
       class="st4 st5 st6"
       id="text353">2</text>
<text
       transform="matrix(1 0 0 1 377.1387 43.2002)"
       class="st4 st5 st6"
       id="text355">0</text>
<text
       transform="matrix(1 0 0 1 -8332 -8141)"
       class="st4 st5 st6"
       id="text357">/</text>
<text
       transform="matrix(1 0 0 1 381.2549 43.2002)"
       class="st4 st5 st6"
       id="text359">A</text>
<text
       transform="matrix(1 0 0 1 387.9629 43.2002)"
       class="st4 st5 st6"
       id="text361">W</text>
<text
       transform="matrix(1 0 0 1 398.1152 43.2002)"
       class="st4 st5 st6"
       id="text363">S</text>
<text
       transform="matrix(1 0 0 1 404.0908 43.2002)"
       class="st4 st5 st6"
       id="text365">-</text>
<text
       transform="matrix(1 0 0 1 407.7744 43.2002)"
       class="st4 st5 st6"
       id="text367">S</text>
<text
       transform="matrix(1 0 0 1 413.6904 43.2002)"
       class="st4 st5 st6"
       id="text369">i</text>
<text
       transform="matrix(1 0 0 1 416.498 43.2002)"
       class="st4 st5 st6"
       id="text371">m</text>
<text
       transform="matrix(1 0 0 1 426.5059 43.2002)"
       class="st4 st5 st6"
       id="text373">p</text>
<text
       transform="matrix(1 0 0 1 433.334 43.2002)"
       class="st4 st5 st6"
       id="text375">l</text>
<text
       transform="matrix(1 0 0 1 436.166 43.2002)"
       class="st4 st5 st6"
       id="text377">e</text>
<text
       transform="matrix(1 0 0 1 442.5137 43.2002)"
       class="st4 st5 st6"
       id="text379">-</text>
<text
       transform="matrix(1 0 0 1 446.1973 43.2002)"
       class="st4 st5 st6"
       id="text381">I</text>
<text
       transform="matrix(1 0 0 1 449.0654 43.2002)"
       class="st4 st5 st6"
       id="text383">c</text>
<text
       transform="matrix(1 0 0 1 454.3701 43.2002)"
       class="st4 st5 st6"
       id="text385">o</text>
<text
       transform="matrix(1 0 0 1 460.958 43.2002)"
       class="st4 st5 st6"
       id="text387">n</text>
<text
       transform="matrix(1 0 0 1 467.6182 43.2002)"
       class="st4 st5 st6"
       id="text389">s</text>
<text
       transform="matrix(1 0 0 1 472.3701 43.2002)"
       class="st4 st5 st6"
       id="text391">%</text>
<text
       transform="matrix(1 0 0 1 481.874 43.2002)"
       class="st4 st5 st6"
       id="text393">2</text>
<text
       transform="matrix(1 0 0 1 488.0303 43.2002)"
       class="st4 st5 st6"
       id="text395">0</text>
<text
       transform="matrix(1 0 0 1 494.1865 43.2002)"
       class="st4 st5 st6"
       id="text397">2</text>
<text
       transform="matrix(1 0 0 1 500.3428 43.2002)"
       class="st4 st5 st6"
       id="text399">/</text>
<text
       transform="matrix(1 0 0 1 504.459 43.2002)"
       class="st4 st5 st6"
       id="text401">D</text>
<text
       transform="matrix(1 0 0 1 512.499 43.2002)"
       class="st4 st5 st6"
       id="text403">e</text>
<text
       transform="matrix(1 0 0 1 518.5107 43.2002)"
       class="st4 st5 st6"
       id="text405">p</text>
<text
       transform="matrix(1 0 0 1 525.3389 43.2002)"
       class="st4 st5 st6"
       id="text407">l</text>
<text
       transform="matrix(1 0 0 1 528.1709 43.2002)"
       class="st4 st5 st6"
       id="text409">o</text>
<text
       transform="matrix(1 0 0 1 534.6748 43.2002)"
       class="st4 st5 st6"
       id="text411">y</text>
<text
       transform="matrix(1 0 0 1 540.3271 43.2002)"
       class="st4 st5 st6"
       id="text413">m</text>
<text
       transform="matrix(1 0 0 1 550.335 43.2002)"
       class="st4 st5 st6"
       id="text415">e</text>
<text
       transform="matrix(1 0 0 1 556.3467 43.2002)"
       class="st4 st5 st6"
       id="text417">n</text>
<text
       transform="matrix(1 0 0 1 562.959 43.2002)"
       class="st4 st5 st6"
       id="text419">t</text>
<text
       transform="matrix(1 0 0 1 566.9307 43.2002)"
       class="st4 st5 st6"
       id="text421">%</text>
<text
       transform="matrix(1 0 0 1 576.4346 43.2002)"
       class="st4 st5 st6"
       id="text423">2</text>
<text
       transform="matrix(1 0 0 1 582.5908 43.2002)"
       class="st4 st5 st6"
       id="text425">0</text>
<text
       transform="matrix(1 0 0 1 588.7471 43.2002)"
       class="st4 st5 st6"
       id="text427">&amp;</text>
<text
       transform="matrix(1 0 0 1 596.0068 43.2002)"
       class="st4 st5 st6"
       id="text429">a</text>
<text
       transform="matrix(1 0 0 1 601.791 43.2002)"
       class="st4 st5 st6"
       id="text431">m</text>
<text
       transform="matrix(1 0 0 1 611.7988 43.2002)"
       class="st4 st5 st6"
       id="text433">p</text>
<text
       transform="matrix(1 0 0 1 618.627 43.2002)"
       class="st4 st5 st6"
       id="text435">;</text>
<text
       transform="matrix(1 0 0 1 621.1104 43.2002)"
       class="st4 st5 st6"
       id="text437">%</text>
<text
       transform="matrix(1 0 0 1 630.6143 43.2002)"
       class="st4 st5 st6"
       id="text439">2</text>
<text
       transform="matrix(1 0 0 1 636.7705 43.2002)"
       class="st4 st5 st6"
       id="text441">0</text>
<text
       transform="matrix(1 0 0 1 642.9268 43.2002)"
       class="st4 st5 st6"
       id="text443">M</text>
<text
       transform="matrix(1 0 0 1 652.6465 43.2002)"
       class="st4 st5 st6"
       id="text445">a</text>
<text
       transform="matrix(1 0 0 1 658.4297 43.2002)"
       class="st4 st5 st6"
       id="text447">n</text>
<text
       transform="matrix(1 0 0 1 665.0898 43.2002)"
       class="st4 st5 st6"
       id="text449">a</text>
<text
       transform="matrix(1 0 0 1 670.875 43.2002)"
       class="st4 st5 st6"
       id="text451">g</text>
<text
       transform="matrix(1 0 0 1 677.582 43.2002)"
       class="st4 st5 st6"
       id="text453">e</text>
<text
       transform="matrix(1 0 0 1 683.5938 43.2002)"
       class="st4 st5 st6"
       id="text455">m</text>
<text
       transform="matrix(1 0 0 1 693.6016 43.2002)"
       class="st4 st5 st6"
       id="text457">e</text>
<text
       transform="matrix(1 0 0 1 699.6133 43.2002)"
       class="st4 st5 st6"
       id="text459">n</text>
<text
       transform="matrix(1 0 0 1 706.2256 43.2002)"
       class="st4 st5 st6"
       id="text461">t</text>
<text
       transform="matrix(1 0 0 1 710.1973 43.2002)"
       class="st4 st5 st6"
       id="text463">/</text>
<text
       transform="matrix(1 0 0 1 714.3135 43.2002)"
       class="st4 st5 st6"
       id="text465">E</text>
<text
       transform="matrix(1 0 0 1 720.2178 43.2002)"
       class="st4 st5 st6"
       id="text467">P</text>
<text
       transform="matrix(1 0 0 1 726.6016 43.2002)"
       class="st4 st5 st6"
       id="text469">S</text>
<text
       transform="matrix(1 0 0 1 732.5176 43.2002)"
       class="st4 st5 st6"
       id="text471">&lt;</text>
<text
       transform="matrix(1 0 0 1 739.6699 43.2002)"
       class="st4 st5 st6"
       id="text473">/</text>
<text
       transform="matrix(1 0 0 1 743.7861 43.2002)"
       class="st4 st5 st6"
       id="text475">n</text>
<text
       transform="matrix(1 0 0 1 750.291 43.2002)"
       class="st4 st5 st6"
       id="text477">y</text>
<text
       transform="matrix(1 0 0 1 755.9434 43.2002)"
       class="st4 st5 st6"
       id="text479">t</text>
<text
       transform="matrix(1 0 0 1 759.915 43.2002)"
       class="st4 st5 st6"
       id="text481">_</text>
<text
       transform="matrix(1 0 0 1 765.915 43.2002)"
       class="st4 st5 st6"
       id="text483">b</text>
<text
       transform="matrix(1 0 0 1 772.7432 43.2002)"
       class="st4 st5 st6"
       id="text485">a</text>
<text
       transform="matrix(1 0 0 1 778.5273 43.2002)"
       class="st4 st5 st6"
       id="text487">s</text>
<text
       transform="matrix(1 0 0 1 783.2793 43.2002)"
       class="st4 st5 st6"
       id="text489">e</text>
<text
       transform="matrix(1 0 0 1 789.291 43.2002)"
       class="st4 st5 st6"
       id="text491">_</text>
<text
       transform="matrix(1 0 0 1 795.291 43.2002)"
       class="st4 st5 st6"
       id="text493">p</text>
<text
       transform="matrix(1 0 0 1 802.1191 43.2002)"
       class="st4 st5 st6"
       id="text495">a</text>
<text
       transform="matrix(1 0 0 1 807.8555 43.2002)"
       class="st4 st5 st6"
       id="text497">t</text>
<text
       transform="matrix(1 0 0 1 811.8271 43.2002)"
       class="st4 st5 st6"
       id="text499">h</text>
<text
       transform="matrix(1 0 0 1 818.4873 43.2002)"
       class="st4 st5 st6"
       id="text501">&gt;</text>
<text
       transform="matrix(1 0 0 1 -191 57.5996)"
       class="st4 st5 st6"
       id="text503" />
<text
       transform="matrix(1 0 0 1 -188.4561 57.5996)"
       class="st4 st5 st6"
       id="text505" />
<text
       transform="matrix(1 0 0 1 -185.9121 57.5996)"
       class="st4 st5 st6"
       id="text507">&lt;</text>
<text
       transform="matrix(1 0 0 1 -178.7603 57.5996)"
       class="st4 st5 st6"
       id="text509">n</text>
<text
       transform="matrix(1 0 0 1 -172.2563 57.5996)"
       class="st4 st5 st6"
       id="text511">y</text>
<text
       transform="matrix(1 0 0 1 -166.6045 57.5996)"
       class="st4 st5 st6"
       id="text513">t</text>
<text
       transform="matrix(1 0 0 1 -162.6323 57.5996)"
       class="st4 st5 st6"
       id="text515">_</text>
<text
       transform="matrix(1 0 0 1 -156.6323 57.5996)"
       class="st4 st5 st6"
       id="text517">s</text>
<text
       transform="matrix(1 0 0 1 -151.8804 57.5996)"
       class="st4 st5 st6"
       id="text519">c</text>
<text
       transform="matrix(1 0 0 1 -146.5044 57.5996)"
       class="st4 st5 st6"
       id="text521">a</text>
<text
       transform="matrix(1 0 0 1 -140.7202 57.5996)"
       class="st4 st5 st6"
       id="text523">l</text>
<text
       transform="matrix(1 0 0 1 -137.8887 57.5996)"
       class="st4 st5 st6"
       id="text525">i</text>
<text
       transform="matrix(1 0 0 1 -135.0811 57.5996)"
       class="st4 st5 st6"
       id="text527">n</text>
<text
       transform="matrix(1 0 0 1 -128.4209 57.5996)"
       class="st4 st5 st6"
       id="text529">g</text>
<text
       transform="matrix(1 0 0 1 -121.7129 57.5996)"
       class="st4 st5 st6"
       id="text531">&gt;</text>
<text
       transform="matrix(1 0 0 1 -114.5605 57.5996)"
       class="st4 st5 st6"
       id="text533">1</text>
<text
       transform="matrix(1 0 0 1 -108.4043 57.5996)"
       class="st4 st5 st6"
       id="text535">0</text>
<text
       transform="matrix(1 0 0 1 -102.248 57.5996)"
       class="st4 st5 st6"
       id="text537">0</text>
<text
       transform="matrix(1 0 0 1 -96.0918 57.5996)"
       class="st4 st5 st6"
       id="text539">&lt;</text>
<text
       transform="matrix(1 0 0 1 -88.9395 57.5996)"
       class="st4 st5 st6"
       id="text541">/</text>
<text
       transform="matrix(1 0 0 1 -84.8232 57.5996)"
       class="st4 st5 st6"
       id="text543">n</text>
<text
       transform="matrix(1 0 0 1 -78.3184 57.5996)"
       class="st4 st5 st6"
       id="text545">y</text>
<text
       transform="matrix(1 0 0 1 -72.666 57.5996)"
       class="st4 st5 st6"
       id="text547">t</text>
<text
       transform="matrix(1 0 0 1 -68.6943 57.5996)"
       class="st4 st5 st6"
       id="text549">_</text>
<text
       transform="matrix(1 0 0 1 -62.6943 57.5996)"
       class="st4 st5 st6"
       id="text551">s</text>
<text
       transform="matrix(1 0 0 1 -57.9424 57.5996)"
       class="st4 st5 st6"
       id="text553">c</text>
<text
       transform="matrix(1 0 0 1 -52.5664 57.5996)"
       class="st4 st5 st6"
       id="text555">a</text>
<text
       transform="matrix(1 0 0 1 -46.7822 57.5996)"
       class="st4 st5 st6"
       id="text557">l</text>
<text
       transform="matrix(1 0 0 1 -43.9502 57.5996)"
       class="st4 st5 st6"
       id="text559">i</text>
<text
       transform="matrix(1 0 0 1 -41.1426 57.5996)"
       class="st4 st5 st6"
       id="text561">n</text>
<text
       transform="matrix(1 0 0 1 -34.4824 57.5996)"
       class="st4 st5 st6"
       id="text563">g</text>
<text
       transform="matrix(1 0 0 1 -27.7744 57.5996)"
       class="st4 st5 st6"
       id="text565">&gt;</text>
<text
       transform="matrix(1 0 0 1 -191 72)"
       class="st4 st5 st6"
       id="text567" />
<text
       transform="matrix(1 0 0 1 -188.4561 72)"
       class="st4 st5 st6"
       id="text569" />
<text
       transform="matrix(1 0 0 1 -185.9121 72)"
       class="st4 st5 st6"
       id="text571">&lt;</text>
<text
       transform="matrix(1 0 0 1 -178.7603 72)"
       class="st4 st5 st6"
       id="text573">n</text>
<text
       transform="matrix(1 0 0 1 -172.2563 72)"
       class="st4 st5 st6"
       id="text575">y</text>
<text
       transform="matrix(1 0 0 1 -166.6045 72)"
       class="st4 st5 st6"
       id="text577">t</text>
<text
       transform="matrix(1 0 0 1 -162.6323 72)"
       class="st4 st5 st6"
       id="text579">_</text>
<text
       transform="matrix(1 0 0 1 -156.6323 72)"
       class="st4 st5 st6"
       id="text581">t</text>
<text
       transform="matrix(1 0 0 1 -152.6606 72)"
       class="st4 st5 st6"
       id="text583">r</text>
<text
       transform="matrix(1 0 0 1 -148.7969 72)"
       class="st4 st5 st6"
       id="text585">a</text>
<text
       transform="matrix(1 0 0 1 -143.0127 72)"
       class="st4 st5 st6"
       id="text587">n</text>
<text
       transform="matrix(1 0 0 1 -136.3525 72)"
       class="st4 st5 st6"
       id="text589">s</text>
<text
       transform="matrix(1 0 0 1 -131.6006 72)"
       class="st4 st5 st6"
       id="text591">p</text>
<text
       transform="matrix(1 0 0 1 -124.7725 72)"
       class="st4 st5 st6"
       id="text593">a</text>
<text
       transform="matrix(1 0 0 1 -118.9883 72)"
       class="st4 st5 st6"
       id="text595">r</text>
<text
       transform="matrix(1 0 0 1 -115.1846 72)"
       class="st4 st5 st6"
       id="text597">e</text>
<text
       transform="matrix(1 0 0 1 -109.1729 72)"
       class="st4 st5 st6"
       id="text599">n</text>
<text
       transform="matrix(1 0 0 1 -102.5127 72)"
       class="st4 st5 st6"
       id="text601">c</text>
<text
       transform="matrix(1 0 0 1 -96.9209 72)"
       class="st4 st5 st6"
       id="text603">y</text>
<text
       transform="matrix(1 0 0 1 -91.2686 72)"
       class="st4 st5 st6"
       id="text605">&gt;</text>
<text
       transform="matrix(1 0 0 1 -84.1162 72)"
       class="st4 st5 st6"
       id="text607">t</text>
<text
       transform="matrix(1 0 0 1 -80.1445 72)"
       class="st4 st5 st6"
       id="text609">r</text>
<text
       transform="matrix(1 0 0 1 -76.2207 72)"
       class="st4 st5 st6"
       id="text611">u</text>
<text
       transform="matrix(1 0 0 1 -69.6084 72)"
       class="st4 st5 st6"
       id="text613">e</text>
<text
       transform="matrix(1 0 0 1 -63.5967 72)"
       class="st4 st5 st6"
       id="text615">&lt;</text>
<text
       transform="matrix(1 0 0 1 -56.4443 72)"
       class="st4 st5 st6"
       id="text617">/</text>
<text
       transform="matrix(1 0 0 1 -52.3281 72)"
       class="st4 st5 st6"
       id="text619">n</text>
<text
       transform="matrix(1 0 0 1 -45.8232 72)"
       class="st4 st5 st6"
       id="text621">y</text>
<text
       transform="matrix(1 0 0 1 -40.1709 72)"
       class="st4 st5 st6"
       id="text623">t</text>
<text
       transform="matrix(1 0 0 1 -36.1992 72)"
       class="st4 st5 st6"
       id="text625">_</text>
<text
       transform="matrix(1 0 0 1 -30.1992 72)"
       class="st4 st5 st6"
       id="text627">t</text>
<text
       transform="matrix(1 0 0 1 -26.2275 72)"
       class="st4 st5 st6"
       id="text629">r</text>
<text
       transform="matrix(1 0 0 1 -22.3633 72)"
       class="st4 st5 st6"
       id="text631">a</text>
<text
       transform="matrix(1 0 0 1 -16.5801 72)"
       class="st4 st5 st6"
       id="text633">n</text>
<text
       transform="matrix(1 0 0 1 -9.9199 72)"
       class="st4 st5 st6"
       id="text635">s</text>
<text
       transform="matrix(1 0 0 1 -5.168 72)"
       class="st4 st5 st6"
       id="text637">p</text>
<text
       transform="matrix(1 0 0 1 1.6602 72)"
       class="st4 st5 st6"
       id="text639">a</text>
<text
       transform="matrix(1 0 0 1 7.4453 72)"
       class="st4 st5 st6"
       id="text641">r</text>
<text
       transform="matrix(1 0 0 1 11.249 72)"
       class="st4 st5 st6"
       id="text643">e</text>
<text
       transform="matrix(1 0 0 1 17.2607 72)"
       class="st4 st5 st6"
       id="text645">n</text>
<text
       transform="matrix(1 0 0 1 23.9209 72)"
       class="st4 st5 st6"
       id="text647">c</text>
<text
       transform="matrix(1 0 0 1 29.5127 72)"
       class="st4 st5 st6"
       id="text649">y</text>
<text
       transform="matrix(1 0 0 1 35.165 72)"
       class="st4 st5 st6"
       id="text651">&gt;</text>
<text
       transform="matrix(1 0 0 1 -191 86.4004)"
       class="st4 st5 st6"
       id="text653" />
<text
       transform="matrix(1 0 0 1 -188.4561 86.4004)"
       class="st4 st5 st6"
       id="text655" />
<text
       transform="matrix(1 0 0 1 -185.9121 86.4004)"
       class="st4 st5 st6"
       id="text657">&lt;</text>
<text
       transform="matrix(1 0 0 1 -178.7603 86.4004)"
       class="st4 st5 st6"
       id="text659">n</text>
<text
       transform="matrix(1 0 0 1 -172.2563 86.4004)"
       class="st4 st5 st6"
       id="text661">y</text>
<text
       transform="matrix(1 0 0 1 -166.6045 86.4004)"
       class="st4 st5 st6"
       id="text663">t</text>
<text
       transform="matrix(1 0 0 1 -162.6323 86.4004)"
       class="st4 st5 st6"
       id="text665">_</text>
<text
       transform="matrix(1 0 0 1 -156.6323 86.4004)"
       class="st4 st5 st6"
       id="text667">f</text>
<text
       transform="matrix(1 0 0 1 -153.2842 86.4004)"
       class="st4 st5 st6"
       id="text669">o</text>
<text
       transform="matrix(1 0 0 1 -146.6963 86.4004)"
       class="st4 st5 st6"
       id="text671">r</text>
<text
       transform="matrix(1 0 0 1 -142.7246 86.4004)"
       class="st4 st5 st6"
       id="text673">m</text>
<text
       transform="matrix(1 0 0 1 -132.7168 86.4004)"
       class="st4 st5 st6"
       id="text675">a</text>
<text
       transform="matrix(1 0 0 1 -126.9805 86.4004)"
       class="st4 st5 st6"
       id="text677">t</text>
<text
       transform="matrix(1 0 0 1 -123.0088 86.4004)"
       class="st4 st5 st6"
       id="text679">&gt;</text>
<text
       transform="matrix(1 0 0 1 -115.8564 86.4004)"
       class="st4 st5 st6"
       id="text681">E</text>
<text
       transform="matrix(1 0 0 1 -109.9521 86.4004)"
       class="st4 st5 st6"
       id="text683">P</text>
<text
       transform="matrix(1 0 0 1 -103.5684 86.4004)"
       class="st4 st5 st6"
       id="text685">S</text>
<text
       transform="matrix(1 0 0 1 -97.6523 86.4004)"
       class="st4 st5 st6"
       id="text687">&lt;</text>
<text
       transform="matrix(1 0 0 1 -90.5 86.4004)"
       class="st4 st5 st6"
       id="text689">/</text>
<text
       transform="matrix(1 0 0 1 -86.3838 86.4004)"
       class="st4 st5 st6"
       id="text691">n</text>
<text
       transform="matrix(1 0 0 1 -79.8799 86.4004)"
       class="st4 st5 st6"
       id="text693">y</text>
<text
       transform="matrix(1 0 0 1 -74.2275 86.4004)"
       class="st4 st5 st6"
       id="text695">t</text>
<text
       transform="matrix(1 0 0 1 -70.2559 86.4004)"
       class="st4 st5 st6"
       id="text697">_</text>
<text
       transform="matrix(1 0 0 1 -64.2559 86.4004)"
       class="st4 st5 st6"
       id="text699">f</text>
<text
       transform="matrix(1 0 0 1 -60.9072 86.4004)"
       class="st4 st5 st6"
       id="text701">o</text>
<text
       transform="matrix(1 0 0 1 -54.3193 86.4004)"
       class="st4 st5 st6"
       id="text703">r</text>
<text
       transform="matrix(1 0 0 1 -50.3477 86.4004)"
       class="st4 st5 st6"
       id="text705">m</text>
<text
       transform="matrix(1 0 0 1 -40.3398 86.4004)"
       class="st4 st5 st6"
       id="text707">a</text>
<text
       transform="matrix(1 0 0 1 -34.6035 86.4004)"
       class="st4 st5 st6"
       id="text709">t</text>
<text
       transform="matrix(1 0 0 1 -30.6318 86.4004)"
       class="st4 st5 st6"
       id="text711">&gt;</text>
<text
       transform="matrix(1 0 0 1 -191 100.7998)"
       class="st4 st5 st6"
       id="text713" />
<text
       transform="matrix(1 0 0 1 -188.4561 100.7998)"
       class="st4 st5 st6"
       id="text715" />
<text
       transform="matrix(1 0 0 1 -185.9121 100.7998)"
       class="st4 st5 st6"
       id="text717">&lt;</text>
<text
       transform="matrix(1 0 0 1 -178.7603 100.7998)"
       class="st4 st5 st6"
       id="text719">n</text>
<text
       transform="matrix(1 0 0 1 -172.2563 100.7998)"
       class="st4 st5 st6"
       id="text721">y</text>
<text
       transform="matrix(1 0 0 1 -166.6045 100.7998)"
       class="st4 st5 st6"
       id="text723">t</text>
<text
       transform="matrix(1 0 0 1 -162.6323 100.7998)"
       class="st4 st5 st6"
       id="text725">_</text>
<text
       transform="matrix(1 0 0 1 -156.6323 100.7998)"
       class="st4 st5 st6"
       id="text727">e</text>
<text
       transform="matrix(1 0 0 1 -150.6567 100.7998)"
       class="st4 st5 st6"
       id="text729">x</text>
<text
       transform="matrix(1 0 0 1 -145.1006 100.7998)"
       class="st4 st5 st6"
       id="text731">p</text>
<text
       transform="matrix(1 0 0 1 -138.2725 100.7998)"
       class="st4 st5 st6"
       id="text733">o</text>
<text
       transform="matrix(1 0 0 1 -131.6846 100.7998)"
       class="st4 st5 st6"
       id="text735">r</text>
<text
       transform="matrix(1 0 0 1 -127.4736 100.7998)"
       class="st4 st5 st6"
       id="text737">t</text>
<text
       transform="matrix(1 0 0 1 -123.502 100.7998)"
       class="st4 st5 st6"
       id="text739">_</text>
<text
       transform="matrix(1 0 0 1 -117.502 100.7998)"
       class="st4 st5 st6"
       id="text741">c</text>
<text
       transform="matrix(1 0 0 1 -112.1973 100.7998)"
       class="st4 st5 st6"
       id="text743">o</text>
<text
       transform="matrix(1 0 0 1 -105.6094 100.7998)"
       class="st4 st5 st6"
       id="text745">d</text>
<text
       transform="matrix(1 0 0 1 -98.8418 100.7998)"
       class="st4 st5 st6"
       id="text747">e</text>
<text
       transform="matrix(1 0 0 1 -92.8301 100.7998)"
       class="st4 st5 st6"
       id="text749">&gt;</text>
<text
       transform="matrix(1 0 0 1 -85.6777 100.7998)"
       class="st4 st5 st6"
       id="text751">a</text>
<text
       transform="matrix(1 0 0 1 -79.8936 100.7998)"
       class="st4 st5 st6"
       id="text753">r</text>
<text
       transform="matrix(1 0 0 1 -75.6816 100.7998)"
       class="st4 st5 st6"
       id="text755">t</text>
<text
       transform="matrix(1 0 0 1 -71.7109 100.7998)"
       class="st4 st5 st6"
       id="text757">b</text>
<text
       transform="matrix(1 0 0 1 -64.8828 100.7998)"
       class="st4 st5 st6"
       id="text759">o</text>
<text
       transform="matrix(1 0 0 1 -58.2949 100.7998)"
       class="st4 st5 st6"
       id="text761">a</text>
<text
       transform="matrix(1 0 0 1 -52.5098 100.7998)"
       class="st4 st5 st6"
       id="text763">r</text>
<text
       transform="matrix(1 0 0 1 -48.7061 100.7998)"
       class="st4 st5 st6"
       id="text765">d</text>
<text
       transform="matrix(1 0 0 1 -41.9385 100.7998)"
       class="st4 st5 st6"
       id="text767">s</text>
<text
       transform="matrix(1 0 0 1 -37.1865 100.7998)"
       class="st4 st5 st6"
       id="text769">&lt;</text>
<text
       transform="matrix(1 0 0 1 -30.0342 100.7998)"
       class="st4 st5 st6"
       id="text771">/</text>
<text
       transform="matrix(1 0 0 1 -25.918 100.7998)"
       class="st4 st5 st6"
       id="text773">n</text>
<text
       transform="matrix(1 0 0 1 -19.4141 100.7998)"
       class="st4 st5 st6"
       id="text775">y</text>
<text
       transform="matrix(1 0 0 1 -13.7617 100.7998)"
       class="st4 st5 st6"
       id="text777">t</text>
<text
       transform="matrix(1 0 0 1 -9.79 100.7998)"
       class="st4 st5 st6"
       id="text779">_</text>
<text
       transform="matrix(1 0 0 1 -3.79 100.7998)"
       class="st4 st5 st6"
       id="text781">e</text>
<text
       transform="matrix(1 0 0 1 2.1855 100.7998)"
       class="st4 st5 st6"
       id="text783">x</text>
<text
       transform="matrix(1 0 0 1 7.7412 100.7998)"
       class="st4 st5 st6"
       id="text785">p</text>
<text
       transform="matrix(1 0 0 1 14.5693 100.7998)"
       class="st4 st5 st6"
       id="text787">o</text>
<text
       transform="matrix(1 0 0 1 21.1572 100.7998)"
       class="st4 st5 st6"
       id="text789">r</text>
<text
       transform="matrix(1 0 0 1 25.3691 100.7998)"
       class="st4 st5 st6"
       id="text791">t</text>
<text
       transform="matrix(1 0 0 1 29.3408 100.7998)"
       class="st4 st5 st6"
       id="text793">_</text>
<text
       transform="matrix(1 0 0 1 35.3408 100.7998)"
       class="st4 st5 st6"
       id="text795">c</text>
<text
       transform="matrix(1 0 0 1 40.6445 100.7998)"
       class="st4 st5 st6"
       id="text797">o</text>
<text
       transform="matrix(1 0 0 1 47.2324 100.7998)"
       class="st4 st5 st6"
       id="text799">d</text>
<text
       transform="matrix(1 0 0 1 54 100.7998)"
       class="st4 st5 st6"
       id="text801">e</text>
<text
       transform="matrix(1 0 0 1 60.0117 100.7998)"
       class="st4 st5 st6"
       id="text803">&gt;</text>
<text
       transform="matrix(1 0 0 1 -191 115.2002)"
       class="st4 st5 st6"
       id="text805">&lt;</text>
<text
       transform="matrix(1 0 0 1 -183.8481 115.2002)"
       class="st4 st5 st6"
       id="text807">/</text>
<text
       transform="matrix(1 0 0 1 -179.7324 115.2002)"
       class="st4 st5 st6"
       id="text809">n</text>
<text
       transform="matrix(1 0 0 1 -173.228 115.2002)"
       class="st4 st5 st6"
       id="text811">y</text>
<text
       transform="matrix(1 0 0 1 -167.5762 115.2002)"
       class="st4 st5 st6"
       id="text813">t</text>
<text
       transform="matrix(1 0 0 1 -163.604 115.2002)"
       class="st4 st5 st6"
       id="text815">_</text>
<text
       transform="matrix(1 0 0 1 -157.604 115.2002)"
       class="st4 st5 st6"
       id="text817">p</text>
<text
       transform="matrix(1 0 0 1 -150.7764 115.2002)"
       class="st4 st5 st6"
       id="text819">r</text>
<text
       transform="matrix(1 0 0 1 -146.9727 115.2002)"
       class="st4 st5 st6"
       id="text821">e</text>
<text
       transform="matrix(1 0 0 1 -140.9609 115.2002)"
       class="st4 st5 st6"
       id="text823">f</text>
<text
       transform="matrix(1 0 0 1 -137.5654 115.2002)"
       class="st4 st5 st6"
       id="text825">s</text>
<text
       transform="matrix(1 0 0 1 -132.8135 115.2002)"
       class="st4 st5 st6"
       id="text827">&gt;</text>
</g><g
     id="CloudTrail"
     transform="matrix(1.3888889,0,0,1.3888889,-7.0777778,-33.444444)" /></svg>