<?xml version="1.0" encoding="UTF-8" standalone="no"?>
<!-- Generator: Adobe Illustrator 19.1.0, SVG Export Plug-In . SVG Version: 6.00 Build 0)  -->

<svg
   xmlns:dc="http://purl.org/dc/elements/1.1/"
   xmlns:cc="http://creativecommons.org/ns#"
   xmlns:rdf="http://www.w3.org/1999/02/22-rdf-syntax-ns#"
   xmlns:svg="http://www.w3.org/2000/svg"
   xmlns="http://www.w3.org/2000/svg"
   xmlns:sodipodi="http://sodipodi.sourceforge.net/DTD/sodipodi-0.dtd"
   xmlns:inkscape="http://www.inkscape.org/namespaces/inkscape"
   version="1.1"
   id="Layer_1"
   x="0px"
   y="0px"
   viewBox="0 0 100 100"
   style="enable-background:new 0 0 100 100;"
   xml:space="preserve"
   inkscape:version="0.91 r13725"
   sodipodi:docname="ManagementTools_CloudWatch_Alarm.svg"><metadata
     id="metadata72"><rdf:RDF><cc:Work
         rdf:about=""><dc:format>image/svg+xml</dc:format><dc:type
           rdf:resource="http://purl.org/dc/dcmitype/StillImage" /></cc:Work></rdf:RDF></metadata><defs
     id="defs70" /><sodipodi:namedview
     pagecolor="#ffffff"
     bordercolor="#666666"
     borderopacity="1"
     objecttolerance="10"
     gridtolerance="10"
     guidetolerance="10"
     inkscape:pageopacity="0"
     inkscape:pageshadow="2"
     inkscape:window-width="1280"
     inkscape:window-height="985"
     id="namedview68"
     showgrid="false"
     inkscape:zoom="7.4579687"
     inkscape:cx="50.26817"
     inkscape:cy="50"
     inkscape:window-x="0"
     inkscape:window-y="0"
     inkscape:window-maximized="1"
     inkscape:current-layer="Layer_1" /><style
     type="text/css"
     id="style3">
	.st0{fill:#759C3E;}
	.st1{fill:#4B612C;}
	.st2{fill:#EA2227;}
	.st3{fill:#8D090A;}
	.st4{display:none;}
</style><g
     id="Layer_1_1_"
     transform="matrix(1.7123288,0,0,1.7123288,-35.61644,-35.616439)"><g
       id="g6"><g
         id="g8"><g
           id="g10"><rect
             x="27.9"
             y="40.299999"
             class="st0"
             width="10.7"
             height="26.4"
             id="rect12"
             style="fill:#759c3e" /></g><g
           id="g14"><rect
             x="27.9"
             y="66.699997"
             class="st1"
             width="10.7"
             height="2.5999999"
             id="rect16"
             style="fill:#4b612c" /></g></g><g
         id="g18"><g
           id="g20"><rect
             x="44.799999"
             y="45.400002"
             class="st0"
             width="11.1"
             height="21.299999"
             id="rect22"
             style="fill:#759c3e" /></g><g
           id="g24"><rect
             x="44.799999"
             y="66.699997"
             class="st1"
             width="11.1"
             height="2.5999999"
             id="rect26"
             style="fill:#4b612c" /></g></g><g
         id="g28"><g
           id="g30"><path
             class="st0"
             d="m 72,37.2 0,29.5 -9.8,0 0,-29.4 c 0.1,0.1 1.9,1.3 4.8,1.3 1.5,0 3.2,-0.4 5,-1.4 z"
             id="path32"
             inkscape:connector-curvature="0"
             style="fill:#759c3e" /></g><g
           id="g34"><rect
             x="62.200001"
             y="66.699997"
             class="st1"
             width="9.8000002"
             height="2.5999999"
             id="rect36"
             style="fill:#4b612c" /></g></g><g
         id="g38"><g
           id="g40"><rect
             x="25.799999"
             y="70.900002"
             class="st0"
             width="48.400002"
             height="5.6999998"
             id="rect42"
             style="fill:#759c3e" /></g><g
           id="g44"><rect
             x="25.799999"
             y="76.599998"
             class="st1"
             width="48.400002"
             height="2.5999999"
             id="rect46"
             style="fill:#4b612c" /></g></g><g
         id="g48"><g
           id="g50"><path
             class="st2"
             d="m 66.8,20.8 c 3.6,0 6.5,2.9 6.5,6.5 0,3.6 -2.9,6.5 -6.5,6.5 -3.6,0 -6.5,-2.9 -6.5,-6.5 0,-3.6 2.9,-6.5 6.5,-6.5 z"
             id="path52"
             inkscape:connector-curvature="0"
             style="fill:#ea2227" /></g><g
           id="g54"><path
             class="st3"
             d="m 73.3,27.3 0,2.6 c 0,0.3 0,0.6 -0.1,0.9 l 0,-2.6 c 0.1,-0.3 0.1,-0.6 0.1,-0.9"
             id="path56"
             inkscape:connector-curvature="0"
             style="fill:#8d090a" /><path
             class="st3"
             d="m 73.2,28.2 0,2.6 c -0.1,0.4 -0.1,0.7 -0.2,1 l -0.7,-2.6 c 0.1,-0.3 0.9,-0.7 0.9,-1"
             id="path58"
             inkscape:connector-curvature="0"
             style="fill:#8d090a" /><path
             class="st3"
             d="m 73,29.2 0,2.6 c -0.1,0.4 -0.3,0.8 -0.5,1.1 l 0,-2.6 C 72.7,30 72.9,29.6 73,29.2"
             id="path60"
             inkscape:connector-curvature="0"
             style="fill:#8d090a" /><path
             class="st3"
             d="m 72.5,30.4 0,2.6 c -1.1,2 -3.3,3.4 -5.7,3.4 -3.6,0 -6.5,-2.9 -6.5,-6.5 l 0,-2.6 c 0,3.6 2.9,6.5 6.5,6.5 2.5,-0.1 4.6,-1.4 5.7,-3.4"
             id="path62"
             inkscape:connector-curvature="0"
             style="fill:#8d090a" /></g><path
           class="st3"
           d="m 73.3,27.3 0,2.6 c 0,3.6 -2.9,6.5 -6.5,6.5 -3.6,0 -6.5,-2.9 -6.5,-6.5 l 0,-2.6 c 0,3.6 2.9,6.5 6.5,6.5 3.6,-0.1 6.5,-3 6.5,-6.5 z"
           id="path64"
           inkscape:connector-curvature="0"
           style="fill:#8d090a" /></g></g></g><g
     id="nyt_x5F_exporter_x5F_info"
     class="st4" /><g
     id="CloudTrail"
     transform="matrix(1.7123288,0,0,1.7123288,-18.378083,-56.416441)" /></svg>