<?xml version="1.0" encoding="UTF-8" standalone="no"?>
<!-- Generator: Adobe Illustrator 19.1.0, SVG Export Plug-In . SVG Version: 6.00 Build 0)  -->

<svg
   xmlns:dc="http://purl.org/dc/elements/1.1/"
   xmlns:cc="http://creativecommons.org/ns#"
   xmlns:rdf="http://www.w3.org/1999/02/22-rdf-syntax-ns#"
   xmlns:svg="http://www.w3.org/2000/svg"
   xmlns="http://www.w3.org/2000/svg"
   xmlns:sodipodi="http://sodipodi.sourceforge.net/DTD/sodipodi-0.dtd"
   xmlns:inkscape="http://www.inkscape.org/namespaces/inkscape"
   version="1.1"
   id="Layer_1"
   x="0px"
   y="0px"
   viewBox="0 0 100 100"
   style="enable-background:new 0 0 100 100;"
   xml:space="preserve"
   inkscape:version="0.91 r13725"
   sodipodi:docname="Compute_ElasticLoadBalancing.svg"><metadata
     id="metadata53"><rdf:RDF><cc:Work
         rdf:about=""><dc:format>image/svg+xml</dc:format><dc:type
           rdf:resource="http://purl.org/dc/dcmitype/StillImage" /></cc:Work></rdf:RDF></metadata><defs
     id="defs51" /><sodipodi:namedview
     pagecolor="#ffffff"
     bordercolor="#666666"
     borderopacity="1"
     objecttolerance="10"
     gridtolerance="10"
     guidetolerance="10"
     inkscape:pageopacity="0"
     inkscape:pageshadow="2"
     inkscape:window-width="1280"
     inkscape:window-height="985"
     id="namedview49"
     showgrid="false"
     inkscape:zoom="7.4579687"
     inkscape:cx="50.26817"
     inkscape:cy="50"
     inkscape:window-x="0"
     inkscape:window-y="0"
     inkscape:window-maximized="1"
     inkscape:current-layer="Layer_1" /><style
     type="text/css"
     id="style3">
	.st0{fill:#F58435;}
	.st1{fill:#9D5025;}
	.st2{fill:#6B3B19;}
	.st3{fill:#FBBF92;}
</style><g
     id="g5"
     transform="matrix(1.2135922,0,0,1.2135922,-10.67961,-10.67961)"><polygon
       class="st0"
       points="72.7,28.2 72.7,71.6 37.2,84.6 37.2,15.2 "
       id="polygon7"
       style="fill:#f58435" /><polygon
       class="st0"
       points="27.3,26 27.3,74 19.3,75.8 19.3,24.2 "
       id="polygon9"
       style="fill:#f58435" /><polygon
       class="st0"
       points="37.2,23 37.2,77 27.3,79.8 27.3,20.2 "
       id="polygon11"
       style="fill:#f58435" /><polygon
       class="st1"
       points="32,82.2 32,17.8 37.2,15.2 37.2,84.8 "
       id="polygon13"
       style="fill:#9d5025" /><polygon
       class="st1"
       points="23.1,77.7 23.1,22.3 27.3,20.2 27.3,79.8 "
       id="polygon15"
       style="fill:#9d5025" /><polygon
       class="st1"
       points="19.3,75.8 19.3,24.2 15.9,25.9 15.9,74.1 "
       id="polygon17"
       style="fill:#9d5025" /><g
       id="g19"><polygon
         class="st1"
         points="43.2,42.4 50,41.7 50,8.8 43.2,12.2 "
         id="polygon21"
         style="fill:#9d5025" /><polygon
         class="st1"
         points="50,58.1 43.2,57.4 43.2,87.8 50,91.2 "
         id="polygon23"
         style="fill:#9d5025" /></g><g
       id="g25"><polygon
         class="st0"
         points="50,41.7 68.2,43.5 68.2,17.9 50,8.8 "
         id="polygon27"
         style="fill:#f58435" /><polygon
         class="st0"
         points="68.2,56.3 50,58.1 50,91.2 68.2,82.1 "
         id="polygon29"
         style="fill:#f58435" /></g><g
       id="g31"><polygon
         class="st0"
         points="74.4,44.1 84.1,45.1 84.1,25.9 74.4,21 "
         id="polygon33"
         style="fill:#f58435" /><polygon
         class="st0"
         points="84.1,54.7 74.4,55.7 74.4,79 84.1,74.1 "
         id="polygon35"
         style="fill:#f58435" /></g><polygon
       class="st2"
       points="50,41.7 68.2,43.5 61.5,43.9 43.2,42.4 "
       id="polygon37"
       style="fill:#6b3b19" /><polygon
       class="st3"
       points="49.7,58.1 68.2,56.3 61.9,55.9 43.2,57.4 "
       id="polygon39"
       style="fill:#fbbf92" /><polygon
       class="st1"
       points="70.1,44.4 70.1,22.1 74.4,21 74.4,44.1 "
       id="polygon41"
       style="fill:#9d5025" /><polygon
       class="st1"
       points="70.1,55.4 70.1,77.9 74.4,79 74.4,55.7 "
       id="polygon43"
       style="fill:#9d5025" /><polygon
       class="st3"
       points="74.4,55.7 84.1,54.7 80.2,54.5 70.1,55.4 "
       id="polygon45"
       style="fill:#fbbf92" /><polygon
       class="st2"
       points="74.4,44.1 84.1,45.1 80.2,45.3 70.1,44.4 "
       id="polygon47"
       style="fill:#6b3b19" /></g></svg>