<?xml version="1.0" encoding="UTF-8" standalone="no"?>
<!-- Generator: Adobe Illustrator 19.1.0, SVG Export Plug-In . SVG Version: 6.00 Build 0)  -->

<svg
   xmlns:dc="http://purl.org/dc/elements/1.1/"
   xmlns:cc="http://creativecommons.org/ns#"
   xmlns:rdf="http://www.w3.org/1999/02/22-rdf-syntax-ns#"
   xmlns:svg="http://www.w3.org/2000/svg"
   xmlns="http://www.w3.org/2000/svg"
   xmlns:xlink="http://www.w3.org/1999/xlink"
   xmlns:sodipodi="http://sodipodi.sourceforge.net/DTD/sodipodi-0.dtd"
   xmlns:inkscape="http://www.inkscape.org/namespaces/inkscape"
   version="1.1"
   id="Layer_1"
   x="0px"
   y="0px"
   viewBox="0 0 100 100"
   style="enable-background:new 0 0 100 100;"
   xml:space="preserve"
   inkscape:version="0.91 r13725"
   sodipodi:docname="StorageContentDelivery_AmazonCloudFront_StreamingDistribution.svg"><metadata
     id="metadata39"><rdf:RDF><cc:Work
         rdf:about=""><dc:format>image/svg+xml</dc:format><dc:type
           rdf:resource="http://purl.org/dc/dcmitype/StillImage" /></cc:Work></rdf:RDF></metadata><defs
     id="defs37" /><sodipodi:namedview
     pagecolor="#ffffff"
     bordercolor="#666666"
     borderopacity="1"
     objecttolerance="10"
     gridtolerance="10"
     guidetolerance="10"
     inkscape:pageopacity="0"
     inkscape:pageshadow="2"
     inkscape:window-width="1280"
     inkscape:window-height="985"
     id="namedview35"
     showgrid="false"
     inkscape:zoom="7.4579687"
     inkscape:cx="50.26817"
     inkscape:cy="50"
     inkscape:window-x="0"
     inkscape:window-y="0"
     inkscape:window-maximized="1"
     inkscape:current-layer="Layer_1" /><style
     type="text/css"
     id="style3">
	.st0{fill:#E05243;}
	.st1{clip-path:url(#SVGID_2_);enable-background:new    ;}
	.st2{fill:#8C3123;}
	.st3{fill:#FFFFFF;}
</style><g
     id="g5"
     transform="matrix(1.7513135,0,0,1.7513135,-37.565675,-37.653241)"><g
       id="g7"><path
         class="st0"
         d="m 50,21.5 c 15.2,0 27.5,12.2 27.5,27.3 C 77.5,63.9 65.2,76.1 50,76.1 34.8,76.1 22.5,63.9 22.5,48.8 22.5,33.7 34.8,21.5 50,21.5 Z"
         id="path9"
         inkscape:connector-curvature="0"
         style="fill:#e05243" /></g><g
       id="g11"><defs
         id="defs13"><path
           id="SVGID_1_"
           d="m 77.5,48.8 0,2.5 C 77.5,66.4 65.2,78.6 50,78.6 34.8,78.6 22.5,66.4 22.5,51.3 l 0,-2.5 c 0,15.1 12.3,27.3 27.5,27.3 15.2,0 27.5,-12.3 27.5,-27.3 z"
           inkscape:connector-curvature="0" /></defs><use
         xlink:href="#SVGID_1_"
         style="overflow:visible;fill:#8c3123"
         id="use16"
         x="0"
         y="0"
         width="100%"
         height="100%" /><clipPath
         id="SVGID_2_"><use
           xlink:href="#SVGID_1_"
           style="overflow:visible"
           id="use19"
           x="0"
           y="0"
           width="100%"
           height="100%" /></clipPath><g
         class="st1"
         id="g21"
         clip-path="url(#SVGID_2_)"
         style="enable-background:new"><path
           class="st2"
           d="m 77.5,48.8 0,2.5 c 0,1.4 -0.1,2.7 -0.3,4.1 l 0,-2.5 c 0.2,-1.4 0.3,-2.7 0.3,-4.1"
           id="path23"
           inkscape:connector-curvature="0"
           style="fill:#8c3123" /><path
           class="st2"
           d="m 77.2,52.8 0,2.5 c -0.2,1.6 -0.6,3.1 -1.1,4.5 l 0,-2.5 c 0.5,-1.4 0.9,-2.9 1.1,-4.5"
           id="path25"
           inkscape:connector-curvature="0"
           style="fill:#8c3123" /><path
           class="st2"
           d="m 76.1,57.4 0,2.5 c -0.6,1.7 -1.3,3.3 -2.2,4.9 l 0,-2.5 c 0.9,-1.6 1.6,-3.2 2.2,-4.9"
           id="path27"
           inkscape:connector-curvature="0"
           style="fill:#8c3123" /><path
           class="st2"
           d="m 73.9,62.3 0,2.5 C 69.2,73 60.2,78.5 50,78.5 34.8,78.5 22.5,66.3 22.5,51.2 l 0,-2.5 C 22.5,63.8 34.8,76 50,76 60.2,76.1 69.2,70.5 73.9,62.3"
           id="path29"
           inkscape:connector-curvature="0"
           style="fill:#8c3123" /></g></g><g
       id="g31"><path
         class="st3"
         d="m 57.1,26.5 -14.2,0 0,27.2 -10.2,0 17.3,17 17.3,-17 -10.2,0 0,-27.2 z M 62.5,55.6 50,68 37.5,55.7 l 7.4,0 0,-27.2 10.4,0 0,27.1 7.2,0 z"
         id="path33"
         inkscape:connector-curvature="0"
         style="fill:#ffffff" /></g></g></svg>