<?xml version="1.0" encoding="UTF-8" standalone="no"?>
<!-- Generator: Adobe Illustrator 19.1.0, SVG Export Plug-In . SVG Version: 6.00 Build 0)  -->

<svg
   xmlns:dc="http://purl.org/dc/elements/1.1/"
   xmlns:cc="http://creativecommons.org/ns#"
   xmlns:rdf="http://www.w3.org/1999/02/22-rdf-syntax-ns#"
   xmlns:svg="http://www.w3.org/2000/svg"
   xmlns="http://www.w3.org/2000/svg"
   xmlns:xlink="http://www.w3.org/1999/xlink"
   xmlns:sodipodi="http://sodipodi.sourceforge.net/DTD/sodipodi-0.dtd"
   xmlns:inkscape="http://www.inkscape.org/namespaces/inkscape"
   version="1.1"
   id="Layer_1"
   x="0px"
   y="0px"
   viewBox="0 0 100 100"
   style="enable-background:new 0 0 100 100;"
   xml:space="preserve"
   inkscape:version="0.91 r13725"
   sodipodi:docname="StorageContentDelivery_AmazonCloudFront_DownloadDistribution.svg"><metadata
     id="metadata39"><rdf:RDF><cc:Work
         rdf:about=""><dc:format>image/svg+xml</dc:format><dc:type
           rdf:resource="http://purl.org/dc/dcmitype/StillImage" /></cc:Work></rdf:RDF></metadata><defs
     id="defs37" /><sodipodi:namedview
     pagecolor="#ffffff"
     bordercolor="#666666"
     borderopacity="1"
     objecttolerance="10"
     gridtolerance="10"
     guidetolerance="10"
     inkscape:pageopacity="0"
     inkscape:pageshadow="2"
     inkscape:window-width="1280"
     inkscape:window-height="985"
     id="namedview35"
     showgrid="false"
     inkscape:zoom="7.4579687"
     inkscape:cx="50.26817"
     inkscape:cy="50"
     inkscape:window-x="0"
     inkscape:window-y="0"
     inkscape:window-maximized="1"
     inkscape:current-layer="Layer_1" /><style
     type="text/css"
     id="style3">
	.st0{fill:#E05243;}
	.st1{clip-path:url(#SVGID_2_);enable-background:new    ;}
	.st2{fill:#8C3123;}
	.st3{fill:#FFFFFF;}
</style><g
     id="g5"
     transform="matrix(1.7452007,0,0,1.7452007,-39.528796,-37.347295)"><g
       id="g7"><path
         class="st0"
         d="m 51.3,21.4 c 15.2,0 27.6,12.3 27.6,27.4 0,15.1 -12.4,27.4 -27.6,27.4 C 36.1,76.2 23.7,63.9 23.7,48.8 23.7,33.6 36,21.4 51.3,21.4 Z"
         id="path9"
         inkscape:connector-curvature="0"
         style="fill:#e05243" /></g><g
       id="g11"><defs
         id="defs13"><path
           id="SVGID_1_"
           d="m 78.9,48.8 0,2.5 C 78.9,66.4 66.5,78.7 51.3,78.7 36.1,78.7 23.7,66.4 23.7,51.3 l 0,-2.5 c 0,15.1 12.4,27.4 27.6,27.4 15.2,-0.1 27.6,-12.3 27.6,-27.4 z"
           inkscape:connector-curvature="0" /></defs><use
         xlink:href="#SVGID_1_"
         style="overflow:visible;fill:#8c3123"
         id="use16"
         x="0"
         y="0"
         width="100%"
         height="100%" /><clipPath
         id="SVGID_2_"><use
           xlink:href="#SVGID_1_"
           style="overflow:visible"
           id="use19"
           x="0"
           y="0"
           width="100%"
           height="100%" /></clipPath><g
         class="st1"
         id="g21"
         clip-path="url(#SVGID_2_)"
         style="enable-background:new"><path
           class="st2"
           d="m 78.9,48.8 0,2.5 c 0,1.4 -0.1,2.8 -0.3,4.1 l 0,-2.5 c 0.2,-1.4 0.3,-2.7 0.3,-4.1"
           id="path23"
           inkscape:connector-curvature="0"
           style="fill:#8c3123" /><path
           class="st2"
           d="m 78.6,52.8 0,2.5 c -0.2,1.6 -0.6,3.1 -1.1,4.5 l 0,-2.5 c 0.5,-1.4 0.8,-2.9 1.1,-4.5"
           id="path25"
           inkscape:connector-curvature="0"
           style="fill:#8c3123" /><path
           class="st2"
           d="m 77.5,57.4 0,2.5 c -0.6,1.7 -1.3,3.4 -2.2,4.9 l 0,-2.5 c 0.9,-1.6 1.6,-3.2 2.2,-4.9"
           id="path27"
           inkscape:connector-curvature="0"
           style="fill:#8c3123" /><path
           class="st2"
           d="m 75.3,62.3 0,2.5 C 70.6,73.1 61.6,78.6 51.3,78.6 36.1,78.6 23.7,66.3 23.7,51.2 l 0,-2.5 c 0,15.1 12.4,27.4 27.6,27.4 10.3,0 19.2,-5.5 24,-13.8"
           id="path29"
           inkscape:connector-curvature="0"
           style="fill:#8c3123" /></g></g><g
       id="g31"><path
         class="st3"
         d="m 62,53.3 2.4,0 0,2 -2.4,0 0,-2 z M 56.2,26 l 3,0 0,2.9 -2,0 0,-1 -1,0 0,-1.9 z m 1,16.6 0,-3.9 2,0 0,3.9 -2,0 z m 2,2.9 0,3.9 -2,0 0,-3.9 2,0 z m -2,-9.7 0,-3.9 2,0 0,3.9 -2,0 z m -7.9,-9.8 4,0 0,2 -4,0 0,-2 z m -5.9,0 3,0 0,2 -1,0 0,1 -2,0 0,-3 z m 0,5.9 2,0 0,3.9 -2,0 0,-3.9 z m 0,6.8 2,0 0,3.9 -2,0 0,-3.9 z m 0,6.9 2,0 0,3.9 -2,0 0,-3.9 z m -5.2,7.8 2.4,0 0,2 -2.4,0 0,-2 z m -1.7,1.7 0,0.2 -0.2,0 -1.1,1.1 -3.1,-3.1 4.4,0 0,1.5 0.1,0.1 -0.1,0.2 z M 41,62 37.7,58.8 39.1,57.4 42.4,60.6 41,62 Z m 1.4,-8.6 1,0 0,-1 2,0 0,2.9 -3,0 0,-1.9 z m 4.3,14.3 -3.3,-3.2 1.4,-1.4 3.3,3.2 -1.4,1.4 z m 4.6,4.4 -2.1,-2.1 1.4,-1.4 0.7,0.7 0.7,-0.7 1.4,1.4 -2.1,2.1 z m 4.5,-4.4 -1.4,-1.4 3.3,-3.2 1.4,1.4 -3.3,3.2 z m 4.4,-12.5 -3,0 0,-2.9 2,0 0,1 1,0 0,1.9 z m 1.4,6.8 -1.4,-1.4 3.3,-3.2 1.4,1.4 -3.3,3.2 z m 5.8,-5.7 -1.1,-1.1 -0.2,0 0,-0.2 -0.1,-0.1 0.1,-0.1 0,-1.5 4.4,0 -3.1,3 z"
         id="path33"
         inkscape:connector-curvature="0"
         style="fill:#ffffff" /></g></g></svg>