<?xml version="1.0" encoding="UTF-8" standalone="no"?>
<!-- Generator: Adobe Illustrator 19.1.0, SVG Export Plug-In . SVG Version: 6.00 Build 0)  -->

<svg
   xmlns:dc="http://purl.org/dc/elements/1.1/"
   xmlns:cc="http://creativecommons.org/ns#"
   xmlns:rdf="http://www.w3.org/1999/02/22-rdf-syntax-ns#"
   xmlns:svg="http://www.w3.org/2000/svg"
   xmlns="http://www.w3.org/2000/svg"
   xmlns:xlink="http://www.w3.org/1999/xlink"
   xmlns:sodipodi="http://sodipodi.sourceforge.net/DTD/sodipodi-0.dtd"
   xmlns:inkscape="http://www.inkscape.org/namespaces/inkscape"
   version="1.1"
   id="Layer_1"
   x="0px"
   y="0px"
   viewBox="0 0 100 100"
   style="enable-background:new 0 0 100 100;"
   xml:space="preserve"
   inkscape:version="0.91 r13725"
   sodipodi:docname="StorageContentDelivery_AmazonCloudFront_EdgeLocation.svg"><metadata
     id="metadata53"><rdf:RDF><cc:Work
         rdf:about=""><dc:format>image/svg+xml</dc:format><dc:type
           rdf:resource="http://purl.org/dc/dcmitype/StillImage" /></cc:Work></rdf:RDF></metadata><defs
     id="defs51" /><sodipodi:namedview
     pagecolor="#ffffff"
     bordercolor="#666666"
     borderopacity="1"
     objecttolerance="10"
     gridtolerance="10"
     guidetolerance="10"
     inkscape:pageopacity="0"
     inkscape:pageshadow="2"
     inkscape:window-width="1280"
     inkscape:window-height="985"
     id="namedview49"
     showgrid="false"
     inkscape:zoom="7.4579687"
     inkscape:cx="50.26817"
     inkscape:cy="50"
     inkscape:window-x="0"
     inkscape:window-y="0"
     inkscape:window-maximized="1"
     inkscape:current-layer="Layer_1" /><style
     type="text/css"
     id="style3">
	.st0{fill:#8C3123;}
	.st1{clip-path:url(#SVGID_2_);enable-background:new    ;}
	.st2{clip-path:url(#SVGID_4_);enable-background:new    ;}
	.st3{fill:#E05243;}
</style><g
     id="g3381"
     transform="matrix(1.7605635,0,0,1.7605635,-38.028175,-38.028172)"><g
       id="g5"><rect
         id="rect7"
         height="3.2"
         width="15.5"
         class="st0"
         y="38.400002"
         x="41.900002"
         style="fill:#8c3123" /></g><g
       id="g9"><defs
         id="defs11"><path
           d="m 76.1,48.3 0,3.2 C 71.5,49.4 65.3,47.4 57.4,46.8 l 0,-3.2 c 7.9,0.6 14.1,2.6 18.7,4.7 z"
           id="SVGID_1_"
           inkscape:connector-curvature="0" /></defs><use
         id="use14"
         style="overflow:visible;fill:#8c3123"
         xlink:href="#SVGID_1_"
         x="0"
         y="0"
         width="100%"
         height="100%" /><clipPath
         id="SVGID_2_"><use
           id="use17"
           style="overflow:visible"
           xlink:href="#SVGID_1_"
           x="0"
           y="0"
           width="100%"
           height="100%" /></clipPath><g
         clip-path="url(#SVGID_2_)"
         id="g19"
         class="st1"
         style="enable-background:new"><path
           id="path21"
           d="m 76.1,48.3 0,3.2 C 71.5,49.4 65.3,47.4 57.4,46.8 l 0,-3.2 c 7.9,0.6 14.1,2.6 18.7,4.7"
           class="st0"
           inkscape:connector-curvature="0"
           style="fill:#8c3123" /></g></g><g
       id="g23"><defs
         id="defs25"><path
           d="m 41.9,44 0,3.2 c -7.5,1.2 -13.6,3.7 -18,6 l 0,-3.2 c 4.4,-2.3 10.5,-4.8 18,-6 z"
           id="SVGID_3_"
           inkscape:connector-curvature="0" /></defs><use
         id="use28"
         style="overflow:visible;fill:#8c3123"
         xlink:href="#SVGID_3_"
         x="0"
         y="0"
         width="100%"
         height="100%" /><clipPath
         id="SVGID_4_"><use
           id="use31"
           style="overflow:visible"
           xlink:href="#SVGID_3_"
           x="0"
           y="0"
           width="100%"
           height="100%" /></clipPath><g
         clip-path="url(#SVGID_4_)"
         id="g33"
         class="st2"
         style="enable-background:new"><path
           id="path35"
           d="m 41.9,44 0,3.2 c -7.5,1.2 -13.6,3.7 -18,6 l 0,-3.2 c 4.4,-2.3 10.5,-4.8 18,-6"
           class="st0"
           inkscape:connector-curvature="0"
           style="fill:#8c3123" /></g></g><g
       id="g37"><path
         id="path39"
         d="m 76.1,21.6 0,28.5 0,-1.8 C 71.5,46.2 65.3,44.2 57.4,43.6 l 0,-5.1 -15.5,0 0,5.5 c -7.5,1.2 -13.6,3.7 -18,6 l 0,-28.4 52.2,0 z"
         class="st3"
         inkscape:connector-curvature="0"
         style="fill:#e05243" /></g><g
       id="g41"><path
         id="path43"
         d="m 57.4,48.9 c 7.9,0.7 14.1,2.7 18.7,4.8 l 0,21.5 -52.2,0 0,-20 c 4.3,-2.3 10.4,-4.7 18,-5.9 l 0,6.3 15.5,0 0,-6.7 z"
         class="st3"
         inkscape:connector-curvature="0"
         style="fill:#e05243" /></g><g
       id="g45"><rect
         id="rect47"
         height="3.2"
         width="52.200001"
         class="st0"
         y="75.199997"
         x="23.9"
         style="fill:#8c3123" /></g></g></svg>