<?xml version="1.0" encoding="UTF-8" standalone="no"?>
<!-- Generator: Adobe Illustrator 19.1.0, SVG Export Plug-In . SVG Version: 6.00 Build 0)  -->

<svg
   xmlns:dc="http://purl.org/dc/elements/1.1/"
   xmlns:cc="http://creativecommons.org/ns#"
   xmlns:rdf="http://www.w3.org/1999/02/22-rdf-syntax-ns#"
   xmlns:svg="http://www.w3.org/2000/svg"
   xmlns="http://www.w3.org/2000/svg"
   xmlns:sodipodi="http://sodipodi.sourceforge.net/DTD/sodipodi-0.dtd"
   xmlns:inkscape="http://www.inkscape.org/namespaces/inkscape"
   version="1.1"
   x="0px"
   y="0px"
   viewBox="0 0 100 100"
   style="enable-background:new 0 0 100 100;"
   xml:space="preserve"
   id="svg2"
   inkscape:version="0.91 r13725"
   sodipodi:docname="Database_AmazonRedShift_SolidStateDisks.svg"><metadata
     id="metadata188"><rdf:RDF><cc:Work
         rdf:about=""><dc:format>image/svg+xml</dc:format><dc:type
           rdf:resource="http://purl.org/dc/dcmitype/StillImage" /></cc:Work></rdf:RDF></metadata><defs
     id="defs186" /><sodipodi:namedview
     pagecolor="#ffffff"
     bordercolor="#666666"
     borderopacity="1"
     objecttolerance="10"
     gridtolerance="10"
     guidetolerance="10"
     inkscape:pageopacity="0"
     inkscape:pageshadow="2"
     inkscape:window-width="1280"
     inkscape:window-height="985"
     id="namedview184"
     showgrid="false"
     inkscape:zoom="7.4579687"
     inkscape:cx="50.26817"
     inkscape:cy="50"
     inkscape:window-x="0"
     inkscape:window-y="0"
     inkscape:window-maximized="1"
     inkscape:current-layer="svg2" /><style
     type="text/css"
     id="style4">
	.st0{fill:#2D72B8;}
	.st1{fill:#5294CF;}
	.st2{fill:#205B98;}
	.st3{fill:#1A476F;}
	.st4{enable-background:new    ;}
	.st5{fill:#FFFFFF;}
	.st6{clip-path:url(#SVGID_2_);enable-background:new    ;}
	.st7{clip-path:url(#SVGID_4_);enable-background:new    ;}
	.st8{clip-path:url(#SVGID_6_);enable-background:new    ;}
	.st9{clip-path:url(#SVGID_10_);enable-background:new    ;}
	.st10{clip-path:url(#SVGID_12_);enable-background:new    ;}
	.st11{clip-path:url(#SVGID_16_);enable-background:new    ;}
	.st12{clip-path:url(#SVGID_18_);enable-background:new    ;}
	.st13{clip-path:url(#SVGID_20_);enable-background:new    ;}
	.st14{clip-path:url(#SVGID_24_);enable-background:new    ;}
	.st15{clip-path:url(#SVGID_26_);enable-background:new    ;}
	.st16{clip-path:url(#SVGID_30_);enable-background:new    ;}
	.st17{clip-path:url(#SVGID_32_);enable-background:new    ;}
	.st18{clip-path:url(#SVGID_34_);enable-background:new    ;}
	.st19{clip-path:url(#SVGID_36_);enable-background:new    ;}
	.st20{clip-path:url(#SVGID_40_);enable-background:new    ;}
	.st21{clip-path:url(#SVGID_42_);enable-background:new    ;}
	.st22{fill:#99BCE3;}
	.st23{clip-path:url(#SVGID_44_);enable-background:new    ;}
	.st24{display:none;}
	.st25{fill:none;}
	.st26{fill:#FFFFFF;stroke:#19486F;stroke-miterlimit:10;}
	.st27{font-family:'HelveticaNeueLTStd-BdCn';}
	.st28{font-size:11px;}
</style><g
     id="g3604"
     transform="matrix(1.8214936,0,0,1.8214936,-40.983605,-40.072859)"><g
       id="g7"><g
         id="g9"><g
           id="g11"><path
             class="st3"
             d="m 49.2,32.3 0,2.5 c -0.1,-0.1 -0.1,-0.2 -0.1,-0.3 l 0,-2.5 c 0.1,0.2 0.1,0.2 0.1,0.3"
             id="path13"
             inkscape:connector-curvature="0"
             style="fill:#1a476f" /></g><path
           class="st3"
           d="m 49.2,34.6 0,-2.5 c 0,0.1 0,0.2 0.1,0.3 l 0,2.5 c -0.1,-0.2 -0.1,-0.3 -0.1,-0.3 z"
           id="path15"
           inkscape:connector-curvature="0"
           style="fill:#1a476f" /><g
           id="g17"><polygon
             class="st3"
             points="55.9,34.8 50.6,34.8 50.4,32.2 56.1,32.1 "
             id="polygon19"
             style="fill:#1a476f" /></g><g
           id="g21"><path
             class="st3"
             d="m 59.4,32.5 0,2.5 c -0.3,0.4 -0.8,0.7 -1.4,0.7 l 0,-2.5 c 0.6,0 1.1,-0.3 1.4,-0.7"
             id="path23"
             inkscape:connector-curvature="0"
             style="fill:#1a476f" /></g><path
           class="st3"
           d="m 59.4,32.5 0,2.5 c -0.3,0.4 -0.8,0.7 -1.4,0.7 l 0,-2.5 c 0.6,0 1.1,-0.3 1.4,-0.7 z"
           id="path25"
           inkscape:connector-curvature="0"
           style="fill:#1a476f" /><g
           id="g27"><polygon
             class="st3"
             points="63.4,37.9 59.4,35 58.6,31.8 63.4,35.4 "
             id="polygon29"
             style="fill:#1a476f" /></g><g
           id="g31"><polygon
             class="st3"
             points="50.6,34.8 44.4,42.3 44.4,39.8 50.6,32.3 "
             id="polygon33"
             style="fill:#1a476f" /></g><g
           id="g35"><polygon
             class="st3"
             points="59.4,42.5 55.9,34.8 55.9,32.3 59.4,40.1 "
             id="polygon37"
             style="fill:#1a476f" /></g><g
           id="g39"><polygon
             class="st3"
             points="63.4,43.6 62.2,44 62.2,41.6 64.3,40.6 "
             id="polygon41"
             style="fill:#1a476f" /></g><g
           id="g43"><polygon
             class="st3"
             points="72.6,46 70.5,46 70.5,43.5 73.1,43.3 "
             id="polygon45"
             style="fill:#1a476f" /></g><g
           id="g47"><rect
             x="67.300003"
             y="43.5"
             class="st3"
             width="0.40000001"
             height="2.5"
             id="rect49"
             style="fill:#1a476f" /></g><g
           id="g51"><path
             class="st3"
             d="m 74.7,41.8 0,2.5 c 0,0.1 0,0.1 0,0.2 l 0,-2.5 c 0,0 0,-0.1 0,-0.2"
             id="path53"
             inkscape:connector-curvature="0"
             style="fill:#1a476f" /><path
             class="st3"
             d="m 74.7,42 0,2.5 c 0,0.1 0,0.2 -0.1,0.2 l 0,-2.5 c 0.1,0 0.1,-0.1 0.1,-0.2"
             id="path55"
             inkscape:connector-curvature="0"
             style="fill:#1a476f" /><path
             class="st3"
             d="m 74.6,42.3 0,2.5 c 0,0.1 -0.1,0.2 -0.1,0.3 l 0,-2.5 c 0.1,-0.2 0.1,-0.2 0.1,-0.3"
             id="path57"
             inkscape:connector-curvature="0"
             style="fill:#1a476f" /><path
             class="st3"
             d="m 74.5,42.5 0,2.5 c -0.3,0.6 -1.1,1 -1.9,1 l 0,-2.5 c 0.8,0 1.6,-0.3 1.9,-1"
             id="path59"
             inkscape:connector-curvature="0"
             style="fill:#1a476f" /></g><path
           class="st3"
           d="m 74.7,41.8 0,2.5 c 0,1 -1,1.7 -2.1,1.7 l 0,-2.5 c 1.1,0 2.1,-0.6 2.1,-1.7 z"
           id="path61"
           inkscape:connector-curvature="0"
           style="fill:#1a476f" /><g
           id="g63"><path
             class="st3"
             d="m 65.2,43.7 0,2.5 c -1,-0.1 -1.8,-0.9 -1.8,-1.9 l 0,-2.5 c 0,1 0.8,1.8 1.8,1.9"
             id="path65"
             inkscape:connector-curvature="0"
             style="fill:#1a476f" /></g><path
           class="st3"
           d="m 65.2,43.7 0,2.5 c -1,-0.1 -1.8,-0.9 -1.8,-1.9 l 0,-2.5 c 0,1 0.8,1.8 1.8,1.9 z"
           id="path67"
           inkscape:connector-curvature="0"
           style="fill:#1a476f" /><g
           id="g69"><polygon
             class="st3"
             points="60.2,44.7 45.1,50 45.1,47.5 60.2,42.2 "
             id="polygon71"
             style="fill:#1a476f" /></g><g
           id="g73"><polygon
             class="st3"
             points="63,50.3 60.1,44.3 59.9,41.3 63,47.8 "
             id="polygon75"
             style="fill:#1a476f" /></g><g
           id="g77"><polygon
             class="st3"
             points="67.3,46 65.3,50.3 65.3,47.9 67.6,42.5 "
             id="polygon79"
             style="fill:#1a476f" /></g><g
           id="g81"><polygon
             class="st3"
             points="65.1,54.2 64.2,52.4 64,49.1 65.1,51.7 "
             id="polygon83"
             style="fill:#1a476f" /></g><g
           id="g85"><polygon
             class="st3"
             points="64.2,52.4 61.8,57.4 61.8,54.9 64.2,49.9 "
             id="polygon87"
             style="fill:#1a476f" /></g><g
           id="g89"><polygon
             class="st3"
             points="58.8,58.7 45.1,56 45.1,53.5 58.8,56.2 "
             id="polygon91"
             style="fill:#1a476f" /></g><g
           id="g93"><polygon
             class="st3"
             points="63.4,59.6 60.9,59.1 60.4,56.4 63.4,57.2 "
             id="polygon95"
             style="fill:#1a476f" /></g><g
           id="g97"><path
             class="st3"
             d="m 45.1,56.3 0,2.5 c 0,0.2 0,0.3 0,0.5 l 0,-2.5 c -0.1,-0.2 0,-0.3 0,-0.5"
             id="path99"
             inkscape:connector-curvature="0"
             style="fill:#1a476f" /><path
             class="st3"
             d="m 45,56.8 0,2.5 c 0,0.2 -0.1,0.3 -0.1,0.5 l 0,-2.5 C 45,57.1 45,57 45,56.8"
             id="path101"
             inkscape:connector-curvature="0"
             style="fill:#1a476f" /><path
             class="st3"
             d="m 44.9,57.3 0,2.5 c -0.1,0.2 -0.1,0.3 -0.2,0.5 l 0,-2.5 c 0.1,-0.2 0.2,-0.4 0.2,-0.5"
             id="path103"
             inkscape:connector-curvature="0"
             style="fill:#1a476f" /><path
             class="st3"
             d="m 44.7,57.7 0,2.5 c -0.2,0.4 -0.6,0.8 -1,1 l 0,-2.5 c 0.4,-0.2 0.8,-0.5 1,-1"
             id="path105"
             inkscape:connector-curvature="0"
             style="fill:#1a476f" /></g><path
           class="st3"
           d="m 45.1,56.3 0,2.5 c 0,1.1 -0.5,1.9 -1.4,2.4 l 0,-2.5 c 0.9,-0.4 1.4,-1.3 1.4,-2.4 z"
           id="path107"
           inkscape:connector-curvature="0"
           style="fill:#1a476f" /><g
           id="g109"><path
             class="st3"
             d="m 28.3,59 0,2.5 c -1.6,0 -3.1,-1.1 -3.1,-2.7 l 0,-2.5 c 0.1,1.6 1.6,2.7 3.1,2.7"
             id="path111"
             inkscape:connector-curvature="0"
             style="fill:#1a476f" /></g><path
           class="st3"
           d="m 28.3,59 0,2.5 c -1.6,0 -3.1,-1.1 -3.1,-2.7 l 0,-2.5 c 0.1,1.6 1.6,2.7 3.1,2.7 z"
           id="path113"
           inkscape:connector-curvature="0"
           style="fill:#1a476f" /><g
           id="g115"><polygon
             class="st3"
             points="41.6,61.5 28.3,61.5 27.8,58.5 41.6,59 "
             id="polygon117"
             style="fill:#1a476f" /></g><g
           id="g119"><polygon
             class="st3"
             points="72.6,64.3 65.3,64.3 64.8,61.6 73.2,61.7 "
             id="polygon121"
             style="fill:#1a476f" /></g><g
           id="g123"><path
             class="st3"
             d="m 74.7,60.9 0,2.5 c 0,0.1 0,0.1 0,0.2 l 0,-2.5 c 0,-0.1 0,-0.2 0,-0.2"
             id="path125"
             inkscape:connector-curvature="0"
             style="fill:#1a476f" /><path
             class="st3"
             d="m 74.7,61.1 0,2.5 c 0,0.1 0,0.1 0,0.2 l 0,-2.5 c 0,-0.1 0,-0.2 0,-0.2"
             id="path127"
             inkscape:connector-curvature="0"
             style="fill:#1a476f" /><path
             class="st3"
             d="m 74.7,61.2 0,2.5 c 0,0 0,0.1 -0.1,0.1 l 0,-2.5 c 0,0 0.1,0 0.1,-0.1"
             id="path129"
             inkscape:connector-curvature="0"
             style="fill:#1a476f" /><path
             class="st3"
             d="m 74.6,61.3 0,2.5 c -0.2,0.4 -0.8,0.4 -1.4,0.4 -0.2,0 -0.4,0 -0.6,0 l 0,-2.5 c 0.2,0 0.4,0 0.6,0 0.7,0.1 1.2,0 1.4,-0.4"
             id="path131"
             inkscape:connector-curvature="0"
             style="fill:#1a476f" /></g><path
           class="st3"
           d="m 74.7,60.9 0,2.5 c 0,0.8 -0.7,0.9 -1.5,0.9 -0.2,0 -0.4,0 -0.6,0 l 0,-2.5 c 0.2,0 0.4,0 0.6,0 0.8,0 1.5,-0.1 1.5,-0.9 z"
           id="path133"
           inkscape:connector-curvature="0"
           style="fill:#1a476f" /><g
           id="g135"><path
             class="st3"
             d="m 65.3,61.8 0,2.5 c -0.3,0 -0.8,0.2 -1.1,0.2 -0.1,0 -0.2,0 -0.3,-0.1 l 0,-2.5 c 0.1,0.1 0.2,0.1 0.3,0.1 0.3,0 0.8,-0.2 1.1,-0.2"
             id="path137"
             inkscape:connector-curvature="0"
             style="fill:#1a476f" /></g><path
           class="st3"
           d="m 65.3,61.8 0,2.5 c -0.3,0 -0.8,0.2 -1.1,0.2 -0.1,0 -0.2,0 -0.3,-0.1 l 0,-2.5 c 0.1,0.1 0.2,0.1 0.3,0.1 0.3,0 0.8,-0.2 1.1,-0.2 z"
           id="path139"
           inkscape:connector-curvature="0"
           style="fill:#1a476f" /><g
           id="g141"><polygon
             class="st3"
             points="60.9,59.1 57.6,65.7 57.6,63.2 60.9,56.6 "
             id="polygon143"
             style="fill:#1a476f" /></g><g
           id="g145"><polygon
             class="st3"
             points="63.9,64.4 59.2,68.4 59.2,66 64.5,61.1 "
             id="polygon147"
             style="fill:#1a476f" /></g><g
           id="g149"><polygon
             class="st3"
             points="49.3,69 41.6,61.5 41.1,58.1 49.3,66.5 "
             id="polygon151"
             style="fill:#1a476f" /></g><g
           id="g153"><path
             class="st3"
             d="m 50.5,74.4 0,2.5 c -1.1,0 -1.3,-0.8 -1.3,-1.9 l 0,-2.5 c 0.1,1.1 0.3,1.9 1.3,1.9"
             id="path155"
             inkscape:connector-curvature="0"
             style="fill:#1a476f" /></g><path
           class="st3"
           d="m 50.5,74.4 0,2.5 c -1.1,0 -1.3,-0.8 -1.3,-1.9 l 0,-2.5 c 0.1,1.1 0.3,1.9 1.3,1.9 z"
           id="path157"
           inkscape:connector-curvature="0"
           style="fill:#1a476f" /><g
           id="g159"><path
             class="st3"
             d="m 59.2,72.5 0,2.5 c 0,0.2 0,0.4 0,0.6 l 0,-2.5 c 0,-0.1 0,-0.3 0,-0.6"
             id="path161"
             inkscape:connector-curvature="0"
             style="fill:#1a476f" /><path
             class="st3"
             d="m 59.1,73.2 0,2.5 c 0,0.1 0,0.3 -0.1,0.4 l 0,-2.5 c 0.1,-0.2 0.1,-0.3 0.1,-0.4"
             id="path163"
             inkscape:connector-curvature="0"
             style="fill:#1a476f" /><path
             class="st3"
             d="m 59.1,73.6 0,2.4 c 0,0.1 -0.1,0.2 -0.1,0.3 l 0,-2.5 c 0,0 0,-0.1 0.1,-0.2"
             id="path165"
             inkscape:connector-curvature="0"
             style="fill:#1a476f" /><path
             class="st3"
             d="m 58.9,73.8 0,2.5 c -0.2,0.3 -0.5,0.6 -1.1,0.6 l 0,-2.5 c 0.6,0 0.9,-0.2 1.1,-0.6"
             id="path167"
             inkscape:connector-curvature="0"
             style="fill:#1a476f" /></g><path
           class="st3"
           d="m 59.2,72.5 0,2.5 c 0,1 -0.3,1.9 -1.3,1.9 l 0,-2.5 c 1,0 1.3,-0.8 1.3,-1.9 z"
           id="path169"
           inkscape:connector-curvature="0"
           style="fill:#1a476f" /><g
           id="g171"><polygon
             class="st3"
             points="57.9,76.9 50.5,76.9 50.3,74.1 58.5,74 "
             id="polygon173"
             style="fill:#1a476f" /></g><g
           id="g175"><path
             class="st0"
             d="m 72.6,44.5 -2.2,0 0,8.5 2.2,0 c 1,0 2.1,0.6 2.1,1.6 l 0,7.3 c 0,0.8 -0.7,0.9 -1.5,0.9 -0.2,0 -0.4,0 -0.6,0 l -7.3,0 C 65,62.8 64.5,63 64.2,63 64.1,63 64,63 63.9,62.9 l -4.7,4.1 0,6.6 c 0,1 -0.3,1.9 -1.3,1.9 l -7.3,0 c -1.1,0 -1.3,-0.8 -1.3,-1.9 l 0,-6 -7.7,-7.6 -13.3,0 c -1.6,0 -3.1,-1.1 -3.1,-2.7 l 0,-14 c 0,-1.6 1.5,-3 3.1,-3 l 14.1,0 0.4,0.1 6.4,-7.1 c -0.2,-0.3 0,-0.6 0,-1 l 0,-7.3 c 0,-1 0.2,-3 1.3,-3 l 7.3,0 c 1,0 1.3,1.9 1.3,3 l 0,6.4 4.3,2.7 c 0.3,-0.4 1.2,-0.9 1.8,-0.9 l 7.3,0 c 1,0 2.1,1.2 2.1,2.2 l 0,7.3 c 0.1,1.2 -0.9,1.8 -2,1.8 z M 63,48.8 60.2,43.2 45,48.5 45,52.6 59.6,55.5 63,48.8 M 50.6,33.3 44.3,40.8 c 0.5,0.5 0.7,1.7 0.7,2.5 l 0,3.2 14.3,-5.5 -3.5,-7.7 -5.2,0 m -0.1,30.9 4.9,0 3.4,-7 -13.8,-2.7 0,2.8 c 0,1.1 -0.5,1.9 -1.4,2.4 l 5.3,5.3 c 0.4,-0.4 1,-0.8 1.6,-0.8 m 12.9,-2.6 0,-3.5 -2.5,-0.6 -3.3,6.6 0.3,0 c 0.5,0 1,0.3 1.4,0.7 l 4.1,-3.2 m -4,-28.1 c -0.3,0.4 -0.8,0.7 -1.4,0.7 l 3.3,6.6 2.1,-0.7 0,-3.8 -4,-2.8 m 8.3,19.5 0,-8.4 -0.4,0 -2,4.3 1.9,4.1 0.5,0 m -4.3,1.6 c 0,-1 0.7,-1.8 1.7,-1.9 l -0.9,-1.8 -2.4,5 1.6,0.3 0,-1.6 m 0.8,-7.9 1,-2 c -1,-0.1 -1.8,-0.9 -1.8,-1.9 l 0,-0.7 -1.2,0.4 2,4.2"
             id="path177"
             inkscape:connector-curvature="0"
             style="fill:#2d72b8" /></g></g></g><path
       class="st26"
       d="m 55.5,53 c 0,2.2 -1.8,4 -4,4 l -18,0 c -2.2,0 -4,-1.8 -4,-4 l 0,-6 c 0,-2.2 1.8,-4 4,-4 l 18,0 c 2.2,0 4,1.8 4,4 l 0,6 z"
       id="path179"
       inkscape:connector-curvature="0"
       style="fill:#ffffff;stroke:#19486f;stroke-miterlimit:10" /><text
       y="54.00415"
       x="31.244873"
       class="st0 st27 st28"
       id="text181"
       style="font-size:11px;font-family:HelveticaNeueLTStd-BdCn;fill:#2d72b8">SSD</text>
</g><g
     id="nyt_x5F_exporter_x5F_info"
     class="st24" /></svg>