<?xml version="1.0" encoding="UTF-8" standalone="no"?>
<!-- Generator: Adobe Illustrator 19.1.0, SVG Export Plug-In . SVG Version: 6.00 Build 0)  -->

<svg
   xmlns:dc="http://purl.org/dc/elements/1.1/"
   xmlns:cc="http://creativecommons.org/ns#"
   xmlns:rdf="http://www.w3.org/1999/02/22-rdf-syntax-ns#"
   xmlns:svg="http://www.w3.org/2000/svg"
   xmlns="http://www.w3.org/2000/svg"
   xmlns:sodipodi="http://sodipodi.sourceforge.net/DTD/sodipodi-0.dtd"
   xmlns:inkscape="http://www.inkscape.org/namespaces/inkscape"
   version="1.1"
   id="Layer_1"
   x="0px"
   y="0px"
   viewBox="-255 347 100 100"
   style="enable-background:new -255 347 100 100;"
   xml:space="preserve"
   inkscape:version="0.91 r13725"
   sodipodi:docname="MobileServices_Cognito.svg"><metadata
     id="metadata37"><rdf:RDF><cc:Work
         rdf:about=""><dc:format>image/svg+xml</dc:format><dc:type
           rdf:resource="http://purl.org/dc/dcmitype/StillImage" /></cc:Work></rdf:RDF></metadata><defs
     id="defs35" /><sodipodi:namedview
     pagecolor="#ffffff"
     bordercolor="#666666"
     borderopacity="1"
     objecttolerance="10"
     gridtolerance="10"
     guidetolerance="10"
     inkscape:pageopacity="0"
     inkscape:pageshadow="2"
     inkscape:window-width="1280"
     inkscape:window-height="985"
     id="namedview33"
     showgrid="false"
     inkscape:zoom="7.4579687"
     inkscape:cx="50.26817"
     inkscape:cy="50"
     inkscape:window-x="0"
     inkscape:window-y="0"
     inkscape:window-maximized="1"
     inkscape:current-layer="Layer_1" /><style
     type="text/css"
     id="style3">
	.st0{fill:#C17B9E;}
	.st1{fill:#692F56;}
	.st2{fill:#CEB1C0;}
	.st3{fill:#512843;}
</style><g
     id="g3365"
     transform="matrix(1.2135922,0,0,1.2135922,43.786401,-84.796103)"><polygon
       id="polygon5"
       points="-176.6,370.1 -176.6,424 -170.9,421.1 -170.9,372.9 "
       class="st0"
       style="fill:#c17b9e" /><polygon
       id="polygon7"
       points="-170.9,411.5 -170.9,421.1 -205,438.2 -205,421.7 "
       class="st0"
       style="fill:#c17b9e" /><polygon
       id="polygon9"
       points="-183.5,412.2 -183.5,371.8 -176.6,370.1 -176.6,413.2 "
       class="st1"
       style="fill:#692f56" /><polygon
       id="polygon11"
       points="-212.6,419.4 -183.5,412.2 -176.6,413.2 -205,421.7 "
       class="st2"
       style="fill:#ceb1c0" /><polygon
       id="polygon13"
       points="-186.9,364.9 -186.9,377.8 -205,372.3 -205,355.9 "
       class="st0"
       style="fill:#c17b9e" /><polygon
       id="polygon15"
       points="-233.4,423.9 -233.4,370 -239.1,372.9 -239.1,421.1 "
       class="st1"
       style="fill:#692f56" /><polygon
       id="polygon17"
       points="-239.1,382.5 -239.1,372.9 -205,355.8 -205,372.3 "
       class="st1"
       style="fill:#692f56" /><polygon
       id="polygon19"
       points="-226.5,381.8 -226.5,422.2 -233.4,423.9 -233.4,380.8 "
       class="st0"
       style="fill:#c17b9e" /><polygon
       id="polygon21"
       points="-197.4,374.6 -226.5,381.8 -233.4,380.8 -205,372.3 "
       class="st3"
       style="fill:#512843" /><polygon
       id="polygon23"
       points="-223.1,429.1 -223.1,416.2 -205,421.7 -205,438.1 "
       class="st1"
       style="fill:#692f56" /><polygon
       id="polygon25"
       points="-205,421.7 -197.4,419.4 -215.8,414.8 -223.1,416.2 "
       class="st2"
       style="fill:#ceb1c0" /><polygon
       id="polygon27"
       points="-194.2,379.2 -212.6,374.6 -205,372.3 -186.9,377.8 "
       class="st3"
       style="fill:#512843" /><polygon
       id="polygon29"
       points="-192.8,388.4 -192.8,405.6 -205,407.1 -205,386.9 "
       class="st0"
       style="fill:#c17b9e" /><polygon
       id="polygon31"
       points="-217.2,388.4 -217.2,405.6 -205,407.1 -205,386.9 "
       class="st1"
       style="fill:#692f56" /></g></svg>