<?xml version="1.0" encoding="UTF-8" standalone="no"?>
<!-- Generator: Adobe Illustrator 19.1.0, SVG Export Plug-In . SVG Version: 6.00 Build 0)  -->

<svg
   xmlns:dc="http://purl.org/dc/elements/1.1/"
   xmlns:cc="http://creativecommons.org/ns#"
   xmlns:rdf="http://www.w3.org/1999/02/22-rdf-syntax-ns#"
   xmlns:svg="http://www.w3.org/2000/svg"
   xmlns="http://www.w3.org/2000/svg"
   xmlns:sodipodi="http://sodipodi.sourceforge.net/DTD/sodipodi-0.dtd"
   xmlns:inkscape="http://www.inkscape.org/namespaces/inkscape"
   version="1.1"
   id="Layer_1"
   x="0px"
   y="0px"
   viewBox="-255 347 100 100"
   style="enable-background:new -255 347 100 100;"
   xml:space="preserve"
   inkscape:version="0.91 r13725"
   sodipodi:docname="AmazonWorkMail.svg"><metadata
     id="metadata28"><rdf:RDF><cc:Work
         rdf:about=""><dc:format>image/svg+xml</dc:format><dc:type
           rdf:resource="http://purl.org/dc/dcmitype/StillImage" /></cc:Work></rdf:RDF></metadata><defs
     id="defs26" /><sodipodi:namedview
     pagecolor="#ffffff"
     bordercolor="#666666"
     borderopacity="1"
     objecttolerance="10"
     gridtolerance="10"
     guidetolerance="10"
     inkscape:pageopacity="0"
     inkscape:pageshadow="2"
     inkscape:window-width="1280"
     inkscape:window-height="985"
     id="namedview24"
     showgrid="false"
     inkscape:zoom="7.4579687"
     inkscape:cx="50.26817"
     inkscape:cy="50"
     inkscape:window-x="0"
     inkscape:window-y="0"
     inkscape:window-maximized="1"
     inkscape:current-layer="Layer_1" /><style
     type="text/css"
     id="style3">
	.st0{display:none;}
	.st1{fill:url(#SVGID_1_);}
	.st2{fill:#FFFFFF;}
</style><g
     id="Raw_Elements"
     transform="matrix(1.1848341,0,0,1.1848341,44.545024,-81.234597)" /><g
     id="Artifacts"
     class="st0" /><g
     id="g7"
     transform="matrix(1.1848341,0,0,1.1848341,36.706156,-73.734588)"><linearGradient
       id="SVGID_1_"
       gradientUnits="userSpaceOnUse"
       x1="-204"
       y1="440.43091"
       x2="-204"
       y2="356.60349"
       gradientTransform="matrix(1,0,0,-1,0,796)"><stop
         offset="0"
         style="stop-color:#F58435"
         id="stop10" /><stop
         offset="1"
         style="stop-color:#D16A28"
         id="stop12" /></linearGradient><polygon
       class="st1"
       points="-167,418.4 -204,439.5 -241,418.4 -241,376.2 -204,355.1 -167,376.2 "
       id="polygon14"
       style="fill:url(#SVGID_1_)" /><path
       class="st2"
       d="m -182.6,383.1 0,6.5 0,2.5 -22.1,9.8 -22.1,-9.8 0,-2.5 0,-6.5 -3.9,0 0,2.6 0,9 0,21.4 51.9,0 0,-21.4 0,-9 0,-2.6 c 0.1,0 -3.8,0 -3.8,0 z m 0,29.2 -44.1,0 0,-15.8 22.1,9.8 22.1,-9.8 0,15.8 z"
       id="path16"
       inkscape:connector-curvature="0"
       style="fill:#ffffff" /><polygon
       class="st2"
       points="-226.7,385.7 -226.7,383.2 -204.7,373.3 -182.6,383.2 -182.6,385.7 -178.7,385.7 -178.7,380.6 -204.7,369 -230.6,380.6 -230.6,385.7 "
       id="polygon18"
       style="fill:#ffffff" /><g
       id="g20"><polygon
         class="st2"
         points="-190.5,395.7 -186.5,393.9 -186.5,385.4 -222.8,385.4 -222.8,393.9 -218.9,395.7 -218.9,389.4 -190.5,389.4 "
         id="polygon22"
         style="fill:#ffffff" /></g></g></svg>