<?xml version="1.0" encoding="UTF-8" standalone="no"?>
<!-- Generator: Adobe Illustrator 19.1.0, SVG Export Plug-In . SVG Version: 6.00 Build 0)  -->

<svg
   xmlns:dc="http://purl.org/dc/elements/1.1/"
   xmlns:cc="http://creativecommons.org/ns#"
   xmlns:rdf="http://www.w3.org/1999/02/22-rdf-syntax-ns#"
   xmlns:svg="http://www.w3.org/2000/svg"
   xmlns="http://www.w3.org/2000/svg"
   xmlns:sodipodi="http://sodipodi.sourceforge.net/DTD/sodipodi-0.dtd"
   xmlns:inkscape="http://www.inkscape.org/namespaces/inkscape"
   version="1.1"
   id="Layer_1"
   x="0px"
   y="0px"
   viewBox="0 0 100 100"
   style="enable-background:new 0 0 100 100;"
   xml:space="preserve"
   inkscape:version="0.91 r13725"
   sodipodi:docname="Database_AmazonElastiCache_MemCached.svg"><metadata
     id="metadata40"><rdf:RDF><cc:Work
         rdf:about=""><dc:format>image/svg+xml</dc:format><dc:type
           rdf:resource="http://purl.org/dc/dcmitype/StillImage" /></cc:Work></rdf:RDF></metadata><defs
     id="defs38" /><sodipodi:namedview
     pagecolor="#ffffff"
     bordercolor="#666666"
     borderopacity="1"
     objecttolerance="10"
     gridtolerance="10"
     guidetolerance="10"
     inkscape:pageopacity="0"
     inkscape:pageshadow="2"
     inkscape:window-width="1280"
     inkscape:window-height="985"
     id="namedview36"
     showgrid="false"
     inkscape:zoom="7.4579687"
     inkscape:cx="50.26817"
     inkscape:cy="50"
     inkscape:window-x="0"
     inkscape:window-y="0"
     inkscape:window-maximized="1"
     inkscape:current-layer="Layer_1" /><style
     type="text/css"
     id="style3">
	.st0{fill:#1A476F;}
	.st1{fill:#2D72B8;}
	.st2{fill:#FFFFFF;}
	.st3{display:none;}
</style><g
     id="Layer_1_1_"
     transform="matrix(1.8181818,0,0,1.8181818,-40.998044,-39.999999)"><g
       id="Layer_1_5_"><g
         id="g7"><g
           id="g9"><g
             id="g11"><path
               class="st0"
               d="m 76.4,66.9 0,2.6 c 0,0.4 0,0.7 -0.1,1.1 l 0,-2.6 c 0,-0.4 0.1,-0.8 0.1,-1.1"
               id="path13"
               inkscape:connector-curvature="0"
               style="fill:#1a476f" /><path
               class="st0"
               d="m 76.3,68 0,2.6 C 76.2,71 76.1,71.4 76,71.8 l 0,-2.6 c 0.1,-0.4 0.2,-0.8 0.3,-1.2"
               id="path15"
               inkscape:connector-curvature="0"
               style="fill:#1a476f" /><path
               class="st0"
               d="m 76,69.2 0,2.6 c -0.1,0.5 -0.3,0.9 -0.6,1.3 l 0,-2.6 c 0.3,-0.4 0.5,-0.9 0.6,-1.3"
               id="path17"
               inkscape:connector-curvature="0"
               style="fill:#1a476f" /></g><path
             class="st0"
             d="m 76.4,66.9 0,2.6 c 0,4.1 -3.4,7.5 -7.5,7.5 l 0,-2.6 c 4.1,0 7.5,-3.4 7.5,-7.5 z"
             id="path19"
             inkscape:connector-curvature="0"
             style="fill:#1a476f" /><g
             id="g21"><polygon
               class="st0"
               points="31.2,74.4 69.9,73.6 68.8,77 31.2,77 "
               id="polygon23"
               style="fill:#1a476f" /></g><path
             class="st0"
             d="m 31.2,74.4 0,2.6 C 27,77 23.7,73.6 23.7,69.5 l 0,-2.6 c -0.1,4.1 3.3,7.5 7.5,7.5 z"
             id="path25"
             inkscape:connector-curvature="0"
             style="fill:#1a476f" /><g
             id="g27"><path
               class="st1"
               d="m 68.8,22 c 4.2,0 7.5,3.3 7.5,7.5 l 0,38.4 c 0,4.1 -3.4,7.5 -7.5,7.5 l -37.6,0 C 27,75.4 23.7,72 23.7,67.9 l 0,-38.4 c 0,-4.1 3.4,-7.5 7.5,-7.5 l 37.6,0 z"
               id="path29"
               inkscape:connector-curvature="0"
               style="fill:#2d72b8" /></g></g></g><polygon
         class="st2"
         points="64,31 60,31 60,36 58,36 58,31 54,31 54,36 52,36 52,31 48,31 48,36 46,36 46,31 42,31 42,36 40,36 40,31 36,31 36,36 31,36 31,40 36,40 36,42 31,42 31,46 36,46 36,48 31,48 31,52 36,52 36,54 31,54 31,58 36,58 36,60 31,60 31,64 36,64 36,69 40,69 40,64 42,64 42,69 46,69 46,64 48,64 48,69 52,69 52,64 54,64 54,69 58,69 58,64 60,64 60,69 64,69 64,64 69,64 69,60 64,60 64,58 69,58 69,54 64,54 64,52 69,52 69,48 64,48 64,46 69,46 69,42 64,42 64,40 69,40 69,36 64,36 "
         id="polygon31"
         style="fill:#ffffff" /><path
         class="st1"
         d="m 41.1,41.8 5.1,0 3.9,11.3 0,0 3.6,-11.3 5.1,0 0,16.4 -3.4,0 0,-11.6 0,0 -4,11.6 -2.8,0 -4,-11.5 0,0 0,11.5 -3.4,0 -0.1,-16.4 0,0 z"
         id="path33"
         inkscape:connector-curvature="0"
         style="fill:#2d72b8" /></g></g><g
     id="nyt_x5F_exporter_x5F_info"
     class="st3" /></svg>