<?xml version="1.0" encoding="UTF-8" standalone="no"?>
<!-- Generator: Adobe Illustrator 19.1.0, SVG Export Plug-In . SVG Version: 6.00 Build 0)  -->

<svg
   xmlns:dc="http://purl.org/dc/elements/1.1/"
   xmlns:cc="http://creativecommons.org/ns#"
   xmlns:rdf="http://www.w3.org/1999/02/22-rdf-syntax-ns#"
   xmlns:svg="http://www.w3.org/2000/svg"
   xmlns="http://www.w3.org/2000/svg"
   xmlns:sodipodi="http://sodipodi.sourceforge.net/DTD/sodipodi-0.dtd"
   xmlns:inkscape="http://www.inkscape.org/namespaces/inkscape"
   version="1.1"
   id="Layer_1"
   x="0px"
   y="0px"
   viewBox="0 0 100 100"
   style="enable-background:new 0 0 100 100;"
   xml:space="preserve"
   inkscape:version="0.91 r13725"
   sodipodi:docname="Database_AmazonElasticCache_Redis.svg"><metadata
     id="metadata40"><rdf:RDF><cc:Work
         rdf:about=""><dc:format>image/svg+xml</dc:format><dc:type
           rdf:resource="http://purl.org/dc/dcmitype/StillImage" /></cc:Work></rdf:RDF></metadata><defs
     id="defs38" /><sodipodi:namedview
     pagecolor="#ffffff"
     bordercolor="#666666"
     borderopacity="1"
     objecttolerance="10"
     gridtolerance="10"
     guidetolerance="10"
     inkscape:pageopacity="0"
     inkscape:pageshadow="2"
     inkscape:window-width="1280"
     inkscape:window-height="985"
     id="namedview36"
     showgrid="false"
     inkscape:zoom="7.4579687"
     inkscape:cx="50.26817"
     inkscape:cy="50"
     inkscape:window-x="0"
     inkscape:window-y="0"
     inkscape:window-maximized="1"
     inkscape:current-layer="Layer_1" /><style
     type="text/css"
     id="style3">
	.st0{fill:#1A476F;}
	.st1{fill:#2D72B8;}
	.st2{fill:#FFFFFF;}
	.st3{display:none;}
</style><g
     id="Layer_1_1_"
     transform="matrix(1.8181818,0,0,1.8181818,-40.998044,-39.999999)"><g
       id="Layer_1_4_"><g
         id="g7"><g
           id="g9"><g
             id="g11"><path
               class="st0"
               d="m 76.4,66.9 0,2.6 c 0,0.4 0,0.7 -0.1,1.1 l 0,-2.6 c 0,-0.4 0.1,-0.8 0.1,-1.1"
               id="path13"
               inkscape:connector-curvature="0"
               style="fill:#1a476f" /><path
               class="st0"
               d="m 76.3,68 0,2.6 C 76.2,71 76.1,71.4 76,71.8 l 0,-2.6 c 0.1,-0.4 0.2,-0.8 0.3,-1.2"
               id="path15"
               inkscape:connector-curvature="0"
               style="fill:#1a476f" /><path
               class="st0"
               d="m 76,69.2 0,2.6 c -0.1,0.5 -0.3,0.9 -0.6,1.3 l 0,-2.6 c 0.3,-0.4 0.5,-0.9 0.6,-1.3"
               id="path17"
               inkscape:connector-curvature="0"
               style="fill:#1a476f" /></g><path
             class="st0"
             d="m 76.4,66.9 0,2.6 c 0,4.1 -3.4,7.5 -7.5,7.5 l 0,-2.6 c 4.1,0 7.5,-3.4 7.5,-7.5 z"
             id="path19"
             inkscape:connector-curvature="0"
             style="fill:#1a476f" /><g
             id="g21"><polygon
               class="st0"
               points="31.2,74.4 69.9,73.6 68.8,77 31.2,77 "
               id="polygon23"
               style="fill:#1a476f" /></g><path
             class="st0"
             d="m 31.2,74.4 0,2.6 C 27,77 23.7,73.6 23.7,69.5 l 0,-2.6 c -0.1,4.1 3.3,7.5 7.5,7.5 z"
             id="path25"
             inkscape:connector-curvature="0"
             style="fill:#1a476f" /><g
             id="g27"><path
               class="st1"
               d="m 68.8,22 c 4.2,0 7.5,3.3 7.5,7.5 l 0,38.4 c 0,4.1 -3.4,7.5 -7.5,7.5 l -37.6,0 C 27,75.4 23.7,72 23.7,67.9 l 0,-38.4 c 0,-4.1 3.4,-7.5 7.5,-7.5 l 37.6,0 0,0 z"
               id="path29"
               inkscape:connector-curvature="0"
               style="fill:#2d72b8" /></g></g></g><polygon
         class="st2"
         points="63.6,31.3 59.6,31.3 59.6,36.3 57.6,36.3 57.6,31.3 53.6,31.3 53.6,36.3 51.6,36.3 51.6,31.3 47.6,31.3 47.6,36.3 45.6,36.3 45.6,31.3 41.6,31.3 41.6,36.3 39.6,36.3 39.6,31.3 35.6,31.3 35.6,36.3 30.6,36.3 30.6,40.3 35.6,40.3 35.6,42.3 30.6,42.3 30.6,46.3 35.6,46.3 35.6,48.3 30.6,48.3 30.6,52.3 35.6,52.3 35.6,54.3 30.6,54.3 30.6,58.3 35.6,58.3 35.6,60.3 30.6,60.3 30.6,64.3 35.6,64.3 35.6,69.3 39.6,69.3 39.6,64.3 41.6,64.3 41.6,69.3 45.6,69.3 45.6,64.3 47.6,64.3 47.6,69.3 51.6,69.3 51.6,64.3 53.6,64.3 53.6,69.3 57.6,69.3 57.6,64.3 59.6,64.3 59.6,69.3 63.6,69.3 63.6,64.3 68.6,64.3 68.6,60.3 63.6,60.3 63.6,58.3 68.6,58.3 68.6,54.3 63.6,54.3 63.6,52.3 68.6,52.3 68.6,48.3 63.6,48.3 63.6,46.3 68.6,46.3 68.6,42.3 63.6,42.3 63.6,40.3 68.6,40.3 68.6,36.3 63.6,36.3 "
         id="polygon31"
         style="fill:#ffffff" /><path
         class="st1"
         d="m 42.3,41.2 9.6,0 c 3.2,0 5.2,2.2 5.2,4.9 0,2.1 -0.8,3.6 -2.8,4.4 l 0,0.1 c 1.9,0.5 2.5,2.3 2.6,4.1 0.1,1.1 0,3.2 0.7,4.2 l -3.9,0 c -0.5,-1.1 -0.4,-2.8 -0.6,-4.2 -0.3,-1.9 -1,-2.7 -3,-2.7 l -3.9,0 0,6.9 -3.9,0 0,-17.7 z m 4,8 4.3,0 c 1.7,0 2.7,-0.7 2.7,-2.5 0,-1.7 -0.9,-2.4 -2.7,-2.4 l -4.3,0 0,4.9 z"
         id="path33"
         inkscape:connector-curvature="0"
         style="fill:#2d72b8" /></g></g><g
     id="nyt_x5F_exporter_x5F_info"
     class="st3" /></svg>