<?xml version="1.0" encoding="UTF-8" standalone="no"?>
<!-- Generator: Adobe Illustrator 19.1.0, SVG Export Plug-In . SVG Version: 6.00 Build 0)  -->

<svg
   xmlns:dc="http://purl.org/dc/elements/1.1/"
   xmlns:cc="http://creativecommons.org/ns#"
   xmlns:rdf="http://www.w3.org/1999/02/22-rdf-syntax-ns#"
   xmlns:svg="http://www.w3.org/2000/svg"
   xmlns="http://www.w3.org/2000/svg"
   xmlns:sodipodi="http://sodipodi.sourceforge.net/DTD/sodipodi-0.dtd"
   xmlns:inkscape="http://www.inkscape.org/namespaces/inkscape"
   version="1.1"
   id="Layer_1"
   x="0px"
   y="0px"
   viewBox="0 0 100 100"
   style="enable-background:new 0 0 100 100;"
   xml:space="preserve"
   inkscape:version="0.91 r13725"
   sodipodi:docname="Database_AmazonElasticCache.svg"><metadata
     id="metadata47"><rdf:RDF><cc:Work
         rdf:about=""><dc:format>image/svg+xml</dc:format><dc:type
           rdf:resource="http://purl.org/dc/dcmitype/StillImage" /></cc:Work></rdf:RDF></metadata><defs
     id="defs45" /><sodipodi:namedview
     pagecolor="#ffffff"
     bordercolor="#666666"
     borderopacity="1"
     objecttolerance="10"
     gridtolerance="10"
     guidetolerance="10"
     inkscape:pageopacity="0"
     inkscape:pageshadow="2"
     inkscape:window-width="1280"
     inkscape:window-height="985"
     id="namedview43"
     showgrid="false"
     inkscape:zoom="7.4579687"
     inkscape:cx="50.26817"
     inkscape:cy="50"
     inkscape:window-x="0"
     inkscape:window-y="0"
     inkscape:window-maximized="1"
     inkscape:current-layer="Layer_1" /><style
     type="text/css"
     id="style3">
	.st0{fill:#99BCE3;}
	.st1{fill:#1A476F;}
	.st2{fill:#205B98;}
	.st3{fill:#5294CF;}
	.st4{display:none;}
	.st5{display:inline;}
	.st6{font-family:'MyriadPro-Regular';}
	.st7{font-size:12px;}
</style><g
     id="Layer_1_1_"
     transform="matrix(1.3888889,0,0,1.3888889,-19.444445,-19.444445)"><g
       id="g6"><polygon
         class="st0"
         points="50,71.6 79.8,62.7 50,59 20.2,62.7 "
         id="polygon8"
         style="fill:#99bce3" /><polygon
         class="st1"
         points="50,27.4 79.8,36.3 50,40 20.2,36.3 "
         id="polygon10"
         style="fill:#1a476f" /><polygon
         class="st2"
         points="50,28.4 50,14 20.2,28.9 20.2,37.3 "
         id="polygon12"
         style="fill:#205b98" /><polygon
         class="st2"
         points="50,86 50,71.6 20.2,62.7 20.2,71.1 "
         id="polygon14"
         style="fill:#205b98" /><polygon
         class="st2"
         points="50,39.3 50,60.9 37.4,59 37.4,41.2 "
         id="polygon16"
         style="fill:#205b98" /><polygon
         class="st3"
         points="50,28.4 50,14 79.8,28.9 79.8,37.3 "
         id="polygon18"
         style="fill:#5294cf" /><polygon
         class="st3"
         points="50,86 50,71.6 79.8,62.7 79.8,71.1 "
         id="polygon20"
         style="fill:#5294cf" /><polygon
         class="st3"
         points="50,39.3 50,60.9 62.6,59 62.6,41.2 "
         id="polygon22"
         style="fill:#5294cf" /></g></g><g
     id="nyt_x5F_exporter_x5F_info"
     class="st4"><text
       transform="matrix(1 0 0 1 -534 0)"
       class="st5 st6 st7"
       id="text25">&lt;nyt_prefs&gt;</text>
<text
       transform="matrix(1 0 0 1 -534 14.4)"
       class="st5 st6 st7"
       id="text27">  &lt;nyt_prefix&gt;&lt;/nyt_prefix&gt;</text>
<text
       transform="matrix(1 0 0 1 -534 28.8)"
       class="st5 st6 st7"
       id="text29">  &lt;nyt_suffix&gt;&lt;/nyt_suffix&gt;</text>
<text
       transform="matrix(1 0 0 1 -534 43.2)"
       class="st5 st6 st7"
       id="text31">  &lt;nyt_base_path&gt;~/Desktop/wip/Architecture%20Icons%20-%20Update%20all%20customer-facing%20files%20/AWS-Simple-Icons%202/Database/EPS&lt;/nyt_base_path&gt;</text>
<text
       transform="matrix(1 0 0 1 -534 57.6)"
       class="st5 st6 st7"
       id="text33">  &lt;nyt_scaling&gt;100&lt;/nyt_scaling&gt;</text>
<text
       transform="matrix(1 0 0 1 -534 72)"
       class="st5 st6 st7"
       id="text35">  &lt;nyt_transparency&gt;true&lt;/nyt_transparency&gt;</text>
<text
       transform="matrix(1 0 0 1 -534 86.4)"
       class="st5 st6 st7"
       id="text37">  &lt;nyt_format&gt;EPS&lt;/nyt_format&gt;</text>
<text
       transform="matrix(1 0 0 1 -534 100.8)"
       class="st5 st6 st7"
       id="text39">  &lt;nyt_export_code&gt;artboards&lt;/nyt_export_code&gt;</text>
<text
       transform="matrix(1 0 0 1 -534 115.2)"
       class="st5 st6 st7"
       id="text41">&lt;/nyt_prefs&gt;</text>
</g></svg>