<?xml version="1.0" encoding="UTF-8" standalone="no"?>
<!-- Generator: Adobe Illustrator 19.0.0, SVG Export Plug-In . SVG Version: 6.00 Build 0)  -->

<svg
   xmlns:dc="http://purl.org/dc/elements/1.1/"
   xmlns:cc="http://creativecommons.org/ns#"
   xmlns:rdf="http://www.w3.org/1999/02/22-rdf-syntax-ns#"
   xmlns:svg="http://www.w3.org/2000/svg"
   xmlns="http://www.w3.org/2000/svg"
   xmlns:sodipodi="http://sodipodi.sourceforge.net/DTD/sodipodi-0.dtd"
   xmlns:inkscape="http://www.inkscape.org/namespaces/inkscape"
   version="1.2"
   id="Layer_1"
   x="0px"
   y="0px"
   viewBox="0 0 100 100"
   xml:space="preserve"
   inkscape:version="0.91 r13725"
   sodipodi:docname="StorageContentDelivery_EFS.svg"><metadata
     id="metadata43"><rdf:RDF><cc:Work
         rdf:about=""><dc:format>image/svg+xml</dc:format><dc:type
           rdf:resource="http://purl.org/dc/dcmitype/StillImage" /></cc:Work></rdf:RDF></metadata><defs
     id="defs41" /><sodipodi:namedview
     pagecolor="#ffffff"
     bordercolor="#666666"
     borderopacity="1"
     objecttolerance="10"
     gridtolerance="10"
     guidetolerance="10"
     inkscape:pageopacity="0"
     inkscape:pageshadow="2"
     inkscape:window-width="1280"
     inkscape:window-height="985"
     id="namedview39"
     showgrid="false"
     inkscape:zoom="7.4579687"
     inkscape:cx="50.26817"
     inkscape:cy="50"
     inkscape:window-x="0"
     inkscape:window-y="0"
     inkscape:window-maximized="1"
     inkscape:current-layer="Layer_1" /><g
     id="g3371"
     transform="matrix(1.3888889,0,0,1.3888889,-19.195139,-20.158334)"><polygon
       id="polygon3"
       points="79.727,56.819 71.382,58.06 71.382,75.735 79.727,71.574 "
       style="fill:#e05243" /><polygon
       id="polygon5"
       points="44.397,40.695 33.876,39.36 33.876,53.207 44.397,52.884 "
       style="fill:#e05243" /><polygon
       id="polygon7"
       points="27.13,40.641 33.876,39.292 33.876,53.207 27.13,52.883 "
       style="fill:#8c3123" /><polygon
       id="polygon9"
       points="55.14,40.695 65.661,39.36 65.661,53.207 55.14,52.884 "
       style="fill:#8c3123" /><polygon
       id="polygon11"
       points="60.511,38.262 49.769,36.114 49.769,53.97 60.511,53.454 "
       style="fill:#e05243" /><polygon
       id="polygon13"
       points="72.407,40.641 65.661,39.292 65.661,53.207 72.407,52.883 "
       style="fill:#e05243" /><polygon
       id="polygon15"
       points="58.689,18.974 49.769,14.514 49.769,28.914 58.689,31.59 "
       style="fill:#e05243" /><polygon
       id="polygon17"
       points="39.026,38.262 49.769,36.114 49.769,53.97 39.026,53.454 "
       style="fill:#8c3123" /><polygon
       id="polygon19"
       points="40.848,18.974 49.769,14.514 49.769,28.914 40.848,31.59 "
       style="fill:#8c3123" /><polygon
       id="polygon21"
       points="58.689,31.59 49.769,33.676 40.848,31.59 49.769,28.914 "
       style="fill:#5e1f18" /><polygon
       id="polygon23"
       points="56.394,56.858 71.382,58.06 79.727,56.819 65.73,55.958 "
       style="fill:#f2b0a9" /><polygon
       id="polygon25"
       points="56.394,56.858 71.382,58.06 71.382,75.735 56.394,71.704 "
       style="fill:#8c3123" /><polygon
       id="polygon27"
       points="65.661,58.91 49.769,61.274 49.769,86.514 65.661,78.588 "
       style="fill:#e05243" /><polygon
       id="polygon29"
       points="19.914,56.819 28.259,58.06 28.259,75.735 19.914,71.574 "
       style="fill:#8c3123" /><polygon
       id="polygon31"
       points="43.247,56.858 28.259,58.06 19.914,56.819 33.911,55.958 "
       style="fill:#f2b0a9" /><polygon
       id="polygon33"
       points="43.247,56.858 28.259,58.06 28.259,75.735 43.247,71.704 "
       style="fill:#e05243" /><polygon
       id="polygon35"
       points="33.98,58.91 49.872,61.274 49.872,86.514 33.98,78.588 "
       style="fill:#8c3123" /><polygon
       id="polygon37"
       points="65.661,58.91 49.819,57.404 33.98,58.91 49.823,61.266 "
       style="fill:#f2b0a9" /></g></svg>