<?xml version="1.0" encoding="UTF-8" standalone="no"?>
<!-- Generator: Adobe Illustrator 19.1.0, SVG Export Plug-In . SVG Version: 6.00 Build 0)  -->

<svg
   xmlns:dc="http://purl.org/dc/elements/1.1/"
   xmlns:cc="http://creativecommons.org/ns#"
   xmlns:rdf="http://www.w3.org/1999/02/22-rdf-syntax-ns#"
   xmlns:svg="http://www.w3.org/2000/svg"
   xmlns="http://www.w3.org/2000/svg"
   xmlns:sodipodi="http://sodipodi.sourceforge.net/DTD/sodipodi-0.dtd"
   xmlns:inkscape="http://www.inkscape.org/namespaces/inkscape"
   version="1.1"
   id="Layer_1"
   x="0px"
   y="0px"
   viewBox="0 0 100 100"
   style="enable-background:new 0 0 100 100;"
   xml:space="preserve"
   inkscape:version="0.91 r13725"
   sodipodi:docname="Networking_Route53_Table.svg"><metadata
     id="metadata53"><rdf:RDF><cc:Work
         rdf:about=""><dc:format>image/svg+xml</dc:format><dc:type
           rdf:resource="http://purl.org/dc/dcmitype/StillImage" /></cc:Work></rdf:RDF></metadata><defs
     id="defs51" /><sodipodi:namedview
     pagecolor="#ffffff"
     bordercolor="#666666"
     borderopacity="1"
     objecttolerance="10"
     gridtolerance="10"
     guidetolerance="10"
     inkscape:pageopacity="0"
     inkscape:pageshadow="2"
     inkscape:window-width="1280"
     inkscape:window-height="985"
     id="namedview49"
     showgrid="false"
     inkscape:zoom="7.4579687"
     inkscape:cx="50.26817"
     inkscape:cy="50"
     inkscape:window-x="0"
     inkscape:window-y="0"
     inkscape:window-maximized="1"
     inkscape:current-layer="Layer_1" /><style
     type="text/css"
     id="style3">
	.st0{fill:#F58536;}
	.st1{fill:#9D5025;}
	.st2{fill:#FFFFFF;}
</style><g
     id="g3381"
     transform="matrix(1.4947683,0,0,1.4947683,-24.663678,-24.738417)"><g
       id="g5"><rect
         id="rect7"
         height="16"
         width="66.900002"
         class="st0"
         y="19.1"
         x="16.5"
         style="fill:#f58536" /></g><g
       id="g9"><rect
         id="rect11"
         height="2.5999999"
         width="66.900002"
         class="st1"
         y="35.099998"
         x="16.5"
         style="fill:#9d5025" /></g><g
       id="g13"><rect
         id="rect15"
         height="16"
         width="66.900002"
         class="st0"
         y="41.200001"
         x="16.5"
         style="fill:#f58536" /></g><g
       id="g17"><rect
         id="rect19"
         height="2.5999999"
         width="66.900002"
         class="st1"
         y="57.200001"
         x="16.5"
         style="fill:#9d5025" /></g><g
       id="g21"><rect
         id="rect23"
         height="16"
         width="66.900002"
         class="st0"
         y="62.299999"
         x="16.5"
         style="fill:#f58536" /></g><g
       id="g25"><rect
         id="rect27"
         height="2.5999999"
         width="66.900002"
         class="st1"
         y="78.300003"
         x="16.5"
         style="fill:#9d5025" /></g><path
       id="path29"
       d="m 24.8,31.9 -1.5,0 0,-7.1 -2,0 0,-1 0.1,0 c 0.9,0 2,-0.2 2.3,-1.5 l 0,-0.2 1.1,0 0,9.8 z m 8.6,-8.3 c -1.5,2 -2.8,5.4 -3,8.3 l -1.6,0 C 29,29 30.4,25.7 31.9,23.7 l -4.2,0 0,-1.4 5.7,0 0,1.3 z m 6.8,8.3 -5.6,0 c 0,-4.2 4,-4.1 4,-7.2 0,-0.8 -0.3,-1.5 -1.2,-1.5 -1.1,0 -1.3,1 -1.3,2 l -1.5,0 c 0,-1.9 0.8,-3.1 2.8,-3.1 2,0 2.7,1.2 2.7,2.6 0,3.2 -3.1,3.4 -3.8,5.8 l 3.9,0 0,1.4 z m 3.3,0 -1.5,0 0,-1.8 1.5,0 0,1.8 z m 5.6,0 -1.5,0 0,-7.1 -2,0 0,-1 0.1,0 c 0.9,0 2,-0.2 2.3,-1.5 l 0,-0.2 1.1,0 0,9.8 z m 5.7,0.2 c -2.4,0 -2.9,-1.9 -2.9,-4.7 0,-2.9 0.5,-5.3 3,-5.3 1.7,0 2.6,0.8 2.6,2.4 l -1.5,0 c 0,-0.6 -0.3,-1.3 -1,-1.3 -1.4,0 -1.5,1.9 -1.5,3.4 l 0,0 c 0.4,-0.7 1,-1 1.9,-1 1.3,0 2.4,1 2.4,2.9 -0.1,2.3 -1,3.6 -3,3.6 z m 6.1,-0.2 -1.5,0 0,-1.8 1.5,0 0,1.8 z m 4.5,0.2 c -1.8,0 -2.9,-1.2 -2.9,-5 0,-3.8 1,-5 2.9,-5 1.8,0 2.9,1.2 2.9,5 -0.1,3.8 -1.1,5 -2.9,5 z m 6,-0.2 -1.5,0 0,-1.8 1.5,0 0,1.8 z m 4.5,0.2 c -1.8,0 -2.9,-1.2 -2.9,-5 0,-3.8 1,-5 2.9,-5 1.8,0 2.9,1.2 2.9,5 -0.1,3.8 -1.1,5 -2.9,5 z"
       class="st2"
       inkscape:connector-curvature="0"
       style="fill:#ffffff" /><path
       id="path31"
       d="m 75.9,44.2 c 1.8,0 2.9,1.2 2.9,5 0,3.8 -1,5 -2.9,5 -1.8,0 -2.9,-1.2 -2.9,-5 0,-3.8 1,-5 2.9,-5 z m -6.1,8 1.5,0 0,1.8 -1.5,0 0,-1.8 z m -6.9,-6.3 0.1,0 c 0.9,0 2,-0.2 2.3,-1.5 l 0,-0.2 1.1,0 0,9.8 -1.5,0 0,-7.1 -2,0 0,-1 z m -3.6,6.3 1.5,0 0,1.8 -1.5,0 0,-1.8 z m -4.3,-8 c 1.7,0 2.6,0.8 2.6,2.4 l -1.6,0 c 0,-0.6 -0.3,-1.3 -1,-1.3 -1.4,0 -1.5,1.9 -1.5,3.4 l 0,0 c 0.4,-0.7 1,-1 1.9,-1 1.3,0 2.4,1 2.4,2.9 0,2.2 -0.9,3.6 -2.9,3.6 -2.4,0 -2.9,-1.9 -2.9,-4.7 -0.1,-2.9 0.5,-5.3 3,-5.3 z m -9.5,1.7 0.1,0 c 0.9,0 2,-0.2 2.3,-1.5 l 0,-0.2 1.1,0 0,9.8 -1.5,0 0,-7.1 -2,0 0,-1 z m -3.6,6.3 1.5,0 0,1.8 -1.5,0 0,-1.8 z m -4.4,-6.9 c -1.1,0 -1.3,1 -1.3,2 l -1.5,0 c 0,-1.9 0.8,-3.1 2.8,-3.1 2,0 2.7,1.2 2.7,2.6 0,3.2 -3.1,3.4 -3.8,5.8 l 3.9,0 0,1.4 -5.6,0 c 0,-4.2 4,-4.1 4,-7.2 0,-0.8 -0.4,-1.5 -1.2,-1.5 z m -9.8,-0.9 5.7,0 0,1.2 c -1.5,2 -2.8,5.4 -3,8.3 l -1.6,0 C 29,51 30.4,47.7 31.9,45.7 l -4.2,0 0,-1.3 z m -6.4,1.5 0.1,0 c 0.9,0 2,-0.2 2.3,-1.5 l 0,-0.2 1.1,0 0,9.8 -1.5,0 0,-7.1 -2,0 0,-1 z"
       class="st2"
       inkscape:connector-curvature="0"
       style="fill:#ffffff" /><path
       id="path33"
       d="m 75.9,65.3 c 1.8,0 2.9,1.2 2.9,5 0,3.8 -1,5 -2.9,5 -1.8,0 -2.9,-1.2 -2.9,-5 0,-3.8 1,-5 2.9,-5 z m -6.1,8 1.5,0 0,1.8 -1.5,0 0,-1.8 z m -4.4,-6.9 c -1.1,0 -1.3,1 -1.3,2 l -1.5,0 c 0,-1.9 0.8,-3.1 2.8,-3.1 2,0 2.7,1.2 2.7,2.6 0,3.2 -3.1,3.4 -3.8,5.8 l 3.9,0 0,1.3 -5.6,0 c 0,-4.2 4,-4.1 4,-7.2 0,-0.7 -0.4,-1.4 -1.2,-1.4 z m -6.1,6.9 1.5,0 0,1.8 -1.5,0 0,-1.8 z m -4.3,-8 c 1.7,0 2.6,0.8 2.6,2.4 l -1.6,0 c 0,-0.6 -0.3,-1.3 -1,-1.3 -1.4,0 -1.5,1.9 -1.5,3.4 l 0,0 c 0.4,-0.7 1,-1 1.9,-1 1.3,0 2.4,1 2.4,2.9 0,2.2 -0.9,3.6 -2.9,3.6 -2.4,0 -2.9,-1.9 -2.9,-4.7 -0.1,-2.9 0.5,-5.3 3,-5.3 z m -9.5,1.7 0.1,0 c 0.9,0 2,-0.2 2.3,-1.5 l 0,-0.2 1.1,0 0,9.8 -1.5,0 0,-7.1 -2,0 0,-1 z m -3.6,6.3 1.5,0 0,1.8 -1.5,0 0,-1.8 z m -4.4,-6.9 c -1.1,0 -1.3,1 -1.3,2 l -1.5,0 c 0,-1.9 0.8,-3.1 2.8,-3.1 2,0 2.7,1.2 2.7,2.6 0,3.2 -3.1,3.4 -3.8,5.8 l 3.9,0 0,1.3 -5.6,0 c 0,-4.2 4,-4.1 4,-7.2 0,-0.7 -0.4,-1.4 -1.2,-1.4 z m -9.8,-0.9 5.7,0 0,1.2 c -1.5,2 -2.8,5.4 -3,8.3 l -1.6,0 c 0.2,-2.9 1.6,-6.2 3.1,-8.2 l -4.2,0 0,-1.3 z m -6.4,1.5 0.1,0 c 0.9,0 2,-0.2 2.3,-1.5 l 0,-0.2 1.1,0 0,9.8 -1.5,0 0,-7.1 -2,0 0,-1 z"
       class="st2"
       inkscape:connector-curvature="0"
       style="fill:#ffffff" /><path
       id="path35"
       d="m 65.4,23.4 c -1.1,0 -1.3,1 -1.3,3.9 0,2.8 0.3,3.9 1.3,3.9 1.1,0 1.3,-1 1.3,-3.9 0,-2.9 -0.3,-3.9 -1.3,-3.9 z"
       class="st0"
       inkscape:connector-curvature="0"
       style="fill:#f58536" /><path
       id="path37"
       d="m 75.9,23.4 c -1.1,0 -1.3,1 -1.3,3.9 0,2.8 0.3,3.9 1.3,3.9 1.1,0 1.3,-1 1.3,-3.9 0,-2.9 -0.3,-3.9 -1.3,-3.9 z"
       class="st0"
       inkscape:connector-curvature="0"
       style="fill:#f58536" /><path
       id="path39"
       d="m 75.9,53.2 c 1.1,0 1.3,-1 1.3,-3.9 0,-2.8 -0.3,-3.9 -1.3,-3.9 -1.1,0 -1.3,1 -1.3,3.9 0,2.9 0.2,3.9 1.3,3.9 z"
       class="st0"
       inkscape:connector-curvature="0"
       style="fill:#f58536" /><path
       id="path41"
       d="m 54.9,53.2 c 0.9,0 1.3,-1 1.3,-2.1 0,-1.3 -0.4,-2.1 -1.3,-2.1 -1.1,0 -1.3,1 -1.3,2.2 0,1.1 0.4,2 1.3,2 z"
       class="st0"
       inkscape:connector-curvature="0"
       style="fill:#f58536" /><path
       id="path43"
       d="m 75.9,74.3 c 1.1,0 1.3,-1 1.3,-3.9 0,-2.8 -0.3,-3.9 -1.3,-3.9 -1.1,0 -1.3,1 -1.3,3.9 0,2.9 0.2,3.9 1.3,3.9 z"
       class="st0"
       inkscape:connector-curvature="0"
       style="fill:#f58536" /><path
       id="path45"
       d="m 54.9,74.3 c 0.9,0 1.3,-1 1.3,-2.1 0,-1.3 -0.4,-2.1 -1.3,-2.1 -1.1,0 -1.3,1 -1.3,2.2 0,1.1 0.4,2 1.3,2 z"
       class="st0"
       inkscape:connector-curvature="0"
       style="fill:#f58536" /><path
       id="path47"
       d="m 54.9,31.1 c 0.9,0 1.3,-1 1.3,-2.1 0,-1.3 -0.4,-2.1 -1.3,-2.1 -1.1,0 -1.3,1 -1.3,2.2 0,1.1 0.4,2 1.3,2 z"
       class="st0"
       inkscape:connector-curvature="0"
       style="fill:#f58536" /></g></svg>