<?xml version="1.0" encoding="UTF-8" standalone="no"?>
<!-- Generator: Adobe Illustrator 16.0.0, SVG Export Plug-In . SVG Version: 6.00 Build 0)  -->

<svg
   xmlns:dc="http://purl.org/dc/elements/1.1/"
   xmlns:cc="http://creativecommons.org/ns#"
   xmlns:rdf="http://www.w3.org/1999/02/22-rdf-syntax-ns#"
   xmlns:svg="http://www.w3.org/2000/svg"
   xmlns="http://www.w3.org/2000/svg"
   xmlns:sodipodi="http://sodipodi.sourceforge.net/DTD/sodipodi-0.dtd"
   xmlns:inkscape="http://www.inkscape.org/namespaces/inkscape"
   version="1.2"
   x="0px"
   y="0px"
   width="100px"
   height="100px"
   viewBox="0 0 100 100"
   xml:space="preserve"
   id="svg2"
   inkscape:version="0.91 r13725"
   sodipodi:docname="Networking_Route53.svg"><metadata
     id="metadata29"><rdf:RDF><cc:Work
         rdf:about=""><dc:format>image/svg+xml</dc:format><dc:type
           rdf:resource="http://purl.org/dc/dcmitype/StillImage" /></cc:Work></rdf:RDF></metadata><defs
     id="defs27" /><sodipodi:namedview
     pagecolor="#ffffff"
     bordercolor="#666666"
     borderopacity="1"
     objecttolerance="10"
     gridtolerance="10"
     guidetolerance="10"
     inkscape:pageopacity="0"
     inkscape:pageshadow="2"
     inkscape:window-width="1280"
     inkscape:window-height="985"
     id="namedview25"
     showgrid="false"
     inkscape:zoom="7.4579687"
     inkscape:cx="50.26817"
     inkscape:cy="50"
     inkscape:window-x="0"
     inkscape:window-y="0"
     inkscape:window-maximized="1"
     inkscape:current-layer="svg2" /><g
     id="Layer_3"
     transform="matrix(1.3888889,0,0,1.3888889,-7.4631667,-33.002278)" /><g
     id="Layer_1"
     transform="matrix(1.3888889,0,0,1.3888889,-18.064584,-17.865278)"><g
       id="g6"><polygon
         points="61.6,19.164 61.6,78.562 48.999,84.863 48.999,12.863 "
         id="polygon8"
         style="fill:#f58536" /><polygon
         points="36.398,19.164 36.398,78.562 48.999,84.863 48.999,12.863 "
         id="polygon10"
         style="fill:#9d5025" /><polygon
         points="44.248,30.859 44.248,39.071 22.983,36.358 22.983,25.871 "
         id="polygon12"
         style="fill:#f58536" /><polygon
         points="75.015,42.979 75.015,32.016 53.75,35.671 53.75,44.255 "
         id="polygon14"
         style="fill:#9d5025" /><polygon
         points="78.822,33.41 78.822,43.392 75.015,42.897 75.015,32.016 "
         id="polygon16"
         style="fill:#f58536" /><polygon
         points="19.191,37.39 19.191,27.768 22.983,25.871 22.983,36.358 "
         id="polygon18"
         style="fill:#9d5025" /><polygon
         points="22.983,36.358 44.248,39.071 39.826,39.715 19.191,37.39 "
         id="polygon20"
         style="fill:#6b3a19" /><polygon
         points="75.443,42.953 78.822,43.392 57.704,44.526 53.75,44.255 "
         id="polygon22"
         style="fill:#6b3a19" /></g></g><g
     id="nyt_x5F_exporter_x5F_info"
     display="none" /></svg>