<?xml version="1.0" encoding="UTF-8" standalone="no"?>
<!-- Generator: Adobe Illustrator 19.1.0, SVG Export Plug-In . SVG Version: 6.00 Build 0)  -->

<svg
   xmlns:dc="http://purl.org/dc/elements/1.1/"
   xmlns:cc="http://creativecommons.org/ns#"
   xmlns:rdf="http://www.w3.org/1999/02/22-rdf-syntax-ns#"
   xmlns:svg="http://www.w3.org/2000/svg"
   xmlns="http://www.w3.org/2000/svg"
   xmlns:xlink="http://www.w3.org/1999/xlink"
   xmlns:sodipodi="http://sodipodi.sourceforge.net/DTD/sodipodi-0.dtd"
   xmlns:inkscape="http://www.inkscape.org/namespaces/inkscape"
   version="1.1"
   id="Layer_1"
   x="0px"
   y="0px"
   viewBox="0 0 100 100"
   style="enable-background:new 0 0 100 100;"
   xml:space="preserve"
   inkscape:version="0.91 r13725"
   sodipodi:docname="Networking_Route53_HostedZone.svg"><metadata
     id="metadata81"><rdf:RDF><cc:Work
         rdf:about=""><dc:format>image/svg+xml</dc:format><dc:type
           rdf:resource="http://purl.org/dc/dcmitype/StillImage" /></cc:Work></rdf:RDF></metadata><defs
     id="defs79" /><sodipodi:namedview
     pagecolor="#ffffff"
     bordercolor="#666666"
     borderopacity="1"
     objecttolerance="10"
     gridtolerance="10"
     guidetolerance="10"
     inkscape:pageopacity="0"
     inkscape:pageshadow="2"
     inkscape:window-width="1280"
     inkscape:window-height="985"
     id="namedview77"
     showgrid="false"
     inkscape:zoom="7.4579687"
     inkscape:cx="50.26817"
     inkscape:cy="50"
     inkscape:window-x="0"
     inkscape:window-y="0"
     inkscape:window-maximized="1"
     inkscape:current-layer="Layer_1" /><style
     type="text/css"
     id="style3">
	.st0{clip-path:url(#SVGID_2_);enable-background:new    ;}
	.st1{fill:#9D5025;}
	.st2{clip-path:url(#SVGID_4_);enable-background:new    ;}
	.st3{clip-path:url(#SVGID_6_);enable-background:new    ;}
	.st4{fill:#F58536;}
	.st5{clip-path:url(#SVGID_8_);enable-background:new    ;}
</style><g
     id="g3409"
     transform="translate(-21.419526,21.600002)"><g
       transform="matrix(1.7574692,0,0,1.7574692,-16.33182,-59.385589)"
       id="g5"><defs
         id="defs7"><path
           inkscape:connector-curvature="0"
           d="m 73.2,44.7 0,-2.3 c 0,-5.4 3.9,-9.9 4.1,-10.1 l 0,2.3 c -0.3,0.2 -4.1,4.7 -4.1,10.1 z"
           id="SVGID_1_" /></defs><use
         height="100%"
         width="100%"
         y="0"
         x="0"
         id="use10"
         style="overflow:visible;fill:#9d5025"
         xlink:href="#SVGID_1_" /><clipPath
         id="SVGID_2_"><use
           height="100%"
           width="100%"
           y="0"
           x="0"
           id="use13"
           style="overflow:visible"
           xlink:href="#SVGID_1_" /></clipPath><g
         style="enable-background:new"
         clip-path="url(#SVGID_2_)"
         id="g15"
         class="st0"><path
           style="fill:#9d5025"
           inkscape:connector-curvature="0"
           id="path17"
           d="m 77.2,32.2 0,2.3 c -0.1,0.1 -1.1,1.2 -2,3 l 0,-2.3 c 1,-1.7 1.9,-2.9 2,-3"
           class="st1" /><path
           style="fill:#9d5025"
           inkscape:connector-curvature="0"
           id="path19"
           d="m 75.2,35.2 0,2.3 c -0.5,0.9 -1,2 -1.4,3.1 l 0,-2.3 c 0.4,-1.1 0.9,-2.2 1.4,-3.1"
           class="st1" /><path
           style="fill:#9d5025"
           inkscape:connector-curvature="0"
           id="path21"
           d="m 73.8,38.3 0,2.3 c -0.2,0.7 -0.4,1.5 -0.5,2.3 l 0,-2.3 c 0.1,-0.8 0.3,-1.5 0.5,-2.3"
           class="st1" /><path
           style="fill:#9d5025"
           inkscape:connector-curvature="0"
           id="path23"
           d="m 73.3,40.6 0,2.4 c -0.1,0.6 -0.1,1.1 -0.1,1.7 l 0,-2.3 c 0,-0.6 0,-1.2 0.1,-1.8"
           class="st1" /></g></g><g
       transform="matrix(1.7574692,0,0,1.7574692,-16.33182,-59.385589)"
       id="g25"><defs
         id="defs27"><path
           inkscape:connector-curvature="0"
           d="m 26,43 0,2.3 c 0,-4.8 -3.8,-9.6 -4,-9.9 l 0,-2.3 c 0.1,0.3 4,5.1 4,9.9 z"
           id="SVGID_3_" /></defs><use
         height="100%"
         width="100%"
         y="0"
         x="0"
         id="use30"
         style="overflow:visible;fill:#9d5025"
         xlink:href="#SVGID_3_" /><clipPath
         id="SVGID_4_"><use
           height="100%"
           width="100%"
           y="0"
           x="0"
           id="use33"
           style="overflow:visible"
           xlink:href="#SVGID_3_" /></clipPath><g
         style="enable-background:new"
         clip-path="url(#SVGID_4_)"
         id="g35"
         class="st2"><path
           style="fill:#9d5025"
           inkscape:connector-curvature="0"
           id="path37"
           d="m 26,43 0,2.3 c 0,-4.8 -3.8,-9.6 -4,-9.9 l 0,-2.3 c 0.1,0.3 4,5.1 4,9.9"
           class="st1" /></g></g><g
       transform="matrix(1.7574692,0,0,1.7574692,-16.33182,-59.385589)"
       id="g39"><defs
         id="defs41"><path
           inkscape:connector-curvature="0"
           d="m 21.7,58.8 0,-2.3 c 0,0.8 0.1,1.7 0.2,2.7 2.5,15.4 22.3,9 28.8,16.7 l 0,2.3 C 44.3,70.4 24.4,76.9 21.9,61.5 c -0.1,-1 -0.2,-1.9 -0.2,-2.7 z"
           id="SVGID_5_" /></defs><use
         height="100%"
         width="100%"
         y="0"
         x="0"
         id="use44"
         style="overflow:visible;fill:#9d5025"
         xlink:href="#SVGID_5_" /><clipPath
         id="SVGID_6_"><use
           height="100%"
           width="100%"
           y="0"
           x="0"
           id="use47"
           style="overflow:visible"
           xlink:href="#SVGID_5_" /></clipPath><g
         style="enable-background:new"
         clip-path="url(#SVGID_6_)"
         id="g49"
         class="st3"><path
           style="fill:#9d5025"
           inkscape:connector-curvature="0"
           id="path51"
           d="m 50.7,75.9 0,2.3 C 44.3,70.4 24.4,76.9 21.9,61.5 c -0.2,-1 -0.2,-1.9 -0.2,-2.7 l 0,-2.3 c 0,0.8 0.1,1.7 0.2,2.7 2.5,15.4 22.4,9 28.8,16.7"
           class="st1" /></g></g><g
       transform="matrix(1.7574692,0,0,1.7574692,-16.33182,-59.385589)"
       id="g53"><path
         style="fill:#f58536"
         inkscape:connector-curvature="0"
         id="path55"
         d="m 50.5,21.5 c 0.3,0 0.6,0.1 0.7,0.2 3,3.3 5.9,4.5 8.6,4.5 5.3,0 9.1,-4.3 9.3,-4.5 l 8.1,10.5 c -0.2,0.3 -4.3,5 -4.1,10.6 0.3,6.6 6.4,8.9 4.9,16.4 -2.7,13.4 -15.8,8 -26.5,16.7 -0.2,0.2 -0.4,0.2 -0.5,0.2 -0.3,0 -0.4,-0.2 -0.4,-0.2 -6.4,-7.8 -26.3,-1.3 -28.8,-16.7 -1.4,-8.5 3.8,-9.5 4,-15.8 0.2,-4.9 -3.8,-10 -4,-10.3 l 9.4,-11.4 c 0.2,0.2 4.1,4.1 9.7,4.1 2.8,0 5.9,-1 9,-4.1 0.2,-0.1 0.4,-0.2 0.6,-0.2 z"
         class="st4" /></g><g
       transform="matrix(1.7574692,0,0,1.7574692,-16.33182,-59.385589)"
       id="g57"><defs
         id="defs59"><path
           inkscape:connector-curvature="0"
           d="m 78.3,56.9 0,2.3 c 0,0.7 -0.1,1.5 -0.2,2.3 -2.7,13.4 -15.8,8 -26.5,16.7 -0.2,0.2 -0.4,0.2 -0.5,0.2 -0.3,0 -0.4,-0.2 -0.4,-0.2 l 0,-2.3 c 0,0 0.1,0.2 0.4,0.2 0.1,0 0.3,-0.1 0.5,-0.2 10.6,-8.7 23.7,-3.3 26.5,-16.7 0.1,-0.8 0.2,-1.6 0.2,-2.3 z"
           id="SVGID_7_" /></defs><use
         height="100%"
         width="100%"
         y="0"
         x="0"
         id="use62"
         style="overflow:visible;fill:#9d5025"
         xlink:href="#SVGID_7_" /><clipPath
         id="SVGID_8_"><use
           height="100%"
           width="100%"
           y="0"
           x="0"
           id="use65"
           style="overflow:visible"
           xlink:href="#SVGID_7_" /></clipPath><g
         style="enable-background:new"
         clip-path="url(#SVGID_8_)"
         id="g67"
         class="st5"><path
           style="fill:#9d5025"
           inkscape:connector-curvature="0"
           id="path69"
           d="m 78.3,56.9 0,2.3 c 0,0.5 0,1 -0.1,1.6 l 0,-2.3 c 0.1,-0.5 0.1,-1.1 0.1,-1.6"
           class="st1" /><path
           style="fill:#9d5025"
           inkscape:connector-curvature="0"
           id="path71"
           d="m 78.2,58.5 0,2.3 c 0,0.2 -0.1,0.5 -0.1,0.7 -0.1,0.7 -0.3,1.3 -0.5,1.9 l 0,-2.3 c 0.2,-0.6 0.3,-1.2 0.5,-1.9 0,-0.2 0,-0.5 0.1,-0.7"
           class="st1" /><path
           style="fill:#9d5025"
           inkscape:connector-curvature="0"
           id="path73"
           d="m 77.6,61.1 0,2.3 c -0.3,0.9 -0.6,1.6 -1,2.3 l 0,-2.3 c 0.4,-0.7 0.7,-1.5 1,-2.3"
           class="st1" /><path
           style="fill:#9d5025"
           inkscape:connector-curvature="0"
           id="path75"
           d="m 76.6,63.4 0,2.3 c -4.5,8.1 -15.7,4.9 -25,12.5 -0.2,0.2 -0.4,0.2 -0.5,0.2 -0.3,0 -0.4,-0.2 -0.4,-0.2 l 0,-2.3 c 0,0 0.1,0.2 0.4,0.2 0.1,0 0.3,-0.1 0.5,-0.2 9.3,-7.6 20.5,-4.4 25,-12.5"
           class="st1" /></g></g></g></svg>