<?xml version="1.0" encoding="UTF-8" standalone="no"?>
<!-- Generator: Adobe Illustrator 16.0.0, SVG Export Plug-In . SVG Version: 6.00 Build 0)  -->

<svg
   xmlns:dc="http://purl.org/dc/elements/1.1/"
   xmlns:cc="http://creativecommons.org/ns#"
   xmlns:rdf="http://www.w3.org/1999/02/22-rdf-syntax-ns#"
   xmlns:svg="http://www.w3.org/2000/svg"
   xmlns="http://www.w3.org/2000/svg"
   xmlns:sodipodi="http://sodipodi.sourceforge.net/DTD/sodipodi-0.dtd"
   xmlns:inkscape="http://www.inkscape.org/namespaces/inkscape"
   version="1.2"
   x="0px"
   y="0px"
   width="98.5px"
   height="98.5px"
   viewBox="0 0 98.5 98.5"
   xml:space="preserve"
   id="svg2"
   inkscape:version="0.91 r13725"
   sodipodi:docname="StorageContentDelivery_AmazonStorageGateway_CachedVolume.svg"><metadata
     id="metadata40"><rdf:RDF><cc:Work
         rdf:about=""><dc:format>image/svg+xml</dc:format><dc:type
           rdf:resource="http://purl.org/dc/dcmitype/StillImage" /></cc:Work></rdf:RDF></metadata><defs
     id="defs38" /><sodipodi:namedview
     pagecolor="#ffffff"
     bordercolor="#666666"
     borderopacity="1"
     objecttolerance="10"
     gridtolerance="10"
     guidetolerance="10"
     inkscape:pageopacity="0"
     inkscape:pageshadow="2"
     inkscape:window-width="1280"
     inkscape:window-height="985"
     id="namedview36"
     showgrid="false"
     inkscape:zoom="7.5715419"
     inkscape:cx="49.514147"
     inkscape:cy="49.25"
     inkscape:window-x="0"
     inkscape:window-y="0"
     inkscape:window-maximized="1"
     inkscape:current-layer="svg2" /><g
     id="Layer_1"
     transform="matrix(1.5151515,0,0,1.5151515,-24.819697,-26.507575)"><g
       id="g5"><g
         id="g7"><rect
           x="41.146999"
           y="69.980003"
           width="15.477"
           height="3.1800001"
           id="rect9"
           style="fill:#8c3123" /></g><g
         id="g11"><polygon
           points="56.624,69.98 41.147,69.98 41.147,79.82 22.419,79.82 22.419,17 75.353,17 75.353,80.083 56.624,80.083 "
           id="polygon13"
           style="fill:#e05243" /></g><g
         id="g15"><rect
           x="56.624001"
           y="79.82"
           width="18.729"
           height="3.1800001"
           id="rect17"
           style="fill:#8c3123" /></g><g
         id="g19"><rect
           x="22.419001"
           y="79.82"
           width="18.729"
           height="3.1800001"
           id="rect21"
           style="fill:#8c3123" /></g></g><g
       id="g23"><path
         d="m 36.413,32.467 0,0.232 c 0,2.002 -0.812,3.957 -3.439,3.957 -2.812,0 -3.688,-1.799 -3.688,-5.758 0,-3.957 0.875,-5.758 3.705,-5.758 3.172,0 3.357,2.328 3.357,3.477 l 0,0.201 -1.779,0 0,-0.186 c 0,-1.023 -0.314,-2.203 -1.596,-2.156 -1.311,0 -1.904,0.807 -1.904,4.375 0,3.57 0.594,4.471 1.904,4.471 1.486,0 1.66,-1.646 1.66,-2.67 l 0,-0.186 1.78,0 z"
         id="path25"
         inkscape:connector-curvature="0"
         style="fill:#ffffff" /><path
         d="m 39.771,25.359 2.281,0 2.936,11.08 -1.858,0 -0.689,-2.717 -3.264,0 -0.721,2.717 -1.857,0 3.172,-11.08 z m 2.373,6.952 -1.281,-5.461 -0.031,0 -1.328,5.461 2.64,0 z"
         id="path27"
         inkscape:connector-curvature="0"
         style="fill:#ffffff" /><path
         d="m 52.626,32.467 0,0.232 c 0,2.002 -0.812,3.957 -3.438,3.957 -2.812,0 -3.688,-1.799 -3.688,-5.758 0,-3.957 0.875,-5.758 3.705,-5.758 3.172,0 3.359,2.328 3.359,3.477 l 0,0.201 -1.784,0 0,-0.186 c 0,-1.023 -0.311,-2.203 -1.592,-2.156 -1.314,0 -1.906,0.807 -1.906,4.375 0,3.57 0.592,4.471 1.906,4.471 1.486,0 1.656,-1.646 1.656,-2.67 l 0,-0.186 1.782,0 z"
         id="path29"
         inkscape:connector-curvature="0"
         style="fill:#ffffff" /><path
         d="m 53.872,25.359 1.783,0 0,4.438 3.281,0 0,-4.438 1.779,0 0,11.08 -1.779,0 0,-5.152 -3.281,0 0,5.152 -1.783,0 0,-11.08 z"
         id="path31"
         inkscape:connector-curvature="0"
         style="fill:#ffffff" /><path
         d="m 62.558,25.359 6.033,0 0,1.49 -4.25,0 0,3.072 3.998,0 0,1.49 -3.998,0 0,3.537 4.373,0 0,1.49 -6.156,0 0,-11.079 z"
         id="path33"
         inkscape:connector-curvature="0"
         style="fill:#ffffff" /></g></g><g
     id="nyt_x5F_exporter_x5F_info"
     display="none" /></svg>