<?xml version="1.0" encoding="UTF-8" standalone="no"?>
<!-- Generator: Adobe Illustrator 19.0.0, SVG Export Plug-In . SVG Version: 6.00 Build 0)  -->

<svg
   xmlns:dc="http://purl.org/dc/elements/1.1/"
   xmlns:cc="http://creativecommons.org/ns#"
   xmlns:rdf="http://www.w3.org/1999/02/22-rdf-syntax-ns#"
   xmlns:svg="http://www.w3.org/2000/svg"
   xmlns="http://www.w3.org/2000/svg"
   xmlns:sodipodi="http://sodipodi.sourceforge.net/DTD/sodipodi-0.dtd"
   xmlns:inkscape="http://www.inkscape.org/namespaces/inkscape"
   version="1.1"
   id="Layer_1"
   x="0px"
   y="0px"
   viewBox="0 0.7 99 99.3"
   style="enable-background:new 0 0.7 99 99.3;"
   xml:space="preserve"
   inkscape:version="0.91 r13725"
   sodipodi:docname="StorageContentDelivery_AmazonStorageGateway_VirtualTapeLibrary.svg"><metadata
     id="metadata119"><rdf:RDF><cc:Work
         rdf:about=""><dc:format>image/svg+xml</dc:format><dc:type
           rdf:resource="http://purl.org/dc/dcmitype/StillImage" /></cc:Work></rdf:RDF></metadata><defs
     id="defs117" /><sodipodi:namedview
     pagecolor="#ffffff"
     bordercolor="#666666"
     borderopacity="1"
     objecttolerance="10"
     gridtolerance="10"
     guidetolerance="10"
     inkscape:pageopacity="0"
     inkscape:pageshadow="2"
     inkscape:window-width="1280"
     inkscape:window-height="985"
     id="namedview115"
     showgrid="false"
     inkscape:zoom="5.3107554"
     inkscape:cx="46.224048"
     inkscape:cy="39.000266"
     inkscape:window-x="0"
     inkscape:window-y="0"
     inkscape:window-maximized="1"
     inkscape:current-layer="Layer_1" /><style
     type="text/css"
     id="style3">
	.st0{fill:#8C3123;}
	.st1{fill:#E05243;}
	.st2{fill:#FFFFFF;}
	.st3{font-family:'HelveticaNeueLTStd-Roman';}
	.st4{font-size:16px;}
	.st5{display:none;}
</style><g
     id="g3501"
     transform="matrix(1.5151515,0,0,1.5151515,-24.590908,-25.55909)"><text
       y="-3.346"
       style="font-size:12px;font-family:MyriadPro-Regular"
       id="text6" />
<text
       y="-3.346"
       x="34.835899"
       style="font-size:12px;font-family:MyriadPro-Regular"
       id="text22" />
<text
       y="-3.346"
       x="60.708"
       style="font-size:12px;font-family:MyriadPro-Regular"
       id="text32" />
<g
       id="g48"><g
         id="g50"><rect
           x="41.099998"
           y="70.099998"
           class="st0"
           width="15.5"
           height="3.2"
           id="rect52"
           style="fill:#8c3123" /></g><g
         id="g54"><polygon
           class="st1"
           points="41.1,79.9 22.4,79.9 22.4,17.1 75.4,17.1 75.4,80.2 56.6,80.2 56.6,70.1 41.1,70.1 "
           id="polygon56"
           style="fill:#e05243" /></g><g
         id="g58"><rect
           x="56.599998"
           y="79.900002"
           class="st0"
           width="18.700001"
           height="3.2"
           id="rect60"
           style="fill:#8c3123" /></g><g
         id="g62"><rect
           x="22.4"
           y="79.900002"
           class="st0"
           width="18.700001"
           height="3.2"
           id="rect64"
           style="fill:#8c3123" /></g></g><g
       id="g66"><g
         id="g68"><path
           class="st0"
           d="m 66.7,45.3 c -5.4,-2.5 -11.8,-0.2 -14.3,5.1 -1.7,3.6 -1.2,7.7 0.9,10.8 -2.5,0.6 -5,0.7 -7.9,0.7 0.5,-0.5 0.7,-0.7 1,-1.2 1.2,-1.7 1.9,-3.8 1.9,-6.1 0,-5.9 -4.8,-10.7 -10.7,-10.7 -5.9,0 -10.7,4.8 -10.7,10.7 0,5.9 4.8,10.7 10.7,10.7 1.9,0 3.7,-0.5 5.2,-1.4 0.6,0.1 1.2,0.1 1.9,0.1 0,0 5.1,0.6 10.5,-0.7 0.7,0.5 1.4,1 2.2,1.4 5.4,2.5 11.8,0.2 14.3,-5.1 2.7,-5.4 0.4,-11.8 -5,-14.3 z"
           id="path70"
           inkscape:connector-curvature="0"
           style="fill:#8c3123" /><path
           class="st2"
           d="M 66.7,43.2 C 61.3,40.7 54.9,43 52.4,48.3 c -1.7,3.6 -1.2,7.7 0.9,10.8 -2.5,0.6 -5.3,1 -8.2,1 2,-2 3.3,-4.7 3.3,-7.7 0,-5.9 -4.8,-10.7 -10.7,-10.7 -5.9,0 -10.7,4.8 -10.7,10.7 0,5.9 4.8,10.7 10.7,10.7 1.9,0 3.7,-0.5 5.2,-1.4 0.6,0.1 1.2,0.1 1.9,0.1 0,0 5.1,0.6 10.5,-0.7 0.7,0.5 1.4,1 2.2,1.4 5.4,2.5 11.8,0.2 14.3,-5.1 2.5,-5.3 0.3,-11.7 -5.1,-14.2 z"
           id="path72"
           inkscape:connector-curvature="0"
           style="fill:#ffffff" /><path
           class="st1"
           d="M 35.2,55 C 34.5,54.2 33.3,54 32.4,54.7 L 30.9,56 c -0.8,0.7 -1,1.9 -0.3,2.7 l 0.1,0.2 c 0.7,0.8 1.9,1 2.7,0.3 L 34.9,58 c 0.8,-0.7 1,-1.9 0.3,-2.8 l 0,-0.2 z"
           id="path74"
           inkscape:connector-curvature="0"
           style="fill:#e05243" /><path
           class="st1"
           d="m 47.1,53 c 0,-1.1 -0.8,-2 -1.9,-2 l -2,0 c -1.1,0 -2,0.8 -2,1.9 l 0,0.2 c 0,1.1 0.8,2 1.9,2 l 2,0 c 1.1,0 2,-0.8 2,-1.9 l 0,-0.2 z"
           id="path76"
           inkscape:connector-curvature="0"
           style="fill:#e05243" /><path
           class="st1"
           d="m 36.6,48.7 c 1,-0.3 1.6,-1.5 1.2,-2.5 l -0.6,-1.9 c -0.3,-1 -1.5,-1.6 -2.5,-1.2 l -0.2,0.1 c -1,0.3 -1.6,1.5 -1.2,2.5 l 0.6,1.9 c 0.3,1 1.5,1.6 2.5,1.2 l 0.2,-0.1 z"
           id="path78"
           inkscape:connector-curvature="0"
           style="fill:#e05243" /><circle
           class="st1"
           cx="37.599998"
           cy="52.400002"
           r="1.5"
           id="circle80"
           style="fill:#e05243" /><path
           class="st1"
           d="m 63.4,56.2 c -1,0.3 -1.7,1.3 -1.4,2.4 l 0.5,1.9 c 0.3,1 1.3,1.7 2.4,1.4 l 0.2,-0.1 c 1,-0.3 1.7,-1.3 1.4,-2.4 L 66,57.6 c -0.3,-1 -1.3,-1.7 -2.4,-1.4 l -0.2,0 z"
           id="path82"
           inkscape:connector-curvature="0"
           style="fill:#e05243" /><path
           class="st1"
           d="m 66.6,44.6 c -1,-0.5 -2.1,-0.1 -2.6,0.9 l -0.9,1.8 c -0.5,1 -0.1,2.1 0.9,2.6 l 0.2,0.1 c 1,0.5 2.1,0.1 2.6,-0.9 l 0.9,-1.8 c 0.5,-1 0.1,-2.1 -0.9,-2.6 l -0.2,-0.1 z"
           id="path84"
           inkscape:connector-curvature="0"
           style="fill:#e05243" /><path
           class="st1"
           d="m 58.3,52.2 c 0.1,-1.1 -0.6,-2 -1.7,-2.2 l -1.9,-0.2 c -1.1,-0.1 -2,0.6 -2.2,1.7 l 0,0.2 c -0.1,1.1 0.6,2 1.7,2.2 l 1.9,0.2 c 1.1,0.1 2,-0.6 2.2,-1.7 l 0,-0.2 z"
           id="path86"
           inkscape:connector-curvature="0"
           style="fill:#e05243" /><path
           class="st1"
           d="m 62.8,51.5 c -0.8,-0.4 -1.7,0 -2,0.7 -0.4,0.8 0,1.7 0.7,2 0.8,0.4 1.7,0 2,-0.7 0.3,-0.7 0,-1.6 -0.7,-2 z"
           id="path88"
           inkscape:connector-curvature="0"
           style="fill:#e05243" /><path
           class="st0"
           d="m 47.1,53 c 0,-1.1 -0.8,-2 -1.9,-2 l -2,0 c -1.1,0 -2,1 -2,1.9 3.6,-0.9 5.9,0.1 5.9,0.1 z"
           id="path90"
           inkscape:connector-curvature="0"
           style="fill:#8c3123" /><path
           class="st0"
           d="m 52.4,51.4 c 0.1,-1.1 1.1,-1.8 2.2,-1.7 l 1.9,0.2 c 1.1,0.1 1.9,1.3 1.7,2.2 -3.3,-1.4 -5.8,-0.7 -5.8,-0.7 z"
           id="path92"
           inkscape:connector-curvature="0"
           style="fill:#8c3123" /><path
           class="st0"
           d="m 35.7,56 c 0,0 -0.1,-0.5 -0.5,-1 -0.4,-0.5 -1.1,-1.1 -2.5,-0.5 L 30.9,56 c -0.7,0.8 -0.7,1.2 -0.7,1.1 0.1,-0.1 2.9,-2.3 5.5,-1.1 z"
           id="path94"
           inkscape:connector-curvature="0"
           style="fill:#8c3123" /></g><path
         class="st0"
         d="m 37.3,44.3 c -0.3,-1 -1.5,-1.6 -2.5,-1.2 l -0.2,0.1 c -1,0.3 -1.6,1.4 -1.2,2.5 1.5,-2.2 3.9,-1.4 3.9,-1.4 z"
         id="path96"
         inkscape:connector-curvature="0"
         style="fill:#8c3123" /><path
         class="st0"
         d="m 63.9,45.7 c 0.3,-1 1.5,-1.6 2.5,-1.2 l 0.2,0.1 c 1,0.3 1.6,1.4 1.2,2.5 -1.5,-2.3 -3.9,-1.4 -3.9,-1.4 z"
         id="path98"
         inkscape:connector-curvature="0"
         style="fill:#8c3123" /><path
         class="st0"
         d="m 61.9,58.3 c -0.1,-1.1 0.7,-2.1 1.7,-2.2 l 0.2,0 c 1.1,-0.1 2.1,0.7 2.2,1.8 -2.2,-1.4 -4.1,0.4 -4.1,0.4 z"
         id="path100"
         inkscape:connector-curvature="0"
         style="fill:#8c3123" /><path
         class="st1"
         d="M 30.3,57.8"
         id="path102"
         inkscape:connector-curvature="0"
         style="fill:#e05243" /><path
         class="st0"
         d="m 36.1,52.2 c 0,0 0.3,-1.3 1.5,-1.3 1.2,0 1.5,1.3 1.5,1.3 0,0 -1.4,-1 -3,0 z"
         id="path104"
         inkscape:connector-curvature="0"
         style="fill:#8c3123" /><path
         class="st0"
         d="m 60.6,52.8 c 0,0 0.3,-1.3 1.5,-1.4 1.2,-0.1 2,1.8 2,1.8 0,0 -2,-1.5 -3.5,-0.4 z"
         id="path106"
         inkscape:connector-curvature="0"
         style="fill:#8c3123" /></g><text
       y="33.556301"
       x="36.783199"
       class="st2 st3 st4"
       id="text108"
       style="font-size:16px;font-family:HelveticaNeueLTStd-Roman;fill:#ffffff">V</text>
<text
       y="33.556301"
       x="46.367199"
       class="st2 st3 st4"
       id="text110"
       style="font-size:16px;font-family:HelveticaNeueLTStd-Roman;fill:#ffffff">T</text>
<text
       y="33.556301"
       x="54.686501"
       class="st2 st3 st4"
       id="text112"
       style="font-size:16px;font-family:HelveticaNeueLTStd-Roman;fill:#ffffff">L</text>
</g><g
     id="nyt_x5F_exporter_x5F_info"
     class="st5" /></svg>