<?xml version="1.0" encoding="UTF-8" standalone="no"?>
<!-- Generator: Adobe Illustrator 16.0.0, SVG Export Plug-In . SVG Version: 6.00 Build 0)  -->

<svg
   xmlns:dc="http://purl.org/dc/elements/1.1/"
   xmlns:cc="http://creativecommons.org/ns#"
   xmlns:rdf="http://www.w3.org/1999/02/22-rdf-syntax-ns#"
   xmlns:svg="http://www.w3.org/2000/svg"
   xmlns="http://www.w3.org/2000/svg"
   xmlns:sodipodi="http://sodipodi.sourceforge.net/DTD/sodipodi-0.dtd"
   xmlns:inkscape="http://www.inkscape.org/namespaces/inkscape"
   version="1.2"
   x="0px"
   y="0px"
   width="100px"
   height="100px"
   viewBox="0 0 100 100"
   xml:space="preserve"
   id="svg2"
   inkscape:version="0.91 r13725"
   sodipodi:docname="StorageContentDelivery_AmazonStorageGateway.svg"><metadata
     id="metadata24"><rdf:RDF><cc:Work
         rdf:about=""><dc:format>image/svg+xml</dc:format><dc:type
           rdf:resource="http://purl.org/dc/dcmitype/StillImage" /></cc:Work></rdf:RDF></metadata><defs
     id="defs22" /><sodipodi:namedview
     pagecolor="#ffffff"
     bordercolor="#666666"
     borderopacity="1"
     objecttolerance="10"
     gridtolerance="10"
     guidetolerance="10"
     inkscape:pageopacity="0"
     inkscape:pageshadow="2"
     inkscape:window-width="1280"
     inkscape:window-height="985"
     id="namedview20"
     showgrid="false"
     inkscape:zoom="7.4579687"
     inkscape:cx="50.26817"
     inkscape:cy="50"
     inkscape:window-x="0"
     inkscape:window-y="0"
     inkscape:window-maximized="1"
     inkscape:current-layer="svg2" /><g
     id="Layer_1"
     transform="matrix(1.3888503,0,0,1.3888503,-18.552956,-19.599455)"><g
       id="g5"><polygon
         points="49.352,39.979 49.352,66.961 75.365,73.048 75.365,36.317 "
         id="polygon7"
         style="fill:#8c3123" /><polygon
         points="56.855,30.763 51.07,32.173 50.906,37.95 56.679,38.947 75.365,36.317 "
         id="polygon9"
         style="fill:#5e1f18" /><polygon
         points="49.352,14.113 49.352,28.513 49.352,86.113 58.273,81.652 58.273,31.189 75.364,36.317 75.364,73.106 79.159,71.21 79.159,37.456 79.176,37.46 79.176,29.024 79.159,29.017 75.364,27.12 "
         id="polygon11"
         style="fill:#e05243" /><polygon
         points="33.477,22.051 33.477,78.176 49.352,86.114 49.352,14.112 "
         id="polygon13"
         style="fill:#8c3123" /><polygon
         points="27.904,24.837 27.904,75.39 19.543,71.208 19.543,29.017 "
         id="polygon15"
         style="fill:#8c3123" /><polygon
         points="33.477,26.345 33.477,73.729 27.904,75.227 27.904,24.837 "
         id="polygon17"
         style="fill:#e05243" /></g></g><g
     id="nyt_x5F_exporter_x5F_info"
     display="none" /></svg>