<?xml version="1.0" encoding="UTF-8" standalone="no"?>
<!-- Generator: Adobe Illustrator 19.1.0, SVG Export Plug-In . SVG Version: 6.00 Build 0)  -->

<svg
   xmlns:dc="http://purl.org/dc/elements/1.1/"
   xmlns:cc="http://creativecommons.org/ns#"
   xmlns:rdf="http://www.w3.org/1999/02/22-rdf-syntax-ns#"
   xmlns:svg="http://www.w3.org/2000/svg"
   xmlns="http://www.w3.org/2000/svg"
   xmlns:sodipodi="http://sodipodi.sourceforge.net/DTD/sodipodi-0.dtd"
   xmlns:inkscape="http://www.inkscape.org/namespaces/inkscape"
   version="1.1"
   id="Layer_1"
   x="0px"
   y="0px"
   viewBox="0 0 100 100"
   style="enable-background:new 0 0 100 100;"
   xml:space="preserve"
   inkscape:version="0.91 r13725"
   sodipodi:docname="Database_AWSDatabaseMigrationService.svg"><metadata
     id="metadata41"><rdf:RDF><cc:Work
         rdf:about=""><dc:format>image/svg+xml</dc:format><dc:type
           rdf:resource="http://purl.org/dc/dcmitype/StillImage" /></cc:Work></rdf:RDF></metadata><defs
     id="defs39" /><sodipodi:namedview
     pagecolor="#ffffff"
     bordercolor="#666666"
     borderopacity="1"
     objecttolerance="10"
     gridtolerance="10"
     guidetolerance="10"
     inkscape:pageopacity="0"
     inkscape:pageshadow="2"
     inkscape:window-width="1280"
     inkscape:window-height="985"
     id="namedview37"
     showgrid="false"
     inkscape:zoom="7.4579687"
     inkscape:cx="50.26817"
     inkscape:cy="50"
     inkscape:window-x="0"
     inkscape:window-y="0"
     inkscape:window-maximized="1"
     inkscape:current-layer="Layer_1" /><style
     type="text/css"
     id="style3">
	.st0{fill:#99BBE1;}
	.st1{fill:#19486F;}
	.st2{fill:#2E73B7;}
	.st3{fill:#1F5B98;}
	.st4{fill:#5193CE;}
</style><g
     id="g5"
     transform="matrix(1.3888889,0,0,1.3888889,-19.444445,-19.444446)"><polygon
       class="st0"
       points="60.1,55.3 60,55.3 40,55.3 39.9,55.3 39.9,55.3 39.9,55.3 25.6,56.1 18.2,58.4 25.6,67.3 39.9,64.9 39.9,65 39.9,68.5 40,68.5 60,68.5 60.1,68.5 60.1,65 60.1,64.9 74.4,67.3 81.8,58.4 74.4,56.1 60.1,55.3 60.1,55.3 "
       id="polygon7"
       style="fill:#99bbe1" /><polygon
       class="st1"
       points="60.1,44.6 60,44.6 40,44.6 39.9,44.6 39.9,44.5 39.9,44.5 25.6,43.8 18.2,41.5 25.6,32.6 39.9,35 39.9,34.9 39.9,31.3 40,31.3 60,31.3 60.1,31.3 60.1,34.9 60.1,35 74.4,32.6 81.8,41.5 74.4,43.8 60.1,44.5 60.1,44.5 "
       id="polygon9"
       style="fill:#19486f" /><rect
       x="39.900002"
       y="14"
       class="st2"
       width="20.200001"
       height="21.1"
       id="rect11"
       style="fill:#2e73b7" /><polygon
       class="st3"
       points="25.6,38 39.9,35.1 39.9,14 25.6,21.1 "
       id="polygon13"
       style="fill:#1f5b98" /><polygon
       class="st1"
       points="18.2,29.8 18.2,41.6 25.6,38 25.6,21.1 "
       id="polygon15"
       style="fill:#19486f" /><polygon
       class="st4"
       points="74.4,38 60.1,35.1 60.1,14 74.4,21.1 "
       id="polygon17"
       style="fill:#5193ce" /><polygon
       class="st2"
       points="81.8,29.8 81.8,41.6 74.4,38 74.4,21.1 "
       id="polygon19"
       style="fill:#2e73b7" /><rect
       x="39.900002"
       y="64.900002"
       class="st2"
       width="20.200001"
       height="21.1"
       id="rect21"
       style="fill:#2e73b7" /><polygon
       class="st3"
       points="25.6,62 39.9,64.9 39.9,86 25.6,78.9 "
       id="polygon23"
       style="fill:#1f5b98" /><polygon
       class="st1"
       points="18.2,70.2 18.2,58.4 25.6,62 25.6,78.9 "
       id="polygon25"
       style="fill:#19486f" /><polygon
       class="st4"
       points="74.4,62 60.1,64.9 60.1,86 74.4,78.9 "
       id="polygon27"
       style="fill:#5193ce" /><polygon
       class="st2"
       points="81.8,70.2 81.8,58.4 74.4,62 74.4,78.9 "
       id="polygon29"
       style="fill:#2e73b7" /><rect
       x="42.700001"
       y="38.900002"
       class="st2"
       width="14.8"
       height="21.799999"
       id="rect31"
       style="fill:#2e73b7" /><polygon
       class="st4"
       points="67.2,40.3 67.2,59.2 57.5,60.7 57.5,38.9 "
       id="polygon33"
       style="fill:#5193ce" /><polygon
       class="st3"
       points="33.1,40.3 33.1,59.2 42.7,60.7 42.7,38.9 "
       id="polygon35"
       style="fill:#1f5b98" /></g></svg>