<?xml version="1.0" encoding="UTF-8" standalone="no"?>
<!-- Generator: Adobe Illustrator 18.1.1, SVG Export Plug-In . SVG Version: 6.00 Build 0)  -->

<svg
   xmlns:dc="http://purl.org/dc/elements/1.1/"
   xmlns:cc="http://creativecommons.org/ns#"
   xmlns:rdf="http://www.w3.org/1999/02/22-rdf-syntax-ns#"
   xmlns:svg="http://www.w3.org/2000/svg"
   xmlns="http://www.w3.org/2000/svg"
   xmlns:sodipodi="http://sodipodi.sourceforge.net/DTD/sodipodi-0.dtd"
   xmlns:inkscape="http://www.inkscape.org/namespaces/inkscape"
   version="1.2"
   id="Layer_1"
   x="0px"
   y="0px"
   viewBox="0 0 100 100"
   xml:space="preserve"
   inkscape:version="0.91 r13725"
   sodipodi:docname="Compute_AmazonEC2_ElasticIP.svg"><metadata
     id="metadata36"><rdf:RDF><cc:Work
         rdf:about=""><dc:format>image/svg+xml</dc:format><dc:type
           rdf:resource="http://purl.org/dc/dcmitype/StillImage" /></cc:Work></rdf:RDF></metadata><defs
     id="defs34" /><sodipodi:namedview
     pagecolor="#ffffff"
     bordercolor="#666666"
     borderopacity="1"
     objecttolerance="10"
     gridtolerance="10"
     guidetolerance="10"
     inkscape:pageopacity="0"
     inkscape:pageshadow="2"
     inkscape:window-width="1280"
     inkscape:window-height="985"
     id="namedview32"
     showgrid="false"
     inkscape:zoom="7.4579687"
     inkscape:cx="50.26817"
     inkscape:cy="50"
     inkscape:window-x="0"
     inkscape:window-y="0"
     inkscape:window-maximized="1"
     inkscape:current-layer="Layer_1" /><g
     id="Layer_3"
     transform="matrix(1.4726673,0,0,1.4726673,-7.5853648,-28.901714)" /><g
     id="Layer_1_1_"
     transform="matrix(1.4726673,0,0,1.4726673,-23.633365,-23.633365)"><g
       id="g5"><polygon
         points="75.255,48.793 83.952,47.15 83.952,52.82 77.796,55.127 "
         id="polygon7"
         style="fill:#9d5025" /></g><g
       id="g9"><rect
         x="30.606001"
         y="49.43"
         width="31.006001"
         height="5.6680002"
         id="rect11"
         style="fill:#9d5025" /></g><g
       id="g13"><polyline
         points="30.794,49.43 30.794,55.098 30.79,55.107 30.79,49.438 30.794,49.43   "
         id="polyline15"
         style="fill:#9d5025" /><path
         d="m 30.837,49.328 0,5.67 c -0.148,0.465 -0.389,1.02 -0.621,1.439 l 0,-5.67 c 0.232,-0.42 0.426,-0.865 0.574,-1.33"
         id="path17"
         inkscape:connector-curvature="0"
         style="fill:#9d5025" /><path
         d="m 30.216,50.768 0,5.67 c -1.277,2.322 -3.74,3.891 -6.604,3.891 -4.184,0 -7.564,-3.361 -7.564,-7.508 l 0,-5.67 c 0,4.148 3.381,7.51 7.564,7.51 2.864,-0.001 5.326,-1.571 6.604,-3.893"
         id="path19"
         inkscape:connector-curvature="0"
         style="fill:#9d5025" /></g><path
       d="m 30.794,49.43 0,5.668 c -0.971,3.039 -3.797,5.23 -7.182,5.23 -4.184,0 -7.564,-3.361 -7.564,-7.508 l 0,-5.67 c 0,4.148 3.381,7.51 7.564,7.51 3.385,0 6.211,-2.191 7.182,-5.23 z"
       id="path21"
       inkscape:connector-curvature="0"
       style="fill:#9d5025" /><g
       id="g23"><path
         d="m 61.612,38.854 16.248,6.046 0.248,0.086 0.25,0.09 5.594,2.074 -5.594,2.072 -0.266,0.123 -0.232,0.085 -16.248,6.049 0,-6.049 -30.818,0 c -0.971,3.039 -3.797,5.23 -7.182,5.23 -4.184,0 -7.564,-3.361 -7.564,-7.51 0,-4.149 3.381,-7.48 7.564,-7.48 3.385,0 6.211,2.193 7.182,5.23 l 30.818,0 0,-6.046 z"
         id="path25"
         inkscape:connector-curvature="0"
         style="fill:#f58536" /></g><g
       id="g27"><polygon
         points="61.612,55.479 77.86,49.43 77.86,55.098 61.612,61.146 "
         id="polygon29"
         style="fill:#9d5025" /></g></g><g
     id="nyt_x5F_exporter_x5F_info"
     display="none" /></svg>