<?xml version="1.0" encoding="UTF-8" standalone="no"?>
<!-- Generator: Adobe Illustrator 19.1.0, SVG Export Plug-In . SVG Version: 6.00 Build 0)  -->

<svg
   xmlns:dc="http://purl.org/dc/elements/1.1/"
   xmlns:cc="http://creativecommons.org/ns#"
   xmlns:rdf="http://www.w3.org/1999/02/22-rdf-syntax-ns#"
   xmlns:svg="http://www.w3.org/2000/svg"
   xmlns="http://www.w3.org/2000/svg"
   xmlns:xlink="http://www.w3.org/1999/xlink"
   xmlns:sodipodi="http://sodipodi.sourceforge.net/DTD/sodipodi-0.dtd"
   xmlns:inkscape="http://www.inkscape.org/namespaces/inkscape"
   version="1.1"
   id="Layer_1"
   x="0px"
   y="0px"
   viewBox="0 0 100 100"
   style="enable-background:new 0 0 100 100;"
   xml:space="preserve"
   inkscape:version="0.91 r13725"
   sodipodi:docname="Compute_AmazonEC2_SpotInstance.svg"><metadata
     id="metadata55"><rdf:RDF><cc:Work
         rdf:about=""><dc:format>image/svg+xml</dc:format><dc:type
           rdf:resource="http://purl.org/dc/dcmitype/StillImage" /></cc:Work></rdf:RDF></metadata><defs
     id="defs53" /><sodipodi:namedview
     pagecolor="#ffffff"
     bordercolor="#666666"
     borderopacity="1"
     objecttolerance="10"
     gridtolerance="10"
     guidetolerance="10"
     inkscape:pageopacity="0"
     inkscape:pageshadow="2"
     inkscape:window-width="1280"
     inkscape:window-height="985"
     id="namedview51"
     showgrid="false"
     inkscape:zoom="7.4579687"
     inkscape:cx="50.26817"
     inkscape:cy="50"
     inkscape:window-x="0"
     inkscape:window-y="0"
     inkscape:window-maximized="1"
     inkscape:current-layer="Layer_1" /><style
     type="text/css"
     id="style3">
	.st0{fill:#F58435;}
	.st1{clip-path:url(#SVGID_2_);enable-background:new    ;}
	.st2{fill:#9D5025;}
	.st3{clip-path:url(#SVGID_4_);enable-background:new    ;}
	.st4{fill:#FFFFFF;}
	.st5{font-family:'HelveticaNeueLTStd-Md';}
	.st6{font-size:52.3034px;}
</style><g
     id="g3383"
     transform="matrix(1.7667845,0,0,1.7667845,-38.427564,-38.339225)"><g
       id="g5"><g
         id="g7"><path
           id="path9"
           d="m 67.4,21.7 c 5,0 9.1,4 9.1,9 l 0,35.5 c 0,5 -4,9 -9.1,9 l -34.7,0 c -5,0 -9.1,-4 -9.1,-9 l 0,-35.5 c 0,-5 4.1,-9 9.1,-9 l 34.7,0 z"
           class="st0"
           inkscape:connector-curvature="0"
           style="fill:#f58435" /></g><g
         id="g11"><defs
           id="defs13"><path
             d="m 76.4,66.2 0,3.1 c 0,5 -4,9 -9.1,9 l 0,-3.1 c 5.1,0 9.1,-4.1 9.1,-9 z"
             id="SVGID_1_"
             inkscape:connector-curvature="0" /></defs><use
           id="use16"
           style="overflow:visible;fill:#9d5025"
           xlink:href="#SVGID_1_"
           x="0"
           y="0"
           width="100%"
           height="100%" /><clipPath
           id="SVGID_2_"><use
             id="use19"
             style="overflow:visible"
             xlink:href="#SVGID_1_"
             x="0"
             y="0"
             width="100%"
             height="100%" /></clipPath><g
           clip-path="url(#SVGID_2_)"
           id="g21"
           class="st1"
           style="enable-background:new"><path
             id="path23"
             d="m 76.4,66.2 0,3.1 c 0,0.4 0,0.9 -0.1,1.3 l 0,-3.1 c 0.1,-0.5 0.1,-0.9 0.1,-1.3"
             class="st2"
             inkscape:connector-curvature="0"
             style="fill:#9d5025" /><path
             id="path25"
             d="m 76.3,67.5 0,3.1 c -0.1,0.5 -0.2,1 -0.3,1.5 L 76,69 c 0.1,-0.6 0.3,-1 0.3,-1.5"
             class="st2"
             inkscape:connector-curvature="0"
             style="fill:#9d5025" /><path
             id="path27"
             d="m 76,68.9 0,3.1 c -0.2,0.6 -0.4,1.1 -0.7,1.6 l 0,-3.1 c 0.3,-0.5 0.5,-1 0.7,-1.6"
             class="st2"
             inkscape:connector-curvature="0"
             style="fill:#9d5025" /><path
             id="path29"
             d="m 75.3,70.5 0,3.1 c -1.5,2.8 -4.5,4.7 -7.9,4.7 l 0,-3.1 c 3.4,0 6.4,-1.9 7.9,-4.7"
             class="st2"
             inkscape:connector-curvature="0"
             style="fill:#9d5025" /></g></g><g
         id="g31"><rect
           id="rect33"
           height="3.0999999"
           width="35.099998"
           class="st2"
           y="75.199997"
           x="32.299999"
           style="fill:#9d5025" /></g><g
         id="g35"><defs
           id="defs37"><path
             d="m 32.7,75.2 0,3.1 c -5,0 -9.1,-4 -9.1,-9 l 0,-3.1 c 0,4.9 4,9 9.1,9 z"
             id="SVGID_3_"
             inkscape:connector-curvature="0" /></defs><use
           id="use40"
           style="overflow:visible;fill:#9d5025"
           xlink:href="#SVGID_3_"
           x="0"
           y="0"
           width="100%"
           height="100%" /><clipPath
           id="SVGID_4_"><use
             id="use43"
             style="overflow:visible"
             xlink:href="#SVGID_3_"
             x="0"
             y="0"
             width="100%"
             height="100%" /></clipPath><g
           clip-path="url(#SVGID_4_)"
           id="g45"
           class="st3"
           style="enable-background:new"><path
             id="path47"
             d="m 33,75.2 0,3.1 c -5,0 -9.5,-4 -9.5,-9 l 0,-3.1 c 0,5 4.1,9 9.1,9"
             class="st2"
             inkscape:connector-curvature="0"
             style="fill:#9d5025" /></g></g></g><text
       id="text49"
       class="st4 st5 st6"
       transform="translate(35.46,62.6055)"
       style="font-size:52.30339813px;font-family:HelveticaNeueLTStd-Md;fill:#ffffff">¢</text>
</g></svg>