<?xml version="1.0" encoding="UTF-8" standalone="no"?>
<!-- Generator: Adobe Illustrator 18.1.1, SVG Export Plug-In . SVG Version: 6.00 Build 0)  -->

<svg
   xmlns:dc="http://purl.org/dc/elements/1.1/"
   xmlns:cc="http://creativecommons.org/ns#"
   xmlns:rdf="http://www.w3.org/1999/02/22-rdf-syntax-ns#"
   xmlns:svg="http://www.w3.org/2000/svg"
   xmlns="http://www.w3.org/2000/svg"
   xmlns:sodipodi="http://sodipodi.sourceforge.net/DTD/sodipodi-0.dtd"
   xmlns:inkscape="http://www.inkscape.org/namespaces/inkscape"
   version="1.2"
   id="Layer_1"
   x="0px"
   y="0px"
   viewBox="0 0 100 100"
   xml:space="preserve"
   inkscape:version="0.91 r13725"
   sodipodi:docname="Compute_AmazonEC2_OptimizedInstance.svg"><metadata
     id="metadata41"><rdf:RDF><cc:Work
         rdf:about=""><dc:format>image/svg+xml</dc:format><dc:type
           rdf:resource="http://purl.org/dc/dcmitype/StillImage" /></cc:Work></rdf:RDF></metadata><defs
     id="defs39" /><sodipodi:namedview
     pagecolor="#ffffff"
     bordercolor="#666666"
     borderopacity="1"
     objecttolerance="10"
     gridtolerance="10"
     guidetolerance="10"
     inkscape:pageopacity="0"
     inkscape:pageshadow="2"
     inkscape:window-width="1280"
     inkscape:window-height="985"
     id="namedview37"
     showgrid="false"
     inkscape:zoom="7.4579687"
     inkscape:cx="50.26817"
     inkscape:cy="50"
     inkscape:window-x="0"
     inkscape:window-y="0"
     inkscape:window-maximized="1"
     inkscape:current-layer="Layer_1" /><g
     id="g3369"
     transform="matrix(1.7587056,0,0,1.7587056,-37.901864,-39.871615)"><g
       id="g3"><g
         id="g5"><path
           id="path7"
           d="m 76.593,71.823 0,2.975 c 0,0.23 -0.016,0.457 -0.049,0.68 l 0,-2.975 c 0.033,-0.221 0.049,-0.447 0.049,-0.68"
           inkscape:connector-curvature="0"
           style="fill:#9d5025" /><path
           id="path9"
           d="m 76.544,72.503 0,2.975 c -0.039,0.262 -0.098,0.518 -0.174,0.764 l 0,-2.973 c 0.076,-0.245 0.135,-0.502 0.174,-0.766"
           inkscape:connector-curvature="0"
           style="fill:#9d5025" /><path
           id="path11"
           d="m 76.37,73.269 0,2.973 c -0.096,0.291 -0.217,0.568 -0.361,0.832 l 0,-2.973 c 0.144,-0.262 0.265,-0.541 0.361,-0.832"
           inkscape:connector-curvature="0"
           style="fill:#9d5025" /><path
           id="path13"
           d="m 76.009,74.101 0,2.973 C 75.2,78.54 73.63,79.53 71.823,79.53 l 0,-2.973 c 1.807,0.001 3.377,-0.988 4.186,-2.456"
           inkscape:connector-curvature="0"
           style="fill:#9d5025" /></g><path
         id="path15"
         d="m 76.593,71.823 0,2.975 c 0,2.619 -2.131,4.732 -4.77,4.732 l -1.574,-3.875 c 2.641,0 6.344,-1.211 6.344,-3.832 z"
         inkscape:connector-curvature="0"
         style="fill:#9d5025" /><g
         id="g17"><path
           id="path19"
           d="m 28.138,76.558 0,2.973 c -2.639,0 -4.769,-2.113 -4.769,-4.732 l 0,-2.975 c -0.001,2.62 2.13,4.734 4.769,4.734"
           inkscape:connector-curvature="0"
           style="fill:#9d5025" /></g><path
         id="path21"
         d="m 28.138,76.558 0,2.973 c -2.639,0 -4.769,-2.113 -4.769,-4.732 l 0,-2.975 c -0.001,2.62 2.13,4.734 4.769,4.734 z"
         inkscape:connector-curvature="0"
         style="fill:#9d5025" /><g
         id="g23"><polygon
           id="polygon25"
           points="26.749,75.821 71.823,76.558 71.823,79.53 28.138,79.53 "
           style="fill:#9d5025" /></g><g
         id="g27"><path
           id="path29"
           d="m 71.823,22.671 c 2.639,0 4.77,2.113 4.77,4.734 l 0,44.418 c 0,2.621 -2.131,4.734 -4.77,4.734 l -43.685,0 c -2.639,0 -4.769,-2.113 -4.769,-4.734 l 0,-44.418 c 0,-2.621 2.131,-4.734 4.769,-4.734 l 43.685,0 z"
           inkscape:connector-curvature="0"
           style="fill:#f58536" /></g></g><g
       id="g31"><path
         id="path33"
         d="m 60.337,63.458 c 0,-1.872 -0.378,-2.683 -1.548,-2.683 -1.314,0 -1.621,1.314 -1.621,4.951 0,3.89 0.54,4.592 1.657,4.592 0.936,0 1.62,-0.486 1.62,-3.259 l 2.593,0 c 0,2.772 -0.685,5.167 -4.087,5.167 -3.89,0 -4.376,-2.772 -4.376,-6.68 0,-3.908 0.486,-6.68 4.376,-6.68 3.709,0 3.979,2.719 3.979,4.591 l -2.593,0 z"
         inkscape:connector-curvature="0"
         style="fill:#ffffff" /><path
         id="path35"
         d="m 66.456,68.247 c 0.036,1.477 0.288,2.287 1.423,2.287 1.26,0 1.422,-0.937 1.422,-2.053 0,-1.134 -0.252,-2.179 -1.674,-2.179 l -0.864,0 0,-1.692 0.846,0 c 1.08,0 1.477,-0.973 1.477,-2.017 0,-1.188 -0.396,-1.675 -1.242,-1.675 -1.116,0 -1.314,0.864 -1.314,2.071 l -2.377,0 c 0,-2.503 1.332,-3.764 3.745,-3.764 2.305,0 3.673,1.026 3.673,3.277 0,1.53 -0.738,2.539 -1.944,2.809 l 0,0.036 c 1.639,0.252 2.269,1.404 2.269,3.007 0,1.711 -0.702,3.871 -4.231,3.871 -2.466,0 -3.69,-1.494 -3.69,-3.925 l 0,-0.055 2.481,0 z"
         inkscape:connector-curvature="0"
         style="fill:#ffffff" /></g></g></svg>