<?xml version="1.0" encoding="UTF-8" standalone="no"?>
<!-- Generator: Adobe Illustrator 16.0.0, SVG Export Plug-In . SVG Version: 6.00 Build 0)  -->

<svg
   xmlns:dc="http://purl.org/dc/elements/1.1/"
   xmlns:cc="http://creativecommons.org/ns#"
   xmlns:rdf="http://www.w3.org/1999/02/22-rdf-syntax-ns#"
   xmlns:svg="http://www.w3.org/2000/svg"
   xmlns="http://www.w3.org/2000/svg"
   xmlns:sodipodi="http://sodipodi.sourceforge.net/DTD/sodipodi-0.dtd"
   xmlns:inkscape="http://www.inkscape.org/namespaces/inkscape"
   version="1.2"
   x="0px"
   y="0px"
   width="100px"
   height="100px"
   viewBox="0 0 100 100"
   xml:space="preserve"
   id="svg2"
   inkscape:version="0.91 r13725"
   sodipodi:docname="Compute_AmazonEC2_DBonInstance.svg"><metadata
     id="metadata67"><rdf:RDF><cc:Work
         rdf:about=""><dc:format>image/svg+xml</dc:format><dc:type
           rdf:resource="http://purl.org/dc/dcmitype/StillImage" /></cc:Work></rdf:RDF></metadata><defs
     id="defs65" /><sodipodi:namedview
     pagecolor="#ffffff"
     bordercolor="#666666"
     borderopacity="1"
     objecttolerance="10"
     gridtolerance="10"
     guidetolerance="10"
     inkscape:pageopacity="0"
     inkscape:pageshadow="2"
     inkscape:window-width="1280"
     inkscape:window-height="985"
     id="namedview63"
     showgrid="false"
     inkscape:zoom="7.4579687"
     inkscape:cx="50.26817"
     inkscape:cy="50"
     inkscape:window-x="0"
     inkscape:window-y="0"
     inkscape:window-maximized="1"
     inkscape:current-layer="svg2" /><g
     id="Layer_3" /><g
     id="Layer_1"
     transform="matrix(1.7562963,0,0,1.7562963,-37.814815,-37.814815)"><g
       id="g6"><g
         id="g8"><line
           x1="76.424004"
           y1="25.533001"
           x2="76.424004"
           y2="28.139"
           id="line10"
           style="fill:#9d5125" /></g><g
         id="g12"><path
           d="m 52.252,46.496 0,2.605 c -0.051,0.09 -0.094,0.186 -0.125,0.279 l 0,-2.605 c 0.031,-0.093 0.074,-0.187 0.125,-0.279"
           id="path14"
           inkscape:connector-curvature="0"
           style="fill:#9d5025" /><path
           d="m 52.127,46.775 0,2.605 c -0.014,0.047 -0.028,0.094 -0.04,0.141 l 0,-2.605 c 0.012,-0.049 0.026,-0.094 0.04,-0.141"
           id="path16"
           inkscape:connector-curvature="0"
           style="fill:#9d5025" /></g><path
         d="m 76.1,47.797 c -3.736,-1.236 -7.828,-1.398 -11.307,-1.398 -5.078,0 -11.496,1.164 -12.742,2.891 l -0.049,-2.379 c 0.461,-2.094 6.451,-3.873 11.734,-3.873 1.785,0 9.818,0.816 12.389,2.146"
         id="path18"
         inkscape:connector-curvature="0"
         style="fill:#9d5025" /><g
         id="g20"><path
           d="m 65.59,48.77 c 2.195,0 4.059,0.172 5.6,0.418 3.301,0.549 5.047,1.486 5.047,2.064 0,0.578 -1.746,1.518 -5.047,2.051 -1.541,0.26 -3.404,0.42 -5.6,0.42 -6.896,0 -10.65,-1.633 -10.65,-2.471 0,-0.838 3.753,-2.482 10.65,-2.482 z"
           id="path22"
           inkscape:connector-curvature="0"
           style="fill:#f58536" /></g><g
         id="g24"><path
           d="m 76.236,51.252 0,2.801 c 0,0.016 -0.002,0.031 -0.002,0.047 l 0,-2.803 c 0,-0.016 0.002,-0.029 0.002,-0.045"
           id="path26"
           inkscape:connector-curvature="0"
           style="fill:#9d5025" /><path
           d="m 76.234,51.297 0,2.803 c -0.002,0.02 -0.008,0.039 -0.016,0.059 l 0,-2.803 c 0.009,-0.02 0.014,-0.04 0.016,-0.059"
           id="path28"
           inkscape:connector-curvature="0"
           style="fill:#9d5025" /><path
           d="m 76.219,51.355 0,2.803 c -0.01,0.027 -0.021,0.057 -0.037,0.084 l 0,-2.803 c 0.015,-0.027 0.027,-0.056 0.037,-0.084"
           id="path30"
           inkscape:connector-curvature="0"
           style="fill:#9d5025" /><path
           d="m 76.182,51.439 0,2.803 c -0.318,0.578 -2.029,1.383 -4.992,1.861 -1.541,0.262 -3.404,0.418 -5.6,0.418 -6.896,0 -10.65,-1.629 -10.65,-2.469 l 0,-2.801 c 0,0.838 3.754,2.471 10.65,2.471 2.195,0 4.059,-0.16 5.6,-0.42 2.962,-0.48 4.673,-1.282 4.992,-1.863"
           id="path32"
           inkscape:connector-curvature="0"
           style="fill:#9d5025" /></g><path
         d="m 76.236,51.252 0,2.801 c 0,0.58 -1.746,1.518 -5.047,2.051 -1.541,0.262 -3.404,0.418 -5.6,0.418 -6.896,0 -10.65,-1.629 -10.65,-2.469 l 0,-2.801 c 0,0.838 3.754,2.471 10.65,2.471 2.195,0 4.059,-0.16 5.6,-0.42 3.301,-0.533 5.047,-1.473 5.047,-2.051 z"
         id="path34"
         inkscape:connector-curvature="0"
         style="fill:#9d5025" /><path
         d="m 54.961,71.617 c 0.107,0.545 2.818,0.984 4.146,1.631 l -1.797,4.115 c -1.668,-0.561 -2.154,-0.918 -2.365,-1.246"
         id="path36"
         inkscape:connector-curvature="0"
         style="fill:#9d5025" /><g
         id="g38"><path
           d="m 76.41,73.201 0,2.799 c 0,0.02 0,0.041 -0.004,0.062 l 0,-2.801 c 0.004,-0.021 0.004,-0.042 0.004,-0.06"
           id="path40"
           inkscape:connector-curvature="0"
           style="fill:#9d5025" /><path
           d="m 76.406,73.262 0,2.801 c -0.002,0.023 -0.01,0.049 -0.018,0.074 l 0,-2.803 c 0.008,-0.025 0.016,-0.049 0.018,-0.072"
           id="path42"
           inkscape:connector-curvature="0"
           style="fill:#9d5025" /><path
           d="m 76.389,73.334 0,2.803 c -0.014,0.039 -0.029,0.078 -0.055,0.119 l 0,-2.801 c 0.025,-0.041 0.041,-0.082 0.055,-0.121"
           id="path44"
           inkscape:connector-curvature="0"
           style="fill:#9d5025" /><path
           d="m 76.334,73.432 0,2.801 c -0.502,0.891 -3.547,2.213 -10.047,2.213 -3.912,0 -7.078,-0.508 -9,-1.07 l -0.691,-3.734 c 1.922,0.564 5.779,2.006 9.691,2.006 6.5,-0.002 9.545,-1.324 10.047,-2.216"
           id="path46"
           inkscape:connector-curvature="0"
           style="fill:#9d5025" /></g><path
         d="m 76.41,73.201 0,2.799 c 0,0.867 -2.967,2.469 -10.123,2.469 -3.912,0 -6.867,-0.461 -9,-1.117 l 0,-2.801 c 2.133,0.656 5.088,1.117 9,1.117 7.156,0 10.123,-1.602 10.123,-2.467 z"
         id="path48"
         inkscape:connector-curvature="0"
         style="fill:#9d5025" /><path
         d="m 27.748,74.484 0,2.605 c -2.219,0 -4.02,-1.785 -4.145,-4.002 l 0,-2.605 c 0.126,2.215 1.926,4.002 4.145,4.002 z"
         id="path50"
         inkscape:connector-curvature="0"
         style="fill:#9d5025" /><g
         id="g52"><polygon
           points="27.561,74.484 53.602,74.459 53.602,77.062 27.561,77.09 "
           id="polygon54"
           style="fill:#9d5025" /></g><path
         d="M 76.139,45.514 C 72.332,44.186 66.08,44.137 64.295,44.16 c -5.219,0.07 -11.164,1.307 -12.16,2.854 l -0.041,0.307 0.016,0.951 -0.016,24.83 c 0,0.457 0.963,0.953 1.367,1.357 l -25.867,0.025 c -2.22,0 -4.02,-1.787 -4.02,-4.002 l 0,-44.959 c 0,-2.203 1.8,-3.988 4.02,-3.988 l 44.682,-0.004 c 2.221,0 4.021,1.787 4.021,4.002"
         id="path56"
         inkscape:connector-curvature="0"
         style="fill:#f58536" /><g
         id="g58"><path
           d="M 76.426,56.104 76.41,73.201 c 0,0.865 -2.967,2.467 -10.123,2.467 -3.912,0 -6.867,-0.461 -8.787,-1.025 -1.424,-0.461 -2.43,-0.98 -2.543,-1.369 l 0,-17.01 c 2.08,1.285 6.369,1.963 10.633,1.963 l 0.275,0 c 0.449,-0.014 0.873,-0.014 1.309,-0.029 l 0.176,-0.014 c 0.377,-0.016 0.727,-0.029 1.09,-0.059 0.189,-0.014 0.363,-0.027 0.539,-0.043 0.289,-0.029 0.564,-0.043 0.842,-0.072 0.162,-0.029 0.307,-0.043 0.453,-0.072 0.305,-0.029 0.596,-0.07 0.9,-0.115 2.328,-0.376 4.133,-0.997 5.252,-1.719 z"
           id="path60"
           inkscape:connector-curvature="0"
           style="fill:#f58536" /></g></g></g><g
     id="nyt_x5F_exporter_x5F_info"
     display="none" /></svg>