<?xml version="1.0" encoding="UTF-8" standalone="no"?>
<!-- Generator: Adobe Illustrator 16.0.4, SVG Export Plug-In . SVG Version: 6.00 Build 0)  -->

<svg
   xmlns:dc="http://purl.org/dc/elements/1.1/"
   xmlns:cc="http://creativecommons.org/ns#"
   xmlns:rdf="http://www.w3.org/1999/02/22-rdf-syntax-ns#"
   xmlns:svg="http://www.w3.org/2000/svg"
   xmlns="http://www.w3.org/2000/svg"
   xmlns:sodipodi="http://sodipodi.sourceforge.net/DTD/sodipodi-0.dtd"
   xmlns:inkscape="http://www.inkscape.org/namespaces/inkscape"
   version="1.1"
   x="0px"
   y="0px"
   width="100px"
   height="100px"
   viewBox="0 0 100 100"
   enable-background="new 0 0 100 100"
   xml:space="preserve"
   id="svg2"
   inkscape:version="0.91 r13725"
   sodipodi:docname="ApplicationServices_AmazonElasticTranscoder.svg"><metadata
     id="metadata76"><rdf:RDF><cc:Work
         rdf:about=""><dc:format>image/svg+xml</dc:format><dc:type
           rdf:resource="http://purl.org/dc/dcmitype/StillImage" /></cc:Work></rdf:RDF></metadata><defs
     id="defs74" /><sodipodi:namedview
     pagecolor="#ffffff"
     bordercolor="#666666"
     borderopacity="1"
     objecttolerance="10"
     gridtolerance="10"
     guidetolerance="10"
     inkscape:pageopacity="0"
     inkscape:pageshadow="2"
     inkscape:window-width="1280"
     inkscape:window-height="985"
     id="namedview72"
     showgrid="false"
     inkscape:zoom="7.4579687"
     inkscape:cx="50.26817"
     inkscape:cy="50"
     inkscape:window-x="0"
     inkscape:window-y="0"
     inkscape:window-maximized="1"
     inkscape:current-layer="svg2" /><g
     id="Amazon_CloudSearch"
     transform="matrix(1.3888889,0,0,1.3888889,-19.444445,-19.444445)"><g
       id="g5"><polygon
         points="79.797,28.898 79.797,39.572 74.859,38.355 74.859,26.43 "
         id="polygon7"
         style="fill:#d9a741" /><polygon
         points="74.948,38.377 79.845,39.584 73.527,40.228 68.283,39.174 "
         id="polygon9"
         style="fill:#624a1e" /><polygon
         points="74.859,38.388 74.859,26.43 68.283,28.028 68.283,39.174 "
         id="polygon11"
         style="fill:#876929" /><polygon
         points="79.783,43.879 79.783,56.279 50,60.754 50,39.584 "
         id="polygon13"
         style="fill:#d9a741" /><polygon
         points="71.959,24.979 71.959,37.641 64.857,35.89 64.857,21.429 "
         id="polygon15"
         style="fill:#d9a741" /><polygon
         points="57.754,23.764 57.754,37.057 64.857,35.908 64.857,21.429 "
         id="polygon17"
         style="fill:#876929" /><polygon
         points="64.901,35.9 71.959,37.641 65.118,38.537 57.754,37.057 "
         id="polygon19"
         style="fill:#624a1e" /><polygon
         points="60.93,19.465 60.93,34.922 50,32.227 50,14 "
         id="polygon21"
         style="fill:#d9a741" /><polygon
         points="20.203,28.898 20.203,39.572 25.141,38.355 25.141,26.43 "
         id="polygon23"
         style="fill:#876929" /><polygon
         points="25.051,38.377 20.155,39.584 26.473,40.228 31.717,39.174 "
         id="polygon25"
         style="fill:#624a1e" /><polygon
         points="25.141,38.388 25.141,26.43 31.717,28.028 31.717,39.174 "
         id="polygon27"
         style="fill:#d9a741" /><polygon
         points="20.217,43.879 20.217,56.279 50,60.754 50,39.584 "
         id="polygon29"
         style="fill:#876929" /><polygon
         points="28.041,24.979 28.041,37.641 35.143,35.89 35.143,21.429 "
         id="polygon31"
         style="fill:#876929" /><polygon
         points="42.246,23.764 42.246,37.057 35.143,35.908 35.143,21.429 "
         id="polygon33"
         style="fill:#d9a741" /><polygon
         points="35.099,35.9 28.041,37.641 34.881,38.537 42.246,37.057 "
         id="polygon35"
         style="fill:#624a1e" /><polygon
         points="39.07,19.465 39.07,34.922 50,32.227 50,14 "
         id="polygon37"
         style="fill:#876929" /><polygon
         points="50,32.227 60.93,34.922 50,36.904 39.07,34.922 "
         id="polygon39"
         style="fill:#624a1e" /><polygon
         points="79.797,71.102 79.797,60.428 74.859,61.645 74.859,73.57 "
         id="polygon41"
         style="fill:#d9a741" /><polygon
         points="74.948,61.623 79.845,60.416 73.527,59.772 68.283,60.826 "
         id="polygon43"
         style="fill:#fad791" /><polygon
         points="74.859,61.612 74.859,73.57 68.283,71.972 68.283,60.826 "
         id="polygon45"
         style="fill:#876929" /><polygon
         points="71.959,75.021 71.959,62.359 64.857,64.11 64.857,78.571 "
         id="polygon47"
         style="fill:#d9a741" /><polygon
         points="57.754,76.236 57.754,62.942 64.857,64.093 64.857,78.571 "
         id="polygon49"
         style="fill:#876929" /><polygon
         points="64.901,64.1 71.959,62.359 65.118,61.462 57.754,62.942 "
         id="polygon51"
         style="fill:#fad791" /><polygon
         points="60.93,80.535 60.93,65.079 50,67.772 50,86 "
         id="polygon53"
         style="fill:#d9a741" /><polygon
         points="20.203,71.102 20.203,60.428 25.141,61.645 25.141,73.57 "
         id="polygon55"
         style="fill:#876929" /><polygon
         points="25.051,61.623 20.155,60.416 26.473,59.772 31.717,60.826 "
         id="polygon57"
         style="fill:#fad791" /><polygon
         points="25.141,61.612 25.141,73.57 31.717,71.972 31.717,60.826 "
         id="polygon59"
         style="fill:#d9a741" /><polygon
         points="28.041,75.021 28.041,62.359 35.143,64.11 35.143,78.571 "
         id="polygon61"
         style="fill:#876929" /><polygon
         points="42.246,76.236 42.246,62.942 35.143,64.093 35.143,78.571 "
         id="polygon63"
         style="fill:#d9a741" /><polygon
         points="35.099,64.1 28.041,62.359 34.881,61.462 42.246,62.942 "
         id="polygon65"
         style="fill:#fad791" /><polygon
         points="39.07,80.535 39.07,65.079 50,67.772 50,86 "
         id="polygon67"
         style="fill:#876929" /><polygon
         points="50,67.772 60.93,65.079 50,63.096 39.07,65.079 "
         id="polygon69"
         style="fill:#fad791" /></g></g><g
     id="nyt_x5F_exporter_x5F_info"
     display="none" /></svg>