<?xml version="1.0" encoding="UTF-8" standalone="no"?>
<!-- Generator: Adobe Illustrator 16.0.4, SVG Export Plug-In . SVG Version: 6.00 Build 0)  -->

<svg
   xmlns:dc="http://purl.org/dc/elements/1.1/"
   xmlns:cc="http://creativecommons.org/ns#"
   xmlns:rdf="http://www.w3.org/1999/02/22-rdf-syntax-ns#"
   xmlns:svg="http://www.w3.org/2000/svg"
   xmlns="http://www.w3.org/2000/svg"
   xmlns:sodipodi="http://sodipodi.sourceforge.net/DTD/sodipodi-0.dtd"
   xmlns:inkscape="http://www.inkscape.org/namespaces/inkscape"
   version="1.1"
   x="0px"
   y="0px"
   width="100px"
   height="100px"
   viewBox="0 0 100 100"
   enable-background="new 0 0 100 100"
   xml:space="preserve"
   id="svg2"
   inkscape:version="0.91 r13725"
   sodipodi:docname="ApplicationServices_AmazonSQS_Queue.svg"><metadata
     id="metadata24"><rdf:RDF><cc:Work
         rdf:about=""><dc:format>image/svg+xml</dc:format><dc:type
           rdf:resource="http://purl.org/dc/dcmitype/StillImage" /></cc:Work></rdf:RDF></metadata><defs
     id="defs22" /><sodipodi:namedview
     pagecolor="#ffffff"
     bordercolor="#666666"
     borderopacity="1"
     objecttolerance="10"
     gridtolerance="10"
     guidetolerance="10"
     inkscape:pageopacity="0"
     inkscape:pageshadow="2"
     inkscape:window-width="1280"
     inkscape:window-height="985"
     id="namedview20"
     showgrid="false"
     inkscape:zoom="7.4579687"
     inkscape:cx="50.26817"
     inkscape:cy="50"
     inkscape:window-x="0"
     inkscape:window-y="0"
     inkscape:window-maximized="1"
     inkscape:current-layer="svg2" /><g
     id="Amazon_CloudSearch"
     transform="matrix(1.5225798,0,0,1.5225798,-26.12899,-26.128988)"><g
       id="g5"><g
         id="g7"><path
           d="m 17.161,28.682 65.678,0 0,39.727 -65.678,0 0,-39.727 z"
           id="path9"
           inkscape:connector-curvature="0"
           style="fill:#d9a741" /></g><g
         id="g11"><rect
           x="17.160999"
           y="68.407997"
           width="65.678001"
           height="2.9100001"
           id="rect13"
           style="fill:#876929" /></g><g
         id="g15"><path
           d="m 23.71,55.178 -0.074,-12.379 5.431,6.191 -5.357,6.188 z m 17.053,8.81 -6.676,0 0,-29.959 6.676,0 0,29.959 z m 12.905,0 -6.677,0 0,-29.959 6.677,0 0,29.959 z m 11.841,0 -6.678,0 0,-29.959 6.678,0 0,29.959 z m 5.5,-8.799 -0.074,-12.375 5.429,6.186 -5.355,6.189 z"
           id="path17"
           inkscape:connector-curvature="0"
           style="fill:#ffffff" /></g></g></g><g
     id="nyt_x5F_exporter_x5F_info"
     display="none" /></svg>