<?xml version="1.0" encoding="UTF-8" standalone="no"?>
<!-- Generator: Adobe Illustrator 19.1.0, SVG Export Plug-In . SVG Version: 6.00 Build 0)  -->

<svg
   xmlns:dc="http://purl.org/dc/elements/1.1/"
   xmlns:cc="http://creativecommons.org/ns#"
   xmlns:rdf="http://www.w3.org/1999/02/22-rdf-syntax-ns#"
   xmlns:svg="http://www.w3.org/2000/svg"
   xmlns="http://www.w3.org/2000/svg"
   xmlns:sodipodi="http://sodipodi.sourceforge.net/DTD/sodipodi-0.dtd"
   xmlns:inkscape="http://www.inkscape.org/namespaces/inkscape"
   version="1.1"
   id="Layer_1"
   x="0px"
   y="0px"
   viewBox="-255 347 100 100"
   style="enable-background:new -255 347 100 100;"
   xml:space="preserve"
   inkscape:version="0.91 r13725"
   sodipodi:docname="MobileServices_DeviceFarm.svg"><metadata
     id="metadata39"><rdf:RDF><cc:Work
         rdf:about=""><dc:format>image/svg+xml</dc:format><dc:type
           rdf:resource="http://purl.org/dc/dcmitype/StillImage" /></cc:Work></rdf:RDF></metadata><defs
     id="defs37" /><sodipodi:namedview
     pagecolor="#ffffff"
     bordercolor="#666666"
     borderopacity="1"
     objecttolerance="10"
     gridtolerance="10"
     guidetolerance="10"
     inkscape:pageopacity="0"
     inkscape:pageshadow="2"
     inkscape:window-width="1280"
     inkscape:window-height="985"
     id="namedview35"
     showgrid="false"
     inkscape:zoom="7.4579687"
     inkscape:cx="50.26817"
     inkscape:cy="50"
     inkscape:window-x="0"
     inkscape:window-y="0"
     inkscape:window-maximized="1"
     inkscape:current-layer="Layer_1" /><style
     type="text/css"
     id="style3">
	.st0{fill:#C17B9E;}
	.st1{fill:#692F56;}
	.st2{fill:#CFB2C1;}
	.st3{fill:#512843;}
</style><g
     id="g3367"
     transform="matrix(1.2135922,0,0,1.2135922,43.786401,-84.796103)"><polygon
       id="polygon5"
       points="-205.3,416.4 -205.3,400.8 -234.8,402.2 -234.8,423.3 "
       class="st0"
       style="fill:#c17b9e" /><polygon
       id="polygon7"
       points="-187.1,401.1 -187.1,417.7 -223.3,429.4 -223.3,403.4 "
       class="st0"
       style="fill:#c17b9e" /><polygon
       id="polygon9"
       points="-229.4,425.9 -229.4,402.8 -223.1,403.4 -223.1,429.1 "
       class="st1"
       style="fill:#692f56" /><polygon
       id="polygon11"
       points="-223.1,403.4 -186.9,401.1 -193.5,400.8 -229.4,402.8 "
       class="st2"
       style="fill:#cfb2c1" /><polygon
       id="polygon13"
       points="-171.2,372.8 -171.2,392.2 -205.1,388.8 -205.1,355.8 "
       class="st0"
       style="fill:#c17b9e" /><polygon
       id="polygon15"
       points="-238.9,372.8 -238.9,392.2 -204.9,388.8 -204.9,355.8 "
       class="st1"
       style="fill:#692f56" /><polygon
       id="polygon17"
       points="-204.9,388.8 -171,392.2 -204.9,393.6 -238.9,392.2 "
       class="st3"
       style="fill:#512843" /><polygon
       id="polygon19"
       points="-234.6,423.3 -234.6,402.3 -239,401.8 -239,421.1 "
       class="st1"
       style="fill:#692f56" /><polygon
       id="polygon21"
       points="-235,402.2 -205.1,400.8 -209.8,400.6 -239,401.8 "
       class="st2"
       style="fill:#cfb2c1" /><polygon
       id="polygon23"
       points="-180.9,402.9 -171.2,401.9 -171.2,421.1 -180.9,426 "
       class="st0"
       style="fill:#c17b9e" /><polygon
       id="polygon25"
       points="-186.9,402.5 -186.9,424.2 -180.7,425.8 -180.7,402.9 "
       class="st1"
       style="fill:#692f56" /><polygon
       id="polygon27"
       points="-180.7,402.9 -171,401.9 -176.8,401.7 -186.9,402.5 "
       class="st2"
       style="fill:#cfb2c1" /><polygon
       id="polygon29"
       points="-205.3,405.3 -187.1,403.5 -187.1,429.1 -205.3,438.2 "
       class="st0"
       style="fill:#c17b9e" /><polygon
       id="polygon31"
       points="-215.1,433.1 -215.1,404.2 -205.1,405.2 -205.1,438.2 "
       class="st1"
       style="fill:#692f56" /><polygon
       id="polygon33"
       points="-204.6,405.3 -186.9,403.5 -197.3,402.8 -215.1,404.2 "
       class="st2"
       style="fill:#cfb2c1" /></g></svg>