<?xml version="1.0" encoding="UTF-8" standalone="no"?>
<!-- Generator: Adobe Illustrator 19.0.0, SVG Export Plug-In . SVG Version: 6.00 Build 0)  -->

<svg
   xmlns:dc="http://purl.org/dc/elements/1.1/"
   xmlns:cc="http://creativecommons.org/ns#"
   xmlns:rdf="http://www.w3.org/1999/02/22-rdf-syntax-ns#"
   xmlns:svg="http://www.w3.org/2000/svg"
   xmlns="http://www.w3.org/2000/svg"
   xmlns:xlink="http://www.w3.org/1999/xlink"
   xmlns:sodipodi="http://sodipodi.sourceforge.net/DTD/sodipodi-0.dtd"
   xmlns:inkscape="http://www.inkscape.org/namespaces/inkscape"
   version="1.1"
   id="Layer_1"
   x="0px"
   y="0px"
   viewBox="0 0 100 100"
   style="enable-background:new 0 0 100 100;"
   xml:space="preserve"
   inkscape:version="0.91 r13725"
   sodipodi:docname="ApplicationServices_AmazonSES_Email.svg"><metadata
     id="metadata111"><rdf:RDF><cc:Work
         rdf:about=""><dc:format>image/svg+xml</dc:format><dc:type
           rdf:resource="http://purl.org/dc/dcmitype/StillImage" /></cc:Work></rdf:RDF></metadata><defs
     id="defs109" /><sodipodi:namedview
     pagecolor="#ffffff"
     bordercolor="#666666"
     borderopacity="1"
     objecttolerance="10"
     gridtolerance="10"
     guidetolerance="10"
     inkscape:pageopacity="0"
     inkscape:pageshadow="2"
     inkscape:window-width="1280"
     inkscape:window-height="985"
     id="namedview107"
     showgrid="false"
     inkscape:zoom="7.4579687"
     inkscape:cx="50.26817"
     inkscape:cy="50"
     inkscape:window-x="0"
     inkscape:window-y="0"
     inkscape:window-maximized="1"
     inkscape:current-layer="Layer_1" /><style
     type="text/css"
     id="style3">
	.st0{fill:#D9A741;}
	.st1{fill:#876929;}
	.st2{clip-path:url(#SVGID_3_);enable-background:new    ;}
	.st3{enable-background:new    ;}
	.st4{clip-path:url(#SVGID_10_);enable-background:new    ;}
	.st5{clip-path:url(#SVGID_12_);enable-background:new    ;}
	.st6{clip-path:url(#SVGID_14_);enable-background:new    ;}
	.st7{display:none;}
</style><g
     id="Amazon_CloudSearch"
     transform="matrix(1.3893077,0,0,1.3893077,-19.480462,-19.465385)"><g
       id="g6"><g
         id="g8"><path
           class="st0"
           d="m 86,34.8 c 0,0 0,0 0,39.9 0,0 0,0 -63.1,0 0,0 0,0 0,-24.5 1,0.2 2,0.3 3,0.3 4.6,0 8.8,-2.1 11.5,-5.3 3.5,2.3 8.8,5.7 16.6,10.8 L 86,34.8 Z"
           id="path10"
           inkscape:connector-curvature="0"
           style="fill:#d9a741" /></g><g
         id="g12"><g
           id="g14"><path
             id="SVGID_1_"
             class="st1"
             d="m 86,74.7 0,2.4 c 0,0 0,0 -63.1,0 l 0,-2.4 c 63.1,0 63.1,0 63.1,0 z"
             inkscape:connector-curvature="0"
             style="fill:#876929" /></g><g
           id="g17"><defs
             id="defs19"><path
               id="SVGID_2_"
               d="m 86,74.7 0,2.4 c 0,0 0,0 -63.1,0 l 0,-2.4 c 63.1,0 63.1,0 63.1,0 z"
               inkscape:connector-curvature="0" /></defs><clipPath
             id="SVGID_3_"><use
               xlink:href="#SVGID_2_"
               style="overflow:visible"
               id="use23"
               x="0"
               y="0"
               width="100%"
               height="100%" /></clipPath><g
             class="st2"
             id="g25"
             clip-path="url(#SVGID_3_)"
             style="enable-background:new"><path
               class="st1"
               d="m 86,74.7 0,2.4 c 0,0 0,0 -63.1,0 l 0,-2.4 c 63.1,0 63.1,0 63.1,0"
               id="path27"
               inkscape:connector-curvature="0"
               style="fill:#876929" /></g></g></g><g
         class="st3"
         id="g29"
         style="enable-background:new"><g
           id="g31"><defs
             id="defs33"><path
               id="SVGID_4_"
               d="m 40.9,32.9 0,2.4 c 0,-0.5 0,-1 -0.1,-1.5 l 0,-2.4 c 0.1,0.4 0.1,0.9 0.1,1.5 z"
               inkscape:connector-curvature="0" /></defs><clipPath
             id="SVGID_6_"><use
               xlink:href="#SVGID_4_"
               style="overflow:visible"
               id="use37"
               x="0"
               y="0"
               width="100%"
               height="100%" /></clipPath></g></g><g
         id="g39"><path
           class="st0"
           d="m 40.8,31.3 c 6.6,0 19,0 42.7,0 L 54,50.8 c 0,0 -0.1,-0.1 -15.5,-9.9 1.5,-2.3 2.4,-5.1 2.4,-8.1 0,-0.5 0,-1 -0.1,-1.5 z"
           id="path41"
           inkscape:connector-curvature="0"
           style="fill:#d9a741" /></g><g
         id="g43"><polygon
           class="st1"
           points="54,50.8 83.5,31.3 83.5,33.7 54,53.2 "
           id="polygon45"
           style="fill:#876929" /></g><g
         id="g47"><g
           id="g49"><path
             id="SVGID_5_"
             class="st1"
             d="m 54,50.8 0,2.4 c 0,0 -0.1,-0.1 -15.5,-9.9 l 0,-2.4 C 53.9,50.8 54,50.8 54,50.8 Z"
             inkscape:connector-curvature="0"
             style="fill:#876929" /></g><g
           id="g52"><defs
             id="defs54"><path
               id="SVGID_8_"
               d="m 54,50.8 0,2.4 c 0,0 -0.1,-0.1 -15.5,-9.9 l 0,-2.4 C 53.9,50.8 54,50.8 54,50.8 Z"
               inkscape:connector-curvature="0" /></defs><clipPath
             id="SVGID_10_"><use
               xlink:href="#SVGID_8_"
               style="overflow:visible"
               id="use58"
               x="0"
               y="0"
               width="100%"
               height="100%" /></clipPath><g
             class="st4"
             id="g60"
             clip-path="url(#SVGID_10_)"
             style="enable-background:new"><path
               class="st1"
               d="m 54,50.8 0,2.4 c 0,0 -0.1,-0.1 -15.5,-9.9 l 0,-2.4 C 53.9,50.8 54,50.8 54,50.8"
               id="path62"
               inkscape:connector-curvature="0"
               style="fill:#876929" /></g></g></g><g
         id="g64"><g
           class="st3"
           id="g66"
           style="enable-background:new"><g
             class="st3"
             id="g68"
             style="enable-background:new"><g
               id="g70"><path
                 id="SVGID_7_"
                 class="st0"
                 d="m 29.9,33.4 c 0,0.2 0,0.4 0,0.7 l 0,2.4 c 0,-0.2 0,-0.4 0,-0.7 0,-0.7 0,-1.7 0,-2.4 z"
                 inkscape:connector-curvature="0"
                 style="fill:#d9a741" /></g><g
               id="g73"><defs
                 id="defs75"><path
                   id="SVGID_11_"
                   d="m 29.9,33.4 c 0,0.2 0,0.4 0,0.7 l 0,2.4 c 0,-0.2 0,-0.4 0,-0.7 0,-0.7 0,-1.7 0,-2.4 z"
                   inkscape:connector-curvature="0" /></defs><clipPath
                 id="SVGID_12_"><use
                   xlink:href="#SVGID_11_"
                   style="overflow:visible"
                   id="use79"
                   x="0"
                   y="0"
                   width="100%"
                   height="100%" /></clipPath><g
                 class="st5"
                 id="g81"
                 clip-path="url(#SVGID_12_)"
                 style="enable-background:new"><path
                   class="st0"
                   d="m 29.9,33.4 0,2.4 c 0,0.2 0,0.4 0,0.7 l 0,-2.4 c 0,-0.3 0,-0.5 0,-0.7"
                   id="path83"
                   inkscape:connector-curvature="0"
                   style="fill:#d9a741" /></g></g></g><g
             class="st3"
             id="g85"
             style="enable-background:new"><g
               id="g87"><path
                 id="SVGID_9_"
                 class="st0"
                 d="m 26.9,36.2 0,2.4 c 0,0 0,-0.1 0,-0.1 l 0,-2.4 c 0,0.1 0,0.1 0,0.1 z"
                 inkscape:connector-curvature="0"
                 style="fill:#d9a741" /></g><g
               id="g90"><defs
                 id="defs92"><path
                   id="SVGID_13_"
                   d="m 26.9,36.2 0,2.4 c 0,0 0,-0.1 0,-0.1 l 0,-2.4 c 0,0.1 0,0.1 0,0.1 z"
                   inkscape:connector-curvature="0" /></defs><clipPath
                 id="SVGID_14_"><use
                   xlink:href="#SVGID_13_"
                   style="overflow:visible"
                   id="use96"
                   x="0"
                   y="0"
                   width="100%"
                   height="100%" /></clipPath><g
                 class="st6"
                 id="g98"
                 clip-path="url(#SVGID_14_)"
                 style="enable-background:new"><path
                   class="st0"
                   d="m 26.9,36.2 0,2.4 c 0,0 0,-0.1 0,-0.1 l 0,-2.4 c 0,0.1 0,0.1 0,0.1"
                   id="path100"
                   inkscape:connector-curvature="0"
                   style="fill:#d9a741" /></g></g></g><g
             id="g102"><path
               class="st0"
               d="m 36.5,28.4 c 1.6,3.1 1.6,6.5 0.5,9.7 -0.6,1.6 -1.7,3.2 -3.5,4.1 -0.5,0.3 -1.2,0.4 -1.8,0.4 -1.6,0 -3.2,-0.9 -3.9,-2.1 -0.1,-0.2 -0.2,-0.4 -0.4,-0.6 -1.2,1.2 -2,1.5 -3.5,1.5 -1.8,0 -3.2,-1.1 -3.2,-3.3 0,-1.7 0.9,-2.9 2.3,-3.4 1.2,-0.5 2.8,-0.6 4,-0.7 l 0,-0.3 c 0,-0.5 0,-1.1 -0.3,-1.5 -0.3,-0.4 -0.8,-0.6 -1.2,-0.6 -0.8,0 -1.5,0.4 -1.7,1.3 0,0.2 -0.2,0.4 -0.4,0.4 L 21.3,33 c -0.2,0 -0.4,-0.2 -0.3,-0.4 0.5,-2.5 2.7,-3.2 4.8,-3.2 1,0 2.4,0.3 3.2,1.1 1,0.9 0.9,2.2 0.9,3.6 l 0,3.3 c 0,1 0.4,1.4 0.8,1.9 0.2,0.2 0.5,0.3 0.8,0.3 1,0 2.1,-1 2.8,-2.6 0.9,-2.3 1,-5.2 -0.2,-7.3 -1.4,-2.7 -4.9,-4.2 -8.2,-4.2 -1.9,0 -3.9,0.5 -5.4,1.6 -4.3,3 -5.6,9.7 -2.5,14.1 1.9,3 5.3,4.5 8.7,4.5 1.9,0 3.9,-0.5 5.6,-1.5 0.2,-0.1 0.3,-0.1 0.5,-0.1 0.3,0 0.6,0.2 0.8,0.5 0.2,0.4 0.1,1 -0.4,1.2 -2,1.3 -4.3,1.9 -6.7,1.9 -4,0 -8,-1.8 -10.3,-5.3 C 12.4,37 13.7,29 19.1,25.1 21,23.6 23.6,22.9 26,22.9 c 0.8,0 1.6,0.1 2.4,0.2 3.1,0.5 6.4,2.2 8.1,5.3 z m -10,10 c 0.4,-0.7 0.4,-1.4 0.4,-2.2 l 0,-0.5 c -1.5,0 -3.2,0.3 -3.2,2.1 0,0.9 0.5,1.5 1.3,1.5 0.6,0 1.2,-0.3 1.5,-0.9"
               id="path104"
               inkscape:connector-curvature="0"
               style="fill:#d9a741" /></g></g></g></g></g><g
     id="nyt_x5F_exporter_x5F_info"
     class="st7" /></svg>