<?xml version="1.0" encoding="UTF-8" standalone="no"?>
<!-- Generator: Adobe Illustrator 19.1.0, SVG Export Plug-In . SVG Version: 6.00 Build 0)  -->

<svg
   xmlns:dc="http://purl.org/dc/elements/1.1/"
   xmlns:cc="http://creativecommons.org/ns#"
   xmlns:rdf="http://www.w3.org/1999/02/22-rdf-syntax-ns#"
   xmlns:svg="http://www.w3.org/2000/svg"
   xmlns="http://www.w3.org/2000/svg"
   xmlns:sodipodi="http://sodipodi.sourceforge.net/DTD/sodipodi-0.dtd"
   xmlns:inkscape="http://www.inkscape.org/namespaces/inkscape"
   version="1.1"
   id="Layer_1"
   x="0px"
   y="0px"
   viewBox="0 0 100 100"
   style="enable-background:new 0 0 100 100;"
   xml:space="preserve"
   inkscape:version="0.91 r13725"
   sodipodi:docname="MobileServices_MobileAnalytics.svg"><metadata
     id="metadata41"><rdf:RDF><cc:Work
         rdf:about=""><dc:format>image/svg+xml</dc:format><dc:type
           rdf:resource="http://purl.org/dc/dcmitype/StillImage" /></cc:Work></rdf:RDF></metadata><defs
     id="defs39" /><sodipodi:namedview
     pagecolor="#ffffff"
     bordercolor="#666666"
     borderopacity="1"
     objecttolerance="10"
     gridtolerance="10"
     guidetolerance="10"
     inkscape:pageopacity="0"
     inkscape:pageshadow="2"
     inkscape:window-width="1280"
     inkscape:window-height="985"
     id="namedview37"
     showgrid="false"
     showguides="false"
     inkscape:zoom="7.4579687"
     inkscape:cx="50.26817"
     inkscape:cy="50"
     inkscape:window-x="0"
     inkscape:window-y="0"
     inkscape:window-maximized="1"
     inkscape:current-layer="Layer_1" /><style
     type="text/css"
     id="style3">
	.st0{fill:#512843;}
	.st1{fill:#692F56;}
	.st2{fill:#C17B9E;}
	.st3{fill:#CFB2C1;}
	.st4{fill:#875A78;}
</style><g
     id="g3369"
     transform="matrix(1.2135922,0,0,1.2135922,-10.67961,-10.67961)"><polygon
       id="polygon5"
       points="17.9,38.8 9.9,37 75.1,21.5 75.1,35.3 "
       class="st0"
       style="fill:#512843" /><polygon
       id="polygon7"
       points="42.7,64.4 42.7,55.8 83.7,61.7 83.7,74.3 "
       class="st1"
       style="fill:#692f56" /><polygon
       id="polygon9"
       points="79.6,76.4 79.6,62.9 70.6,65.6 70.6,80.9 "
       class="st2"
       style="fill:#c17b9e" /><polygon
       id="polygon11"
       points="90.1,71.1 90.1,59.7 83.7,61.6 83.7,74.3 "
       class="st2"
       style="fill:#c17b9e" /><polygon
       id="polygon13"
       points="29,67.3 29,57.5 70.6,65.6 70.6,80.9 "
       class="st1"
       style="fill:#692f56" /><polygon
       id="polygon15"
       points="64.4,83.9 64.4,67.4 50,71.7 50,91.2 "
       class="st2"
       style="fill:#c17b9e" /><polygon
       id="polygon17"
       points="9.9,71.1 9.9,59.7 50,71.7 50,91.2 "
       class="st1"
       style="fill:#692f56" /><polygon
       id="polygon19"
       points="22.6,58.1 9.9,59.7 49.9,71.7 64.4,67.4 "
       class="st3"
       style="fill:#cfb2c1" /><polygon
       id="polygon21"
       points="50.5,54.8 42.7,55.8 83.5,61.7 90.1,59.7 "
       class="st3"
       style="fill:#cfb2c1" /><polygon
       id="polygon23"
       points="38.4,56.3 29,57.5 70.5,65.6 79.6,62.9 "
       class="st3"
       style="fill:#cfb2c1" /><polygon
       id="polygon25"
       points="11.2,24.7 9.9,25.8 62.1,13.4 62.1,8.8 "
       class="st4"
       style="fill:#875a78" /><polygon
       id="polygon27"
       points="71.6,18.1 71.6,22.1 90.1,18.9 90.1,14.3 "
       class="st4"
       style="fill:#875a78" /><polygon
       id="polygon29"
       points="90.1,53.9 90.1,42.7 50.1,42.7 50.1,61.8 "
       class="st2"
       style="fill:#c17b9e" /><polygon
       id="polygon31"
       points="75.1,21 90.1,14.3 90.1,25.8 75.1,35.3 61.9,25.4 50.1,33.1 50.1,13.9 62.1,8.8 "
       class="st2"
       style="fill:#c17b9e" /><polygon
       id="polygon33"
       points="9.9,53.9 9.9,42.7 50.1,42.7 50.1,61.8 "
       class="st1"
       style="fill:#692f56" /><polygon
       id="polygon35"
       points="9.9,25.8 9.9,37 50.1,33 50.1,13.9 "
       class="st1"
       style="fill:#692f56" /></g></svg>