<?xml version="1.0" encoding="UTF-8" standalone="no"?>
<!-- Generator: Adobe Illustrator 18.1.1, SVG Export Plug-In . SVG Version: 6.00 Build 0)  -->

<svg
   xmlns:dc="http://purl.org/dc/elements/1.1/"
   xmlns:cc="http://creativecommons.org/ns#"
   xmlns:rdf="http://www.w3.org/1999/02/22-rdf-syntax-ns#"
   xmlns:svg="http://www.w3.org/2000/svg"
   xmlns="http://www.w3.org/2000/svg"
   xmlns:sodipodi="http://sodipodi.sourceforge.net/DTD/sodipodi-0.dtd"
   xmlns:inkscape="http://www.inkscape.org/namespaces/inkscape"
   version="1.2"
   id="Layer_1"
   x="0px"
   y="0px"
   viewBox="0 0 100 100"
   xml:space="preserve"
   inkscape:version="0.91 r13725"
   sodipodi:docname="Networking_AWSDirectConnect.svg"><metadata
     id="metadata32"><rdf:RDF><cc:Work
         rdf:about=""><dc:format>image/svg+xml</dc:format><dc:type
           rdf:resource="http://purl.org/dc/dcmitype/StillImage" /></cc:Work></rdf:RDF></metadata><defs
     id="defs30" /><sodipodi:namedview
     pagecolor="#ffffff"
     bordercolor="#666666"
     borderopacity="1"
     objecttolerance="10"
     gridtolerance="10"
     guidetolerance="10"
     inkscape:pageopacity="0"
     inkscape:pageshadow="2"
     inkscape:window-width="1280"
     inkscape:window-height="985"
     id="namedview28"
     showgrid="false"
     inkscape:zoom="7.4579687"
     inkscape:cx="50.26817"
     inkscape:cy="56.693775"
     inkscape:window-x="0"
     inkscape:window-y="0"
     inkscape:window-maximized="1"
     inkscape:current-layer="Layer_1" /><g
     id="Layer_3"
     transform="matrix(1.3888889,0,0,1.3888889,-7.8466111,-33.444444)" /><g
     id="Layer_1_1_"
     transform="matrix(1.3888889,0,0,1.3888889,-19.444445,-19.444445)"><g
       id="g5"><polygon
         points="50,28.4 79.823,37.347 50,41.053 20.177,37.347 "
         id="polygon7"
         style="fill:#6b3a19" /><polygon
         points="50,71.6 79.823,62.653 50,58.947 20.177,62.653 "
         id="polygon9"
         style="fill:#fbbf93" /><polygon
         points="79.823,28.912 79.823,37.347 50,28.4 50,14 "
         id="polygon11"
         style="fill:#f58536" /><polygon
         points="65.874,38.775 65.874,61.225 50,64.4 50,35.6 "
         id="polygon13"
         style="fill:#f58536" /><polygon
         points="62.601,44.061 62.601,55.94 79.823,54.218 79.823,45.782 "
         id="polygon15"
         style="fill:#f58536" /><polygon
         points="79.823,71.088 79.823,62.653 50,71.6 50,86 "
         id="polygon17"
         style="fill:#f58536" /><polygon
         points="20.177,28.912 20.177,37.347 50,28.4 50,14 "
         id="polygon19"
         style="fill:#9d5025" /><polygon
         points="34.125,38.775 34.125,61.225 50,64.4 50,35.6 "
         id="polygon21"
         style="fill:#9d5025" /><polygon
         points="37.399,44.061 37.399,55.94 20.177,54.218 20.177,45.782 "
         id="polygon23"
         style="fill:#9d5025" /><polygon
         points="20.177,71.088 20.177,62.653 50,71.6 50,86 "
         id="polygon25"
         style="fill:#9d5025" /></g></g><g
     id="nyt_x5F_exporter_x5F_info"
     display="none" /></svg>