<?xml version="1.0" encoding="UTF-8" standalone="no"?>
<!-- Generator: Adobe Illustrator 19.1.0, SVG Export Plug-In . SVG Version: 6.00 Build 0)  -->

<svg
   xmlns:dc="http://purl.org/dc/elements/1.1/"
   xmlns:cc="http://creativecommons.org/ns#"
   xmlns:rdf="http://www.w3.org/1999/02/22-rdf-syntax-ns#"
   xmlns:svg="http://www.w3.org/2000/svg"
   xmlns="http://www.w3.org/2000/svg"
   xmlns:sodipodi="http://sodipodi.sourceforge.net/DTD/sodipodi-0.dtd"
   xmlns:inkscape="http://www.inkscape.org/namespaces/inkscape"
   version="1.1"
   id="Layer_1"
   x="0px"
   y="0px"
   viewBox="0 0 100 100"
   style="enable-background:new 0 0 100 100;"
   xml:space="preserve"
   inkscape:version="0.91 r13725"
   sodipodi:docname="Analytics_AmazonQuickSight.svg"><metadata
     id="metadata27"><rdf:RDF><cc:Work
         rdf:about=""><dc:format>image/svg+xml</dc:format><dc:type
           rdf:resource="http://purl.org/dc/dcmitype/StillImage" /></cc:Work></rdf:RDF></metadata><defs
     id="defs25" /><sodipodi:namedview
     pagecolor="#ffffff"
     bordercolor="#666666"
     borderopacity="1"
     objecttolerance="10"
     gridtolerance="10"
     guidetolerance="10"
     inkscape:pageopacity="0"
     inkscape:pageshadow="2"
     inkscape:window-width="1280"
     inkscape:window-height="985"
     id="namedview23"
     showgrid="false"
     inkscape:zoom="7.4579687"
     inkscape:cx="50.26817"
     inkscape:cy="50"
     inkscape:window-x="0"
     inkscape:window-y="0"
     inkscape:window-maximized="1"
     inkscape:current-layer="Layer_1" /><style
     type="text/css"
     id="style3">
	.st0{fill:#9D5025;}
	.st1{fill:#F58435;}
</style><g
     id="g5"
     transform="matrix(1.510574,0,0,1.510574,-25.5287,-25.5287)"><polygon
       class="st0"
       points="65.2,66.1 65.2,46.9 78.2,46.9 78.2,69 "
       id="polygon7"
       style="fill:#9d5025" /><polygon
       class="st0"
       points="50,39 50,66.4 71.6,72.2 71.6,36.7 "
       id="polygon9"
       style="fill:#9d5025" /><polygon
       class="st0"
       points="31.3,28 31.3,65.8 62.7,76.8 62.7,16.9 "
       id="polygon11"
       style="fill:#9d5025" /><polygon
       class="st1"
       points="56.8,46.8 56.8,79.6 50,83.1 50,46.8 "
       id="polygon13"
       style="fill:#f58435" /><polygon
       class="st1"
       points="67.7,74.2 67.7,19.5 62.7,16.9 62.7,76.7 "
       id="polygon15"
       style="fill:#f58435" /><polygon
       class="st1"
       points="75,37.4 75,70.5 71.6,72.3 71.6,36.7 "
       id="polygon17"
       style="fill:#f58435" /><polygon
       class="st1"
       points="80,46.8 80,68 78.2,69 78.2,46.8 "
       id="polygon19"
       style="fill:#f58435" /><polygon
       class="st0"
       points="20,46.8 20,68.1 50,83.1 50,46.8 "
       id="polygon21"
       style="fill:#9d5025" /></g></svg>