<?xml version="1.0" encoding="UTF-8" standalone="no"?>
<!-- Generator: Adobe Illustrator 19.1.0, SVG Export Plug-In . SVG Version: 6.00 Build 0)  -->

<svg
   xmlns:dc="http://purl.org/dc/elements/1.1/"
   xmlns:cc="http://creativecommons.org/ns#"
   xmlns:rdf="http://www.w3.org/1999/02/22-rdf-syntax-ns#"
   xmlns:svg="http://www.w3.org/2000/svg"
   xmlns="http://www.w3.org/2000/svg"
   xmlns:sodipodi="http://sodipodi.sourceforge.net/DTD/sodipodi-0.dtd"
   xmlns:inkscape="http://www.inkscape.org/namespaces/inkscape"
   version="1.1"
   id="Layer_1"
   x="0px"
   y="0px"
   viewBox="0 0 100 100"
   style="enable-background:new 0 0 100 100;"
   xml:space="preserve"
   inkscape:version="0.91 r13725"
   sodipodi:docname="Database_AmazonRDS_PostgreSQLInstance.svg"><metadata
     id="metadata75"><rdf:RDF><cc:Work
         rdf:about=""><dc:format>image/svg+xml</dc:format><dc:type
           rdf:resource="http://purl.org/dc/dcmitype/StillImage" /></cc:Work></rdf:RDF></metadata><defs
     id="defs73" /><sodipodi:namedview
     pagecolor="#ffffff"
     bordercolor="#666666"
     borderopacity="1"
     objecttolerance="10"
     gridtolerance="10"
     guidetolerance="10"
     inkscape:pageopacity="0"
     inkscape:pageshadow="2"
     inkscape:window-width="1600"
     inkscape:window-height="861"
     id="namedview71"
     showgrid="false"
     inkscape:zoom="4.9122198"
     inkscape:cx="45.831285"
     inkscape:cy="68.29766"
     inkscape:window-x="1280"
     inkscape:window-y="0"
     inkscape:window-maximized="1"
     inkscape:current-layer="Layer_1" /><style
     type="text/css"
     id="style3">
	.st0{fill:#FFFFFF;}
	.st1{font-family:'HelveticaNeueLTStd-MdCn';}
	.st2{font-size:11px;}
	.st3{fill:#1A476F;}
	.st4{fill:#2D72B8;}
	.st5{display:none;}
</style><g
     id="g28"
     transform="matrix(1.8181818,0,0,1.8181818,-40.998044,-39.999999)"><g
       id="g30"><path
         class="st3"
         d="m 76.4,66.9 0,2.6 c 0,0.4 0,0.7 -0.1,1.1 l 0,-2.6 c 0,-0.4 0.1,-0.8 0.1,-1.1"
         id="path32"
         inkscape:connector-curvature="0"
         style="fill:#1a476f" /><path
         class="st3"
         d="m 76.3,68 0,2.6 C 76.2,71 76.1,71.4 76,71.8 l 0,-2.6 c 0.1,-0.4 0.2,-0.8 0.3,-1.2"
         id="path34"
         inkscape:connector-curvature="0"
         style="fill:#1a476f" /><path
         class="st3"
         d="m 76,69.2 0,2.6 c -0.1,0.5 -0.3,0.9 -0.6,1.3 l 0,-2.6 c 0.3,-0.4 0.5,-0.9 0.6,-1.3"
         id="path36"
         inkscape:connector-curvature="0"
         style="fill:#1a476f" /></g><path
       class="st3"
       d="m 76.4,66.9 0,2.6 c 0,4.1 -3.4,7.5 -7.5,7.5 l 0,-2.6 c 4.1,0 7.5,-3.4 7.5,-7.5 z"
       id="path38"
       inkscape:connector-curvature="0"
       style="fill:#1a476f" /><g
       id="g40"><polygon
         class="st3"
         points="31.2,77 31.2,74.4 69.9,73.6 68.8,77 "
         id="polygon42"
         style="fill:#1a476f" /></g><path
       class="st3"
       d="m 31.2,74.4 0,2.6 C 27,77 23.7,73.6 23.7,69.5 l 0,-2.6 c -0.1,4.1 3.3,7.5 7.5,7.5 z"
       id="path44"
       inkscape:connector-curvature="0"
       style="fill:#1a476f" /><g
       id="g46"><path
         class="st4"
         d="m 68.8,22 c 4.2,0 7.5,3.3 7.5,7.5 l 0,38.4 c 0,4.1 -3.4,7.5 -7.5,7.5 l -37.6,0 C 27,75.4 23.7,72 23.7,67.9 l 0,-38.4 c 0,-4.1 3.4,-7.5 7.5,-7.5 l 37.6,0 z"
         id="path48"
         inkscape:connector-curvature="0"
         style="fill:#2d72b8" /></g></g><text
     xml:space="preserve"
     style="font-style:normal;font-variant:normal;font-weight:bold;font-stretch:normal;font-size:17.1714325px;line-height:125%;font-family:Sans;-inkscape-font-specification:'Sans, Bold';text-align:start;letter-spacing:0px;word-spacing:0px;writing-mode:lr-tb;text-anchor:start;fill:#ffffff;fill-opacity:1;stroke:none;stroke-width:1px;stroke-linecap:butt;stroke-linejoin:miter;stroke-opacity:1;"
     x="3.2617104"
     y="26.850798"
     id="text4177"
     sodipodi:linespacing="125%"
     transform="scale(0.82666122,1.2096854)"><tspan
       sodipodi:role="line"
       id="tspan4179"
       x="3.2617104"
       y="26.850798">PostgreSQL</tspan></text>
<g
     id="nyt_x5F_exporter_x5F_info"
     class="st5" /></svg>