<?xml version="1.0" encoding="UTF-8" standalone="no"?>
<!-- Generator: Adobe Illustrator 19.1.0, SVG Export Plug-In . SVG Version: 6.00 Build 0)  -->

<svg
   xmlns:dc="http://purl.org/dc/elements/1.1/"
   xmlns:cc="http://creativecommons.org/ns#"
   xmlns:rdf="http://www.w3.org/1999/02/22-rdf-syntax-ns#"
   xmlns:svg="http://www.w3.org/2000/svg"
   xmlns="http://www.w3.org/2000/svg"
   xmlns:sodipodi="http://sodipodi.sourceforge.net/DTD/sodipodi-0.dtd"
   xmlns:inkscape="http://www.inkscape.org/namespaces/inkscape"
   version="1.1"
   id="Layer_1"
   x="0px"
   y="0px"
   viewBox="0 0 100 100"
   style="enable-background:new 0 0 100 100;"
   xml:space="preserve"
   inkscape:version="0.91 r13725"
   sodipodi:docname="Database_AmazonRDS_MySQLInstance-2.svg"><metadata
     id="metadata37"><rdf:RDF><cc:Work
         rdf:about=""><dc:format>image/svg+xml</dc:format><dc:type
           rdf:resource="http://purl.org/dc/dcmitype/StillImage" /></cc:Work></rdf:RDF></metadata><defs
     id="defs35" /><sodipodi:namedview
     pagecolor="#ffffff"
     bordercolor="#666666"
     borderopacity="1"
     objecttolerance="10"
     gridtolerance="10"
     guidetolerance="10"
     inkscape:pageopacity="0"
     inkscape:pageshadow="2"
     inkscape:window-width="1600"
     inkscape:window-height="861"
     id="namedview33"
     showgrid="false"
     inkscape:zoom="3.995353"
     inkscape:cx="45.926736"
     inkscape:cy="68.930956"
     inkscape:window-x="1280"
     inkscape:window-y="0"
     inkscape:window-maximized="1"
     inkscape:current-layer="Layer_1" /><style
     type="text/css"
     id="style3">
	.st0{fill:#1A476F;}
	.st1{fill:#2D72B8;}
	.st2{fill:#FFFFFF;}
	.st3{font-family:'HelveticaNeueLTStd-BdCn';}
	.st4{font-size:14px;}
	.st5{display:none;}
</style><g
     id="nyt_x5F_exporter_x5F_info"
     class="st5" /><g
     id="g8"
     transform="matrix(1.8181818,0,0,1.8181818,-40.998044,-39.999999)"><g
       id="g10"><path
         class="st0"
         d="m 76.4,66.9 0,2.6 c 0,0.4 0,0.7 -0.1,1.1 l 0,-2.6 c 0,-0.4 0.1,-0.8 0.1,-1.1"
         id="path12"
         inkscape:connector-curvature="0"
         style="fill:#1a476f" /><path
         class="st0"
         d="m 76.3,68 0,2.6 C 76.2,71 76.1,71.4 76,71.8 l 0,-2.6 c 0.1,-0.4 0.2,-0.8 0.3,-1.2"
         id="path14"
         inkscape:connector-curvature="0"
         style="fill:#1a476f" /><path
         class="st0"
         d="m 76,69.2 0,2.6 c -0.1,0.5 -0.3,0.9 -0.6,1.3 l 0,-2.6 c 0.3,-0.4 0.5,-0.9 0.6,-1.3"
         id="path16"
         inkscape:connector-curvature="0"
         style="fill:#1a476f" /></g><path
       class="st0"
       d="m 76.4,66.9 0,2.6 c 0,4.1 -3.4,7.5 -7.5,7.5 l 0,-2.6 c 4.1,0 7.5,-3.4 7.5,-7.5 z"
       id="path18"
       inkscape:connector-curvature="0"
       style="fill:#1a476f" /><g
       id="g20"><polygon
         class="st0"
         points="31.2,74.4 69.9,73.6 68.8,77 31.2,77 "
         id="polygon22"
         style="fill:#1a476f" /></g><path
       class="st0"
       d="m 31.2,74.4 0,2.6 C 27,77 23.7,73.6 23.7,69.5 l 0,-2.6 c -0.1,4.1 3.3,7.5 7.5,7.5 z"
       id="path24"
       inkscape:connector-curvature="0"
       style="fill:#1a476f" /><g
       id="g26"><path
         class="st1"
         d="m 68.8,22 c 4.2,0 7.5,3.3 7.5,7.5 l 0,38.4 c 0,4.1 -3.4,7.5 -7.5,7.5 l -37.6,0 C 27,75.4 23.7,72 23.7,67.9 l 0,-38.4 c 0,-4.1 3.4,-7.5 7.5,-7.5 l 37.6,0 0,0 z"
         id="path28"
         inkscape:connector-curvature="0"
         style="fill:#2d72b8" /></g></g><text
     xml:space="preserve"
     style="font-style:normal;font-variant:normal;font-weight:bold;font-stretch:normal;font-size:23.77044106px;line-height:125%;font-family:Sans;-inkscape-font-specification:'Sans, Bold';text-align:start;letter-spacing:0px;word-spacing:0px;writing-mode:lr-tb;text-anchor:start;fill:#ffffff;fill-opacity:1;stroke:none;stroke-width:1px;stroke-linecap:butt;stroke-linejoin:miter;stroke-opacity:1;"
     x="5.8173094"
     y="30.628792"
     id="text4160"
     sodipodi:linespacing="125%"
     transform="scale(0.94655373,1.0564641)"><tspan
       sodipodi:role="line"
       id="tspan4162"
       x="5.8173094"
       y="30.628792">MySQL</tspan></text>
<polygon
     class="st5"
     points="34.3,27.3 31.8,27.3 31.8,36.9 33.3,36.9 33.3,28.9 33.3,28.9 35.3,36.9 36.6,36.9 38.6,28.9 38.6,28.9 38.6,36.9 40.1,36.9 40.1,27.3 37.7,27.3 36,34.4 36,34.4 "
     id="polygon85"
     style="display:none;fill:#ffffff"
     transform="matrix(3.2467532,0,0,3.2467532,-144.15584,-129.2109)" /><path
     class="st5"
     d="m -0.6493499,-15.249858 0,0 -4.22078,-17.857143 -5.1948031,0 6.8181813,24.025974 -0.6493509,1.9480528 c -0.6493509,1.6233763 -1.6233763,1.9480508 -3.2467545,1.9480508 -0.6493491,0 -0.9740255,0 -1.6233764,-0.3246745 l 0,3.8961036 c 0.6493509,0 1.2987018,0.3246745 1.9480528,0.3246745 4.870129,0 6.49350534,-0.649349 8.441558,-7.1428563 l 6.4935073,-24.3506489 -4.8701309,0 -3.8961036,17.532467 z"
     id="path87"
     inkscape:connector-curvature="0"
     style="display:none;fill:#ffffff" /><path
     class="st5"
     d="m 24.675326,-26.28882 -3.246754,-1.298699 c -3.246753,-1.298702 -4.870129,-2.597404 -4.870129,-5.194806 0,-3.246754 1.948051,-4.545454 4.220778,-4.545454 3.246754,0 4.545454,1.623376 4.545454,4.545454 l 0,0.649351 4.870131,0 0,-0.649351 c 0,-3.246754 -0.974025,-8.116883 -8.766234,-8.116883 -5.844155,0 -9.74026,3.246752 -9.74026,8.766234 0,4.545455 1.948052,6.818182 6.493507,8.441558 l 3.571429,1.2987 c 2.922078,0.974027 4.545455,2.272727 4.545455,5.519482 0,2.272727 -1.623377,4.545454 -4.870131,4.545454 -3.571428,0 -5.194806,-1.948052 -5.194806,-5.844156 l 0,-0.649351 -5.194803,0 0,0.649351 c 0,4.545455 1.623376,9.4155854 9.740258,9.4155854 6.493507,0 10.389611,-2.5974034 10.389611,-9.4155854 -0.324675,-4.22078 -2.272728,-6.493507 -6.493506,-8.116884 z"
     id="path89"
     inkscape:connector-curvature="0"
     style="display:none;fill:#ffffff" /><path
     class="st5"
     d="m 50.649351,-9.7303779 3.246753,3.2467546 3.246755,-2.5974037 -3.246755,-3.246753 c 1.298702,-2.272727 2.597404,-6.493507 2.597404,-12.337663 0,-11.03896 -3.246755,-16.233765 -10.389611,-16.233765 -7.142856,0 -10.389611,5.194805 -10.389611,16.233765 0,11.038962 3.246755,16.2337669 10.389611,16.2337669 1.623376,-0.3246745 3.246753,-0.6493509 4.545454,-1.2987018 z M 40.584417,-24.990118 c 0,-10.389611 2.272727,-12.337661 5.51948,-12.337661 2.922078,0 5.51948,1.94805 5.51948,12.337661 0,4.545455 -0.324675,7.467533 -0.974026,9.090909 l -1.948052,-1.948052 -2.922077,2.922078 2.272728,2.272727 c -0.649351,0.324676 -1.298702,0.324676 -1.948053,0.324676 -3.246753,0 -5.51948,-1.948052 -5.51948,-12.662338 z"
     id="path91"
     inkscape:connector-curvature="0"
     style="display:none;fill:#ffffff" /><polygon
     class="st5"
     points="68.6,35.6 64.8,35.6 64.8,27.3 63.3,27.3 63.3,36.9 68.6,36.9 "
     id="polygon93"
     style="display:none;fill:#ffffff"
     transform="matrix(3.2467532,0,0,3.2467532,-144.15584,-129.2109)" /><polygon
     class="st5"
     points="34.3,27.3 31.8,27.3 31.8,36.9 33.3,36.9 33.3,28.9 33.3,28.9 35.3,36.9 36.6,36.9 38.6,28.9 38.6,28.9 38.6,36.9 40.1,36.9 40.1,27.3 37.7,27.3 36,34.4 36,34.4 "
     id="polygon85-9"
     style="display:none;fill:#ffffff"
     transform="matrix(3.2467532,0,0,3.2467532,-144.15584,-129.2109)" /><path
     class="st5"
     d="m -0.6493499,-15.249858 0,0 -4.22078,-17.857143 -5.1948031,0 6.8181813,24.025974 -0.6493509,1.9480528 c -0.6493509,1.6233763 -1.6233763,1.9480508 -3.2467545,1.9480508 -0.6493491,0 -0.9740255,0 -1.6233764,-0.3246745 l 0,3.8961036 c 0.6493509,0 1.2987018,0.3246745 1.9480528,0.3246745 4.870129,0 6.49350534,-0.649349 8.441558,-7.1428563 l 6.4935073,-24.3506489 -4.8701309,0 -3.8961036,17.532467 z"
     id="path87-6"
     inkscape:connector-curvature="0"
     style="display:none;fill:#ffffff" /><path
     class="st5"
     d="m 24.675326,-26.28882 -3.246754,-1.298699 c -3.246753,-1.298702 -4.870129,-2.597404 -4.870129,-5.194806 0,-3.246754 1.948051,-4.545454 4.220778,-4.545454 3.246754,0 4.545454,1.623376 4.545454,4.545454 l 0,0.649351 4.870131,0 0,-0.649351 c 0,-3.246754 -0.974025,-8.116883 -8.766234,-8.116883 -5.844155,0 -9.74026,3.246752 -9.74026,8.766234 0,4.545455 1.948052,6.818182 6.493507,8.441558 l 3.571429,1.2987 c 2.922078,0.974027 4.545455,2.272727 4.545455,5.519482 0,2.272727 -1.623377,4.545454 -4.870131,4.545454 -3.571428,0 -5.194806,-1.948052 -5.194806,-5.844156 l 0,-0.649351 -5.194803,0 0,0.649351 c 0,4.545455 1.623376,9.4155854 9.740258,9.4155854 6.493507,0 10.389611,-2.5974034 10.389611,-9.4155854 -0.324675,-4.22078 -2.272728,-6.493507 -6.493506,-8.116884 z"
     id="path89-1"
     inkscape:connector-curvature="0"
     style="display:none;fill:#ffffff" /><path
     class="st5"
     d="m 50.649351,-9.7303779 3.246753,3.2467546 3.246755,-2.5974037 -3.246755,-3.246753 c 1.298702,-2.272727 2.597404,-6.493507 2.597404,-12.337663 0,-11.03896 -3.246755,-16.233765 -10.389611,-16.233765 -7.142856,0 -10.389611,5.194805 -10.389611,16.233765 0,11.038962 3.246755,16.2337669 10.389611,16.2337669 1.623376,-0.3246745 3.246753,-0.6493509 4.545454,-1.2987018 z M 40.584417,-24.990118 c 0,-10.389611 2.272727,-12.337661 5.51948,-12.337661 2.922078,0 5.51948,1.94805 5.51948,12.337661 0,4.545455 -0.324675,7.467533 -0.974026,9.090909 l -1.948052,-1.948052 -2.922077,2.922078 2.272728,2.272727 c -0.649351,0.324676 -1.298702,0.324676 -1.948053,0.324676 -3.246753,0 -5.51948,-1.948052 -5.51948,-12.662338 z"
     id="path91-7"
     inkscape:connector-curvature="0"
     style="display:none;fill:#ffffff" /><polygon
     class="st5"
     points="68.6,35.6 64.8,35.6 64.8,27.3 63.3,27.3 63.3,36.9 68.6,36.9 "
     id="polygon93-2"
     style="display:none;fill:#ffffff"
     transform="matrix(3.2467532,0,0,3.2467532,-144.15584,-129.2109)" /></svg>