<?xml version="1.0" encoding="UTF-8" standalone="no"?>
<!-- Generator: Adobe Illustrator 19.1.0, SVG Export Plug-In . SVG Version: 6.00 Build 0)  -->

<svg
   xmlns:dc="http://purl.org/dc/elements/1.1/"
   xmlns:cc="http://creativecommons.org/ns#"
   xmlns:rdf="http://www.w3.org/1999/02/22-rdf-syntax-ns#"
   xmlns:svg="http://www.w3.org/2000/svg"
   xmlns="http://www.w3.org/2000/svg"
   xmlns:xlink="http://www.w3.org/1999/xlink"
   xmlns:sodipodi="http://sodipodi.sourceforge.net/DTD/sodipodi-0.dtd"
   xmlns:inkscape="http://www.inkscape.org/namespaces/inkscape"
   version="1.1"
   id="Layer_1"
   x="0px"
   y="0px"
   viewBox="0 0 100 100"
   style="enable-background:new 0 0 100 100;"
   xml:space="preserve"
   inkscape:version="0.91 r13725"
   sodipodi:docname="Database_AmazonRDS_OracleDBInstance.svg"><metadata
     id="metadata128"><rdf:RDF><cc:Work
         rdf:about=""><dc:format>image/svg+xml</dc:format><dc:type
           rdf:resource="http://purl.org/dc/dcmitype/StillImage" /></cc:Work></rdf:RDF></metadata><defs
     id="defs126" /><sodipodi:namedview
     pagecolor="#ffffff"
     bordercolor="#666666"
     borderopacity="1"
     objecttolerance="10"
     gridtolerance="10"
     guidetolerance="10"
     inkscape:pageopacity="0"
     inkscape:pageshadow="2"
     inkscape:window-width="1600"
     inkscape:window-height="861"
     id="namedview124"
     showgrid="false"
     inkscape:zoom="4.9122198"
     inkscape:cx="77.608226"
     inkscape:cy="52.28418"
     inkscape:window-x="1280"
     inkscape:window-y="0"
     inkscape:window-maximized="1"
     inkscape:current-layer="Layer_1" /><style
     type="text/css"
     id="style3">
	.st0{fill:#1A476F;}
	.st1{clip-path:url(#SVGID_2_);enable-background:new    ;}
	.st2{fill:#2D72B8;}
	.st3{clip-path:url(#SVGID_4_);enable-background:new    ;}
	.st4{clip-path:url(#SVGID_6_);enable-background:new    ;}
	.st5{clip-path:url(#SVGID_8_);enable-background:new    ;}
	.st6{fill:#FFFFFF;}
	.st7{display:none;}
</style><g
     id="g6"
     transform="matrix(1.7921147,0,0,1.7921147,-39.695341,-38.709678)"><g
       id="g8"><path
         style="fill:#1a476f"
         inkscape:connector-curvature="0"
         d="m 76,46.8 c -3.7,-1.2 -7.8,-1.4 -11.3,-1.4 -5.1,0 -11.5,1.2 -12.7,2.9 l 0,-2.4 c 0.5,-2.1 6.4,-3.9 11.7,-3.9 1.8,0 9.8,0.8 12.4,2.1"
         class="st0"
         id="SVGID_23_" /></g><g
       id="g11"><defs
         id="defs13"><path
           inkscape:connector-curvature="0"
           d="m 76,46.8 c -3.7,-1.2 -7.8,-1.4 -11.3,-1.4 -5.1,0 -11.5,1.2 -12.7,2.9 l 0,-2.4 c 0.5,-2.1 6.4,-3.9 11.7,-3.9 1.8,0 9.8,0.8 12.4,2.1"
           id="SVGID_1_" /></defs><clipPath
         id="SVGID_2_"><use
           height="100%"
           width="100%"
           y="0"
           x="0"
           id="use17"
           style="overflow:visible"
           xlink:href="#SVGID_1_" /></clipPath><g
         style="enable-background:new"
         clip-path="url(#SVGID_2_)"
         id="g19"
         class="st1"><path
           style="fill:#1a476f"
           inkscape:connector-curvature="0"
           id="path21"
           d="m 52.2,45.5 0,2.6 c -0.1,0.1 -0.1,0.2 -0.1,0.3 l 0,-2.6 c 0.1,-0.1 0.1,-0.2 0.1,-0.3"
           class="st0" /><path
           style="fill:#1a476f"
           inkscape:connector-curvature="0"
           id="path23"
           d="m 52.1,45.8 0,2.6 0,0.1 0,-2.7 c 0,0.1 0,0 0,0"
           class="st0" /></g></g></g><g
     id="g25"
     transform="matrix(1.7921147,0,0,1.7921147,-39.695341,-38.709678)"><path
       style="fill:#2d72b8"
       inkscape:connector-curvature="0"
       id="path27"
       d="m 65.5,48.8 c 2.2,0 4,0.2 5.6,0.4 3.3,0.5 5,1.5 5,2.1 0,0.6 -1.7,1.5 -5,2 -1.5,0.3 -3.4,0.4 -5.6,0.4 -6.9,0 -10.6,-1.6 -10.6,-2.5 0,-0.8 3.8,-2.4 10.6,-2.4 z"
       class="st2" /></g><g
     id="g29"
     transform="matrix(1.7921147,0,0,1.7921147,-39.695341,-38.709678)"><g
       id="g31"><path
         style="fill:#1a476f"
         inkscape:connector-curvature="0"
         d="m 76.2,50.3 0,2.7 c 0,0.6 -1.7,1.5 -5,2 -1.5,0.3 -3.4,0.4 -5.6,0.4 C 58.7,55.4 55,53.8 55,52.9 l 0,-2.8 c 0,0.8 3.7,2.5 10.6,2.5 2.2,0 4,-0.2 5.6,-0.4 3.2,-0.4 5,-1.4 5,-1.9 z"
         class="st0"
         id="SVGID_25_" /></g><g
       id="g34"><defs
         id="defs36"><path
           inkscape:connector-curvature="0"
           d="m 76.2,50.3 0,2.7 c 0,0.6 -1.7,1.5 -5,2 -1.5,0.3 -3.4,0.4 -5.6,0.4 C 58.7,55.4 55,53.8 55,52.9 l 0,-2.8 c 0,0.8 3.7,2.5 10.6,2.5 2.2,0 4,-0.2 5.6,-0.4 3.2,-0.4 5,-1.4 5,-1.9 z"
           id="SVGID_3_" /></defs><clipPath
         id="SVGID_4_"><use
           height="100%"
           width="100%"
           y="0"
           x="0"
           id="use40"
           style="overflow:visible"
           xlink:href="#SVGID_3_" /></clipPath><g
         style="enable-background:new"
         clip-path="url(#SVGID_4_)"
         id="g42"
         class="st3"><path
           style="fill:#1a476f"
           inkscape:connector-curvature="0"
           id="path44"
           d="m 76.2,50.3 0,2.7 0,0 0,-2.7 0,0"
           class="st0" /><path
           style="fill:#1a476f"
           inkscape:connector-curvature="0"
           id="path46"
           d="m 76.2,50.3 0,2.8 c 0,0 0,0 0,0.1 l 0,-2.9 c -0.1,0 0,0 0,0"
           class="st0" /><path
           style="fill:#1a476f"
           inkscape:connector-curvature="0"
           id="path48"
           d="m 76.1,50.4 0,2.8 0,0.1 0,-2.9 0,0"
           class="st0" /><path
           style="fill:#1a476f"
           inkscape:connector-curvature="0"
           id="path50"
           d="m 76.1,50.4 0,2.8 c -0.3,0.6 -2,1.4 -5,1.9 -1.5,0.3 -3.4,0.4 -5.6,0.4 -6.9,0 -10.6,-1.6 -10.6,-2.5 l 0,-2.8 c 0,0.8 3.7,2.5 10.6,2.5 2.2,0 4,-0.2 5.6,-0.4 3,-0.5 4.7,-1.3 5,-1.9"
           class="st0" /></g></g></g><g
     id="g52"
     transform="matrix(1.7921147,0,0,1.7921147,-39.695341,-38.709678)"><g
       id="g54"><path
         style="fill:#1a476f"
         inkscape:connector-curvature="0"
         d="m 57.3,72.4 0,3.9 C 55.6,75.7 55.1,75.4 54.9,75 l 0,-4.5 c 0.1,0.5 1.1,1.3 2.4,1.9 z"
         class="st0"
         id="SVGID_27_" /></g></g><g
     id="g57"
     transform="matrix(1.7921147,0,0,1.7921147,-39.695341,-38.709678)"><g
       id="g59"><path
         style="fill:#1a476f"
         inkscape:connector-curvature="0"
         d="m 76.3,72.1 0,2.8 c 0,0.9 -3,2.5 -10.1,2.5 -3.9,0 -6.8,-0.5 -9,-1.1 l 0,-2.8 c 2.1,0.7 5.1,1.1 9,1.1 7.2,0 10.1,-1.6 10.1,-2.5 z"
         class="st0"
         id="SVGID_29_" /></g><g
       id="g62"><defs
         id="defs64"><path
           inkscape:connector-curvature="0"
           d="m 76.3,72.1 0,2.8 c 0,0.9 -3,2.5 -10.1,2.5 -3.9,0 -6.8,-0.5 -9,-1.1 l 0,-2.8 c 2.1,0.7 5.1,1.1 9,1.1 7.2,0 10.1,-1.6 10.1,-2.5 z"
           id="SVGID_5_" /></defs><clipPath
         id="SVGID_6_"><use
           height="100%"
           width="100%"
           y="0"
           x="0"
           id="use68"
           style="overflow:visible"
           xlink:href="#SVGID_5_" /></clipPath><g
         style="enable-background:new"
         clip-path="url(#SVGID_6_)"
         id="g70"
         class="st4"><path
           style="fill:#1a476f"
           inkscape:connector-curvature="0"
           id="path72"
           d="m 76.3,72.1 0,2.8 c 0,0 0,0 0,0.1 l 0,-2.9 c 0,0.1 0,0.1 0,0"
           class="st0" /><path
           style="fill:#1a476f"
           inkscape:connector-curvature="0"
           id="path74"
           d="m 76.3,72.2 0,2.8 c 0,0 0,0 0,0.1 l 0,-2.9 0,0"
           class="st0" /><path
           style="fill:#1a476f"
           inkscape:connector-curvature="0"
           id="path76"
           d="m 76.3,72.3 0,2.8 c 0,0 0,0.1 -0.1,0.1 l 0.1,-2.9 c 0,0 0,0 0,0"
           class="st0" /><path
           style="fill:#1a476f"
           inkscape:connector-curvature="0"
           id="path78"
           d="m 76.3,72.4 0,2.8 c -0.5,0.9 -3.5,2.2 -10,2.2 -3.9,0 -7.1,-0.5 -9,-1.1 l 0,-2.8 c 1.9,0.6 5.1,1.1 9,1.1 6.4,0 9.5,-1.4 10,-2.2"
           class="st0" /></g></g></g><g
     id="g80"
     transform="matrix(1.7921147,0,0,1.7921147,-39.695341,-38.709678)"><g
       id="g82"><path
         style="fill:#1a476f"
         inkscape:connector-curvature="0"
         d="m 27.8,73.4 0,2.6 c -2.2,0 -4,-1.8 -4,-4 l 0,-2.6 c 0,2.2 1.8,4 4,4 z"
         class="st0"
         id="SVGID_31_" /></g><g
       id="g85"><defs
         id="defs87"><path
           inkscape:connector-curvature="0"
           d="m 27.8,73.4 0,2.6 c -2.2,0 -4,-1.8 -4,-4 l 0,-2.6 c 0,2.2 1.8,4 4,4 z"
           id="SVGID_7_" /></defs><clipPath
         id="SVGID_8_"><use
           height="100%"
           width="100%"
           y="0"
           x="0"
           id="use91"
           style="overflow:visible"
           xlink:href="#SVGID_7_" /></clipPath><g
         style="enable-background:new"
         clip-path="url(#SVGID_8_)"
         id="g93"
         class="st5"><path
           style="fill:#1a476f"
           inkscape:connector-curvature="0"
           id="path95"
           d="m 27.8,73.4 0,2.6 c -2.2,0 -4,-1.8 -4,-4 l 0,-2.6 c 0,2.2 1.8,4 4,4"
           class="st0" /></g></g></g><g
     id="g97"
     transform="matrix(1.7921147,0,0,1.7921147,-39.695341,-38.709678)"><polygon
       style="fill:#1a476f"
       id="polygon99"
       points="53.6,76 27.8,76 27.8,73.4 53.6,73.4 "
       class="st0" /></g><g
     id="g101"
     transform="matrix(1.7921147,0,0,1.7921147,-39.695341,-38.709678)"><path
       style="fill:#2d72b8"
       inkscape:connector-curvature="0"
       id="path103"
       d="M 76.1,45.5 C 72.3,44.2 66.1,44.1 64.3,44.2 59.1,44.3 53.2,45.5 52.2,47 l 0,0.3 0,0.9 0,24.8 c 0,0.5 1,1 1.4,1.4 l -25.8,0 c -2.2,0 -4,-1.8 -4,-4 l 0,-44.8 c 0,-2.2 1.8,-4 4,-4 l 44.5,0 c 2.2,0 4,1.8 4,4"
       class="st2" /></g><g
     id="g105"
     transform="matrix(1.7921147,0,0,1.7921147,-39.695341,-38.709678)"><path
       style="fill:#2d72b8"
       inkscape:connector-curvature="0"
       id="path107"
       d="m 76.3,56.1 0,17 c 0,0.9 -3,2.5 -10.1,2.5 -3.9,0 -6.8,-0.5 -8.8,-1 -1.4,-0.5 -2.4,-1 -2.5,-1.4 l 0,-17 c 2.1,1.3 6.4,2 10.6,2 l 0.3,0 c 0.4,0 0.9,0 1.3,0 l 0.2,0 c 0.4,0 0.7,0 1.1,-0.1 0.2,0 0.4,0 0.5,0 0.3,0 0.6,0 0.8,-0.1 0.2,0 0.3,0 0.5,-0.1 0.3,0 0.6,-0.1 0.9,-0.1 2.3,-0.4 4.1,-1 5.2,-1.7 z"
       class="st2" /></g><polygon
     style="fill:#ffffff"
     id="polygon109"
     points="62.1,73.1 62.1,62.4 62.1,62.4 64.7,73.1 66.5,73.1 69,62.4 69.1,62.4 69.1,73.1 71,73.1 71,60.3 67.9,60.3 65.7,69.7 65.6,69.7 63.4,60.3 60.2,60.3 60.2,73.1 "
     class="st6"
     transform="matrix(1.7921147,0,0,1.7921147,-39.695341,-38.709678)" /><text
     xml:space="preserve"
     style="font-style:normal;font-variant:normal;font-weight:bold;font-stretch:normal;font-size:20.3507328px;line-height:125%;font-family:Sans;-inkscape-font-specification:'Sans, Bold';text-align:start;letter-spacing:0px;word-spacing:0px;writing-mode:lr-tb;text-anchor:start;fill:#ffffff;fill-opacity:1;stroke:none;stroke-width:1px;stroke-linecap:butt;stroke-linejoin:miter;stroke-opacity:1;"
     x="13.118439"
     y="21.444784"
     id="text4265"
     sodipodi:linespacing="125%"
     transform="scale(0.85343161,1.1717401)"><tspan
       sodipodi:role="line"
       id="tspan4267"
       x="13.118439"
       y="21.444784">ORACLE</tspan></text>
<g
     id="nyt_x5F_exporter_x5F_info"
     class="st7" /></svg>