<?xml version="1.0" encoding="UTF-8" standalone="no"?>
<!-- Generator: Adobe Illustrator 19.1.0, SVG Export Plug-In . SVG Version: 6.00 Build 0)  -->

<svg
   xmlns:dc="http://purl.org/dc/elements/1.1/"
   xmlns:cc="http://creativecommons.org/ns#"
   xmlns:rdf="http://www.w3.org/1999/02/22-rdf-syntax-ns#"
   xmlns:svg="http://www.w3.org/2000/svg"
   xmlns="http://www.w3.org/2000/svg"
   xmlns:sodipodi="http://sodipodi.sourceforge.net/DTD/sodipodi-0.dtd"
   xmlns:inkscape="http://www.inkscape.org/namespaces/inkscape"
   version="1.1"
   id="Layer_1"
   x="0px"
   y="0px"
   viewBox="0 0 100 100"
   style="enable-background:new 0 0 100 100;"
   xml:space="preserve"
   inkscape:version="0.91 r13725"
   sodipodi:docname="Database_AmazonRDS_OracleDBInstance-2.svg"><metadata
     id="metadata47"><rdf:RDF><cc:Work
         rdf:about=""><dc:format>image/svg+xml</dc:format><dc:type
           rdf:resource="http://purl.org/dc/dcmitype/StillImage" /></cc:Work></rdf:RDF></metadata><defs
     id="defs45" /><sodipodi:namedview
     pagecolor="#ffffff"
     bordercolor="#666666"
     borderopacity="1"
     objecttolerance="10"
     gridtolerance="10"
     guidetolerance="10"
     inkscape:pageopacity="0"
     inkscape:pageshadow="2"
     inkscape:window-width="1280"
     inkscape:window-height="985"
     id="namedview43"
     showgrid="false"
     inkscape:zoom="7.4579687"
     inkscape:cx="50.26817"
     inkscape:cy="50"
     inkscape:window-x="0"
     inkscape:window-y="0"
     inkscape:window-maximized="1"
     inkscape:current-layer="Layer_1" /><style
     type="text/css"
     id="style3">
	.st0{fill:#1A476F;}
	.st1{fill:#2D72B8;}
	.st2{fill:#FFFFFF;}
	.st3{font-family:'HelveticaNeueLTStd-BdCn';}
	.st4{font-size:14px;}
	.st5{display:none;}
</style><g
     id="g3401"
     transform="matrix(1.8181818,0,0,1.8181818,-40.90909,-39.999999)"><g
       transform="translate(-0.0489246,0)"
       id="g6"><g
         id="g8"><g
           id="g10"><path
             class="st0"
             d="m 76.4,66.9 0,2.6 c 0,0.4 0,0.7 -0.1,1.1 l 0,-2.6 c 0,-0.4 0.1,-0.8 0.1,-1.1"
             id="path12"
             inkscape:connector-curvature="0"
             style="fill:#1a476f" /><path
             class="st0"
             d="m 76.3,68 0,2.6 C 76.2,71 76.1,71.4 76,71.8 l 0,-2.6 c 0.1,-0.4 0.2,-0.8 0.3,-1.2"
             id="path14"
             inkscape:connector-curvature="0"
             style="fill:#1a476f" /><path
             class="st0"
             d="m 76,69.2 0,2.6 c -0.1,0.5 -0.3,0.9 -0.6,1.3 l 0,-2.6 c 0.3,-0.4 0.5,-0.9 0.6,-1.3"
             id="path16"
             inkscape:connector-curvature="0"
             style="fill:#1a476f" /></g><path
           class="st0"
           d="m 76.4,66.9 0,2.6 c 0,4.1 -3.4,7.5 -7.5,7.5 l 0,-2.6 c 4.1,0 7.5,-3.4 7.5,-7.5 z"
           id="path18"
           inkscape:connector-curvature="0"
           style="fill:#1a476f" /><g
           id="g20"><polygon
             class="st0"
             points="31.2,77 31.2,74.4 69.9,73.6 68.8,77 "
             id="polygon22"
             style="fill:#1a476f" /></g><path
           class="st0"
           d="m 31.2,74.4 0,2.6 C 27,77 23.7,73.6 23.7,69.5 l 0,-2.6 c -0.1,4.1 3.3,7.5 7.5,7.5 z"
           id="path24"
           inkscape:connector-curvature="0"
           style="fill:#1a476f" /><g
           id="g26"><path
             class="st1"
             d="m 68.8,22 c 4.2,0 7.5,3.3 7.5,7.5 l 0,38.4 c 0,4.1 -3.4,7.5 -7.5,7.5 l -37.6,0 C 27,75.4 23.7,72 23.7,67.9 l 0,-38.4 c 0,-4.1 3.4,-7.5 7.5,-7.5 l 37.6,0 0,0 z"
             id="path28"
             inkscape:connector-curvature="0"
             style="fill:#2d72b8" /></g></g></g><g
       transform="translate(-0.24804878,0)"
       id="g3393"><text
         style="font-size:14px;font-family:HelveticaNeueLTStd-BdCn;fill:#ffffff"
         id="text30"
         class="st2 st3 st4"
         x="30.387501"
         y="37.4044">O</text>
<text
         style="font-size:14px;font-family:HelveticaNeueLTStd-BdCn;fill:#ffffff"
         id="text32"
         class="st2 st3 st4"
         x="40.017464"
         y="37.4044">r</text>
<text
         style="font-size:14px;font-family:HelveticaNeueLTStd-BdCn;fill:#ffffff"
         id="text34"
         class="st2 st3 st4"
         x="45.600552"
         y="37.4044">a</text>
<text
         style="font-size:14px;font-family:HelveticaNeueLTStd-BdCn;fill:#ffffff"
         id="text36"
         class="st2 st3 st4"
         x="52.803757"
         y="37.4044">c</text>
<text
         style="font-size:14px;font-family:HelveticaNeueLTStd-BdCn;fill:#ffffff"
         id="text38"
         class="st2 st3 st4"
         x="66.745316"
         y="37.4044">l</text>
<text
         style="font-size:14px;font-family:HelveticaNeueLTStd-BdCn;fill:#ffffff"
         id="text40"
         class="st2 st3 st4"
         x="59.528446"
         y="37.4044">e</text>
</g></g><g
     id="nyt_x5F_exporter_x5F_info"
     class="st5" /></svg>