<?xml version="1.0" encoding="UTF-8" standalone="no"?>
<!-- Generator: Adobe Illustrator 19.1.0, SVG Export Plug-In . SVG Version: 6.00 Build 0)  -->

<svg
   xmlns:dc="http://purl.org/dc/elements/1.1/"
   xmlns:cc="http://creativecommons.org/ns#"
   xmlns:rdf="http://www.w3.org/1999/02/22-rdf-syntax-ns#"
   xmlns:svg="http://www.w3.org/2000/svg"
   xmlns="http://www.w3.org/2000/svg"
   xmlns:xlink="http://www.w3.org/1999/xlink"
   xmlns:sodipodi="http://sodipodi.sourceforge.net/DTD/sodipodi-0.dtd"
   xmlns:inkscape="http://www.inkscape.org/namespaces/inkscape"
   version="1.1"
   id="Layer_1"
   x="0px"
   y="0px"
   viewBox="0 0 100 100"
   style="enable-background:new 0 0 100 100;"
   xml:space="preserve"
   inkscape:version="0.91 r13725"
   sodipodi:docname="Database_AmazonRDS_MySQLDBInstance.svg"><metadata
     id="metadata102"><rdf:RDF><cc:Work
         rdf:about=""><dc:format>image/svg+xml</dc:format><dc:type
           rdf:resource="http://purl.org/dc/dcmitype/StillImage" /></cc:Work></rdf:RDF></metadata><defs
     id="defs100" /><sodipodi:namedview
     pagecolor="#ffffff"
     bordercolor="#666666"
     borderopacity="1"
     objecttolerance="10"
     gridtolerance="10"
     guidetolerance="10"
     inkscape:pageopacity="0"
     inkscape:pageshadow="2"
     inkscape:window-width="1600"
     inkscape:window-height="861"
     id="namedview98"
     showgrid="false"
     inkscape:zoom="9.8244395"
     inkscape:cx="54.415823"
     inkscape:cy="76.383551"
     inkscape:window-x="1280"
     inkscape:window-y="0"
     inkscape:window-maximized="1"
     inkscape:current-layer="Layer_1" /><style
     type="text/css"
     id="style3">
	.st0{fill:#1A476F;}
	.st1{clip-path:url(#SVGID_2_);enable-background:new    ;}
	.st2{fill:#2D72B8;}
	.st3{clip-path:url(#SVGID_4_);enable-background:new    ;}
	.st4{enable-background:new    ;}
	.st5{fill:#FFFFFF;}
	.st6{display:none;}
</style><g
     id="g8"
     transform="matrix(1.7857143,0,0,1.7857143,-39.285715,-38.392858)"><g
       id="g10"><g
         id="g12"><path
           id="SVGID_17_"
           class="st0"
           d="m 76.1,46.8 c -3.7,-1.2 -7.8,-1.4 -11.3,-1.4 -5.1,0 -11.5,1.2 -12.7,2.9 l 0,-2.4 c 0.5,-2.1 6.4,-3.9 11.7,-3.9 1.8,0 9.8,0.8 12.4,2.1"
           inkscape:connector-curvature="0"
           style="fill:#1a476f" /></g><g
         id="g15"><defs
           id="defs17"><path
             id="SVGID_1_"
             d="m 76.1,46.8 c -3.7,-1.2 -7.8,-1.4 -11.3,-1.4 -5.1,0 -11.5,1.2 -12.7,2.9 l 0,-2.4 c 0.5,-2.1 6.4,-3.9 11.7,-3.9 1.8,0 9.8,0.8 12.4,2.1"
             inkscape:connector-curvature="0" /></defs><clipPath
           id="SVGID_2_"><use
             xlink:href="#SVGID_1_"
             style="overflow:visible"
             id="use21"
             x="0"
             y="0"
             width="100%"
             height="100%" /></clipPath><g
           class="st1"
           id="g23"
           clip-path="url(#SVGID_2_)"
           style="enable-background:new"><path
             class="st0"
             d="m 52.3,45.5 0,2.6 c -0.1,0.1 -0.1,0.2 -0.1,0.3 l 0,-2.6 c 0,-0.1 0,-0.2 0.1,-0.3"
             id="path25"
             inkscape:connector-curvature="0"
             style="fill:#1a476f" /><path
             class="st0"
             d="m 52.1,45.8 0,2.6 0,0.1 0,-2.7 c 0,0.1 0,0 0,0"
             id="path27"
             inkscape:connector-curvature="0"
             style="fill:#1a476f" /></g></g></g><g
       id="g29"><path
         class="st2"
         d="m 65.6,48.8 c 2.2,0 4.1,0.2 5.6,0.4 3.3,0.5 5,1.5 5,2.1 0,0.6 -1.7,1.5 -5,2 -1.5,0.3 -3.4,0.4 -5.6,0.4 -6.9,0 -10.6,-1.6 -10.6,-2.5 -0.1,-0.8 3.7,-2.4 10.6,-2.4 z"
         id="path31"
         inkscape:connector-curvature="0"
         style="fill:#2d72b8" /></g><g
       id="g33"><g
         id="g35"><path
           id="SVGID_19_"
           class="st0"
           d="m 76.2,50.3 0,2.8 c 0,0.6 -1.7,1.5 -5,2 -1.5,0.3 -3.4,0.4 -5.6,0.4 C 58.7,55.5 55,53.9 55,53 l 0,-2.8 c 0,0.8 3.8,2.5 10.6,2.5 2.2,0 4.1,-0.2 5.6,-0.4 3.3,-0.5 5,-1.5 5,-2 z"
           inkscape:connector-curvature="0"
           style="fill:#1a476f" /></g><g
         id="g38"><defs
           id="defs40"><path
             id="SVGID_3_"
             d="m 76.2,50.3 0,2.8 c 0,0.6 -1.7,1.5 -5,2 -1.5,0.3 -3.4,0.4 -5.6,0.4 C 58.7,55.5 55,53.9 55,53 l 0,-2.8 c 0,0.8 3.8,2.5 10.6,2.5 2.2,0 4.1,-0.2 5.6,-0.4 3.3,-0.5 5,-1.5 5,-2 z"
             inkscape:connector-curvature="0" /></defs><clipPath
           id="SVGID_4_"><use
             xlink:href="#SVGID_3_"
             style="overflow:visible"
             id="use44"
             x="0"
             y="0"
             width="100%"
             height="100%" /></clipPath><g
           class="st3"
           id="g46"
           clip-path="url(#SVGID_4_)"
           style="enable-background:new"><path
             class="st0"
             d="m 76.2,50.3 0,2.8 0,0 0,-2.8 0,0"
             id="path48"
             inkscape:connector-curvature="0"
             style="fill:#1a476f" /><path
             class="st0"
             d="m 76.2,50.3 0,2.8 c 0,0 0,0 0,0.1 l 0,-2.9 0,0"
             id="path50"
             inkscape:connector-curvature="0"
             style="fill:#1a476f" /><path
             class="st0"
             d="m 76.2,50.4 0,2.8 0,0.1 0,-2.9 0,0"
             id="path52"
             inkscape:connector-curvature="0"
             style="fill:#1a476f" /><path
             class="st0"
             d="m 76.2,50.4 0,2.8 c -0.3,0.6 -2,1.4 -5,1.9 -1.5,0.3 -3.4,0.4 -5.6,0.4 C 58.7,55.5 55,53.9 55,53 l 0,-2.8 c 0,0.8 3.8,2.5 10.6,2.5 2.2,0 4.1,-0.2 5.6,-0.4 2.9,-0.5 4.7,-1.3 5,-1.9"
             id="path54"
             inkscape:connector-curvature="0"
             style="fill:#1a476f" /></g></g></g><g
       id="g56"><g
         class="st4"
         id="g58"
         style="enable-background:new"><path
           class="st0"
           d="m 76.4,72.2 0,2.8 c 0,0 0,0 0,0.1 l 0,-2.9 0,0"
           id="path60"
           inkscape:connector-curvature="0"
           style="fill:#1a476f" /><path
           class="st0"
           d="m 76.4,72.3 0,2.8 c 0,0 0,0 0,0.1 l 0,-2.9 0,0"
           id="path62"
           inkscape:connector-curvature="0"
           style="fill:#1a476f" /><path
           class="st0"
           d="m 76.4,72.3 0,2.8 c 0,0 0,0.1 -0.1,0.1 l 0.1,-2.9 c 0,0.1 0,0.1 0,0"
           id="path64"
           inkscape:connector-curvature="0"
           style="fill:#1a476f" /></g><path
         class="st0"
         d="m 66.3,74.6 c -3.9,0 -6.9,-0.4 -9,-1 l 0,-1.1 C 56,71.9 55,71.1 54.9,70.6 l 0,4.6 c 0.2,0.3 0.7,0.7 2.3,1.2 l 0,0 c 2.1,0.7 5.1,1.1 9,1.1 7.2,0 10.1,-1.6 10.1,-2.5 l 0,-2.8 c 0.1,0.9 -2.8,2.4 -10,2.4 z"
         id="path66"
         inkscape:connector-curvature="0"
         style="fill:#1a476f" /></g><g
       id="g68"><g
         id="g70"><path
           id="SVGID_21_"
           class="st0"
           d="m 27.8,73.5 0,2.6 c -2.2,0 -4,-1.8 -4,-4 l -0.1,-2.5 c -0.1,2.1 1.8,3.9 4.1,3.9 z"
           inkscape:connector-curvature="0"
           style="fill:#1a476f" /></g></g><g
       id="g73"><polygon
         class="st0"
         points="27.2,72.7 53.6,73.5 53.6,76.1 27.8,76.1 "
         id="polygon75"
         style="fill:#1a476f" /></g><g
       id="g77"><path
         class="st2"
         d="M 76.1,45.5 C 72.3,44.2 66,44.1 64.3,44.1 59.1,44.2 53.1,45.4 52.1,46.9 l 0,0.3 0,1 0,24.8 c 0,0.5 1,1.1 1.5,1.4 l -26,0 c -2.2,0 -4,-1.8 -4,-4 l 0,-44.9 c 0,-2.2 1.8,-4 4,-4 l 44.7,0 c 2.2,0 4,1.8 4,4"
         id="path79"
         inkscape:connector-curvature="0"
         style="fill:#2d72b8" /></g><g
       id="g81"><path
         class="st2"
         d="m 76.4,56.1 0,17.1 c 0,0.9 -3,2.5 -10.1,2.5 -3.9,0 -6.9,-0.5 -8.8,-1 -1.4,-0.5 -2.4,-1 -2.5,-1.4 l 0,-17 c 2.1,1.3 6.4,2 10.6,2 l 0.3,0 c 0.4,0 0.9,0 1.3,0 l 0.2,0 c 0.4,0 0.7,0 1.1,-0.1 0.2,0 0.4,0 0.5,0 0.3,0 0.6,0 0.8,-0.1 0.2,0 0.3,0 0.5,-0.1 0.3,0 0.6,-0.1 0.9,-0.1 2.3,-0.5 4.1,-1.1 5.2,-1.8 z"
         id="path83"
         inkscape:connector-curvature="0"
         style="fill:#2d72b8" /></g></g><text
     xml:space="preserve"
     style="font-style:normal;font-variant:normal;font-weight:bold;font-stretch:normal;font-size:20.19298744px;line-height:125%;font-family:Sans;-inkscape-font-specification:'Sans, Bold';text-align:start;letter-spacing:0px;word-spacing:0px;writing-mode:lr-tb;text-anchor:start;fill:#ffffff;fill-opacity:1;stroke:none;stroke-width:1px;stroke-linecap:butt;stroke-linejoin:miter;stroke-opacity:1;"
     x="16.747013"
     y="23.975628"
     id="text4281"
     sodipodi:linespacing="125%"
     transform="scale(0.88492981,1.1300331)"><tspan
       sodipodi:role="line"
       id="tspan4283"
       x="16.747013"
       y="23.975628">MySQL</tspan></text>
<polygon
     class="st5"
     points="62.2,62.5 64.8,73.1 66.5,73.1 69.1,62.5 69.2,62.5 69.2,73.1 71.1,73.1 71.1,60.3 68,60.3 65.7,69.8 65.7,69.8 63.4,60.3 60.2,60.3 60.2,73.1 62.1,73.1 62.1,62.5 "
     id="polygon95"
     style="fill:#ffffff"
     transform="matrix(1.7857143,0,0,1.7857143,-39.285715,-38.392858)" /><g
     id="nyt_x5F_exporter_x5F_info"
     class="st6" /></svg>