<?xml version="1.0" encoding="UTF-8" standalone="no"?>
<!-- Generator: Adobe Illustrator 19.1.0, SVG Export Plug-In . SVG Version: 6.00 Build 0)  -->

<svg
   xmlns:dc="http://purl.org/dc/elements/1.1/"
   xmlns:cc="http://creativecommons.org/ns#"
   xmlns:rdf="http://www.w3.org/1999/02/22-rdf-syntax-ns#"
   xmlns:svg="http://www.w3.org/2000/svg"
   xmlns="http://www.w3.org/2000/svg"
   xmlns:sodipodi="http://sodipodi.sourceforge.net/DTD/sodipodi-0.dtd"
   xmlns:inkscape="http://www.inkscape.org/namespaces/inkscape"
   version="1.1"
   id="Layer_1"
   x="0px"
   y="0px"
   viewBox="0 0 100 100"
   style="enable-background:new 0 0 100 100;"
   xml:space="preserve"
   inkscape:version="0.91 r13725"
   sodipodi:docname="Database_AmazonRDS_PIOP.svg"><metadata
     id="metadata21"><rdf:RDF><cc:Work
         rdf:about=""><dc:format>image/svg+xml</dc:format><dc:type
           rdf:resource="http://purl.org/dc/dcmitype/StillImage" /></cc:Work></rdf:RDF></metadata><defs
     id="defs19" /><sodipodi:namedview
     pagecolor="#ffffff"
     bordercolor="#666666"
     borderopacity="1"
     objecttolerance="10"
     gridtolerance="10"
     guidetolerance="10"
     inkscape:pageopacity="0"
     inkscape:pageshadow="2"
     inkscape:window-width="1280"
     inkscape:window-height="985"
     id="namedview17"
     showgrid="false"
     inkscape:zoom="7.4579687"
     inkscape:cx="50.26817"
     inkscape:cy="50"
     inkscape:window-x="0"
     inkscape:window-y="0"
     inkscape:window-maximized="1"
     inkscape:current-layer="Layer_1" /><style
     type="text/css"
     id="style3">
	.st0{fill:#1A476F;}
	.st1{fill:#2D72B8;}
	.st2{fill:#FFFFFF;stroke:#19486F;stroke-miterlimit:10;}
	.st3{font-family:'HelveticaNeueLTStd-BdCn';}
	.st4{font-size:11px;}
	.st5{display:none;}
</style><g
     id="g3359"
     transform="matrix(1.8518519,0,0,1.8518519,-42.592595,-41.666669)"><path
       class="st0"
       d="m 23.6,70.5 c 0,0 -0.8,6 4,6 4.8,0 44.9,0 44.9,0 0,0 3.7,-0.8 4,-5.4 L 23.6,70.5 Z"
       id="path6"
       inkscape:connector-curvature="0"
       style="fill:#1a476f" /><path
       class="st1"
       d="m 76.5,71.5 c 0,2.2 -1.8,4 -4,4 l -45,0 c -2.2,0 -4,-1.8 -4,-4 l 0,-45 c 0,-2.2 1.8,-4 4,-4 l 45,0 c 2.2,0 4,1.8 4,4 l 0,45 z"
       id="path8"
       inkscape:connector-curvature="0"
       style="fill:#2d72b8" /><g
       id="g3354"><g
         id="g10"><path
           style="fill:#ffffff;stroke:#19486f;stroke-miterlimit:10"
           inkscape:connector-curvature="0"
           id="path12"
           d="m 73,67 c 0,2.2 -1.8,4 -4,4 l -19,0 c -2.2,0 -4,-1.8 -4,-4 l 0,-6 c 0,-2.2 1.8,-4 4,-4 l 19,0 c 2.2,0 4,1.8 4,4 l 0,6 z"
           class="st2" /></g><text
         style="font-size:11px;font-family:HelveticaNeueLTStd-BdCn;fill:#2d72b8"
         id="text14"
         class="st1 st3 st4"
         x="46.561035"
         y="68.190399">PIOP</text>
</g></g><g
     id="nyt_x5F_exporter_x5F_info"
     class="st5" /></svg>