<?xml version="1.0" encoding="UTF-8" standalone="no"?>
<svg
   xmlns:dc="http://purl.org/dc/elements/1.1/"
   xmlns:cc="http://creativecommons.org/ns#"
   xmlns:rdf="http://www.w3.org/1999/02/22-rdf-syntax-ns#"
   xmlns:svg="http://www.w3.org/2000/svg"
   xmlns="http://www.w3.org/2000/svg"
   xmlns:sodipodi="http://sodipodi.sourceforge.net/DTD/sodipodi-0.dtd"
   xmlns:inkscape="http://www.inkscape.org/namespaces/inkscape"
   version="1.0"
   width="29mm"
   height="29mm"
   id="svg2"
   inkscape:version="0.91 r13725"
   viewBox="0 0 29 29"
   sodipodi:docname="Database_AmazonRDS_PIOP.svg">
  <metadata
     id="metadata23">
    <rdf:RDF>
      <cc:Work
         rdf:about="">
        <dc:format>image/svg+xml</dc:format>
        <dc:type
           rdf:resource="http://purl.org/dc/dcmitype/StillImage" />
        <dc:title></dc:title>
      </cc:Work>
    </rdf:RDF>
  </metadata>
  <sodipodi:namedview
     pagecolor="#ffffff"
     bordercolor="#666666"
     borderopacity="1"
     objecttolerance="10"
     gridtolerance="10"
     guidetolerance="10"
     inkscape:pageopacity="0"
     inkscape:pageshadow="2"
     inkscape:window-width="1280"
     inkscape:window-height="958"
     id="namedview21"
     inkscape:document-units="mm"
     showgrid="false"
     inkscape:zoom="6.9077819"
     inkscape:cx="51.667481"
     inkscape:cy="50.50714"
     inkscape:window-x="0"
     inkscape:window-y="27"
     inkscape:window-maximized="1"
     inkscape:current-layer="svg2" />
  <defs
     id="defs4">
    <pattern
       id="EMFhbasepattern"
       patternUnits="userSpaceOnUse"
       width="6"
       height="6"
       x="0"
       y="0" />
  </defs>
  <path
     style="fill:#1a476f;fill-opacity:1;fill-rule:nonzero;stroke:none"
     d="m 0.31749718,25.082302 c 0,0 -0.42332967,3.132667 2.09548592,3.132667 l 23.4524859,0 c 0,0 1.947333,-0.402167 2.0955,-2.815167 l -27.64347182,-0.3175 z"
     id="path7"
     inkscape:connector-curvature="0" />
  <path
     style="fill:#2d72b8;fill-opacity:1;fill-rule:nonzero;stroke:none"
     d="m 27.960969,25.611469 c 0,1.143 -0.931333,2.0955 -2.0955,2.0955 l -23.5159859,0 c -1.1429916,0 -2.09548508,-0.9525 -2.09548508,-2.0955 l 0,-23.5159831 C 0.25399802,0.93132769 1.2064915,0 2.3494831,0 L 25.865469,0 c 1.164167,0 2.0955,0.93132769 2.0955,2.0954859 l 0,23.5159831 z"
     id="path9"
     inkscape:connector-curvature="0" />
  <path
     style="fill:#ffffff;fill-opacity:1;fill-rule:nonzero;stroke:none;stroke-width:0.28222222;stroke-linecap:butt;stroke-linejoin:miter;stroke-miterlimit:10;stroke-dasharray:none;stroke-opacity:1"
     d="m 26.09111,23.331735 c 0,1.143 -0.9525,2.095472 -2.095472,2.095472 l -9.92711,0 c -1.164139,0 -2.095472,-0.952472 -2.095472,-2.095472 l 0,-3.132638 c 0,-1.164167 0.931333,-2.0955 2.095472,-2.0955 l 9.92711,0 c 1.142972,0 2.095472,0.931333 2.095472,2.0955 l 0,3.132638 z"
     id="path11"
     inkscape:connector-curvature="0" />
  <text
     xml:space="preserve"
     style="font-style:normal;font-variant:normal;font-weight:bold;font-stretch:normal;font-size:5.21480131px;line-height:125%;font-family:Sans;-inkscape-font-specification:'Sans, Bold';text-align:start;letter-spacing:0px;word-spacing:0px;writing-mode:lr-tb;text-anchor:start;fill:#2d72b8;fill-opacity:1;stroke:none;stroke-width:1px;stroke-linecap:butt;stroke-linejoin:miter;stroke-opacity:1;"
     x="13.471215"
     y="21.995058"
     id="text4217"
     sodipodi:linespacing="125%"
     transform="scale(0.92333692,1.0830283)"><tspan
       sodipodi:role="line"
       id="tspan4219"
       x="13.471215"
       y="21.995058">PIOP</tspan></text>
</svg>
