<?xml version="1.0" encoding="UTF-8" standalone="no"?>
<!-- Generator: Adobe Illustrator 19.1.0, SVG Export Plug-In . SVG Version: 6.00 Build 0)  -->

<svg
   xmlns:dc="http://purl.org/dc/elements/1.1/"
   xmlns:cc="http://creativecommons.org/ns#"
   xmlns:rdf="http://www.w3.org/1999/02/22-rdf-syntax-ns#"
   xmlns:svg="http://www.w3.org/2000/svg"
   xmlns="http://www.w3.org/2000/svg"
   xmlns:sodipodi="http://sodipodi.sourceforge.net/DTD/sodipodi-0.dtd"
   xmlns:inkscape="http://www.inkscape.org/namespaces/inkscape"
   version="1.1"
   id="Layer_1"
   x="0px"
   y="0px"
   viewBox="0 0 100 100"
   style="enable-background:new 0 0 100 100;"
   xml:space="preserve"
   inkscape:version="0.91 r13725"
   sodipodi:docname="Database_AmazonRDS_MSInstance-2.svg"><metadata
     id="metadata37"><rdf:RDF><cc:Work
         rdf:about=""><dc:format>image/svg+xml</dc:format><dc:type
           rdf:resource="http://purl.org/dc/dcmitype/StillImage" /></cc:Work></rdf:RDF></metadata><defs
     id="defs35" /><sodipodi:namedview
     pagecolor="#ffffff"
     bordercolor="#666666"
     borderopacity="1"
     objecttolerance="10"
     gridtolerance="10"
     guidetolerance="10"
     inkscape:pageopacity="0"
     inkscape:pageshadow="2"
     inkscape:window-width="1600"
     inkscape:window-height="834"
     id="namedview33"
     showgrid="false"
     inkscape:zoom="2.3592997"
     inkscape:cx="-9.0812746"
     inkscape:cy="8.8071852"
     inkscape:window-x="1280"
     inkscape:window-y="27"
     inkscape:window-maximized="1"
     inkscape:current-layer="Layer_1" /><style
     type="text/css"
     id="style3">
	.st0{fill:#1A476F;}
	.st1{fill:#2D72B8;}
	.st2{fill:#FFFFFF;}
	.st3{font-family:'HelveticaNeueLTStd-BdCn';}
	.st4{font-size:14px;}
	.st5{display:none;}
</style><g
     id="nyt_x5F_exporter_x5F_info"
     class="st5" /><g
     id="g3377"><path
       style="fill:#1a476f"
       inkscape:connector-curvature="0"
       id="path12"
       d="m 97.911046,81.636363 0,4.727273 c 0,0.727273 0,1.272727 -0.181819,2 l 0,-4.727273 c 0,-0.727272 0.181819,-1.454545 0.181819,-2"
       class="st0" /><path
       style="fill:#1a476f"
       inkscape:connector-curvature="0"
       id="path14"
       d="m 97.729227,83.636363 0,4.727273 c -0.181818,0.727273 -0.363636,1.454546 -0.545454,2.181818 l 0,-4.727272 c 0.181818,-0.727273 0.363636,-1.454546 0.545454,-2.181819"
       class="st0" /><path
       style="fill:#1a476f"
       inkscape:connector-curvature="0"
       id="path16"
       d="m 97.183773,85.818182 0,4.727272 c -0.181818,0.909091 -0.545455,1.636364 -1.090909,2.363637 l 0,-4.727273 c 0.545454,-0.727273 0.909091,-1.636364 1.090909,-2.363636"
       class="st0" /><path
       class="st0"
       d="m 97.911046,81.636363 0,4.727273 C 97.911046,93.818181 91.729227,100 84.274682,100 l 0,-4.727273 c 7.454545,0 13.636364,-6.181818 13.636364,-13.636364 z"
       id="path18"
       inkscape:connector-curvature="0"
       style="fill:#1a476f" /><polygon
       transform="matrix(1.8181818,0,0,1.8181818,-40.998044,-39.999999)"
       style="fill:#1a476f"
       id="polygon22"
       points="31.2,74.4 69.9,73.6 68.8,77 31.2,77 "
       class="st0" /><path
       class="st0"
       d="m 15.729228,95.272727 0,4.727273 C 8.0928646,100 2.0928647,93.818181 2.0928647,86.363636 l 0,-4.727273 C 1.9110465,89.090909 8.0928646,95.272727 15.729228,95.272727 Z"
       id="path24"
       inkscape:connector-curvature="0"
       style="fill:#1a476f" /><path
       style="fill:#2d72b8"
       inkscape:connector-curvature="0"
       id="path28"
       d="m 84.092864,6e-7 c 7.636363,0 13.636363,5.9999999 13.636363,13.6363634 l 0,69.818181 c 0,7.454546 -6.181818,13.636364 -13.636363,13.636364 l -68.363636,0 c -7.6363634,0 -13.6363633,-6.181818 -13.6363633,-13.636364 l 0,-69.818181 C 2.0928647,6.1818187 8.2746828,6.0000001e-7 15.729228,6.0000001e-7 l 68.363636,0 z"
       class="st1" /><g
       transform="matrix(1.7921147,0,0,1.7921147,-40.053764,-33.014255)"
       id="g113"><path
         style="fill:#ffffff"
         inkscape:connector-curvature="0"
         id="path115"
         d="m 30.4,26.4 2.9,0 1.4,6.7 0,0 1.4,-6.7 2.9,0 0,9.6 -1.8,0 0,-7.6 0,0 -1.8,7.6 -1.5,0 -1.7,-7.6 0,0 0,7.6 -1.8,0 c 0,0 0,-9.6 0,-9.6 z"
         class="st6" /><path
         style="fill:#ffffff"
         inkscape:connector-curvature="0"
         id="path117"
         d="m 41.8,33 0,0.3 c 0,0.9 0.3,1.5 1.3,1.5 0.6,0 1.2,-0.4 1.2,-1.2 0,-0.9 -0.4,-1.2 -1.7,-1.6 -1.7,-0.6 -2.5,-1.3 -2.5,-2.9 0,-1.9 1.1,-2.8 3,-2.8 1.7,0 3,0.7 3,2.6 l 0,0.3 -1.8,0 c 0,-0.9 -0.3,-1.4 -1,-1.4 -0.9,0 -1.1,0.5 -1.1,1.1 0,0.6 0.2,1 1,1.3 l 1.5,0.6 c 1.4,0.6 1.8,1.4 1.8,2.5 0,2 -1.2,2.9 -3.3,2.9 -2.2,0 -3,-1 -3,-2.8 l 0,-0.4 1.6,0 z"
         class="st6" /><path
         style="fill:#ffffff"
         inkscape:connector-curvature="0"
         id="path119"
         d="m 52,33 0,0.3 c 0,0.9 0.3,1.5 1.3,1.5 0.6,0 1.2,-0.4 1.2,-1.2 0,-0.9 -0.4,-1.2 -1.7,-1.6 -1.7,-0.6 -2.5,-1.3 -2.5,-2.9 0,-1.9 1.1,-2.8 3,-2.8 1.7,0 3,0.7 3,2.6 l 0,0.3 -1.8,0 c 0,-0.9 -0.3,-1.4 -1,-1.4 -0.9,0 -1.1,0.5 -1.1,1.1 0,0.6 0.2,1 1,1.3 l 1.5,0.6 c 1.4,0.6 1.8,1.4 1.8,2.5 0,2 -1.2,2.9 -3.3,2.9 -2.2,0 -3,-1 -3,-2.8 l 0,-0.4 1.6,0 z"
         class="st6" /><path
         style="fill:#ffffff"
         inkscape:connector-curvature="0"
         id="path121"
         d="M 62.8,37.2 61.7,36 c -0.2,0.1 -0.4,0.1 -0.6,0.1 -0.2,0 -0.4,0 -0.7,0 -2.9,0 -3.3,-2.1 -3.3,-5 0,-2.9 0.4,-5 3.3,-5 2.9,0 3.3,2.1 3.3,5 0,1.6 -0.1,3 -0.7,3.9 l 1,1 -1.2,1.2 z m -2.4,-2.4 c 1.1,0 1.3,-1 1.3,-3.5 0,-2.6 -0.2,-3.5 -1.3,-3.5 -1.1,0 -1.3,1 -1.3,3.5 0,2.5 0.2,3.5 1.3,3.5 z"
         class="st6" /><path
         style="fill:#ffffff"
         inkscape:connector-curvature="0"
         id="path123"
         d="m 64.8,36 0,-9.6 1.9,0 0,8 3.4,0 0,1.6 -5.3,0 z"
         class="st6" /></g></g></svg>