<?xml version="1.0" encoding="UTF-8" standalone="no"?>
<!-- Generator: Adobe Illustrator 19.1.0, SVG Export Plug-In . SVG Version: 6.00 Build 0)  -->

<svg
   xmlns:dc="http://purl.org/dc/elements/1.1/"
   xmlns:cc="http://creativecommons.org/ns#"
   xmlns:rdf="http://www.w3.org/1999/02/22-rdf-syntax-ns#"
   xmlns:svg="http://www.w3.org/2000/svg"
   xmlns="http://www.w3.org/2000/svg"
   xmlns:xlink="http://www.w3.org/1999/xlink"
   xmlns:sodipodi="http://sodipodi.sourceforge.net/DTD/sodipodi-0.dtd"
   xmlns:inkscape="http://www.inkscape.org/namespaces/inkscape"
   version="1.1"
   id="Layer_1"
   x="0px"
   y="0px"
   viewBox="0 0 100 100"
   style="enable-background:new 0 0 100 100;"
   xml:space="preserve"
   inkscape:version="0.91 r13725"
   sodipodi:docname="Database_AmazonRDS_InstanceReadReplica.svg"><metadata
     id="metadata80"><rdf:RDF><cc:Work
         rdf:about=""><dc:format>image/svg+xml</dc:format><dc:type
           rdf:resource="http://purl.org/dc/dcmitype/StillImage" /></cc:Work></rdf:RDF></metadata><defs
     id="defs78" /><sodipodi:namedview
     pagecolor="#ffffff"
     bordercolor="#666666"
     borderopacity="1"
     objecttolerance="10"
     gridtolerance="10"
     guidetolerance="10"
     inkscape:pageopacity="0"
     inkscape:pageshadow="2"
     inkscape:window-width="1280"
     inkscape:window-height="985"
     id="namedview76"
     showgrid="false"
     inkscape:zoom="7.4579687"
     inkscape:cx="50.26817"
     inkscape:cy="50"
     inkscape:window-x="0"
     inkscape:window-y="0"
     inkscape:window-maximized="1"
     inkscape:current-layer="Layer_1" /><style
     type="text/css"
     id="style3">
	.st0{enable-background:new    ;}
	.st1{fill:#2D72B8;}
	.st2{fill:#1A476F;}
	.st3{clip-path:url(#SVGID_2_);enable-background:new    ;}
	.st4{clip-path:url(#SVGID_4_);enable-background:new    ;}
	.st5{fill:#FFFFFF;}
	.st6{display:none;}
</style><g
     id="Layer_1_1_"
     transform="matrix(1.7857143,0,0,1.7857143,-39.196429,-38.392858)"><g
       id="g6"><g
         id="g8"><g
           id="g10"><g
             class="st0"
             id="g12"
             style="enable-background:new"><g
               id="g14"><path
                 class="st1"
                 d="m 50,21.5 c 4.5,0 8.3,0.4 11.4,0.9 6.7,1.2 10.3,3.3 10.3,4.6 0,1.3 -3.6,3.4 -10.3,4.6 -3.1,0.6 -7,0.9 -11.4,0.9 -14.1,0 -21.7,-3.6 -21.7,-5.5 0,-1.8 7.6,-5.5 21.7,-5.5 z"
                 id="path16"
                 inkscape:connector-curvature="0"
                 style="fill:#2d72b8" /></g><g
               class="st0"
               id="g18"
               style="enable-background:new"><g
                 id="g20"><path
                   id="SVGID_11_"
                   class="st2"
                   d="m 71.7,26 0,2.8 c 0,1.3 -3.6,3.4 -10.3,4.6 -3.1,0.6 -7,0.9 -11.4,0.9 -14.1,0 -21.7,-3.6 -21.7,-5.5 l 0,-2.8 c 0,1.9 7.7,5.5 21.7,5.5 4.5,0 8.3,-0.4 11.4,-0.9 6.8,-1.2 10.3,-3.3 10.3,-4.6 z"
                   inkscape:connector-curvature="0"
                   style="fill:#1a476f" /></g><g
                 id="g23"><defs
                   id="defs25"><path
                     id="SVGID_1_"
                     d="m 71.7,26 0,2.8 c 0,1.3 -3.6,3.4 -10.3,4.6 -3.1,0.6 -7,0.9 -11.4,0.9 -14.1,0 -21.7,-3.6 -21.7,-5.5 l 0,-2.8 c 0,1.9 7.7,5.5 21.7,5.5 4.5,0 8.3,-0.4 11.4,-0.9 6.8,-1.2 10.3,-3.3 10.3,-4.6 z"
                     inkscape:connector-curvature="0" /></defs><clipPath
                   id="SVGID_2_"><use
                     xlink:href="#SVGID_1_"
                     style="overflow:visible"
                     id="use29"
                     x="0"
                     y="0"
                     width="100%"
                     height="100%" /></clipPath><g
                   class="st3"
                   id="g31"
                   clip-path="url(#SVGID_2_)"
                   style="enable-background:new"><path
                     class="st2"
                     d="m 71.7,26 0,2.8 0,0.1 0,-2.8 c 0,0 0,0 0,-0.1"
                     id="path33"
                     inkscape:connector-curvature="0"
                     style="fill:#1a476f" /><path
                     class="st2"
                     d="m 71.7,26.2 0,2.8 c 0,0.1 0,0.1 0,0.2 l 0,-2.8 c 0,-0.1 0,-0.2 0,-0.2"
                     id="path35"
                     inkscape:connector-curvature="0"
                     style="fill:#1a476f" /><path
                     class="st2"
                     d="m 71.7,26.3 0,2.8 c 0,0.1 -0.1,0.2 -0.1,0.2 l 0,-2.8 c 0,0 0.1,-0.1 0.1,-0.2"
                     id="path37"
                     inkscape:connector-curvature="0"
                     style="fill:#1a476f" /><path
                     class="st2"
                     d="m 71.6,26.5 0,2.8 c -0.8,1.3 -4.2,3 -10.1,4.1 -3.1,0.6 -7,0.9 -11.4,0.9 -14.1,0 -21.7,-3.6 -21.7,-5.5 l 0,-2.8 c 0,1.9 7.7,5.5 21.7,5.5 4.5,0 8.3,-0.4 11.4,-0.9 5.8,-1.1 9.3,-2.8 10.1,-4.1"
                     id="path39"
                     inkscape:connector-curvature="0"
                     style="fill:#1a476f" /></g></g></g><g
               class="st0"
               id="g41"
               style="enable-background:new"><g
                 id="g43"><path
                   id="SVGID_13_"
                   class="st2"
                   d="m 33.5,72.4 0,2.8 c -2.9,-1 -5,-2.2 -5.2,-3 l 0,-2.8 c 0.2,0.9 2.3,2 5.2,3 z"
                   inkscape:connector-curvature="0"
                   style="fill:#1a476f" /></g></g><g
               class="st0"
               id="g46"
               style="enable-background:new"><g
                 id="g48"><path
                   id="SVGID_15_"
                   class="st2"
                   d="m 71.7,69.2 0,2.8 c 0,1.9 -6,5.5 -20.5,5.5 -7.9,0 -13.9,-1 -17.8,-2.3 L 33,71.8 c 3.9,1.2 10.2,2.8 18.1,2.8 14.6,0.1 20.6,-3.5 20.6,-5.4 z"
                   inkscape:connector-curvature="0"
                   style="fill:#1a476f" /></g><g
                 id="g51"><defs
                   id="defs53"><path
                     id="SVGID_3_"
                     d="m 71.7,69.2 0,2.8 c 0,1.9 -6,5.5 -20.5,5.5 -7.9,0 -13.9,-1 -17.8,-2.3 L 33,71.8 c 3.9,1.2 10.2,2.8 18.1,2.8 14.6,0.1 20.6,-3.5 20.6,-5.4 z"
                     inkscape:connector-curvature="0" /></defs><clipPath
                   id="SVGID_4_"><use
                     xlink:href="#SVGID_3_"
                     style="overflow:visible"
                     id="use57"
                     x="0"
                     y="0"
                     width="100%"
                     height="100%" /></clipPath><g
                   class="st4"
                   id="g59"
                   clip-path="url(#SVGID_4_)"
                   style="enable-background:new"><path
                     class="st2"
                     d="m 71.7,69.2 0,2.8 c 0,0 0,0.1 0,0.2 l 0,-2.8 c 0,-0.1 0,-0.1 0,-0.2"
                     id="path61"
                     inkscape:connector-curvature="0"
                     style="fill:#1a476f" /><path
                     class="st2"
                     d="m 71.7,69.4 0,2.8 c 0,0.1 0,0.1 -0.1,0.2 l 0,-2.8 c 0.1,-0.1 0.1,-0.2 0.1,-0.2"
                     id="path63"
                     inkscape:connector-curvature="0"
                     style="fill:#1a476f" /><path
                     class="st2"
                     d="m 71.7,69.6 0,2.8 c 0,0.1 -0.1,0.2 -0.1,0.3 l 0,-2.8 c 0,-0.1 0,-0.2 0.1,-0.3"
                     id="path65"
                     inkscape:connector-curvature="0"
                     style="fill:#1a476f" /><path
                     class="st2"
                     d="m 71.5,69.9 0,2.8 c -1.2,2 -7.3,4.8 -20.3,4.8 -7.9,0 -13.9,-1 -17.8,-2.3 l -1.1,-3.7 c 3.9,1.2 11,3.1 18.9,3.1 13,0.1 19.2,-2.8 20.3,-4.7"
                     id="path67"
                     inkscape:connector-curvature="0"
                     style="fill:#1a476f" /></g></g></g></g></g><path
           class="st1"
           d="m 61.1,36.1 c -0.6,0.1 -1.2,0.2 -1.8,0.3 -0.3,0 -0.6,0.1 -0.9,0.1 -0.6,0.1 -1.1,0.1 -1.7,0.2 -0.4,0 -0.7,0.1 -1.1,0.1 -0.7,0.1 -1.5,0.1 -2.2,0.1 l -0.4,0 c -0.9,0 -1.7,0.1 -2.7,0.1 -0.2,0 -0.4,0 -0.6,0 -8.6,0 -17.3,-1.5 -21.5,-4.4 l 0,37.8 c 0.2,0.9 2.3,2 5.2,3 3.9,1.2 9.9,2.3 17.8,2.3 14.5,0 20.5,-3.6 20.5,-5.5 l 0,-37.9 c -2.2,1.6 -5.9,2.9 -10.6,3.8 z"
           id="path69"
           inkscape:connector-curvature="0"
           style="fill:#2d72b8" /></g><g
         id="g71"><path
           class="st5"
           d="m 39.2,42.5 13.5,0 c 4.5,0 7.3,3.1 7.3,6.9 0,2.9 -1.2,5.1 -4,6.2 l 0,0.1 c 2.7,0.7 3.5,3.3 3.6,5.8 0.1,1.6 0.1,4.5 1,5.9 l -5.5,0 c -0.7,-1.6 -0.6,-4 -0.9,-5.9 -0.4,-2.6 -1.4,-3.8 -4.2,-3.8 l -5.5,0 0,9.7 -5.5,0 0,-24.9 0.2,0 z m 5.5,11.2 6,0 c 2.4,0 3.8,-1 3.8,-3.6 0,-2.4 -1.3,-3.4 -3.8,-3.4 l -6,0 0,7 z"
           id="path73"
           inkscape:connector-curvature="0"
           style="fill:#ffffff" /></g></g></g><g
     id="nyt_x5F_exporter_x5F_info"
     class="st6" /></svg>