<?xml version="1.0" encoding="UTF-8" standalone="no"?>
<!-- Generator: Adobe Illustrator 19.1.0, SVG Export Plug-In . SVG Version: 6.00 Build 0)  -->

<svg
   xmlns:dc="http://purl.org/dc/elements/1.1/"
   xmlns:cc="http://creativecommons.org/ns#"
   xmlns:rdf="http://www.w3.org/1999/02/22-rdf-syntax-ns#"
   xmlns:svg="http://www.w3.org/2000/svg"
   xmlns="http://www.w3.org/2000/svg"
   xmlns:sodipodi="http://sodipodi.sourceforge.net/DTD/sodipodi-0.dtd"
   xmlns:inkscape="http://www.inkscape.org/namespaces/inkscape"
   version="1.1"
   id="Layer_1"
   x="0px"
   y="0px"
   viewBox="0 0 100 100"
   style="enable-background:new 0 0 100 100;"
   xml:space="preserve"
   inkscape:version="0.91 r13725"
   sodipodi:docname="Database_AmazonRDS.svg"><metadata
     id="metadata41"><rdf:RDF><cc:Work
         rdf:about=""><dc:format>image/svg+xml</dc:format><dc:type
           rdf:resource="http://purl.org/dc/dcmitype/StillImage" /></cc:Work></rdf:RDF></metadata><defs
     id="defs39" /><sodipodi:namedview
     pagecolor="#ffffff"
     bordercolor="#666666"
     borderopacity="1"
     objecttolerance="10"
     gridtolerance="10"
     guidetolerance="10"
     inkscape:pageopacity="0"
     inkscape:pageshadow="2"
     inkscape:window-width="1280"
     inkscape:window-height="985"
     id="namedview37"
     showgrid="false"
     inkscape:zoom="7.4579687"
     inkscape:cx="55.89627"
     inkscape:cy="60.133508"
     inkscape:window-x="0"
     inkscape:window-y="0"
     inkscape:window-maximized="1"
     inkscape:current-layer="Layer_1" /><style
     type="text/css"
     id="style3">
	.st0{fill:#1A476F;}
	.st1{fill:#205B98;}
	.st2{fill:#2D72B8;}
	.st3{fill:#5294CF;}
	.st4{display:none;}
	.st5{display:inline;}
	.st6{font-family:'MyriadPro-Regular';}
	.st7{font-size:12px;}
</style><g
     id="g3380"
     transform="matrix(1.3888889,0,0,1.3888889,-19.444445,-19.444445)"><polygon
       transform="translate(0,0.93859336)"
       style="fill:#1a476f"
       id="polygon8"
       points="25.5,77.9 25.5,20.1 18.1,28.9 18.1,69.1 "
       class="st0" /><polygon
       style="fill:#205b98"
       id="polygon10"
       points="25.5,21.1 25.5,78.9 39.8,86 39.8,14 "
       class="st1" /><polygon
       style="fill:#2d72b8"
       id="polygon12"
       points="81.9,70.1 81.9,29.9 74.5,21.1 74.5,78.9 "
       class="st2" /><polygon
       transform="matrix(1.0093766,0,0,1,-0.69855351,0)"
       style="fill:#5294cf"
       id="polygon14"
       points="74.5,21.1 60.2,14 60.2,86 74.5,78.9 "
       class="st3" /><rect
       style="fill:#2d72b8"
       id="rect16"
       height="72"
       width="20.299999"
       class="st2"
       y="14"
       x="39.799999" /></g><g
     id="nyt_x5F_exporter_x5F_info"
     class="st4"><text
       transform="matrix(1 0 0 1 -255 0)"
       class="st5 st6 st7"
       id="text19">&lt;nyt_prefs&gt;</text>
<text
       transform="matrix(1 0 0 1 -255 14.4)"
       class="st5 st6 st7"
       id="text21">  &lt;nyt_prefix&gt;&lt;/nyt_prefix&gt;</text>
<text
       transform="matrix(1 0 0 1 -255 28.8)"
       class="st5 st6 st7"
       id="text23">  &lt;nyt_suffix&gt;&lt;/nyt_suffix&gt;</text>
<text
       transform="matrix(1 0 0 1 -255 43.2)"
       class="st5 st6 st7"
       id="text25">  &lt;nyt_base_path&gt;~/Desktop/wip/Architecture%20Icons%20-%20Update%20all%20customer-facing%20files%20/AWS-Simple-Icons%202/Database/EPS&lt;/nyt_base_path&gt;</text>
<text
       transform="matrix(1 0 0 1 -255 57.6)"
       class="st5 st6 st7"
       id="text27">  &lt;nyt_scaling&gt;100&lt;/nyt_scaling&gt;</text>
<text
       transform="matrix(1 0 0 1 -255 72)"
       class="st5 st6 st7"
       id="text29">  &lt;nyt_transparency&gt;true&lt;/nyt_transparency&gt;</text>
<text
       transform="matrix(1 0 0 1 -255 86.4)"
       class="st5 st6 st7"
       id="text31">  &lt;nyt_format&gt;EPS&lt;/nyt_format&gt;</text>
<text
       transform="matrix(1 0 0 1 -255 100.8)"
       class="st5 st6 st7"
       id="text33">  &lt;nyt_export_code&gt;artboards&lt;/nyt_export_code&gt;</text>
<text
       transform="matrix(1 0 0 1 -255 115.2)"
       class="st5 st6 st7"
       id="text35">&lt;/nyt_prefs&gt;</text>
</g></svg>