<?xml version="1.0" encoding="UTF-8" standalone="no"?>
<!-- Generator: Adobe Illustrator 19.1.0, SVG Export Plug-In . SVG Version: 6.00 Build 0)  -->

<svg
   xmlns:dc="http://purl.org/dc/elements/1.1/"
   xmlns:cc="http://creativecommons.org/ns#"
   xmlns:rdf="http://www.w3.org/1999/02/22-rdf-syntax-ns#"
   xmlns:svg="http://www.w3.org/2000/svg"
   xmlns="http://www.w3.org/2000/svg"
   xmlns:sodipodi="http://sodipodi.sourceforge.net/DTD/sodipodi-0.dtd"
   xmlns:inkscape="http://www.inkscape.org/namespaces/inkscape"
   version="1.1"
   id="Layer_1"
   x="0px"
   y="0px"
   viewBox="0 0 100 100"
   style="enable-background:new 0 0 100 100;"
   xml:space="preserve"
   inkscape:version="0.91 r13725"
   sodipodi:docname="Database_AmazonRDS_SQLMaster.svg"><metadata
     id="metadata70"><rdf:RDF><cc:Work
         rdf:about=""><dc:format>image/svg+xml</dc:format><dc:type
           rdf:resource="http://purl.org/dc/dcmitype/StillImage" /></cc:Work></rdf:RDF></metadata><defs
     id="defs68" /><sodipodi:namedview
     pagecolor="#ffffff"
     bordercolor="#666666"
     borderopacity="1"
     objecttolerance="10"
     gridtolerance="10"
     guidetolerance="10"
     inkscape:pageopacity="0"
     inkscape:pageshadow="2"
     inkscape:window-width="1280"
     inkscape:window-height="985"
     id="namedview66"
     showgrid="false"
     inkscape:zoom="7.4579687"
     inkscape:cx="50.26817"
     inkscape:cy="50"
     inkscape:window-x="0"
     inkscape:window-y="0"
     inkscape:window-maximized="1"
     inkscape:current-layer="Layer_1" /><style
     type="text/css"
     id="style3">
	.st0{fill:#1A476F;}
	.st1{fill:#2D72B8;}
	.st2{fill:#FFFFFF;}
	.st3{display:none;}
</style><g
     id="Layer_1_1_"
     transform="matrix(1.7825312,0,0,1.7825312,-39.12656,-38.146168)"><g
       id="Layer_1_3_"><g
         id="g7"><g
           id="g9"><g
             id="g11"><g
               id="g13"><path
                 class="st0"
                 d="m 52.3,45.5 0,2.6 c -0.1,0.1 -0.1,0.2 -0.1,0.3 l 0,-2.6 c 0,-0.1 0,-0.2 0.1,-0.3"
                 id="path15"
                 inkscape:connector-curvature="0"
                 style="fill:#1a476f" /><path
                 class="st0"
                 d="m 52.1,45.8 0,2.6 0,0.1 0,-2.7 c 0,0.1 0,0 0,0"
                 id="path17"
                 inkscape:connector-curvature="0"
                 style="fill:#1a476f" /></g><path
               class="st0"
               d="m 76.1,46.8 c -3.7,-1.2 -7.8,-1.4 -11.3,-1.4 -5.1,0 -11.5,1.2 -12.7,2.9 l 0,-2.4 c 0.5,-2.1 6.4,-3.9 11.7,-3.9 1.8,0 9.8,0.8 12.4,2.1"
               id="path19"
               inkscape:connector-curvature="0"
               style="fill:#1a476f" /><g
               id="g21"><path
                 class="st1"
                 d="m 65.6,48.8 c 2.2,0 4.1,0.2 5.6,0.4 3.3,0.5 5,1.5 5,2.1 0,0.6 -1.7,1.5 -5,2 -1.5,0.3 -3.4,0.4 -5.6,0.4 -6.9,0 -10.6,-1.6 -10.6,-2.5 -0.1,-0.8 3.7,-2.4 10.6,-2.4 z"
                 id="path23"
                 inkscape:connector-curvature="0"
                 style="fill:#2d72b8" /></g><g
               id="g25"><path
                 class="st0"
                 d="m 76.2,50.3 0,2.8 0,0 0,-2.8 0,0"
                 id="path27"
                 inkscape:connector-curvature="0"
                 style="fill:#1a476f" /><path
                 class="st0"
                 d="m 76.2,50.3 0,2.8 c 0,0 0,0 0,0.1 l 0,-2.9 0,0"
                 id="path29"
                 inkscape:connector-curvature="0"
                 style="fill:#1a476f" /><path
                 class="st0"
                 d="m 76.2,50.4 0,2.8 0,0.1 0,-2.9 0,0"
                 id="path31"
                 inkscape:connector-curvature="0"
                 style="fill:#1a476f" /><path
                 class="st0"
                 d="m 76.2,50.4 0,2.8 c -0.3,0.6 -2,1.4 -5,1.9 -1.5,0.3 -3.4,0.4 -5.6,0.4 C 58.7,55.5 55,53.9 55,53 l 0,-2.8 c 0,0.8 3.8,2.5 10.6,2.5 2.2,0 4.1,-0.2 5.6,-0.4 2.9,-0.5 4.7,-1.3 5,-1.9"
                 id="path33"
                 inkscape:connector-curvature="0"
                 style="fill:#1a476f" /></g><path
               class="st0"
               d="m 76.2,50.3 0,2.8 c 0,0.6 -1.7,1.5 -5,2 -1.5,0.3 -3.4,0.4 -5.6,0.4 C 58.7,55.5 55,53.9 55,53 l 0,-2.8 c 0,0.8 3.8,2.5 10.6,2.5 2.2,0 4.1,-0.2 5.6,-0.4 3.3,-0.5 5,-1.5 5,-2 z"
               id="path35"
               inkscape:connector-curvature="0"
               style="fill:#1a476f" /><g
               id="g37"><g
                 id="g39"><path
                   class="st0"
                   d="m 76.4,72.2 0,2.8 c 0,0 0,0 0,0.1 l 0,-2.9 0,0"
                   id="path41"
                   inkscape:connector-curvature="0"
                   style="fill:#1a476f" /><path
                   class="st0"
                   d="m 76.4,72.3 0,2.8 c 0,0 0,0 0,0.1 l 0,-2.9 0,0"
                   id="path43"
                   inkscape:connector-curvature="0"
                   style="fill:#1a476f" /><path
                   class="st0"
                   d="m 76.4,72.3 0,2.8 c 0,0 0,0.1 -0.1,0.1 l 0.1,-2.9 c 0,0.1 0,0.1 0,0"
                   id="path45"
                   inkscape:connector-curvature="0"
                   style="fill:#1a476f" /></g><path
                 class="st0"
                 d="m 66.3,74.6 c -3.9,0 -6.9,-0.4 -9,-1 l 0,-1.1 C 56,71.9 55,71.1 54.9,70.6 l 0,4.6 c 0.2,0.3 0.7,0.7 2.3,1.2 l 0,0 c 2.1,0.7 5.1,1.1 9,1.1 7.2,0 10.1,-1.6 10.1,-2.5 l 0,-2.8 c 0.1,0.9 -2.8,2.4 -10,2.4 z"
                 id="path47"
                 inkscape:connector-curvature="0"
                 style="fill:#1a476f" /></g><path
               class="st0"
               d="m 27.8,73.5 0,2.6 c -2.2,0 -4,-1.8 -4,-4 l -0.1,-2.5 c -0.1,2.1 1.8,3.9 4.1,3.9 z"
               id="path49"
               inkscape:connector-curvature="0"
               style="fill:#1a476f" /><g
               id="g51"><polygon
                 class="st0"
                 points="27.2,72.7 53.6,73.5 53.6,76.1 27.8,76.1 "
                 id="polygon53"
                 style="fill:#1a476f" /></g><g
               id="g55"><path
                 class="st1"
                 d="M 76.1,45.5 C 72.3,44.2 66,44.1 64.3,44.1 59.1,44.2 53.1,45.4 52.1,46.9 l 0,0.3 0,1 0,24.8 c 0,0.5 1,1.1 1.5,1.4 l -26,0 c -2.2,0 -4,-1.8 -4,-4 l 0,-45 c 0,-2.2 1.8,-4 4,-4 l 44.7,0 c 2.2,0 4,1.8 4,4"
                 id="path57"
                 inkscape:connector-curvature="0"
                 style="fill:#2d72b8" /></g><g
               id="g59"><path
                 class="st1"
                 d="m 76.4,56.1 0,17.1 c 0,0.9 -3,2.5 -10.1,2.5 -3.9,0 -6.9,-0.5 -8.8,-1 -1.4,-0.5 -2.4,-1 -2.5,-1.4 l 0,-17 c 2.1,1.3 6.4,2 10.6,2 l 0.3,0 c 0.4,0 0.9,0 1.3,0 l 0.2,0 c 0.4,0 0.7,0 1.1,-0.1 0.2,0 0.4,0 0.5,0 0.3,0 0.6,0 0.8,-0.1 0.2,0 0.3,0 0.5,-0.1 0.3,0 0.6,-0.1 0.9,-0.1 2.3,-0.5 4.1,-1.1 5.2,-1.8 z"
                 id="path61"
                 inkscape:connector-curvature="0"
                 style="fill:#2d72b8" /></g></g><polygon
             class="st2"
             points="60.2,60.3 60.2,73.1 62.1,73.1 62.1,62.5 62.2,62.5 64.8,73.1 66.5,73.1 69.1,62.5 69.2,62.5 69.2,73.1 71.1,73.1 71.1,60.3 68,60.3 65.7,69.8 65.7,69.8 63.4,60.3 "
             id="polygon63"
             style="fill:#ffffff" /></g></g></g></g><g
     id="nyt_x5F_exporter_x5F_info"
     class="st3" /></svg>