<?xml version="1.0" encoding="UTF-8" standalone="no"?>
<!-- Generator: Adobe Illustrator 19.1.0, SVG Export Plug-In . SVG Version: 6.00 Build 0)  -->

<svg
   xmlns:dc="http://purl.org/dc/elements/1.1/"
   xmlns:cc="http://creativecommons.org/ns#"
   xmlns:rdf="http://www.w3.org/1999/02/22-rdf-syntax-ns#"
   xmlns:svg="http://www.w3.org/2000/svg"
   xmlns="http://www.w3.org/2000/svg"
   xmlns:sodipodi="http://sodipodi.sourceforge.net/DTD/sodipodi-0.dtd"
   xmlns:inkscape="http://www.inkscape.org/namespaces/inkscape"
   version="1.1"
   id="Layer_1"
   x="0px"
   y="0px"
   viewBox="0 0 100 100"
   style="enable-background:new 0 0 100 100;"
   xml:space="preserve"
   inkscape:version="0.91 r13725"
   sodipodi:docname="Database_AmazonRDS_PIOP.svg"><metadata
     id="metadata21"><rdf:RDF><cc:Work
         rdf:about=""><dc:format>image/svg+xml</dc:format><dc:type
           rdf:resource="http://purl.org/dc/dcmitype/StillImage" /></cc:Work></rdf:RDF></metadata><defs
     id="defs19" /><sodipodi:namedview
     pagecolor="#ffffff"
     bordercolor="#666666"
     borderopacity="1"
     objecttolerance="10"
     gridtolerance="10"
     guidetolerance="10"
     inkscape:pageopacity="0"
     inkscape:pageshadow="2"
     inkscape:window-width="1600"
     inkscape:window-height="861"
     id="namedview17"
     showgrid="false"
     inkscape:zoom="4.9122198"
     inkscape:cx="19.760911"
     inkscape:cy="20.400609"
     inkscape:window-x="1280"
     inkscape:window-y="0"
     inkscape:window-maximized="1"
     inkscape:current-layer="Layer_1" /><style
     type="text/css"
     id="style3">
	.st0{fill:#1A476F;}
	.st1{fill:#2D72B8;}
	.st2{fill:#FFFFFF;stroke:#19486F;stroke-miterlimit:10;}
	.st3{font-family:'HelveticaNeueLTStd-BdCn';}
	.st4{font-size:11px;}
	.st5{display:none;}
</style><g
     id="g4150"><path
       class="st0"
       d="m 1.1111098,88.88889 c 0,0 -1.48148148,11.11111 7.4074076,11.11111 8.8888896,0 83.1481506,0 83.1481506,0 0,0 6.851852,-1.48148 7.407407,-9.999999 L 1.1111098,88.88889 Z"
       id="path6"
       inkscape:connector-curvature="0"
       style="fill:#1a476f" /><path
       class="st1"
       d="m 99.074075,90.740742 c 0,4.074074 -3.333333,7.407407 -7.407407,7.407407 l -83.3333358,0 c -4.0740741,0 -7.40740755,-3.333333 -7.40740755,-7.407407 l 0,-83.3333356 c 0,-4.0740742 3.33333345,-7.40740765 7.40740755,-7.40740765 l 83.3333358,0 c 4.074074,0 7.407407,3.33333345 7.407407,7.40740765 l 0,83.3333356 z"
       id="path8"
       inkscape:connector-curvature="0"
       style="fill:#2d72b8" /><g
       transform="matrix(1.8518519,0,0,1.8518519,-42.592595,-41.666669)"
       id="g10"><path
         class="st2"
         d="m 73,67 c 0,2.2 -1.8,4 -4,4 l -19,0 c -2.2,0 -4,-1.8 -4,-4 l 0,-6 c 0,-2.2 1.8,-4 4,-4 l 19,0 c 2.2,0 4,1.8 4,4 l 0,6 z"
         id="path12"
         inkscape:connector-curvature="0"
         style="fill:#ffffff;stroke:#19486f;stroke-miterlimit:10" /></g><text
       y="84.611855"
       x="43.631546"
       class="st1 st3 st4"
       id="text14"
       style="font-size:20.37037086px;font-family:HelveticaNeueLTStd-BdCn;fill:#2d72b8">PIOP</text>
</g><g
     id="nyt_x5F_exporter_x5F_info"
     class="st5" /></svg>