<?xml version="1.0" encoding="UTF-8" standalone="no"?>
<!-- Generator: Adobe Illustrator 19.1.0, SVG Export Plug-In . SVG Version: 6.00 Build 0)  -->

<svg
   xmlns:dc="http://purl.org/dc/elements/1.1/"
   xmlns:cc="http://creativecommons.org/ns#"
   xmlns:rdf="http://www.w3.org/1999/02/22-rdf-syntax-ns#"
   xmlns:svg="http://www.w3.org/2000/svg"
   xmlns="http://www.w3.org/2000/svg"
   xmlns:xlink="http://www.w3.org/1999/xlink"
   xmlns:sodipodi="http://sodipodi.sourceforge.net/DTD/sodipodi-0.dtd"
   xmlns:inkscape="http://www.inkscape.org/namespaces/inkscape"
   version="1.1"
   id="Layer_1"
   x="0px"
   y="0px"
   viewBox="0 0 100 100"
   style="enable-background:new 0 0 100 100;"
   xml:space="preserve"
   inkscape:version="0.91 r13725"
   sodipodi:docname="Database_AmazonRDS_DBInstance.svg"><metadata
     id="metadata79"><rdf:RDF><cc:Work
         rdf:about=""><dc:format>image/svg+xml</dc:format><dc:type
           rdf:resource="http://purl.org/dc/dcmitype/StillImage" /></cc:Work></rdf:RDF></metadata><defs
     id="defs77" /><sodipodi:namedview
     pagecolor="#ffffff"
     bordercolor="#666666"
     borderopacity="1"
     objecttolerance="10"
     gridtolerance="10"
     guidetolerance="10"
     inkscape:pageopacity="0"
     inkscape:pageshadow="2"
     inkscape:window-width="1280"
     inkscape:window-height="985"
     id="namedview75"
     showgrid="false"
     inkscape:zoom="7.4579687"
     inkscape:cx="50.26817"
     inkscape:cy="50"
     inkscape:window-x="0"
     inkscape:window-y="0"
     inkscape:window-maximized="1"
     inkscape:current-layer="Layer_1" /><style
     type="text/css"
     id="style3">
	.st0{fill:#1A476F;}
	.st1{enable-background:new    ;}
	.st2{clip-path:url(#SVGID_4_);enable-background:new    ;}
	.st3{fill:#2D72B8;}
	.st4{clip-path:url(#SVGID_6_);enable-background:new    ;}
	.st5{fill:#FFFFFF;}
	.st6{display:none;}
</style><g
     id="Layer_1_1_"
     transform="matrix(1.7889088,0,0,1.7889088,-39.355995,-38.640431)"><g
       id="g6"><g
         id="g8"><g
           id="g10"><g
             id="g12"><path
               class="st0"
               d="m 28,32.9 0,0 0,0 z"
               id="path14"
               inkscape:connector-curvature="0"
               style="fill:#1a476f" /></g></g><g
           class="st1"
           id="g16"
           style="enable-background:new"><g
             id="g18"><g
               id="g20"><path
                 id="SVGID_1_"
                 class="st0"
                 d="m 72,26.2 0,2.3 c 0,3.1 -9.8,5.6 -22,5.6 -12.1,0 -22,-2.5 -22,-5.6 l 0,-2.3 c 0,3.1 9.8,5.6 22,5.6 12.2,0 22,-2.5 22,-5.6 z"
                 inkscape:connector-curvature="0"
                 style="fill:#1a476f" /></g><g
               id="g23"><defs
                 id="defs25"><path
                   id="SVGID_2_"
                   d="m 72,26.2 0,2.3 c 0,3.1 -9.8,5.6 -22,5.6 -12.1,0 -22,-2.5 -22,-5.6 l 0,-2.3 c 0,3.1 9.8,5.6 22,5.6 12.2,0 22,-2.5 22,-5.6 z"
                   inkscape:connector-curvature="0" /></defs><clipPath
                 id="SVGID_4_"><use
                   xlink:href="#SVGID_2_"
                   style="overflow:visible"
                   id="use29"
                   x="0"
                   y="0"
                   width="100%"
                   height="100%" /></clipPath><g
                 class="st2"
                 id="g31"
                 clip-path="url(#SVGID_4_)"
                 style="enable-background:new"><path
                   class="st0"
                   d="m 72,26.2 0,2.3 c 0,0.1 0,0.1 0,0.2 l 0,-2.3 c 0,-0.1 0,-0.1 0,-0.2"
                   id="path33"
                   inkscape:connector-curvature="0"
                   style="fill:#1a476f" /><path
                   class="st0"
                   d="m 72,26.4 0,2.3 c 0,0.1 0,0.2 -0.1,0.3 l 0,-2.3 c 0,-0.1 0.1,-0.2 0.1,-0.3"
                   id="path35"
                   inkscape:connector-curvature="0"
                   style="fill:#1a476f" /><path
                   class="st0"
                   d="m 71.9,26.7 0,2.3 c 0,0.1 -0.1,0.2 -0.2,0.3 l 0,-2.3 c 0.1,-0.1 0.2,-0.2 0.2,-0.3"
                   id="path37"
                   inkscape:connector-curvature="0"
                   style="fill:#1a476f" /><path
                   class="st0"
                   d="m 71.8,27 0,2.3 C 70.2,32.1 61,34.1 50,34.1 37.9,34.1 28,31.6 28,28.5 l 0,-2.3 c 0,3.1 9.8,5.6 22,5.6 11,0 20.2,-2.1 21.8,-4.8"
                   id="path39"
                   inkscape:connector-curvature="0"
                   style="fill:#1a476f" /></g></g></g><g
             id="g41"><path
               class="st3"
               d="m 50,21.6 c 12.1,0 22,2.5 22,5.6 0,3.1 -9.8,5.6 -22,5.6 -12.1,0 -22,-2.5 -22,-5.6 0.1,-3.1 9.9,-5.6 22,-5.6 z"
               id="path43"
               inkscape:connector-curvature="0"
               style="fill:#2d72b8" /></g><g
             id="g45"><g
               id="g47"><path
                 id="SVGID_3_"
                 class="st0"
                 d="m 71.9,68.7 0,2.3 c 0,3.6 -9.9,6.5 -22,6.5 -12.1,0 -22,-2.9 -22,-6.4 l 0,-2.3 c 0,3.6 9.8,6.4 22,6.4 12.2,-0.1 22,-3 22,-6.5 z"
                 inkscape:connector-curvature="0"
                 style="fill:#1a476f" /></g><g
               id="g50"><defs
                 id="defs52"><path
                   id="SVGID_5_"
                   d="m 71.9,68.7 0,2.3 c 0,3.6 -9.9,6.5 -22,6.5 -12.1,0 -22,-2.9 -22,-6.4 l 0,-2.3 c 0,3.6 9.8,6.4 22,6.4 12.2,-0.1 22,-3 22,-6.5 z"
                   inkscape:connector-curvature="0" /></defs><clipPath
                 id="SVGID_6_"><use
                   xlink:href="#SVGID_5_"
                   style="overflow:visible"
                   id="use56"
                   x="0"
                   y="0"
                   width="100%"
                   height="100%" /></clipPath><g
                 class="st4"
                 id="g58"
                 clip-path="url(#SVGID_6_)"
                 style="enable-background:new"><path
                   class="st0"
                   d="m 71.9,68.7 0,2.3 c 0,0.1 0,0.2 0,0.3 l 0,-2.3 c 0,-0.1 0,-0.2 0,-0.3"
                   id="path60"
                   inkscape:connector-curvature="0"
                   style="fill:#1a476f" /><path
                   class="st0"
                   d="m 71.9,68.9 0,2.3 c 0,0.1 -0.1,0.2 -0.1,0.4 l 0,-2.3 c 0.1,-0.1 0.1,-0.2 0.1,-0.4"
                   id="path62"
                   inkscape:connector-curvature="0"
                   style="fill:#1a476f" /><path
                   class="st0"
                   d="m 71.8,69.3 0,2.3 c -0.1,0.1 -0.1,0.3 -0.2,0.4 l 0,-2.3 c 0.1,-0.1 0.2,-0.2 0.2,-0.4"
                   id="path64"
                   inkscape:connector-curvature="0"
                   style="fill:#1a476f" /><path
                   class="st0"
                   d="m 71.6,69.7 0,2.3 c -1.8,3.1 -10.8,5.4 -21.7,5.4 -12.1,0 -22,-2.9 -22,-6.4 l 0,-2.3 c 0,3.6 9.8,6.4 22,6.4 10.9,0 20,-2.3 21.7,-5.4"
                   id="path66"
                   inkscape:connector-curvature="0"
                   style="fill:#1a476f" /></g></g></g></g></g><path
         class="st3"
         d="m 71.9,31.8 c -1.2,3.4 -9.8,5.4 -22,5.4 -12.1,0 -20.3,-2.3 -21.9,-5.6 l 0,38.1 c 0,3.6 9.8,6.4 22,6.4 12.1,0 22,-2.9 22,-6.4 L 71.9,31.8 Z"
         id="path68"
         inkscape:connector-curvature="0"
         style="fill:#2d72b8" /><g
         id="g70"><path
           class="st5"
           d="m 35.7,43.5 8.2,0 6.2,18.2 0.1,0 5.9,-18.2 8.2,0 0,26.5 -5.5,0 0,-18.8 -0.1,0 -6.5,18.7 -4.5,0 -6.5,-18.6 -0.1,0 0,18.6 -5.5,0 0.1,-26.4 0,0 z"
           id="path72"
           inkscape:connector-curvature="0"
           style="fill:#ffffff" /></g></g></g><g
     id="nyt_x5F_exporter_x5F_info"
     class="st6" /></svg>