<?xml version="1.0" encoding="UTF-8" standalone="no"?>
<!-- Generator: Adobe Illustrator 19.1.0, SVG Export Plug-In . SVG Version: 6.00 Build 0)  -->

<svg
   xmlns:dc="http://purl.org/dc/elements/1.1/"
   xmlns:cc="http://creativecommons.org/ns#"
   xmlns:rdf="http://www.w3.org/1999/02/22-rdf-syntax-ns#"
   xmlns:svg="http://www.w3.org/2000/svg"
   xmlns="http://www.w3.org/2000/svg"
   xmlns:sodipodi="http://sodipodi.sourceforge.net/DTD/sodipodi-0.dtd"
   xmlns:inkscape="http://www.inkscape.org/namespaces/inkscape"
   version="1.1"
   id="Layer_1"
   x="0px"
   y="0px"
   viewBox="0 0 100 100"
   style="enable-background:new 0 0 100 100;"
   xml:space="preserve"
   inkscape:version="0.91 r13725"
   sodipodi:docname="Database_AmazonRDS_OracleDBInstance-2.svg"><metadata
     id="metadata47"><rdf:RDF><cc:Work
         rdf:about=""><dc:format>image/svg+xml</dc:format><dc:type
           rdf:resource="http://purl.org/dc/dcmitype/StillImage" /></cc:Work></rdf:RDF></metadata><defs
     id="defs45" /><sodipodi:namedview
     pagecolor="#ffffff"
     bordercolor="#666666"
     borderopacity="1"
     objecttolerance="10"
     gridtolerance="10"
     guidetolerance="10"
     inkscape:pageopacity="0"
     inkscape:pageshadow="2"
     inkscape:window-width="1280"
     inkscape:window-height="958"
     id="namedview43"
     showgrid="false"
     inkscape:zoom="3.9653267"
     inkscape:cx="58.249305"
     inkscape:cy="31.805259"
     inkscape:window-x="0"
     inkscape:window-y="27"
     inkscape:window-maximized="1"
     inkscape:current-layer="g3393" /><style
     type="text/css"
     id="style3">
	.st0{fill:#1A476F;}
	.st1{fill:#2D72B8;}
	.st2{fill:#FFFFFF;}
	.st3{font-family:'HelveticaNeueLTStd-BdCn';}
	.st4{font-size:14px;}
	.st5{display:none;}
</style><g
     id="g6"
     transform="matrix(1.8181818,0,0,1.8181818,-40.998044,-39.999999)"><g
       id="g8"><g
         id="g10"><path
           style="fill:#1a476f"
           inkscape:connector-curvature="0"
           id="path12"
           d="m 76.4,66.9 0,2.6 c 0,0.4 0,0.7 -0.1,1.1 l 0,-2.6 c 0,-0.4 0.1,-0.8 0.1,-1.1"
           class="st0" /><path
           style="fill:#1a476f"
           inkscape:connector-curvature="0"
           id="path14"
           d="m 76.3,68 0,2.6 C 76.2,71 76.1,71.4 76,71.8 l 0,-2.6 c 0.1,-0.4 0.2,-0.8 0.3,-1.2"
           class="st0" /><path
           style="fill:#1a476f"
           inkscape:connector-curvature="0"
           id="path16"
           d="m 76,69.2 0,2.6 c -0.1,0.5 -0.3,0.9 -0.6,1.3 l 0,-2.6 c 0.3,-0.4 0.5,-0.9 0.6,-1.3"
           class="st0" /></g><path
         style="fill:#1a476f"
         inkscape:connector-curvature="0"
         id="path18"
         d="m 76.4,66.9 0,2.6 c 0,4.1 -3.4,7.5 -7.5,7.5 l 0,-2.6 c 4.1,0 7.5,-3.4 7.5,-7.5 z"
         class="st0" /><g
         id="g20"><polygon
           style="fill:#1a476f"
           id="polygon22"
           points="69.9,73.6 68.8,77 31.2,77 31.2,74.4 "
           class="st0" /></g><path
         style="fill:#1a476f"
         inkscape:connector-curvature="0"
         id="path24"
         d="m 31.2,74.4 0,2.6 C 27,77 23.7,73.6 23.7,69.5 l 0,-2.6 c -0.1,4.1 3.3,7.5 7.5,7.5 z"
         class="st0" /><g
         id="g26"><path
           style="fill:#2d72b8"
           inkscape:connector-curvature="0"
           id="path28"
           d="m 68.8,22 c 4.2,0 7.5,3.3 7.5,7.5 l 0,38.4 c 0,4.1 -3.4,7.5 -7.5,7.5 l -37.6,0 C 27,75.4 23.7,72 23.7,67.9 l 0,-38.4 c 0,-4.1 3.4,-7.5 7.5,-7.5 l 37.6,0 0,0 z"
           class="st1" /></g></g></g><g
     id="g3393"
     transform="matrix(1.8181818,0,0,1.8181818,-41.360088,-39.999999)"><text
       xml:space="preserve"
       style="font-style:normal;font-variant:normal;font-weight:bold;font-stretch:normal;font-size:12.42987251px;line-height:125%;font-family:Sans;-inkscape-font-specification:'Sans, Bold';text-align:start;letter-spacing:0px;word-spacing:0px;writing-mode:lr-tb;text-anchor:start;fill:#ffffff;fill-opacity:1;stroke:none;stroke-width:1px;stroke-linecap:butt;stroke-linejoin:miter;stroke-opacity:1;"
       x="34.798004"
       y="32.898926"
       id="text4193"
       sodipodi:linespacing="125%"
       transform="scale(0.87848284,1.1383262)"><tspan
         sodipodi:role="line"
         id="tspan4195"
         x="34.798004"
         y="32.898926">Oracle</tspan></text>
</g><g
     id="nyt_x5F_exporter_x5F_info"
     class="st5" /></svg>