<?xml version="1.0" encoding="UTF-8" standalone="no"?>
<!-- Generator: Adobe Illustrator 19.1.0, SVG Export Plug-In . SVG Version: 6.00 Build 0)  -->

<svg
   xmlns:dc="http://purl.org/dc/elements/1.1/"
   xmlns:cc="http://creativecommons.org/ns#"
   xmlns:rdf="http://www.w3.org/1999/02/22-rdf-syntax-ns#"
   xmlns:svg="http://www.w3.org/2000/svg"
   xmlns="http://www.w3.org/2000/svg"
   xmlns:xlink="http://www.w3.org/1999/xlink"
   xmlns:sodipodi="http://sodipodi.sourceforge.net/DTD/sodipodi-0.dtd"
   xmlns:inkscape="http://www.inkscape.org/namespaces/inkscape"
   version="1.1"
   id="Layer_1"
   x="0px"
   y="0px"
   viewBox="0 0 100 100"
   style="enable-background:new 0 0 100 100;"
   xml:space="preserve"
   inkscape:version="0.91 r13725"
   sodipodi:docname="Database_AmazonRDS_OracleDBInstance.svg"><metadata
     id="metadata128"><rdf:RDF><cc:Work
         rdf:about=""><dc:format>image/svg+xml</dc:format><dc:type
           rdf:resource="http://purl.org/dc/dcmitype/StillImage" /></cc:Work></rdf:RDF></metadata><defs
     id="defs126" /><sodipodi:namedview
     pagecolor="#ffffff"
     bordercolor="#666666"
     borderopacity="1"
     objecttolerance="10"
     gridtolerance="10"
     guidetolerance="10"
     inkscape:pageopacity="0"
     inkscape:pageshadow="2"
     inkscape:window-width="1280"
     inkscape:window-height="985"
     id="namedview124"
     showgrid="false"
     inkscape:zoom="7.4579687"
     inkscape:cx="50.26817"
     inkscape:cy="50"
     inkscape:window-x="0"
     inkscape:window-y="0"
     inkscape:window-maximized="1"
     inkscape:current-layer="Layer_1" /><style
     type="text/css"
     id="style3">
	.st0{fill:#1A476F;}
	.st1{clip-path:url(#SVGID_2_);enable-background:new    ;}
	.st2{fill:#2D72B8;}
	.st3{clip-path:url(#SVGID_4_);enable-background:new    ;}
	.st4{clip-path:url(#SVGID_6_);enable-background:new    ;}
	.st5{clip-path:url(#SVGID_8_);enable-background:new    ;}
	.st6{fill:#FFFFFF;}
	.st7{display:none;}
</style><g
     id="Layer_1_1_"
     transform="matrix(1.7921147,0,0,1.7921147,-39.695341,-38.709678)"><g
       id="g6"><g
         id="g8"><path
           id="SVGID_23_"
           class="st0"
           d="m 76,46.8 c -3.7,-1.2 -7.8,-1.4 -11.3,-1.4 -5.1,0 -11.5,1.2 -12.7,2.9 l 0,-2.4 c 0.5,-2.1 6.4,-3.9 11.7,-3.9 1.8,0 9.8,0.8 12.4,2.1"
           inkscape:connector-curvature="0"
           style="fill:#1a476f" /></g><g
         id="g11"><defs
           id="defs13"><path
             id="SVGID_1_"
             d="m 76,46.8 c -3.7,-1.2 -7.8,-1.4 -11.3,-1.4 -5.1,0 -11.5,1.2 -12.7,2.9 l 0,-2.4 c 0.5,-2.1 6.4,-3.9 11.7,-3.9 1.8,0 9.8,0.8 12.4,2.1"
             inkscape:connector-curvature="0" /></defs><clipPath
           id="SVGID_2_"><use
             xlink:href="#SVGID_1_"
             style="overflow:visible"
             id="use17"
             x="0"
             y="0"
             width="100%"
             height="100%" /></clipPath><g
           class="st1"
           id="g19"
           clip-path="url(#SVGID_2_)"
           style="enable-background:new"><path
             class="st0"
             d="m 52.2,45.5 0,2.6 c -0.1,0.1 -0.1,0.2 -0.1,0.3 l 0,-2.6 c 0.1,-0.1 0.1,-0.2 0.1,-0.3"
             id="path21"
             inkscape:connector-curvature="0"
             style="fill:#1a476f" /><path
             class="st0"
             d="m 52.1,45.8 0,2.6 0,0.1 0,-2.7 c 0,0.1 0,0 0,0"
             id="path23"
             inkscape:connector-curvature="0"
             style="fill:#1a476f" /></g></g></g><g
       id="g25"><path
         class="st2"
         d="m 65.5,48.8 c 2.2,0 4,0.2 5.6,0.4 3.3,0.5 5,1.5 5,2.1 0,0.6 -1.7,1.5 -5,2 -1.5,0.3 -3.4,0.4 -5.6,0.4 -6.9,0 -10.6,-1.6 -10.6,-2.5 0,-0.8 3.8,-2.4 10.6,-2.4 z"
         id="path27"
         inkscape:connector-curvature="0"
         style="fill:#2d72b8" /></g><g
       id="g29"><g
         id="g31"><path
           id="SVGID_25_"
           class="st0"
           d="m 76.2,50.3 0,2.7 c 0,0.6 -1.7,1.5 -5,2 -1.5,0.3 -3.4,0.4 -5.6,0.4 C 58.7,55.4 55,53.8 55,52.9 l 0,-2.8 c 0,0.8 3.7,2.5 10.6,2.5 2.2,0 4,-0.2 5.6,-0.4 3.2,-0.4 5,-1.4 5,-1.9 z"
           inkscape:connector-curvature="0"
           style="fill:#1a476f" /></g><g
         id="g34"><defs
           id="defs36"><path
             id="SVGID_3_"
             d="m 76.2,50.3 0,2.7 c 0,0.6 -1.7,1.5 -5,2 -1.5,0.3 -3.4,0.4 -5.6,0.4 C 58.7,55.4 55,53.8 55,52.9 l 0,-2.8 c 0,0.8 3.7,2.5 10.6,2.5 2.2,0 4,-0.2 5.6,-0.4 3.2,-0.4 5,-1.4 5,-1.9 z"
             inkscape:connector-curvature="0" /></defs><clipPath
           id="SVGID_4_"><use
             xlink:href="#SVGID_3_"
             style="overflow:visible"
             id="use40"
             x="0"
             y="0"
             width="100%"
             height="100%" /></clipPath><g
           class="st3"
           id="g42"
           clip-path="url(#SVGID_4_)"
           style="enable-background:new"><path
             class="st0"
             d="m 76.2,50.3 0,2.7 0,0 0,-2.7 0,0"
             id="path44"
             inkscape:connector-curvature="0"
             style="fill:#1a476f" /><path
             class="st0"
             d="m 76.2,50.3 0,2.8 c 0,0 0,0 0,0.1 l 0,-2.9 c -0.1,0 0,0 0,0"
             id="path46"
             inkscape:connector-curvature="0"
             style="fill:#1a476f" /><path
             class="st0"
             d="m 76.1,50.4 0,2.8 0,0.1 0,-2.9 0,0"
             id="path48"
             inkscape:connector-curvature="0"
             style="fill:#1a476f" /><path
             class="st0"
             d="m 76.1,50.4 0,2.8 c -0.3,0.6 -2,1.4 -5,1.9 -1.5,0.3 -3.4,0.4 -5.6,0.4 -6.9,0 -10.6,-1.6 -10.6,-2.5 l 0,-2.8 c 0,0.8 3.7,2.5 10.6,2.5 2.2,0 4,-0.2 5.6,-0.4 3,-0.5 4.7,-1.3 5,-1.9"
             id="path50"
             inkscape:connector-curvature="0"
             style="fill:#1a476f" /></g></g></g><g
       id="g52"><g
         id="g54"><path
           id="SVGID_27_"
           class="st0"
           d="m 57.3,72.4 0,3.9 C 55.6,75.7 55.1,75.4 54.9,75 l 0,-4.5 c 0.1,0.5 1.1,1.3 2.4,1.9 z"
           inkscape:connector-curvature="0"
           style="fill:#1a476f" /></g></g><g
       id="g57"><g
         id="g59"><path
           id="SVGID_29_"
           class="st0"
           d="m 76.3,72.1 0,2.8 c 0,0.9 -3,2.5 -10.1,2.5 -3.9,0 -6.8,-0.5 -9,-1.1 l 0,-2.8 c 2.1,0.7 5.1,1.1 9,1.1 7.2,0 10.1,-1.6 10.1,-2.5 z"
           inkscape:connector-curvature="0"
           style="fill:#1a476f" /></g><g
         id="g62"><defs
           id="defs64"><path
             id="SVGID_5_"
             d="m 76.3,72.1 0,2.8 c 0,0.9 -3,2.5 -10.1,2.5 -3.9,0 -6.8,-0.5 -9,-1.1 l 0,-2.8 c 2.1,0.7 5.1,1.1 9,1.1 7.2,0 10.1,-1.6 10.1,-2.5 z"
             inkscape:connector-curvature="0" /></defs><clipPath
           id="SVGID_6_"><use
             xlink:href="#SVGID_5_"
             style="overflow:visible"
             id="use68"
             x="0"
             y="0"
             width="100%"
             height="100%" /></clipPath><g
           class="st4"
           id="g70"
           clip-path="url(#SVGID_6_)"
           style="enable-background:new"><path
             class="st0"
             d="m 76.3,72.1 0,2.8 c 0,0 0,0 0,0.1 l 0,-2.9 c 0,0.1 0,0.1 0,0"
             id="path72"
             inkscape:connector-curvature="0"
             style="fill:#1a476f" /><path
             class="st0"
             d="m 76.3,72.2 0,2.8 c 0,0 0,0 0,0.1 l 0,-2.9 0,0"
             id="path74"
             inkscape:connector-curvature="0"
             style="fill:#1a476f" /><path
             class="st0"
             d="m 76.3,72.3 0,2.8 c 0,0 0,0.1 -0.1,0.1 l 0.1,-2.9 c 0,0 0,0 0,0"
             id="path76"
             inkscape:connector-curvature="0"
             style="fill:#1a476f" /><path
             class="st0"
             d="m 76.3,72.4 0,2.8 c -0.5,0.9 -3.5,2.2 -10,2.2 -3.9,0 -7.1,-0.5 -9,-1.1 l 0,-2.8 c 1.9,0.6 5.1,1.1 9,1.1 6.4,0 9.5,-1.4 10,-2.2"
             id="path78"
             inkscape:connector-curvature="0"
             style="fill:#1a476f" /></g></g></g><g
       id="g80"><g
         id="g82"><path
           id="SVGID_31_"
           class="st0"
           d="m 27.8,73.4 0,2.6 c -2.2,0 -4,-1.8 -4,-4 l 0,-2.6 c 0,2.2 1.8,4 4,4 z"
           inkscape:connector-curvature="0"
           style="fill:#1a476f" /></g><g
         id="g85"><defs
           id="defs87"><path
             id="SVGID_7_"
             d="m 27.8,73.4 0,2.6 c -2.2,0 -4,-1.8 -4,-4 l 0,-2.6 c 0,2.2 1.8,4 4,4 z"
             inkscape:connector-curvature="0" /></defs><clipPath
           id="SVGID_8_"><use
             xlink:href="#SVGID_7_"
             style="overflow:visible"
             id="use91"
             x="0"
             y="0"
             width="100%"
             height="100%" /></clipPath><g
           class="st5"
           id="g93"
           clip-path="url(#SVGID_8_)"
           style="enable-background:new"><path
             class="st0"
             d="m 27.8,73.4 0,2.6 c -2.2,0 -4,-1.8 -4,-4 l 0,-2.6 c 0,2.2 1.8,4 4,4"
             id="path95"
             inkscape:connector-curvature="0"
             style="fill:#1a476f" /></g></g></g><g
       id="g97"><polygon
         class="st0"
         points="27.8,73.4 53.6,73.4 53.6,76 27.8,76 "
         id="polygon99"
         style="fill:#1a476f" /></g><g
       id="g101"><path
         class="st2"
         d="M 76.1,45.5 C 72.3,44.2 66.1,44.1 64.3,44.2 59.1,44.3 53.2,45.5 52.2,47 l 0,0.3 0,0.9 0,24.8 c 0,0.5 1,1 1.4,1.4 l -25.8,0 c -2.2,0 -4,-1.8 -4,-4 l 0,-44.8 c 0,-2.2 1.8,-4 4,-4 l 44.5,0 c 2.2,0 4,1.8 4,4"
         id="path103"
         inkscape:connector-curvature="0"
         style="fill:#2d72b8" /></g><g
       id="g105"><path
         class="st2"
         d="m 76.3,56.1 0,17 c 0,0.9 -3,2.5 -10.1,2.5 -3.9,0 -6.8,-0.5 -8.8,-1 -1.4,-0.5 -2.4,-1 -2.5,-1.4 l 0,-17 c 2.1,1.3 6.4,2 10.6,2 l 0.3,0 c 0.4,0 0.9,0 1.3,0 l 0.2,0 c 0.4,0 0.7,0 1.1,-0.1 0.2,0 0.4,0 0.5,0 0.3,0 0.6,0 0.8,-0.1 0.2,0 0.3,0 0.5,-0.1 0.3,0 0.6,-0.1 0.9,-0.1 2.3,-0.4 4.1,-1 5.2,-1.7 z"
         id="path107"
         inkscape:connector-curvature="0"
         style="fill:#2d72b8" /></g><polygon
       class="st6"
       points="60.2,60.3 60.2,73.1 62.1,73.1 62.1,62.4 62.1,62.4 64.7,73.1 66.5,73.1 69,62.4 69.1,62.4 69.1,73.1 71,73.1 71,60.3 67.9,60.3 65.7,69.7 65.6,69.7 63.4,60.3 "
       id="polygon109"
       style="fill:#ffffff" /><path
       class="st6"
       d="m 32.2,25.7 c -2.2,0 -3.2,1.6 -3.2,5 0,3.4 1,5 3.2,5 2.2,0 3.2,-1.6 3.2,-5 0,-3.4 -1,-5 -3.2,-5 z m 0,8.8 c -0.9,0 -1.7,-0.6 -1.7,-3.9 0,-3.2 0.7,-3.8 1.7,-3.8 0.9,0 1.7,0.6 1.7,3.8 -0.1,3.4 -0.8,3.9 -1.7,3.9 z"
       id="path111"
       inkscape:connector-curvature="0"
       style="fill:#ffffff" /><path
       class="st6"
       d="m 42.9,34.7 c 0,-0.6 0,-1.3 -0.1,-2 -0.1,-1.4 -0.6,-1.9 -1.5,-2 l 0,0 c 1.1,-0.2 1.6,-1.1 1.6,-2.4 0,-1.8 -1.1,-2.5 -2.5,-2.5 l -3.4,0 0,9.6 1.5,0 0,-4.2 1.3,0 c 1.1,0 1.4,0.5 1.4,1.5 0,0.7 0,1.2 0.1,1.8 0,0.4 0.1,0.7 0.3,0.8 l 1.7,0 c -0.2,0.1 -0.4,-0.2 -0.4,-0.6 z m -3.1,-4.5 -1.2,0 0,-3.2 1.3,0 c 1,0 1.5,0.5 1.5,1.6 0,1 -0.6,1.6 -1.6,1.6 z"
       id="path113"
       inkscape:connector-curvature="0"
       style="fill:#ffffff" /><path
       class="st6"
       d="m 46.4,25.9 -2.8,9.6 1.6,0 0.6,-2.4 2.8,0 0.6,2.4 1.8,0 -2.6,-9.6 -2,0 z m -0.2,6 1.2,-4.7 0,0 1.1,4.7 c 0,0 -2.3,0 -2.3,0 z"
       id="path115"
       inkscape:connector-curvature="0"
       style="fill:#ffffff" /><path
       class="st6"
       d="m 57.9,32.1 -1.5,0 0,0.2 c 0,0.9 -0.1,2.3 -1.4,2.3 -1.1,0 -1.7,-0.8 -1.7,-3.9 0,-3.1 0.5,-3.8 1.7,-3.8 1.1,0 1.4,1 1.4,1.9 l 0,0.2 1.5,0 0,-0.2 c 0,-1 -0.2,-3 -2.9,-3 -2.5,0 -3.2,1.6 -3.2,5 0,3.4 0.8,5 3.2,5 2.3,0 3,-1.7 3,-3.4 l -0.1,-0.3 0,0 z"
       id="path117"
       inkscape:connector-curvature="0"
       style="fill:#ffffff" /><polygon
       class="st6"
       points="59,25.9 59,35.5 64.3,35.5 64.3,34.2 60.6,34.2 60.6,25.9 "
       id="polygon119"
       style="fill:#ffffff" /><polygon
       class="st6"
       points="70.5,31.1 70.5,29.8 67.1,29.8 67.1,27.2 70.7,27.2 70.7,25.9 65.5,25.9 65.5,35.5 70.9,35.5 70.9,34.2 67.1,34.2 67.1,31.1 "
       id="polygon121"
       style="fill:#ffffff" /></g><g
     id="nyt_x5F_exporter_x5F_info"
     class="st7" /></svg>