<?xml version="1.0" encoding="UTF-8" standalone="no"?>
<!-- Generator: Adobe Illustrator 19.1.0, SVG Export Plug-In . SVG Version: 6.00 Build 0)  -->

<svg
   xmlns:dc="http://purl.org/dc/elements/1.1/"
   xmlns:cc="http://creativecommons.org/ns#"
   xmlns:rdf="http://www.w3.org/1999/02/22-rdf-syntax-ns#"
   xmlns:svg="http://www.w3.org/2000/svg"
   xmlns="http://www.w3.org/2000/svg"
   xmlns:sodipodi="http://sodipodi.sourceforge.net/DTD/sodipodi-0.dtd"
   xmlns:inkscape="http://www.inkscape.org/namespaces/inkscape"
   version="1.1"
   id="Layer_1"
   x="0px"
   y="0px"
   viewBox="0 0 100 100"
   style="enable-background:new 0 0 100 100;"
   xml:space="preserve"
   inkscape:version="0.91 r13725"
   sodipodi:docname="SecurityIdentity_IdentityAccessManagement_AWSSecurityTokenService.svg"><metadata
     id="metadata25"><rdf:RDF><cc:Work
         rdf:about=""><dc:format>image/svg+xml</dc:format><dc:type
           rdf:resource="http://purl.org/dc/dcmitype/StillImage" /></cc:Work></rdf:RDF></metadata><defs
     id="defs23" /><sodipodi:namedview
     pagecolor="#ffffff"
     bordercolor="#666666"
     borderopacity="1"
     objecttolerance="10"
     gridtolerance="10"
     guidetolerance="10"
     inkscape:pageopacity="0"
     inkscape:pageshadow="2"
     inkscape:window-width="1280"
     inkscape:window-height="985"
     id="namedview21"
     showgrid="false"
     inkscape:zoom="7.4579687"
     inkscape:cx="50.26817"
     inkscape:cy="50"
     inkscape:window-x="0"
     inkscape:window-y="0"
     inkscape:window-maximized="1"
     inkscape:current-layer="Layer_1" /><style
     type="text/css"
     id="style3">
	.st0{enable-background:new    ;}
	.st1{fill:#4B612C;}
	.st2{clip-path:url(#SVGID_2_);enable-background:new    ;}
	.st3{clip-path:url(#SVGID_4_);}
	.st4{clip-path:url(#SVGID_6_);}
	.st5{clip-path:url(#SVGID_8_);}
	.st6{fill:#759C3E;}
	.st7{fill:#3C4929;}
	.st8{fill:#FFFFFF;stroke:#3C4929;stroke-width:3;stroke-miterlimit:10;}
	.st9{fill:none;stroke:#3C4929;stroke-width:3;stroke-miterlimit:10;}
	.st10{fill:#D2D3D3;}
	.st11{fill:#7D7C7C;}
	.st12{fill:#373737;}
	.st13{fill:#B7CA9D;}
	.st14{fill:#FFFFFF;}
	.st15{fill:#FFFFFF;stroke:#4F4F4F;stroke-width:3;stroke-miterlimit:10;}
	.st16{fill:none;stroke:#4F4F4F;stroke-width:3;stroke-miterlimit:10;}
	.st17{fill:#D2D3D3;stroke:#7D7C7C;stroke-width:2;stroke-miterlimit:10;}
</style><g
     id="g5"
     transform="matrix(1.8518519,0,0,1.8518519,-42.592595,-43.518521)"><g
       id="g7"><path
         class="st7"
         d="m 34.5,46.5 c 0,0 0,1 0,1 -1.6,0 -2.8,0.7 -2.8,2.3 0,1.5 1.3,3.2 2.8,3.2 0,0 0,0 0,0 1.6,0 2.8,-1.7 2.8,-3.3 0,-1.5 -1.2,-3.2 -2.8,-3.2 z"
         id="path9"
         inkscape:connector-curvature="0"
         style="fill:#3c4929" /><path
         class="st7"
         d="m 23,38 0,28 54,0 0,-28 -54,0 z m 46.8,17.1 -20.4,0.3 c 0,0.1 -0.3,0.6 -0.6,1.3 -0.3,0.6 -0.7,1.1 -1.1,1.7 -0.4,0.5 -0.9,1 -1.5,1.5 -2,1.6 -4.4,2.4 -6.8,2.4 -2.7,0 -5.5,-1 -7.5,-3 C 31.6,59 31.3,58.7 31,58.4 27.2,53.8 27.9,47 32.5,43.3 c 2,-1.6 4.4,-2.4 6.9,-2.4 2.4,0 4.8,0.8 6.8,2.4 1.5,1.1 2.4,2.7 2.5,2.7 l 1.1,0.1 5,-0.1 1.8,3 4.2,-0.4 1.6,1.7 1.5,0.3 3.8,-2.3 3.9,3.7 -1.8,3.1 z"
         id="path11"
         inkscape:connector-curvature="0"
         style="fill:#3c4929" /></g><rect
       x="31.700001"
       y="49"
       class="st7"
       width="5.6999998"
       height="1"
       id="rect13"
       style="fill:#3c4929" /><g
       id="g15"><path
         class="st6"
         d="m 34.5,45.5 c 0,0 0,0 0,0 -1.6,0 -2.8,1.7 -2.8,3.3 0,1.5 1.3,3.2 2.8,3.2 0,0 0,0 0,0 1.6,0 2.8,-1.7 2.8,-3.3 0,-1.5 -1.2,-3.2 -2.8,-3.2 z"
         id="path17"
         inkscape:connector-curvature="0"
         style="fill:#759c3e" /><path
         class="st6"
         d="m 23,35 0,28 54,0 0,-28 -54,0 z m 46.8,17.1 -20.4,0.3 c 0,0.1 -0.3,0.6 -0.6,1.3 -0.3,0.6 -0.7,1.1 -1.1,1.7 -0.4,0.5 -0.9,1 -1.5,1.5 -2,1.6 -4.4,2.4 -6.8,2.4 -2.7,0 -5.5,-1 -7.5,-3 C 31.6,56 31.3,55.7 31,55.4 27.2,50.8 27.9,44 32.5,40.3 c 2,-1.6 4.4,-2.4 6.9,-2.4 2.4,0 4.8,0.8 6.8,2.4 1.5,1.1 2.4,2.7 2.5,2.7 l 1.1,0.1 5,-0.1 1.8,3 4.2,-0.4 1.6,1.7 1.5,0.3 3.8,-2.3 3.9,3.7 -1.8,3.1 z"
         id="path19"
         inkscape:connector-curvature="0"
         style="fill:#759c3e" /></g></g></svg>