<?xml version="1.0" encoding="UTF-8" standalone="no"?>
<!-- Generator: Adobe Illustrator 19.1.0, SVG Export Plug-In . SVG Version: 6.00 Build 0)  -->

<svg
   xmlns:dc="http://purl.org/dc/elements/1.1/"
   xmlns:cc="http://creativecommons.org/ns#"
   xmlns:rdf="http://www.w3.org/1999/02/22-rdf-syntax-ns#"
   xmlns:svg="http://www.w3.org/2000/svg"
   xmlns="http://www.w3.org/2000/svg"
   xmlns:sodipodi="http://sodipodi.sourceforge.net/DTD/sodipodi-0.dtd"
   xmlns:inkscape="http://www.inkscape.org/namespaces/inkscape"
   version="1.1"
   id="Layer_1"
   x="0px"
   y="0px"
   viewBox="0 0 100 100"
   style="enable-background:new 0 0 100 100;"
   xml:space="preserve"
   inkscape:version="0.91 r13725"
   sodipodi:docname="SecurityIdentity_IdentityAccessManagement_AWSSecurityTokenService2.svg"><metadata
     id="metadata54"><rdf:RDF><cc:Work
         rdf:about=""><dc:format>image/svg+xml</dc:format><dc:type
           rdf:resource="http://purl.org/dc/dcmitype/StillImage" /></cc:Work></rdf:RDF></metadata><defs
     id="defs52" /><sodipodi:namedview
     pagecolor="#ffffff"
     bordercolor="#666666"
     borderopacity="1"
     objecttolerance="10"
     gridtolerance="10"
     guidetolerance="10"
     inkscape:pageopacity="0"
     inkscape:pageshadow="2"
     inkscape:window-width="1280"
     inkscape:window-height="985"
     id="namedview50"
     showgrid="false"
     inkscape:zoom="7.4579687"
     inkscape:cx="50.26817"
     inkscape:cy="50"
     inkscape:window-x="0"
     inkscape:window-y="0"
     inkscape:window-maximized="1"
     inkscape:current-layer="Layer_1" /><style
     type="text/css"
     id="style3">
	.st0{enable-background:new    ;}
	.st1{fill:#4B612C;}
	.st2{clip-path:url(#SVGID_2_);enable-background:new    ;}
	.st3{clip-path:url(#SVGID_4_);}
	.st4{clip-path:url(#SVGID_6_);}
	.st5{clip-path:url(#SVGID_8_);}
	.st6{fill:#759C3E;}
	.st7{fill:#3C4929;}
	.st8{fill:#FFFFFF;}
	.st9{font-family:'HelveticaNeueLTStd-Roman';}
	.st10{font-size:10.5399px;}
	.st11{font-size:13.1409px;}
	.st12{fill:#FFFFFF;stroke:#3C4929;stroke-width:3;stroke-miterlimit:10;}
	.st13{fill:none;stroke:#3C4929;stroke-width:3;stroke-miterlimit:10;}
	.st14{fill:#D2D3D3;}
	.st15{fill:#7D7C7C;}
	.st16{fill:#373737;}
	.st17{fill:#B7CA9D;}
	.st18{fill:#FFFFFF;stroke:#4F4F4F;stroke-width:3;stroke-miterlimit:10;}
	.st19{fill:none;stroke:#4F4F4F;stroke-width:3;stroke-miterlimit:10;}
	.st20{fill:#D2D3D3;stroke:#7D7C7C;stroke-width:2;stroke-miterlimit:10;}
</style><g
     id="CloudTrail_9_"
     transform="matrix(1.7857143,0,0,1.7857143,-39.285715,-39.285715)"><text
       transform="translate(34.8963,71.9624)"
       class="st8 st9 st10"
       id="text6"
       style="font-size:10.53989983px;font-family:HelveticaNeueLTStd-Roman;fill:#ffffff">ROOT</text>
<g
       id="g8"><g
         id="g10"><g
           id="g12"><path
             class="st6"
             d="m 70.4,72.4 0,2.5 c 0,0.1 0,0.3 0,0.4 l 0,-2.5 c 0,-0.1 0,-0.2 0,-0.4"
             id="path14"
             inkscape:connector-curvature="0"
             style="fill:#759c3e" /><path
             class="st6"
             d="m 70.4,72.9 0,2.5 c 0,0.2 -0.1,0.3 -0.1,0.5 l 0,-2.5 c 0,-0.2 0,-0.4 0.1,-0.5"
             id="path16"
             inkscape:connector-curvature="0"
             style="fill:#759c3e" /><path
             class="st6"
             d="m 70.2,73.3 0,2.5 C 70.1,76 70.1,76.2 70,76.3 l 0,-2.5 c 0.1,-0.1 0.2,-0.3 0.2,-0.5"
             id="path18"
             inkscape:connector-curvature="0"
             style="fill:#759c3e" /><path
             class="st6"
             d="m 70,73.9 0,2.5 C 69.5,77.3 68.5,78 67.4,78 l 0,-2.5 c 1.1,-0.1 2.1,-0.7 2.6,-1.6"
             id="path20"
             inkscape:connector-curvature="0"
             style="fill:#759c3e" /></g><path
           class="st6"
           d="m 70.4,72.4 0,2.5 c 0,1.6 -1.3,3 -3,3 l 0,-2.5 c 1.6,0 3,-1.3 3,-3 z"
           id="path22"
           inkscape:connector-curvature="0"
           style="fill:#759c3e" /><g
           id="g24"><polygon
             class="st6"
             points="31.8,74.8 68.7,74.9 67.4,77.9 32.6,77.9 "
             id="polygon26"
             style="fill:#759c3e" /></g><g
           id="g28"><path
             class="st6"
             d="m 32.6,75.4 0,2.5 c -1.7,0 -3,-1.3 -3,-3 l 0,-2.5 c 0,1.7 1.4,3 3,3"
             id="path30"
             inkscape:connector-curvature="0"
             style="fill:#759c3e" /></g><path
           class="st6"
           d="m 32.6,75.4 0,2.5 c -1.7,0 -3,-1.3 -3,-3 l 0,-2.5 c 0,1.7 1.4,3 3,3 z"
           id="path32"
           inkscape:connector-curvature="0"
           style="fill:#759c3e" /><g
           id="g34"><path
             class="st6"
             d="m 67.4,22.1 c 1.7,0 3,1.3 3,3 l 0,47.4 c 0,1.6 -1.3,3 -3,3 l -34.8,0 c -1.7,0 -3,-1.3 -3,-3 l 0,-47.5 c 0,-1.6 1.3,-3 3,-3 l 34.8,0 z"
             id="path36"
             inkscape:connector-curvature="0"
             style="fill:#759c3e" /></g></g></g><text
       transform="translate(36.2175,72.4398)"
       class="st8 st9 st11"
       id="text38"
       style="font-size:13.14089966px;font-family:HelveticaNeueLTStd-Roman;fill:#ffffff">STS</text>
<g
       id="g40"><g
         id="g42"><circle
           class="st12"
           cx="49.400002"
           cy="39.700001"
           r="13"
           id="circle44"
           style="fill:#ffffff;stroke:#3c4929;stroke-width:3;stroke-miterlimit:10" /><line
           class="st13"
           x1="50.400002"
           y1="31.5"
           x2="50.400002"
           y2="42.900002"
           id="line46"
           style="fill:none;stroke:#3c4929;stroke-width:3;stroke-miterlimit:10" /></g><line
         class="st13"
         x1="43.900002"
         y1="41.799999"
         x2="50.900002"
         y2="41.799999"
         id="line48"
         style="fill:none;stroke:#3c4929;stroke-width:3;stroke-miterlimit:10" /></g></g></svg>