<?xml version="1.0" encoding="UTF-8" standalone="no"?>
<!-- Generator: Adobe Illustrator 19.1.0, SVG Export Plug-In . SVG Version: 6.00 Build 0)  -->

<svg
   xmlns:dc="http://purl.org/dc/elements/1.1/"
   xmlns:cc="http://creativecommons.org/ns#"
   xmlns:rdf="http://www.w3.org/1999/02/22-rdf-syntax-ns#"
   xmlns:svg="http://www.w3.org/2000/svg"
   xmlns="http://www.w3.org/2000/svg"
   xmlns:sodipodi="http://sodipodi.sourceforge.net/DTD/sodipodi-0.dtd"
   xmlns:inkscape="http://www.inkscape.org/namespaces/inkscape"
   version="1.1"
   id="Layer_1"
   x="0px"
   y="0px"
   viewBox="0 0 100 100"
   style="enable-background:new 0 0 100 100;"
   xml:space="preserve"
   inkscape:version="0.91 r13725"
   sodipodi:docname="SecurityIdentity_IdentityAccessManagement_Permissions.svg"><metadata
     id="metadata20"><rdf:RDF><cc:Work
         rdf:about=""><dc:format>image/svg+xml</dc:format><dc:type
           rdf:resource="http://purl.org/dc/dcmitype/StillImage" /></cc:Work></rdf:RDF></metadata><defs
     id="defs18" /><sodipodi:namedview
     pagecolor="#ffffff"
     bordercolor="#666666"
     borderopacity="1"
     objecttolerance="10"
     gridtolerance="10"
     guidetolerance="10"
     inkscape:pageopacity="0"
     inkscape:pageshadow="2"
     inkscape:window-width="1280"
     inkscape:window-height="985"
     id="namedview16"
     showgrid="false"
     inkscape:zoom="7.4579687"
     inkscape:cx="50.26817"
     inkscape:cy="50"
     inkscape:window-x="0"
     inkscape:window-y="0"
     inkscape:window-maximized="1"
     inkscape:current-layer="Layer_1" /><style
     type="text/css"
     id="style3">
	.st0{enable-background:new    ;}
	.st1{fill:#4B612C;}
	.st2{clip-path:url(#SVGID_2_);enable-background:new    ;}
	.st3{clip-path:url(#SVGID_4_);}
	.st4{clip-path:url(#SVGID_6_);}
	.st5{clip-path:url(#SVGID_8_);}
	.st6{fill:#759C3E;}
	.st7{fill:#3C4929;}
	.st8{fill:#FFFFFF;stroke:#3C4929;stroke-width:3;stroke-miterlimit:10;}
	.st9{fill:none;stroke:#3C4929;stroke-width:3;stroke-miterlimit:10;}
	.st10{fill:#D2D3D3;}
	.st11{fill:#7D7C7C;}
	.st12{fill:#373737;}
	.st13{fill:#E05243;}
	.st14{font-family:'HelveticaNeueLTStd-Roman';}
	.st15{font-size:15.568px;}
	.st16{fill:#B7CA9D;}
	.st17{fill:#FFFFFF;}
	.st18{fill:#FFFFFF;stroke:#4F4F4F;stroke-width:3;stroke-miterlimit:10;}
	.st19{fill:none;stroke:#4F4F4F;stroke-width:3;stroke-miterlimit:10;}
	.st20{fill:#D2D3D3;stroke:#7D7C7C;stroke-width:2;stroke-miterlimit:10;}
</style><g
     id="CloudTrail_12_"
     transform="matrix(1.754386,0,0,1.754386,-37.7193,-37.7193)"><path
       class="st11"
       d="m 71,72.2 c 0,3.3 -3.2,6.3 -7.2,6.3 l -27.6,0 c -4,0 -7.2,-3 -7.2,-6.3 l 0,-42 c 0,-3.3 3.2,-5.7 7.2,-5.7 l 27.6,0 c 4,0 7.2,2.4 7.2,5.7 l 0,42 z"
       id="path6"
       inkscape:connector-curvature="0"
       style="fill:#7d7c7c" /><path
       class="st10"
       d="m 71,69.2 c 0,3.3 -3.5,6.3 -7.4,6.3 l -27.4,0 c -4,0 -7.2,-3 -7.2,-6.3 l 0,-42 c 0,-3.3 3.2,-5.7 7.2,-5.7 l 27.4,0 c 4,0 7.4,2.4 7.4,5.7 l 0,42 z"
       id="path8"
       inkscape:connector-curvature="0"
       style="fill:#d2d3d3" /><polygon
       class="st6"
       points="32.5,32 38.3,37.8 48.2,28 45.9,25.7 38.4,31.9 35.6,28.9 32.5,32 "
       id="polygon10"
       style="fill:#759c3e" /><polygon
       class="st6"
       points="32.5,45.9 38.3,51.7 48.2,41.9 45.9,39.6 38.4,45.9 35.6,42.8 32.5,45.9 "
       id="polygon12"
       style="fill:#759c3e" /><text
       transform="matrix(1.6452,0,0,1,32.3636,65.5244)"
       class="st13 st14 st15"
       id="text14"
       style="font-size:15.56799984px;font-family:HelveticaNeueLTStd-Roman;fill:#e05243">X</text>
</g></svg>