<?xml version="1.0" encoding="UTF-8" standalone="no"?>
<!-- Generator: Adobe Illustrator 19.1.0, SVG Export Plug-In . SVG Version: 6.00 Build 0)  -->

<svg
   xmlns:dc="http://purl.org/dc/elements/1.1/"
   xmlns:cc="http://creativecommons.org/ns#"
   xmlns:rdf="http://www.w3.org/1999/02/22-rdf-syntax-ns#"
   xmlns:svg="http://www.w3.org/2000/svg"
   xmlns="http://www.w3.org/2000/svg"
   xmlns:sodipodi="http://sodipodi.sourceforge.net/DTD/sodipodi-0.dtd"
   xmlns:inkscape="http://www.inkscape.org/namespaces/inkscape"
   version="1.1"
   id="Layer_1"
   x="0px"
   y="0px"
   viewBox="0 0 100 100"
   style="enable-background:new 0 0 100 100;"
   xml:space="preserve"
   inkscape:version="0.91 r13725"
   sodipodi:docname="tmp.svg"><metadata
     id="metadata32"><rdf:RDF><cc:Work
         rdf:about=""><dc:format>image/svg+xml</dc:format><dc:type
           rdf:resource="http://purl.org/dc/dcmitype/StillImage" /></cc:Work></rdf:RDF></metadata><defs
     id="defs30" /><sodipodi:namedview
     pagecolor="#ffffff"
     bordercolor="#666666"
     borderopacity="1"
     objecttolerance="10"
     gridtolerance="10"
     guidetolerance="10"
     inkscape:pageopacity="0"
     inkscape:pageshadow="2"
     inkscape:window-width="1280"
     inkscape:window-height="960"
     id="namedview28"
     showgrid="false"
     inkscape:zoom="2.0753198"
     inkscape:cx="-18.211534"
     inkscape:cy="130.25653"
     inkscape:window-x="0"
     inkscape:window-y="27"
     inkscape:window-maximized="1"
     inkscape:current-layer="Layer_1" /><style
     type="text/css"
     id="style3">
	.st0{enable-background:new    ;}
	.st1{fill:#4B612C;}
	.st2{clip-path:url(#SVGID_2_);enable-background:new    ;}
	.st3{clip-path:url(#SVGID_4_);}
	.st4{clip-path:url(#SVGID_6_);}
	.st5{clip-path:url(#SVGID_8_);}
	.st6{fill:#759C3E;}
	.st7{fill:#3C4929;}
	.st8{fill:#FFFFFF;stroke:#3C4929;stroke-width:3;stroke-miterlimit:10;}
	.st9{fill:none;stroke:#3C4929;stroke-width:3;stroke-miterlimit:10;}
	.st10{fill:#D2D3D3;}
	.st11{fill:#7D7C7C;}
	.st12{fill:#373737;}
	.st13{fill:#B7CA9D;}
	.st14{fill:#FFFFFF;}
	.st15{fill:#FFFFFF;stroke:#4F4F4F;stroke-width:3;stroke-miterlimit:10;}
	.st16{fill:none;stroke:#4F4F4F;stroke-width:3;stroke-miterlimit:10;}
	.st17{fill:#D2D3D3;stroke:#7D7C7C;stroke-width:2;stroke-miterlimit:10;}
</style><g
     id="g4184"><path
       class="st11"
       d="M 9.6979341,73.131958 C 4.6104934,73.131958 3.5999999e-7,68.362482 3.5999999e-7,63.116059 l 0,-36.56598 C 3.5999999e-7,21.303656 4.4515109,17.488076 9.6979341,17.488076 l 65.3418159,0 c 5.08744,0 9.379968,3.81558 9.379968,9.062003 l 0,36.56598 c 0,5.246423 -4.133545,10.015899 -9.379968,10.015899 l -65.3418159,0 z"
       id="path6"
       inkscape:connector-curvature="0"
       style="fill:#7d7c7c" /><path
       class="st14"
       d="M 9.6979341,68.362482 C 4.6104934,68.362482 3.5999999e-7,63.593006 3.5999999e-7,58.346583 l 0,-36.565979 C 3.5999999e-7,16.53418 4.4515109,12.7186 9.6979341,12.7186 l 65.3418159,0 c 5.08744,0 9.379968,3.81558 9.379968,9.062004 l 0,36.565979 c 0,5.246423 -4.133545,10.015899 -9.379968,10.015899 l -65.3418159,0 z"
       id="path8"
       inkscape:connector-curvature="0"
       style="fill:#ffffff" /><g
       transform="matrix(1.5898252,0,0,1.5898252,-30.683626,-30.683628)"
       id="g10"><path
         class="st11"
         d="m 57.8,46.7 3.5,3.3 -1.6,2.9 -18.1,0.3 c 0,0.1 -0.2,0.6 -0.6,1.2 -0.3,0.5 -0.6,1 -1,1.5 -0.4,0.5 -0.8,0.9 -1.3,1.3 -1.8,1.5 -3.9,2.2 -6.1,2.2 -2.4,0 -4.9,-0.9 -6.7,-2.7 -0.3,-0.2 -0.5,-0.5 -0.8,-0.8 -3.4,-4.1 -2.8,-10.1 1.4,-13.5 1.8,-1.5 4,-2.2 6.1,-2.2 2.2,0 4.3,0.7 6.1,2.1 1.3,1 2.2,2.4 2.2,2.4 l 1,0 4.4,-0.1 1.6,2.7 3.8,-0.4 1.4,1.5 1.3,0.3 3.4,-2 z M 28.4,52 c 1.4,0 2.5,-1.2 2.5,-2.5 0,-1.4 -1.2,-2.5 -2.6,-2.5 l 0,0 c -1.4,0 -2.5,1.2 -2.5,2.6 0,1.3 1.2,2.4 2.6,2.4 l 0,0"
         id="path12"
         inkscape:connector-curvature="0"
         style="fill:#7d7c7c" /></g><g
       transform="matrix(1.5898252,0,0,1.5898252,-30.683626,-30.683628)"
       id="g14"><path
         class="st6"
         d="M 33.8,37.8 30.3,34.6 31.9,31.7 50,31.4 c 0,-0.1 0.2,-0.6 0.6,-1.2 0.3,-0.5 0.6,-1 1,-1.5 0.4,-0.5 0.8,-0.9 1.3,-1.3 1.8,-1.5 3.9,-2.2 6.1,-2.2 2.4,0 4.9,0.9 6.7,2.7 0.3,0.2 0.5,0.5 0.8,0.8 3.4,4.1 2.8,10.1 -1.4,13.5 -1.8,1.5 -4,2.2 -6.1,2.2 -2.2,0 -4.3,-0.7 -6.1,-2.1 -1.3,-1 -2.2,-2.4 -2.2,-2.4 l -1,0 -4.4,0 -1.6,-2.7 -3.8,0.4 -1.4,-1.5 -1.3,-0.3 -3.4,2 z m 29.4,-5.3 c -1.4,0 -2.5,1.2 -2.5,2.5 0,1.4 1.2,2.5 2.6,2.5 l 0,0 c 1.4,0 2.5,-1.2 2.5,-2.6 0,-1.2 -1.2,-2.4 -2.6,-2.4 l 0,0"
         id="path16"
         inkscape:connector-curvature="0"
         style="fill:#759c3e" /></g><g
       transform="translate(126.72746,93.47957)"
       id="g4178"><circle
         style="color:#000000;clip-rule:nonzero;display:inline;overflow:visible;visibility:visible;opacity:1;isolation:auto;mix-blend-mode:normal;color-interpolation:sRGB;color-interpolation-filters:linearRGB;solid-color:#000000;solid-opacity:1;fill:#4f4f4f;fill-opacity:1;fill-rule:nonzero;stroke:none;marker:none;color-rendering:auto;image-rendering:auto;shape-rendering:auto;text-rendering:auto;enable-background:accumulate"
         id="path4156"
         cx="-50.363716"
         cy="-24.013109"
         r="22.934347" /><circle
         style="color:#000000;clip-rule:nonzero;display:inline;overflow:visible;visibility:visible;opacity:1;isolation:auto;mix-blend-mode:normal;color-interpolation:sRGB;color-interpolation-filters:linearRGB;solid-color:#000000;solid-opacity:1;fill:#ffffff;fill-opacity:1;fill-rule:nonzero;stroke:none;marker:none;color-rendering:auto;image-rendering:auto;shape-rendering:auto;text-rendering:auto;enable-background:accumulate"
         id="path4158"
         cx="-50.363716"
         cy="-24.013109"
         r="18.399307" /><rect
         style="color:#000000;clip-rule:nonzero;display:inline;overflow:visible;visibility:visible;opacity:1;isolation:auto;mix-blend-mode:normal;color-interpolation:sRGB;color-interpolation-filters:linearRGB;solid-color:#000000;solid-opacity:1;fill:#4f4f4f;fill-opacity:1;fill-rule:nonzero;stroke:none;stroke-width:1;stroke-linecap:butt;stroke-linejoin:miter;stroke-miterlimit:4;stroke-dasharray:none;stroke-dashoffset:0;stroke-opacity:1;marker:none;color-rendering:auto;image-rendering:auto;shape-rendering:auto;text-rendering:auto;enable-background:accumulate"
         id="rect4156"
         width="12.582494"
         height="4.5840912"
         x="-60.843929"
         y="-25.931324"
         ry="2.2920456" /><rect
         style="color:#000000;clip-rule:nonzero;display:inline;overflow:visible;visibility:visible;opacity:1;isolation:auto;mix-blend-mode:normal;color-interpolation:sRGB;color-interpolation-filters:linearRGB;solid-color:#000000;solid-opacity:1;fill:#4f4f4f;fill-opacity:1;fill-rule:nonzero;stroke:none;stroke-width:1;stroke-linecap:butt;stroke-linejoin:miter;stroke-miterlimit:4;stroke-dasharray:none;stroke-dashoffset:0;stroke-opacity:1;marker:none;color-rendering:auto;image-rendering:auto;shape-rendering:auto;text-rendering:auto;enable-background:accumulate"
         id="rect4172"
         width="4.698071"
         height="18.671822"
         x="-52.883411"
         y="-40.098892"
         ry="1.9315677" /></g></g></svg>