<?xml version="1.0" encoding="UTF-8" standalone="no"?>
<!-- Generator: Adobe Illustrator 19.1.0, SVG Export Plug-In . SVG Version: 6.00 Build 0)  -->

<svg
   xmlns:dc="http://purl.org/dc/elements/1.1/"
   xmlns:cc="http://creativecommons.org/ns#"
   xmlns:rdf="http://www.w3.org/1999/02/22-rdf-syntax-ns#"
   xmlns:svg="http://www.w3.org/2000/svg"
   xmlns="http://www.w3.org/2000/svg"
   xmlns:sodipodi="http://sodipodi.sourceforge.net/DTD/sodipodi-0.dtd"
   xmlns:inkscape="http://www.inkscape.org/namespaces/inkscape"
   version="1.1"
   id="Layer_1"
   x="0px"
   y="0px"
   viewBox="0 0 100 100"
   style="enable-background:new 0 0 100 100;"
   xml:space="preserve"
   inkscape:version="0.91 r13725"
   sodipodi:docname="SecurityIdentity_IdentityAccessManagement_LongTermSecurityCredential.svg"><metadata
     id="metadata22"><rdf:RDF><cc:Work
         rdf:about=""><dc:format>image/svg+xml</dc:format><dc:type
           rdf:resource="http://purl.org/dc/dcmitype/StillImage" /></cc:Work></rdf:RDF></metadata><defs
     id="defs20" /><sodipodi:namedview
     pagecolor="#ffffff"
     bordercolor="#666666"
     borderopacity="1"
     objecttolerance="10"
     gridtolerance="10"
     guidetolerance="10"
     inkscape:pageopacity="0"
     inkscape:pageshadow="2"
     inkscape:window-width="1280"
     inkscape:window-height="985"
     id="namedview18"
     showgrid="false"
     inkscape:zoom="7.4579687"
     inkscape:cx="50.26817"
     inkscape:cy="50"
     inkscape:window-x="0"
     inkscape:window-y="0"
     inkscape:window-maximized="1"
     inkscape:current-layer="Layer_1" /><style
     type="text/css"
     id="style3">
	.st0{enable-background:new    ;}
	.st1{fill:#4B612C;}
	.st2{clip-path:url(#SVGID_2_);enable-background:new    ;}
	.st3{clip-path:url(#SVGID_4_);}
	.st4{clip-path:url(#SVGID_6_);}
	.st5{clip-path:url(#SVGID_8_);}
	.st6{fill:#759C3E;}
	.st7{fill:#3C4929;}
	.st8{fill:#FFFFFF;stroke:#3C4929;stroke-width:3;stroke-miterlimit:10;}
	.st9{fill:none;stroke:#3C4929;stroke-width:3;stroke-miterlimit:10;}
	.st10{fill:#D2D3D3;}
	.st11{fill:#7D7C7C;}
	.st12{fill:#373737;}
	.st13{fill:#B7CA9D;}
	.st14{fill:#FFFFFF;}
	.st15{fill:#FFFFFF;stroke:#4F4F4F;stroke-width:3;stroke-miterlimit:10;}
	.st16{fill:none;stroke:#4F4F4F;stroke-width:3;stroke-miterlimit:10;}
	.st17{fill:#D2D3D3;stroke:#7D7C7C;stroke-width:2;stroke-miterlimit:10;}
</style><g
     id="CloudTrail_14_"
     transform="matrix(1.8832392,0,0,1.8832392,-44.256122,-43.973636)"><path
       class="st11"
       d="m 29.6,69.9 c -3.2,0 -6.1,-3 -6.1,-6.3 l 0,-23 c 0,-3.3 2.8,-5.7 6.1,-5.7 l 41.1,0 c 3.2,0 5.9,2.4 5.9,5.7 l 0,23 c 0,3.3 -2.6,6.3 -5.9,6.3 l -41.1,0 z"
       id="path6"
       inkscape:connector-curvature="0"
       style="fill:#7d7c7c" /><path
       class="st14"
       d="m 29.6,66.9 c -3.2,0 -6.1,-3 -6.1,-6.3 l 0,-23 c 0,-3.3 2.8,-5.7 6.1,-5.7 l 41.1,0 c 3.2,0 5.9,2.4 5.9,5.7 l 0,23 c 0,3.3 -2.6,6.3 -5.9,6.3 l -41.1,0 z"
       id="path8"
       inkscape:connector-curvature="0"
       style="fill:#ffffff" /><g
       id="g10"><path
         class="st11"
         d="m 64.1,51.4 3.5,3.3 -1.6,2.9 -18.1,0.3 c 0,0.1 -0.2,0.6 -0.6,1.2 -0.3,0.5 -0.6,1 -1,1.5 C 46,61 45.5,61.4 45,61.8 43.2,63.3 41.1,64 38.9,64 36.5,64 34,63.1 32.2,61.3 31.9,61.1 31.7,60.8 31.4,60.5 28,56.4 28.6,50.4 32.8,47 c 1.8,-1.5 4,-2.2 6.1,-2.2 2.2,0 4.3,0.7 6.1,2.1 1.3,1 2.2,2.4 2.2,2.4 l 1,0 4.4,-0.1 1.6,2.7 3.8,-0.4 1.4,1.5 1.3,0.3 3.4,-1.9 z m -29.4,5.4 c 1.4,0 2.5,-1.2 2.5,-2.5 0,-1.4 -1.2,-2.5 -2.6,-2.5 0,0 0,0 0,0 -1.4,0 -2.5,1.2 -2.5,2.6 0,1.2 1.1,2.4 2.6,2.4 -0.1,0 0,0 0,0"
         id="path12"
         inkscape:connector-curvature="0"
         style="fill:#7d7c7c" /></g><g
       id="g14"><path
         class="st6"
         d="m 40.1,42.6 -3.5,-3.3 1.6,-2.9 18.1,-0.3 c 0,-0.1 0.2,-0.6 0.6,-1.2 0.3,-0.5 0.6,-1 1,-1.5 0.4,-0.5 0.8,-0.9 1.3,-1.3 1.8,-1.5 3.9,-2.2 6.1,-2.2 2.4,0 4.9,0.9 6.7,2.7 0.3,0.2 0.5,0.5 0.8,0.8 3.4,4.1 2.8,10.1 -1.4,13.5 -1.8,1.5 -4,2.2 -6.1,2.2 C 63.1,49.1 61,48.4 59.2,47 57.9,46 57,44.6 57,44.6 l -1,0 -4.4,0.1 -1.6,-2.7 -3.8,0.4 -1.4,-1.5 -1.3,-0.3 -3.4,2 z m 29.4,-5.3 c -1.4,0 -2.5,1.2 -2.5,2.5 0,1.4 1.2,2.5 2.6,2.5 0,0 0,0 0,0 1.4,0 2.5,-1.2 2.5,-2.6 -0.1,-1.3 -1.2,-2.4 -2.6,-2.4 0,0 0,0 0,0"
         id="path16"
         inkscape:connector-curvature="0"
         style="fill:#759c3e" /></g></g></svg>