<?xml version="1.0" encoding="UTF-8" standalone="no"?>
<!-- Generator: Adobe Illustrator 19.1.0, SVG Export Plug-In . SVG Version: 6.00 Build 0)  -->

<svg
   xmlns:dc="http://purl.org/dc/elements/1.1/"
   xmlns:cc="http://creativecommons.org/ns#"
   xmlns:rdf="http://www.w3.org/1999/02/22-rdf-syntax-ns#"
   xmlns:svg="http://www.w3.org/2000/svg"
   xmlns="http://www.w3.org/2000/svg"
   xmlns:sodipodi="http://sodipodi.sourceforge.net/DTD/sodipodi-0.dtd"
   xmlns:inkscape="http://www.inkscape.org/namespaces/inkscape"
   version="1.1"
   id="Layer_1"
   x="0px"
   y="0px"
   viewBox="0 0 100 100"
   style="enable-background:new 0 0 100 100;"
   xml:space="preserve"
   inkscape:version="0.91 r13725"
   sodipodi:docname="SecurityIdentity_IdentityAccessManagement_Role.svg"><metadata
     id="metadata27"><rdf:RDF><cc:Work
         rdf:about=""><dc:format>image/svg+xml</dc:format><dc:type
           rdf:resource="http://purl.org/dc/dcmitype/StillImage" /></cc:Work></rdf:RDF></metadata><defs
     id="defs25" /><sodipodi:namedview
     pagecolor="#ffffff"
     bordercolor="#666666"
     borderopacity="1"
     objecttolerance="10"
     gridtolerance="10"
     guidetolerance="10"
     inkscape:pageopacity="0"
     inkscape:pageshadow="2"
     inkscape:window-width="1280"
     inkscape:window-height="985"
     id="namedview23"
     showgrid="false"
     inkscape:zoom="7.4579687"
     inkscape:cx="50.26817"
     inkscape:cy="50"
     inkscape:window-x="0"
     inkscape:window-y="0"
     inkscape:window-maximized="1"
     inkscape:current-layer="Layer_1" /><style
     type="text/css"
     id="style3">
	.st0{enable-background:new    ;}
	.st1{fill:#4B612C;}
	.st2{clip-path:url(#SVGID_2_);enable-background:new    ;}
	.st3{clip-path:url(#SVGID_4_);}
	.st4{clip-path:url(#SVGID_6_);}
	.st5{clip-path:url(#SVGID_8_);}
	.st6{fill:#759C3E;}
	.st7{fill:#3C4929;}
	.st8{fill:#FFFFFF;stroke:#3C4929;stroke-width:3;stroke-miterlimit:10;}
	.st9{fill:none;stroke:#3C4929;stroke-width:3;stroke-miterlimit:10;}
	.st10{fill:#D2D3D3;}
	.st11{fill:#7D7C7C;}
	.st12{fill:#373737;}
	.st13{fill:#B7CA9D;}
	.st14{fill:#FFFFFF;}
	.st15{fill:#FFFFFF;stroke:#4F4F4F;stroke-width:3;stroke-miterlimit:10;}
	.st16{fill:none;stroke:#4F4F4F;stroke-width:3;stroke-miterlimit:10;}
	.st17{fill:#D2D3D3;stroke:#7D7C7C;stroke-width:2;stroke-miterlimit:10;}
</style><g
     id="CloudTrail_13_"
     transform="matrix(1.2128333,0,0,1.2128333,-10.853839,-10.630533)"><g
       id="Um7reR_1_"><g
         id="g7"><g
           id="g9"><path
             class="st1"
             d="M 16.7,81 C 16.1,80.7 15.5,80.5 14.9,80.2 9,77.2 7.6,73.7 10.2,67.6 c 1.1,-2.5 3,-4.6 4.5,-6.9 0.6,-0.9 1.2,-1.7 1.6,-2.7 2.2,-4.7 2,-10 3.7,-14.8 1.9,-5.3 4.2,-10.3 7.4,-15 C 33,19.9 41,16.4 50.6,15.1 c 7.2,-0.9 13.4,1.5 19.3,5.2 8.5,5.2 13.9,12.6 16,22.3 0.6,2.8 1.2,5.5 2.7,8 0.2,0.4 0.5,0.9 0.8,1.2 2.6,2.9 2.7,5.7 0.1,8.6 -2.7,3.1 -6,5.3 -9.5,7.2 C 71.9,72 64,76.3 56.1,80.5 54,81.6 51.7,82.7 49.4,83.4 39.5,87.2 23.5,83.7 16.7,81 Z m 69,-30.6 c -0.3,-0.7 -0.5,-1.3 -0.8,-2 -0.3,-0.5 -0.7,-1 -0.8,-1.5 C 83.8,45.6 83.7,44.3 83.6,43 83.5,42.3 83.5,41.7 83.3,41 82.1,36.5 79.6,32.6 76.9,29 75.8,27.6 74.2,26.6 72.8,25.4 69.3,22.5 65.6,20 61.3,18.6 c -0.7,-0.2 -1.4,-0.5 -2,-0.7 -0.2,-0.1 -0.4,-0.3 -0.6,-0.3 -3.5,0 -7.1,-0.1 -10.6,0.2 -2.9,0.3 -6,1 -8.3,3 -1.8,1.5 -3.3,3.4 -4.8,5.2 -3.9,5 -6.3,10.8 -8.6,16.6 -1.3,3.1 -1.9,6.5 -2.8,9.8 -0.5,1.8 -1,3.7 -1.7,5.5 -0.3,0.7 -1,1.6 -1.6,1.6 -0.5,0.1 -1.1,-0.9 -1.7,-1.4 -0.7,1.5 -0.2,3.1 0.8,4.5 2.4,3.6 5.9,5.8 10.1,6.9 5.2,1.3 10.3,2.5 15.8,1.8 4.4,-0.6 8.8,-0.7 13.3,-1.1 1.6,-0.1 3.2,-0.2 4.8,-0.3 C 58,72 52.6,73.7 47,73.7 42,73.7 37.1,72.6 32.2,72 27.7,71.5 23.3,70.9 18.8,70.5 c -1.4,-0.1 -2.5,0.5 -2.9,1.8 -0.8,2.6 1.3,6.6 3.9,7.6 5.8,2 11.7,3.2 17.8,3.4 5.3,0.2 10.4,-1.1 15.1,-3.5 6.4,-3.3 12.7,-6.8 19.1,-10.2 2.1,-1.1 4.2,-2.2 6.5,-3.5 -2.5,-1.2 -3.1,-3 -2.1,-5.2 0.9,0.3 1.8,0.5 2.7,0.8 -0.1,1.3 -0.3,2.6 -0.4,4.3 4.1,-2.1 7.4,-4.4 9.9,-7.7 1.1,-1.5 0.7,-2.9 -0.3,-4.4 -0.9,-1.2 -1.6,-2.4 -2.4,-3.5 z"
             id="path11"
             inkscape:connector-curvature="0"
             style="fill:#4b612c" /><path
             class="st6"
             d="m 61.2,18.6 c 4.3,1.4 8,3.9 11.5,6.8 -1.2,-0.1 -2.5,-0.3 -3.7,-0.1 -4.5,0.7 -7.7,3.5 -10.3,7 -3.7,4.9 -4.5,10.6 -4.2,16.5 0.1,2.7 0.6,5.5 2.3,8.3 0.3,-1.9 0.4,-3.3 0.7,-4.8 0.8,-4.9 2.1,-9.5 5.1,-13.6 4.7,-6.5 14.2,-6.6 18.7,-0.1 0.9,1.4 1.6,3 2.3,4.4 0.2,1.3 0.3,2.6 0.5,3.9 0.1,0.5 0.6,1 0.8,1.5 -0.4,3.6 -2.9,5.6 -5.7,7.1 -3.5,2 -7.2,3.9 -10.9,5.3 -6.5,2.5 -13.3,3.9 -20.2,4.7 -3.7,0.4 -7.4,0.4 -11.1,0 -4,-0.4 -8,-1.4 -11.9,-2.1 -0.9,-0.2 -1.8,0 -2.7,0 0,0.2 0,0.4 -0.1,0.6 2,0.6 4,1.2 6.1,1.8 4.9,1.3 9.8,3.1 15.1,2.5 4.3,-0.5 8.6,-1.2 12.8,-2 9.6,-1.8 18.6,-5 26.3,-11.2 1.5,-1.2 3.2,-2.4 3.1,-4.7 0.8,1.2 1.5,2.4 2.3,3.5 1,1.4 1.4,2.9 0.3,4.4 -2.5,3.3 -5.8,5.5 -9.9,7.6 0.2,-1.7 0.3,-3 0.4,-4.3 2,-1.4 4,-2.7 6,-4.1 -0.1,-0.2 -0.1,-0.3 -0.2,-0.5 -0.9,0.1 -1.9,0 -2.7,0.4 -2,1 -3.9,2.3 -5.8,3.4 -1,2.3 -0.4,4 2.1,5.2 -2.4,1.3 -4.5,2.3 -6.5,3.5 -6.4,3.4 -12.7,6.9 -19.1,10.2 -4.7,2.4 -9.8,3.7 -15.1,3.5 -6.1,-0.2 -12,-1.4 -17.8,-3.4 -2.6,-0.9 -4.7,-5 -3.9,-7.6 0.4,-1.3 1.6,-2 2.9,-1.8 4.5,0.5 8.9,1 13.4,1.5 4.9,0.6 9.9,1.7 14.8,1.7 5.6,0 11,-1.7 16.2,-3.9 -1.6,0.1 -3.2,0.2 -4.8,0.3 -4.4,0.3 -8.9,0.5 -13.3,1.1 -5.5,0.7 -10.6,-0.5 -15.8,-1.8 -4.2,-1 -7.7,-3.3 -10.1,-6.9 -0.9,-1.4 -1.5,-3 -0.8,-4.5 0.6,0.5 1.2,1.5 1.7,1.4 0.6,-0.1 1.4,-0.9 1.6,-1.6 0.7,-1.8 1.1,-3.6 1.7,-5.5 0.9,-3.3 1.6,-6.7 2.8,-9.8 2.3,-5.8 4.8,-11.6 8.6,-16.6 1.4,-1.9 3,-3.7 4.8,-5.2 2.3,-2 5.3,-2.7 8.3,-3 3.5,-0.3 7,-0.2 10.6,-0.2 0.2,0 0.4,0.2 0.6,0.3 -2.2,-0.1 -4.2,0.6 -5.8,2 -1.5,1.4 -3.1,2.9 -4.4,4.5 -5.8,7.6 -7.6,16.6 -7.8,25.9 -0.1,3.2 0.7,6.4 2.6,9.1 1.1,1.5 2.4,2.4 4.5,2.3 C 47.9,60.8 47.7,60.4 47.5,60 45.8,56.2 45,52.2 44.9,48 c -0.1,-7.3 2.4,-13.8 5.9,-20 2.4,-4.3 5.4,-8 10.4,-9.4 z"
             id="path13"
             inkscape:connector-curvature="0"
             style="fill:#759c3e" /><path
             class="st13"
             d="m 83.6,42.9 c -0.8,-1.5 -1.4,-3.1 -2.3,-4.4 -4.5,-6.5 -14,-6.4 -18.7,0.1 -2.9,4.1 -4.3,8.8 -5.1,13.6 -0.2,1.5 -0.4,2.9 -0.7,4.8 -1.7,-2.8 -2.1,-5.6 -2.3,-8.3 -0.3,-5.9 0.6,-11.6 4.2,-16.5 2.6,-3.5 5.7,-6.4 10.3,-7 1.2,-0.2 2.4,0.1 3.7,0.1 1.4,1.2 3.1,2.2 4.1,3.6 2.8,3.6 5.2,7.5 6.4,12 0.3,0.7 0.3,1.4 0.4,2 z"
             id="path15"
             inkscape:connector-curvature="0"
             style="fill:#b7ca9d" /><path
             class="st13"
             d="m 61.2,18.6 c -5.1,1.4 -8,5.2 -10.4,9.5 -3.5,6.2 -6,12.8 -5.9,20 0.1,4.1 0.9,8.2 2.6,12 0.2,0.4 0.3,0.8 0.6,1.5 -2.1,0 -3.4,-0.8 -4.5,-2.3 -2,-2.7 -2.7,-5.9 -2.6,-9.1 0.2,-9.3 2,-18.3 8.1,-25.8 1.3,-1.6 2.8,-3.1 4.4,-4.5 1.6,-1.4 3.6,-2.1 5.8,-2 0.6,0.2 1.3,0.4 1.9,0.7 z"
             id="path17"
             inkscape:connector-curvature="0"
             style="fill:#b7ca9d" /><path
             class="st13"
             d="m 85.7,50.4 c 0,2.3 -1.6,3.5 -3.1,4.7 -7.7,6.2 -16.7,9.4 -26.3,11.2 -4.3,0.8 -8.5,1.5 -12.8,2 -5.2,0.6 -10.1,-1.2 -15.1,-2.5 -2,-0.5 -4,-1.2 -6.1,-1.8 0,-0.2 0,-0.4 0.1,-0.6 0.9,0 1.8,-0.1 2.7,0 4,0.7 7.9,1.7 11.9,2.1 3.7,0.4 7.4,0.4 11.1,0 6.9,-0.8 13.7,-2.2 20.2,-4.7 3.8,-1.5 7.4,-3.3 10.9,-5.3 2.8,-1.6 5.3,-3.5 5.7,-7.1 0.3,0.6 0.6,1.3 0.8,2 z"
             id="path19"
             inkscape:connector-curvature="0"
             style="fill:#b7ca9d" /><path
             class="st13"
             d="m 76.2,60.8 c 1.9,-1.2 3.8,-2.4 5.8,-3.4 0.8,-0.4 1.8,-0.3 2.7,-0.4 0.1,0.2 0.1,0.3 0.2,0.5 -2,1.4 -4,2.7 -6,4.1 -1,-0.3 -1.9,-0.5 -2.7,-0.8 z"
             id="path21"
             inkscape:connector-curvature="0"
             style="fill:#b7ca9d" /></g></g></g></g></svg>