<?xml version="1.0" encoding="UTF-8" standalone="no"?>
<!-- Generator: Adobe Illustrator 19.1.0, SVG Export Plug-In . SVG Version: 6.00 Build 0)  -->

<svg
   xmlns:dc="http://purl.org/dc/elements/1.1/"
   xmlns:cc="http://creativecommons.org/ns#"
   xmlns:rdf="http://www.w3.org/1999/02/22-rdf-syntax-ns#"
   xmlns:svg="http://www.w3.org/2000/svg"
   xmlns="http://www.w3.org/2000/svg"
   xmlns:xlink="http://www.w3.org/1999/xlink"
   xmlns:sodipodi="http://sodipodi.sourceforge.net/DTD/sodipodi-0.dtd"
   xmlns:inkscape="http://www.inkscape.org/namespaces/inkscape"
   version="1.1"
   id="Layer_1"
   x="0px"
   y="0px"
   viewBox="0 0 100 100"
   style="enable-background:new 0 0 100 100;"
   xml:space="preserve"
   inkscape:version="0.91 r13725"
   sodipodi:docname="SecurityIdentity_IdentityAccessManagement_AddOn.svg"><metadata
     id="metadata83"><rdf:RDF><cc:Work
         rdf:about=""><dc:format>image/svg+xml</dc:format><dc:type
           rdf:resource="http://purl.org/dc/dcmitype/StillImage" /></cc:Work></rdf:RDF></metadata><defs
     id="defs81" /><sodipodi:namedview
     pagecolor="#ffffff"
     bordercolor="#666666"
     borderopacity="1"
     objecttolerance="10"
     gridtolerance="10"
     guidetolerance="10"
     inkscape:pageopacity="0"
     inkscape:pageshadow="2"
     inkscape:window-width="1280"
     inkscape:window-height="985"
     id="namedview79"
     showgrid="false"
     inkscape:zoom="7.4579687"
     inkscape:cx="50.26817"
     inkscape:cy="50"
     inkscape:window-x="0"
     inkscape:window-y="0"
     inkscape:window-maximized="1"
     inkscape:current-layer="Layer_1" /><style
     type="text/css"
     id="style3">
	.st0{enable-background:new    ;}
	.st1{fill:#4B612C;}
	.st2{clip-path:url(#SVGID_2_);enable-background:new    ;}
	.st3{clip-path:url(#SVGID_4_);}
	.st4{clip-path:url(#SVGID_6_);}
	.st5{clip-path:url(#SVGID_8_);}
	.st6{fill:#759C3E;}
	.st7{fill:#3C4929;}
	.st8{fill:#FFFFFF;stroke:#3C4929;stroke-width:3;stroke-miterlimit:10;}
	.st9{fill:none;stroke:#3C4929;stroke-width:3;stroke-miterlimit:10;}
	.st10{fill:#D2D3D3;}
	.st11{fill:#7D7C7C;}
	.st12{fill:#373737;}
	.st13{fill:#B7CA9D;}
	.st14{fill:#FFFFFF;}
	.st15{fill:#FFFFFF;stroke:#4F4F4F;stroke-width:3;stroke-miterlimit:10;}
	.st16{fill:none;stroke:#4F4F4F;stroke-width:3;stroke-miterlimit:10;}
	.st17{fill:#D2D3D3;stroke:#7D7C7C;stroke-width:2;stroke-miterlimit:10;}
</style><g
     id="g5"
     transform="matrix(2.3226726,0,0,2.3226726,-66.071091,-66.365897)"><g
       class="st0"
       id="g7"
       style="enable-background:new"><g
         id="g9"><polygon
           class="st1"
           points="69.8,52.3 71.5,49 71.5,51.6 69.8,55 "
           id="polygon11"
           style="fill:#4b612c" /></g><g
         id="g13"><polygon
           class="st1"
           points="49,52.4 70.5,51.6 69.8,55 49.4,55.2 "
           id="polygon15"
           style="fill:#4b612c" /></g><g
         id="g17"><defs
           id="defs19"><path
             id="SVGID_1_"
             d="m 49.4,52.6 0,2.6 c 0,0.1 -0.3,0.6 -0.6,1.3 l 0,-2.6 c 0.3,-0.6 0.5,-1.1 0.6,-1.3 z"
             inkscape:connector-curvature="0" /></defs><use
           xlink:href="#SVGID_1_"
           style="overflow:visible;fill:#4b612c"
           id="use22"
           x="0"
           y="0"
           width="100%"
           height="100%" /><clipPath
           id="SVGID_2_"><use
             xlink:href="#SVGID_1_"
             style="overflow:visible"
             id="use25"
             x="0"
             y="0"
             width="100%"
             height="100%" /></clipPath><g
           class="st2"
           id="g27"
           clip-path="url(#SVGID_2_)"
           style="enable-background:new"><path
             class="st1"
             d="m 49.4,52.6 0,2.6 c 0,0.1 -0.6,1.3 -1,1.9 l -0.3,-3.2 c 0.4,-0.6 1.2,-1.1 1.3,-1.3"
             id="path29"
             inkscape:connector-curvature="0"
             style="fill:#4b612c" /><path
             class="st1"
             d="m 49.4,52.6 0,2.6 c 0,0 0,0 0,0 l 0,-2.6 c 0,0 0,0 0,0"
             id="path31"
             inkscape:connector-curvature="0"
             style="fill:#4b612c" /></g></g><g
         id="g33"><defs
           id="defs35"><path
             id="SVGID_3_"
             d="m 49,53.5 -0.2,3 c -0.3,0.6 -0.7,1.2 -1.2,1.7 l 0.1,-2.7 c 0.4,-0.4 1,-1.4 1.3,-2 z"
             inkscape:connector-curvature="0" /></defs><use
           xlink:href="#SVGID_3_"
           style="overflow:visible;fill:#4b612c"
           id="use38"
           x="0"
           y="0"
           width="100%"
           height="100%" /><clipPath
           id="SVGID_4_"><use
             xlink:href="#SVGID_3_"
             style="overflow:visible"
             id="use41"
             x="0"
             y="0"
             width="100%"
             height="100%" /></clipPath><g
           class="st3"
           id="g43"
           clip-path="url(#SVGID_4_)"><path
             class="st1"
             d="m 49.2,53.1 -0.3,3.3 c -0.3,0.5 -0.9,1.5 -1.3,2 l 0,-2.7 c 0.3,-0.5 1.3,-2.1 1.6,-2.6"
             id="path45"
             inkscape:connector-curvature="0"
             style="fill:#4b612c" /></g></g><g
         id="g47"><defs
           id="defs49"><path
             id="SVGID_5_"
             d="m 47.7,55.2 -0.1,3 c -0.4,0.5 -0.9,1 -1.5,1.5 L 45.9,57 c 0.5,-0.4 1.4,-1.3 1.8,-1.8 z"
             inkscape:connector-curvature="0" /></defs><use
           xlink:href="#SVGID_5_"
           style="overflow:visible;fill:#4b612c"
           id="use52"
           x="0"
           y="0"
           width="100%"
           height="100%" /><clipPath
           id="SVGID_6_"><use
             xlink:href="#SVGID_5_"
             style="overflow:visible"
             id="use55"
             x="0"
             y="0"
             width="100%"
             height="100%" /></clipPath><g
           class="st4"
           id="g57"
           clip-path="url(#SVGID_6_)"><path
             class="st1"
             d="m 47.9,55.2 -0.1,2.9 c -0.4,0.5 -1,1.1 -1.5,1.6 l -0.5,-2.8 c 0.4,-0.5 1.6,-1.2 2.1,-1.7"
             id="path59"
             inkscape:connector-curvature="0"
             style="fill:#4b612c" /></g></g><g
         id="g61"><defs
           id="defs63"><path
             id="SVGID_7_"
             d="m 28.5,51.3 0,-2.6 c 0,2.4 0.8,4.8 2.5,6.8 0.3,0.3 0.6,0.6 0.9,0.9 2.1,2 4.8,3 7.5,3 2.4,0 4.8,-0.8 6.8,-2.4 l 0,2.6 c -2,1.6 -4.4,2.4 -6.8,2.4 -2.7,0 -5.5,-1 -7.5,-3 -0.3,-0.3 -0.6,-0.6 -0.9,-0.9 -1.7,-2 -2.5,-4.4 -2.5,-6.8 z"
             inkscape:connector-curvature="0" /></defs><use
           xlink:href="#SVGID_7_"
           style="overflow:visible;fill:#4b612c"
           id="use66"
           x="0"
           y="0"
           width="100%"
           height="100%" /><clipPath
           id="SVGID_8_"><use
             xlink:href="#SVGID_7_"
             style="overflow:visible"
             id="use69"
             x="0"
             y="0"
             width="100%"
             height="100%" /></clipPath><g
           class="st5"
           id="g71"
           clip-path="url(#SVGID_8_)"><path
             class="st1"
             d="m 46.7,56.2 c -2,1.6 -4.9,3.3 -7.3,3.3 -2.7,0 -5.5,-1 -7.5,-3 -0.3,-0.3 -0.6,-0.6 -0.9,-0.9 -1.7,-2 -2.5,-4.4 -2.5,-6.8 l 0,2.6 c 0,2.4 0.8,4.8 2.5,6.8 0.3,0.3 0.6,0.6 0.9,0.9 2.1,2 4.8,3 7.5,3 2.4,0 4.8,-0.8 6.8,-2.4 l 0.5,-3.5 z"
             id="path73"
             inkscape:connector-curvature="0"
             style="fill:#4b612c" /></g></g><g
         id="g75"><path
           class="st6"
           d="m 67.6,45.4 3.9,3.7 -1.8,3.3 -20.4,0.3 c 0,0.1 -0.3,0.6 -0.6,1.3 -0.3,0.6 -0.7,1.1 -1.1,1.7 -0.4,0.5 -0.9,1 -1.5,1.5 -2,1.6 -4.4,2.4 -6.8,2.4 -2.7,0 -5.5,-1 -7.5,-3 -0.3,-0.3 -0.6,-0.6 -0.9,-0.9 -3.8,-4.6 -3.1,-11.4 1.5,-15.1 2,-1.6 4.4,-2.4 6.9,-2.4 2.4,0 4.8,0.8 6.8,2.4 1.5,1.1 2.4,2.7 2.5,2.7 l 1.1,0.1 5,-0.1 1.8,3 4.2,-0.4 1.6,1.7 1.5,0.3 3.8,-2.5 z m -33,6 c 1.6,0 2.8,-1.3 2.8,-2.9 0,-1.6 -1.3,-2.8 -2.9,-2.8 0,0 0,0 0,0 -1.6,0 -2.8,1.3 -2.8,2.9 0,1.5 1.3,2.8 2.9,2.8 -0.1,0 -0.1,0 0,0"
           id="path77"
           inkscape:connector-curvature="0"
           style="fill:#759c3e" /></g></g></g></svg>