<?xml version="1.0" encoding="UTF-8" standalone="no"?>
<!-- Generator: Adobe Illustrator 19.1.0, SVG Export Plug-In . SVG Version: 6.00 Build 0)  -->

<svg
   xmlns:dc="http://purl.org/dc/elements/1.1/"
   xmlns:cc="http://creativecommons.org/ns#"
   xmlns:rdf="http://www.w3.org/1999/02/22-rdf-syntax-ns#"
   xmlns:svg="http://www.w3.org/2000/svg"
   xmlns="http://www.w3.org/2000/svg"
   xmlns:sodipodi="http://sodipodi.sourceforge.net/DTD/sodipodi-0.dtd"
   xmlns:inkscape="http://www.inkscape.org/namespaces/inkscape"
   version="1.1"
   id="Layer_1"
   x="0px"
   y="0px"
   viewBox="0 0 100 100"
   style="enable-background:new 0 0 100 100;"
   xml:space="preserve"
   inkscape:version="0.91 r13725"
   sodipodi:docname="ManagementTools_Config.svg"><metadata
     id="metadata41"><rdf:RDF><cc:Work
         rdf:about=""><dc:format>image/svg+xml</dc:format><dc:type
           rdf:resource="http://purl.org/dc/dcmitype/StillImage" /></cc:Work></rdf:RDF></metadata><defs
     id="defs39" /><sodipodi:namedview
     pagecolor="#ffffff"
     bordercolor="#666666"
     borderopacity="1"
     objecttolerance="10"
     gridtolerance="10"
     guidetolerance="10"
     inkscape:pageopacity="0"
     inkscape:pageshadow="2"
     inkscape:window-width="1280"
     inkscape:window-height="985"
     id="namedview37"
     showgrid="false"
     inkscape:zoom="7.4579687"
     inkscape:cx="50.26817"
     inkscape:cy="50"
     inkscape:window-x="0"
     inkscape:window-y="0"
     inkscape:window-maximized="1"
     inkscape:current-layer="Layer_1" /><style
     type="text/css"
     id="style3">
	.st0{fill:#759C3E;}
	.st1{fill:#4B612C;}
	.st2{fill:#3C4929;}
	.st3{fill:#B7CA9D;}
	.st4{display:none;}
</style><g
     id="Amazon_CloudSearch"
     transform="matrix(1.3888889,0,0,1.3888889,-19.444445,-19.444445)"><g
       id="g6"><polygon
         class="st0"
         points="44.1,28.9 44.1,35.2 28.6,32.3 28.6,24.7 "
         id="polygon8"
         style="fill:#759c3e" /><polygon
         class="st1"
         points="20.2,28.9 20.2,35.2 28.6,32.3 28.6,24.7 "
         id="polygon10"
         style="fill:#4b612c" /><polygon
         class="st2"
         points="34.7,37.3 44.1,35.2 28.6,32.3 20.2,35.2 "
         id="polygon12"
         style="fill:#3c4929" /><polygon
         class="st1"
         points="55.9,28.9 55.9,35.2 71.4,32.3 71.4,24.7 "
         id="polygon14"
         style="fill:#4b612c" /><polygon
         class="st1"
         points="34.1,21.9 34.1,30.3 50,24.8 50,14 "
         id="polygon16"
         style="fill:#4b612c" /><polygon
         class="st0"
         points="65.9,21.9 65.9,30.3 50,24.8 50,14 "
         id="polygon18"
         style="fill:#759c3e" /><polygon
         class="st0"
         points="79.8,28.9 79.8,35.2 71.4,32.3 71.4,24.7 "
         id="polygon20"
         style="fill:#759c3e" /><polygon
         class="st1"
         points="20.2,41.6 20.2,50 50,50 50,35.6 "
         id="polygon22"
         style="fill:#4b612c" /><polygon
         class="st1"
         points="50,60.7 50,86 20.2,71.1 20.2,56.3 "
         id="polygon24"
         style="fill:#4b612c" /><polygon
         class="st0"
         points="79.8,56.3 79.8,71.1 50,86 50,60.7 "
         id="polygon26"
         style="fill:#759c3e" /><polygon
         class="st0"
         points="79.8,41.6 79.8,50 50,50 50,35.6 "
         id="polygon28"
         style="fill:#759c3e" /><polygon
         class="st2"
         points="50,24.8 65.9,30.3 50,33.9 34.1,30.3 "
         id="polygon30"
         style="fill:#3c4929" /><polygon
         class="st2"
         points="65.3,37.3 55.9,35.2 71.4,32.3 79.8,35.2 "
         id="polygon32"
         style="fill:#3c4929" /><polygon
         class="st3"
         points="50,60.7 79.8,56.3 50,54.4 20.2,56.3 "
         id="polygon34"
         style="fill:#b7ca9d" /></g></g><g
     id="nyt_x5F_exporter_x5F_info"
     class="st4" /></svg>