<?xml version="1.0" encoding="UTF-8" standalone="no"?>
<!-- Generator: Adobe Illustrator 19.1.0, SVG Export Plug-In . SVG Version: 6.00 Build 0)  -->

<svg
   xmlns:dc="http://purl.org/dc/elements/1.1/"
   xmlns:cc="http://creativecommons.org/ns#"
   xmlns:rdf="http://www.w3.org/1999/02/22-rdf-syntax-ns#"
   xmlns:svg="http://www.w3.org/2000/svg"
   xmlns="http://www.w3.org/2000/svg"
   xmlns:sodipodi="http://sodipodi.sourceforge.net/DTD/sodipodi-0.dtd"
   xmlns:inkscape="http://www.inkscape.org/namespaces/inkscape"
   version="1.1"
   id="Layer_1"
   x="0px"
   y="0px"
   viewBox="0 0 100 100"
   style="enable-background:new 0 0 100 100;"
   xml:space="preserve"
   inkscape:version="0.91 r13725"
   sodipodi:docname="Analytics_Kinesis_Analytics.svg"><metadata
     id="metadata33"><rdf:RDF><cc:Work
         rdf:about=""><dc:format>image/svg+xml</dc:format><dc:type
           rdf:resource="http://purl.org/dc/dcmitype/StillImage" /></cc:Work></rdf:RDF></metadata><defs
     id="defs31" /><sodipodi:namedview
     pagecolor="#ffffff"
     bordercolor="#666666"
     borderopacity="1"
     objecttolerance="10"
     gridtolerance="10"
     guidetolerance="10"
     inkscape:pageopacity="0"
     inkscape:pageshadow="2"
     inkscape:window-width="1280"
     inkscape:window-height="985"
     id="namedview29"
     showgrid="false"
     inkscape:zoom="7.4579687"
     inkscape:cx="50.26817"
     inkscape:cy="50"
     inkscape:window-x="0"
     inkscape:window-y="0"
     inkscape:window-maximized="1"
     inkscape:current-layer="Layer_1" /><style
     type="text/css"
     id="style3">
	.st0{fill:#9D5025;}
	.st1{fill:#F58435;}
	.st2{fill:#F58536;}
	.st3{fill:#FFFFFF;}
</style><g
     id="g3361"
     transform="matrix(1.490313,0,0,1.490313,-14.606403,-32.190762)"><path
       id="path5"
       d="m 67.4,23.8 -34.8,0 c -5,0 -9.1,4.1 -9.1,9.1 l 0,2.2 0,14.3 c 5.6,-0.2 11,3 13.5,8.4 1.1,2.3 1.5,4.8 1.2,7.2 -0.1,0.6 -1.3,2.7 -1.3,2.7 l 0,2.2 c 4.6,-1.6 9.8,0.5 11.8,5 0.3,0.6 0.5,1.2 0.6,1.8 l 18,0 c 5,0 9.1,-4.1 9.1,-9.1 l 0,-32.5 0,-2.2 c 0.1,-5 -4,-9.1 -9,-9.1 z"
       class="st0"
       inkscape:connector-curvature="0"
       style="fill:#9d5025" /><path
       id="path7"
       d="m 67.4,21.6 -34.8,0 c -5,0 -9.1,4.1 -9.1,9.1 l 0,2.2 0,14.3 c 5.6,-0.2 11,3 13.5,8.4 1.8,4 1.7,8.4 -0.1,12.1 4.6,-1.6 9.8,0.5 11.8,5 0.3,0.6 0.5,1.2 0.6,1.8 l 18,0 c 5,0 9.1,-4.1 9.1,-9.1 l 0,-32.5 0,-2.2 c 0.1,-5 -4,-9.1 -9,-9.1 z"
       class="st1"
       inkscape:connector-curvature="0"
       style="fill:#f58435" /><path
       id="path9"
       d="m 35.2,61.9 0,-2.5 -3.9,-0.6 c -0.8,-1 -1.7,-1.9 -2.8,-2.6 l 0.8,-4.6 -4.1,1 -0.8,2.1 c -1.2,-0.2 -2.5,-0.2 -3.8,0.1 l -4.9,-2.7 0,2.5 0.9,2.1 c -1,0.8 -1.9,1.7 -2.6,2.8 l -3.7,0.8 0,2.5 2.1,0.8 c -0.1,0.5 -0.1,1 -0.1,1.6 0,0.7 -1.8,0.7 -1.8,0.7 l 0,2.5 1.8,4 2,-0.9 c 0.6,0.8 1.3,1.5 2.1,2.1 l 0,0.1 0,2.5 4.1,1.5 0.8,-2.1 c 1.3,0.2 2.6,0.2 3.8,-0.1 l 0.9,2 4,-1.8 0,-2.5 0,-0.3 c 0.7,-0.6 1.3,-1.4 1.8,-2.1 l 2.1,0.8 1.5,-4.1 0,-2.5 -2.1,1.7 c 0.2,-1.3 0.2,-2.5 -0.1,-3.8 l 2,-1 z"
       class="st0"
       inkscape:connector-curvature="0"
       style="fill:#9d5025" /><path
       id="path11"
       d="m 45.6,80.1 1.9,-0.6 0,-2.5 -3,-0.4 c -0.6,-0.9 -1.3,-1.6 -2.2,-2 l 0.4,-2 0,-2.5 -4.1,3.7 c -0.8,0.1 -1.5,0.2 -2.3,0.6 -0.2,0.1 -0.4,0.2 -0.6,0.3 l -4,-1.1 0,2.5 1.5,1.4 c -0.1,0.3 -0.3,0.8 -0.3,0.8 l -2.3,0.2 0,2.5 1.1,3.5 1.9,-0.6 c 0.5,0.7 1.1,1.3 1.8,1.8 l 0,2.2 3.6,0.8 0.4,-2 c 0.8,-0.1 1.5,-0.2 2.3,-0.6 0.2,-0.1 0.4,-0.2 0.6,-0.3 l 1.5,1.4 2.5,-2.7 0,-2.5 -0.9,-0.6 c 0.1,-0.5 0.2,-0.9 0.2,-1.3 z"
       class="st0"
       inkscape:connector-curvature="0"
       style="fill:#9d5025" /><path
       id="path13"
       d="m 35.2,59.4 -1.8,-4 -2,0.9 c -0.8,-1 -1.7,-1.9 -2.8,-2.6 l 0.8,-2.1 -4.1,-1.5 -0.8,2.1 C 23.3,52 22,52 20.7,52.3 l -0.9,-2.1 -4,1.8 0.9,2.1 c -1,0.8 -1.9,1.7 -2.6,2.8 L 12,56.1 10.5,60.2 12.6,61 c -0.2,1.3 -0.2,2.5 0.1,3.8 l -2,0.9 1.8,4 2,-0.9 c 0.8,1.1 1.7,1.9 2.8,2.6 l -0.8,2.1 4.1,1.5 0.8,-2.1 c 1.3,0.2 2.6,0.2 3.8,-0.1 l 0.9,2 4,-1.8 -0.9,-2 c 1.1,-0.8 1.9,-1.7 2.6,-2.8 l 2.1,0.8 1.5,-4.1 -2.1,-0.8 c 0.2,-1.3 0.2,-2.5 -0.1,-3.8 l 2,-0.9 z"
       class="st2"
       inkscape:connector-curvature="0"
       style="fill:#f58536" /><path
       id="path15"
       d="m 45.6,77.6 1.9,-0.6 -1.1,-3.5 -1.9,0.6 c -0.6,-0.9 -1.3,-1.6 -2.2,-2 l 0.4,-2 -3.6,-0.8 -0.4,2 c -0.8,0.1 -1.5,0.2 -2.3,0.6 -0.2,0.1 -0.4,0.2 -0.6,0.3 l -1.5,-1.4 -2.5,2.7 1.5,1.4 c -0.4,0.9 -0.7,1.9 -0.7,3 l -1.9,0.6 1.1,3.5 1.9,-0.6 c 0.6,0.9 1.3,1.6 2.2,2 l -0.4,2 3.6,0.8 0.4,-2 c 0.8,-0.1 1.5,-0.2 2.3,-0.6 0.2,-0.1 0.4,-0.2 0.6,-0.3 l 1.5,1.4 2.5,-2.7 -1.5,-1.4 c 0.4,-0.9 0.7,-2 0.7,-3 z"
       class="st2"
       inkscape:connector-curvature="0"
       style="fill:#f58536" /><circle
       id="circle17"
       r="2.8"
       cy="62.599998"
       cx="22.9"
       class="st3"
       style="fill:#ffffff" /><circle
       id="circle19"
       r="1.8"
       cy="77.699997"
       cx="39.099998"
       class="st3"
       style="fill:#ffffff" /><polygon
       id="polygon21"
       points="58.7,25 58.7,29 46.2,29 46.2,33 46.2,43 58.7,43 58.7,47 69.7,36 66.7,33 "
       class="st3"
       style="fill:#ffffff" /><polygon
       id="polygon23"
       points="28.5,33 28.5,43 42.3,43 42.3,33 42.3,29 28.5,29 "
       class="st3"
       style="fill:#ffffff" /><polygon
       id="polygon25"
       points="62.5,52.6 50,52.6 50,56.6 50,66.6 62.5,66.6 62.5,70.7 73.5,59.6 70.5,56.6 62.5,48.6 "
       class="st3"
       style="fill:#ffffff" /><path
       id="path27"
       d="m 37,55.6 c 0.1,0.3 0.3,0.7 0.4,1 1.2,3.3 1.1,6.9 0,10 l 8.8,0 0,-10 0,-4 -11.1,0 c 0.7,0.9 1.4,1.9 1.9,3 z"
       class="st3"
       inkscape:connector-curvature="0"
       style="fill:#ffffff" /></g></svg>