<?xml version="1.0" encoding="UTF-8" standalone="no"?>
<!-- Generator: Adobe Illustrator 19.1.0, SVG Export Plug-In . SVG Version: 6.00 Build 0)  -->

<svg
   xmlns:dc="http://purl.org/dc/elements/1.1/"
   xmlns:cc="http://creativecommons.org/ns#"
   xmlns:rdf="http://www.w3.org/1999/02/22-rdf-syntax-ns#"
   xmlns:svg="http://www.w3.org/2000/svg"
   xmlns="http://www.w3.org/2000/svg"
   xmlns:sodipodi="http://sodipodi.sourceforge.net/DTD/sodipodi-0.dtd"
   xmlns:inkscape="http://www.inkscape.org/namespaces/inkscape"
   version="1.1"
   id="Layer_1"
   x="0px"
   y="0px"
   viewBox="0 0 100 100"
   style="enable-background:new 0 0 100 100;"
   xml:space="preserve"
   inkscape:version="0.91 r13725"
   sodipodi:docname="Analytics_Kinesis_Streams.svg"><metadata
     id="metadata21"><rdf:RDF><cc:Work
         rdf:about=""><dc:format>image/svg+xml</dc:format><dc:type
           rdf:resource="http://purl.org/dc/dcmitype/StillImage" /></cc:Work></rdf:RDF></metadata><defs
     id="defs19" /><sodipodi:namedview
     pagecolor="#ffffff"
     bordercolor="#666666"
     borderopacity="1"
     objecttolerance="10"
     gridtolerance="10"
     guidetolerance="10"
     inkscape:pageopacity="0"
     inkscape:pageshadow="2"
     inkscape:window-width="1280"
     inkscape:window-height="985"
     id="namedview17"
     showgrid="false"
     inkscape:zoom="7.4579687"
     inkscape:cx="50.26817"
     inkscape:cy="50"
     inkscape:window-x="0"
     inkscape:window-y="0"
     inkscape:window-maximized="1"
     inkscape:current-layer="Layer_1" /><style
     type="text/css"
     id="style3">
	.st0{fill:#9D5025;}
	.st1{fill:#F58435;}
	.st2{fill:#FFFFFF;}
</style><g
     id="g3349"
     transform="matrix(1.8018018,0,0,1.8018018,-40.09009,-38.918919)"><path
       id="path5"
       d="m 67.4,77.1 -34.8,0 c -5,0 -9.1,-4.1 -9.1,-9.1 l 0,-34.8 c 0,-5 4.1,-9.1 9.1,-9.1 l 34.8,0 c 5,0 9.1,4.1 9.1,9.1 l 0,34.8 c 0,5 -4.1,9.1 -9.1,9.1 z"
       class="st0"
       inkscape:connector-curvature="0"
       style="fill:#9d5025" /><path
       id="path7"
       d="m 67.4,74.6 -34.8,0 c -5,0 -9.1,-4.1 -9.1,-9.1 l 0,-34.8 c 0,-5 4.1,-9.1 9.1,-9.1 l 34.8,0 c 5,0 9.1,4.1 9.1,9.1 l 0,34.8 c 0,5 -4.1,9.1 -9.1,9.1 z"
       class="st1"
       inkscape:connector-curvature="0"
       style="fill:#f58435" /><polygon
       id="polygon9"
       points="46.2,56.6 46.2,52.6 32.4,52.6 32.4,56.6 32.4,66.6 46.2,66.6 "
       class="st2"
       style="fill:#ffffff" /><polygon
       id="polygon11"
       points="58.7,25 58.7,29 46.2,29 46.2,33 46.2,43 58.7,43 58.7,47 69.7,36 66.7,33 "
       class="st2"
       style="fill:#ffffff" /><polygon
       id="polygon13"
       points="28.5,33 28.5,43 42.3,43 42.3,33 42.3,29 28.5,29 "
       class="st2"
       style="fill:#ffffff" /><polygon
       id="polygon15"
       points="50,56.6 50,66.6 62.5,66.6 62.5,70.7 73.5,59.6 70.5,56.6 62.5,48.6 62.5,52.6 50,52.6 "
       class="st2"
       style="fill:#ffffff" /></g></svg>