<?xml version="1.0" encoding="UTF-8" standalone="no"?>
<!-- Generator: Adobe Illustrator 18.1.1, SVG Export Plug-In . SVG Version: 6.00 Build 0)  -->

<svg
   xmlns:dc="http://purl.org/dc/elements/1.1/"
   xmlns:cc="http://creativecommons.org/ns#"
   xmlns:rdf="http://www.w3.org/1999/02/22-rdf-syntax-ns#"
   xmlns:svg="http://www.w3.org/2000/svg"
   xmlns="http://www.w3.org/2000/svg"
   xmlns:sodipodi="http://sodipodi.sourceforge.net/DTD/sodipodi-0.dtd"
   xmlns:inkscape="http://www.inkscape.org/namespaces/inkscape"
   version="1.1"
   x="0px"
   y="0px"
   viewBox="0 0 100 100"
   enable-background="new 0 0 100 100"
   xml:space="preserve"
   id="svg2"
   inkscape:version="0.91 r13725"
   sodipodi:docname="Analytics_Kinesis.svg"><metadata
     id="metadata41"><rdf:RDF><cc:Work
         rdf:about=""><dc:format>image/svg+xml</dc:format><dc:type
           rdf:resource="http://purl.org/dc/dcmitype/StillImage" /></cc:Work></rdf:RDF></metadata><defs
     id="defs39" /><sodipodi:namedview
     pagecolor="#ffffff"
     bordercolor="#666666"
     borderopacity="1"
     objecttolerance="10"
     gridtolerance="10"
     guidetolerance="10"
     inkscape:pageopacity="0"
     inkscape:pageshadow="2"
     inkscape:window-width="1280"
     inkscape:window-height="985"
     id="namedview37"
     showgrid="false"
     inkscape:zoom="7.4579687"
     inkscape:cx="50.26817"
     inkscape:cy="50"
     inkscape:window-x="0"
     inkscape:window-y="0"
     inkscape:window-maximized="1"
     inkscape:current-layer="svg2" /><g
     id="Approved"
     transform="matrix(1.3888889,0,0,1.3888889,-19.444445,-19.444445)"><g
       id="g5"><polygon
         points="50.1,75.3 79.9,64.8 50,60.5 20.1,64.8 "
         id="polygon7"
         style="fill:#fbbf93" /><polygon
         points="50,28.9 50,50 61.2,50 61.2,25.7 "
         id="polygon9"
         style="fill:#9d5025" /><polygon
         points="61.2,35.8 61.2,50 69.9,50 69.9,34.4 "
         id="polygon11"
         style="fill:#9d5025" /><polygon
         points="69.9,33.2 69.9,50 76.9,50 76.9,31.9 "
         id="polygon13"
         style="fill:#9d5025" /><polygon
         points="56,50 56,17 50,14 50,50 "
         id="polygon15"
         style="fill:#f58536" /><polygon
         points="65.8,50 65.8,27.5 61.2,25.7 61.2,50 "
         id="polygon17"
         style="fill:#f58536" /><polygon
         points="73.4,50 73.4,35.4 69.9,34.4 69.9,50 "
         id="polygon19"
         style="fill:#f58536" /><polygon
         points="76.9,50 76.9,31.9 79.9,33.1 79.9,50 "
         id="polygon21"
         style="fill:#f58536" /><polygon
         points="79.8,54.2 79.8,60.5 49.9,67.9 49.9,57.2 "
         id="polygon23"
         style="fill:#f58536" /><polygon
         points="79.9,71 79.9,64.8 49.9,75.4 49.9,86 "
         id="polygon25"
         style="fill:#f58536" /><polygon
         points="20.1,71.1 20.1,64.8 49.9,75.3 49.9,86 "
         id="polygon27"
         style="fill:#9d5025" /><polygon
         points="20.1,60.5 20.1,54.2 49.9,57.2 49.9,67.9 "
         id="polygon29"
         style="fill:#9d5025" /><polygon
         points="20.1,28.9 20.1,50 50,50 50,14 "
         id="polygon31"
         style="fill:#9d5025" /><polygon
         points="49.9,57.2 79.8,54.2 49.9,53 20.1,54.2 "
         id="polygon33"
         style="fill:#fbbf93" /></g></g><g
     id="Approved_Outlined"
     display="none" /><g
     id="Approved_2"
     display="none" /></svg>