<?xml version="1.0" encoding="UTF-8" standalone="no"?>
<!-- Generator: Adobe Illustrator 19.1.0, SVG Export Plug-In . SVG Version: 6.00 Build 0)  -->

<svg
   xmlns:dc="http://purl.org/dc/elements/1.1/"
   xmlns:cc="http://creativecommons.org/ns#"
   xmlns:rdf="http://www.w3.org/1999/02/22-rdf-syntax-ns#"
   xmlns:svg="http://www.w3.org/2000/svg"
   xmlns="http://www.w3.org/2000/svg"
   xmlns:sodipodi="http://sodipodi.sourceforge.net/DTD/sodipodi-0.dtd"
   xmlns:inkscape="http://www.inkscape.org/namespaces/inkscape"
   version="1.1"
   id="Layer_1"
   x="0px"
   y="0px"
   viewBox="14 -14 100 100"
   style="enable-background:new 14 -14 100 100;"
   xml:space="preserve"
   inkscape:version="0.91 r13725"
   sodipodi:docname="DeploymentManagement_AWSCodeCommit.svg"><metadata
     id="metadata845"><rdf:RDF><cc:Work
         rdf:about=""><dc:format>image/svg+xml</dc:format><dc:type
           rdf:resource="http://purl.org/dc/dcmitype/StillImage" /></cc:Work></rdf:RDF></metadata><defs
     id="defs843" /><sodipodi:namedview
     pagecolor="#ffffff"
     bordercolor="#666666"
     borderopacity="1"
     objecttolerance="10"
     gridtolerance="10"
     guidetolerance="10"
     inkscape:pageopacity="0"
     inkscape:pageshadow="2"
     inkscape:window-width="1280"
     inkscape:window-height="985"
     id="namedview841"
     showgrid="false"
     inkscape:zoom="7.4579687"
     inkscape:cx="50.26817"
     inkscape:cy="50"
     inkscape:window-x="0"
     inkscape:window-y="0"
     inkscape:window-maximized="1"
     inkscape:current-layer="Layer_1" /><style
     type="text/css"
     id="style3">
	.st0{display:none;}
	.st1{display:inline;}
	.st2{font-family:'MyriadPro-Regular';}
	.st3{font-size:12px;}
	.st4{fill:#4C612C;}
	.st5{fill:#769B3F;}
	.st6{fill:#3C492A;}
	.st7{fill:#B6C99C;}
</style><g
     id="nyt_x5F_exporter_x5F_info"
     class="st0"><text
       transform="matrix(1 0 0 1 -581 -14)"
       class="st1 st2 st3"
       id="text6">&lt;</text>
<text
       transform="matrix(1 0 0 1 -573.8481 -14)"
       class="st1 st2 st3"
       id="text8">n</text>
<text
       transform="matrix(1 0 0 1 -567.3442 -14)"
       class="st1 st2 st3"
       id="text10">y</text>
<text
       transform="matrix(1 0 0 1 -561.6924 -14)"
       class="st1 st2 st3"
       id="text12">t</text>
<text
       transform="matrix(1 0 0 1 -557.7202 -14)"
       class="st1 st2 st3"
       id="text14">_</text>
<text
       transform="matrix(1 0 0 1 -551.7202 -14)"
       class="st1 st2 st3"
       id="text16">p</text>
<text
       transform="matrix(1 0 0 1 -544.8926 -14)"
       class="st1 st2 st3"
       id="text18">r</text>
<text
       transform="matrix(1 0 0 1 -541.0889 -14)"
       class="st1 st2 st3"
       id="text20">e</text>
<text
       transform="matrix(1 0 0 1 -535.0771 -14)"
       class="st1 st2 st3"
       id="text22">f</text>
<text
       transform="matrix(1 0 0 1 -531.6812 -14)"
       class="st1 st2 st3"
       id="text24">s</text>
<text
       transform="matrix(1 0 0 1 -526.9287 -14)"
       class="st1 st2 st3"
       id="text26">&gt;</text>
<text
       transform="matrix(1 0 0 1 -581 0.3999)"
       class="st1 st2 st3"
       id="text28" />
<text
       transform="matrix(1 0 0 1 -578.4561 0.3999)"
       class="st1 st2 st3"
       id="text30" />
<text
       transform="matrix(1 0 0 1 -575.9121 0.3999)"
       class="st1 st2 st3"
       id="text32">&lt;</text>
<text
       transform="matrix(1 0 0 1 -568.7603 0.3999)"
       class="st1 st2 st3"
       id="text34">n</text>
<text
       transform="matrix(1 0 0 1 -562.2563 0.3999)"
       class="st1 st2 st3"
       id="text36">y</text>
<text
       transform="matrix(1 0 0 1 -556.6045 0.3999)"
       class="st1 st2 st3"
       id="text38">t</text>
<text
       transform="matrix(1 0 0 1 -552.6323 0.3999)"
       class="st1 st2 st3"
       id="text40">_</text>
<text
       transform="matrix(1 0 0 1 -546.6323 0.3999)"
       class="st1 st2 st3"
       id="text42">p</text>
<text
       transform="matrix(1 0 0 1 -539.8047 0.3999)"
       class="st1 st2 st3"
       id="text44">r</text>
<text
       transform="matrix(1 0 0 1 -536.001 0.3999)"
       class="st1 st2 st3"
       id="text46">e</text>
<text
       transform="matrix(1 0 0 1 -529.9883 0.3999)"
       class="st1 st2 st3"
       id="text48">f</text>
<text
       transform="matrix(1 0 0 1 -523.7119 0.3999)"
       class="st1 st2 st3"
       id="text50">i</text>
<text
       transform="matrix(1 0 0 1 -518.1562 0.3999)"
       class="st1 st2 st3"
       id="text52">x</text>
<text
       transform="matrix(1 0 0 1 -511.0039 0.3999)"
       class="st1 st2 st3"
       id="text54">&gt;</text>
<text
       transform="matrix(1 0 0 1 -503.8516 0.3999)"
       class="st1 st2 st3"
       id="text56">&lt;</text>
<text
       transform="matrix(1 0 0 1 23837 -8155)"
       class="st1 st2 st3"
       id="text58">/</text>
<text
       transform="matrix(1 0 0 1 -499.7354 0.3999)"
       class="st1 st2 st3"
       id="text60">n</text>
<text
       transform="matrix(1 0 0 1 -493.2314 0.3999)"
       class="st1 st2 st3"
       id="text62">y</text>
<text
       transform="matrix(1 0 0 1 -487.5791 0.3999)"
       class="st1 st2 st3"
       id="text64">t</text>
<text
       transform="matrix(1 0 0 1 -483.6074 0.3999)"
       class="st1 st2 st3"
       id="text66">_</text>
<text
       transform="matrix(1 0 0 1 -477.6074 0.3999)"
       class="st1 st2 st3"
       id="text68">p</text>
<text
       transform="matrix(1 0 0 1 -470.7793 0.3999)"
       class="st1 st2 st3"
       id="text70">r</text>
<text
       transform="matrix(1 0 0 1 -466.9756 0.3999)"
       class="st1 st2 st3"
       id="text72">e</text>
<text
       transform="matrix(1 0 0 1 -460.9639 0.3999)"
       class="st1 st2 st3"
       id="text74">f</text>
<text
       transform="matrix(1 0 0 1 -454.6875 0.3999)"
       class="st1 st2 st3"
       id="text76">i</text>
<text
       transform="matrix(1 0 0 1 -449.1318 0.3999)"
       class="st1 st2 st3"
       id="text78">x</text>
<text
       transform="matrix(1 0 0 1 130542 -8155)"
       class="st1 st2 st3"
       id="text80">&gt;</text>
<text
       transform="matrix(1 0 0 1 -581 14.7998)"
       class="st1 st2 st3"
       id="text82" />
<text
       transform="matrix(1 0 0 1 -578.4561 14.7998)"
       class="st1 st2 st3"
       id="text84" />
<text
       transform="matrix(1 0 0 1 -575.9121 14.7998)"
       class="st1 st2 st3"
       id="text86">&lt;</text>
<text
       transform="matrix(1 0 0 1 -568.7603 14.7998)"
       class="st1 st2 st3"
       id="text88">n</text>
<text
       transform="matrix(1 0 0 1 -562.2563 14.7998)"
       class="st1 st2 st3"
       id="text90">y</text>
<text
       transform="matrix(1 0 0 1 -556.6045 14.7998)"
       class="st1 st2 st3"
       id="text92">t</text>
<text
       transform="matrix(1 0 0 1 -552.6323 14.7998)"
       class="st1 st2 st3"
       id="text94">_</text>
<text
       transform="matrix(1 0 0 1 -546.6323 14.7998)"
       class="st1 st2 st3"
       id="text96">s</text>
<text
       transform="matrix(1 0 0 1 -541.8804 14.7998)"
       class="st1 st2 st3"
       id="text98">u</text>
<text
       transform="matrix(1 0 0 1 -535.2686 14.7998)"
       class="st1 st2 st3"
       id="text100">f</text>
<text
       transform="matrix(1 0 0 1 -525.4893 14.7998)"
       class="st1 st2 st3"
       id="text102">f</text>
<text
       transform="matrix(1 0 0 1 -519.9336 14.7998)"
       class="st1 st2 st3"
       id="text104">i</text>
<text
       transform="matrix(1 0 0 1 -512.7812 14.7998)"
       class="st1 st2 st3"
       id="text106">x</text>
<text
       transform="matrix(1 0 0 1 -505.6289 14.7998)"
       class="st1 st2 st3"
       id="text108">&gt;</text>
<text
       transform="matrix(1 0 0 1 14 -8155)"
       class="st1 st2 st3"
       id="text110">&lt;</text>
<text
       transform="matrix(1 0 0 1 14 -8155)"
       class="st1 st2 st3"
       id="text112">/</text>
<text
       transform="matrix(1 0 0 1 -501.5127 14.7998)"
       class="st1 st2 st3"
       id="text114">n</text>
<text
       transform="matrix(1 0 0 1 -495.0078 14.7998)"
       class="st1 st2 st3"
       id="text116">y</text>
<text
       transform="matrix(1 0 0 1 -489.3555 14.7998)"
       class="st1 st2 st3"
       id="text118">t</text>
<text
       transform="matrix(1 0 0 1 -485.3838 14.7998)"
       class="st1 st2 st3"
       id="text120">_</text>
<text
       transform="matrix(1 0 0 1 -479.3838 14.7998)"
       class="st1 st2 st3"
       id="text122">s</text>
<text
       transform="matrix(1 0 0 1 -474.6318 14.7998)"
       class="st1 st2 st3"
       id="text124">u</text>
<text
       transform="matrix(1 0 0 1 -468.0195 14.7998)"
       class="st1 st2 st3"
       id="text126">f</text>
<text
       transform="matrix(1 0 0 1 -458.2393 14.7998)"
       class="st1 st2 st3"
       id="text128">f</text>
<text
       transform="matrix(1 0 0 1 -452.6836 14.7998)"
       class="st1 st2 st3"
       id="text130">i</text>
<text
       transform="matrix(1 0 0 1 -512.7812 14.7998)"
       class="st1 st2 st3"
       id="text132">x</text>
<text
       transform="matrix(1 0 0 1 -505.6289 14.7998)"
       class="st1 st2 st3"
       id="text134">&gt;</text>
<text
       transform="matrix(1 0 0 1 -581 29.2002)"
       class="st1 st2 st3"
       id="text136" />
<text
       transform="matrix(1 0 0 1 -578.4561 29.2002)"
       class="st1 st2 st3"
       id="text138" />
<text
       transform="matrix(1 0 0 1 -575.9121 29.2002)"
       class="st1 st2 st3"
       id="text140">&lt;</text>
<text
       transform="matrix(1 0 0 1 -568.7603 29.2002)"
       class="st1 st2 st3"
       id="text142">n</text>
<text
       transform="matrix(1 0 0 1 -562.2563 29.2002)"
       class="st1 st2 st3"
       id="text144">y</text>
<text
       transform="matrix(1 0 0 1 -556.6045 29.2002)"
       class="st1 st2 st3"
       id="text146">t</text>
<text
       transform="matrix(1 0 0 1 -552.6323 29.2002)"
       class="st1 st2 st3"
       id="text148">_</text>
<text
       transform="matrix(1 0 0 1 -546.6323 29.2002)"
       class="st1 st2 st3"
       id="text150">b</text>
<text
       transform="matrix(1 0 0 1 -539.8047 29.2002)"
       class="st1 st2 st3"
       id="text152">a</text>
<text
       transform="matrix(1 0 0 1 -534.021 29.2002)"
       class="st1 st2 st3"
       id="text154">s</text>
<text
       transform="matrix(1 0 0 1 -529.2695 29.2002)"
       class="st1 st2 st3"
       id="text156">e</text>
<text
       transform="matrix(1 0 0 1 -523.2578 29.2002)"
       class="st1 st2 st3"
       id="text158">_</text>
<text
       transform="matrix(1 0 0 1 -517.2578 29.2002)"
       class="st1 st2 st3"
       id="text160">p</text>
<text
       transform="matrix(1 0 0 1 -510.4297 29.2002)"
       class="st1 st2 st3"
       id="text162">a</text>
<text
       transform="matrix(1 0 0 1 -504.6934 29.2002)"
       class="st1 st2 st3"
       id="text164">t</text>
<text
       transform="matrix(1 0 0 1 -500.7217 29.2002)"
       class="st1 st2 st3"
       id="text166">h</text>
<text
       transform="matrix(1 0 0 1 -494.0615 29.2002)"
       class="st1 st2 st3"
       id="text168">&gt;</text>
<text
       transform="matrix(1 0 0 1 -486.9092 29.2002)"
       class="st1 st2 st3"
       id="text170">~</text>
<text
       transform="matrix(1 0 0 1 -479.7568 29.2002)"
       class="st1 st2 st3"
       id="text172">/</text>
<text
       transform="matrix(1 0 0 1 -475.6406 29.2002)"
       class="st1 st2 st3"
       id="text174">D</text>
<text
       transform="matrix(1 0 0 1 -467.6006 29.2002)"
       class="st1 st2 st3"
       id="text176">e</text>
<text
       transform="matrix(1 0 0 1 -461.5889 29.2002)"
       class="st1 st2 st3"
       id="text178">s</text>
<text
       transform="matrix(1 0 0 1 -456.8369 29.2002)"
       class="st1 st2 st3"
       id="text180">k</text>
<text
       transform="matrix(1 0 0 1 -451.209 29.2002)"
       class="st1 st2 st3"
       id="text182">t</text>
<text
       transform="matrix(1 0 0 1 -447.3086 29.2002)"
       class="st1 st2 st3"
       id="text184">o</text>
<text
       transform="matrix(1 0 0 1 -440.7207 29.2002)"
       class="st1 st2 st3"
       id="text186">p</text>
<text
       transform="matrix(1 0 0 1 -433.8926 29.2002)"
       class="st1 st2 st3"
       id="text188">/</text>
<text
       transform="matrix(1 0 0 1 -429.7764 29.2002)"
       class="st1 st2 st3"
       id="text190">w</text>
<text
       transform="matrix(1 0 0 1 -420.9443 29.2002)"
       class="st1 st2 st3"
       id="text192">i</text>
<text
       transform="matrix(1 0 0 1 -418.1367 29.2002)"
       class="st1 st2 st3"
       id="text194">p</text>
<text
       transform="matrix(1 0 0 1 -411.3086 29.2002)"
       class="st1 st2 st3"
       id="text196">/</text>
<text
       transform="matrix(1 0 0 1 -407.1924 29.2002)"
       class="st1 st2 st3"
       id="text198">A</text>
<text
       transform="matrix(1 0 0 1 -399.8848 29.2002)"
       class="st1 st2 st3"
       id="text200">r</text>
<text
       transform="matrix(1 0 0 1 -396.0811 29.2002)"
       class="st1 st2 st3"
       id="text202">c</text>
<text
       transform="matrix(1 0 0 1 -390.7051 29.2002)"
       class="st1 st2 st3"
       id="text204">h</text>
<text
       transform="matrix(1 0 0 1 -384.0449 29.2002)"
       class="st1 st2 st3"
       id="text206">i</text>
<text
       transform="matrix(1 0 0 1 -381.2373 29.2002)"
       class="st1 st2 st3"
       id="text208">t</text>
<text
       transform="matrix(1 0 0 1 -377.3379 29.2002)"
       class="st1 st2 st3"
       id="text210">e</text>
<text
       transform="matrix(1 0 0 1 -371.3262 29.2002)"
       class="st1 st2 st3"
       id="text212">c</text>
<text
       transform="matrix(1 0 0 1 -365.7939 29.2002)"
       class="st1 st2 st3"
       id="text214">t</text>
<text
       transform="matrix(1 0 0 1 -361.8223 29.2002)"
       class="st1 st2 st3"
       id="text216">u</text>
<text
       transform="matrix(1 0 0 1 -355.21 29.2002)"
       class="st1 st2 st3"
       id="text218">r</text>
<text
       transform="matrix(1 0 0 1 -351.4062 29.2002)"
       class="st1 st2 st3"
       id="text220">e</text>
<text
       transform="matrix(1 0 0 1 -345.3945 29.2002)"
       class="st1 st2 st3"
       id="text222">%</text>
<text
       transform="matrix(1 0 0 1 -335.8906 29.2002)"
       class="st1 st2 st3"
       id="text224">2</text>
<text
       transform="matrix(1 0 0 1 -329.7344 29.2002)"
       class="st1 st2 st3"
       id="text226">0</text>
<text
       transform="matrix(1 0 0 1 -323.5781 29.2002)"
       class="st1 st2 st3"
       id="text228">I</text>
<text
       transform="matrix(1 0 0 1 -320.71 29.2002)"
       class="st1 st2 st3"
       id="text230">c</text>
<text
       transform="matrix(1 0 0 1 -315.4053 29.2002)"
       class="st1 st2 st3"
       id="text232">o</text>
<text
       transform="matrix(1 0 0 1 -308.8174 29.2002)"
       class="st1 st2 st3"
       id="text234">n</text>
<text
       transform="matrix(1 0 0 1 -302.1572 29.2002)"
       class="st1 st2 st3"
       id="text236">s</text>
<text
       transform="matrix(1 0 0 1 -297.4053 29.2002)"
       class="st1 st2 st3"
       id="text238">%</text>
<text
       transform="matrix(1 0 0 1 -287.9014 29.2002)"
       class="st1 st2 st3"
       id="text240">2</text>
<text
       transform="matrix(1 0 0 1 -281.7451 29.2002)"
       class="st1 st2 st3"
       id="text242">0</text>
<text
       transform="matrix(1 0 0 1 -275.5889 29.2002)"
       class="st1 st2 st3"
       id="text244">-</text>
<text
       transform="matrix(1 0 0 1 -271.9053 29.2002)"
       class="st1 st2 st3"
       id="text246">%</text>
<text
       transform="matrix(1 0 0 1 -262.4014 29.2002)"
       class="st1 st2 st3"
       id="text248">2</text>
<text
       transform="matrix(1 0 0 1 -256.2451 29.2002)"
       class="st1 st2 st3"
       id="text250">0</text>
<text
       transform="matrix(1 0 0 1 -250.0889 29.2002)"
       class="st1 st2 st3"
       id="text252">U</text>
<text
       transform="matrix(1 0 0 1 -242.3252 29.2002)"
       class="st1 st2 st3"
       id="text254">p</text>
<text
       transform="matrix(1 0 0 1 -235.4971 29.2002)"
       class="st1 st2 st3"
       id="text256">d</text>
<text
       transform="matrix(1 0 0 1 -228.7295 29.2002)"
       class="st1 st2 st3"
       id="text258">a</text>
<text
       transform="matrix(1 0 0 1 -222.9932 29.2002)"
       class="st1 st2 st3"
       id="text260">t</text>
<text
       transform="matrix(1 0 0 1 -219.0938 29.2002)"
       class="st1 st2 st3"
       id="text262">e</text>
<text
       transform="matrix(1 0 0 1 -213.082 29.2002)"
       class="st1 st2 st3"
       id="text264">%</text>
<text
       transform="matrix(1 0 0 1 -203.5781 29.2002)"
       class="st1 st2 st3"
       id="text266">2</text>
<text
       transform="matrix(1 0 0 1 -197.4219 29.2002)"
       class="st1 st2 st3"
       id="text268">0</text>
<text
       transform="matrix(1 0 0 1 -191.2656 29.2002)"
       class="st1 st2 st3"
       id="text270">a</text>
<text
       transform="matrix(1 0 0 1 -185.4814 29.2002)"
       class="st1 st2 st3"
       id="text272">l</text>
<text
       transform="matrix(1 0 0 1 -182.6494 29.2002)"
       class="st1 st2 st3"
       id="text274">l</text>
<text
       transform="matrix(1 0 0 1 -179.8174 29.2002)"
       class="st1 st2 st3"
       id="text276">%</text>
<text
       transform="matrix(1 0 0 1 -170.3135 29.2002)"
       class="st1 st2 st3"
       id="text278">2</text>
<text
       transform="matrix(1 0 0 1 -164.1572 29.2002)"
       class="st1 st2 st3"
       id="text280">0</text>
<text
       transform="matrix(1 0 0 1 -158.001 29.2002)"
       class="st1 st2 st3"
       id="text282">c</text>
<text
       transform="matrix(1 0 0 1 -152.625 29.2002)"
       class="st1 st2 st3"
       id="text284">u</text>
<text
       transform="matrix(1 0 0 1 -146.0127 29.2002)"
       class="st1 st2 st3"
       id="text286">s</text>
<text
       transform="matrix(1 0 0 1 -141.2607 29.2002)"
       class="st1 st2 st3"
       id="text288">t</text>
<text
       transform="matrix(1 0 0 1 -137.3613 29.2002)"
       class="st1 st2 st3"
       id="text290">o</text>
<text
       transform="matrix(1 0 0 1 -130.7734 29.2002)"
       class="st1 st2 st3"
       id="text292">m</text>
<text
       transform="matrix(1 0 0 1 -120.7656 29.2002)"
       class="st1 st2 st3"
       id="text294">e</text>
<text
       transform="matrix(1 0 0 1 -114.7539 29.2002)"
       class="st1 st2 st3"
       id="text296">r</text>
<text
       transform="matrix(1 0 0 1 -110.8896 29.2002)"
       class="st1 st2 st3"
       id="text298">-</text>
<text
       transform="matrix(1 0 0 1 -107.2061 29.2002)"
       class="st1 st2 st3"
       id="text300">f</text>
<text
       transform="matrix(1 0 0 1 -103.7021 29.2002)"
       class="st1 st2 st3"
       id="text302">a</text>
<text
       transform="matrix(1 0 0 1 -97.918 29.2002)"
       class="st1 st2 st3"
       id="text304">c</text>
<text
       transform="matrix(1 0 0 1 -92.542 29.2002)"
       class="st1 st2 st3"
       id="text306">i</text>
<text
       transform="matrix(1 0 0 1 -89.7344 29.2002)"
       class="st1 st2 st3"
       id="text308">n</text>
<text
       transform="matrix(1 0 0 1 -83.0742 29.2002)"
       class="st1 st2 st3"
       id="text310">g</text>
<text
       transform="matrix(1 0 0 1 -76.3662 29.2002)"
       class="st1 st2 st3"
       id="text312">%</text>
<text
       transform="matrix(1 0 0 1 -66.8623 29.2002)"
       class="st1 st2 st3"
       id="text314">2</text>
<text
       transform="matrix(1 0 0 1 -60.7061 29.2002)"
       class="st1 st2 st3"
       id="text316">0</text>
<text
       transform="matrix(1 0 0 1 -54.5498 29.2002)"
       class="st1 st2 st3"
       id="text318">f</text>
<text
       transform="matrix(1 0 0 1 -48.2734 29.2002)"
       class="st1 st2 st3"
       id="text320">i</text>
<text
       transform="matrix(1 0 0 1 -45.4414 29.2002)"
       class="st1 st2 st3"
       id="text322">l</text>
<text
       transform="matrix(1 0 0 1 -39.4297 29.2002)"
       class="st1 st2 st3"
       id="text324">e</text>
<text
       transform="matrix(1 0 0 1 -34.6777 29.2002)"
       class="st1 st2 st3"
       id="text326">s</text>
<text
       transform="matrix(1 0 0 1 -25.1738 29.2002)"
       class="st1 st2 st3"
       id="text328">%</text>
<text
       transform="matrix(1 0 0 1 -19.0176 29.2002)"
       class="st1 st2 st3"
       id="text330">2</text>
<text
       transform="matrix(1 0 0 1 -12.8613 29.2002)"
       class="st1 st2 st3"
       id="text332">0</text>
<text
       transform="matrix(1 0 0 1 -8722 -8155)"
       class="st1 st2 st3"
       id="text334">/</text>
<text
       transform="matrix(1 0 0 1 -8.7451 29.2002)"
       class="st1 st2 st3"
       id="text336">A</text>
<text
       transform="matrix(1 0 0 1 -2.0371 29.2002)"
       class="st1 st2 st3"
       id="text338">W</text>
<text
       transform="matrix(1 0 0 1 8.1152 29.2002)"
       class="st1 st2 st3"
       id="text340">S</text>
<text
       transform="matrix(1 0 0 1 14.0908 29.2002)"
       class="st1 st2 st3"
       id="text342">-</text>
<text
       transform="matrix(1 0 0 1 17.7744 29.2002)"
       class="st1 st2 st3"
       id="text344">S</text>
<text
       transform="matrix(1 0 0 1 23.6904 29.2002)"
       class="st1 st2 st3"
       id="text346">i</text>
<text
       transform="matrix(1 0 0 1 26.498 29.2002)"
       class="st1 st2 st3"
       id="text348">m</text>
<text
       transform="matrix(1 0 0 1 36.5059 29.2002)"
       class="st1 st2 st3"
       id="text350">p</text>
<text
       transform="matrix(1 0 0 1 43.334 29.2002)"
       class="st1 st2 st3"
       id="text352">l</text>
<text
       transform="matrix(1 0 0 1 46.166 29.2002)"
       class="st1 st2 st3"
       id="text354">e</text>
<text
       transform="matrix(1 0 0 1 52.5137 29.2002)"
       class="st1 st2 st3"
       id="text356">-</text>
<text
       transform="matrix(1 0 0 1 56.1973 29.2002)"
       class="st1 st2 st3"
       id="text358">I</text>
<text
       transform="matrix(1 0 0 1 59.0654 29.2002)"
       class="st1 st2 st3"
       id="text360">c</text>
<text
       transform="matrix(1 0 0 1 64.3701 29.2002)"
       class="st1 st2 st3"
       id="text362">o</text>
<text
       transform="matrix(1 0 0 1 70.958 29.2002)"
       class="st1 st2 st3"
       id="text364">n</text>
<text
       transform="matrix(1 0 0 1 77.6182 29.2002)"
       class="st1 st2 st3"
       id="text366">s</text>
<text
       transform="matrix(1 0 0 1 82.3701 29.2002)"
       class="st1 st2 st3"
       id="text368">%</text>
<text
       transform="matrix(1 0 0 1 91.874 29.2002)"
       class="st1 st2 st3"
       id="text370">2</text>
<text
       transform="matrix(1 0 0 1 98.0303 29.2002)"
       class="st1 st2 st3"
       id="text372">0</text>
<text
       transform="matrix(1 0 0 1 104.1865 29.2002)"
       class="st1 st2 st3"
       id="text374">2</text>
<text
       transform="matrix(1 0 0 1 110.3428 29.2002)"
       class="st1 st2 st3"
       id="text376">/</text>
<text
       transform="matrix(1 0 0 1 114.459 29.2002)"
       class="st1 st2 st3"
       id="text378">D</text>
<text
       transform="matrix(1 0 0 1 122.499 29.2002)"
       class="st1 st2 st3"
       id="text380">e</text>
<text
       transform="matrix(1 0 0 1 128.5107 29.2002)"
       class="st1 st2 st3"
       id="text382">p</text>
<text
       transform="matrix(1 0 0 1 135.3389 29.2002)"
       class="st1 st2 st3"
       id="text384">l</text>
<text
       transform="matrix(1 0 0 1 138.1709 29.2002)"
       class="st1 st2 st3"
       id="text386">o</text>
<text
       transform="matrix(1 0 0 1 144.6748 29.2002)"
       class="st1 st2 st3"
       id="text388">y</text>
<text
       transform="matrix(1 0 0 1 150.3271 29.2002)"
       class="st1 st2 st3"
       id="text390">m</text>
<text
       transform="matrix(1 0 0 1 160.335 29.2002)"
       class="st1 st2 st3"
       id="text392">e</text>
<text
       transform="matrix(1 0 0 1 166.3467 29.2002)"
       class="st1 st2 st3"
       id="text394">n</text>
<text
       transform="matrix(1 0 0 1 172.959 29.2002)"
       class="st1 st2 st3"
       id="text396">t</text>
<text
       transform="matrix(1 0 0 1 176.9307 29.2002)"
       class="st1 st2 st3"
       id="text398">%</text>
<text
       transform="matrix(1 0 0 1 186.4346 29.2002)"
       class="st1 st2 st3"
       id="text400">2</text>
<text
       transform="matrix(1 0 0 1 192.5908 29.2002)"
       class="st1 st2 st3"
       id="text402">0</text>
<text
       transform="matrix(1 0 0 1 198.7471 29.2002)"
       class="st1 st2 st3"
       id="text404">&amp;</text>
<text
       transform="matrix(1 0 0 1 206.0068 29.2002)"
       class="st1 st2 st3"
       id="text406">a</text>
<text
       transform="matrix(1 0 0 1 211.791 29.2002)"
       class="st1 st2 st3"
       id="text408">m</text>
<text
       transform="matrix(1 0 0 1 221.7988 29.2002)"
       class="st1 st2 st3"
       id="text410">p</text>
<text
       transform="matrix(1 0 0 1 228.627 29.2002)"
       class="st1 st2 st3"
       id="text412">;</text>
<text
       transform="matrix(1 0 0 1 231.1104 29.2002)"
       class="st1 st2 st3"
       id="text414">%</text>
<text
       transform="matrix(1 0 0 1 240.6143 29.2002)"
       class="st1 st2 st3"
       id="text416">2</text>
<text
       transform="matrix(1 0 0 1 246.7705 29.2002)"
       class="st1 st2 st3"
       id="text418">0</text>
<text
       transform="matrix(1 0 0 1 252.9268 29.2002)"
       class="st1 st2 st3"
       id="text420">M</text>
<text
       transform="matrix(1 0 0 1 262.6465 29.2002)"
       class="st1 st2 st3"
       id="text422">a</text>
<text
       transform="matrix(1 0 0 1 268.4297 29.2002)"
       class="st1 st2 st3"
       id="text424">n</text>
<text
       transform="matrix(1 0 0 1 275.0898 29.2002)"
       class="st1 st2 st3"
       id="text426">a</text>
<text
       transform="matrix(1 0 0 1 280.875 29.2002)"
       class="st1 st2 st3"
       id="text428">g</text>
<text
       transform="matrix(1 0 0 1 287.582 29.2002)"
       class="st1 st2 st3"
       id="text430">e</text>
<text
       transform="matrix(1 0 0 1 293.5938 29.2002)"
       class="st1 st2 st3"
       id="text432">m</text>
<text
       transform="matrix(1 0 0 1 303.6016 29.2002)"
       class="st1 st2 st3"
       id="text434">e</text>
<text
       transform="matrix(1 0 0 1 309.6133 29.2002)"
       class="st1 st2 st3"
       id="text436">n</text>
<text
       transform="matrix(1 0 0 1 316.2256 29.2002)"
       class="st1 st2 st3"
       id="text438">t</text>
<text
       transform="matrix(1 0 0 1 320.1973 29.2002)"
       class="st1 st2 st3"
       id="text440">/</text>
<text
       transform="matrix(1 0 0 1 324.3135 29.2002)"
       class="st1 st2 st3"
       id="text442">E</text>
<text
       transform="matrix(1 0 0 1 330.2178 29.2002)"
       class="st1 st2 st3"
       id="text444">P</text>
<text
       transform="matrix(1 0 0 1 336.6016 29.2002)"
       class="st1 st2 st3"
       id="text446">S</text>
<text
       transform="matrix(1 0 0 1 342.5176 29.2002)"
       class="st1 st2 st3"
       id="text448">&lt;</text>
<text
       transform="matrix(1 0 0 1 349.6699 29.2002)"
       class="st1 st2 st3"
       id="text450">/</text>
<text
       transform="matrix(1 0 0 1 353.7861 29.2002)"
       class="st1 st2 st3"
       id="text452">n</text>
<text
       transform="matrix(1 0 0 1 360.291 29.2002)"
       class="st1 st2 st3"
       id="text454">y</text>
<text
       transform="matrix(1 0 0 1 365.9434 29.2002)"
       class="st1 st2 st3"
       id="text456">t</text>
<text
       transform="matrix(1 0 0 1 369.915 29.2002)"
       class="st1 st2 st3"
       id="text458">_</text>
<text
       transform="matrix(1 0 0 1 375.915 29.2002)"
       class="st1 st2 st3"
       id="text460">b</text>
<text
       transform="matrix(1 0 0 1 382.7432 29.2002)"
       class="st1 st2 st3"
       id="text462">a</text>
<text
       transform="matrix(1 0 0 1 388.5273 29.2002)"
       class="st1 st2 st3"
       id="text464">s</text>
<text
       transform="matrix(1 0 0 1 393.2793 29.2002)"
       class="st1 st2 st3"
       id="text466">e</text>
<text
       transform="matrix(1 0 0 1 399.291 29.2002)"
       class="st1 st2 st3"
       id="text468">_</text>
<text
       transform="matrix(1 0 0 1 405.291 29.2002)"
       class="st1 st2 st3"
       id="text470">p</text>
<text
       transform="matrix(1 0 0 1 412.1191 29.2002)"
       class="st1 st2 st3"
       id="text472">a</text>
<text
       transform="matrix(1 0 0 1 417.8555 29.2002)"
       class="st1 st2 st3"
       id="text474">t</text>
<text
       transform="matrix(1 0 0 1 421.8271 29.2002)"
       class="st1 st2 st3"
       id="text476">h</text>
<text
       transform="matrix(1 0 0 1 428.4873 29.2002)"
       class="st1 st2 st3"
       id="text478">&gt;</text>
<text
       transform="matrix(1 0 0 1 -581 43.5996)"
       class="st1 st2 st3"
       id="text480" />
<text
       transform="matrix(1 0 0 1 -578.4561 43.5996)"
       class="st1 st2 st3"
       id="text482" />
<text
       transform="matrix(1 0 0 1 -575.9121 43.5996)"
       class="st1 st2 st3"
       id="text484">&lt;</text>
<text
       transform="matrix(1 0 0 1 -568.7603 43.5996)"
       class="st1 st2 st3"
       id="text486">n</text>
<text
       transform="matrix(1 0 0 1 -562.2563 43.5996)"
       class="st1 st2 st3"
       id="text488">y</text>
<text
       transform="matrix(1 0 0 1 -556.6045 43.5996)"
       class="st1 st2 st3"
       id="text490">t</text>
<text
       transform="matrix(1 0 0 1 -552.6323 43.5996)"
       class="st1 st2 st3"
       id="text492">_</text>
<text
       transform="matrix(1 0 0 1 -546.6323 43.5996)"
       class="st1 st2 st3"
       id="text494">s</text>
<text
       transform="matrix(1 0 0 1 -541.8804 43.5996)"
       class="st1 st2 st3"
       id="text496">c</text>
<text
       transform="matrix(1 0 0 1 -536.5044 43.5996)"
       class="st1 st2 st3"
       id="text498">a</text>
<text
       transform="matrix(1 0 0 1 -530.7202 43.5996)"
       class="st1 st2 st3"
       id="text500">l</text>
<text
       transform="matrix(1 0 0 1 -527.8887 43.5996)"
       class="st1 st2 st3"
       id="text502">i</text>
<text
       transform="matrix(1 0 0 1 -525.0811 43.5996)"
       class="st1 st2 st3"
       id="text504">n</text>
<text
       transform="matrix(1 0 0 1 -518.4209 43.5996)"
       class="st1 st2 st3"
       id="text506">g</text>
<text
       transform="matrix(1 0 0 1 -511.7129 43.5996)"
       class="st1 st2 st3"
       id="text508">&gt;</text>
<text
       transform="matrix(1 0 0 1 -504.5605 43.5996)"
       class="st1 st2 st3"
       id="text510">1</text>
<text
       transform="matrix(1 0 0 1 -498.4043 43.5996)"
       class="st1 st2 st3"
       id="text512">0</text>
<text
       transform="matrix(1 0 0 1 -492.248 43.5996)"
       class="st1 st2 st3"
       id="text514">0</text>
<text
       transform="matrix(1 0 0 1 -486.0918 43.5996)"
       class="st1 st2 st3"
       id="text516">&lt;</text>
<text
       transform="matrix(1 0 0 1 -478.9395 43.5996)"
       class="st1 st2 st3"
       id="text518">/</text>
<text
       transform="matrix(1 0 0 1 -474.8232 43.5996)"
       class="st1 st2 st3"
       id="text520">n</text>
<text
       transform="matrix(1 0 0 1 -468.3184 43.5996)"
       class="st1 st2 st3"
       id="text522">y</text>
<text
       transform="matrix(1 0 0 1 -462.666 43.5996)"
       class="st1 st2 st3"
       id="text524">t</text>
<text
       transform="matrix(1 0 0 1 -458.6943 43.5996)"
       class="st1 st2 st3"
       id="text526">_</text>
<text
       transform="matrix(1 0 0 1 -452.6943 43.5996)"
       class="st1 st2 st3"
       id="text528">s</text>
<text
       transform="matrix(1 0 0 1 -447.9424 43.5996)"
       class="st1 st2 st3"
       id="text530">c</text>
<text
       transform="matrix(1 0 0 1 -442.5664 43.5996)"
       class="st1 st2 st3"
       id="text532">a</text>
<text
       transform="matrix(1 0 0 1 -436.7822 43.5996)"
       class="st1 st2 st3"
       id="text534">l</text>
<text
       transform="matrix(1 0 0 1 -433.9502 43.5996)"
       class="st1 st2 st3"
       id="text536">i</text>
<text
       transform="matrix(1 0 0 1 -431.1426 43.5996)"
       class="st1 st2 st3"
       id="text538">n</text>
<text
       transform="matrix(1 0 0 1 -424.4824 43.5996)"
       class="st1 st2 st3"
       id="text540">g</text>
<text
       transform="matrix(1 0 0 1 -417.7744 43.5996)"
       class="st1 st2 st3"
       id="text542">&gt;</text>
<text
       transform="matrix(1 0 0 1 -581 58)"
       class="st1 st2 st3"
       id="text544" />
<text
       transform="matrix(1 0 0 1 -578.4561 58)"
       class="st1 st2 st3"
       id="text546" />
<text
       transform="matrix(1 0 0 1 -575.9121 58)"
       class="st1 st2 st3"
       id="text548">&lt;</text>
<text
       transform="matrix(1 0 0 1 -568.7603 58)"
       class="st1 st2 st3"
       id="text550">n</text>
<text
       transform="matrix(1 0 0 1 -562.2563 58)"
       class="st1 st2 st3"
       id="text552">y</text>
<text
       transform="matrix(1 0 0 1 -556.6045 58)"
       class="st1 st2 st3"
       id="text554">t</text>
<text
       transform="matrix(1 0 0 1 -552.6323 58)"
       class="st1 st2 st3"
       id="text556">_</text>
<text
       transform="matrix(1 0 0 1 -546.6323 58)"
       class="st1 st2 st3"
       id="text558">t</text>
<text
       transform="matrix(1 0 0 1 -542.6606 58)"
       class="st1 st2 st3"
       id="text560">r</text>
<text
       transform="matrix(1 0 0 1 -538.7969 58)"
       class="st1 st2 st3"
       id="text562">a</text>
<text
       transform="matrix(1 0 0 1 -533.0127 58)"
       class="st1 st2 st3"
       id="text564">n</text>
<text
       transform="matrix(1 0 0 1 -526.3525 58)"
       class="st1 st2 st3"
       id="text566">s</text>
<text
       transform="matrix(1 0 0 1 -521.6006 58)"
       class="st1 st2 st3"
       id="text568">p</text>
<text
       transform="matrix(1 0 0 1 -514.7725 58)"
       class="st1 st2 st3"
       id="text570">a</text>
<text
       transform="matrix(1 0 0 1 -508.9883 58)"
       class="st1 st2 st3"
       id="text572">r</text>
<text
       transform="matrix(1 0 0 1 -505.1846 58)"
       class="st1 st2 st3"
       id="text574">e</text>
<text
       transform="matrix(1 0 0 1 -499.1729 58)"
       class="st1 st2 st3"
       id="text576">n</text>
<text
       transform="matrix(1 0 0 1 -492.5127 58)"
       class="st1 st2 st3"
       id="text578">c</text>
<text
       transform="matrix(1 0 0 1 -486.9209 58)"
       class="st1 st2 st3"
       id="text580">y</text>
<text
       transform="matrix(1 0 0 1 -481.2686 58)"
       class="st1 st2 st3"
       id="text582">&gt;</text>
<text
       transform="matrix(1 0 0 1 -474.1162 58)"
       class="st1 st2 st3"
       id="text584">t</text>
<text
       transform="matrix(1 0 0 1 -470.1445 58)"
       class="st1 st2 st3"
       id="text586">r</text>
<text
       transform="matrix(1 0 0 1 -466.2207 58)"
       class="st1 st2 st3"
       id="text588">u</text>
<text
       transform="matrix(1 0 0 1 -459.6084 58)"
       class="st1 st2 st3"
       id="text590">e</text>
<text
       transform="matrix(1 0 0 1 -453.5967 58)"
       class="st1 st2 st3"
       id="text592">&lt;</text>
<text
       transform="matrix(1 0 0 1 -446.4443 58)"
       class="st1 st2 st3"
       id="text594">/</text>
<text
       transform="matrix(1 0 0 1 -442.3281 58)"
       class="st1 st2 st3"
       id="text596">n</text>
<text
       transform="matrix(1 0 0 1 -435.8232 58)"
       class="st1 st2 st3"
       id="text598">y</text>
<text
       transform="matrix(1 0 0 1 -430.1709 58)"
       class="st1 st2 st3"
       id="text600">t</text>
<text
       transform="matrix(1 0 0 1 -426.1992 58)"
       class="st1 st2 st3"
       id="text602">_</text>
<text
       transform="matrix(1 0 0 1 -420.1992 58)"
       class="st1 st2 st3"
       id="text604">t</text>
<text
       transform="matrix(1 0 0 1 -416.2275 58)"
       class="st1 st2 st3"
       id="text606">r</text>
<text
       transform="matrix(1 0 0 1 -412.3633 58)"
       class="st1 st2 st3"
       id="text608">a</text>
<text
       transform="matrix(1 0 0 1 -406.5801 58)"
       class="st1 st2 st3"
       id="text610">n</text>
<text
       transform="matrix(1 0 0 1 -399.9199 58)"
       class="st1 st2 st3"
       id="text612">s</text>
<text
       transform="matrix(1 0 0 1 -395.168 58)"
       class="st1 st2 st3"
       id="text614">p</text>
<text
       transform="matrix(1 0 0 1 -388.3398 58)"
       class="st1 st2 st3"
       id="text616">a</text>
<text
       transform="matrix(1 0 0 1 -382.5547 58)"
       class="st1 st2 st3"
       id="text618">r</text>
<text
       transform="matrix(1 0 0 1 -378.751 58)"
       class="st1 st2 st3"
       id="text620">e</text>
<text
       transform="matrix(1 0 0 1 -372.7393 58)"
       class="st1 st2 st3"
       id="text622">n</text>
<text
       transform="matrix(1 0 0 1 -366.0791 58)"
       class="st1 st2 st3"
       id="text624">c</text>
<text
       transform="matrix(1 0 0 1 -360.4873 58)"
       class="st1 st2 st3"
       id="text626">y</text>
<text
       transform="matrix(1 0 0 1 -354.835 58)"
       class="st1 st2 st3"
       id="text628">&gt;</text>
<text
       transform="matrix(1 0 0 1 -581 72.4004)"
       class="st1 st2 st3"
       id="text630" />
<text
       transform="matrix(1 0 0 1 -578.4561 72.4004)"
       class="st1 st2 st3"
       id="text632" />
<text
       transform="matrix(1 0 0 1 -575.9121 72.4004)"
       class="st1 st2 st3"
       id="text634">&lt;</text>
<text
       transform="matrix(1 0 0 1 -568.7603 72.4004)"
       class="st1 st2 st3"
       id="text636">n</text>
<text
       transform="matrix(1 0 0 1 -562.2563 72.4004)"
       class="st1 st2 st3"
       id="text638">y</text>
<text
       transform="matrix(1 0 0 1 -556.6045 72.4004)"
       class="st1 st2 st3"
       id="text640">t</text>
<text
       transform="matrix(1 0 0 1 -552.6323 72.4004)"
       class="st1 st2 st3"
       id="text642">_</text>
<text
       transform="matrix(1 0 0 1 -546.6323 72.4004)"
       class="st1 st2 st3"
       id="text644">f</text>
<text
       transform="matrix(1 0 0 1 -543.2842 72.4004)"
       class="st1 st2 st3"
       id="text646">o</text>
<text
       transform="matrix(1 0 0 1 -536.6963 72.4004)"
       class="st1 st2 st3"
       id="text648">r</text>
<text
       transform="matrix(1 0 0 1 -532.7246 72.4004)"
       class="st1 st2 st3"
       id="text650">m</text>
<text
       transform="matrix(1 0 0 1 -522.7168 72.4004)"
       class="st1 st2 st3"
       id="text652">a</text>
<text
       transform="matrix(1 0 0 1 -516.9805 72.4004)"
       class="st1 st2 st3"
       id="text654">t</text>
<text
       transform="matrix(1 0 0 1 -513.0088 72.4004)"
       class="st1 st2 st3"
       id="text656">&gt;</text>
<text
       transform="matrix(1 0 0 1 -505.8564 72.4004)"
       class="st1 st2 st3"
       id="text658">E</text>
<text
       transform="matrix(1 0 0 1 -499.9521 72.4004)"
       class="st1 st2 st3"
       id="text660">P</text>
<text
       transform="matrix(1 0 0 1 -493.5684 72.4004)"
       class="st1 st2 st3"
       id="text662">S</text>
<text
       transform="matrix(1 0 0 1 -487.6523 72.4004)"
       class="st1 st2 st3"
       id="text664">&lt;</text>
<text
       transform="matrix(1 0 0 1 -480.5 72.4004)"
       class="st1 st2 st3"
       id="text666">/</text>
<text
       transform="matrix(1 0 0 1 -476.3838 72.4004)"
       class="st1 st2 st3"
       id="text668">n</text>
<text
       transform="matrix(1 0 0 1 -469.8799 72.4004)"
       class="st1 st2 st3"
       id="text670">y</text>
<text
       transform="matrix(1 0 0 1 -464.2275 72.4004)"
       class="st1 st2 st3"
       id="text672">t</text>
<text
       transform="matrix(1 0 0 1 -460.2559 72.4004)"
       class="st1 st2 st3"
       id="text674">_</text>
<text
       transform="matrix(1 0 0 1 -454.2559 72.4004)"
       class="st1 st2 st3"
       id="text676">f</text>
<text
       transform="matrix(1 0 0 1 -450.9072 72.4004)"
       class="st1 st2 st3"
       id="text678">o</text>
<text
       transform="matrix(1 0 0 1 -444.3193 72.4004)"
       class="st1 st2 st3"
       id="text680">r</text>
<text
       transform="matrix(1 0 0 1 -440.3477 72.4004)"
       class="st1 st2 st3"
       id="text682">m</text>
<text
       transform="matrix(1 0 0 1 -430.3398 72.4004)"
       class="st1 st2 st3"
       id="text684">a</text>
<text
       transform="matrix(1 0 0 1 -424.6035 72.4004)"
       class="st1 st2 st3"
       id="text686">t</text>
<text
       transform="matrix(1 0 0 1 -420.6318 72.4004)"
       class="st1 st2 st3"
       id="text688">&gt;</text>
<text
       transform="matrix(1 0 0 1 -581 86.7998)"
       class="st1 st2 st3"
       id="text690" />
<text
       transform="matrix(1 0 0 1 -578.4561 86.7998)"
       class="st1 st2 st3"
       id="text692" />
<text
       transform="matrix(1 0 0 1 -575.9121 86.7998)"
       class="st1 st2 st3"
       id="text694">&lt;</text>
<text
       transform="matrix(1 0 0 1 -568.7603 86.7998)"
       class="st1 st2 st3"
       id="text696">n</text>
<text
       transform="matrix(1 0 0 1 -562.2563 86.7998)"
       class="st1 st2 st3"
       id="text698">y</text>
<text
       transform="matrix(1 0 0 1 -556.6045 86.7998)"
       class="st1 st2 st3"
       id="text700">t</text>
<text
       transform="matrix(1 0 0 1 -552.6323 86.7998)"
       class="st1 st2 st3"
       id="text702">_</text>
<text
       transform="matrix(1 0 0 1 -546.6323 86.7998)"
       class="st1 st2 st3"
       id="text704">e</text>
<text
       transform="matrix(1 0 0 1 -540.6567 86.7998)"
       class="st1 st2 st3"
       id="text706">x</text>
<text
       transform="matrix(1 0 0 1 -535.1006 86.7998)"
       class="st1 st2 st3"
       id="text708">p</text>
<text
       transform="matrix(1 0 0 1 -528.2725 86.7998)"
       class="st1 st2 st3"
       id="text710">o</text>
<text
       transform="matrix(1 0 0 1 -521.6846 86.7998)"
       class="st1 st2 st3"
       id="text712">r</text>
<text
       transform="matrix(1 0 0 1 -517.4736 86.7998)"
       class="st1 st2 st3"
       id="text714">t</text>
<text
       transform="matrix(1 0 0 1 -513.502 86.7998)"
       class="st1 st2 st3"
       id="text716">_</text>
<text
       transform="matrix(1 0 0 1 -507.502 86.7998)"
       class="st1 st2 st3"
       id="text718">c</text>
<text
       transform="matrix(1 0 0 1 -502.1973 86.7998)"
       class="st1 st2 st3"
       id="text720">o</text>
<text
       transform="matrix(1 0 0 1 -495.6094 86.7998)"
       class="st1 st2 st3"
       id="text722">d</text>
<text
       transform="matrix(1 0 0 1 -488.8418 86.7998)"
       class="st1 st2 st3"
       id="text724">e</text>
<text
       transform="matrix(1 0 0 1 -482.8301 86.7998)"
       class="st1 st2 st3"
       id="text726">&gt;</text>
<text
       transform="matrix(1 0 0 1 -475.6777 86.7998)"
       class="st1 st2 st3"
       id="text728">a</text>
<text
       transform="matrix(1 0 0 1 -469.8936 86.7998)"
       class="st1 st2 st3"
       id="text730">r</text>
<text
       transform="matrix(1 0 0 1 -465.6816 86.7998)"
       class="st1 st2 st3"
       id="text732">t</text>
<text
       transform="matrix(1 0 0 1 -461.7109 86.7998)"
       class="st1 st2 st3"
       id="text734">b</text>
<text
       transform="matrix(1 0 0 1 -454.8828 86.7998)"
       class="st1 st2 st3"
       id="text736">o</text>
<text
       transform="matrix(1 0 0 1 -448.2949 86.7998)"
       class="st1 st2 st3"
       id="text738">a</text>
<text
       transform="matrix(1 0 0 1 -442.5098 86.7998)"
       class="st1 st2 st3"
       id="text740">r</text>
<text
       transform="matrix(1 0 0 1 -438.7061 86.7998)"
       class="st1 st2 st3"
       id="text742">d</text>
<text
       transform="matrix(1 0 0 1 -431.9385 86.7998)"
       class="st1 st2 st3"
       id="text744">s</text>
<text
       transform="matrix(1 0 0 1 -427.1865 86.7998)"
       class="st1 st2 st3"
       id="text746">&lt;</text>
<text
       transform="matrix(1 0 0 1 -420.0342 86.7998)"
       class="st1 st2 st3"
       id="text748">/</text>
<text
       transform="matrix(1 0 0 1 -415.918 86.7998)"
       class="st1 st2 st3"
       id="text750">n</text>
<text
       transform="matrix(1 0 0 1 -409.4141 86.7998)"
       class="st1 st2 st3"
       id="text752">y</text>
<text
       transform="matrix(1 0 0 1 -403.7617 86.7998)"
       class="st1 st2 st3"
       id="text754">t</text>
<text
       transform="matrix(1 0 0 1 -399.79 86.7998)"
       class="st1 st2 st3"
       id="text756">_</text>
<text
       transform="matrix(1 0 0 1 -393.79 86.7998)"
       class="st1 st2 st3"
       id="text758">e</text>
<text
       transform="matrix(1 0 0 1 -387.8145 86.7998)"
       class="st1 st2 st3"
       id="text760">x</text>
<text
       transform="matrix(1 0 0 1 -382.2588 86.7998)"
       class="st1 st2 st3"
       id="text762">p</text>
<text
       transform="matrix(1 0 0 1 -375.4307 86.7998)"
       class="st1 st2 st3"
       id="text764">o</text>
<text
       transform="matrix(1 0 0 1 -368.8428 86.7998)"
       class="st1 st2 st3"
       id="text766">r</text>
<text
       transform="matrix(1 0 0 1 -364.6309 86.7998)"
       class="st1 st2 st3"
       id="text768">t</text>
<text
       transform="matrix(1 0 0 1 -360.6592 86.7998)"
       class="st1 st2 st3"
       id="text770">_</text>
<text
       transform="matrix(1 0 0 1 -354.6592 86.7998)"
       class="st1 st2 st3"
       id="text772">c</text>
<text
       transform="matrix(1 0 0 1 -349.3555 86.7998)"
       class="st1 st2 st3"
       id="text774">o</text>
<text
       transform="matrix(1 0 0 1 -342.7676 86.7998)"
       class="st1 st2 st3"
       id="text776">d</text>
<text
       transform="matrix(1 0 0 1 -336 86.7998)"
       class="st1 st2 st3"
       id="text778">e</text>
<text
       transform="matrix(1 0 0 1 -329.9883 86.7998)"
       class="st1 st2 st3"
       id="text780">&gt;</text>
<text
       transform="matrix(1 0 0 1 -581 101.2002)"
       class="st1 st2 st3"
       id="text782">&lt;</text>
<text
       transform="matrix(1 0 0 1 -573.8481 101.2002)"
       class="st1 st2 st3"
       id="text784">/</text>
<text
       transform="matrix(1 0 0 1 -569.7324 101.2002)"
       class="st1 st2 st3"
       id="text786">n</text>
<text
       transform="matrix(1 0 0 1 -563.228 101.2002)"
       class="st1 st2 st3"
       id="text788">y</text>
<text
       transform="matrix(1 0 0 1 -557.5762 101.2002)"
       class="st1 st2 st3"
       id="text790">t</text>
<text
       transform="matrix(1 0 0 1 -553.604 101.2002)"
       class="st1 st2 st3"
       id="text792">_</text>
<text
       transform="matrix(1 0 0 1 -547.604 101.2002)"
       class="st1 st2 st3"
       id="text794">p</text>
<text
       transform="matrix(1 0 0 1 -540.7764 101.2002)"
       class="st1 st2 st3"
       id="text796">r</text>
<text
       transform="matrix(1 0 0 1 -536.9727 101.2002)"
       class="st1 st2 st3"
       id="text798">e</text>
<text
       transform="matrix(1 0 0 1 -530.9609 101.2002)"
       class="st1 st2 st3"
       id="text800">f</text>
<text
       transform="matrix(1 0 0 1 -527.5654 101.2002)"
       class="st1 st2 st3"
       id="text802">s</text>
<text
       transform="matrix(1 0 0 1 -522.8135 101.2002)"
       class="st1 st2 st3"
       id="text804">&gt;</text>
</g><g
     id="CloudTrail"
     transform="matrix(1.2150668,0,0,1.2150668,-6.3659781,-16.517132)" /><g
     id="g807"
     transform="matrix(1.2150668,0,0,1.2150668,-13.399755,-7.3171314)"><polygon
       class="st4"
       points="39.1,6.8 39.1,64.4 29.6,59.7 29.6,11.5 "
       id="polygon809"
       style="fill:#4c612c" /><polygon
       class="st5"
       points="70.5,55.7 70.5,15.2 39.1,6.8 39.1,64.2 "
       id="polygon811"
       style="fill:#769b3f" /><polygon
       class="st4"
       points="80.7,62.5 80.7,48.8 88.2,49.8 88.2,64.5 "
       id="polygon813"
       style="fill:#4c612c" /><polygon
       class="st4"
       points="80.7,8.8 80.7,22.5 88.2,21.5 88.2,6.8 "
       id="polygon815"
       style="fill:#4c612c" /><polygon
       class="st6"
       points="75.1,21 56.8,17.2 63.7,15.5 81.8,19.9 "
       id="polygon817"
       style="fill:#3c492a" /><polygon
       class="st5"
       points="81.8,3.6 81.8,19.9 63.7,15.5 63.7,-5.5 "
       id="polygon819"
       style="fill:#769b3f" /><polygon
       class="st5"
       points="97.8,23.8 97.8,11.6 88.2,6.8 88.2,21.5 "
       id="polygon821"
       style="fill:#769b3f" /><polygon
       class="st7"
       points="75.1,50.3 56.8,54.1 63.7,55.8 81.8,51.4 "
       id="polygon823"
       style="fill:#b6c99c" /><polygon
       class="st5"
       points="81.8,67.7 81.8,51.4 63.7,55.8 63.7,76.8 "
       id="polygon825"
       style="fill:#769b3f" /><polygon
       class="st5"
       points="97.8,47.5 97.8,59.8 88.2,64.5 88.2,49.8 "
       id="polygon827"
       style="fill:#769b3f" /><polygon
       class="st4"
       points="45.5,3.6 45.5,67.8 63.7,76.8 63.7,-5.5 "
       id="polygon829"
       style="fill:#4c612c" /><polygon
       class="st5"
       points="73.9,-0.1 73.9,71.7 63.7,76.8 63.7,-5.2 "
       id="polygon831"
       style="fill:#769b3f" /><polygon
       class="st5"
       points="92.3,8.8 92.3,62.5 97.8,59.8 97.8,11.6 "
       id="polygon833"
       style="fill:#769b3f" /><polygon
       class="st6"
       points="88.2,21.5 92.3,22.5 85,23.4 80.7,22.5 "
       id="polygon835"
       style="fill:#3c492a" /><polygon
       class="st7"
       points="88.2,49.8 92.3,48.8 85,48 80.7,48.8 "
       id="polygon837"
       style="fill:#b6c99c" /><polygon
       class="st4"
       points="85,23.4 85,48 92.3,48.8 92.3,22.5 "
       id="polygon839"
       style="fill:#4c612c" /></g></svg>