<?xml version="1.0" encoding="UTF-8" standalone="no"?>
<!-- Generator: Adobe Illustrator 19.0.0, SVG Export Plug-In . SVG Version: 6.00 Build 0)  -->

<svg
   xmlns:dc="http://purl.org/dc/elements/1.1/"
   xmlns:cc="http://creativecommons.org/ns#"
   xmlns:rdf="http://www.w3.org/1999/02/22-rdf-syntax-ns#"
   xmlns:svg="http://www.w3.org/2000/svg"
   xmlns="http://www.w3.org/2000/svg"
   xmlns:sodipodi="http://sodipodi.sourceforge.net/DTD/sodipodi-0.dtd"
   xmlns:inkscape="http://www.inkscape.org/namespaces/inkscape"
   version="1.2"
   id="Layer_1"
   x="0px"
   y="0px"
   viewBox="0 0 100 100"
   xml:space="preserve"
   inkscape:version="0.91 r13725"
   sodipodi:docname="Compute_AmazonEC2ContainerService.svg"><metadata
     id="metadata51"><rdf:RDF><cc:Work
         rdf:about=""><dc:format>image/svg+xml</dc:format><dc:type
           rdf:resource="http://purl.org/dc/dcmitype/StillImage" /></cc:Work></rdf:RDF></metadata><defs
     id="defs49" /><sodipodi:namedview
     pagecolor="#ffffff"
     bordercolor="#666666"
     borderopacity="1"
     objecttolerance="10"
     gridtolerance="10"
     guidetolerance="10"
     inkscape:pageopacity="0"
     inkscape:pageshadow="2"
     inkscape:window-width="1280"
     inkscape:window-height="985"
     id="namedview47"
     showgrid="false"
     inkscape:zoom="7.4579687"
     inkscape:cx="50.26817"
     inkscape:cy="50"
     inkscape:window-x="0"
     inkscape:window-y="0"
     inkscape:window-maximized="1"
     inkscape:current-layer="Layer_1" /><g
     id="g3379"
     transform="matrix(1.795719,0,0,1.795719,-40.227697,-40.147787)"><polygon
       id="polygon3"
       points="53.933,38.535 34.46,35.281 38.848,34.073 58.518,37.808 "
       style="fill:#9d5025" /><polygon
       id="polygon5"
       points="54.147,61.768 31.052,65.569 35.132,66.795 58.518,62.447 "
       style="fill:#9d5025" /><polygon
       id="polygon7"
       points="32.328,29.273 32.328,71.085 25.382,72.67 25.382,27.685 "
       style="fill:#f58536" /><polygon
       id="polygon9"
       points="28.674,74.364 28.674,26.039 32.328,24.212 32.328,76.191 "
       style="fill:#9d5025" /><polygon
       id="polygon11"
       points="25.382,72.719 25.382,27.685 22.402,29.175 22.402,71.228 "
       style="fill:#9d5025" /><polygon
       id="polygon13"
       points="39.437,26.23 39.437,74.181 32.328,76.191 32.328,24.212 "
       style="fill:#f58536" /><polygon
       id="polygon15"
       points="63.356,67.42 63.356,61.537 32.328,67.301 32.328,76.191 "
       style="fill:#f58536" /><polygon
       id="polygon17"
       points="63.411,33.036 63.411,38.737 32.328,32.835 32.328,24.212 "
       style="fill:#f58536" /><polygon
       id="polygon19"
       points="58.518,68.788 58.518,31.647 63.5,33.02 63.5,67.42 "
       style="fill:#f58536" /><polygon
       id="polygon21"
       points="53.9,38.541 53.9,61.729 58.518,62.447 58.518,37.808 "
       style="fill:#9d5025" /><polygon
       id="polygon23"
       points="73.523,35.091 73.523,45.202 78.09,45.659 78.09,36.461 "
       style="fill:#f58536" /><polygon
       id="polygon25"
       points="60.026,37.282 60.026,45.969 73.523,45.245 73.523,35.091 "
       style="fill:#9d5025" /><polygon
       id="polygon27"
       points="67.95,33.42 67.95,44.645 60.997,43.949 60.997,31.333 "
       style="fill:#f58536" /><polygon
       id="polygon29"
       points="47.321,34.532 47.321,45.118 60.997,44.073 60.997,31.333 "
       style="fill:#9d5025" /><polygon
       id="polygon31"
       points="53.773,45.55 47.321,45.118 61.698,44.019 67.95,44.645 "
       style="fill:#6b3a19" /><polygon
       id="polygon33"
       points="73.803,45.23 78.09,45.659 64.744,46.285 60.026,45.969 "
       style="fill:#6b3a19" /><polygon
       id="polygon35"
       points="73.523,65.495 73.523,55.384 78.09,54.928 78.09,64.125 "
       style="fill:#f58536" /><polygon
       id="polygon37"
       points="60.026,63.304 60.026,54.618 73.523,55.341 73.523,65.495 "
       style="fill:#9d5025" /><polygon
       id="polygon39"
       points="67.95,67.167 67.95,55.942 60.997,56.637 60.997,69.253 "
       style="fill:#f58536" /><polygon
       id="polygon41"
       points="47.321,66.055 47.321,55.468 60.997,56.513 60.997,69.253 "
       style="fill:#9d5025" /><polygon
       id="polygon43"
       points="53.773,55.036 47.321,55.468 61.698,56.567 67.95,55.942 "
       style="fill:#fbbf93" /><polygon
       id="polygon45"
       points="73.803,55.356 78.09,54.928 64.744,54.302 60.026,54.618 "
       style="fill:#fbbf93" /></g></svg>