<?xml version="1.0" encoding="UTF-8" standalone="no"?>
<!-- Generator: Adobe Illustrator 19.1.0, SVG Export Plug-In . SVG Version: 6.00 Build 0)  -->

<svg
   xmlns:dc="http://purl.org/dc/elements/1.1/"
   xmlns:cc="http://creativecommons.org/ns#"
   xmlns:rdf="http://www.w3.org/1999/02/22-rdf-syntax-ns#"
   xmlns:svg="http://www.w3.org/2000/svg"
   xmlns="http://www.w3.org/2000/svg"
   xmlns:sodipodi="http://sodipodi.sourceforge.net/DTD/sodipodi-0.dtd"
   xmlns:inkscape="http://www.inkscape.org/namespaces/inkscape"
   version="1.1"
   id="Layer_1"
   x="0px"
   y="0px"
   viewBox="0 0 100 100"
   style="enable-background:new 0 0 100 100;"
   xml:space="preserve"
   inkscape:version="0.91 r13725"
   sodipodi:docname="ManagementTools_CloudTrail.svg"><metadata
     id="metadata42"><rdf:RDF><cc:Work
         rdf:about=""><dc:format>image/svg+xml</dc:format><dc:type
           rdf:resource="http://purl.org/dc/dcmitype/StillImage" /></cc:Work></rdf:RDF></metadata><defs
     id="defs40" /><sodipodi:namedview
     pagecolor="#ffffff"
     bordercolor="#666666"
     borderopacity="1"
     objecttolerance="10"
     gridtolerance="10"
     guidetolerance="10"
     inkscape:pageopacity="0"
     inkscape:pageshadow="2"
     inkscape:window-width="1280"
     inkscape:window-height="985"
     id="namedview38"
     showgrid="false"
     inkscape:zoom="7.4579687"
     inkscape:cx="50.26817"
     inkscape:cy="50"
     inkscape:window-x="0"
     inkscape:window-y="0"
     inkscape:window-maximized="1"
     inkscape:current-layer="Layer_1" /><style
     type="text/css"
     id="style3">
	.st0{display:none;}
	.st1{fill:#4B612C;}
	.st2{fill:#759C3E;}
	.st3{fill:#3C4929;}
	.st4{fill:#B7CA9D;}
</style><g
     id="Layer_1_1_"
     transform="matrix(1.3888889,0,0,1.3888889,-7.8555556,-33.444444)" /><g
     id="nyt_x5F_exporter_x5F_info"
     class="st0" /><g
     id="CloudTrail"
     transform="matrix(1.3888889,0,0,1.3888889,-19.444445,-19.444445)"><g
       id="g8"><polygon
         class="st1"
         points="22,36.8 22,45.7 20.2,45.8 20.2,37.3 "
         id="polygon10"
         style="fill:#4b612c" /><polygon
         class="st2"
         points="28.7,45.9 28.7,37.7 22,36.8 22,45.6 "
         id="polygon12"
         style="fill:#759c3e" /><polygon
         class="st3"
         points="22,45.7 28.7,45.9 26.7,46.1 20.2,45.8 "
         id="polygon14"
         style="fill:#3c4929" /><polygon
         class="st1"
         points="22,63.5 22,54.6 20.2,54.5 20.2,62.9 "
         id="polygon16"
         style="fill:#4b612c" /><polygon
         class="st2"
         points="28.7,54.3 28.7,62.6 22,63.5 22,54.6 "
         id="polygon18"
         style="fill:#759c3e" /><polygon
         class="st4"
         points="22,54.6 28.7,54.3 26.7,54.2 20.2,54.5 "
         id="polygon20"
         style="fill:#b7ca9d" /><polygon
         class="st1"
         points="26.2,45.2 26.2,30.8 31.2,28.9 31.2,44.8 "
         id="polygon22"
         style="fill:#4b612c" /><polygon
         class="st2"
         points="40.9,45.3 40.9,31.2 31.2,29 31.2,44.8 "
         id="polygon24"
         style="fill:#759c3e" /><polygon
         class="st3"
         points="31.2,44.7 40.9,45.3 35.5,45.7 26.2,45.2 "
         id="polygon26"
         style="fill:#3c4929" /><polygon
         class="st1"
         points="26.2,55.1 26.2,69.4 31.2,71.3 31.2,55.5 "
         id="polygon28"
         style="fill:#4b612c" /><polygon
         class="st2"
         points="40.9,55 40.9,69.3 31.2,71.4 31.2,55.5 "
         id="polygon30"
         style="fill:#759c3e" /><polygon
         class="st4"
         points="31.2,55.6 40.9,55 35.5,54.6 26.2,55.1 "
         id="polygon32"
         style="fill:#b7ca9d" /><polygon
         class="st2"
         points="79.8,28.9 79.8,71.1 50,86 50,14 "
         id="polygon34"
         style="fill:#759c3e" /><polygon
         class="st1"
         points="37.4,20.3 37.4,79.7 50,86 50,14 "
         id="polygon36"
         style="fill:#4b612c" /></g></g></svg>