<?xml version="1.0" encoding="UTF-8" standalone="no"?>
<!-- Generator: Adobe Illustrator 16.0.0, SVG Export Plug-In . SVG Version: 6.00 Build 0)  -->

<svg
   xmlns:dc="http://purl.org/dc/elements/1.1/"
   xmlns:cc="http://creativecommons.org/ns#"
   xmlns:rdf="http://www.w3.org/1999/02/22-rdf-syntax-ns#"
   xmlns:svg="http://www.w3.org/2000/svg"
   xmlns="http://www.w3.org/2000/svg"
   xmlns:sodipodi="http://sodipodi.sourceforge.net/DTD/sodipodi-0.dtd"
   xmlns:inkscape="http://www.inkscape.org/namespaces/inkscape"
   version="1.2"
   x="0px"
   y="0px"
   width="100px"
   height="100px"
   viewBox="0 0 100 100"
   xml:space="preserve"
   id="svg2"
   inkscape:version="0.91 r13725"
   sodipodi:docname="Networking_AmazonVPC.svg"><metadata
     id="metadata41"><rdf:RDF><cc:Work
         rdf:about=""><dc:format>image/svg+xml</dc:format><dc:type
           rdf:resource="http://purl.org/dc/dcmitype/StillImage" /></cc:Work></rdf:RDF></metadata><defs
     id="defs39" /><sodipodi:namedview
     pagecolor="#ffffff"
     bordercolor="#666666"
     borderopacity="1"
     objecttolerance="10"
     gridtolerance="10"
     guidetolerance="10"
     inkscape:pageopacity="0"
     inkscape:pageshadow="2"
     inkscape:window-width="1280"
     inkscape:window-height="985"
     id="namedview37"
     showgrid="false"
     inkscape:zoom="7.4579687"
     inkscape:cx="50.26817"
     inkscape:cy="50"
     inkscape:window-x="0"
     inkscape:window-y="0"
     inkscape:window-maximized="1"
     inkscape:current-layer="svg2" /><g
     id="Layer_3"
     transform="matrix(1.3880984,0,0,1.3880984,-7.8461862,-33.384228)" /><g
     id="Layer_1"
     transform="matrix(1.3880984,0,0,1.3880984,-19.40492,-19.404226)"><g
       id="g6"><polygon
         points="59.49,66.936 59.49,55.015 28.627,57.502 28.627,75.312 "
         id="polygon8"
         style="fill:#f58536" /><polygon
         points="43.553,28.771 43.553,49.979 28.512,49.979 28.512,24.703 "
         id="polygon10"
         style="fill:#f58536" /><polygon
         points="65.173,37.704 44.025,33.132 55.795,30.13 75.975,36.184 "
         id="polygon12"
         style="fill:#6b3a19" /><polygon
         points="58.881,18.439 58.881,49.979 49.961,49.979 49.961,13.979 "
         id="polygon14"
         style="fill:#f58536" /><polygon
         points="75.975,26.986 75.975,49.979 79.783,49.979 79.783,28.891 "
         id="polygon16"
         style="fill:#f58536" /><polygon
         points="79.783,28.891 79.783,37.326 49.961,28.381 49.961,13.979 "
         id="polygon18"
         style="fill:#f58536" /><polygon
         points="34.086,21.916 34.086,49.979 49.961,49.979 49.961,13.979 "
         id="polygon20"
         style="fill:#9d5025" /><polygon
         points="28.512,50.02 28.512,24.743 20.217,28.932 20.217,50.02 "
         id="polygon22"
         style="fill:#9d5025" /><polygon
         points="65.225,37.696 65.225,49.979 75.975,49.979 75.975,36.184 "
         id="polygon24"
         style="fill:#9d5025" /><polygon
         points="79.783,71.067 79.783,56.268 49.961,60.714 49.961,85.979 "
         id="polygon26"
         style="fill:#f58536" /><polygon
         points="34.086,78.082 34.086,58.42 49.961,60.796 49.961,86.02 "
         id="polygon28"
         style="fill:#9d5025" /><polygon
         points="20.217,71.148 20.217,56.344 28.627,57.583 28.627,75.354 "
         id="polygon30"
         style="fill:#9d5025" /><polygon
         points="49.82,60.734 79.783,56.268 65.443,55.382 34.086,58.38 "
         id="polygon32"
         style="fill:#fbbf93" /><polygon
         points="28.627,57.543 59.49,55.015 50.031,54.431 20.217,56.283 "
         id="polygon34"
         style="fill:#fbbf93" /></g></g><g
     id="nyt_x5F_exporter_x5F_info"
     display="none" /></svg>