<?xml version="1.0" encoding="UTF-8" standalone="no"?>
<!-- Generator: Adobe Illustrator 16.0.0, SVG Export Plug-In . SVG Version: 6.00 Build 0)  -->

<svg
   xmlns:dc="http://purl.org/dc/elements/1.1/"
   xmlns:cc="http://creativecommons.org/ns#"
   xmlns:rdf="http://www.w3.org/1999/02/22-rdf-syntax-ns#"
   xmlns:svg="http://www.w3.org/2000/svg"
   xmlns="http://www.w3.org/2000/svg"
   xmlns:sodipodi="http://sodipodi.sourceforge.net/DTD/sodipodi-0.dtd"
   xmlns:inkscape="http://www.inkscape.org/namespaces/inkscape"
   version="1.2"
   x="0px"
   y="0px"
   width="100px"
   height="100px"
   viewBox="0 0 100 100"
   xml:space="preserve"
   id="svg2"
   inkscape:version="0.91 r13725"
   sodipodi:docname="Networking_AmazonVPC_VPNGateway.svg"><metadata
     id="metadata31"><rdf:RDF><cc:Work
         rdf:about=""><dc:format>image/svg+xml</dc:format><dc:type
           rdf:resource="http://purl.org/dc/dcmitype/StillImage" /></cc:Work></rdf:RDF></metadata><defs
     id="defs29" /><sodipodi:namedview
     pagecolor="#ffffff"
     bordercolor="#666666"
     borderopacity="1"
     objecttolerance="10"
     gridtolerance="10"
     guidetolerance="10"
     inkscape:pageopacity="0"
     inkscape:pageshadow="2"
     inkscape:window-width="1280"
     inkscape:window-height="985"
     id="namedview27"
     showgrid="false"
     inkscape:zoom="7.4579687"
     inkscape:cx="50.26817"
     inkscape:cy="50"
     inkscape:window-x="0"
     inkscape:window-y="0"
     inkscape:window-maximized="1"
     inkscape:current-layer="svg2" /><g
     id="Layer_3"
     transform="matrix(1.744257,0,0,1.744257,-16.612561,-58.547724)" /><g
     id="Layer_1"
     transform="matrix(1.744257,0,0,1.744257,-37.21285,-37.213722)"><g
       id="g6"><g
         id="g8"><path
           d="m 50.001,21.335 c 15.285,0 27.678,12.289 27.678,27.473 0,15.17 -12.393,27.473 -27.678,27.473 -15.283,0 -27.68,-12.303 -27.68,-27.473 0,-15.184 12.397,-27.473 27.68,-27.473 z"
           id="path10"
           inkscape:connector-curvature="0"
           style="fill:#f58536" /></g><g
         id="g12"><path
           d="m 74.29,61.987 0,2.387 c -4.699,8.516 -13.816,14.291 -24.289,14.291 -15.283,0 -27.68,-12.303 -27.68,-27.471 l 0,-2.387 c 0,15.17 12.396,27.473 27.68,27.473 10.473,0 19.59,-5.779 24.289,-14.293"
           id="path14"
           inkscape:connector-curvature="0"
           style="fill:#9d5025" /><path
           d="m 77.679,48.808 0,2.387 c 0,1.332 -0.096,2.641 -0.279,3.926 l 0,-2.385 c 0.183,-1.286 0.279,-2.594 0.279,-3.928"
           id="path16"
           inkscape:connector-curvature="0"
           style="fill:#9d5025" /><path
           d="m 77.399,52.735 0,2.385 c -0.223,1.518 -0.564,2.998 -1.021,4.426 l 0,-2.389 c 0.457,-1.426 0.799,-2.906 1.021,-4.422"
           id="path18"
           inkscape:connector-curvature="0"
           style="fill:#9d5025" /><path
           d="m 76.378,57.157 0,2.389 c -0.547,1.686 -1.242,3.301 -2.088,4.828 l 0,-2.387 c 0.846,-1.529 1.541,-3.144 2.088,-4.83"
           id="path20"
           inkscape:connector-curvature="0"
           style="fill:#9d5025" /></g><path
         d="m 77.679,48.808 0,2.387 c 0,15.168 -12.393,27.471 -27.678,27.471 -15.283,0 -27.68,-12.303 -27.68,-27.471 l 0,-2.387 c 0,15.17 12.396,27.473 27.68,27.473 C 65.286,76.28 77.679,63.978 77.679,48.808 Z"
         id="path22"
         inkscape:connector-curvature="0"
         style="fill:#9d5025" /><path
         d="m 58.161,47.866 0,-6.141 c -0.43,-4.045 -3.918,-7.188 -8.102,-7.188 -4.195,0 -7.688,3.127 -8.102,7.188 l 0,6.141 -4.191,0 0,13.611 24.467,0 0,-13.611 -4.072,0 z m -3.961,0 -8.336,0 0.027,-6.141 c 0,0 -0.004,-3.764 4.168,-3.75 3.99,0.012 4.168,3.75 4.168,3.75 L 54.2,47.866 Z"
         id="path24"
         inkscape:connector-curvature="0"
         style="fill:#ffffff" /></g></g><g
     id="nyt_x5F_exporter_x5F_info"
     display="none" /></svg>