<?xml version="1.0" encoding="UTF-8" standalone="no"?>
<!-- Generator: Adobe Illustrator 16.0.0, SVG Export Plug-In . SVG Version: 6.00 Build 0)  -->

<svg
   xmlns:dc="http://purl.org/dc/elements/1.1/"
   xmlns:cc="http://creativecommons.org/ns#"
   xmlns:rdf="http://www.w3.org/1999/02/22-rdf-syntax-ns#"
   xmlns:svg="http://www.w3.org/2000/svg"
   xmlns="http://www.w3.org/2000/svg"
   xmlns:sodipodi="http://sodipodi.sourceforge.net/DTD/sodipodi-0.dtd"
   xmlns:inkscape="http://www.inkscape.org/namespaces/inkscape"
   version="1.2"
   x="0px"
   y="0px"
   width="100px"
   height="100px"
   viewBox="0 0 100 100"
   xml:space="preserve"
   id="svg2"
   inkscape:version="0.91 r13725"
   sodipodi:docname="Networking_AmazonVPC_CustomerGateway.svg"><metadata
     id="metadata79"><rdf:RDF><cc:Work
         rdf:about=""><dc:format>image/svg+xml</dc:format><dc:type
           rdf:resource="http://purl.org/dc/dcmitype/StillImage" /></cc:Work></rdf:RDF></metadata><defs
     id="defs77" /><sodipodi:namedview
     pagecolor="#ffffff"
     bordercolor="#666666"
     borderopacity="1"
     objecttolerance="10"
     gridtolerance="10"
     guidetolerance="10"
     inkscape:pageopacity="0"
     inkscape:pageshadow="2"
     inkscape:window-width="1280"
     inkscape:window-height="985"
     id="namedview75"
     showgrid="false"
     inkscape:zoom="7.4579687"
     inkscape:cx="50.26817"
     inkscape:cy="50"
     inkscape:window-x="0"
     inkscape:window-y="0"
     inkscape:window-maximized="1"
     inkscape:current-layer="svg2" /><g
     id="Layer_3"
     transform="matrix(1.7599127,0,0,1.7599127,-15.645843,-57.749566)" /><g
     id="Layer_1"
     transform="matrix(1.7599127,0,0,1.7599127,-34.503088,-33.744566)"><g
       id="g6"><g
         id="g8"><polygon
           points="48.956,19.174 52.698,28.496 52.698,30.865 48.956,21.545 "
           id="polygon10"
           style="fill:#9d5025" /></g><g
         id="g12"><rect
           x="49.917"
           y="43.949001"
           width="16.186001"
           height="2.369"
           id="rect14"
           style="fill:#9d5025" /></g><g
         id="g16"><path
           d="m 48.956,19.174 c 14.205,0.49 25.639,11.643 26.449,25.656 l -9.303,-3.676 0,2.795 -16.185,0 0,-15.453 2.781,0 -3.742,-9.322 z"
           id="path18"
           inkscape:connector-curvature="0"
           style="fill:#f58536" /></g><g
         id="g20"><polygon
           points="66.103,41.154 75.405,44.83 75.405,47.203 66.103,43.521 "
           id="polygon22"
           style="fill:#9d5025" /></g><g
         id="g24"><rect
           x="49.917"
           y="64.68"
           width="2.7809999"
           height="2.3710001"
           id="rect26"
           style="fill:#9d5025" /></g><g
         id="g28"><path
           d="M 75.442,47.188 C 75.038,61.516 63.506,73.063 49.106,73.626 l 3.592,-8.945 -2.781,0 0,-15.906 16.186,0 0,2.102 9.339,-3.689 z"
           id="path30"
           inkscape:connector-curvature="0"
           style="fill:#f58536" /></g><g
         id="g32"><path
           d="m 75.442,47.188 0,2.369 c -0.027,1.055 -0.119,2.098 -0.268,3.123 l 0,-2.371 c 0.149,-1.024 0.241,-2.067 0.268,-3.121"
           id="path34"
           inkscape:connector-curvature="0"
           style="fill:#9d5025" /><path
           d="m 75.175,50.309 0,2.371 c -0.217,1.51 -0.559,2.977 -1.016,4.396 l 0,-2.369 c 0.457,-1.42 0.799,-2.891 1.016,-4.398"
           id="path36"
           inkscape:connector-curvature="0"
           style="fill:#9d5025" /><path
           d="m 74.159,54.707 0,2.369 c -0.535,1.666 -1.229,3.262 -2.061,4.771 l 0,-2.371 c 0.833,-1.507 1.526,-3.105 2.061,-4.769"
           id="path38"
           inkscape:connector-curvature="0"
           style="fill:#9d5025" /><path
           d="m 72.099,59.477 0,2.371 C 67.605,69.994 59.037,75.606 49.107,75.994 l 0,-2.369 c 9.929,-0.389 18.497,-6.002 22.992,-14.148"
           id="path40"
           inkscape:connector-curvature="0"
           style="fill:#9d5025" /></g><path
         d="m 75.442,47.188 0,2.369 C 75.038,63.887 63.506,75.43 49.106,75.995 l 0,-2.369 C 63.507,73.062 75.038,61.516 75.442,47.188 Z"
         id="path42"
         inkscape:connector-curvature="0"
         style="fill:#9d5025" /><g
         id="g44"><rect
           x="43.306"
           y="64.68"
           width="2.77"
           height="2.3710001"
           id="rect46"
           style="fill:#9d5025" /></g><g
         id="g48"><path
           d="m 20.589,47.811 8.49,3.357 0,-2.393 16.996,0 0,15.905 -2.77,0 3.596,8.945 C 32.71,73.076 21.313,61.857 20.589,47.811 Z"
           id="path50"
           inkscape:connector-curvature="0"
           style="fill:#f58536" /></g><g
         id="g52"><path
           d="m 46.901,73.625 0,2.369 C 32.71,75.443 21.313,64.229 20.589,50.18 l 0,-2.369 c 0.724,14.046 12.121,25.265 26.312,25.814"
           id="path54"
           inkscape:connector-curvature="0"
           style="fill:#9d5025" /></g><path
         d="m 46.901,73.625 0,2.369 C 32.71,75.443 21.313,64.229 20.589,50.18 l 0,-2.369 c 0.724,14.046 12.121,25.265 26.312,25.814 z"
         id="path56"
         inkscape:connector-curvature="0"
         style="fill:#9d5025" /><g
         id="g58"><polygon
           points="43.306,28.496 47.05,19.174 47.05,21.545 43.306,30.865 "
           id="polygon60"
           style="fill:#9d5025" /></g><g
         id="g62"><rect
           x="29.079"
           y="43.949001"
           width="16.996"
           height="2.369"
           id="rect64"
           style="fill:#9d5025" /></g><g
         id="g66"><path
           d="m 47.05,19.174 -3.744,9.322 2.77,0 0,15.453 -16.997,0 0,-2.307 L 20.589,45 C 21.313,30.902 32.798,19.664 47.05,19.174 Z"
           id="path68"
           inkscape:connector-curvature="0"
           style="fill:#f58536" /></g><g
         id="g70"><polygon
           points="20.589,45 29.079,41.643 29.079,44.01 20.589,47.371 "
           id="polygon72"
           style="fill:#9d5025" /></g></g></g><g
     id="nyt_x5F_exporter_x5F_info"
     display="none" /></svg>