<?xml version="1.0" encoding="UTF-8" standalone="no"?>
<!-- Generator: Adobe Illustrator 16.0.0, SVG Export Plug-In . SVG Version: 6.00 Build 0)  -->

<svg
   xmlns:dc="http://purl.org/dc/elements/1.1/"
   xmlns:cc="http://creativecommons.org/ns#"
   xmlns:rdf="http://www.w3.org/1999/02/22-rdf-syntax-ns#"
   xmlns:svg="http://www.w3.org/2000/svg"
   xmlns="http://www.w3.org/2000/svg"
   xmlns:sodipodi="http://sodipodi.sourceforge.net/DTD/sodipodi-0.dtd"
   xmlns:inkscape="http://www.inkscape.org/namespaces/inkscape"
   version="1.2"
   x="0px"
   y="0px"
   width="99.697px"
   height="99.697px"
   viewBox="0 0 99.697 99.697"
   xml:space="preserve"
   id="svg2"
   inkscape:version="0.91 r13725"
   sodipodi:docname="Networking_AmazonVPC_Peering.svg"><metadata
     id="metadata63"><rdf:RDF><cc:Work
         rdf:about=""><dc:format>image/svg+xml</dc:format><dc:type
           rdf:resource="http://purl.org/dc/dcmitype/StillImage" /></cc:Work></rdf:RDF></metadata><defs
     id="defs61" /><sodipodi:namedview
     pagecolor="#ffffff"
     bordercolor="#666666"
     borderopacity="1"
     objecttolerance="10"
     gridtolerance="10"
     guidetolerance="10"
     inkscape:pageopacity="0"
     inkscape:pageshadow="2"
     inkscape:window-width="1280"
     inkscape:window-height="985"
     id="namedview59"
     showgrid="false"
     inkscape:zoom="7.4806352"
     inkscape:cx="50.115856"
     inkscape:cy="49.848499"
     inkscape:window-x="0"
     inkscape:window-y="0"
     inkscape:window-maximized="1"
     inkscape:current-layer="svg2" /><g
     id="Layer_3"
     transform="matrix(1.7430409,0,0,1.7430409,-16.179716,-54.681867)" /><g
     id="Layer_1"
     transform="matrix(1.7430409,0,0,1.7430409,-36.651648,-28.425367)"><g
       id="g6"><g
         id="g8"><path
           d="m 49.455,16.262 c 15.285,0 27.678,12.289 27.678,27.473 0,15.17 -12.393,27.473 -27.678,27.473 -15.283,0 -27.68,-12.303 -27.68,-27.473 0,-15.184 12.397,-27.473 27.68,-27.473 z"
           id="path10"
           inkscape:connector-curvature="0"
           style="fill:#f58536" /></g><g
         id="g12"><path
           d="m 73.744,56.914 0,2.387 c -4.699,8.516 -13.816,14.291 -24.289,14.291 -15.283,0 -27.68,-12.303 -27.68,-27.471 l 0,-2.387 c 0,15.17 12.396,27.473 27.68,27.473 10.473,0 19.59,-5.779 24.289,-14.293"
           id="path14"
           inkscape:connector-curvature="0"
           style="fill:#9d5025" /><path
           d="m 77.133,43.734 0,2.387 c 0,1.332 -0.096,2.641 -0.279,3.926 l 0,-2.385 c 0.183,-1.285 0.279,-2.594 0.279,-3.928"
           id="path16"
           inkscape:connector-curvature="0"
           style="fill:#9d5025" /><path
           d="m 76.854,47.662 0,2.385 c -0.223,1.518 -0.564,2.998 -1.021,4.426 l 0,-2.389 c 0.456,-1.426 0.798,-2.906 1.021,-4.422"
           id="path18"
           inkscape:connector-curvature="0"
           style="fill:#9d5025" /><path
           d="m 75.832,52.084 0,2.389 c -0.547,1.686 -1.242,3.301 -2.088,4.828 l 0,-2.387 c 0.846,-1.529 1.541,-3.144 2.088,-4.83"
           id="path20"
           inkscape:connector-curvature="0"
           style="fill:#9d5025" /></g><path
         d="m 77.133,43.734 0,2.387 c 0,15.168 -12.393,27.471 -27.678,27.471 -15.283,0 -27.68,-12.303 -27.68,-27.471 l 0,-2.387 c 0,15.17 12.396,27.473 27.68,27.473 15.285,0 27.678,-12.303 27.678,-27.473 z"
         id="path22"
         inkscape:connector-curvature="0"
         style="fill:#9d5025" /></g><g
       id="g24"><g
         id="g26"><line
           stroke-miterlimit="10"
           x1="49.5"
           y1="21.697001"
           x2="49.5"
           y2="65.696999"
           id="line28"
           style="fill:none;stroke:#ffffff;stroke-width:3;stroke-miterlimit:10" /><g
           id="g30"><polygon
             points="46.047,22.697 49.787,16.221 53.527,22.697 "
             id="polygon32"
             style="fill:#ffffff" /></g><g
           id="g34"><polygon
             points="46.047,64.697 49.787,71.174 53.527,64.697 "
             id="polygon36"
             style="fill:#ffffff" /></g></g><g
         id="g38"><line
           stroke-miterlimit="10"
           x1="28"
           y1="45.196999"
           x2="72"
           y2="45.196999"
           id="line40"
           style="fill:none;stroke:#ffffff;stroke-width:3;stroke-miterlimit:10" /><g
           id="g42"><polygon
             points="29,49.102 22.523,45.361 29,41.621 "
             id="polygon44"
             style="fill:#ffffff" /></g><g
           id="g46"><polygon
             points="71,49.102 77.477,45.361 71,41.621 "
             id="polygon48"
             style="fill:#ffffff" /></g></g></g><g
       id="g50"><path
         d="m 59.302,54.179 -19.698,0 c -4.035,0 -7.58,-3.002 -7.58,-6.422 l 0,-0.557 c 0,-2.807 2.521,-6.146 6.004,-6.833 0.434,-2.423 2.542,-4.229 5.095,-4.229 0.712,0 1.409,0.144 2.05,0.422 1.66,-2.845 4.741,-4.638 8.089,-4.638 5.024,0 9.142,3.96 9.342,8.904 2.552,1.106 4.28,4.106 4.28,6.373 l 0,0.557 c 0,3.421 -3.542,6.423 -7.582,6.423 z"
         id="path52"
         inkscape:connector-curvature="0"
         style="fill:#ffffff" /><g
         id="g54"><path
           d="m 43.754,38.959 c -1.363,0 -2.465,1.065 -2.511,2.421 l -0.041,1.185 -1.185,0.1 c -2.215,0.187 -4.107,2.424 -4.107,4.122 l 0,0.499 c 0,1.689 2.044,3.653 4.681,3.653 l 17.724,0 c 2.64,0 4.683,-1.964 4.683,-3.653 l 0,-0.499 c 0,-1.389 -1.289,-3.44 -2.892,-3.898 l -0.985,-0.286 0.028,-1.159 c 0,-1.679 -0.652,-3.261 -1.841,-4.447 -1.18,-1.181 -2.752,-1.83 -4.428,-1.83 -2.463,0 -4.706,1.443 -5.72,3.682 l -0.655,1.466 -1.329,-0.908 c -0.418,-0.296 -0.91,-0.448 -1.422,-0.448 z"
           id="path56"
           inkscape:connector-curvature="0"
           style="fill:#f58536" /></g></g></g><g
     id="nyt_x5F_exporter_x5F_info"
     display="none" /></svg>