<?xml version="1.0" encoding="UTF-8" standalone="no"?>
<!-- Generator: Adobe Illustrator 16.0.0, SVG Export Plug-In . SVG Version: 6.00 Build 0)  -->

<svg
   xmlns:dc="http://purl.org/dc/elements/1.1/"
   xmlns:cc="http://creativecommons.org/ns#"
   xmlns:rdf="http://www.w3.org/1999/02/22-rdf-syntax-ns#"
   xmlns:svg="http://www.w3.org/2000/svg"
   xmlns="http://www.w3.org/2000/svg"
   xmlns:sodipodi="http://sodipodi.sourceforge.net/DTD/sodipodi-0.dtd"
   xmlns:inkscape="http://www.inkscape.org/namespaces/inkscape"
   version="1.2"
   x="0px"
   y="0px"
   width="100px"
   height="100px"
   viewBox="0 0 100 100"
   xml:space="preserve"
   id="svg2"
   inkscape:version="0.91 r13725"
   sodipodi:docname="Networking_AmazonVPC.svg"><metadata
     id="metadata37"><rdf:RDF><cc:Work
         rdf:about=""><dc:format>image/svg+xml</dc:format><dc:type
           rdf:resource="http://purl.org/dc/dcmitype/StillImage" /></cc:Work></rdf:RDF></metadata><defs
     id="defs35" /><sodipodi:namedview
     pagecolor="#ffffff"
     bordercolor="#666666"
     borderopacity="1"
     objecttolerance="10"
     gridtolerance="10"
     guidetolerance="10"
     inkscape:pageopacity="0"
     inkscape:pageshadow="2"
     inkscape:window-width="1280"
     inkscape:window-height="960"
     id="namedview33"
     showgrid="false"
     inkscape:zoom="2.2397212"
     inkscape:cx="-27.311796"
     inkscape:cy="92.456653"
     inkscape:window-x="0"
     inkscape:window-y="27"
     inkscape:window-maximized="1"
     inkscape:current-layer="g28" /><g
     id="Layer_3"
     transform="matrix(1.7461759,0,0,1.7461759,-16.6733,-58.674794)" /><g
     id="g28"
     transform="matrix(2.512142,0,0,2.4944162,-75.6071,-63.692996)"><path
       d="m 56.253,40.243 -1.939,1.33 -0.963,-2.139 c -1.48,-3.273 -4.762,-5.387 -8.361,-5.387 -2.451,0 -4.75,0.951 -6.477,2.68 -1.736,1.73 -2.689,4.047 -2.689,6.498 l 0.039,1.699 -1.441,0.416 c -2.34,0.672 -4.227,3.67 -4.227,5.701 l 0,0.73 c 0,2.469 2.99,5.34 6.846,5.34 l 25.92,0 c 3.854,0 6.844,-2.871 6.844,-5.34 l 0,-0.73 c 0,-2.484 -2.77,-5.754 -6.006,-6.029 l -1.736,-0.145 -0.057,-1.732 c -0.064,-1.98 -1.68,-3.539 -3.674,-3.539 -0.747,0.001 -1.468,0.223 -2.079,0.647 z"
       id="path30"
       inkscape:connector-curvature="0"
       style="fill:#d9a741;fill-opacity:1" /></g><g
     id="nyt_x5F_exporter_x5F_info"
     display="none" /><text
     xml:space="preserve"
     style="font-style:normal;font-weight:normal;font-size:37.18725204px;line-height:125%;font-family:Sans;letter-spacing:0px;word-spacing:0px;fill:#ffffff;fill-opacity:1;stroke:none;stroke-width:1px;stroke-linecap:butt;stroke-linejoin:miter;stroke-opacity:1"
     x="19.132174"
     y="63.033363"
     id="text4157"
     sodipodi:linespacing="125%"
     transform="scale(0.86011958,1.162629)"><tspan
       sodipodi:role="line"
       id="tspan4159"
       x="19.132174"
       y="63.033363">VPC</tspan></text>
</svg>