<?xml version="1.0" encoding="UTF-8" standalone="no"?>
<!-- Generator: Adobe Illustrator 16.0.0, SVG Export Plug-In . SVG Version: 6.00 Build 0)  -->

<svg
   xmlns:dc="http://purl.org/dc/elements/1.1/"
   xmlns:cc="http://creativecommons.org/ns#"
   xmlns:rdf="http://www.w3.org/1999/02/22-rdf-syntax-ns#"
   xmlns:svg="http://www.w3.org/2000/svg"
   xmlns="http://www.w3.org/2000/svg"
   xmlns:sodipodi="http://sodipodi.sourceforge.net/DTD/sodipodi-0.dtd"
   xmlns:inkscape="http://www.inkscape.org/namespaces/inkscape"
   version="1.2"
   x="0px"
   y="0px"
   width="100px"
   height="100px"
   viewBox="0 0 100 100"
   xml:space="preserve"
   id="svg2"
   inkscape:version="0.91 r13725"
   sodipodi:docname="Networking_AmazonVPC_VPNConnection.svg"><metadata
     id="metadata63"><rdf:RDF><cc:Work
         rdf:about=""><dc:format>image/svg+xml</dc:format><dc:type
           rdf:resource="http://purl.org/dc/dcmitype/StillImage" /></cc:Work></rdf:RDF></metadata><defs
     id="defs61" /><sodipodi:namedview
     pagecolor="#ffffff"
     bordercolor="#666666"
     borderopacity="1"
     objecttolerance="10"
     gridtolerance="10"
     guidetolerance="10"
     inkscape:pageopacity="0"
     inkscape:pageshadow="2"
     inkscape:window-width="1280"
     inkscape:window-height="985"
     id="namedview59"
     showgrid="false"
     inkscape:zoom="5.2735803"
     inkscape:cx="48.985115"
     inkscape:cy="51.945863"
     inkscape:window-x="0"
     inkscape:window-y="0"
     inkscape:window-maximized="1"
     inkscape:current-layer="svg2" /><g
     id="Layer_3"
     transform="matrix(1.9153052,0,0,1.9153052,-21.870303,-64.711164)" /><g
     id="g8"
     transform="matrix(1.9153052,0,0,1.9153052,-45.764302,-45.763346)"><g
       id="g10"><path
         style="fill:#9d5025"
         inkscape:connector-curvature="0"
         id="path12"
         d="m 49.535,34.318 0,2.271 c -0.014,0 -0.029,0 -0.045,0 -2.822,0 -4.23,1.189 -4.932,2.463 l 0,-2.271 c 0.701,-1.273 2.109,-2.463 4.932,-2.463 0.016,0 0.031,0 0.045,0" /><path
         style="fill:#9d5025"
         inkscape:connector-curvature="0"
         id="path14"
         d="m 44.559,36.781 0,2.271 c -0.172,0.305 -0.299,0.621 -0.395,0.918 l 0,-2.268 c 0.096,-0.304 0.223,-0.614 0.395,-0.921" /><path
         style="fill:#9d5025"
         inkscape:connector-curvature="0"
         id="path16"
         d="m 44.164,37.703 0,2.268 c -0.113,0.352 -0.182,0.686 -0.225,0.982 l 0,-2.268 c 0.043,-0.298 0.112,-0.632 0.225,-0.982" /><path
         style="fill:#9d5025"
         inkscape:connector-curvature="0"
         id="path18"
         d="m 43.939,38.686 0,2.268 c -0.053,0.365 -0.064,0.668 -0.064,0.867 l 0,-2.268 c 0,-0.201 0.012,-0.506 0.064,-0.867" /></g><path
       style="fill:#9d5025"
       inkscape:connector-curvature="0"
       id="path20"
       d="m 43.875,41.82 0,-2.268 c 0,-1.08 0.348,-5.234 5.615,-5.234 0.016,0 0.031,0 0.045,0 l 0,2.271 c -0.014,0 -0.029,0 -0.045,0 -5.267,0.001 -5.615,4.153 -5.615,5.231 z" /><g
       id="g22"><path
         style="fill:#9d5025"
         inkscape:connector-curvature="0"
         id="path24"
         d="m 55.205,39.609 0,2.268 C 55.168,40.93 54.758,36.602 49.535,36.59 l 0,-2.271 c 5.223,0.011 5.633,4.341 5.67,5.29" /></g><path
       style="fill:#9d5025"
       inkscape:connector-curvature="0"
       id="path26"
       d="m 55.205,39.609 0,2.268 C 55.168,40.93 54.758,36.602 49.535,36.59 l 0,-2.271 c 5.223,0.011 5.633,4.341 5.67,5.29 z" /><g
       id="g28"><rect
         style="fill:#9d5025"
         id="rect30"
         height="2.27"
         width="5.4920001"
         y="44.966999"
         x="61.762001" /></g><g
       id="g32"><rect
         style="fill:#9d5025"
         id="rect34"
         height="2.27"
         width="11.295"
         y="44.966999"
         x="43.91" /></g><g
       id="g36"><rect
         style="fill:#9d5025"
         id="rect38"
         height="2.27"
         width="5.375"
         y="44.966999"
         x="32.771" /></g><g
       id="g40"><polygon
         style="fill:#9d5025"
         id="polygon42"
         points="76.105,44.639 67.254,50.713 67.254,48.441 76.105,42.369 " /></g><g
       id="g44"><polygon
         style="fill:#9d5025"
         id="polygon46"
         points="32.771,50.725 23.895,44.639 23.895,42.369 32.771,48.455 " /></g><g
       id="g48"><rect
         style="fill:#866929"
         id="rect50"
         height="2.273"
         width="5.7639999"
         y="51.109001"
         x="38.146" /></g><path
       style="fill:#f58536"
       inkscape:connector-curvature="0"
       id="path52"
       d="m 76.105,42.369 -8.852,6.072 0,-3.475 -5.492,0 0,6.555 3.922,0 0,16.906 -31.437,0 0,-16.906 20.959,0 0,-6.555 -11.295,0 0,6.797 -5.764,0 0,-6.797 -5.375,0 0,3.488 -8.877,-6.086 8.877,-6.084 0,3.324 5.363,0 c 0.707,-6.369 5.775,-10.309 11.861,-10.309 6.117,0 11.766,3.473 11.766,9.768 l 0,0.541 5.492,0 0,-3.324 8.852,6.085 z m -32.23,-2.76 11.33,0 c -0.037,-0.949 -0.447,-5.279 -5.67,-5.291 -0.014,0 -0.029,0 -0.045,0 -5.367,0 -5.625,4.311 -5.615,5.291" /><g
       id="g54"><rect
         style="fill:#9d5025"
         id="rect56"
         height="2.2709999"
         width="31.438"
         y="68.428001"
         x="34.245998" /></g></g><g
     id="nyt_x5F_exporter_x5F_info"
     display="none" /></svg>