<?xml version="1.0" encoding="UTF-8" standalone="no"?>
<!-- Generator: Adobe Illustrator 18.1.0, SVG Export Plug-In . SVG Version: 6.00 Build 0)  -->

<svg
   xmlns:dc="http://purl.org/dc/elements/1.1/"
   xmlns:cc="http://creativecommons.org/ns#"
   xmlns:rdf="http://www.w3.org/1999/02/22-rdf-syntax-ns#"
   xmlns:svg="http://www.w3.org/2000/svg"
   xmlns="http://www.w3.org/2000/svg"
   xmlns:sodipodi="http://sodipodi.sourceforge.net/DTD/sodipodi-0.dtd"
   xmlns:inkscape="http://www.inkscape.org/namespaces/inkscape"
   version="1.1"
   x="0px"
   y="0px"
   viewBox="0 0 100 100"
   enable-background="new 0 0 100 100"
   xml:space="preserve"
   id="svg2"
   inkscape:version="0.91 r13725"
   sodipodi:docname="Compute_Lambda.svg"><metadata
     id="metadata40"><rdf:RDF><cc:Work
         rdf:about=""><dc:format>image/svg+xml</dc:format><dc:type
           rdf:resource="http://purl.org/dc/dcmitype/StillImage" /></cc:Work></rdf:RDF></metadata><defs
     id="defs38" /><sodipodi:namedview
     pagecolor="#ffffff"
     bordercolor="#666666"
     borderopacity="1"
     objecttolerance="10"
     gridtolerance="10"
     guidetolerance="10"
     inkscape:pageopacity="0"
     inkscape:pageshadow="2"
     inkscape:window-width="1280"
     inkscape:window-height="985"
     id="namedview36"
     showgrid="false"
     inkscape:zoom="7.4579687"
     inkscape:cx="50.26817"
     inkscape:cy="50"
     inkscape:window-x="0"
     inkscape:window-y="0"
     inkscape:window-maximized="1"
     inkscape:current-layer="svg2" /><g
     id="Amazon_CloudSearch"
     transform="matrix(1.3888889,0,0,1.3888889,-19.444445,-19.444445)"><g
       id="g5"><polygon
         points="31.3,71.3 31.3,28.8 24,27 24,73 "
         id="polygon7"
         style="fill:#f58536" /><polygon
         points="45.5,25.6 45.5,74.3 34.1,78 34.1,21.9 "
         id="polygon9"
         style="fill:#f58536" /><polygon
         points="71.6,36.9 53.7,32.3 58.9,29.6 76.2,36.3 "
         id="polygon11"
         style="fill:#6b3a19" /><polygon
         points="71.7,63.1 53.9,67.7 59,70.4 76.3,63.7 "
         id="polygon13"
         style="fill:#fbbf93" /><polygon
         points="55.2,39.7 55.2,60.3 64.3,61.5 64.3,38.5 "
         id="polygon15"
         style="fill:#9d5025" /><polygon
         points="58.9,18.5 58.9,81.5 50,86 50,14 "
         id="polygon17"
         style="fill:#f58536" /><polygon
         points="79.8,71.1 79.8,62.7 50,71.6 50,86 "
         id="polygon19"
         style="fill:#f58536" /><polygon
         points="76,73 76,27 79.8,28.9 79.8,71.1 "
         id="polygon21"
         style="fill:#f58536" /><polygon
         points="50,14 50,28.4 79.8,37.3 79.8,28.9 "
         id="polygon23"
         style="fill:#f58536" /><polygon
         points="41.1,18.5 41.1,81.5 50,86 50,14 "
         id="polygon25"
         style="fill:#9d5025" /><polygon
         points="28.5,75.3 28.5,24.7 34.1,21.9 34.1,78.1 "
         id="polygon27"
         style="fill:#9d5025" /><polygon
         points="20.2,28.9 20.2,71.1 24,73 24,27 "
         id="polygon29"
         style="fill:#9d5025" /><polygon
         points="71.4,63.2 71.4,36.9 76,36.3 76,63.8 "
         id="polygon31"
         style="fill:#9d5025" /><polygon
         points="64.3,38.5 64.3,61.6 73.8,50 "
         id="polygon33"
         style="fill:#f58536" /></g></g><g
     id="nyt_x5F_exporter_x5F_info"
     display="none" /></svg>