<?xml version="1.0" encoding="UTF-8" standalone="no"?>
<!-- Generator: Adobe Illustrator 19.0.0, SVG Export Plug-In . SVG Version: 6.00 Build 0)  -->

<svg
   xmlns:dc="http://purl.org/dc/elements/1.1/"
   xmlns:cc="http://creativecommons.org/ns#"
   xmlns:rdf="http://www.w3.org/1999/02/22-rdf-syntax-ns#"
   xmlns:svg="http://www.w3.org/2000/svg"
   xmlns="http://www.w3.org/2000/svg"
   xmlns:sodipodi="http://sodipodi.sourceforge.net/DTD/sodipodi-0.dtd"
   xmlns:inkscape="http://www.inkscape.org/namespaces/inkscape"
   version="1.1"
   id="Layer_1"
   x="0px"
   y="0px"
   viewBox="0 0 100 100"
   style="enable-background:new 0 0 100 100;"
   xml:space="preserve"
   inkscape:version="0.91 r13725"
   sodipodi:docname="StorageContentDelivery_AmazonS3_Objects.svg"><metadata
     id="metadata31"><rdf:RDF><cc:Work
         rdf:about=""><dc:format>image/svg+xml</dc:format><dc:type
           rdf:resource="http://purl.org/dc/dcmitype/StillImage" /></cc:Work></rdf:RDF></metadata><defs
     id="defs29" /><sodipodi:namedview
     pagecolor="#ffffff"
     bordercolor="#666666"
     borderopacity="1"
     objecttolerance="10"
     gridtolerance="10"
     guidetolerance="10"
     inkscape:pageopacity="0"
     inkscape:pageshadow="2"
     inkscape:window-width="1280"
     inkscape:window-height="985"
     id="namedview27"
     showgrid="false"
     inkscape:zoom="7.4579687"
     inkscape:cx="50.26817"
     inkscape:cy="50"
     inkscape:window-x="0"
     inkscape:window-y="0"
     inkscape:window-maximized="1"
     inkscape:current-layer="Layer_1" /><style
     type="text/css"
     id="style3">
	.st0{fill:#E05243;}
	.st1{fill:#8C3123;}
	.st2{display:none;}
</style><g
     id="Layer_1_1_"
     transform="matrix(2.4509804,0,0,2.4509804,-72.54902,-72.54902)"><g
       id="g6"><g
         id="g8"><g
           id="g10"><path
             class="st0"
             d="m 50,29.6 c 10.4,0 18.8,8.3 18.8,18.6 C 68.8,58.5 60.4,66.9 50,66.9 39.6,66.9 31.2,58.6 31.2,48.3 31.2,38 39.6,29.6 50,29.6 Z"
             id="path12"
             inkscape:connector-curvature="0"
             style="fill:#e05243" /></g><g
           id="g14"><path
             class="st1"
             d="m 68.8,48.2 0,3.5 c 0,0.9 -0.1,1.8 -0.2,2.7 l 0,-3.5 c 0.1,-0.9 0.2,-1.8 0.2,-2.7"
             id="path16"
             inkscape:connector-curvature="0"
             style="fill:#8c3123" /><path
             class="st1"
             d="m 68.6,50.9 0,3.5 c -0.2,1 -0.4,2 -0.7,3 l 0,-3.5 c 0.3,-1 0.5,-2 0.7,-3"
             id="path18"
             inkscape:connector-curvature="0"
             style="fill:#8c3123" /><path
             class="st1"
             d="m 67.9,53.9 0,3.5 c -0.4,1.1 -0.8,2.2 -1.4,3.3 l 0,-3.5 c 0.5,-1.1 1,-2.2 1.4,-3.3"
             id="path20"
             inkscape:connector-curvature="0"
             style="fill:#8c3123" /><path
             class="st1"
             d="m 66.5,57.2 0,3.5 C 63.3,66.5 57.1,70.4 50,70.4 39.6,70.4 31.2,62.1 31.2,51.8 l 0,-3.5 c 0,10.3 8.4,18.6 18.8,18.6 7.1,0 13.3,-3.9 16.5,-9.7"
             id="path22"
             inkscape:connector-curvature="0"
             style="fill:#8c3123" /></g><path
           class="st1"
           d="m 68.8,48.2 0,3.5 C 68.8,62 60.4,70.3 50,70.3 39.6,70.3 31.2,62 31.2,51.8 l 0,-3.5 c 0,10.3 8.4,18.6 18.8,18.6 10.4,0 18.8,-8.4 18.8,-18.7 z"
           id="path24"
           inkscape:connector-curvature="0"
           style="fill:#8c3123" /></g></g></g><g
     id="nyt_x5F_exporter_x5F_info"
     class="st2" /></svg>