<?xml version="1.0" encoding="UTF-8" standalone="no"?>
<!-- Generator: Adobe Illustrator 19.0.0, SVG Export Plug-In . SVG Version: 6.00 Build 0)  -->

<svg
   xmlns:dc="http://purl.org/dc/elements/1.1/"
   xmlns:cc="http://creativecommons.org/ns#"
   xmlns:rdf="http://www.w3.org/1999/02/22-rdf-syntax-ns#"
   xmlns:svg="http://www.w3.org/2000/svg"
   xmlns="http://www.w3.org/2000/svg"
   xmlns:sodipodi="http://sodipodi.sourceforge.net/DTD/sodipodi-0.dtd"
   xmlns:inkscape="http://www.inkscape.org/namespaces/inkscape"
   version="1.1"
   id="Layer_1"
   x="0px"
   y="0px"
   viewBox="0 0 100 100"
   style="enable-background:new 0 0 100 100;"
   xml:space="preserve"
   inkscape:version="0.91 r13725"
   sodipodi:docname="StorageContentDelivery_AmazonS3_Bucket.svg"><metadata
     id="metadata71"><rdf:RDF><cc:Work
         rdf:about=""><dc:format>image/svg+xml</dc:format><dc:type
           rdf:resource="http://purl.org/dc/dcmitype/StillImage" /></cc:Work></rdf:RDF></metadata><defs
     id="defs69" /><sodipodi:namedview
     pagecolor="#ffffff"
     bordercolor="#666666"
     borderopacity="1"
     objecttolerance="10"
     gridtolerance="10"
     guidetolerance="10"
     inkscape:pageopacity="0"
     inkscape:pageshadow="2"
     inkscape:window-width="1280"
     inkscape:window-height="985"
     id="namedview67"
     showgrid="false"
     inkscape:zoom="7.4579687"
     inkscape:cx="50.26817"
     inkscape:cy="50"
     inkscape:window-x="0"
     inkscape:window-y="0"
     inkscape:window-maximized="1"
     inkscape:current-layer="Layer_1" /><style
     type="text/css"
     id="style3">
	.st0{fill:#8C3123;}
	.st1{fill:#E05243;}
	.st2{display:none;}
</style><g
     id="Layer_1_1_"
     transform="matrix(1.7730496,0,0,1.7730496,-38.65248,-38.65248)"><g
       id="g6"><g
         id="g8"><g
           id="g10"><path
             class="st0"
             d="M 22.8,35.7 C 22.7,35.5 22.6,35.2 22.6,35 l 0.2,0.7 z"
             id="path12"
             inkscape:connector-curvature="0"
             style="fill:#8c3123" /></g><g
           id="g14"><path
             class="st0"
             d="M 77.2,35.7 77.4,35 c 0,0.2 -0.1,0.5 -0.2,0.7 z"
             id="path16"
             inkscape:connector-curvature="0"
             style="fill:#8c3123" /></g><g
           id="g18"><polygon
             class="st0"
             points="77.2,33.4 77.4,32.7 77.4,35 77.2,35.7 "
             id="polygon20"
             style="fill:#8c3123" /></g><g
           id="g22"><polygon
             class="st0"
             points="22.6,32.7 22.8,33.4 22.8,35.7 22.6,35 "
             id="polygon24"
             style="fill:#8c3123" /></g><g
           id="g26"><path
             class="st0"
             d="m 77.4,28.2 0,2.3 c 0,0.1 0,0.2 0,0.3 l 0,-2.3 c -0.1,-0.1 0,-0.2 0,-0.3"
             id="path28"
             inkscape:connector-curvature="0"
             style="fill:#8c3123" /><path
             class="st0"
             d="m 77.3,28.5 0,2.3 c 0,0.1 0,0.2 -0.1,0.3 l 0,-2.3 c 0.1,-0.1 0.1,-0.2 0.1,-0.3"
             id="path30"
             inkscape:connector-curvature="0"
             style="fill:#8c3123" /><path
             class="st0"
             d="m 77.3,28.8 0,2.3 c 0,0.1 -0.1,0.3 -0.2,0.4 l 0,-2.3 c 0,-0.2 0.1,-0.3 0.2,-0.4"
             id="path32"
             inkscape:connector-curvature="0"
             style="fill:#8c3123" /><path
             class="st0"
             d="m 77.1,29.2 0,2.3 C 75.1,34.6 63.7,37 50,37 34.9,37 22.6,34.1 22.6,30.6 l 0,-2.3 c 0,3.6 12.2,6.4 27.4,6.4 13.7,0 25.1,-2.4 27.1,-5.5"
             id="path34"
             inkscape:connector-curvature="0"
             style="fill:#8c3123" /></g><path
           class="st0"
           d="m 77.4,28.2 0,2.3 c 0,3.6 -12.3,6.4 -27.4,6.4 -15.1,0 -27.4,-2.9 -27.4,-6.4 l 0,-2.3 c 0,3.6 12.2,6.4 27.4,6.4 15.1,0.1 27.4,-2.8 27.4,-6.4 z"
           id="path36"
           inkscape:connector-curvature="0"
           style="fill:#8c3123" /><g
           id="g38"><path
             class="st1"
             d="m 50,21.8 c 15.1,0 27.4,2.9 27.4,6.4 0,3.6 -12.3,6.4 -27.4,6.4 -15.1,0 -27.4,-2.9 -27.4,-6.4 0,-3.5 12.3,-6.4 27.4,-6.4 z"
             id="path40"
             inkscape:connector-curvature="0"
             style="fill:#e05243" /></g><g
           id="g42"><polygon
             class="st0"
             points="68.2,71.6 77.2,33.4 77.2,35.7 68.2,73.9 "
             id="polygon44"
             style="fill:#8c3123" /></g><g
           id="g46"><polygon
             class="st0"
             points="22.8,33.4 31.8,71.6 31.8,73.9 22.8,35.7 "
             id="polygon48"
             style="fill:#8c3123" /></g><g
           id="g50"><path
             class="st0"
             d="m 68.2,71.6 0,2.3 c 0,0.1 0,0.1 0,0.2 l 0,-2.3 c 0,-0.1 0,-0.2 0,-0.2"
             id="path52"
             inkscape:connector-curvature="0"
             style="fill:#8c3123" /><path
             class="st0"
             d="m 68.2,71.8 0,2.3 c 0,0.1 0,0.1 0,0.2 l 0,-2.3 c 0,-0.1 0,-0.2 0,-0.2"
             id="path54"
             inkscape:connector-curvature="0"
             style="fill:#8c3123" /><path
             class="st0"
             d="m 68.2,71.9 0,2.3 c 0,0.1 -0.1,0.2 -0.1,0.3 l 0,-2.3 c 0,-0.1 0,-0.2 0.1,-0.3"
             id="path56"
             inkscape:connector-curvature="0"
             style="fill:#8c3123" /><path
             class="st0"
             d="m 68,72.2 0,2.3 c -1.3,2.1 -8.9,3.7 -18.1,3.7 -10.1,0 -18.2,-1.9 -18.2,-4.3 l 0,-2.3 c 0,2.4 8.2,4.3 18.2,4.3 9.3,0 16.9,-1.6 18.1,-3.7"
             id="path58"
             inkscape:connector-curvature="0"
             style="fill:#8c3123" /></g><path
           class="st0"
           d="m 68.2,71.6 0,2.3 c 0,2.4 -8.2,4.3 -18.2,4.3 -10.1,0 -18.2,-1.9 -18.2,-4.3 l 0,-2.3 c 0,2.4 8.2,4.3 18.2,4.3 10.1,0 18.2,-1.9 18.2,-4.3 z"
           id="path60"
           inkscape:connector-curvature="0"
           style="fill:#8c3123" /><g
           id="g62"><path
             class="st1"
             d="m 50,39.1 c 14.1,0 25.7,-2.5 27.2,-5.7 l -8.9,38.2 c 0,2.4 -8.2,4.3 -18.2,4.3 C 40,75.9 31.9,74 31.9,71.6 L 23,33.4 c 1.3,3.2 12.9,5.7 27,5.7 z"
             id="path64"
             inkscape:connector-curvature="0"
             style="fill:#e05243" /></g></g></g></g><g
     id="nyt_x5F_exporter_x5F_info"
     class="st2" /></svg>