<?xml version="1.0" encoding="UTF-8" standalone="no"?>
<!-- Generator: Adobe Illustrator 18.1.1, SVG Export Plug-In . SVG Version: 6.00 Build 0)  -->

<svg
   xmlns:dc="http://purl.org/dc/elements/1.1/"
   xmlns:cc="http://creativecommons.org/ns#"
   xmlns:rdf="http://www.w3.org/1999/02/22-rdf-syntax-ns#"
   xmlns:svg="http://www.w3.org/2000/svg"
   xmlns="http://www.w3.org/2000/svg"
   xmlns:sodipodi="http://sodipodi.sourceforge.net/DTD/sodipodi-0.dtd"
   xmlns:inkscape="http://www.inkscape.org/namespaces/inkscape"
   version="1.2"
   id="Layer_1"
   x="0px"
   y="0px"
   viewBox="0 0 100 100"
   xml:space="preserve"
   inkscape:version="0.91 r13725"
   sodipodi:docname="StorageContentDelivery_AmazonS3_BucketwithObjects.svg"><metadata
     id="metadata61"><rdf:RDF><cc:Work
         rdf:about=""><dc:format>image/svg+xml</dc:format><dc:type
           rdf:resource="http://purl.org/dc/dcmitype/StillImage" /></cc:Work></rdf:RDF></metadata><defs
     id="defs59" /><sodipodi:namedview
     pagecolor="#ffffff"
     bordercolor="#666666"
     borderopacity="1"
     objecttolerance="10"
     gridtolerance="10"
     guidetolerance="10"
     inkscape:pageopacity="0"
     inkscape:pageshadow="2"
     inkscape:window-width="1280"
     inkscape:window-height="985"
     id="namedview57"
     showgrid="false"
     inkscape:zoom="7.4579687"
     inkscape:cx="50.26817"
     inkscape:cy="50"
     inkscape:window-x="0"
     inkscape:window-y="0"
     inkscape:window-maximized="1"
     inkscape:current-layer="Layer_1" /><g
     id="Layer_1_1_"
     transform="matrix(1.7623009,0,0,1.7623009,-38.115045,-38.115045)"><g
       id="g4"><g
         id="g6"><g
           id="g8"><g
             id="g10"><path
               d="m 77.586,28.061 0,2.772 c 0,0.084 -0.006,0.168 -0.02,0.25 l 0,-2.771 c 0.014,-0.084 0.02,-0.167 0.02,-0.251"
               id="path12"
               inkscape:connector-curvature="0"
               style="fill:#8c3123" /><path
               d="m 77.566,28.312 0,2.771 c -0.018,0.098 -0.039,0.193 -0.074,0.289 l 0,-2.773 c 0.035,-0.096 0.057,-0.192 0.074,-0.287"
               id="path14"
               inkscape:connector-curvature="0"
               style="fill:#8c3123" /><path
               d="m 77.492,28.599 0,2.773 c -0.049,0.135 -0.113,0.268 -0.195,0.4 l 0,-2.773 c 0.082,-0.133 0.146,-0.265 0.195,-0.4"
               id="path16"
               inkscape:connector-curvature="0"
               style="fill:#8c3123" /><path
               d="m 77.297,28.999 0,2.773 c -1.945,3.111 -13.42,5.493 -27.289,5.493 -15.25,0 -27.594,-2.874 -27.594,-6.433 l 0,-2.772 c 0,3.559 12.344,6.432 27.594,6.432 13.869,0 25.344,-2.382 27.289,-5.493"
               id="path18"
               inkscape:connector-curvature="0"
               style="fill:#8c3123" /></g><path
             d="m 77.586,28.061 0,2.772 c 0,3.559 -12.344,6.433 -27.578,6.433 -15.25,0 -27.594,-2.874 -27.594,-6.433 l 0,-2.772 c 0,3.559 12.344,6.432 27.594,6.432 15.234,-0.001 27.578,-2.874 27.578,-6.432 z"
             id="path20"
             inkscape:connector-curvature="0"
             style="fill:#8c3123" /><g
             id="g22"><path
               d="m 50.008,21.628 c 15.234,0 27.578,2.875 27.578,6.433 0,3.559 -12.344,6.432 -27.578,6.432 -15.25,0 -27.594,-2.873 -27.594,-6.432 0,-3.558 12.344,-6.433 27.594,-6.433 z"
               id="path24"
               inkscape:connector-curvature="0"
               style="fill:#e05243" /></g><g
             id="g26"><polygon
               points="67.67,72.257 77.428,33.006 77.428,35.779 68.387,74.069 "
               id="polygon28"
               style="fill:#8c3123" /></g><g
             id="g30"><polygon
               points="22.572,33.006 31.613,71.296 31.613,74.069 22.572,35.779 "
               id="polygon32"
               style="fill:#8c3123" /></g><g
             id="g34"><path
               d="m 68.387,71.296 0,2.773 c 0,0.057 -0.004,0.112 -0.012,0.168 l 0,-2.771 c 0.008,-0.057 0.012,-0.113 0.012,-0.17"
               id="path36"
               inkscape:connector-curvature="0"
               style="fill:#8c3123" /><path
               d="m 68.375,71.466 0,2.771 c -0.012,0.066 -0.027,0.131 -0.051,0.196 l 0,-2.772 c 0.024,-0.065 0.039,-0.131 0.051,-0.195"
               id="path38"
               inkscape:connector-curvature="0"
               style="fill:#8c3123" /><path
               d="m 68.324,71.661 0,2.772 c -0.033,0.091 -0.076,0.18 -0.131,0.268 l 0,-2.772 c 0.055,-0.09 0.098,-0.178 0.131,-0.268"
               id="path40"
               inkscape:connector-curvature="0"
               style="fill:#8c3123" /><path
               d="m 68.67,71.007 -0.477,3.694 c -1.301,2.084 -8.939,3.671 -18.186,3.671 -10.162,0 -18.395,-1.916 -18.395,-4.303 l 0,-2.773 c 0,2.389 8.232,4.303 18.395,4.303 9.246,0 16.885,-1.585 18.186,-3.67"
               id="path42"
               inkscape:connector-curvature="0"
               style="fill:#8c3123" /></g><path
             d="m 68.387,71.296 0,2.773 c 0,2.387 -8.217,4.303 -18.379,4.303 -10.162,0 -18.395,-1.916 -18.395,-4.303 l 0,-2.773 c 0,2.389 8.232,4.303 18.395,4.303 10.163,0 18.379,-1.914 18.379,-4.303 z"
             id="path44"
             inkscape:connector-curvature="0"
             style="fill:#8c3123" /><g
             id="g46"><path
               d="m 50.008,38.752 c 14.24,0 25.951,-2.515 27.42,-5.746 l -9.041,38.29 c 0,2.389 -8.217,4.303 -18.379,4.303 -10.162,0 -18.395,-1.914 -18.395,-4.303 l -9.041,-38.29 c 1.471,3.231 13.198,5.746 27.436,5.746 z"
               id="path48"
               inkscape:connector-curvature="0"
               style="fill:#e05243" /></g></g></g><rect
         x="43.762001"
         y="42.854"
         width="11.477"
         height="11.398"
         id="rect50"
         style="fill:#ffffff" /><ellipse
         cx="40.286999"
         cy="63.900002"
         rx="5.658"
         ry="5.6199999"
         id="ellipse52"
         style="fill:#ffffff" /><polygon
         points="64.09,69.257 52.748,69.257 58.42,58.784 "
         id="polygon54"
         style="fill:#ffffff" /></g></g><g
     id="nyt_x5F_exporter_x5F_info"
     display="none" /></svg>