<?xml version="1.0" encoding="UTF-8" standalone="no"?>
<!-- Generator: Adobe Illustrator 19.1.0, SVG Export Plug-In . SVG Version: 6.00 Build 0)  -->

<svg
   xmlns:dc="http://purl.org/dc/elements/1.1/"
   xmlns:cc="http://creativecommons.org/ns#"
   xmlns:rdf="http://www.w3.org/1999/02/22-rdf-syntax-ns#"
   xmlns:svg="http://www.w3.org/2000/svg"
   xmlns="http://www.w3.org/2000/svg"
   xmlns:xlink="http://www.w3.org/1999/xlink"
   xmlns:sodipodi="http://sodipodi.sourceforge.net/DTD/sodipodi-0.dtd"
   xmlns:inkscape="http://www.inkscape.org/namespaces/inkscape"
   version="1.1"
   id="Layer_1"
   x="0px"
   y="0px"
   viewBox="0 0 100 100"
   style="enable-background:new 0 0 100 100;"
   xml:space="preserve"
   inkscape:version="0.91 r13725"
   sodipodi:docname="MobileServices_SNS_HTTPNotification.svg"><metadata
     id="metadata81"><rdf:RDF><cc:Work
         rdf:about=""><dc:format>image/svg+xml</dc:format><dc:type
           rdf:resource="http://purl.org/dc/dcmitype/StillImage" /></cc:Work></rdf:RDF></metadata><defs
     id="defs79" /><sodipodi:namedview
     pagecolor="#ffffff"
     bordercolor="#666666"
     borderopacity="1"
     objecttolerance="10"
     gridtolerance="10"
     guidetolerance="10"
     inkscape:pageopacity="0"
     inkscape:pageshadow="2"
     inkscape:window-width="1280"
     inkscape:window-height="985"
     id="namedview77"
     showgrid="false"
     inkscape:zoom="7.4579687"
     inkscape:cx="50.26817"
     inkscape:cy="50"
     inkscape:window-x="0"
     inkscape:window-y="0"
     inkscape:window-maximized="1"
     inkscape:current-layer="Layer_1" /><style
     type="text/css"
     id="style3">
	.st0{clip-path:url(#SVGID_2_);}
	.st1{fill:#692F56;}
	.st2{fill:#EA2227;}
	.st3{enable-background:new    ;}
	.st4{clip-path:url(#SVGID_4_);enable-background:new    ;}
	.st5{fill:#8D090A;}
	.st6{fill:#C17B9E;}
	.st7{fill:#FFFFFF;}
</style><g
     id="g3409"
     transform="translate(-4.8999989,3.0638598)"><g
       transform="matrix(1.1086474,0,0,1.1086474,-0.53237237,-8.4962281)"
       id="g5"><defs
         id="defs7"><path
           inkscape:connector-curvature="0"
           d="m 27.4,31.2 0,2.5 c 0,-1.8 -0.3,-3.4 -1,-5 l 0,-2.5 c 0.7,1.6 1,3.3 1,5 z"
           id="SVGID_1_" /></defs><use
         height="100%"
         width="100%"
         y="0"
         x="0"
         id="use10"
         style="overflow:visible;fill:#692f56"
         xlink:href="#SVGID_1_" /><clipPath
         id="SVGID_2_"><use
           height="100%"
           width="100%"
           y="0"
           x="0"
           id="use13"
           style="overflow:visible"
           xlink:href="#SVGID_1_" /></clipPath><g
         clip-path="url(#SVGID_2_)"
         id="g15"
         class="st0"><path
           style="fill:#692f56"
           inkscape:connector-curvature="0"
           id="path17"
           d="m 27.4,31.2 0,2.5 c 0,-1.8 -0.3,-3.4 -1,-5 l 0,-2.5 c 0.7,1.6 1,3.3 1,5"
           class="st1" /></g></g><g
       transform="matrix(1.1086474,0,0,1.1086474,-0.53237237,-8.4962281)"
       id="g19"><path
         style="fill:#ea2227"
         inkscape:connector-curvature="0"
         id="path21"
         d="m 14.2,21.8 c 5.1,0 9.3,4.1 9.3,9.2 0,5.1 -4.2,9.2 -9.3,9.2 -5.1,0 -9.3,-4.1 -9.3,-9.2 0,-5.1 4.1,-9.2 9.3,-9.2 z"
         class="st2" /></g><g
       style="enable-background:new"
       transform="matrix(1.1086474,0,0,1.1086474,-0.53237237,-8.4962281)"
       id="g23"
       class="st3"><defs
         id="defs25"><path
           style="enable-background:new"
           inkscape:connector-curvature="0"
           d="m 23.5,31 0,2.5 c 0,5.1 -4.2,9.2 -9.3,9.2 -5.1,0 -9.3,-4.1 -9.3,-9.2 l 0,-2.5 c 0,5.1 4.2,9.2 9.3,9.2 5.1,0 9.3,-4.1 9.3,-9.2 z"
           class="st3"
           id="SVGID_3_" /></defs><use
         height="100%"
         width="100%"
         y="0"
         x="0"
         id="use28"
         style="overflow:visible;fill:#8d090a"
         xlink:href="#SVGID_3_" /><clipPath
         id="SVGID_4_"><use
           height="100%"
           width="100%"
           y="0"
           x="0"
           id="use31"
           style="overflow:visible"
           xlink:href="#SVGID_3_" /></clipPath><g
         style="enable-background:new"
         clip-path="url(#SVGID_4_)"
         id="g33"
         class="st4"><path
           style="fill:#8d090a"
           inkscape:connector-curvature="0"
           id="path35"
           d="m 23.5,31 0,2.5 c 0,0.4 0,0.9 -0.1,1.3 l 0,-2.5 c 0,-0.4 0.1,-0.8 0.1,-1.3"
           class="st5" /><path
           style="fill:#8d090a"
           inkscape:connector-curvature="0"
           id="path37"
           d="m 23.4,32.4 0,2.5 c -0.1,0.5 -0.2,1 -0.3,1.5 l 0,-2.5 c 0.1,-0.5 0.2,-1 0.3,-1.5"
           class="st5" /><path
           style="fill:#8d090a"
           inkscape:connector-curvature="0"
           id="path39"
           d="M 23.2,33.3 23,36.4 C 22.8,37 22.6,37.5 22.3,38 l 0,-2.5 C 22.6,35 22.8,34.4 23,33.9"
           class="st5" /><path
           style="fill:#8d090a"
           inkscape:connector-curvature="0"
           id="path41"
           d="M 22.5,34.8 22.3,38 c -1.6,2.9 -4.6,4.8 -8.1,4.8 -5.1,0 -9.3,-4.1 -9.3,-9.2 l 0,-2.6 c 0,5.1 4.2,9.2 9.3,9.2 3.5,0 6.6,-1.9 8.1,-4.8"
           class="st5" /></g></g><g
       transform="matrix(1.1086474,0,0,1.1086474,-0.53237237,-8.4962281)"
       id="g43"><path
         style="fill:#c17b9e"
         inkscape:connector-curvature="0"
         id="path45"
         d="m 95.1,26.3 0,15.1 -72.4,0 c 2.9,-2.4 4.7,-6.1 4.7,-10.1 0,-1.8 -0.3,-3.4 -1,-5 l 68.7,0 z"
         class="st6" /></g><g
       transform="matrix(1.1086474,0,0,1.1086474,-0.53237237,-8.4962281)"
       id="g47"><rect
         style="fill:#692f56"
         id="rect49"
         height="2.5"
         width="72.400002"
         class="st1"
         y="41.400002"
         x="22.700001" /></g><g
       transform="matrix(1.1086474,0,0,1.1086474,-0.53237237,-8.4962281)"
       id="g51"><path
         style="fill:#c17b9e"
         inkscape:connector-curvature="0"
         id="path53"
         d="m 12.7,45.6 82.4,0 0,12.6 -82.4,0 0,-12.6 z m 79.7,10 0,-7.3 -77,0 0,7.3 77,0"
         class="st6" /></g><g
       transform="matrix(1.1086474,0,0,1.1086474,-0.53237237,-8.4962281)"
       id="g55"><rect
         style="fill:#692f56"
         id="rect57"
         height="2.5"
         width="82.400002"
         class="st1"
         y="58.200001"
         x="12.7" /></g><g
       transform="matrix(1.1086474,0,0,1.1086474,-0.53237237,-8.4962281)"
       id="g59"><path
         style="fill:#c17b9e"
         inkscape:connector-curvature="0"
         id="path61"
         d="m 12.7,63.1 82.4,0 0,12.6 -82.4,0 0,-12.6 z m 79.7,9.9 0,-7.3 -77,0 0,7.3 77,0"
         class="st6" /></g><g
       transform="matrix(1.1086474,0,0,1.1086474,-0.53237237,-8.4962281)"
       id="g63"><rect
         style="fill:#692f56"
         id="rect65"
         height="2.5"
         width="82.400002"
         class="st1"
         y="75.699997"
         x="12.7" /></g><g
       transform="matrix(1.1086474,0,0,1.1086474,-0.53237237,-8.4962281)"
       id="g67"><path
         style="fill:#ffffff"
         inkscape:connector-curvature="0"
         id="path69"
         d="m 43.6,29.2 2.1,0 0,3.9 2.4,0 0,-3.9 2.1,0 0,10.3 -2.1,0 0,-4.6 -2.4,0 0,4.6 -2.1,0 0,-10.3 z"
         class="st7" /><path
         style="fill:#ffffff"
         inkscape:connector-curvature="0"
         id="path71"
         d="m 57.7,29.2 0,1.7 -2.3,0 0,8.6 -2.1,0 0,-8.6 -2.3,0 0,-1.7 6.7,0 z"
         class="st7" /><path
         style="fill:#ffffff"
         inkscape:connector-curvature="0"
         id="path73"
         d="m 64.7,29.2 0,1.7 -2.3,0 0,8.6 -2.1,0 0,-8.6 -2.3,0 0,-1.7 6.7,0 z"
         class="st7" /><path
         style="fill:#ffffff"
         inkscape:connector-curvature="0"
         id="path75"
         d="m 65.6,29.2 3.7,0 c 2.1,0 2.8,1.5 2.8,3.1 0,2.1 -1.3,3.1 -3.3,3.1 l -1.1,0 0,4.1 -2.1,0 0,-10.3 z m 2,4.6 0.9,0 c 0.8,0 1.4,-0.5 1.4,-1.5 0,-1 -0.4,-1.6 -1.4,-1.6 l -0.9,0 0,3.1 z"
         class="st7" /></g></g></svg>