<?xml version="1.0" encoding="UTF-8" standalone="no"?>
<!-- Generator: Adobe Illustrator 19.1.0, SVG Export Plug-In . SVG Version: 6.00 Build 0)  -->

<svg
   xmlns:dc="http://purl.org/dc/elements/1.1/"
   xmlns:cc="http://creativecommons.org/ns#"
   xmlns:rdf="http://www.w3.org/1999/02/22-rdf-syntax-ns#"
   xmlns:svg="http://www.w3.org/2000/svg"
   xmlns="http://www.w3.org/2000/svg"
   xmlns:sodipodi="http://sodipodi.sourceforge.net/DTD/sodipodi-0.dtd"
   xmlns:inkscape="http://www.inkscape.org/namespaces/inkscape"
   version="1.1"
   id="Layer_1"
   x="0px"
   y="0px"
   viewBox="0 0 100 100"
   style="enable-background:new 0 0 100 100;"
   xml:space="preserve"
   inkscape:version="0.91 r13725"
   sodipodi:docname="MobileServices_SNS_Topic.svg"><metadata
     id="metadata33"><rdf:RDF><cc:Work
         rdf:about=""><dc:format>image/svg+xml</dc:format><dc:type
           rdf:resource="http://purl.org/dc/dcmitype/StillImage" /></cc:Work></rdf:RDF></metadata><defs
     id="defs31" /><sodipodi:namedview
     pagecolor="#ffffff"
     bordercolor="#666666"
     borderopacity="1"
     objecttolerance="10"
     gridtolerance="10"
     guidetolerance="10"
     inkscape:pageopacity="0"
     inkscape:pageshadow="2"
     inkscape:window-width="1280"
     inkscape:window-height="985"
     id="namedview29"
     showgrid="false"
     inkscape:zoom="7.4579687"
     inkscape:cx="50.26817"
     inkscape:cy="50"
     inkscape:window-x="0"
     inkscape:window-y="0"
     inkscape:window-maximized="1"
     inkscape:current-layer="Layer_1" /><style
     type="text/css"
     id="style3">
	.st0{fill:#C17B9E;}
	.st1{fill:#692F56;}
</style><g
     id="g3361"
     transform="translate(-5.4000022,3.4375969)"><g
       transform="matrix(1.1223345,0,0,1.1223345,-0.66060606,-9.5543208)"
       id="g5"><rect
         style="fill:#c17b9e"
         id="rect7"
         height="16.299999"
         width="89.099998"
         class="st0"
         y="21.9"
         x="5.4000001" /></g><g
       transform="matrix(1.1223345,0,0,1.1223345,-0.66060606,-9.5543208)"
       id="g9"><rect
         style="fill:#692f56"
         id="rect11"
         height="2.5"
         width="89.099998"
         class="st1"
         y="38.299999"
         x="5.4000001" /></g><g
       transform="matrix(1.1223345,0,0,1.1223345,-0.66060606,-9.5543208)"
       id="g13"><path
         style="fill:#c17b9e"
         inkscape:connector-curvature="0"
         id="path15"
         d="m 5.4,43 89.1,0 0,13.6 -89.1,0 0,-13.6 z m 86.3,10.8 0,-7.9 -83.4,0 0,7.9 83.4,0"
         class="st0" /></g><g
       transform="matrix(1.1223345,0,0,1.1223345,-0.66060606,-9.5543208)"
       id="g17"><rect
         style="fill:#692f56"
         id="rect19"
         height="2.5"
         width="89.099998"
         class="st1"
         y="56.700001"
         x="5.4000001" /></g><g
       transform="matrix(1.1223345,0,0,1.1223345,-0.66060606,-9.5543208)"
       id="g21"><path
         style="fill:#c17b9e"
         inkscape:connector-curvature="0"
         id="path23"
         d="m 5.4,61.9 89.1,0 0,13.6 -89.1,0 0,-13.6 z m 86.3,10.8 0,-7.9 -83.4,0 0,7.9 83.4,0"
         class="st0" /></g><g
       transform="matrix(1.1223345,0,0,1.1223345,-0.66060606,-9.5543208)"
       id="g25"><rect
         style="fill:#692f56"
         id="rect27"
         height="2.5"
         width="89.099998"
         class="st1"
         y="75.599998"
         x="5.4000001" /></g></g></svg>