<?xml version="1.0" encoding="UTF-8" standalone="no"?>
<!-- Generator: Adobe Illustrator 19.1.0, SVG Export Plug-In . SVG Version: 6.00 Build 0)  -->

<svg
   xmlns:dc="http://purl.org/dc/elements/1.1/"
   xmlns:cc="http://creativecommons.org/ns#"
   xmlns:rdf="http://www.w3.org/1999/02/22-rdf-syntax-ns#"
   xmlns:svg="http://www.w3.org/2000/svg"
   xmlns="http://www.w3.org/2000/svg"
   xmlns:sodipodi="http://sodipodi.sourceforge.net/DTD/sodipodi-0.dtd"
   xmlns:inkscape="http://www.inkscape.org/namespaces/inkscape"
   version="1.1"
   id="Layer_1"
   x="0px"
   y="0px"
   viewBox="0 0 100 100"
   style="enable-background:new 0 0 100 100;"
   xml:space="preserve"
   inkscape:version="0.91 r13725"
   sodipodi:docname="MobileServices_SNS.svg"><metadata
     id="metadata33"><rdf:RDF><cc:Work
         rdf:about=""><dc:format>image/svg+xml</dc:format><dc:type
           rdf:resource="http://purl.org/dc/dcmitype/StillImage" /></cc:Work></rdf:RDF></metadata><defs
     id="defs31" /><sodipodi:namedview
     pagecolor="#ffffff"
     bordercolor="#666666"
     borderopacity="1"
     objecttolerance="10"
     gridtolerance="10"
     guidetolerance="10"
     inkscape:pageopacity="0"
     inkscape:pageshadow="2"
     inkscape:window-width="1280"
     inkscape:window-height="985"
     id="namedview29"
     showgrid="false"
     inkscape:zoom="7.4579687"
     inkscape:cx="50.26817"
     inkscape:cy="50"
     inkscape:window-x="0"
     inkscape:window-y="0"
     inkscape:window-maximized="1"
     inkscape:current-layer="Layer_1" /><style
     type="text/css"
     id="style3">
	.st0{fill:#875A78;}
	.st1{fill:#C17B9E;}
	.st2{fill:#692F56;}
</style><g
     id="g3361"
     transform="translate(-15.554653,15.599999)"><polygon
       style="fill:#875a78"
       transform="matrix(1.4534884,0,0,1.4534884,-7.1197674,-38.274419)"
       id="polygon5"
       points="35.9,68.8 42.2,77.8 35.1,75.8 28.4,68.2 "
       class="st0" /><polygon
       style="fill:#c17b9e"
       transform="matrix(1.4534884,0,0,1.4534884,-7.1197674,-38.274419)"
       id="polygon7"
       points="35.9,68.8 42.2,77.8 47.3,67.2 42.5,66.5 "
       class="st1" /><polygon
       style="fill:#875a78"
       transform="matrix(1.4534884,0,0,1.4534884,-7.1197674,-38.274419)"
       id="polygon9"
       points="22.1,67.4 25.8,72.8 21.8,71.7 18.1,67.4 "
       class="st0" /><polygon
       style="fill:#c17b9e"
       transform="matrix(1.4534884,0,0,1.4534884,-7.1197674,-38.274419)"
       id="polygon11"
       points="22.1,67.4 25.8,72.8 28.7,66.8 26,66.4 "
       class="st1" /><polygon
       style="fill:#692f56"
       transform="matrix(1.4534884,0,0,1.4534884,-7.1197674,-38.274419)"
       id="polygon13"
       points="15.7,32.9 15.7,66.8 19.8,67.7 19.8,30.6 "
       class="st2" /><polygon
       style="fill:#c17b9e"
       transform="matrix(1.4534884,0,0,1.4534884,-7.1197674,-38.274419)"
       id="polygon15"
       points="19.8,30.6 35.5,34.3 35.5,66.2 19.8,67.7 "
       class="st1" /><polygon
       style="fill:#692f56"
       transform="matrix(1.4534884,0,0,1.4534884,-7.1197674,-38.274419)"
       id="polygon17"
       points="24.8,28.2 24.8,68.7 31.8,70.1 31.8,24.7 "
       class="st2" /><polygon
       style="fill:#c17b9e"
       transform="matrix(1.4534884,0,0,1.4534884,-7.1197674,-38.274419)"
       id="polygon19"
       points="31.8,24.7 71.6,37.5 71.6,65 31.8,70.1 "
       class="st1" /><polygon
       style="fill:#875a78"
       transform="matrix(1.4534884,0,0,1.4534884,-7.1197674,-38.274419)"
       id="polygon21"
       points="55.5,71.6 64.4,84.4 54.4,81.5 44.8,70.7 "
       class="st0" /><polygon
       style="fill:#c17b9e"
       transform="matrix(1.4534884,0,0,1.4534884,-7.1197674,-38.274419)"
       id="polygon23"
       points="55.5,71.6 64.4,84.4 71.6,69.3 64.9,68.3 "
       class="st1" /><polygon
       style="fill:#692f56"
       transform="matrix(1.4534884,0,0,1.4534884,-7.1197674,-38.274419)"
       id="polygon25"
       points="39.7,20.8 39.7,71.6 50,73.6 50,15.6 "
       class="st2" /><polygon
       style="fill:#c17b9e"
       transform="matrix(1.4534884,0,0,1.4534884,-7.1197674,-38.274419)"
       id="polygon27"
       points="50,15.6 50,73.6 84.3,66.7 84.3,32.8 "
       class="st1" /></g></svg>