<?xml version="1.0" encoding="UTF-8" standalone="no"?>
<!-- Generator: Adobe Illustrator 19.1.0, SVG Export Plug-In . SVG Version: 6.00 Build 0)  -->

<svg
   xmlns:dc="http://purl.org/dc/elements/1.1/"
   xmlns:cc="http://creativecommons.org/ns#"
   xmlns:rdf="http://www.w3.org/1999/02/22-rdf-syntax-ns#"
   xmlns:svg="http://www.w3.org/2000/svg"
   xmlns="http://www.w3.org/2000/svg"
   xmlns:xlink="http://www.w3.org/1999/xlink"
   xmlns:sodipodi="http://sodipodi.sourceforge.net/DTD/sodipodi-0.dtd"
   xmlns:inkscape="http://www.inkscape.org/namespaces/inkscape"
   version="1.1"
   id="Layer_1"
   x="0px"
   y="0px"
   viewBox="0 0 100 100"
   style="enable-background:new 0 0 100 100;"
   xml:space="preserve"
   inkscape:version="0.91 r13725"
   sodipodi:docname="MobileServices_SNS_EmailNotification.svg"><metadata
     id="metadata85"><rdf:RDF><cc:Work
         rdf:about=""><dc:format>image/svg+xml</dc:format><dc:type
           rdf:resource="http://purl.org/dc/dcmitype/StillImage" /></cc:Work></rdf:RDF></metadata><defs
     id="defs83" /><sodipodi:namedview
     pagecolor="#ffffff"
     bordercolor="#666666"
     borderopacity="1"
     objecttolerance="10"
     gridtolerance="10"
     guidetolerance="10"
     inkscape:pageopacity="0"
     inkscape:pageshadow="2"
     inkscape:window-width="1280"
     inkscape:window-height="985"
     id="namedview81"
     showgrid="false"
     inkscape:zoom="7.4579687"
     inkscape:cx="50.26817"
     inkscape:cy="50"
     inkscape:window-x="0"
     inkscape:window-y="0"
     inkscape:window-maximized="1"
     inkscape:current-layer="Layer_1" /><style
     type="text/css"
     id="style3">
	.st0{fill:#995B80;}
	.st1{fill:#C17B9D;}
	.st2{fill:#7B3F65;}
	.st3{fill:#CEB1C0;}
	.st4{fill:#512843;}
	.st5{clip-path:url(#SVGID_2_);}
	.st6{fill:#EA2227;}
	.st7{enable-background:new    ;}
	.st8{clip-path:url(#SVGID_4_);enable-background:new    ;}
	.st9{fill:#8D090A;}
	.st10{fill:#FFFFFF;}
	.st11{clip-path:url(#SVGID_6_);}
	.st12{clip-path:url(#SVGID_8_);enable-background:new    ;}
</style><g
     id="g5"
     transform="matrix(1.1160714,0,0,1.1160714,-5.8035706,-5.80357)"><g
       id="g7"><defs
         id="defs9"><path
           id="SVGID_1_"
           d="m 27.6,31.1 0,2.5 c 0,-1.7 -0.3,-3.4 -1,-5 l 0,-2.5 c 0.6,1.6 1,3.3 1,5 z"
           inkscape:connector-curvature="0" /></defs><use
         xlink:href="#SVGID_1_"
         style="overflow:visible;fill:#7b3f65"
         id="use12"
         x="0"
         y="0"
         width="100%"
         height="100%" /><clipPath
         id="SVGID_2_"><use
           xlink:href="#SVGID_1_"
           style="overflow:visible"
           id="use15"
           x="0"
           y="0"
           width="100%"
           height="100%" /></clipPath><g
         class="st5"
         id="g17"
         clip-path="url(#SVGID_2_)"><path
           class="st2"
           d="m 27.6,31.1 0,2.5 c 0,-1.7 -0.3,-3.4 -1,-5 l 0,-2.5 c 0.6,1.6 1,3.3 1,5"
           id="path19"
           inkscape:connector-curvature="0"
           style="fill:#7b3f65" /></g></g><g
       id="g21"><path
         class="st6"
         d="m 14.4,22 c 5.1,0 9.2,4.1 9.2,9.2 0,5.1 -4.1,9.2 -9.2,9.2 -5.1,0 -9.2,-4.1 -9.2,-9.2 0,-5.1 4.1,-9.2 9.2,-9.2 z"
         id="path23"
         inkscape:connector-curvature="0"
         style="fill:#ea2227" /></g><g
       class="st7"
       id="g25"
       style="enable-background:new"><defs
         id="defs27"><path
           id="SVGID_3_"
           class="st7"
           d="m 23.6,31.2 0,2.5 c 0,5.1 -4.1,9.2 -9.2,9.2 -5.1,0 -9.2,-4.1 -9.2,-9.2 l 0,-2.5 c 0,5.1 4.1,9.2 9.2,9.2 5.1,-0.1 9.2,-4.2 9.2,-9.2 z"
           inkscape:connector-curvature="0"
           style="enable-background:new" /></defs><use
         xlink:href="#SVGID_3_"
         style="overflow:visible;fill:#8d090a"
         id="use30"
         x="0"
         y="0"
         width="100%"
         height="100%" /><clipPath
         id="SVGID_4_"><use
           xlink:href="#SVGID_3_"
           style="overflow:visible"
           id="use33"
           x="0"
           y="0"
           width="100%"
           height="100%" /></clipPath><g
         class="st8"
         id="g35"
         clip-path="url(#SVGID_4_)"
         style="enable-background:new"><path
           class="st9"
           d="m 23.6,31.2 0,2.5 c 0,0.4 0,0.9 -0.1,1.3 l 0,-2.5 c 0.1,-0.5 0.1,-0.9 0.1,-1.3"
           id="path37"
           inkscape:connector-curvature="0"
           style="fill:#8d090a" /><path
           class="st9"
           d="m 23.5,32.5 0,2.5 c -0.1,0.5 -0.2,1 -0.3,1.5 l 0,-2.5 c 0.1,-0.5 0.3,-1 0.3,-1.5"
           id="path39"
           inkscape:connector-curvature="0"
           style="fill:#8d090a" /><path
           class="st9"
           d="m 23.5,33.3 -0.3,3.2 c -0.2,0.6 -0.4,1.1 -0.7,1.6 l 0,-2.5 c 0.3,-0.5 0.5,-1 0.7,-1.6"
           id="path41"
           inkscape:connector-curvature="0"
           style="fill:#8d090a" /><path
           class="st9"
           d="m 22.5,38.1 c -1.6,2.8 -4.6,4.8 -8.1,4.8 -5.1,0 -9.2,-4.1 -9.2,-9.2 l 0,-2.5 c 0,5.1 4.1,9.2 9.2,9.2 3.5,0 6.7,-3.1 8.3,-5.9"
           id="path43"
           inkscape:connector-curvature="0"
           style="fill:#8d090a" /></g></g><g
       id="g45"><path
         class="st1"
         d="m 94.8,26.2 0,15 -71.9,0 c 2.9,-2.4 4.7,-6 4.7,-10.1 0,-1.7 -0.3,-3.4 -1,-4.9 l 68.2,0 z"
         id="path47"
         inkscape:connector-curvature="0"
         style="fill:#c17b9d" /></g><g
       id="g49"><rect
         x="22.9"
         y="41.200001"
         class="st2"
         width="71.900002"
         height="2.5"
         id="rect51"
         style="fill:#7b3f65" /></g><g
       id="g53"><path
         class="st1"
         d="m 12.9,45.6 81.9,0 0,12.5 -81.9,0 0,-12.5 z m 79.3,9.9 0,-7.2 -76.6,0 0,7.2 76.6,0"
         id="path55"
         inkscape:connector-curvature="0"
         style="fill:#c17b9d" /></g><g
       id="g57"><rect
         x="12.9"
         y="58.200001"
         class="st2"
         width="81.900002"
         height="2.5"
         id="rect59"
         style="fill:#7b3f65" /></g><g
       id="g61"><path
         class="st1"
         d="m 12.9,63 81.9,0 0,12.5 -81.9,0 0,-12.5 z m 79.3,9.9 0,-7.3 -76.6,0 0,7.3 76.6,0"
         id="path63"
         inkscape:connector-curvature="0"
         style="fill:#c17b9d" /></g><g
       id="g65"><rect
         x="12.9"
         y="75.5"
         class="st2"
         width="81.900002"
         height="2.5"
         id="rect67"
         style="fill:#7b3f65" /></g><g
       id="g69"><path
         class="st10"
         d="m 49.2,28.4 0,1.6 -3.7,0 0,2.4 3.5,0 0,1.7 -3.4,0 0,2.7 3.8,0 0,1.7 -5.9,0 0,-10.1 5.7,0 z"
         id="path71"
         inkscape:connector-curvature="0"
         style="fill:#ffffff" /><path
         class="st10"
         d="m 50.3,30.9 1.9,0 0,0.8 0,0 c 0.5,-0.7 1.1,-1 2,-1 0.9,0 1.6,0.4 1.8,1.2 l 0,0 c 0.3,-0.8 1,-1.2 2,-1.2 1.3,0 1.9,0.8 1.9,2.3 l 0,5.6 -2,0 0,-5.4 c 0,-0.6 -0.2,-1 -0.8,-1 -0.6,0 -1,0.4 -1,1.3 l 0,5 -2,0 0,-5.4 c 0,-0.6 -0.2,-1 -0.8,-1 -0.6,0 -1,0.4 -1,1.3 l 0,5 -2,0 0,-7.5 z"
         id="path73"
         inkscape:connector-curvature="0"
         style="fill:#ffffff" /><path
         class="st10"
         d="m 61.2,33.2 0,-0.2 c 0,-1.8 1.2,-2.4 2.7,-2.4 2.4,0 2.8,1 2.8,2.3 l 0,4 c 0,0.7 0,1 0.2,1.5 l -1.9,0 c -0.1,-0.2 -0.2,-0.5 -0.2,-0.8 l 0,0 c -0.5,0.8 -1,1 -2,1 -1.4,0 -1.9,-1.2 -1.9,-2.2 0,-1.4 0.6,-2 1.9,-2.4 l 1.1,-0.3 c 0.6,-0.2 0.8,-0.4 0.8,-0.9 0,-0.6 -0.3,-0.9 -0.9,-0.9 -0.6,0 -0.9,0.4 -0.9,1 l 0,0.2 -1.7,0 z m 3.6,1.5 c -0.3,0.2 -0.6,0.3 -0.8,0.4 -0.8,0.2 -1.1,0.6 -1.1,1.2 0,0.6 0.2,1.1 0.7,1.1 0.5,0 1.2,-0.3 1.2,-1.2 l 0,-1.5 z"
         id="path75"
         inkscape:connector-curvature="0"
         style="fill:#ffffff" /><path
         class="st10"
         d="m 68.2,28.2 2,0 0,1.7 -2,0 0,-1.7 z m 0,2.7 2,0 0,7.7 -2,0 0,-7.7 z"
         id="path77"
         inkscape:connector-curvature="0"
         style="fill:#ffffff" /><path
         class="st10"
         d="m 71.6,28.4 2,0 0,10.2 -2,0 0,-10.2 z"
         id="path79"
         inkscape:connector-curvature="0"
         style="fill:#ffffff" /></g></g></svg>