<?xml version="1.0" encoding="UTF-8" standalone="no"?>
<!-- Generator: Adobe Illustrator 19.1.0, SVG Export Plug-In . SVG Version: 6.00 Build 0)  -->

<svg
   xmlns:dc="http://purl.org/dc/elements/1.1/"
   xmlns:cc="http://creativecommons.org/ns#"
   xmlns:rdf="http://www.w3.org/1999/02/22-rdf-syntax-ns#"
   xmlns:svg="http://www.w3.org/2000/svg"
   xmlns="http://www.w3.org/2000/svg"
   xmlns:sodipodi="http://sodipodi.sourceforge.net/DTD/sodipodi-0.dtd"
   xmlns:inkscape="http://www.inkscape.org/namespaces/inkscape"
   version="1.1"
   x="0px"
   y="0px"
   viewBox="0 0 100 100"
   style="enable-background:new 0 0 100 100;"
   xml:space="preserve"
   id="svg2"
   inkscape:version="0.91 r13725"
   sodipodi:docname="Database_DynamoDB.svg"><metadata
     id="metadata52"><rdf:RDF><cc:Work
         rdf:about=""><dc:format>image/svg+xml</dc:format><dc:type
           rdf:resource="http://purl.org/dc/dcmitype/StillImage" /></cc:Work></rdf:RDF></metadata><defs
     id="defs50" /><sodipodi:namedview
     pagecolor="#ffffff"
     bordercolor="#666666"
     borderopacity="1"
     objecttolerance="10"
     gridtolerance="10"
     guidetolerance="10"
     inkscape:pageopacity="0"
     inkscape:pageshadow="2"
     inkscape:window-width="1280"
     inkscape:window-height="985"
     id="namedview48"
     showgrid="false"
     inkscape:zoom="7.4579687"
     inkscape:cx="50.26817"
     inkscape:cy="50"
     inkscape:window-x="0"
     inkscape:window-y="0"
     inkscape:window-maximized="1"
     inkscape:current-layer="svg2" /><style
     type="text/css"
     id="style4">
	.st0{fill:#2D72B8;}
	.st1{fill:#5294CF;}
	.st2{fill:#205B98;}
	.st3{fill:#1A476F;}
	.st4{enable-background:new    ;}
	.st5{fill:#FFFFFF;}
	.st6{clip-path:url(#SVGID_2_);enable-background:new    ;}
	.st7{clip-path:url(#SVGID_4_);enable-background:new    ;}
	.st8{clip-path:url(#SVGID_6_);enable-background:new    ;}
	.st9{clip-path:url(#SVGID_10_);enable-background:new    ;}
	.st10{clip-path:url(#SVGID_12_);enable-background:new    ;}
	.st11{clip-path:url(#SVGID_16_);enable-background:new    ;}
	.st12{clip-path:url(#SVGID_18_);enable-background:new    ;}
	.st13{clip-path:url(#SVGID_20_);enable-background:new    ;}
	.st14{clip-path:url(#SVGID_24_);enable-background:new    ;}
	.st15{clip-path:url(#SVGID_26_);enable-background:new    ;}
	.st16{clip-path:url(#SVGID_30_);enable-background:new    ;}
	.st17{clip-path:url(#SVGID_32_);enable-background:new    ;}
	.st18{clip-path:url(#SVGID_34_);enable-background:new    ;}
	.st19{clip-path:url(#SVGID_36_);enable-background:new    ;}
	.st20{clip-path:url(#SVGID_40_);enable-background:new    ;}
	.st21{clip-path:url(#SVGID_42_);enable-background:new    ;}
	.st22{fill:#99BCE3;}
	.st23{clip-path:url(#SVGID_44_);enable-background:new    ;}
	.st24{display:none;}
	.st25{fill:none;}
	.st26{fill:#FFFFFF;stroke:#19486F;stroke-miterlimit:10;}
	.st27{display:inline;}
	.st28{font-family:'MyriadPro-Regular';}
	.st29{font-size:12px;}
</style><g
     id="g7"
     transform="matrix(1.3888889,0,0,1.3888889,-18.958334,-19.027778)"><polygon
       style="fill:#2d72b8"
       id="polygon9"
       points="74.2,31.8 74.2,31.8 81.6,37.2 81.6,29.6 74.1,20.8 74.1,31.8 "
       class="st0" /><g
       id="g11"><polygon
         style="fill:#5294cf"
         id="polygon13"
         points="74.1,78.5 74.1,20.8 59.8,13.7 59.8,85.7 "
         class="st1" /><polygon
         style="fill:#205b98"
         id="polygon15"
         points="25.2,78.5 25.2,20.8 39.5,13.7 39.5,85.7 "
         class="st2" /><rect
         style="fill:#2d72b8"
         id="rect17"
         height="72"
         width="20.299999"
         class="st0"
         y="13.7"
         x="39.5" /><polygon
         style="fill:#2d72b8"
         id="polygon19"
         points="74.1,67.6 74.1,78.5 81.6,69.8 81.6,62.2 74.2,67.6 "
         class="st0" /><polygon
         style="fill:#2d72b8"
         id="polygon21"
         points="74.1,62.9 74.2,62.9 81.6,58.9 81.6,51.3 74.1,52 "
         class="st0" /><polygon
         style="fill:#2d72b8"
         id="polygon23"
         points="74.2,36.4 74.1,36.4 74.1,47.4 81.6,48 81.6,40.4 "
         class="st0" /><polygon
         style="fill:#1a476f"
         id="polygon25"
         points="25.2,46.4 25.2,35.4 25.2,35.5 25.2,35.4 39.5,32.1 49.7,32.1 59.8,32.1 74.1,35.4 79.4,38.2 79.4,36.4 81.6,36.2 74.1,30.8 59.8,26.3 49.7,26.3 39.5,26.3 25.2,30.8 25.2,19.8 17.7,28.6 17.7,36.2 17.8,36.2 19.9,36.4 19.9,38.3 17.7,39.4 17.7,47.1 17.8,47 19.9,47.1 19.9,50.3 18.1,50.3 17.7,50.3 17.7,57.9 19.9,59.1 19.9,60.9 17.8,61.2 17.7,61.1 17.7,68.8 25.2,77.5 25.2,66.6 39.5,71 49.7,71 59.8,71 74.2,66.6 81.6,61.2 79.4,60.9 79.4,59.1 74.2,61.9 59.8,65.2 59.8,65.2 49.7,65.2 39.5,65.2 39.5,65.2 25.2,61.9 25.1,61.9 25.2,61.9 25.2,51 39.5,51.5 39.5,51.5 49.7,51.5 59.8,51.5 59.8,51.5 74.1,51 81.6,50.3 79.4,50.3 79.4,47.1 81.6,47 74.1,46.4 59.8,45.8 49.7,45.8 39.5,45.8 "
         class="st3" /></g></g><g
     id="nyt_x5F_exporter_x5F_info"
     class="st24"><text
       class="st27"
       id="text28"><tspan
         x="0"
         y="0"
         class="st28 st29"
         id="tspan30">&lt;nyt_prefs&gt;</tspan><tspan
         x="0"
         y="14.4"
         class="st28 st29"
         id="tspan32">  &lt;nyt_prefix&gt;&lt;/nyt_prefix&gt;</tspan><tspan
         x="0"
         y="28.8"
         class="st28 st29"
         id="tspan34">  &lt;nyt_suffix&gt;&lt;/nyt_suffix&gt;</tspan><tspan
         x="0"
         y="43.2"
         class="st28 st29"
         id="tspan36">  &lt;nyt_base_path&gt;~/Desktop/wip/Architecture%20Icons%20-%20Update%20all%20customer-facing%20files%20/AWS-Simple-Icons%202/Database/EPS&lt;/nyt_base_path&gt;</tspan><tspan
         x="0"
         y="57.6"
         class="st28 st29"
         id="tspan38">  &lt;nyt_scaling&gt;100&lt;/nyt_scaling&gt;</tspan><tspan
         x="0"
         y="72"
         class="st28 st29"
         id="tspan40">  &lt;nyt_transparency&gt;true&lt;/nyt_transparency&gt;</tspan><tspan
         x="0"
         y="86.4"
         class="st28 st29"
         id="tspan42">  &lt;nyt_format&gt;EPS&lt;/nyt_format&gt;</tspan><tspan
         x="0"
         y="100.8"
         class="st28 st29"
         id="tspan44">  &lt;nyt_export_code&gt;artboards&lt;/nyt_export_code&gt;</tspan><tspan
         x="0"
         y="115.2"
         class="st28 st29"
         id="tspan46">&lt;/nyt_prefs&gt;</tspan></text>
</g></svg>