<?xml version="1.0" encoding="UTF-8" standalone="no"?>
<!-- Generator: Adobe Illustrator 18.1.1, SVG Export Plug-In . SVG Version: 6.00 Build 0)  -->

<svg
   xmlns:dc="http://purl.org/dc/elements/1.1/"
   xmlns:cc="http://creativecommons.org/ns#"
   xmlns:rdf="http://www.w3.org/1999/02/22-rdf-syntax-ns#"
   xmlns:svg="http://www.w3.org/2000/svg"
   xmlns="http://www.w3.org/2000/svg"
   xmlns:sodipodi="http://sodipodi.sourceforge.net/DTD/sodipodi-0.dtd"
   xmlns:inkscape="http://www.inkscape.org/namespaces/inkscape"
   version="1.2"
   id="Layer_1"
   x="0px"
   y="0px"
   viewBox="0 0 100 100"
   xml:space="preserve"
   inkscape:version="0.91 r13725"
   sodipodi:docname="Analytics_DataPipeline.svg"><metadata
     id="metadata23"><rdf:RDF><cc:Work
         rdf:about=""><dc:format>image/svg+xml</dc:format><dc:type
           rdf:resource="http://purl.org/dc/dcmitype/StillImage" /></cc:Work></rdf:RDF></metadata><defs
     id="defs21" /><sodipodi:namedview
     pagecolor="#ffffff"
     bordercolor="#666666"
     borderopacity="1"
     objecttolerance="10"
     gridtolerance="10"
     guidetolerance="10"
     inkscape:pageopacity="0"
     inkscape:pageshadow="2"
     inkscape:window-width="1280"
     inkscape:window-height="985"
     id="namedview19"
     showgrid="false"
     inkscape:zoom="7.4579687"
     inkscape:cx="50.26817"
     inkscape:cy="50"
     inkscape:window-x="0"
     inkscape:window-y="0"
     inkscape:window-maximized="1"
     inkscape:current-layer="Layer_1" /><g
     id="g3351"
     transform="matrix(1.3888889,0,0,1.3888889,-19.444445,-19.444445)"><polygon
       id="polygon3"
       points="50,14 50,28.778 79.823,37.568 79.823,28.912 "
       style="fill:#f58536" /><polygon
       id="polygon5"
       points="73.839,57.272 73.839,47.64 50,46.472 50,60.872 "
       style="fill:#f58536" /><polygon
       id="polygon7"
       points="26.162,57.272 26.162,47.64 50,46.472 50,60.872 "
       style="fill:#9d5025" /><polygon
       id="polygon9"
       points="50,14 50,28.778 20.177,37.568 20.177,28.912 "
       style="fill:#9d5025" /><polygon
       id="polygon11"
       points="50,41.209 20.177,37.568 50,28.778 79.823,37.568 "
       style="fill:#6b3a19" /><polygon
       id="polygon13"
       points="65.874,78.063 65.874,69.44 50,74.938 50,86 "
       style="fill:#f58536" /><polygon
       id="polygon15"
       points="34.125,78.063 34.125,69.44 50,74.938 50,86 "
       style="fill:#9d5025" /><polygon
       id="polygon17"
       points="50,74.938 65.874,69.44 50,65.928 34.125,69.44 "
       style="fill:#fbbf93" /></g></svg>