<?xml version="1.0" encoding="UTF-8" standalone="no"?>
<!-- Generator: Adobe Illustrator 18.1.0, SVG Export Plug-In . SVG Version: 6.00 Build 0)  -->

<svg
   xmlns:dc="http://purl.org/dc/elements/1.1/"
   xmlns:cc="http://creativecommons.org/ns#"
   xmlns:rdf="http://www.w3.org/1999/02/22-rdf-syntax-ns#"
   xmlns:svg="http://www.w3.org/2000/svg"
   xmlns="http://www.w3.org/2000/svg"
   xmlns:sodipodi="http://sodipodi.sourceforge.net/DTD/sodipodi-0.dtd"
   xmlns:inkscape="http://www.inkscape.org/namespaces/inkscape"
   version="1.1"
   x="0px"
   y="0px"
   viewBox="0 0 100 100"
   enable-background="new 0 0 100 100"
   xml:space="preserve"
   id="svg2"
   inkscape:version="0.91 r13725"
   sodipodi:docname="ApplicationServices_AppStream.svg"><metadata
     id="metadata38"><rdf:RDF><cc:Work
         rdf:about=""><dc:format>image/svg+xml</dc:format><dc:type
           rdf:resource="http://purl.org/dc/dcmitype/StillImage" /></cc:Work></rdf:RDF></metadata><defs
     id="defs36" /><sodipodi:namedview
     pagecolor="#ffffff"
     bordercolor="#666666"
     borderopacity="1"
     objecttolerance="10"
     gridtolerance="10"
     guidetolerance="10"
     inkscape:pageopacity="0"
     inkscape:pageshadow="2"
     inkscape:window-width="1280"
     inkscape:window-height="985"
     id="namedview34"
     showgrid="false"
     inkscape:zoom="7.4579687"
     inkscape:cx="50.26817"
     inkscape:cy="50"
     inkscape:window-x="0"
     inkscape:window-y="0"
     inkscape:window-maximized="1"
     inkscape:current-layer="svg2" /><g
     id="Amazon_CloudSearch"
     transform="matrix(1.3888889,0,0,1.3888889,-19.444445,-19.444445)"><g
       id="g5"><polygon
         points="50,78.8 68.8,71.3 50,66.9 31.2,71.3 "
         id="polygon7"
         style="fill:#fad791" /><polygon
         points="79.8,28.9 79.8,37.3 50,28.4 50,14 "
         id="polygon9"
         style="fill:#d9a741" /><polygon
         points="68.8,71.3 68.8,76.6 50,86 50,78.8 "
         id="polygon11"
         style="fill:#d9a741" /><polygon
         points="50,78.8 50,86 31.2,76.6 31.2,71.3 "
         id="polygon13"
         style="fill:#876929" /><polygon
         points="20.2,28.9 20.2,37.3 50,28.4 50,14 "
         id="polygon15"
         style="fill:#876929" /><polygon
         points="50,28.4 79.8,37.3 50,41.1 20.2,37.3 "
         id="polygon17"
         style="fill:#624a1e" /><polygon
         points="65.9,55.6 65.9,66.8 62.6,67.8 62.6,55.9 "
         id="polygon19"
         style="fill:#d9a741" /><polygon
         points="54.8,43.3 54.8,70.2 50,71.6 50,42.8 "
         id="polygon21"
         style="fill:#d9a741" /><polygon
         points="37.4,44.1 37.4,55.9 34.1,55.6 34.1,44.4 "
         id="polygon23"
         style="fill:#876929" /><polygon
         points="45.2,43.3 45.2,70.2 50,71.6 50,42.8 "
         id="polygon25"
         style="fill:#876929" /><polygon
         points="59,55.7 59,67.1 62.6,67.8 62.6,55.9 "
         id="polygon27"
         style="fill:#876929" /><polygon
         points="41.1,44.3 41.1,55.7 37.4,55.9 37.4,44.1 "
         id="polygon29"
         style="fill:#d9a741" /><polygon
         points="62.6,55.9 65.9,55.6 62.3,55.4 59,55.7 "
         id="polygon31"
         style="fill:#fad791" /></g></g><g
     id="nyt_x5F_exporter_x5F_info"
     display="none" /></svg>