<?xml version="1.0" encoding="UTF-8" standalone="no"?>
<!-- Generator: Adobe Illustrator 18.1.0, SVG Export Plug-In . SVG Version: 6.00 Build 0)  -->

<svg
   xmlns:dc="http://purl.org/dc/elements/1.1/"
   xmlns:cc="http://creativecommons.org/ns#"
   xmlns:rdf="http://www.w3.org/1999/02/22-rdf-syntax-ns#"
   xmlns:svg="http://www.w3.org/2000/svg"
   xmlns="http://www.w3.org/2000/svg"
   xmlns:sodipodi="http://sodipodi.sourceforge.net/DTD/sodipodi-0.dtd"
   xmlns:inkscape="http://www.inkscape.org/namespaces/inkscape"
   version="1.1"
   x="0px"
   y="0px"
   viewBox="0 0 100 100"
   enable-background="new 0 0 100 100"
   xml:space="preserve"
   id="svg2"
   inkscape:version="0.91 r13725"
   sodipodi:docname="DeploymentManagement_CodeDeploy.svg"><metadata
     id="metadata32"><rdf:RDF><cc:Work
         rdf:about=""><dc:format>image/svg+xml</dc:format><dc:type
           rdf:resource="http://purl.org/dc/dcmitype/StillImage" /></cc:Work></rdf:RDF></metadata><defs
     id="defs30" /><sodipodi:namedview
     pagecolor="#ffffff"
     bordercolor="#666666"
     borderopacity="1"
     objecttolerance="10"
     gridtolerance="10"
     guidetolerance="10"
     inkscape:pageopacity="0"
     inkscape:pageshadow="2"
     inkscape:window-width="1280"
     inkscape:window-height="985"
     id="namedview28"
     showgrid="false"
     inkscape:zoom="7.4579687"
     inkscape:cx="50.26817"
     inkscape:cy="50"
     inkscape:window-x="0"
     inkscape:window-y="0"
     inkscape:window-maximized="1"
     inkscape:current-layer="svg2" /><g
     id="Amazon_CloudSearch"
     transform="matrix(1.3888889,0,0,1.3888889,-19.444445,-19.444445)"><g
       id="g5"><polygon
         points="59.4,33.1 59.4,66.7 28.6,75 28.6,24.7 "
         id="polygon7"
         style="fill:#759c3e" /><polygon
         points="28.6,24.7 28.6,75.2 20.2,71 20.2,28.9 "
         id="polygon9"
         style="fill:#4b612c" /><polygon
         points="79.8,28.9 79.8,39.5 50,32 50,14 "
         id="polygon11"
         style="fill:#759c3e" /><polygon
         points="79.8,44.7 79.8,55.2 50,58.9 50,40.9 "
         id="polygon13"
         style="fill:#759c3e" /><polygon
         points="79.8,60.5 79.8,71.1 50,86 50,68 "
         id="polygon15"
         style="fill:#759c3e" /><polygon
         points="34.1,36 34.1,21.9 50,14 50,32 "
         id="polygon17"
         style="fill:#4b612c" /><polygon
         points="34.1,64 34.1,78 50,85.9 50,68 "
         id="polygon19"
         style="fill:#4b612c" /><polygon
         points="34.1,57 34.1,42.9 50,40.9 50,58.9 "
         id="polygon21"
         style="fill:#4b612c" /><polygon
         points="50,32 79.8,39.5 65.3,41 34.1,36 "
         id="polygon23"
         style="fill:#3c4929" /><polygon
         points="50,68 79.8,60.5 65.3,59 34.1,64 "
         id="polygon25"
         style="fill:#b7ca9d" /></g></g><g
     id="nyt_x5F_exporter_x5F_info"
     display="none" /></svg>