<?xml version="1.0" encoding="UTF-8" standalone="no"?>
<!-- Generator: Adobe Illustrator 19.1.0, SVG Export Plug-In . SVG Version: 6.00 Build 0)  -->

<svg
   xmlns:dc="http://purl.org/dc/elements/1.1/"
   xmlns:cc="http://creativecommons.org/ns#"
   xmlns:rdf="http://www.w3.org/1999/02/22-rdf-syntax-ns#"
   xmlns:svg="http://www.w3.org/2000/svg"
   xmlns="http://www.w3.org/2000/svg"
   xmlns:sodipodi="http://sodipodi.sourceforge.net/DTD/sodipodi-0.dtd"
   xmlns:inkscape="http://www.inkscape.org/namespaces/inkscape"
   version="1.1"
   id="Layer_1"
   x="0px"
   y="0px"
   viewBox="0 0 100 100"
   style="enable-background:new 0 0 100 100;"
   xml:space="preserve"
   inkscape:version="0.91 r13725"
   sodipodi:docname="ManagementTools_CloudFormation_Template.svg"><metadata
     id="metadata24"><rdf:RDF><cc:Work
         rdf:about=""><dc:format>image/svg+xml</dc:format><dc:type
           rdf:resource="http://purl.org/dc/dcmitype/StillImage" /></cc:Work></rdf:RDF></metadata><defs
     id="defs22" /><sodipodi:namedview
     pagecolor="#ffffff"
     bordercolor="#666666"
     borderopacity="1"
     objecttolerance="10"
     gridtolerance="10"
     guidetolerance="10"
     inkscape:pageopacity="0"
     inkscape:pageshadow="2"
     inkscape:window-width="1280"
     inkscape:window-height="985"
     id="namedview20"
     showgrid="false"
     inkscape:zoom="7.4579687"
     inkscape:cx="50.26817"
     inkscape:cy="50"
     inkscape:window-x="0"
     inkscape:window-y="0"
     inkscape:window-maximized="1"
     inkscape:current-layer="Layer_1" /><style
     type="text/css"
     id="style3">
	.st0{fill:#3C4929;}
	.st1{fill:#759C3E;}
	.st2{display:none;}
</style><g
     id="Layer_1_1_"
     transform="matrix(1.7605634,0,0,1.7605634,-38.02817,-38.02817)"><g
       id="g6"><g
         id="g8"><g
           id="g10"><g
             id="g12"><rect
               x="25.6"
               y="76"
               class="st0"
               width="48.799999"
               height="2.4000001"
               id="rect14"
               style="fill:#3c4929" /></g></g></g><path
         class="st1"
         d="m 25.6,21.6 0,54.4 48.8,0 0,-54.4 -48.8,0 z m 16.2,47 -9.1,0 0,-9 9.1,0 c 0,0 0,9 0,9 z m 0,-14.7 -9.1,0 0,-7.9 9.1,0 c 0,0 0,7.9 0,7.9 z m 0,-13.5 -9.1,0 0,-9 9.1,0 c 0,0 0,9 0,9 z m 25,24.8 -21.5,0 0,-2.2 21.6,0 -0.1,2.2 0,0 z m 0,-13.5 -21.5,0 0,-2.3 21.6,0 -0.1,2.3 0,0 z m 0,-14.7 -21.5,0 0,-2.3 21.6,0 -0.1,2.3 0,0 z"
         id="path16"
         inkscape:connector-curvature="0"
         style="fill:#759c3e" /></g></g><g
     id="nyt_x5F_exporter_x5F_info"
     class="st2" /><g
     id="CloudTrail"
     transform="matrix(1.7605634,0,0,1.7605634,-19.470422,-59.628169)" /></svg>