<?xml version="1.0" encoding="UTF-8" standalone="no"?>
<!-- Generator: Adobe Illustrator 18.1.1, SVG Export Plug-In . SVG Version: 6.00 Build 0)  -->

<svg
   xmlns:dc="http://purl.org/dc/elements/1.1/"
   xmlns:cc="http://creativecommons.org/ns#"
   xmlns:rdf="http://www.w3.org/1999/02/22-rdf-syntax-ns#"
   xmlns:svg="http://www.w3.org/2000/svg"
   xmlns="http://www.w3.org/2000/svg"
   xmlns:sodipodi="http://sodipodi.sourceforge.net/DTD/sodipodi-0.dtd"
   xmlns:inkscape="http://www.inkscape.org/namespaces/inkscape"
   version="1.2"
   id="Layer_1"
   x="0px"
   y="0px"
   viewBox="1 -1.665 102.665 102.665"
   xml:space="preserve"
   inkscape:version="0.91 r13725"
   sodipodi:docname="Analytics_AmazonEMR_MapRM5Engine.svg"><metadata
     id="metadata17"><rdf:RDF><cc:Work
         rdf:about=""><dc:format>image/svg+xml</dc:format><dc:type
           rdf:resource="http://purl.org/dc/dcmitype/StillImage" /></cc:Work></rdf:RDF></metadata><defs
     id="defs15" /><sodipodi:namedview
     pagecolor="#ffffff"
     bordercolor="#666666"
     borderopacity="1"
     objecttolerance="10"
     gridtolerance="10"
     guidetolerance="10"
     inkscape:pageopacity="0"
     inkscape:pageshadow="2"
     inkscape:window-width="1280"
     inkscape:window-height="985"
     id="namedview13"
     showgrid="false"
     inkscape:zoom="7.2643731"
     inkscape:cx="51.607817"
     inkscape:cy="51.3325"
     inkscape:window-x="0"
     inkscape:window-y="0"
     inkscape:window-maximized="1"
     inkscape:current-layer="Layer_1" /><g
     id="g3345"
     transform="matrix(1.3513514,0,0,1.3513514,-16.583718,-15.650069)"><g
       id="Layer_3" /><path
       id="path4"
       d="m 84.124,37.835 -2.711,0 c -2.008,0 -3.659,1.111 -3.854,3 l -4.455,0 c -0.49,-3.777 -1.961,-7 -3.699,-7 l -1.162,0 -6.245,0 0,-1.222 c 0,-2.139 -0.912,-3.778 -3.051,-3.778 l -4.949,0 0,-3 6.014,0 c 0.695,0 1.986,-0.982 1.986,-1.678 l 0,-1.193 c 0,-0.695 -1.291,-0.129 -1.986,-0.129 l -21.497,0 c -0.695,0 -1.517,-0.566 -1.517,0.129 l 0,1.193 c 0,0.695 0.821,1.678 1.517,1.678 l 6.483,0 0,3 -5.418,0 c -2.141,0 -4.582,1.64 -4.582,3.778 l 0,1.222 -8.201,0 c -2.14,0 -3.799,2.062 -3.799,4.201 l 0,11.799 -5,0 0,-13.154 c 0,-0.748 -1.041,-1.355 -2,-1.355 -0.959,0 -2,0.607 -2,1.355 l 0,30.988 c 0,0.748 1.041,1.355 2,1.355 0.959,0 2,-0.607 2,-1.355 l 0,-12.834 5,0 0,11.091 c 0,2.14 1.659,3.909 3.799,3.909 l 17.159,0 c 0.665,3 1.925,5 3.37,5 l 22.079,0 c 1.9,0 3.48,-4 3.81,-8 l 4.783,0 0,0.641 c 0,2.139 1.275,3.359 3.415,3.359 l 2.711,0 c 2.14,0 3.874,-1.221 3.874,-3.359 l 0,-25.954 c 0,-2.138 -1.734,-3.687 -3.874,-3.687 z"
       inkscape:connector-curvature="0"
       style="fill:#9d5025" /><path
       id="path6"
       d="m 84.124,35.835 -2.711,0 c -2.008,0 -3.659,1.111 -3.854,3 l -4.455,0 c -0.49,-3.777 -1.961,-7 -3.699,-7 l -1.162,0 -6.245,0 0,-1.222 c 0,-2.139 -0.912,-3.778 -3.051,-3.778 l -4.949,0 0,-2 6.014,0 c 0.695,0 1.986,-0.982 1.986,-1.678 l 0,-0.193 c 0,-0.695 -1.291,-1.129 -1.986,-1.129 l -21.497,0 c -0.695,0 -1.517,0.434 -1.517,1.129 l 0,0.193 c 0,0.695 0.821,1.678 1.517,1.678 l 6.483,0 0,2 -5.418,0 c -2.141,0 -4.582,1.64 -4.582,3.778 l 0,1.222 -8.201,0 c -2.14,0 -3.799,2.062 -3.799,4.201 l 0,11.799 -5,0 0,-13.154 c 0,-0.748 -1.041,-1.355 -2,-1.355 -0.959,0 -2,0.607 -2,1.355 l 0,30.988 c 0,0.748 1.041,1.355 2,1.355 0.959,0 2,-0.607 2,-1.355 l 0,-12.834 5,0 0,11.091 c 0,2.14 1.659,3.909 3.799,3.909 l 17.159,0 c 0.665,3 1.925,5 3.37,5 l 22.079,0 c 1.9,0 3.48,-4 3.81,-8 l 4.783,0 0,0.641 c 0,2.139 1.275,3.359 3.415,3.359 l 2.711,0 c 2.14,0 3.874,-1.221 3.874,-3.359 l 0,-25.954 c 0,-2.138 -1.734,-3.687 -3.874,-3.687 z"
       inkscape:connector-curvature="0"
       style="fill:#f58536" /><g
       id="g8"><text
         id="text10"
         font-size="12.4271"
         transform="translate(28.1172,55.1026)"
         style="font-size:12.42710018px;font-family:HelveticaNeueLTStd-Roman;fill:#ffffff">MapR M5</text>
</g></g><g
     id="nyt_x5F_exporter_x5F_info"
     display="none" /></svg>