<?xml version="1.0" encoding="UTF-8" standalone="no"?>
<!-- Generator: Adobe Illustrator 18.1.1, SVG Export Plug-In . SVG Version: 6.00 Build 0)  -->

<svg
   xmlns:dc="http://purl.org/dc/elements/1.1/"
   xmlns:cc="http://creativecommons.org/ns#"
   xmlns:rdf="http://www.w3.org/1999/02/22-rdf-syntax-ns#"
   xmlns:svg="http://www.w3.org/2000/svg"
   xmlns="http://www.w3.org/2000/svg"
   xmlns:sodipodi="http://sodipodi.sourceforge.net/DTD/sodipodi-0.dtd"
   xmlns:inkscape="http://www.inkscape.org/namespaces/inkscape"
   version="1.2"
   id="Layer_1"
   x="0px"
   y="0px"
   viewBox="0 0 100 100"
   xml:space="preserve"
   inkscape:version="0.91 r13725"
   sodipodi:docname="Analytics_AmazonEMR_HDFS_Cluster.svg"><metadata
     id="metadata208"><rdf:RDF><cc:Work
         rdf:about=""><dc:format>image/svg+xml</dc:format><dc:type
           rdf:resource="http://purl.org/dc/dcmitype/StillImage" /></cc:Work></rdf:RDF></metadata><defs
     id="defs206" /><sodipodi:namedview
     pagecolor="#ffffff"
     bordercolor="#666666"
     borderopacity="1"
     objecttolerance="10"
     gridtolerance="10"
     guidetolerance="10"
     inkscape:pageopacity="0"
     inkscape:pageshadow="2"
     inkscape:window-width="1280"
     inkscape:window-height="985"
     id="namedview204"
     showgrid="false"
     inkscape:zoom="7.4579687"
     inkscape:cx="50.26817"
     inkscape:cy="60.726781"
     inkscape:window-x="0"
     inkscape:window-y="0"
     inkscape:window-maximized="1"
     inkscape:current-layer="Layer_1" /><g
     id="Layer_3"
     transform="matrix(1.7851086,0,0,1.7851086,-18.900705,-61.442601)" /><g
     id="g7"
     transform="matrix(1.7851086,0,0,1.7851086,-41.652831,-39.7026)"><g
       id="g9"><path
         style="fill:#9d5025"
         inkscape:connector-curvature="0"
         id="path11"
         d="m 62.613,23.795 0,2.525 c 0,0.357 -0.021,0.729 -0.021,1.049 l 0,-2.525 c 0,-0.321 0.021,-0.69 0.021,-1.049" /></g><path
       style="fill:#9d5025"
       inkscape:connector-curvature="0"
       id="path13"
       d="m 62.613,23.795 0,2.525 c 0,0.357 -0.021,0.729 -0.021,1.049 l 0,-2.525 c 0,-0.321 0.021,-0.69 0.021,-1.049 z" /><g
       id="g15"><path
         style="fill:#9d5025"
         inkscape:connector-curvature="0"
         id="path17"
         d="m 52.693,33.197 0,2.525 c -0.17,-0.287 -0.299,-0.625 -0.299,-0.99 l 0,-2.523 c 0.001,0.363 0.129,0.701 0.299,0.988" /></g><path
       style="fill:#9d5025"
       inkscape:connector-curvature="0"
       id="path19"
       d="m 52.693,33.197 0,2.525 c -0.17,-0.287 -0.299,-0.625 -0.299,-0.99 l 0,-2.523 c 0.001,0.363 0.129,0.701 0.299,0.988 z" /><g
       id="g21"><polygon
         style="fill:#9d5025"
         id="polygon23"
         points="59.773,36.322 54.451,36.322 53.672,33.461 59.773,33.797 " /></g><g
       id="g25"><path
         style="fill:#9d5025"
         inkscape:connector-curvature="0"
         id="path27"
         d="m 63.023,33.393 0,2.523 c -0.326,0.406 -0.654,0.678 -1.217,0.717 l 0,-2.525 c 0.563,-0.04 0.891,-0.311 1.217,-0.715" /></g><path
       style="fill:#9d5025"
       inkscape:connector-curvature="0"
       id="path29"
       d="m 63.023,33.393 0,2.523 c -0.326,0.406 -0.654,0.678 -1.217,0.717 l 0,-2.525 c 0.563,-0.04 0.891,-0.311 1.217,-0.715 z" /><g
       id="g31"><polygon
         style="fill:#9d5025"
         id="polygon33"
         points="66.957,38.805 63.023,35.916 62.193,32.299 66.957,36.281 " /></g><g
       id="g35"><polygon
         style="fill:#9d5025"
         id="polygon37"
         points="63.432,43.828 59.773,36.322 59.355,32.299 63.432,41.305 " /></g><g
       id="g39"><polygon
         style="fill:#9d5025"
         id="polygon41"
         points="66.957,44.621 65.922,45.064 65.922,42.541 66.957,42.098 " /></g><g
       id="g43"><rect
         style="fill:#9d5025"
         id="rect45"
         height="2.523"
         width="2.438"
         y="43.919998"
         x="74.246002" /></g><g
       id="g47"><rect
         style="fill:#9d5025"
         id="rect49"
         height="2.523"
         width="0.041000001"
         y="43.919998"
         x="71.280998" /></g><g
       id="g51"><path
         style="fill:#9d5025"
         inkscape:connector-curvature="0"
         id="path53"
         d="m 78.611,42.787 0,2.525 c 0,0.078 -0.006,0.152 -0.018,0.221 l 0,-2.523 c 0.012,-0.069 0.018,-0.143 0.018,-0.223" /><path
         style="fill:#9d5025"
         inkscape:connector-curvature="0"
         id="path55"
         d="m 78.594,43.01 0,2.523 c -0.006,0.07 -0.02,0.133 -0.041,0.191 l 0,-2.525 c 0.021,-0.058 0.035,-0.121 0.041,-0.189" /><path
         style="fill:#9d5025"
         inkscape:connector-curvature="0"
         id="path57"
         d="m 78.553,43.199 0,2.525 c -0.016,0.059 -0.043,0.113 -0.068,0.162 l 0,-2.523 c 0.025,-0.049 0.052,-0.103 0.068,-0.164" /></g><path
       style="fill:#9d5025"
       inkscape:connector-curvature="0"
       id="path59"
       d="m 78.611,42.787 0,2.525 c 0,1.041 -0.865,1.131 -1.928,1.131 l -0.428,-2.941 c 1.063,0 2.356,0.326 2.356,-0.715 z" /><g
       id="g61"><path
         style="fill:#9d5025"
         inkscape:connector-curvature="0"
         id="path63"
         d="m 41.262,39.605 0,2.523 c 0,0.014 0,0.025 -0.002,0.037 l 0,-2.523 c 0.002,-0.013 0.002,-0.025 0.002,-0.037" /><path
         style="fill:#9d5025"
         inkscape:connector-curvature="0"
         id="path65"
         d="m 41.26,39.643 0,2.523 c -0.002,0.018 -0.006,0.031 -0.012,0.049 l 0,-2.525 c 0.006,-0.016 0.01,-0.032 0.012,-0.047" /><path
         style="fill:#9d5025"
         inkscape:connector-curvature="0"
         id="path67"
         d="m 41.248,39.689 0,2.525 c -0.006,0.021 -0.018,0.045 -0.029,0.068 l 0,-2.525 c 0.011,-0.023 0.023,-0.044 0.029,-0.068" /></g><path
       style="fill:#9d5025"
       inkscape:connector-curvature="0"
       id="path69"
       d="m 41.262,39.605 0,2.523 c 0,0.469 -1.416,1.225 -4.076,1.666 -1.232,0.209 -2.742,0.338 -4.512,0.338 -5.555,0 -8.6,-1.326 -8.6,-2.004 l 0,-2.523 c 0,0.676 3.045,2.004 8.6,2.004 1.77,0 3.279,-0.131 4.512,-0.338 2.66,-0.443 4.076,-1.197 4.076,-1.666 z" /><g
       id="g71"><path
         style="fill:#f58536"
         inkscape:connector-curvature="0"
         id="path73"
         d="m 32.674,37.613 c 1.77,0 3.279,0.131 4.512,0.34 2.66,0.43 4.076,1.197 4.076,1.652 0,0.469 -1.416,1.223 -4.076,1.666 -1.232,0.207 -2.742,0.338 -4.512,0.338 -5.555,0 -8.6,-1.328 -8.6,-2.004 0,-0.677 3.045,-1.992 8.6,-1.992 z" /></g><g
       id="g75"><path
         style="fill:#9d5025"
         inkscape:connector-curvature="0"
         id="path77"
         d="m 68.963,44.674 0,2.525 c -1.01,-0.053 -2.006,-0.873 -2.006,-1.887 L 66.449,41.6 c 0,1.015 1.504,3.021 2.514,3.074" /></g><path
       style="fill:#9d5025"
       inkscape:connector-curvature="0"
       id="path79"
       d="m 68.963,44.674 0,2.525 c -1.01,-0.053 -2.006,-0.873 -2.006,-1.887 l 0,-2.525 c 0,1.016 0.996,1.834 2.006,1.887 z" /><g
       id="g81"><polygon
         style="fill:#9d5025"
         id="polygon83"
         points="41.406,46.742 41.406,48.037 41.406,45.512 41.406,44.219 " /></g><g
       id="g85"><polygon
         style="fill:#9d5025"
         id="polygon87"
         points="71.281,46.443 69.238,50.895 69.238,48.371 71.281,43.92 " /></g><g
       id="g89"><polygon
         style="fill:#9d5025"
         id="polygon91"
         points="41.406,48.037 41.402,51.373 41.402,48.85 41.406,45.512 " /></g><g
       id="g93"><polygon
         style="fill:#9d5025"
         id="polygon95"
         points="54.451,36.322 41.402,51.373 41.402,48.85 54.451,33.797 " /></g><g
       id="g97"><polygon
         style="fill:#9d5025"
         id="polygon99"
         points="67.102,51.377 64.283,45.701 63.848,41.994 67.102,48.852 " /></g><g
       id="g101"><polygon
         style="fill:#9d5025"
         id="polygon103"
         points="64.283,45.701 41.656,53.705 41.656,51.182 64.283,43.178 " /></g><g
       id="g105"><polygon
         style="fill:#9d5025"
         id="polygon107"
         points="68.832,55.332 68.086,53.523 67.633,49.799 68.832,52.807 " /></g><g
       id="g109"><polygon
         style="fill:#9d5025"
         id="polygon111"
         points="41.402,51.539 41.396,55.496 41.396,52.973 41.402,49.014 " /></g><g
       id="g113"><polygon
         style="fill:#9d5025"
         id="polygon115"
         points="62.881,59.678 41.396,55.496 41.396,52.973 62.881,57.152 " /></g><g
       id="g117"><polygon
         style="fill:#9d5025"
         id="polygon119"
         points="41.396,55.93 41.395,58.201 41.395,55.676 41.396,53.404 " /></g><g
       id="g121"><polygon
         style="fill:#9d5025"
         id="polygon123"
         points="68.086,53.523 65.5,58.559 65.5,56.035 68.086,50.998 " /></g><g
       id="g125"><polygon
         style="fill:#9d5025"
         id="polygon127"
         points="41.395,58.012 41.395,60.537 41.395,58.201 41.395,55.676 " /></g><g
       id="g129"><polygon
         style="fill:#9d5025"
         id="polygon131"
         points="66.957,60.836 64.004,59.812 64.172,57.377 66.957,58.311 " /></g><path
       style="fill:#9d5025"
       inkscape:connector-curvature="0"
       id="path133"
       d="m 26.148,59.17 0,2.525 C 25.007,61.33 24.179,60.914 24.089,60.588 l 0,-2.523 c 0.091,0.324 0.919,0.742 2.059,1.105 z" /><g
       id="g135"><path
         style="fill:#9d5025"
         inkscape:connector-curvature="0"
         id="path137"
         d="m 41.395,58.012 0,2.525 c 0,0.016 -0.002,0.031 -0.004,0.049 l 0,-2.525 c 0.002,-0.016 0.004,-0.034 0.004,-0.049" /><path
         style="fill:#9d5025"
         inkscape:connector-curvature="0"
         id="path139"
         d="m 41.391,58.061 0,2.525 c -0.006,0.02 -0.008,0.037 -0.016,0.059 l 0,-2.525 c 0.008,-0.02 0.01,-0.04 0.016,-0.059" /><path
         style="fill:#9d5025"
         inkscape:connector-curvature="0"
         id="path141"
         d="m 41.375,58.119 0,2.525 c -0.01,0.029 -0.023,0.062 -0.043,0.096 l 0,-2.525 c 0.02,-0.033 0.033,-0.065 0.043,-0.096" /></g><path
       style="fill:#9d5025"
       inkscape:connector-curvature="0"
       id="path143"
       d="m 41.395,58.012 0,2.525 c 0,0.689 -2.389,1.99 -8.168,1.99 -3.146,0 -5.531,-0.377 -7.078,-0.832 l -0.643,-3.193 c 1.547,0.455 4.574,1.502 7.721,1.502 5.779,0 8.168,-1.303 8.168,-1.992 z" /><g
       id="g145"><polygon
         style="fill:#9d5025"
         id="polygon147"
         points="76.684,65.246 69.266,65.246 68.736,62.41 76.684,62.721 " /></g><g
       id="g149"><path
         style="fill:#9d5025"
         inkscape:connector-curvature="0"
         id="path151"
         d="m 78.611,62.061 0,2.523 c 0,0.076 -0.004,0.146 -0.014,0.207 l 0,-2.523 c 0.01,-0.063 0.014,-0.133 0.014,-0.207" /><path
         style="fill:#9d5025"
         inkscape:connector-curvature="0"
         id="path153"
         d="m 78.598,62.268 0,2.523 c -0.008,0.055 -0.02,0.104 -0.033,0.146 l 0,-2.523 c 0.013,-0.045 0.025,-0.094 0.033,-0.146" /><path
         style="fill:#9d5025"
         inkscape:connector-curvature="0"
         id="path155"
         d="m 78.564,62.414 0,2.523 c -0.014,0.041 -0.027,0.078 -0.045,0.109 l 0,-2.525 c 0.018,-0.031 0.032,-0.068 0.045,-0.107" /></g><path
       style="fill:#9d5025"
       inkscape:connector-curvature="0"
       id="path157"
       d="m 78.611,62.061 0,2.523 c 0,0.605 -0.283,0.734 -0.729,0.734 -0.33,0 -0.746,-0.072 -1.199,-0.072 L 76.13,62.252 c 0.453,0 1.422,0.541 1.752,0.541 0.446,0 0.729,-0.129 0.729,-0.732 z" /><path
       style="fill:#9d5025"
       inkscape:connector-curvature="0"
       id="path159"
       d="m 69.266,62.721 0,2.525 c -0.342,0 -1.02,0.32 -1.432,0.32 -0.096,0 -0.176,-0.018 -0.234,-0.059 l -0.439,-2.859 c 0.059,0.041 0.578,0.393 0.674,0.393 0.411,0 1.089,-0.32 1.431,-0.32 z" /><g
       id="g161"><polygon
         style="fill:#9d5025"
         id="polygon163"
         points="64.637,60.119 61.49,66.691 61.49,64.166 64.637,57.596 " /></g><g
       id="g165"><polygon
         style="fill:#9d5025"
         id="polygon167"
         points="68.057,65.172 62.592,69.723 62.592,67.199 67.6,62.982 " /></g><g
       id="g169"><polygon
         style="fill:#9d5025"
         id="polygon171"
         points="52.395,70.297 41.395,58.201 41.395,55.676 52.395,67.771 " /></g><g
       id="g173"><path
         style="fill:#9d5025"
         inkscape:connector-curvature="0"
         id="path175"
         d="m 62.613,74.74 0,2.523 c 0,0.129 -0.004,0.248 -0.021,0.354 l 0,-2.523 c 0.017,-0.108 0.021,-0.227 0.021,-0.354" /><path
         style="fill:#9d5025"
         inkscape:connector-curvature="0"
         id="path177"
         d="m 62.592,75.094 0,2.523 c -0.006,0.068 -0.021,0.129 -0.039,0.188 l 0,-2.525 c 0.017,-0.057 0.033,-0.122 0.039,-0.186" /><path
         style="fill:#9d5025"
         inkscape:connector-curvature="0"
         id="path179"
         d="m 62.553,75.279 0,2.525 c -0.016,0.045 -0.033,0.09 -0.057,0.131 l 0,-2.523 c 0.024,-0.041 0.041,-0.086 0.057,-0.133" /><path
         style="fill:#9d5025"
         inkscape:connector-curvature="0"
         id="path181"
         d="m 62.496,75.412 0,2.523 c -0.113,0.205 -0.328,0.324 -0.73,0.324 l 0,-2.525 c 0.402,0 0.617,-0.119 0.73,-0.322" /></g><path
       style="fill:#9d5025"
       inkscape:connector-curvature="0"
       id="path183"
       d="m 62.613,74.74 0,2.523 c 0,0.596 -0.115,0.996 -0.848,0.996 l 0,-2.525 c 0.733,0 0.848,-0.398 0.848,-0.994 z" /><g
       id="g185"><polygon
         style="fill:#9d5025"
         id="polygon187"
         points="61.766,78.26 54.344,78.26 53.506,75.252 61.766,75.734 " /></g><g
       id="g189"><path
         style="fill:#9d5025"
         inkscape:connector-curvature="0"
         id="path191"
         d="m 54.344,75.734 0,2.525 c -1.047,0 -1.949,-0.834 -1.949,-1.887 l 0,-2.522 c 0,1.052 0.902,1.884 1.949,1.884" /></g><path
       style="fill:#9d5025"
       inkscape:connector-curvature="0"
       id="path193"
       d="m 54.344,75.734 0,2.525 c -1.047,0 -1.949,-0.834 -1.949,-1.887 l 0,-2.522 c 0,1.052 0.902,1.884 1.949,1.884 z" /><g
       id="g195"><path
         style="fill:#f58536"
         inkscape:connector-curvature="0"
         id="path197"
         d="m 76.684,43.92 -2.438,0 0,8.678 2.438,0 c 1.062,0 1.928,1.043 1.928,2.096 l 0,7.367 c 0,0.604 -0.283,0.732 -0.729,0.732 -0.33,0 -0.746,-0.072 -1.199,-0.072 l -7.418,0 c -0.342,0 -1.02,0.32 -1.432,0.32 -0.096,0 -0.176,-0.018 -0.234,-0.059 l -5.008,4.217 0,6.65 c 0,1.053 0.236,1.885 -0.826,1.885 l -7.422,0 c -1.047,0 -1.949,-0.832 -1.949,-1.885 l 0,-6.078 -11,-12.096 -0.486,-2.803 11.879,12.295 c 0.354,-0.48 0.916,-1.002 1.557,-1.002 l 5.01,0 3.527,-7.014 -21.484,-4.18 0.006,-3.959 22.029,-7.709 -3.658,-7.508 -5.322,0 L 41.402,48.85 40.988,46.014 52.693,33.198 c -0.17,-0.287 -0.299,-0.625 -0.299,-0.988 l 0,-7.365 c 0,-1.041 0.902,-2.604 1.949,-2.604 l 7.422,0 c 1.062,0 0.826,1.562 0.826,2.604 l 0,6.506 4.627,2.303 c 0.342,-0.428 1.43,-1.301 2.047,-1.301 l 7.418,0 c 1.062,0 1.928,2.018 1.928,3.07 l 0,7.365 c 0,1.04 -0.865,1.132 -1.927,1.132 z m -35.028,7.262 22.102,4.463 3.344,-6.793 -2.818,-5.674 -22.628,8.004 m 25.301,10.617 0,-3.488 -2.32,-0.715 -3.146,6.57 0.275,0 c 0.553,0 0.854,0.43 1.191,0.793 l 4,-3.16 m -5.15,-27.692 3.25,6.715 1.9,-0.742 0,-3.799 -3.934,-2.889 c -0.326,0.405 -0.654,0.676 -1.216,0.715 m 9.515,18.491 0,-8.678 -0.041,0 -2.043,4.451 1.965,4.227 0.119,0 m -4.365,2.095 c 0,-0.988 0.906,-1.795 1.875,-1.887 l -0.746,-1.809 -2.586,5.038 1.457,0.338 0,-1.68 m 1.022,-8.015 0.984,-2.004 c -1.01,-0.053 -2.006,-0.871 -2.006,-1.887 l 0,-0.689 -1.035,0.443 2.057,4.137" /></g><g
       id="g199"><path
         style="fill:#f58536"
         inkscape:connector-curvature="0"
         id="path201"
         d="m 41.406,44.219 0,1.293 -0.004,3.338 0,0.164 -0.006,3.959 0,0.432 -0.002,2.271 0,2.336 c 0,0.689 -2.389,1.992 -8.168,1.992 -3.146,0 -5.531,-0.379 -7.078,-0.834 -1.141,-0.363 -1.969,-0.781 -2.059,-1.105 l 0,-13.715 c 1.676,1.041 5.139,1.574 8.584,1.574 l 0.227,0 c 0.352,0 0.693,-0.014 1.021,-0.025 l 0.195,0 c 0.275,-0.014 0.562,-0.027 0.84,-0.053 0.154,-0.014 0.326,-0.027 0.486,-0.039 0.209,-0.014 0.418,-0.039 0.625,-0.051 0.146,-0.027 0.293,-0.039 0.434,-0.066 0.225,-0.025 0.449,-0.053 0.67,-0.092 1.888,-0.299 3.343,-0.793 4.235,-1.379 z" /></g></g><g
     id="nyt_x5F_exporter_x5F_info"
     display="none" /></svg>