<?xml version="1.0" encoding="UTF-8" standalone="no"?>
<!-- Generator: Adobe Illustrator 18.1.1, SVG Export Plug-In . SVG Version: 6.00 Build 0)  -->

<svg
   xmlns:dc="http://purl.org/dc/elements/1.1/"
   xmlns:cc="http://creativecommons.org/ns#"
   xmlns:rdf="http://www.w3.org/1999/02/22-rdf-syntax-ns#"
   xmlns:svg="http://www.w3.org/2000/svg"
   xmlns="http://www.w3.org/2000/svg"
   xmlns:sodipodi="http://sodipodi.sourceforge.net/DTD/sodipodi-0.dtd"
   xmlns:inkscape="http://www.inkscape.org/namespaces/inkscape"
   version="1.2"
   id="Layer_1"
   x="0px"
   y="0px"
   viewBox="0 0 100 100"
   xml:space="preserve"
   inkscape:version="0.91 r13725"
   sodipodi:docname="Analytics_AmazonEMR_Cluster.svg"><metadata
     id="metadata184"><rdf:RDF><cc:Work
         rdf:about=""><dc:format>image/svg+xml</dc:format><dc:type
           rdf:resource="http://purl.org/dc/dcmitype/StillImage" /></cc:Work></rdf:RDF></metadata><defs
     id="defs182" /><sodipodi:namedview
     pagecolor="#ffffff"
     bordercolor="#666666"
     borderopacity="1"
     objecttolerance="10"
     gridtolerance="10"
     guidetolerance="10"
     inkscape:pageopacity="0"
     inkscape:pageshadow="2"
     inkscape:window-width="1280"
     inkscape:window-height="985"
     id="namedview180"
     showgrid="false"
     inkscape:zoom="5.2735803"
     inkscape:cx="46.319208"
     inkscape:cy="38.331016"
     inkscape:window-x="0"
     inkscape:window-y="0"
     inkscape:window-maximized="1"
     inkscape:current-layer="Layer_1" /><g
     id="Layer_3" /><g
     id="g7"
     transform="matrix(1.7929501,0,0,1.7929501,-39.648401,-39.647505)"><g
       id="g9"><g
         id="g11"><path
           style="fill:#9d5125"
           inkscape:connector-curvature="0"
           id="path13"
           d="m 49.248,33.33 0,2.48 c -0.051,-0.082 -0.066,-0.168 -0.066,-0.256 l 0,-2.482 c 0,0.09 0.015,0.176 0.066,0.258" /></g><path
         style="fill:#9d5125"
         inkscape:connector-curvature="0"
         id="path15"
         d="m 49.182,35.555 0,-2.482 c 0,0.09 0.016,0.176 0.066,0.258 l 0,2.48 c -0.051,-0.082 -0.066,-0.168 -0.066,-0.256 z" /><g
         id="g17"><polygon
           style="fill:#9d5125"
           id="polygon19"
           points="55.908,35.811 50.65,35.811 50.445,33.193 56.133,33.131 " /></g><g
         id="g21"><path
           style="fill:#9d5125"
           inkscape:connector-curvature="0"
           id="path23"
           d="m 59.373,33.521 0,2.48 c -0.322,0.396 -0.799,0.666 -1.352,0.703 l 0,-2.48 c 0.553,-0.038 1.03,-0.306 1.352,-0.703" /></g><path
         style="fill:#9d5125"
         inkscape:connector-curvature="0"
         id="path25"
         d="m 59.373,33.521 0,2.48 c -0.322,0.396 -0.799,0.666 -1.352,0.703 l 0,-2.48 c 0.553,-0.038 1.03,-0.306 1.352,-0.703 z" /><g
         id="g27"><polygon
           style="fill:#9d5125"
           id="polygon29"
           points="63.42,38.854 59.373,36.002 58.592,32.84 63.42,36.373 " /></g><g
         id="g31"><polygon
           style="fill:#9d5125"
           id="polygon33"
           points="50.65,35.811 44.352,43.318 44.352,40.836 50.65,33.33 " /></g><g
         id="g35"><polygon
           style="fill:#9d5125"
           id="polygon37"
           points="59.385,43.535 55.908,35.811 55.908,33.33 59.385,41.055 " /></g><g
         id="g39"><polygon
           style="fill:#9d5125"
           id="polygon41"
           points="63.42,44.623 62.182,45.045 62.182,42.562 64.258,41.568 " /></g><g
         id="g43"><polygon
           style="fill:#9d5125"
           id="polygon45"
           points="72.633,47.025 70.482,47.025 70.482,44.547 73.092,44.256 " /></g><g
         id="g47"><rect
           style="fill:#9d5125"
           id="rect49"
           height="2.4790001"
           width="0.359"
           y="44.547001"
           x="67.299004" /></g><g
         id="g51"><path
           style="fill:#9d5125"
           inkscape:connector-curvature="0"
           id="path53"
           d="m 74.719,42.807 0,2.48 c 0,0.076 -0.004,0.148 -0.014,0.219 l 0,-2.48 c 0.01,-0.073 0.014,-0.145 0.014,-0.219" /><path
           style="fill:#9d5125"
           inkscape:connector-curvature="0"
           id="path55"
           d="m 74.705,43.025 0,2.48 c -0.012,0.082 -0.031,0.164 -0.055,0.242 l 0,-2.482 c 0.024,-0.076 0.043,-0.158 0.055,-0.24" /><path
           style="fill:#9d5125"
           inkscape:connector-curvature="0"
           id="path57"
           d="m 74.65,43.266 0,2.482 c -0.031,0.094 -0.072,0.184 -0.117,0.268 l 0,-2.48 c 0.045,-0.087 0.086,-0.175 0.117,-0.27" /><path
           style="fill:#9d5125"
           inkscape:connector-curvature="0"
           id="path59"
           d="m 74.533,43.535 0,2.48 c -0.348,0.627 -1.125,1.01 -1.9,1.01 l 0,-2.479 c 0.775,10e-4 1.553,-0.384 1.9,-1.011" /></g><path
         style="fill:#9d5125"
         inkscape:connector-curvature="0"
         id="path61"
         d="m 74.719,42.807 0,2.48 c 0,1.049 -1.043,1.738 -2.086,1.738 l 0,-2.479 c 1.043,10e-4 2.086,-0.691 2.086,-1.739 z" /><g
         id="g63"><path
           style="fill:#9d5125"
           inkscape:connector-curvature="0"
           id="path65"
           d="m 65.197,44.686 0,2.48 C 64.193,47.104 63.42,46.297 63.42,45.287 l 0,-2.48 c 0,1.009 0.773,1.816 1.777,1.879" /></g><path
         style="fill:#9d5125"
         inkscape:connector-curvature="0"
         id="path67"
         d="m 65.197,44.686 0,2.48 C 64.193,47.104 63.42,46.297 63.42,45.287 l 0,-2.48 c 0,1.009 0.773,1.816 1.777,1.879 z" /><g
         id="g69"><polygon
           style="fill:#9d5125"
           id="polygon71"
           points="60.236,45.684 45.061,51.004 45.061,48.521 60.236,43.203 " /></g><g
         id="g73"><polygon
           style="fill:#9d5125"
           id="polygon75"
           points="63.021,51.285 60.092,45.256 59.883,42.256 63.021,48.805 " /></g><g
         id="g77"><polygon
           style="fill:#9d5125"
           id="polygon79"
           points="67.299,47.025 65.277,51.338 65.277,48.855 67.633,43.506 " /></g><g
         id="g81"><polygon
           style="fill:#9d5125"
           id="polygon83"
           points="65.119,55.199 64.23,53.422 64.008,50.131 65.119,52.719 " /></g><g
         id="g85"><polygon
           style="fill:#9d5125"
           id="polygon87"
           points="64.23,53.422 61.783,58.395 61.783,55.916 64.23,50.939 " /></g><g
         id="g89"><polygon
           style="fill:#9d5125"
           id="polygon91"
           points="58.846,59.674 45.061,57.004 45.061,54.521 58.846,57.195 " /></g><g
         id="g93"><polygon
           style="fill:#9d5125"
           id="polygon95"
           points="63.42,60.646 60.92,60.059 60.383,57.381 63.42,58.166 " /></g><g
         id="g97"><path
           style="fill:#9d5125"
           inkscape:connector-curvature="0"
           id="path99"
           d="m 45.061,57.309 0,2.482 c 0,0.164 -0.014,0.324 -0.033,0.48 l 0,-2.48 c 0.019,-0.156 0.033,-0.316 0.033,-0.482" /><path
           style="fill:#9d5125"
           inkscape:connector-curvature="0"
           id="path101"
           d="m 45.027,57.791 0,2.48 c -0.023,0.168 -0.064,0.328 -0.113,0.48 l 0,-2.48 c 0.049,-0.152 0.09,-0.314 0.113,-0.48" /><path
           style="fill:#9d5125"
           inkscape:connector-curvature="0"
           id="path103"
           d="m 44.914,58.271 0,2.48 c -0.051,0.164 -0.119,0.32 -0.197,0.467 l 0,-2.48 c 0.078,-0.146 0.146,-0.302 0.197,-0.467" /><path
           style="fill:#9d5125"
           inkscape:connector-curvature="0"
           id="path105"
           d="m 44.717,58.738 0,2.48 c -0.23,0.416 -0.572,0.756 -1.012,1.002 l 0,-2.482 c 0.44,-0.242 0.781,-0.584 1.012,-1" /></g><path
         style="fill:#9d5125"
         inkscape:connector-curvature="0"
         id="path107"
         d="m 45.061,57.309 0,2.482 c 0,1.072 -0.479,1.943 -1.355,2.43 l 0,-2.482 c 0.876,-0.485 1.355,-1.356 1.355,-2.43 z" /><g
         id="g109"><path
           style="fill:#9d5125"
           inkscape:connector-curvature="0"
           id="path111"
           d="m 28.348,59.982 0,2.48 c -1.572,0 -3.066,-1.1 -3.066,-2.672 l 0,-2.482 c -0.001,1.575 1.493,2.674 3.066,2.674" /></g><path
         style="fill:#9d5125"
         inkscape:connector-curvature="0"
         id="path113"
         d="m 28.348,59.982 0,2.48 c -1.572,0 -3.066,-1.1 -3.066,-2.672 l 0,-2.482 c -0.001,1.575 1.493,2.674 3.066,2.674 z" /><g
         id="g115"><polygon
           style="fill:#9d5125"
           id="polygon117"
           points="41.555,62.463 28.348,62.463 27.82,59.506 41.555,59.982 " /></g><g
         id="g119"><polygon
           style="fill:#9d5125"
           id="polygon121"
           points="72.633,65.264 65.287,65.264 64.758,62.568 73.174,62.674 " /></g><g
         id="g123"><path
           style="fill:#9d5125"
           inkscape:connector-curvature="0"
           id="path125"
           d="m 74.719,61.875 0,2.48 c 0,0.064 -0.002,0.127 -0.012,0.184 l 0,-2.482 c 0.01,-0.055 0.012,-0.118 0.012,-0.182" /><path
           style="fill:#9d5125"
           inkscape:connector-curvature="0"
           id="path127"
           d="m 74.707,62.057 0,2.482 c -0.008,0.055 -0.018,0.107 -0.033,0.154 l 0,-2.48 c 0.015,-0.049 0.025,-0.1 0.033,-0.156" /><path
           style="fill:#9d5125"
           inkscape:connector-curvature="0"
           id="path129"
           d="m 74.674,62.213 0,2.48 c -0.016,0.049 -0.037,0.092 -0.057,0.133 l 0,-2.48 c 0.02,-0.041 0.041,-0.086 0.057,-0.133" /><path
           style="fill:#9d5125"
           inkscape:connector-curvature="0"
           id="path131"
           d="m 74.617,62.346 0,2.48 c -0.221,0.395 -0.758,0.443 -1.371,0.443 -0.201,0 -0.406,-0.006 -0.613,-0.006 l 0,-2.48 c 0.207,0 0.412,0.006 0.613,0.006 0.613,0 1.15,-0.049 1.371,-0.443" /></g><path
         style="fill:#9d5125"
         inkscape:connector-curvature="0"
         id="path133"
         d="m 74.719,61.875 0,2.48 c 0,0.832 -0.67,0.914 -1.473,0.914 -0.201,0 -0.406,-0.006 -0.613,-0.006 l 0,-2.48 c 0.207,0 0.412,0.006 0.613,0.006 0.803,0 1.473,-0.084 1.473,-0.914 z" /><g
         id="g135"><path
           style="fill:#9d5125"
           inkscape:connector-curvature="0"
           id="path137"
           d="m 65.287,62.783 0,2.48 c -0.311,0 -0.771,0.205 -1.117,0.205 -0.109,0 -0.211,-0.02 -0.285,-0.076 l 0,-2.48 c 0.074,0.055 0.176,0.076 0.285,0.076 0.346,0 0.807,-0.205 1.117,-0.205" /></g><path
         style="fill:#9d5125"
         inkscape:connector-curvature="0"
         id="path139"
         d="m 65.287,62.783 0,2.48 c -0.311,0 -0.771,0.205 -1.117,0.205 -0.109,0 -0.211,-0.02 -0.285,-0.076 l 0,-2.48 c 0.074,0.055 0.176,0.076 0.285,0.076 0.346,0 0.807,-0.205 1.117,-0.205 z" /><g
         id="g141"><polygon
           style="fill:#9d5125"
           id="polygon143"
           points="60.92,60.059 57.609,66.658 57.609,64.178 60.92,57.578 " /></g><g
         id="g145"><polygon
           style="fill:#9d5125"
           id="polygon147"
           points="63.885,65.393 59.182,69.445 59.182,66.965 64.509,62.09 " /></g><g
         id="g149"><polygon
           style="fill:#9d5125"
           id="polygon151"
           points="49.287,70.008 41.555,62.463 41.133,59.131 49.287,67.529 " /></g><g
         id="g153"><path
           style="fill:#9d5125"
           inkscape:connector-curvature="0"
           id="path155"
           d="m 50.547,75.406 0,2.48 c -1.057,0 -1.26,-0.818 -1.26,-1.867 l 0,-2.48 c 0,1.047 0.203,1.867 1.26,1.867" /></g><path
         style="fill:#9d5125"
         inkscape:connector-curvature="0"
         id="path157"
         d="m 50.547,75.406 0,2.48 c -1.057,0 -1.26,-0.818 -1.26,-1.867 l 0,-2.48 c 0,1.047 0.203,1.867 1.26,1.867 z" /><g
         id="g159"><path
           style="fill:#9d5125"
           inkscape:connector-curvature="0"
           id="path161"
           d="m 59.182,73.539 0,2.48 c 0,0.223 -0.012,0.434 -0.041,0.631 l 0,-2.482 c 0.029,-0.195 0.041,-0.408 0.041,-0.629" /><path
           style="fill:#9d5125"
           inkscape:connector-curvature="0"
           id="path163"
           d="m 59.141,74.168 0,2.482 c -0.02,0.141 -0.049,0.273 -0.088,0.395 l 0,-2.48 c 0.039,-0.124 0.068,-0.256 0.088,-0.397" /><path
           style="fill:#9d5125"
           inkscape:connector-curvature="0"
           id="path165"
           d="m 59.053,74.564 0,2.48 c -0.029,0.1 -0.07,0.193 -0.117,0.277 l 0,-2.48 c 0.046,-0.085 0.087,-0.179 0.117,-0.277" /><path
           style="fill:#9d5125"
           inkscape:connector-curvature="0"
           id="path167"
           d="m 58.936,74.842 0,2.48 c -0.193,0.35 -0.521,0.564 -1.057,0.564 l 0,-2.48 c 0.535,0 0.863,-0.215 1.057,-0.564" /></g><path
         style="fill:#9d5125"
         inkscape:connector-curvature="0"
         id="path169"
         d="m 59.182,73.539 0,2.48 c 0,1.049 -0.26,1.867 -1.303,1.867 l 0,-2.48 c 1.043,0 1.303,-0.82 1.303,-1.867 z" /><g
         id="g171"><polygon
           style="fill:#9d5125"
           id="polygon173"
           points="57.879,77.887 50.547,77.887 50.258,75.131 58.452,74.996 " /></g><g
         id="g175"><path
           style="fill:#f58536"
           inkscape:connector-curvature="0"
           id="path177"
           d="m 72.633,44.547 -2.15,0 0,8.414 2.15,0 c 1.043,0 2.086,0.588 2.086,1.623 l 0,7.291 c 0,0.83 -0.67,0.914 -1.473,0.914 -0.201,0 -0.406,-0.006 -0.613,-0.006 l -7.346,0 c -0.311,0 -0.771,0.205 -1.117,0.205 -0.109,0 -0.211,-0.021 -0.285,-0.076 l -4.703,4.053 0,6.574 c 0,1.047 -0.26,1.867 -1.303,1.867 l -7.332,0 c -1.057,0 -1.26,-0.82 -1.26,-1.867 l 0,-6.01 -7.732,-7.547 -13.207,0 c -1.572,0 -3.066,-1.1 -3.066,-2.674 l 0,-14.015 c 0,-1.562 1.494,-2.955 3.066,-2.955 l 14.119,0 0.377,0.09 6.404,-7.098 c -0.17,-0.283 0.039,-0.615 0.039,-0.973 l 0,-7.289 c 0,-1.037 0.203,-2.955 1.26,-2.955 l 7.332,0 c 1.043,0 1.303,1.918 1.303,2.955 l 0,6.432 4.328,2.699 c 0.348,-0.436 1.172,-0.869 1.777,-0.869 l 7.346,0 c 1.043,0 2.086,1.15 2.086,2.199 l 0,7.277 c 0,1.049 -1.043,1.741 -2.086,1.741 z m -9.612,4.258 -2.785,-5.602 -15.176,5.318 0,4.082 14.646,2.928 3.315,-6.726 M 50.65,33.33 44.351,40.836 c 0.514,0.512 0.709,1.676 0.709,2.457 l 0,3.223 14.324,-5.461 -3.477,-7.725 -5.257,0 m -0.103,30.848 4.936,0 3.363,-6.982 -13.785,-2.674 0,2.787 c 0,1.074 -0.479,1.945 -1.355,2.43 l 5.297,5.334 c 0.345,-0.485 0.899,-0.895 1.544,-0.895 m 12.873,-2.559 0,-3.453 -2.5,-0.588 -3.311,6.6 0.27,0 c 0.543,0 1.043,0.332 1.391,0.689 l 4.15,-3.248 M 59.373,33.521 c -0.322,0.396 -0.799,0.664 -1.352,0.703 l 3.311,6.637 2.088,-0.729 0,-3.76 -4.047,-2.851 m 8.285,19.44 0,-8.414 -0.359,0 -2.021,4.309 1.945,4.105 0.435,0 m -4.238,1.623 c 0,-0.971 0.746,-1.764 1.699,-1.865 l -0.889,-1.779 -2.447,4.977 1.637,0.332 0,-1.665 m 0.799,-7.916 0.979,-1.982 c -1.004,-0.062 -1.777,-0.869 -1.777,-1.879 l 0,-0.666 -1.238,0.422 2.036,4.105" /></g></g></g><g
     id="nyt_x5F_exporter_x5F_info"
     display="none" /></svg>